<?xml version="1.0" encoding="UTF-8"?> <svg xmlns="http://www.w3.org/2000/svg" width="233" height="200" viewBox="0 0 233 200" fill="none"> <path d="M0.5 0.5H213C223.77 0.5 232.5 9.23045 232.5 20V199.5H0.5V0.5Z" fill="#141516" stroke="#C7C7C7"></path> <path fill-rule="evenodd" clip-rule="evenodd" d="M64.5562 88.174C65.6168 87.9976 66.4999 87.1735 66.6972 86.0568C66.9477 84.6404 65.9997 83.2897 64.58 83.04C63.1606 82.7902 61.8067 83.736 61.5564 85.1524C61.3591 86.2691 61.9065 87.3449 62.8426 87.8726L62.481 89.9185H54.7597L54.3981 87.8727C55.3344 87.3451 55.8819 86.2692 55.6846 85.1524C55.4343 83.736 54.0805 82.7902 52.6609 83.04C51.2413 83.2897 50.2934 84.6404 50.5437 86.0568C50.741 87.1734 51.624 87.9974 52.6844 88.174L52.9927 89.9185H49.4812C46.454 89.9185 44 92.367 44 95.3873V107.28C44 110.3 46.454 112.748 49.4812 112.748H52.3377C52.8479 112.748 53.2592 113.165 53.2511 113.675L53.2112 116.187C53.1973 117.058 54.1594 117.595 54.8958 117.127L59.5479 114.173C61.0137 113.243 62.7151 112.748 64.4524 112.748H67.7519C70.7792 112.748 73.2331 110.3 73.2331 107.28V95.3873C73.2331 92.367 70.7792 89.9185 67.7519 89.9185H64.2479L64.5562 88.174ZM65.155 85.7855C65.0549 86.3521 64.5133 86.7304 63.9455 86.6305C63.3776 86.5306 62.9985 85.9903 63.0986 85.4238C63.1988 84.8572 63.7403 84.4789 64.3082 84.5788C64.876 84.6787 65.2551 85.2189 65.155 85.7855ZM54.1424 85.4237C54.2425 85.9903 53.8634 86.5306 53.2955 86.6305C52.7277 86.7304 52.1862 86.3521 52.086 85.7855C51.9859 85.219 52.3651 84.6787 52.9329 84.5788C53.5008 84.4789 54.0423 84.8572 54.1424 85.4237Z" fill="white"></path> <path d="M50.0469 99.8142C50.0469 98.1602 51.3908 96.8193 53.0485 96.8193C54.7062 96.8193 56.0501 98.1602 56.0501 99.8142C56.0501 100.318 55.6411 100.726 55.1366 100.726C54.6321 100.726 54.223 100.318 54.223 99.8142C54.223 99.1669 53.6972 98.6423 53.0485 98.6423C52.3998 98.6423 51.8739 99.1669 51.8739 99.8142C51.8739 100.318 51.4649 100.726 50.9604 100.726C50.4559 100.726 50.0469 100.318 50.0469 99.8142Z" fill="#5A34F0"></path> <path d="M51.5702 104.632C51.7862 104.177 52.331 103.983 52.7869 104.199C53.8073 104.681 55.6644 105.285 57.8144 105.461C59.9612 105.636 62.3304 105.379 64.441 104.224C64.8833 103.981 65.4387 104.143 65.6814 104.584C65.9242 105.025 65.7624 105.579 65.3201 105.822C62.8023 107.2 60.0455 107.472 57.6653 107.278C55.2882 107.083 53.2171 106.42 52.0044 105.846C51.5485 105.631 51.3541 105.087 51.5702 104.632Z" fill="#5A34F0"></path> <path d="M64.185 96.8193C62.5274 96.8193 61.1834 98.1602 61.1834 99.8142C61.1834 100.318 61.5925 100.726 62.097 100.726C62.6015 100.726 63.0105 100.318 63.0105 99.8142C63.0105 99.1669 63.5365 98.6423 64.185 98.6423C64.8337 98.6423 65.3596 99.167 65.3596 99.8142C65.3596 100.318 65.7686 100.726 66.2731 100.726C66.7777 100.726 67.1867 100.318 67.1867 99.8142C67.1867 98.1601 65.8427 96.8193 64.185 96.8193Z" fill="#5A34F0"></path> <path d="M89.4746 92.0933H96.6326C98.0496 92.0933 99.1041 92.1539 99.7963 92.275C100.497 92.388 101.12 92.6303 101.665 93.0017C102.219 93.3731 102.679 93.8697 103.046 94.4914C103.412 95.105 103.595 95.7954 103.595 96.5624C103.595 97.3941 103.367 98.1571 102.911 98.8515C102.463 99.5459 101.853 100.067 101.079 100.414C102.17 100.729 103.009 101.266 103.595 102.025C104.182 102.784 104.475 103.676 104.475 104.701C104.475 105.509 104.283 106.296 103.901 107.063C103.526 107.822 103.009 108.432 102.349 108.892C101.698 109.344 100.892 109.623 99.9307 109.728C99.3281 109.792 97.8745 109.833 95.5699 109.849H89.4746V92.0933ZM93.0903 95.0485V99.1543H95.46C96.8688 99.1543 97.7442 99.1341 98.0862 99.0937C98.7051 99.0211 99.1896 98.8111 99.5398 98.4639C99.8981 98.1087 100.077 97.6444 100.077 97.0711C100.077 96.5221 99.9225 96.078 99.6131 95.7389C99.3118 95.3917 98.8598 95.1817 98.2572 95.1091C97.8989 95.0687 96.8688 95.0485 95.1668 95.0485H93.0903ZM93.0903 102.109V106.857H96.4372C97.7401 106.857 98.5667 106.821 98.9168 106.748C99.4543 106.651 99.89 106.417 100.224 106.046C100.566 105.666 100.737 105.162 100.737 104.532C100.737 103.999 100.607 103.547 100.346 103.175C100.085 102.804 99.7067 102.533 99.21 102.364C98.7214 102.194 97.6546 102.109 96.0097 102.109H93.0903Z" fill="white"></path> <path d="M106.722 103.236C106.722 102.105 107.003 101.011 107.565 99.9537C108.127 98.8959 108.921 98.0885 109.947 97.5314C110.981 96.9742 112.134 96.6957 113.404 96.6957C115.366 96.6957 116.975 97.3295 118.229 98.5972C119.483 99.8568 120.11 101.451 120.11 103.381C120.11 105.327 119.475 106.942 118.204 108.226C116.942 109.502 115.35 110.139 113.428 110.139C112.239 110.139 111.103 109.873 110.02 109.34C108.945 108.807 108.127 108.028 107.565 107.003C107.003 105.969 106.722 104.713 106.722 103.236ZM110.24 103.418C110.24 104.693 110.546 105.67 111.156 106.349C111.767 107.027 112.52 107.366 113.416 107.366C114.312 107.366 115.061 107.027 115.664 106.349C116.274 105.67 116.58 104.685 116.58 103.393C116.58 102.134 116.274 101.165 115.664 100.487C115.061 99.8083 114.312 99.4692 113.416 99.4692C112.52 99.4692 111.767 99.8083 111.156 100.487C110.546 101.165 110.24 102.142 110.24 103.418Z" fill="white"></path> <path d="M128.758 96.9863V99.6993H126.413V104.883C126.413 105.933 126.433 106.546 126.474 106.724C126.523 106.894 126.625 107.035 126.779 107.148C126.942 107.261 127.138 107.317 127.366 107.317C127.683 107.317 128.143 107.208 128.746 106.99L129.039 109.631C128.241 109.97 127.337 110.139 126.327 110.139C125.708 110.139 125.151 110.038 124.654 109.837C124.157 109.627 123.791 109.36 123.555 109.037C123.327 108.706 123.168 108.262 123.078 107.705C123.005 107.309 122.968 106.51 122.968 105.307V99.6993H121.393V96.9863H122.968V94.4308L126.413 92.4445V96.9863H128.758Z" fill="white"></path> <path d="M131.14 95.2423V92.0933H134.573V95.2423H131.14ZM131.14 109.849V96.9863H134.573V109.849H131.14Z" fill="white"></path> <path d="M136.6 96.9863H138.506V96.0174C138.506 94.9355 138.62 94.128 138.848 93.5951C139.084 93.0622 139.511 92.6303 140.13 92.2992C140.757 91.9601 141.547 91.7905 142.5 91.7905C143.477 91.7905 144.434 91.9359 145.371 92.2265L144.906 94.6004C144.361 94.4712 143.836 94.4066 143.331 94.4066C142.834 94.4066 142.476 94.5237 142.256 94.7578C142.044 94.9839 141.938 95.424 141.938 96.078V96.9863H144.503V99.663H141.938V109.849H138.506V99.663H136.6V96.9863Z" fill="white"></path> <path d="M144.809 96.9863H148.461L151.564 106.118L154.593 96.9863H158.148L153.567 109.364L152.749 111.605C152.447 112.356 152.158 112.929 151.881 113.325C151.613 113.72 151.299 114.039 150.941 114.282C150.591 114.532 150.155 114.726 149.634 114.863C149.121 115 148.538 115.069 147.887 115.069C147.227 115.069 146.58 115 145.945 114.863L145.639 112.198C146.177 112.303 146.661 112.356 147.093 112.356C147.891 112.356 148.481 112.122 148.864 111.653C149.247 111.193 149.54 110.604 149.744 109.885L144.809 96.9863Z" fill="white"></path> <path d="M182.565 109.849H178.632L177.069 105.816H169.911L168.433 109.849H164.597L171.572 92.0933H175.395L182.565 109.849ZM175.908 102.824L173.441 96.2354L171.022 102.824H175.908Z" fill="white"></path> <path d="M184.385 109.849V92.0933H188.001V109.849H184.385Z" fill="white"></path> </svg> 