<?xml version="1.0" encoding="UTF-8"?> <svg xmlns="http://www.w3.org/2000/svg" width="362" height="332" viewBox="0 0 362 332" fill="none"> <rect x="0.5" y="0.5" width="361" height="331" rx="20.5" fill="url(#paint0_linear_3016_74)"></rect> <rect x="0.5" y="0.5" width="361" height="331" rx="20.5" fill="url(#paint1_linear_3016_74)"></rect> <rect x="0.5" y="0.5" width="361" height="331" rx="20.5" stroke="url(#paint2_linear_3016_74)"></rect> <mask id="mask0_3016_74" style="mask-type:alpha" maskUnits="userSpaceOnUse" x="1" y="1" width="360" height="330"> <rect x="1.5" y="1.5" width="359" height="329" rx="19.5" fill="url(#paint3_linear_3016_74)" stroke="url(#paint4_linear_3016_74)"></rect> </mask> <g mask="url(#mask0_3016_74)"> <g filter="url(#filter0_f_3016_74)"> <ellipse cx="100.5" cy="284.685" rx="156.5" ry="78.0732" fill="#FFD39E" fill-opacity="0.4"></ellipse> </g> <g filter="url(#filter1_f_3016_74)"> <path d="M175.222 182.821C205.385 222.403 171.172 237.064 110.385 265.464C49.5976 293.864 -63.5138 283.455 -84.6152 254.196C-105.717 224.936 -55.6156 182.821 32.3838 204.293C93.171 175.893 150.385 168.476 175.222 182.821Z" fill="#FF9EBB" fill-opacity="0.6"></path> </g> <g filter="url(#filter2_f_3016_74)"> <ellipse rx="121.485" ry="65.3194" transform="matrix(0.905998 -0.423281 0.584933 0.811082 171.272 318.694)" fill="#9ED1FF" fill-opacity="0.6"></ellipse> </g> <g filter="url(#filter3_f_3016_74)"> <ellipse rx="106.327" ry="74.1731" transform="matrix(0.451922 -0.892058 0.950138 0.311829 350.526 238.101)" fill="#BD9EFF" fill-opacity="0.6"></ellipse> </g> <path d="M-47.3837 225.36C-43.6384 222.791 -37.8367 222.684 -33.2595 224.261C-28.6822 225.837 -25.1453 228.814 -22.1822 231.955C-14.573 240.019 -9.95893 249.516 -3.76032 258.282C2.43829 267.048 10.9196 275.512 22.932 279.066C41.6805 284.611 61.986 276.751 80.3228 270.488C85.1217 268.848 90.226 267.279 95.443 267.708C102.121 268.257 107.772 272.072 111.197 276.576C114.622 281.081 116.196 286.262 117.867 291.327C123.251 307.64 130.525 324.275 145.583 336.384C160.64 348.493 192.595 358.744 226.025 347.047" stroke="url(#paint5_linear_3016_74)" stroke-width="0.7121" stroke-miterlimit="10"></path> <path opacity="0.9756" d="M225.547 348.021C206.754 354.229 188.477 353.104 173.428 348.655C162.687 345.48 153.627 340.627 147.363 335.454C141.557 330.68 136.841 325.261 132.876 319.496C131.341 317.258 129.916 314.969 128.586 312.66C125.438 307.19 122.843 301.604 120.601 296.014C119.943 294.372 119.313 292.734 118.703 291.102C117.423 287.658 116.196 284.167 114.343 280.902C113.588 279.566 112.726 278.27 111.706 277.022C110.023 274.976 107.836 273.062 105.288 271.501C102.496 269.791 99.3524 268.54 95.9679 268.165C94.6623 268.024 93.3661 268.009 92.0821 268.098C88.4004 268.346 84.8064 269.402 81.3816 270.494C77.966 271.581 74.4785 272.725 70.9445 273.822C61.9583 276.609 52.663 279.077 43.2942 279.5C37.2959 279.78 31.2704 279.235 25.3483 277.433C21.4812 276.256 17.9509 274.604 14.7304 272.63C7.92045 268.459 2.52393 262.844 -1.84839 257.105C-6.25343 251.309 -9.9346 245.189 -14.3386 239.343C-16.3636 236.658 -18.5319 234.033 -20.991 231.532C-24.0317 228.438 -27.6333 225.487 -32.2403 223.893C-36.8474 222.298 -42.649 222.338 -46.4414 224.783" stroke="url(#paint6_linear_3016_74)" stroke-width="0.7063" stroke-miterlimit="10"></path> <path opacity="0.9512" d="M225.492 348.838C207.398 354.433 189.828 352.826 175.16 348.048C164.722 344.648 155.809 339.662 149.565 334.373C143.791 329.52 139.035 324.064 134.948 318.313C133.365 316.081 131.885 313.81 130.49 311.535C127.181 306.149 124.403 300.775 122.001 295.425C121.296 293.855 120.619 292.284 119.967 290.723C118.593 287.435 117.273 284.106 115.361 281.006C114.582 279.737 113.697 278.503 112.648 277.315C110.919 275.363 108.676 273.534 106.104 271.969C103.279 270.253 100.206 268.926 96.9297 268.47C95.6643 268.291 94.4135 268.248 93.1748 268.304C89.6286 268.45 86.1683 269.38 82.8725 270.347C79.5859 271.309 76.2318 272.324 72.8268 273.294C64.1749 275.766 55.2317 277.902 46.0198 278.06C40.1237 278.173 34.127 277.5 28.1918 275.648C24.3176 274.436 20.7536 272.779 17.4778 270.83C10.5625 266.714 5.0283 261.298 0.490894 255.775C-4.07475 250.191 -7.9291 244.307 -12.4982 238.611C-14.5988 235.999 -16.8443 233.424 -19.3623 230.965C-22.4853 227.916 -26.1421 224.991 -30.7834 223.383C-35.425 221.771 -41.2266 221.745 -45.0617 224.06" stroke="url(#paint7_linear_3016_74)" stroke-width="0.7005" stroke-miterlimit="10"></path> <path opacity="0.9268" d="M225.831 349.509C208.431 354.495 191.574 352.406 177.287 347.295C167.155 343.67 158.409 338.542 152.162 333.145C146.439 328.206 141.619 322.722 137.414 316.984C135.789 314.761 134.252 312.5 132.788 310.259C129.32 304.962 126.357 299.801 123.796 294.682C123.043 293.18 122.324 291.684 121.625 290.195C120.157 287.058 118.741 283.899 116.773 280.957C115.966 279.754 115.061 278.583 113.984 277.458C112.21 275.605 109.911 273.855 107.31 272.288C104.451 270.566 101.449 269.167 98.281 268.624C97.0561 268.413 95.8506 268.337 94.6616 268.356C91.2561 268.407 87.929 269.205 84.7574 270.046C81.5999 270.883 78.3747 271.772 75.1083 272.617C66.795 274.769 58.1983 276.562 49.1395 276.466C43.3498 276.405 37.378 275.614 31.4292 273.706C27.543 272.46 23.9453 270.796 20.6241 268.877C13.599 264.819 7.92677 259.599 3.22402 254.288C-1.49748 248.916 -5.53476 243.264 -10.2687 237.722C-12.4499 235.179 -14.7677 232.658 -17.3495 230.236C-20.5498 227.238 -24.2712 224.339 -28.9426 222.709C-33.6187 221.079 -39.4155 220.987 -43.3026 223.176" stroke="url(#paint8_linear_3016_74)" stroke-width="0.6947" stroke-miterlimit="10"></path> <path opacity="0.9024" d="M226.538 350.06C209.836 354.432 193.698 351.869 179.781 346.422C169.953 342.576 161.363 337.306 155.127 331.793C149.445 326.771 144.575 321.251 140.247 315.53C138.575 313.314 136.987 311.067 135.455 308.863C131.826 303.65 128.673 298.703 125.959 293.822C125.164 292.391 124.393 290.964 123.651 289.546C122.085 286.564 120.58 283.568 118.553 280.79C117.723 279.655 116.794 278.546 115.683 277.481C113.859 275.726 111.509 274.056 108.879 272.483C105.986 270.754 103.06 269.282 99.9999 268.655C98.8203 268.411 97.66 268.301 96.516 268.284C93.2459 268.233 90.0525 268.905 87.015 269.624C83.9865 270.336 80.8948 271.096 77.7573 271.816C69.7827 273.648 61.5286 275.11 52.6318 274.752C46.9443 274.525 41.0016 273.609 35.0395 271.647C31.1461 270.367 27.5147 268.696 24.1385 266.807C17.0084 262.808 11.1848 257.796 6.33042 252.689C1.43969 247.54 -2.76239 242.108 -7.66111 236.721C-9.92295 234.247 -12.3129 231.779 -14.9587 229.395C-18.2412 226.442 -22.0226 223.569 -26.7235 221.925C-31.4338 220.281 -37.231 220.117 -41.1603 222.184" stroke="url(#paint9_linear_3016_74)" stroke-width="0.6889" stroke-miterlimit="10"></path> <path opacity="0.878" d="M227.592 350.509C211.584 354.272 196.168 351.231 182.622 345.444C173.102 341.376 164.664 335.969 158.438 330.341C152.794 325.24 147.874 319.684 143.427 313.973C141.713 311.762 140.064 309.529 138.463 307.364C134.679 302.235 131.337 297.504 128.464 292.858C127.622 291.495 126.808 290.139 126.024 288.797C124.365 285.966 122.767 283.136 120.681 280.519C119.826 279.447 118.869 278.406 117.734 277.403C115.86 275.747 113.463 274.156 110.801 272.581C107.874 270.846 105.019 269.306 102.066 268.588C100.927 268.312 99.8123 268.17 98.7132 268.116C95.5738 267.962 92.5192 268.512 89.6104 269.103C86.7156 269.689 83.7529 270.324 80.7492 270.918C73.1085 272.431 65.2064 273.561 56.4669 272.941C50.886 272.543 44.9727 271.507 38.9923 269.488C35.0917 268.173 31.4218 266.497 27.9953 264.633C20.7553 260.693 14.7941 255.88 9.77408 250.981C4.72306 246.049 0.347286 240.844 -4.72098 235.611C-7.06342 233.207 -9.52565 230.792 -12.2352 228.446C-15.5952 225.539 -19.4366 222.692 -24.172 221.03C-28.9121 219.368 -34.7092 219.138 -38.6857 221.079" stroke="url(#paint10_linear_3016_74)" stroke-width="0.6831" stroke-miterlimit="10"></path> <path opacity="0.8537" d="M228.974 350.874C213.664 354.028 198.967 350.516 185.791 344.386C176.579 340.101 168.293 334.552 162.078 328.808C156.471 323.629 151.505 318.036 146.936 312.338C145.174 310.134 143.474 307.919 141.804 305.787C137.86 300.746 134.329 296.229 131.297 291.814C130.407 290.519 129.551 289.234 128.72 287.964C126.967 285.287 125.282 282.62 123.131 280.169C122.253 279.163 121.272 278.184 120.108 277.245C118.189 275.688 115.736 274.177 113.045 272.598C110.085 270.861 107.3 269.245 104.456 268.442C103.357 268.133 102.288 267.958 101.238 267.871C98.2348 267.619 95.3136 268.04 92.5341 268.509C89.7682 268.969 86.9393 269.479 84.0643 269.944C76.7622 271.138 69.2075 271.936 60.6249 271.051C55.1463 270.487 49.2621 269.325 43.2636 267.253C39.3511 265.904 35.6475 264.222 32.1756 262.387C24.8305 258.506 18.7269 253.892 13.5464 249.205C8.33452 244.481 3.78535 239.508 -1.44799 234.425C-3.87073 232.094 -6.40546 229.729 -9.17414 227.42C-12.6116 224.56 -16.5177 221.739 -21.2873 220.063C-26.062 218.383 -31.859 218.087 -35.8826 219.903" stroke="url(#paint11_linear_3016_74)" stroke-width="0.6774" stroke-miterlimit="10"></path> <path opacity="0.8293" d="M230.66 351.177C216.044 353.718 202.074 349.739 189.264 343.265C180.365 338.766 172.226 333.073 166.021 327.209C160.456 321.951 155.435 316.323 150.748 310.638C148.945 308.439 147.184 306.238 145.45 304.144C141.345 299.188 137.63 294.884 134.439 290.708C133.502 289.48 132.599 288.267 131.726 287.071C129.879 284.55 128.101 282.049 125.886 279.755C124.979 278.816 123.974 277.901 122.786 277.02C120.818 275.562 118.314 274.13 115.593 272.546C112.599 270.802 109.89 269.113 107.15 268.225C106.096 267.883 105.067 267.675 104.068 267.551C101.199 267.197 98.4119 267.493 95.7613 267.837C93.1242 268.168 90.4242 268.553 87.6879 268.896C80.7248 269.774 73.5171 270.237 65.0917 269.09C59.7201 268.359 53.8603 267.073 47.8482 264.944C43.9286 263.561 40.1916 261.876 36.6644 260.067C29.2093 256.241 22.9684 251.831 17.627 247.351C12.2552 242.847 7.54155 238.098 2.12949 233.173C-0.364621 230.907 -2.98078 228.599 -5.81329 226.328C-9.33305 223.514 -13.2942 220.719 -18.0984 219.025C-22.9075 217.328 -28.7044 216.966 -32.7707 218.652" stroke="url(#paint12_linear_3016_74)" stroke-width="0.6716" stroke-miterlimit="10"></path> <path opacity="0.8049" d="M232.617 351.434C218.699 353.366 205.453 348.924 193.008 342.1C184.417 337.391 176.429 331.549 170.235 325.569C164.707 320.233 159.64 314.564 154.831 308.897C152.981 306.707 151.168 304.517 149.366 302.461C145.1 297.593 141.202 293.501 137.852 289.56C136.867 288.404 135.922 287.262 135.001 286.135C133.061 283.764 131.191 281.429 128.916 279.3C127.986 278.428 126.957 277.576 125.74 276.758C123.722 275.399 121.166 274.047 118.417 272.459C115.39 270.71 112.752 268.948 110.119 267.974C109.106 267.6 108.127 267.359 107.168 267.199C104.435 266.747 101.782 266.921 99.2644 267.131C96.7568 267.345 94.19 267.597 91.5872 267.811C84.9627 268.369 78.107 268.5 69.8291 267.089C64.5644 266.191 58.7287 264.777 52.7037 262.598C48.7718 261.177 45.0014 259.49 41.4238 257.706C33.8637 253.939 27.4804 249.728 21.9738 245.461C16.4417 241.172 11.5592 236.651 5.97288 231.881C3.3982 229.684 0.709843 227.43 -2.1865 225.196C-5.78347 222.432 -9.80956 219.659 -14.6435 217.947C-19.4824 216.232 -25.2792 215.805 -29.3926 217.365" stroke="url(#paint13_linear_3016_74)" stroke-width="0.6658" stroke-miterlimit="10"></path> <path opacity="0.7805" d="M234.832 351.668C221.608 352.988 209.095 348.086 197.01 340.907C188.732 335.989 180.891 329.998 174.707 323.902C169.217 318.487 164.1 312.783 159.173 307.128C157.28 304.945 155.411 302.769 153.54 300.75C149.119 295.967 145.027 292.092 141.523 288.382C140.496 287.294 139.499 286.223 138.536 285.171C136.503 282.955 134.544 280.782 132.205 278.815C131.251 278.009 130.194 277.22 128.953 276.461C126.88 275.197 124.278 273.932 121.5 272.338C118.439 270.583 115.872 268.753 113.347 267.689C112.379 267.282 111.44 267.005 110.531 266.812C107.934 266.257 105.414 266.306 103.026 266.395C100.647 266.484 98.214 266.606 95.7405 266.699C89.4499 266.938 82.9465 266.741 74.8256 265.065C69.6631 264.001 63.8565 262.462 57.8182 260.229C53.8792 258.774 50.0704 257.081 46.4474 255.326C38.7776 251.618 32.2567 247.607 26.5893 243.547C20.897 239.474 15.8408 235.18 10.0898 230.565C7.43929 228.437 4.67399 226.236 1.71382 224.04C-1.96062 221.322 -6.05136 218.575 -10.9147 216.849C-15.7881 215.116 -21.5848 214.624 -25.7406 216.058" stroke="url(#paint14_linear_3016_74)" stroke-width="0.66" stroke-miterlimit="10"></path> <path opacity="0.7561" d="M237.274 351.892C224.744 352.603 212.959 347.246 201.238 339.709C193.27 334.585 185.575 328.445 179.407 322.229C173.953 316.736 168.791 310.996 163.741 305.354C161.801 303.177 159.877 301.019 157.942 299.034C153.361 294.335 149.084 290.673 145.421 287.201C144.347 286.181 143.307 285.182 142.297 284.201C140.166 282.136 138.12 280.134 135.721 278.323C134.743 277.585 133.662 276.858 132.387 276.163C130.264 274.997 127.612 273.812 124.805 272.212C121.71 270.45 119.219 268.547 116.802 267.398C115.875 266.958 114.981 266.649 114.121 266.422C111.655 265.766 109.274 265.689 107.015 265.653C104.765 265.617 102.465 265.613 100.125 265.581C94.1734 265.5 88.0173 264.973 80.0537 263.034C74.9982 261.804 69.2207 260.14 63.1641 257.851C59.2179 256.361 55.3754 254.662 51.6976 252.937C43.9228 249.287 37.2596 245.475 31.4269 241.628C25.5739 237.763 20.3393 233.697 14.4188 229.236C11.6878 227.177 8.85504 225.03 5.82658 222.875C2.06993 220.203 -2.07566 217.486 -6.97378 215.739C-11.8814 213.992 -17.6735 213.429 -21.8812 214.739" stroke="url(#paint15_linear_3016_74)" stroke-width="0.6542" stroke-miterlimit="10"></path> <path opacity="0.7317" d="M239.923 352.139C228.091 352.238 217.035 346.434 205.674 338.534C198.02 333.208 190.47 326.912 184.313 320.577C178.897 315.005 173.684 309.229 168.516 303.601C166.534 301.429 164.554 299.285 162.55 297.334C157.808 292.723 153.343 289.274 149.526 286.037C148.404 285.088 147.317 284.157 146.265 283.248C144.04 281.338 141.906 279.501 139.443 277.852C138.442 277.18 137.332 276.516 136.033 275.88C133.861 274.813 131.157 273.707 128.321 272.105C125.193 270.341 122.773 268.366 120.463 267.127C119.581 266.655 118.728 266.312 117.914 266.049C115.578 265.291 113.335 265.092 111.21 264.931C109.089 264.769 106.923 264.641 104.712 264.479C99.0988 264.079 93.295 263.224 85.4833 261.017C80.5347 259.62 74.7816 257.832 68.7118 255.489C64.7537 253.965 60.8776 252.26 57.1494 250.56C49.2696 246.97 42.4689 243.357 36.4707 239.718C30.4628 236.075 25.0496 232.234 18.9695 227.93C16.1579 225.941 13.2529 223.847 10.1654 221.73C6.33131 219.104 2.12111 216.412 -2.80646 214.651C-7.7438 212.887 -13.5405 212.259 -17.7909 213.439" stroke="url(#paint16_linear_3016_74)" stroke-width="0.6484" stroke-miterlimit="10"></path> <path opacity="0.7073" d="M242.76 352.46C231.622 351.95 221.296 345.698 210.298 337.433C202.953 331.909 195.549 325.453 189.407 319.001C184.028 313.352 178.771 307.535 173.48 301.92C171.451 299.755 169.419 297.624 167.346 295.711C162.445 291.185 157.795 287.948 153.819 284.946C152.65 284.065 151.521 283.205 150.422 282.371C148.104 280.616 145.877 278.942 143.354 277.453C142.33 276.848 141.191 276.247 139.868 275.674C137.641 274.706 134.895 273.679 132.026 272.075C128.864 270.304 126.52 268.261 124.314 266.933C123.472 266.428 122.664 266.053 121.9 265.753C119.699 264.892 117.59 264.568 115.594 264.282C113.602 263.995 111.565 263.738 109.492 263.454C104.213 262.739 98.761 261.549 91.1065 259.08C86.2649 257.516 80.5362 255.604 74.4481 253.205C70.4829 251.646 66.573 249.935 62.7947 248.264C54.805 244.729 47.867 241.319 41.7036 237.892C35.5403 234.465 29.9488 230.851 23.6989 226.698C20.8068 224.778 17.8297 222.737 14.6784 220.658C10.7624 218.082 6.49204 215.413 1.53474 213.633C-3.44627 211.855 -9.23833 211.158 -13.5356 212.216" stroke="url(#paint17_linear_3016_74)" stroke-width="0.6426" stroke-miterlimit="10"></path> <path opacity="0.6829" d="M245.761 352.877C235.32 351.754 225.719 345.063 215.085 336.424C208.045 330.706 200.796 324.089 194.665 317.518C189.323 311.794 184.015 305.937 178.602 300.336C176.53 298.18 174.438 296.064 172.301 294.185C167.244 289.746 162.406 286.723 158.266 283.956C157.05 283.142 155.874 282.354 154.732 281.592C152.32 279.987 150.006 278.482 147.419 277.155C146.371 276.617 145.203 276.079 143.857 275.565C141.574 274.692 138.783 273.748 135.885 272.141C132.689 270.365 130.421 268.248 128.318 266.835C127.522 266.297 126.754 265.886 126.039 265.553C123.969 264.59 121.999 264.141 120.131 263.729C118.269 263.321 116.365 262.935 114.426 262.522C109.485 261.488 104.381 259.97 96.8828 257.233C92.1485 255.506 86.4436 253.462 80.3426 251.013C76.3701 249.42 72.4219 247.703 68.5935 246.061C60.4989 242.585 53.4233 239.374 47.0945 236.155C40.7755 232.939 35.006 229.558 28.5867 225.559C25.6188 223.707 22.5648 221.72 19.3497 219.679C15.3562 217.148 11.026 214.505 6.03452 212.712C1.02825 210.912 -4.76337 210.153 -9.10803 211.082" stroke="url(#paint18_linear_3016_74)" stroke-width="0.6368" stroke-miterlimit="10"></path> <path opacity="0.6585" d="M248.902 353.407C239.155 351.676 230.279 344.546 220.013 335.533C213.282 329.62 206.179 322.84 200.062 316.149C194.754 310.347 189.405 304.454 183.869 298.866C181.75 296.716 179.607 294.614 177.396 292.773C172.179 288.418 167.152 285.612 162.858 283.079C161.6 282.337 160.376 281.62 159.188 280.929C156.683 279.479 154.281 278.137 151.625 276.971C150.553 276.499 149.357 276.028 147.986 275.573C145.649 274.799 142.811 273.934 139.884 272.321C136.655 270.538 134.457 268.353 132.462 266.851C131.707 266.281 130.984 265.836 130.314 265.467C128.375 264.402 126.543 263.831 124.805 263.295C123.071 262.762 121.301 262.246 119.491 261.712C114.889 260.359 110.136 258.513 102.786 255.511C98.1586 253.618 92.4828 251.449 86.3638 248.947C82.3795 247.32 78.3977 245.596 74.5189 243.981C66.3146 240.563 59.1059 237.547 52.612 234.54C46.1328 231.54 40.1897 228.386 33.6058 224.541C30.5574 222.759 27.4312 220.825 24.1523 218.821C20.0814 216.337 15.6866 213.72 10.6607 211.909C5.61994 210.091 -0.171527 209.267 -4.55856 210.07" stroke="url(#paint19_linear_3016_74)" stroke-width="0.631" stroke-miterlimit="10"></path> <path opacity="0.6341" d="M252.16 354.073C243.111 351.733 234.951 344.168 225.057 334.777C218.632 328.675 211.678 321.73 205.577 314.92C200.305 309.039 194.907 303.11 189.253 297.535C187.092 295.391 184.887 293.303 182.613 291.5C177.236 287.229 172.024 284.635 167.572 282.337C166.266 281.663 164.996 281.018 163.765 280.398C161.166 279.099 158.681 277.926 155.957 276.922C154.861 276.516 153.636 276.109 152.241 275.712C149.85 275.037 146.965 274.252 144.014 272.635C140.751 270.847 138.63 268.593 136.738 267.002C136.028 266.402 135.345 265.922 134.725 265.519C132.922 264.352 131.224 263.656 129.619 262.994C128.014 262.336 126.377 261.695 124.701 261.032C120.437 259.359 116.033 257.191 108.839 253.92C104.314 251.864 98.667 249.567 92.5345 247.008C88.543 245.346 84.5278 243.62 80.5939 242.03C72.2847 238.671 64.9338 235.855 58.2747 233.06C51.6401 230.275 45.5188 227.348 38.7655 223.658C35.6366 221.944 32.4383 220.064 29.0956 218.098C24.9425 215.66 20.4878 213.069 15.4322 211.24C10.3618 209.404 4.57017 208.51 0.136312 209.192" stroke="url(#paint20_linear_3016_74)" stroke-width="0.6252" stroke-miterlimit="10"></path> <path opacity="0.6098" d="M255.511 354.896C247.155 351.945 239.716 343.956 230.194 334.179C224.07 327.891 217.275 320.778 211.185 313.848C205.951 307.893 200.506 301.92 194.73 296.362C192.522 294.224 190.266 292.15 187.923 290.385C182.386 286.202 176.985 283.821 172.379 281.758C171.026 281.151 169.713 280.577 168.436 280.033C165.743 278.888 163.171 277.877 160.382 277.034C159.262 276.695 158.009 276.351 156.59 276.017C154.144 275.441 151.213 274.739 148.233 273.116C144.937 271.325 142.886 268.999 141.107 267.318C140.437 266.686 139.8 266.169 139.23 265.733C137.556 264.461 135.997 263.643 134.521 262.86C133.045 262.073 131.538 261.31 129.995 260.522C126.065 258.531 122.017 256.034 114.976 252.495C110.558 250.273 104.935 247.851 98.7894 245.238C94.7858 243.539 90.7372 241.811 86.7579 240.25C78.3391 236.95 70.8555 234.332 64.0309 231.745C57.2407 229.171 50.9417 226.481 44.0235 222.94C40.8143 221.3 37.5436 219.469 34.1419 217.54C29.9114 215.148 25.3971 212.586 20.3071 210.74C15.2025 208.89 9.41073 207.927 4.92948 208.479" stroke="url(#paint21_linear_3016_74)" stroke-width="0.6195" stroke-miterlimit="10"></path> <path opacity="0.5854" d="M258.935 355.897C251.278 352.337 244.55 343.917 235.405 333.759C229.581 327.285 222.941 320 216.866 312.954C211.664 306.92 206.174 300.911 200.28 295.366C198.03 293.234 195.718 291.178 193.307 289.446C187.614 285.348 182.024 283.18 177.26 281.355C175.859 280.819 174.499 280.313 173.179 279.84C170.389 278.85 167.733 278.002 164.88 277.323C163.737 277.051 162.455 276.769 161.007 276.495C158.507 276.021 155.529 275.394 152.521 273.765C149.191 271.968 147.212 269.578 145.54 267.803C144.91 267.139 144.323 266.589 143.793 266.117C142.25 264.739 140.829 263.799 139.482 262.891C138.135 261.979 136.761 261.088 135.352 260.174C131.761 257.867 128.061 255.044 121.175 251.236C116.865 248.851 111.266 246.301 105.102 243.631C101.092 241.898 97.0046 240.164 92.975 238.628C84.451 235.383 76.8302 232.968 69.8358 230.593C62.8902 228.234 56.4082 225.771 49.3254 222.385C46.0357 220.814 42.6929 219.036 39.2274 217.145C34.9198 214.802 30.3407 212.263 25.2209 210.399C20.0819 208.532 14.295 207.502 9.76669 207.929" stroke="url(#paint22_linear_3016_74)" stroke-width="0.6137" stroke-miterlimit="10"></path> <path opacity="0.561" d="M262.399 357.095C255.435 352.924 249.419 344.085 240.655 333.532C235.127 326.876 228.646 319.419 222.586 312.25C217.422 306.142 211.886 300.092 205.87 294.561C203.572 292.439 201.205 290.393 198.729 288.699C192.877 284.689 187.103 282.733 182.179 281.138C180.732 280.671 179.329 280.236 177.963 279.838C175.079 278.999 172.34 278.316 169.418 277.799C168.256 277.593 166.941 277.378 165.468 277.163C162.914 276.788 159.89 276.24 156.852 274.609C153.484 272.806 151.581 270.347 150.017 268.483C149.433 267.786 148.885 267.199 148.405 266.694C146.997 265.21 145.706 264.149 144.493 263.116C143.275 262.079 142.034 261.062 140.754 260.024C137.501 257.398 134.148 254.247 127.42 250.17C123.212 247.623 117.646 244.941 111.465 242.222C107.447 240.454 103.326 238.714 99.2419 237.208C90.6082 234.022 82.8544 231.802 75.6949 229.638C68.5937 227.491 61.9338 225.26 54.6864 222.027C51.3162 220.525 47.9012 218.801 44.3722 216.951C39.9825 214.655 35.3436 212.141 30.1944 210.263C25.0256 208.378 19.2342 207.283 14.6635 207.584" stroke="url(#paint23_linear_3016_74)" stroke-width="0.6079" stroke-miterlimit="10"></path> <path opacity="0.5366" d="M265.895 358.512C259.629 353.732 254.315 344.471 245.942 333.528C240.706 326.691 234.388 319.061 228.343 311.772C223.211 305.586 217.635 299.5 211.496 293.978C209.156 291.861 206.732 289.83 204.188 288.17C198.175 284.244 192.213 282.504 187.131 281.144C185.64 280.744 184.186 280.385 182.777 280.055C179.8 279.37 176.978 278.849 173.987 278.496C172.801 278.357 171.458 278.206 169.962 278.053C167.353 277.781 164.287 277.308 161.216 275.674C157.814 273.865 155.987 271.337 154.526 269.385C153.982 268.659 153.479 268.032 153.05 267.498C151.777 265.908 150.62 264.726 149.54 263.571C148.451 262.409 147.344 261.263 146.197 260.1C143.283 257.155 140.278 253.681 133.706 249.335C129.605 246.625 124.064 243.814 117.869 241.039C113.839 239.237 109.685 237.491 105.555 236.013C96.8164 232.886 88.9252 230.865 81.6005 228.913C74.3441 226.981 67.5059 224.977 60.0889 221.894C56.643 220.462 53.1511 218.791 49.5584 216.979C45.0912 214.728 40.3925 212.241 35.2089 210.345C30.0057 208.442 24.2192 207.282 19.5967 207.458" stroke="url(#paint24_linear_3016_74)" stroke-width="0.6021" stroke-miterlimit="10"></path> <path opacity="0.5122" d="M269.383 360.162C263.81 354.771 259.199 345.094 251.216 333.758C246.271 326.739 240.117 318.933 234.087 311.528C228.993 305.267 223.366 299.138 217.109 293.633C214.727 291.522 212.243 289.505 209.635 287.882C203.462 284.041 197.316 282.513 192.075 281.392C190.537 281.063 189.041 280.771 187.585 280.516C184.514 279.982 181.604 279.627 178.544 279.436C177.335 279.359 175.958 279.279 174.442 279.181C171.779 279.008 168.666 278.614 165.567 276.974C162.131 275.159 160.376 272.566 159.022 270.52C158.519 269.762 158.061 269.102 157.677 268.532C156.534 266.836 155.515 265.532 154.565 264.252C153.604 262.961 152.626 261.694 151.618 260.406C149.038 257.142 146.385 253.345 139.965 248.73C135.971 245.858 130.454 242.919 124.245 240.09C120.209 238.254 116.021 236.501 111.836 235.05C102.988 231.981 94.9636 230.155 87.4691 228.415C80.057 226.694 73.0362 224.922 65.4547 221.993C61.9283 220.629 58.3643 219.013 54.7126 217.237C50.1633 215.033 45.4048 212.571 40.1917 210.661C34.9541 208.741 29.1678 207.515 24.5029 207.565" stroke="url(#paint25_linear_3016_74)" stroke-width="0.5963" stroke-miterlimit="10"></path> <path opacity="0.4878" d="M272.85 362.068C267.976 356.069 264.057 345.974 256.469 334.243C251.811 327.046 245.825 319.065 239.81 311.536C234.749 305.201 229.081 299.031 222.701 293.539C220.273 291.435 217.737 289.435 215.06 287.846C208.732 284.093 202.397 282.778 196.997 281.887C195.412 281.626 193.869 281.406 192.37 281.222C189.207 280.842 186.213 280.649 183.085 280.623C181.852 280.613 180.447 280.599 178.907 280.56C176.189 280.489 173.03 280.171 169.902 278.528C166.433 276.711 164.748 274.046 163.502 271.911C163.044 271.12 162.631 270.423 162.292 269.82C161.284 268.018 160.404 266.593 159.578 265.192C158.747 263.777 157.902 262.381 157.023 260.967C154.781 257.388 152.475 253.264 146.211 248.377C142.32 245.342 136.832 242.275 130.61 239.393C126.566 237.522 122.34 235.764 118.105 234.341C109.152 231.331 100.99 229.701 93.3312 228.176C85.7636 226.666 78.5648 225.126 70.8188 222.351C67.2119 221.056 63.5758 219.492 59.8603 217.755C55.2339 215.6 50.4153 213.16 45.1631 211.233C39.8959 209.294 34.1097 208.003 29.3975 207.924" stroke="url(#paint26_linear_3016_74)" stroke-width="0.5905" stroke-miterlimit="10"></path> <path opacity="0.4634" d="M276.27 364.239C272.089 357.633 268.858 347.119 261.674 334.991C257.303 327.613 251.48 319.459 245.485 311.81C240.457 305.397 234.744 299.191 228.247 293.712C225.775 291.613 223.184 289.627 220.434 288.077C213.946 284.407 207.422 283.305 201.868 282.652C200.236 282.459 198.65 282.31 197.105 282.201C193.848 281.976 190.766 281.941 187.574 282.079C186.322 282.132 184.884 282.185 183.319 282.205C180.548 282.237 177.341 281.994 174.185 280.349C170.682 278.525 169.064 275.792 167.935 273.571C167.518 272.751 167.15 272.015 166.861 271.379C165.993 269.47 165.242 267.924 164.545 266.399C163.842 264.858 163.131 263.337 162.385 261.798C160.482 257.9 158.524 253.453 152.416 248.297C148.628 245.1 143.173 241.904 136.933 238.965C132.877 237.061 128.618 235.296 124.337 233.899C115.274 230.944 106.98 229.515 99.1508 228.198C91.4276 226.9 84.0512 225.595 76.1356 222.97C72.4486 221.748 68.7401 220.234 64.9609 218.534C60.2571 216.425 55.374 214.011 50.0921 212.066C44.7907 210.114 39.0044 208.753 34.2451 208.549" stroke="url(#paint27_linear_3016_74)" stroke-width="0.5847" stroke-miterlimit="10"></path> <path opacity="0.439" d="M279.616 366.707C276.132 359.489 273.586 348.566 266.805 336.039C262.716 328.483 257.067 320.153 251.087 312.384C246.091 305.897 240.337 299.65 233.717 294.185C231.199 292.092 228.552 290.12 225.738 288.607C219.09 285.026 212.382 284.136 206.67 283.718C204.99 283.596 203.357 283.514 201.77 283.477C198.419 283.403 195.254 283.529 191.994 283.836C190.718 283.956 189.251 284.075 187.658 284.154C184.832 284.289 181.579 284.122 178.394 282.474C174.858 280.644 173.311 277.846 172.289 275.532C171.913 274.68 171.59 273.91 171.346 273.241C170.613 271.227 169.996 269.56 169.433 267.909C168.863 266.243 168.281 264.597 167.664 262.929C166.094 258.713 164.484 253.943 158.537 248.514C154.856 245.155 149.425 241.831 143.168 238.839C139.105 236.9 134.811 235.129 130.476 233.761C121.308 230.865 112.872 229.632 104.882 228.53C97.0036 227.443 89.4447 226.369 81.3693 223.898C77.6018 222.745 73.8212 221.284 69.9783 219.621C65.1924 217.559 60.2498 215.175 54.9382 213.211C49.6024 211.241 43.8163 209.815 39.0146 209.486" stroke="url(#paint28_linear_3016_74)" stroke-width="0.5789" stroke-miterlimit="10"></path> <path opacity="0.4146" d="M282.877 369.487C280.086 361.661 278.218 350.32 271.851 337.398C268.039 329.662 262.567 321.159 256.603 313.266C251.64 306.705 245.84 300.414 239.103 294.966C236.542 292.883 233.839 290.921 230.956 289.446C224.148 285.948 217.251 285.275 211.385 285.087C209.663 285.032 207.983 285.022 206.349 285.061C202.9 285.141 199.652 285.428 196.327 285.897C195.027 286.079 193.533 286.269 191.915 286.403C189.035 286.644 185.736 286.552 182.521 284.894C178.951 283.058 177.476 280.192 176.562 277.788C176.226 276.908 175.953 276.097 175.754 275.396C175.156 273.276 174.673 271.487 174.239 269.715C173.798 267.921 173.349 266.149 172.866 264.36C171.634 259.825 170.371 254.732 164.582 249.035C161.003 245.513 155.601 242.057 149.33 239.012C145.255 237.035 140.928 235.266 136.543 233.923C127.266 231.086 118.696 230.047 110.537 229.157C102.503 228.281 94.7658 227.439 86.5212 225.121C82.6732 224.038 78.8206 222.63 74.9139 221.005C70.0507 218.988 65.0482 216.63 59.7023 214.649C54.3368 212.661 48.5509 211.169 43.7021 210.714" stroke="url(#paint29_linear_3016_74)" stroke-width="0.5731" stroke-miterlimit="10"></path> <path opacity="0.3902" d="M286.014 372.598C283.921 364.16 282.727 352.406 276.774 339.089C273.239 331.176 267.941 322.496 261.996 314.484C257.065 307.844 251.225 301.517 244.365 296.078C241.758 294.001 238.998 292.057 236.052 290.616C229.088 287.202 222.003 286.742 215.973 286.792C214.204 286.805 212.477 286.87 210.801 286.976C207.258 287.206 203.923 287.656 200.534 288.293C199.21 288.541 197.688 288.799 196.046 288.991C193.112 289.335 189.77 289.318 186.522 287.658C182.919 285.815 181.509 282.881 180.708 280.388C180.413 279.475 180.185 278.632 180.035 277.894C179.577 275.668 179.228 273.757 178.918 271.861C178.606 269.941 178.286 268.045 177.941 266.131C177.048 261.277 176.128 255.861 170.499 249.895C167.023 246.211 161.65 242.627 155.366 239.528C151.283 237.517 146.918 235.742 142.483 234.424C133.101 231.646 124.393 230.802 116.07 230.127C107.88 229.462 99.9607 228.856 91.551 226.684C87.6226 225.669 83.7027 224.315 79.7323 222.727C74.7869 220.757 69.7247 218.424 64.3494 216.429C58.9495 214.424 53.1638 212.866 48.2725 212.282" stroke="url(#paint30_linear_3016_74)" stroke-width="0.5674" stroke-miterlimit="10"></path> <path opacity="0.3659" d="M289.008 376.061C287.608 367.016 287.083 354.845 281.553 341.129C278.291 333.035 273.174 324.182 267.245 316.05C262.352 309.336 256.461 302.969 249.484 297.543C246.834 295.472 244.019 293.542 241.004 292.138C233.88 288.813 226.611 288.565 220.423 288.849C218.607 288.933 216.837 289.066 215.114 289.247C211.478 289.632 208.054 290.239 204.602 291.041C203.254 291.352 201.703 291.68 200.037 291.928C197.049 292.374 193.66 292.433 190.384 290.769C186.747 288.925 185.409 285.918 184.715 283.336C184.46 282.39 184.282 281.511 184.173 280.74C183.855 278.412 183.634 276.377 183.458 274.359C183.28 272.314 183.088 270.289 182.872 268.25C182.318 263.081 181.74 257.339 176.268 251.101C172.893 247.254 167.554 243.541 161.252 240.39C157.163 238.344 152.764 236.563 148.278 235.275C138.787 232.555 129.947 231.906 121.458 231.443C113.113 230.989 105.016 230.613 96.4416 228.595C92.4331 227.654 88.4407 226.349 84.4069 224.802C79.3845 222.881 74.2575 220.571 68.8526 218.558C63.4183 216.535 57.6372 214.908 52.6943 214.202" stroke="url(#paint31_linear_3016_74)" stroke-width="0.5616" stroke-miterlimit="10"></path> <path opacity="0.3415" d="M291.784 379.899C291.077 370.243 291.216 357.658 286.114 343.548C283.119 335.277 278.185 326.247 272.276 317.995C267.411 311.207 261.484 304.8 254.384 299.387C251.687 297.321 248.821 295.406 245.737 294.035C238.453 290.794 230.996 290.762 224.653 291.277C222.79 291.429 220.978 291.632 219.212 291.884C215.484 292.424 211.976 293.189 208.45 294.156C207.084 294.534 205.5 294.928 203.81 295.235C200.767 295.788 197.332 295.917 194.027 294.248C190.356 292.397 189.084 289.326 188.503 286.651C188.289 285.672 188.155 284.76 188.096 283.956C187.913 281.522 187.826 279.366 187.779 277.223C187.729 275.054 187.672 272.904 187.589 270.739C187.368 265.252 187.138 259.186 181.827 252.68C178.555 248.671 173.245 244.83 166.929 241.621C162.828 239.542 158.396 237.754 153.86 236.495C144.263 233.83 135.286 233.38 126.628 233.132C118.127 232.889 109.852 232.749 101.109 230.881C97.0245 230.008 92.9553 228.756 88.8578 227.248C83.7581 225.372 78.5713 223.088 73.1322 221.061C67.6635 219.02 61.8826 217.328 56.8975 216.497" stroke="url(#paint32_linear_3016_74)" stroke-width="0.5558" stroke-miterlimit="10"></path> <path opacity="0.3171" d="M293.956 384.145C293.946 373.882 294.744 360.877 290.071 346.374C287.348 337.922 282.592 328.72 276.702 320.344C271.87 313.481 265.897 307.03 258.68 301.634C255.941 299.574 253.014 297.677 249.866 296.34C242.423 293.187 234.781 293.363 228.28 294.116C226.369 294.335 224.51 294.61 222.702 294.937C218.88 295.627 215.285 296.554 211.695 297.689C210.305 298.13 208.693 298.595 206.978 298.957C203.881 299.612 200.399 299.817 197.065 298.145C193.361 296.288 192.161 293.149 191.692 290.384C191.523 289.377 191.434 288.424 191.42 287.587C191.377 285.047 191.419 282.77 191.5 280.502C191.58 278.208 191.656 275.933 191.702 273.64C191.819 267.834 191.931 261.445 186.782 254.67C183.612 250.499 178.33 246.529 171.997 243.267C167.888 241.154 163.423 239.36 158.832 238.126C149.126 235.52 140.015 235.264 131.192 235.228C122.535 235.196 114.078 235.287 105.175 233.573C101.01 232.769 96.869 231.571 92.7077 230.099C87.5259 228.27 82.2793 226.011 76.8105 223.967C71.3123 221.911 65.5313 220.15 60.499 219.194" stroke="url(#paint33_linear_3016_74)" stroke-width="0.55" stroke-miterlimit="10"></path> <path opacity="0.2927" d="M295.786 388.814C296.469 377.939 297.926 364.517 293.685 349.623C291.226 340.987 286.661 331.614 280.787 323.119C275.987 316.178 269.974 309.69 262.634 304.307C259.848 302.257 256.869 300.369 253.653 299.07C246.054 296.001 238.219 296.394 231.564 297.38C229.611 297.671 227.705 298.014 225.85 298.412C221.934 299.257 218.246 300.342 214.597 301.641C213.183 302.145 211.543 302.681 209.804 303.101C206.658 303.863 203.124 304.139 199.766 302.464C196.029 300.601 194.894 297.394 194.538 294.539C194.409 293.499 194.366 292.514 194.397 291.641C194.493 288.999 194.669 286.596 194.875 284.207C195.088 281.788 195.287 279.384 195.472 276.97C195.927 270.845 196.382 264.134 191.394 257.085C188.326 252.752 183.073 248.651 176.727 245.335C172.611 243.187 168.107 241.387 163.471 240.183C153.66 237.635 144.411 237.57 135.419 237.753C126.606 237.929 117.972 238.259 108.899 236.694C104.654 235.963 100.44 234.814 96.2154 233.38C90.9561 231.597 85.6452 229.368 80.1419 227.305C74.6094 225.233 68.8284 223.405 63.749 222.324" stroke="url(#paint34_linear_3016_74)" stroke-width="0.5442" stroke-miterlimit="10"></path> <path opacity="0.2683" d="M297.297 393.92C298.678 382.437 300.784 368.595 296.981 353.309C294.789 344.492 290.407 334.946 284.548 326.33C279.781 319.315 273.722 312.787 266.259 307.417C263.431 305.373 260.391 303.499 257.107 302.238C249.348 299.253 241.328 299.857 234.515 301.078C232.514 301.437 230.561 301.851 228.664 302.324C224.651 303.319 220.879 304.566 217.166 306.034C215.729 306.604 214.06 307.207 212.292 307.682C209.092 308.547 205.511 308.898 202.125 307.217C198.353 305.347 197.285 302.072 197.041 299.128C196.953 298.055 196.959 297.033 197.035 296.127C197.271 293.379 197.582 290.859 197.916 288.342C198.262 285.797 198.591 283.268 198.904 280.725C199.697 274.282 200.495 267.248 195.667 259.931C192.702 255.435 187.483 251.205 181.118 247.836C176.991 245.654 172.453 243.848 167.766 242.673C157.846 240.184 148.46 240.314 139.307 240.708C130.339 241.094 121.527 241.655 112.289 240.244C107.964 239.582 103.678 238.487 99.3938 237.09C94.0574 235.356 88.6864 233.149 83.1487 231.069C77.5816 228.978 71.8055 227.086 66.6787 225.875" stroke="url(#paint35_linear_3016_74)" stroke-width="0.5384" stroke-miterlimit="10"></path> <path opacity="0.2439" d="M298.485 399.477C300.558 387.387 303.313 373.12 299.953 357.442C298.023 348.441 293.829 338.725 287.989 329.986C283.254 322.896 277.155 316.327 269.569 310.971C266.694 308.932 263.603 307.073 260.25 305.849C252.331 302.951 244.128 303.768 237.151 305.224C235.103 305.65 233.107 306.139 231.163 306.68C227.056 307.829 223.197 309.234 219.42 310.867C217.958 311.499 216.266 312.172 214.469 312.707C211.22 313.677 207.588 314.104 204.172 312.417C200.367 310.545 199.37 307.197 199.234 304.164C199.186 303.059 199.237 302.004 199.364 301.065C199.735 298.215 200.179 295.569 200.642 292.931C201.117 290.261 201.579 287.604 202.026 284.939C203.153 278.181 204.298 270.82 199.631 263.23C196.769 258.573 191.578 254.214 185.2 250.789C181.065 248.572 176.493 246.76 171.752 245.61C161.726 243.179 152.202 243.504 142.88 244.114C133.756 244.711 124.758 245.523 115.359 244.246C110.954 243.661 106.596 242.611 102.248 241.251C96.8293 239.563 91.3984 237.382 85.8309 235.284C80.2341 233.175 74.4533 231.217 69.2842 229.881" stroke="url(#paint36_linear_3016_74)" stroke-width="0.5326" stroke-miterlimit="10"></path> <path opacity="0.2195" d="M299.348 405.515C302.118 392.814 305.518 378.127 302.6 362.06C300.933 352.874 296.926 342.989 291.106 334.129C286.404 326.966 280.259 320.353 272.555 315.009C269.638 312.976 266.491 311.134 263.069 309.944C254.99 307.131 246.598 308.164 239.467 309.853C237.373 310.351 235.33 310.907 233.343 311.52C229.143 312.823 225.195 314.386 221.355 316.187C219.869 316.886 218.149 317.626 216.328 318.22C213.024 319.292 209.35 319.795 205.901 318.105C202.063 316.226 201.132 312.81 201.108 309.687C201.101 308.554 201.201 307.458 201.368 306.487C201.879 303.534 202.457 300.764 203.044 298.001C203.653 295.206 204.243 292.424 204.823 289.63C206.289 282.553 207.776 274.87 203.266 267.011C200.506 262.191 195.344 257.704 188.952 254.225C184.805 251.975 180.201 250.16 175.413 249.035C165.278 246.659 155.621 247.179 146.134 248.004C136.85 248.808 127.678 249.855 118.11 248.728C113.624 248.212 109.194 247.215 104.782 245.893C99.2861 244.251 93.7954 242.095 88.1937 239.983C82.5624 237.857 76.7817 235.833 71.5654 234.372" stroke="url(#paint37_linear_3016_74)" stroke-width="0.5268" stroke-miterlimit="10"></path> <path opacity="0.1951" d="M299.859 412.044C303.323 398.736 307.367 383.621 304.896 367.169C303.486 357.795 299.672 347.748 293.872 338.765C289.198 331.526 283.016 324.873 275.19 319.542C272.226 317.515 269.023 315.687 265.538 314.535C257.303 311.809 248.722 313.05 241.432 314.974C239.29 315.539 237.205 316.167 235.172 316.854C230.878 318.308 226.837 320.033 222.933 321.999C221.419 322.761 219.676 323.571 217.83 324.22C214.477 325.399 210.751 325.972 207.273 324.276C203.401 322.392 202.537 318.907 202.625 315.695C202.658 314.529 202.809 313.4 203.02 312.392C203.672 309.334 204.378 306.442 205.094 303.554C205.831 300.635 206.551 297.727 207.264 294.809C209.068 287.413 210.893 279.407 206.549 271.279C203.886 266.297 198.758 261.682 192.348 258.15C188.194 255.861 183.551 254.044 178.714 252.948C168.473 250.631 158.674 251.345 149.026 252.385C139.587 253.401 130.238 254.679 120.505 253.705C115.939 253.262 111.436 252.314 106.96 251.03C101.382 249.434 95.8317 247.304 90.2002 245.174C84.5344 243.03 78.7585 240.94 73.4951 239.354" stroke="url(#paint38_linear_3016_74)" stroke-width="0.521" stroke-miterlimit="10"></path> <path opacity="0.1707" d="M300.012 419.086C304.173 405.166 308.857 389.627 306.833 372.791C305.686 363.229 302.059 353.016 296.279 343.912C291.637 336.596 285.415 329.906 277.466 324.588C274.46 322.57 271.201 320.753 267.647 319.638C259.252 316.996 250.483 318.454 243.039 320.611C240.854 321.243 238.717 321.943 236.642 322.702C232.255 324.31 228.126 326.193 224.158 328.327C222.62 329.152 220.848 330.032 218.978 330.74C215.576 332.021 211.799 332.67 208.292 330.971C204.386 329.081 203.593 325.528 203.793 322.226C203.867 321.027 204.063 319.866 204.324 318.821C205.11 315.661 205.95 312.644 206.8 309.635C207.666 306.59 208.519 303.554 209.366 300.51C211.503 292.796 213.676 284.467 209.492 276.067C206.932 270.922 201.837 266.178 195.409 262.589C191.248 260.266 186.571 258.443 181.679 257.373C171.333 255.114 161.396 256.023 151.579 257.275C141.983 258.497 132.457 260.014 122.554 259.19C117.908 258.816 113.333 257.921 108.798 256.678C103.143 255.128 97.5278 253.024 91.8669 250.88C86.1716 248.721 80.3907 246.563 75.085 244.851" stroke="url(#paint39_linear_3016_74)" stroke-width="0.5153" stroke-miterlimit="10"></path> <path opacity="0.1463" d="M299.786 426.667C304.639 412.14 309.967 396.17 308.391 378.948C307.501 369.199 304.067 358.82 298.306 349.592C293.692 342.201 287.429 335.47 279.363 330.165C276.309 328.154 272.995 326.35 269.376 325.269C260.821 322.711 251.868 324.381 244.266 326.776C242.034 327.48 239.854 328.247 237.732 329.081C233.251 330.839 229.03 332.884 225.003 335.183C223.441 336.074 221.646 337.021 219.746 337.784C216.29 339.172 212.466 339.892 208.931 338.191C204.991 336.294 204.264 332.672 204.577 329.281C204.691 328.05 204.936 326.852 205.238 325.775C206.164 322.512 207.133 319.374 208.112 316.236C209.107 313.067 210.093 309.905 211.069 306.737C213.544 298.704 216.054 290.052 212.037 281.383C209.579 276.076 204.512 271.2 198.071 267.561C193.898 265.204 189.188 263.374 184.25 262.333C173.795 260.133 163.718 261.218 153.742 262.7C143.985 264.118 134.287 265.881 124.219 265.211C119.497 264.905 114.845 264.064 110.247 262.859C104.515 261.358 98.8395 259.276 93.1441 257.114C87.4143 254.938 81.6382 252.714 76.2803 250.873" stroke="url(#paint40_linear_3016_74)" stroke-width="0.5095" stroke-miterlimit="10"></path> <path opacity="0.122" d="M299.161 434.802C304.712 419.663 310.674 403.265 309.551 385.662C308.918 375.725 305.676 365.18 299.935 355.832C295.354 348.367 289.05 341.595 280.861 336.303C277.765 334.297 274.395 332.512 270.707 331.464C261.993 328.994 252.855 330.876 245.094 333.502C242.815 334.273 240.588 335.111 238.424 336.016C233.85 337.929 229.54 340.132 225.449 342.599C223.863 343.553 222.04 344.571 220.112 345.393C216.606 346.883 212.73 347.679 209.166 345.974C205.193 344.075 204.532 340.378 204.958 336.901C205.112 335.637 205.403 334.406 205.754 333.296C206.821 329.931 207.918 326.669 209.026 323.41C210.15 320.115 211.269 316.825 212.378 313.531C215.192 305.183 218.044 296.205 214.188 287.263C211.827 281.794 206.794 276.789 200.34 273.094C196.159 270.702 191.415 268.866 186.423 267.855C175.863 265.713 165.649 266.996 155.503 268.689C145.59 270.319 135.709 272.313 125.477 271.797C120.674 271.56 115.95 270.772 111.289 269.604C105.474 268.149 99.7391 266.096 94.0139 263.916C88.2496 261.722 82.4736 259.433 77.0732 257.467" stroke="url(#paint41_linear_3016_74)" stroke-width="0.5037" stroke-miterlimit="10"></path> <path opacity="0.0732" d="M296.625 452.812C303.565 436.459 310.795 419.191 310.582 400.833C310.463 390.512 307.584 379.651 301.905 370.05C297.371 362.441 290.999 355.58 282.57 350.318C279.384 348.324 275.902 346.566 272.083 345.593C263.052 343.294 253.537 345.601 245.459 348.699C243.085 349.609 240.769 350.59 238.515 351.638C233.75 353.856 229.259 356.374 225.05 359.178C223.412 360.261 221.542 361.416 219.56 362.352C215.955 364.05 211.977 364.993 208.355 363.28C204.314 361.368 203.781 357.535 204.436 353.878C204.668 352.554 205.062 351.249 205.499 350.07C206.845 346.5 208.2 342.988 209.57 339.479C210.956 335.935 212.333 332.395 213.709 328.847C217.194 319.861 220.713 310.239 217.197 300.758C215.027 294.966 210.066 289.703 203.585 285.901C199.385 283.441 194.569 281.593 189.476 280.635C178.701 278.607 168.212 280.284 157.736 282.403C147.507 284.455 137.275 286.915 126.709 286.698C121.745 286.603 116.877 285.918 112.088 284.824C106.113 283.461 100.259 281.46 94.4645 279.244C88.6359 277.015 82.8597 274.59 77.3701 272.377" stroke="url(#paint42_linear_3016_74)" stroke-width="0.4921" stroke-miterlimit="10"></path> <path opacity="0.0488" d="M294.68 462.73C302.313 445.766 310.182 428.066 310.422 409.327C310.555 398.814 307.878 387.791 302.215 378.07C297.713 370.386 291.295 363.485 282.748 358.232C279.516 356.247 275.982 354.503 272.089 353.565C262.899 351.35 253.199 353.873 244.962 357.201C242.546 358.178 240.183 359.23 237.882 360.353C233.024 362.725 228.445 365.406 224.172 368.37C222.51 369.516 220.616 370.745 218.605 371.732C214.952 373.541 210.926 374.555 207.27 372.836C203.196 370.918 202.734 367.012 203.497 363.27C203.768 361.913 204.208 360.576 204.694 359.36C206.18 355.684 207.664 352.051 209.163 348.421C210.678 344.751 212.188 341.082 213.698 337.413C217.521 328.109 221.387 318.159 218.028 308.411C215.965 302.455 211.032 297.065 204.528 293.206C200.321 290.711 195.471 288.857 190.328 287.929C179.444 285.959 168.816 287.83 158.18 290.161C147.796 292.427 137.386 295.115 126.651 295.051C121.607 295.025 116.666 294.393 111.818 293.337C105.766 292.023 99.8466 290.044 94.0229 287.815C88.1599 285.567 82.3837 283.077 76.8467 280.735" stroke="url(#paint43_linear_3016_74)" stroke-width="0.4863" stroke-miterlimit="10"></path> <path opacity="0.0244" d="M292.242 473.285C300.573 455.713 309.071 437.575 309.768 418.462C310.158 407.754 307.679 396.568 302.03 386.731C297.566 378.969 291.102 372.031 282.433 366.79C279.158 364.812 275.564 363.082 271.607 362.181C262.256 360.05 252.368 362.785 243.977 366.351C241.514 367.396 239.104 368.519 236.761 369.713C231.809 372.236 227.137 375.078 222.8 378.211C221.115 379.424 219.193 380.719 217.158 381.765C213.454 383.676 209.377 384.766 205.693 383.04C201.585 381.116 201.194 377.141 202.069 373.31C202.385 371.92 202.865 370.55 203.402 369.302C205.023 365.524 206.646 361.769 208.268 358.01C209.912 354.216 211.555 350.422 213.194 346.624C217.355 337.002 221.563 326.725 218.365 316.711C216.404 310.59 211.5 305.071 204.983 301.163C200.764 298.634 195.881 296.777 190.687 295.87C179.698 293.959 168.933 296.029 158.132 298.571C147.587 301.048 137.004 303.967 126.104 304.057C120.984 304.099 115.971 303.521 111.055 302.502C104.926 301.234 98.9415 299.281 93.0881 297.033C87.1908 294.772 81.4191 292.212 75.835 289.745" stroke="url(#paint44_linear_3016_74)" stroke-width="0.4805" stroke-miterlimit="10"></path> </g> <defs> <filter id="filter0_f_3016_74" x="-156" y="106.611" width="513" height="356.146" filterUnits="userSpaceOnUse" color-interpolation-filters="sRGB"> <feFlood flood-opacity="0" result="BackgroundImageFix"></feFlood> <feBlend mode="normal" in="SourceGraphic" in2="BackgroundImageFix" result="shape"></feBlend> <feGaussianBlur stdDeviation="50" result="effect1_foregroundBlur_3016_74"></feGaussianBlur> </filter> <filter id="filter1_f_3016_74" x="-189.42" y="75.7012" width="475.786" height="306.499" filterUnits="userSpaceOnUse" color-interpolation-filters="sRGB"> <feFlood flood-opacity="0" result="BackgroundImageFix"></feFlood> <feBlend mode="normal" in="SourceGraphic" in2="BackgroundImageFix" result="shape"></feBlend> <feGaussianBlur stdDeviation="50" result="effect1_foregroundBlur_3016_74"></feGaussianBlur> </filter> <filter id="filter2_f_3016_74" x="-45.2676" y="144.863" width="433.08" height="347.663" filterUnits="userSpaceOnUse" color-interpolation-filters="sRGB"> <feFlood flood-opacity="0" result="BackgroundImageFix"></feFlood> <feBlend mode="normal" in="SourceGraphic" in2="BackgroundImageFix" result="shape"></feBlend> <feGaussianBlur stdDeviation="50" result="effect1_foregroundBlur_3016_74"></feGaussianBlur> </filter> <filter id="filter3_f_3016_74" x="165.221" y="40.4492" width="370.61" height="395.303" filterUnits="userSpaceOnUse" color-interpolation-filters="sRGB"> <feFlood flood-opacity="0" result="BackgroundImageFix"></feFlood> <feBlend mode="normal" in="SourceGraphic" in2="BackgroundImageFix" result="shape"></feBlend> <feGaussianBlur stdDeviation="50" result="effect1_foregroundBlur_3016_74"></feGaussianBlur> </filter> <linearGradient id="paint0_linear_3016_74" x1="199.155" y1="151.278" x2="173.589" y2="-47.0218" gradientUnits="userSpaceOnUse"> <stop stop-color="#141516"></stop> <stop offset="1" stop-color="#141516" stop-opacity="0"></stop> </linearGradient> <linearGradient id="paint1_linear_3016_74" x1="22.4138" y1="-105.071" x2="446.79" y2="69.1033" gradientUnits="userSpaceOnUse"> <stop stop-color="#292524" stop-opacity="0.63"></stop> <stop offset="1" stop-color="#1B1920"></stop> </linearGradient> <linearGradient id="paint2_linear_3016_74" x1="13" y1="1.00001" x2="375.961" y2="27.8965" gradientUnits="userSpaceOnUse"> <stop stop-color="#4E4A49"></stop> <stop offset="1" stop-color="#524E67" stop-opacity="0.35"></stop> <stop offset="1" stop-color="#292831"></stop> </linearGradient> <linearGradient id="paint3_linear_3016_74" x1="-39.8318" y1="-91.6316" x2="436.725" y2="245.956" gradientUnits="userSpaceOnUse"> <stop stop-color="#FFC7E2"></stop> <stop offset="1" stop-color="#5C519B" stop-opacity="0.08"></stop> </linearGradient> <linearGradient id="paint4_linear_3016_74" x1="395.026" y1="469.947" x2="-82.4428" y2="-4.76739" gradientUnits="userSpaceOnUse"> <stop stop-color="#686079" stop-opacity="0.05"></stop> <stop offset="1" stop-color="#FFEFF5" stop-opacity="0.1"></stop> </linearGradient> <linearGradient id="paint5_linear_3016_74" x1="84.3269" y1="217.972" x2="90.1914" y2="356.739" gradientUnits="userSpaceOnUse"> <stop stop-color="#FFEAC2" stop-opacity="0.72"></stop> <stop offset="1" stop-color="#BCB6FF" stop-opacity="0.85"></stop> </linearGradient> <linearGradient id="paint6_linear_3016_74" x1="84.5155" y1="217.576" x2="90.4073" y2="356.99" gradientUnits="userSpaceOnUse"> <stop stop-color="#FFEAC2" stop-opacity="0.72"></stop> <stop offset="1" stop-color="#BCB6FF" stop-opacity="0.85"></stop> </linearGradient> <linearGradient id="paint7_linear_3016_74" x1="85.1343" y1="217.035" x2="91.0553" y2="357.143" gradientUnits="userSpaceOnUse"> <stop stop-color="#FFEAC2" stop-opacity="0.72"></stop> <stop offset="1" stop-color="#BCB6FF" stop-opacity="0.85"></stop> </linearGradient> <linearGradient id="paint8_linear_3016_74" x1="86.139" y1="216.326" x2="92.0929" y2="357.214" gradientUnits="userSpaceOnUse"> <stop stop-color="#FFEAC2" stop-opacity="0.72"></stop> <stop offset="1" stop-color="#BCB6FF" stop-opacity="0.85"></stop> </linearGradient> <linearGradient id="paint9_linear_3016_74" x1="87.5193" y1="215.503" x2="93.5084" y2="357.228" gradientUnits="userSpaceOnUse"> <stop stop-color="#FFEAC2" stop-opacity="0.72"></stop> <stop offset="1" stop-color="#BCB6FF" stop-opacity="0.85"></stop> </linearGradient> <linearGradient id="paint10_linear_3016_74" x1="89.2387" y1="214.565" x2="95.2666" y2="357.209" gradientUnits="userSpaceOnUse"> <stop stop-color="#FFEAC2" stop-opacity="0.72"></stop> <stop offset="1" stop-color="#BCB6FF" stop-opacity="0.85"></stop> </linearGradient> <linearGradient id="paint11_linear_3016_74" x1="91.286" y1="213.549" x2="97.3553" y2="357.176" gradientUnits="userSpaceOnUse"> <stop stop-color="#FFEAC2" stop-opacity="0.72"></stop> <stop offset="1" stop-color="#BCB6FF" stop-opacity="0.85"></stop> </linearGradient> <linearGradient id="paint12_linear_3016_74" x1="93.6395" y1="212.458" x2="99.7536" y2="357.15" gradientUnits="userSpaceOnUse"> <stop stop-color="#FFEAC2" stop-opacity="0.72"></stop> <stop offset="1" stop-color="#BCB6FF" stop-opacity="0.85"></stop> </linearGradient> <linearGradient id="paint13_linear_3016_74" x1="96.2608" y1="211.321" x2="102.423" y2="357.154" gradientUnits="userSpaceOnUse"> <stop stop-color="#FFEAC2" stop-opacity="0.72"></stop> <stop offset="1" stop-color="#BCB6FF" stop-opacity="0.85"></stop> </linearGradient> <linearGradient id="paint14_linear_3016_74" x1="99.1482" y1="210.158" x2="105.362" y2="357.21" gradientUnits="userSpaceOnUse"> <stop stop-color="#FFEAC2" stop-opacity="0.72"></stop> <stop offset="1" stop-color="#BCB6FF" stop-opacity="0.85"></stop> </linearGradient> <linearGradient id="paint15_linear_3016_74" x1="102.252" y1="208.977" x2="108.521" y2="357.336" gradientUnits="userSpaceOnUse"> <stop stop-color="#FFEAC2" stop-opacity="0.72"></stop> <stop offset="1" stop-color="#BCB6FF" stop-opacity="0.85"></stop> </linearGradient> <linearGradient id="paint16_linear_3016_74" x1="105.575" y1="207.809" x2="111.901" y2="357.549" gradientUnits="userSpaceOnUse"> <stop stop-color="#FFEAC2" stop-opacity="0.72"></stop> <stop offset="1" stop-color="#BCB6FF" stop-opacity="0.85"></stop> </linearGradient> <linearGradient id="paint17_linear_3016_74" x1="109.073" y1="206.707" x2="115.458" y2="357.839" gradientUnits="userSpaceOnUse"> <stop stop-color="#FFEAC2" stop-opacity="0.72"></stop> <stop offset="1" stop-color="#BCB6FF" stop-opacity="0.85"></stop> </linearGradient> <linearGradient id="paint18_linear_3016_74" x1="112.738" y1="205.688" x2="119.183" y2="358.225" gradientUnits="userSpaceOnUse"> <stop stop-color="#FFEAC2" stop-opacity="0.72"></stop> <stop offset="1" stop-color="#BCB6FF" stop-opacity="0.85"></stop> </linearGradient> <linearGradient id="paint19_linear_3016_74" x1="116.534" y1="204.779" x2="123.038" y2="358.725" gradientUnits="userSpaceOnUse"> <stop stop-color="#FFEAC2" stop-opacity="0.72"></stop> <stop offset="1" stop-color="#BCB6FF" stop-opacity="0.85"></stop> </linearGradient> <linearGradient id="paint20_linear_3016_74" x1="120.461" y1="203.993" x2="127.024" y2="359.359" gradientUnits="userSpaceOnUse"> <stop stop-color="#FFEAC2" stop-opacity="0.72"></stop> <stop offset="1" stop-color="#BCB6FF" stop-opacity="0.85"></stop> </linearGradient> <linearGradient id="paint21_linear_3016_74" x1="124.482" y1="203.365" x2="131.106" y2="360.152" gradientUnits="userSpaceOnUse"> <stop stop-color="#FFEAC2" stop-opacity="0.72"></stop> <stop offset="1" stop-color="#BCB6FF" stop-opacity="0.85"></stop> </linearGradient> <linearGradient id="paint22_linear_3016_74" x1="128.561" y1="202.883" x2="135.246" y2="361.122" gradientUnits="userSpaceOnUse"> <stop stop-color="#FFEAC2" stop-opacity="0.72"></stop> <stop offset="1" stop-color="#BCB6FF" stop-opacity="0.85"></stop> </linearGradient> <linearGradient id="paint23_linear_3016_74" x1="132.689" y1="202.592" x2="139.435" y2="362.289" gradientUnits="userSpaceOnUse"> <stop stop-color="#FFEAC2" stop-opacity="0.72"></stop> <stop offset="1" stop-color="#BCB6FF" stop-opacity="0.85"></stop> </linearGradient> <linearGradient id="paint24_linear_3016_74" x1="136.85" y1="202.505" x2="143.658" y2="363.675" gradientUnits="userSpaceOnUse"> <stop stop-color="#FFEAC2" stop-opacity="0.72"></stop> <stop offset="1" stop-color="#BCB6FF" stop-opacity="0.85"></stop> </linearGradient> <linearGradient id="paint25_linear_3016_74" x1="140.992" y1="202.645" x2="147.863" y2="365.295" gradientUnits="userSpaceOnUse"> <stop stop-color="#FFEAC2" stop-opacity="0.72"></stop> <stop offset="1" stop-color="#BCB6FF" stop-opacity="0.85"></stop> </linearGradient> <linearGradient id="paint26_linear_3016_74" x1="145.119" y1="203.036" x2="152.051" y2="367.17" gradientUnits="userSpaceOnUse"> <stop stop-color="#FFEAC2" stop-opacity="0.72"></stop> <stop offset="1" stop-color="#BCB6FF" stop-opacity="0.85"></stop> </linearGradient> <linearGradient id="paint27_linear_3016_74" x1="149.198" y1="203.694" x2="156.193" y2="369.311" gradientUnits="userSpaceOnUse"> <stop stop-color="#FFEAC2" stop-opacity="0.72"></stop> <stop offset="1" stop-color="#BCB6FF" stop-opacity="0.85"></stop> </linearGradient> <linearGradient id="paint28_linear_3016_74" x1="153.202" y1="204.663" x2="160.259" y2="371.748" gradientUnits="userSpaceOnUse"> <stop stop-color="#FFEAC2" stop-opacity="0.72"></stop> <stop offset="1" stop-color="#BCB6FF" stop-opacity="0.85"></stop> </linearGradient> <linearGradient id="paint29_linear_3016_74" x1="157.122" y1="205.924" x2="164.241" y2="374.497" gradientUnits="userSpaceOnUse"> <stop stop-color="#FFEAC2" stop-opacity="0.72"></stop> <stop offset="1" stop-color="#BCB6FF" stop-opacity="0.85"></stop> </linearGradient> <linearGradient id="paint30_linear_3016_74" x1="160.921" y1="207.525" x2="168.103" y2="377.577" gradientUnits="userSpaceOnUse"> <stop stop-color="#FFEAC2" stop-opacity="0.72"></stop> <stop offset="1" stop-color="#BCB6FF" stop-opacity="0.85"></stop> </linearGradient> <linearGradient id="paint31_linear_3016_74" x1="164.575" y1="209.478" x2="171.819" y2="381.01" gradientUnits="userSpaceOnUse"> <stop stop-color="#FFEAC2" stop-opacity="0.72"></stop> <stop offset="1" stop-color="#BCB6FF" stop-opacity="0.85"></stop> </linearGradient> <linearGradient id="paint32_linear_3016_74" x1="168.073" y1="211.802" x2="175.379" y2="384.814" gradientUnits="userSpaceOnUse"> <stop stop-color="#FFEAC2" stop-opacity="0.72"></stop> <stop offset="1" stop-color="#BCB6FF" stop-opacity="0.85"></stop> </linearGradient> <linearGradient id="paint33_linear_3016_74" x1="171.382" y1="214.511" x2="178.751" y2="389.01" gradientUnits="userSpaceOnUse"> <stop stop-color="#FFEAC2" stop-opacity="0.72"></stop> <stop offset="1" stop-color="#BCB6FF" stop-opacity="0.85"></stop> </linearGradient> <linearGradient id="paint34_linear_3016_74" x1="174.478" y1="217.648" x2="181.908" y2="393.623" gradientUnits="userSpaceOnUse"> <stop stop-color="#FFEAC2" stop-opacity="0.72"></stop> <stop offset="1" stop-color="#BCB6FF" stop-opacity="0.85"></stop> </linearGradient> <linearGradient id="paint35_linear_3016_74" x1="177.337" y1="221.202" x2="184.83" y2="398.668" gradientUnits="userSpaceOnUse"> <stop stop-color="#FFEAC2" stop-opacity="0.72"></stop> <stop offset="1" stop-color="#BCB6FF" stop-opacity="0.85"></stop> </linearGradient> <linearGradient id="paint36_linear_3016_74" x1="179.934" y1="225.209" x2="187.49" y2="404.164" gradientUnits="userSpaceOnUse"> <stop stop-color="#FFEAC2" stop-opacity="0.72"></stop> <stop offset="1" stop-color="#BCB6FF" stop-opacity="0.85"></stop> </linearGradient> <linearGradient id="paint37_linear_3016_74" x1="182.256" y1="229.698" x2="189.875" y2="410.137" gradientUnits="userSpaceOnUse"> <stop stop-color="#FFEAC2" stop-opacity="0.72"></stop> <stop offset="1" stop-color="#BCB6FF" stop-opacity="0.85"></stop> </linearGradient> <linearGradient id="paint38_linear_3016_74" x1="184.268" y1="234.677" x2="191.949" y2="416.6" gradientUnits="userSpaceOnUse"> <stop stop-color="#FFEAC2" stop-opacity="0.72"></stop> <stop offset="1" stop-color="#BCB6FF" stop-opacity="0.85"></stop> </linearGradient> <linearGradient id="paint39_linear_3016_74" x1="185.965" y1="240.17" x2="193.709" y2="423.574" gradientUnits="userSpaceOnUse"> <stop stop-color="#FFEAC2" stop-opacity="0.72"></stop> <stop offset="1" stop-color="#BCB6FF" stop-opacity="0.85"></stop> </linearGradient> <linearGradient id="paint40_linear_3016_74" x1="187.306" y1="246.185" x2="195.112" y2="431.087" gradientUnits="userSpaceOnUse"> <stop stop-color="#FFEAC2" stop-opacity="0.72"></stop> <stop offset="1" stop-color="#BCB6FF" stop-opacity="0.85"></stop> </linearGradient> <linearGradient id="paint41_linear_3016_74" x1="188.273" y1="252.772" x2="196.142" y2="439.151" gradientUnits="userSpaceOnUse"> <stop stop-color="#FFEAC2" stop-opacity="0.72"></stop> <stop offset="1" stop-color="#BCB6FF" stop-opacity="0.85"></stop> </linearGradient> <linearGradient id="paint42_linear_3016_74" x1="188.981" y1="267.665" x2="196.975" y2="457.019" gradientUnits="userSpaceOnUse"> <stop stop-color="#FFEAC2" stop-opacity="0.72"></stop> <stop offset="1" stop-color="#BCB6FF" stop-opacity="0.85"></stop> </linearGradient> <linearGradient id="paint43_linear_3016_74" x1="188.687" y1="276.014" x2="196.745" y2="466.865" gradientUnits="userSpaceOnUse"> <stop stop-color="#FFEAC2" stop-opacity="0.72"></stop> <stop offset="1" stop-color="#BCB6FF" stop-opacity="0.85"></stop> </linearGradient> <linearGradient id="paint44_linear_3016_74" x1="187.92" y1="285.013" x2="196.04" y2="477.347" gradientUnits="userSpaceOnUse"> <stop stop-color="#FFEAC2" stop-opacity="0.72"></stop> <stop offset="1" stop-color="#BCB6FF" stop-opacity="0.85"></stop> </linearGradient> </defs> </svg> 