<?xml version="1.0" encoding="UTF-8"?> <svg xmlns="http://www.w3.org/2000/svg" width="233" height="200" viewBox="0 0 233 200" fill="none"> <path d="M20 0.5H232.5V199.5H0.5V20C0.5 9.23045 9.23045 0.5 20 0.5Z" fill="#141516" stroke="#C7C7C7"></path> <path d="M76.3741 99.2116C77.7185 91.7159 73.2325 85.0137 66.2093 82.7875C53.7383 78.8331 44.8998 90.4651 45.0009 102.187C45.0839 111.659 47.0779 117.956 47.0797 117.959C46.9894 117.676 49.4345 116.367 49.7179 116.218C50.6793 115.723 51.6765 115.304 52.7007 114.964C54.8048 114.253 56.981 113.803 59.1374 113.301C65.8881 111.733 73.1404 108.77 75.7227 101.64C76.0076 100.851 76.2254 100.038 76.3741 99.2116Z" fill="#FF5C28"></path> <path d="M188.911 107.443H184.137V86.8274L188.911 85.4902V107.443Z" fill="white"></path> <path d="M103.104 91.8141V87.5896L98.4118 88.8992V101.782C98.4118 103.99 98.8503 105.492 99.7436 106.425C100.525 107.217 101.813 107.768 103.353 107.768C104.672 107.768 105.836 107.577 106.431 107.353L106.4 103.679C105.936 103.781 105.461 103.824 104.986 103.808C103.573 103.808 103.104 102.939 103.104 101.053V95.3957H106.532V91.8141H103.104Z" fill="white"></path> <path d="M88.9372 104.374C87.5278 104.374 85.6999 103.773 84.8211 103.222L83.9766 106.669C85.1369 107.311 86.9287 107.788 88.939 107.788C93.3366 107.788 95.5669 105.645 95.5669 102.706C95.5327 100.436 94.3381 98.9001 91.4166 97.8771C89.5327 97.2067 88.9372 96.8228 88.9372 96.055C88.9372 95.2873 89.5958 94.8079 90.7579 94.8079C91.9207 94.8455 93.0599 95.152 94.089 95.7042L94.9047 92.3467C93.9627 91.8765 92.391 91.4283 90.6009 91.4283C86.8006 91.4283 84.3501 93.6324 84.3501 96.5711C84.3194 98.4263 85.5429 100.186 88.7477 101.264C90.5089 101.872 90.9781 102.256 90.9781 103.088C90.9781 103.894 90.3808 104.374 88.9372 104.374Z" fill="white"></path> <path fill-rule="evenodd" clip-rule="evenodd" d="M124.295 99.4494C124.295 105.173 120.305 107.794 116.19 107.794C111.699 107.794 108.251 104.789 108.251 99.7378C108.251 94.6537 111.517 91.4247 116.481 91.4247C121.147 91.4247 124.295 94.7143 124.295 99.4494ZM113.175 99.6092C113.175 102.295 114.276 104.309 116.317 104.309C118.201 104.309 119.365 102.423 119.365 99.5762C119.365 97.2766 118.484 94.909 116.317 94.909C114.056 94.909 113.175 97.3078 113.175 99.6092Z" fill="white"></path> <path d="M127.121 91.8122C127.217 93.1512 127.247 94.6537 127.247 96.9551V107.443H132.018V99.5173C132.016 99.1527 132.047 98.7885 132.112 98.43C132.426 96.9275 133.619 95.9687 135.378 95.9687C135.81 95.9716 136.241 96.0146 136.665 96.0973V91.5238C136.335 91.4556 135.999 91.4236 135.662 91.4283C134.153 91.4283 132.298 92.3871 131.511 94.6904H131.387L131.206 91.8122H127.121Z" fill="white"></path> <path d="M143.331 91.8085L145.625 99.5136C145.875 100.408 146.188 101.591 146.377 102.423H146.503L146.597 101.994C146.771 101.201 146.977 100.258 147.164 99.4842L149.078 91.8104H154.171L150.589 102.105C148.396 108.337 146.911 110.799 145.184 112.365C143.908 113.542 142.307 114.289 140.599 114.507L139.554 110.415C140.284 110.247 140.985 109.969 141.635 109.592C142.449 109.124 143.132 108.453 143.62 107.641C143.762 107.433 143.848 107.192 143.871 106.94C143.866 106.663 143.804 106.39 143.69 106.139L138.035 91.8122L143.331 91.8085Z" fill="white"></path> <path d="M161.519 91.8141V87.5896L156.84 88.8992V101.788C156.84 103.995 157.281 105.498 158.159 106.425C158.941 107.217 160.229 107.768 161.768 107.768C163.087 107.768 164.25 107.577 164.847 107.353L164.814 103.679C164.35 103.781 163.876 103.824 163.401 103.808C161.989 103.808 161.519 102.939 161.519 101.053V95.3957H164.948V91.8141H161.519Z" fill="white"></path> <path fill-rule="evenodd" clip-rule="evenodd" d="M171.226 101.176C171.349 103.196 173.33 104.15 175.557 104.15C176.997 104.173 178.429 103.946 179.794 103.477L180.422 106.771C178.852 107.443 176.935 107.762 174.864 107.762C169.649 107.762 166.664 104.693 166.664 99.802C166.664 95.8365 169.082 91.4559 174.423 91.4559C179.386 91.4559 181.281 95.3902 181.281 99.2565C181.281 99.8997 181.229 100.542 181.124 101.176H171.226ZM176.847 97.8514C176.847 96.6686 176.345 94.6867 174.14 94.6867C172.128 94.6867 171.312 96.5712 171.188 97.8514H176.847Z" fill="white"></path> </svg> 