<?xml version="1.0" encoding="UTF-8"?> <svg xmlns="http://www.w3.org/2000/svg" width="116" height="83" viewBox="0 0 116 83" fill="none"> <rect x="0.5" y="0.5" width="115" height="82" rx="19.5" fill="#F0F0F0" stroke="#C7C7C7"></rect> <path fill-rule="evenodd" clip-rule="evenodd" d="M71.0806 32C69.1061 34.5716 68.0206 37.7697 68.0157 41.0382C68.0133 44.3154 69.0976 47.5258 71.0818 50.1073L73.6743 47.9806C72.1698 46.0022 71.3453 43.548 71.3478 41.0407C71.3501 38.5445 72.1758 36.099 73.6743 34.1267L71.0806 32ZM24.8838 44.6824L19.7145 35.2043H16L22.6215 46.9055H27.1447L33.7663 35.2043H30.0506L24.8838 44.6824ZM89.2753 35.2043L84.5105 39.1141L79.7456 35.2043H75.0159L82.1451 41.0543L75.0159 46.9055H79.7456L84.5105 42.9957L89.2753 46.9055H94.0038L86.8747 41.0543L94.0038 35.2043H89.2753ZM35.9189 35.2043H39.229V46.9055H35.9189V35.2043ZM50.2686 44.6824L45.1006 35.2043H41.3861L48.0063 46.9055H52.5308L59.1523 35.2043H55.4366L50.2686 44.6824ZM61.3084 35.2043H64.6185V46.9055H61.3084V35.2043ZM95.3413 34.1279L97.9351 32C99.9095 34.5716 100.995 37.7697 101 41.0394C101.002 44.3167 99.9168 47.5283 97.9338 50.1086L95.3413 47.9818C96.8458 46.0034 97.6692 43.5492 97.668 41.0419C97.6655 38.5457 96.8398 36.1002 95.3413 34.1279Z" fill="#141516"></path> </svg> 