<?xml version="1.0" encoding="UTF-8"?> <svg xmlns="http://www.w3.org/2000/svg" width="233" height="200" viewBox="0 0 233 200" fill="none"> <rect x="0.5" y="0.5" width="232" height="199" fill="#141516" stroke="#C7C7C7"></rect> <path d="M46.7697 87.3476H51.5634L57.7774 105.44L63.9737 87.3476H68.7674L59.7126 112.652H55.8244L46.7697 87.3476ZM44 87.3476H48.8825L49.7879 106.1V112.652H44V87.3476ZM66.6546 87.3476H71.5548V112.652H65.7491V106.1L66.6546 87.3476Z" fill="white"></path> <path d="M86.1844 101.721H79.5443L79.5088 97.9318H84.9949C85.9654 97.9318 86.7525 97.816 87.3562 97.5842C87.9717 97.3525 88.4215 97.0165 88.7055 96.5762C88.9896 96.1243 89.1316 95.5682 89.1316 94.9078C89.1316 94.1546 88.9896 93.5463 88.7055 93.0829C88.4215 92.6194 87.9717 92.2834 87.3562 92.0749C86.7525 91.8547 85.9713 91.7447 85.0126 91.7447H81.6393V112.652H75.8514V87.3476H85.0126C86.5632 87.3476 87.948 87.4866 89.1671 87.7647C90.3863 88.0428 91.4219 88.4715 92.2742 89.0508C93.1382 89.6301 93.7951 90.3543 94.2449 91.2233C94.6947 92.0922 94.9196 93.1176 94.9196 94.2995C94.9196 95.3307 94.6828 96.2923 94.2094 97.1845C93.7478 98.0766 93.0021 98.8008 91.9723 99.357C90.9426 99.9131 89.5636 100.214 87.8356 100.261L86.1844 101.721ZM85.9536 112.652H78.0706L80.1657 108.273H85.9536C86.8413 108.273 87.5633 108.134 88.1196 107.856C88.6759 107.578 89.0843 107.201 89.3447 106.726C89.6051 106.251 89.7353 105.718 89.7353 105.127C89.7353 104.432 89.611 103.829 89.3624 103.32C89.1257 102.81 88.7469 102.416 88.2262 102.138C87.7172 101.86 87.0366 101.721 86.1844 101.721H81.0001L81.0356 97.9318H87.3739L88.7233 99.4265C90.3685 99.3917 91.6823 99.6524 92.6647 100.209C93.659 100.753 94.3751 101.471 94.813 102.364C95.251 103.256 95.4699 104.2 95.4699 105.197C95.4699 106.842 95.1089 108.221 94.3869 109.333C93.6649 110.434 92.5937 111.262 91.1734 111.818C89.7649 112.374 88.0249 112.652 85.9536 112.652Z" fill="white"></path> <path d="M112.621 105.979C112.621 105.55 112.556 105.168 112.425 104.832C112.295 104.484 112.058 104.165 111.715 103.876C111.372 103.586 110.887 103.296 110.259 103.007C109.632 102.705 108.809 102.398 107.791 102.086C106.632 101.715 105.525 101.298 104.471 100.834C103.43 100.359 102.501 99.8088 101.684 99.1832C100.867 98.5575 100.222 97.8275 99.7487 96.9933C99.2871 96.1591 99.0563 95.1858 99.0563 94.0735C99.0563 92.996 99.299 92.0227 99.7843 91.1537C100.27 90.2848 100.95 89.5432 101.826 88.9291C102.702 88.3035 103.732 87.8284 104.915 87.504C106.099 87.168 107.401 87 108.821 87C110.715 87 112.378 87.3302 113.81 87.9906C115.254 88.6395 116.379 89.5548 117.184 90.7366C117.988 91.9069 118.391 93.2683 118.391 94.8209H112.638C112.638 94.1373 112.49 93.5348 112.195 93.0134C111.91 92.4804 111.473 92.0633 110.881 91.762C110.301 91.4608 109.573 91.3102 108.697 91.3102C107.845 91.3102 107.129 91.4376 106.549 91.6925C105.981 91.9358 105.549 92.2718 105.253 92.7005C104.969 93.1292 104.826 93.5985 104.826 94.1083C104.826 94.5138 104.933 94.8846 105.146 95.2206C105.371 95.545 105.691 95.8521 106.105 96.1417C106.531 96.4198 107.052 96.6863 107.667 96.9412C108.283 97.1961 108.987 97.4394 109.78 97.6711C111.165 98.0998 112.39 98.5749 113.455 99.0963C114.532 99.6176 115.438 100.209 116.172 100.869C116.905 101.529 117.456 102.277 117.823 103.111C118.201 103.945 118.391 104.889 118.391 105.944C118.391 107.068 118.166 108.064 117.716 108.933C117.278 109.802 116.639 110.544 115.799 111.158C114.97 111.76 113.976 112.218 112.816 112.531C111.656 112.844 110.36 113 108.928 113C107.626 113 106.342 112.838 105.075 112.513C103.809 112.177 102.66 111.668 101.631 110.984C100.613 110.3 99.7961 109.431 99.1806 108.377C98.577 107.311 98.2751 106.048 98.2751 104.588H104.063C104.063 105.353 104.176 106.002 104.4 106.535C104.625 107.056 104.945 107.479 105.359 107.803C105.785 108.128 106.3 108.36 106.904 108.499C107.507 108.638 108.182 108.707 108.928 108.707C109.792 108.707 110.49 108.591 111.023 108.36C111.567 108.116 111.97 107.786 112.23 107.369C112.49 106.952 112.621 106.488 112.621 105.979Z" fill="white"></path> <path d="M139.146 97.5321V101.912H125.759V97.5321H139.146ZM127.588 87.3476V112.652H121.8V87.3476H127.588ZM143.14 87.3476V112.652H137.37V87.3476H143.14Z" fill="white"></path> <path d="M147.455 110.08C147.455 109.292 147.739 108.632 148.307 108.099C148.887 107.566 149.639 107.299 150.562 107.299C151.497 107.299 152.243 107.566 152.799 108.099C153.367 108.632 153.651 109.292 153.651 110.08C153.651 110.857 153.367 111.511 152.799 112.044C152.243 112.577 151.497 112.844 150.562 112.844C149.639 112.844 148.887 112.577 148.307 112.044C147.739 111.511 147.455 110.857 147.455 110.08Z" fill="white"></path> <path d="M168.973 92.1618L162.297 112.652H156.119L165.689 87.3476H169.594L168.973 92.1618ZM174.512 112.652L167.819 92.1618L167.127 87.3476H171.086L180.691 112.652H174.512ZM174.228 103.233V107.612H160.753V103.233H174.228Z" fill="white"></path> <path d="M189 87.3476V112.652H183.23V87.3476H189Z" fill="white"></path> </svg> 