<?xml version="1.0" encoding="UTF-8"?> <svg xmlns="http://www.w3.org/2000/svg" width="116" height="83" viewBox="0 0 116 83" fill="none"> <rect x="0.5" y="0.5" width="115" height="82" rx="19.5" fill="#F0F0F0" stroke="#C7C7C7"></rect> <path d="M19.5472 34.2005H22.2251L25.6963 44.6384L29.1577 34.2005H31.8356L26.7774 48.7995H24.6054L19.5472 34.2005ZM18 34.2005H20.7274L21.2333 45.0194V48.7995H18V34.2005ZM30.6553 34.2005H33.3927V48.7995H30.1495V45.0194L30.6553 34.2005Z" fill="#141516"></path> <path d="M41.5651 42.4926H37.8558L37.8359 40.3068H40.9006C41.4428 40.3068 41.8825 40.24 42.2197 40.1063C42.5635 39.9726 42.8147 39.7787 42.9734 39.5247C43.1321 39.264 43.2115 38.9432 43.2115 38.5622C43.2115 38.1277 43.1321 37.7767 42.9734 37.5094C42.8147 37.242 42.5635 37.0481 42.2197 36.9278C41.8825 36.8008 41.4461 36.7373 40.9105 36.7373H39.0261V48.7995H35.7928V34.2005H40.9105C41.7767 34.2005 42.5503 34.2807 43.2313 34.4412C43.9123 34.6016 44.4909 34.8489 44.9669 35.1832C45.4496 35.5174 45.8166 35.9352 46.0678 36.4365C46.3191 36.9378 46.4447 37.5294 46.4447 38.2112C46.4447 38.8061 46.3125 39.361 46.048 39.8757C45.7901 40.3904 45.3736 40.8082 44.7983 41.129C44.2231 41.4499 43.4528 41.6237 42.4874 41.6504L41.5651 42.4926ZM41.4361 48.7995H37.0326L38.2029 46.2727H41.4361C41.932 46.2727 42.3354 46.1925 42.6461 46.0321C42.9569 45.8717 43.185 45.6544 43.3305 45.3803C43.4759 45.1063 43.5487 44.7988 43.5487 44.4579C43.5487 44.0568 43.4792 43.7092 43.3404 43.4151C43.2082 43.121 42.9966 42.8937 42.7056 42.7333C42.4213 42.5729 42.0411 42.4926 41.5651 42.4926H38.669L38.6889 40.3068H42.2296L42.9833 41.1691C43.9024 41.1491 44.6363 41.2995 45.1851 41.6203C45.7405 41.9345 46.1406 42.3489 46.3852 42.8636C46.6299 43.3783 46.7522 43.9231 46.7522 44.498C46.7522 45.4472 46.5505 46.2426 46.1472 46.8844C45.7438 47.5194 45.1455 47.9973 44.352 48.3182C43.5652 48.639 42.5932 48.7995 41.4361 48.7995Z" fill="#141516"></path> <path d="M56.3329 44.9492C56.3329 44.7019 56.2966 44.4813 56.2238 44.2874C56.1511 44.0869 56.0189 43.9031 55.8271 43.736C55.6354 43.5689 55.3643 43.4017 55.0138 43.2346C54.6634 43.0608 54.2039 42.8837 53.6352 42.7032C52.9873 42.4893 52.369 42.2487 51.7806 41.9813C51.1987 41.7072 50.6797 41.3897 50.2235 41.0287C49.7672 40.6678 49.4069 40.2467 49.1424 39.7654C48.8845 39.2841 48.7556 38.7226 48.7556 38.0809C48.7556 37.4592 48.8911 36.8977 49.1622 36.3964C49.4333 35.8951 49.8135 35.4672 50.3028 35.113C50.7921 34.752 51.3673 34.4779 52.0285 34.2908C52.6897 34.0969 53.417 34 54.2105 34C55.2684 34 56.1974 34.1905 56.9974 34.5715C57.8041 34.9459 58.4322 35.4739 58.8818 36.1557C59.3315 36.8309 59.5563 37.6163 59.5563 38.512H56.3428C56.3428 38.1176 56.2602 37.7701 56.0949 37.4693C55.9362 37.1618 55.6916 36.9211 55.361 36.7473C55.037 36.5735 54.6303 36.4866 54.1411 36.4866C53.665 36.4866 53.265 36.5602 52.941 36.7072C52.6236 36.8476 52.3823 37.0414 52.217 37.2888C52.0583 37.5361 51.9789 37.8068 51.9789 38.1009C51.9789 38.3349 52.0384 38.5488 52.1575 38.7426C52.2831 38.9298 52.4616 39.107 52.693 39.2741C52.9311 39.4345 53.222 39.5882 53.5658 39.7353C53.9096 39.8824 54.303 40.0227 54.7461 40.1564C55.5197 40.4037 56.204 40.6778 56.7991 40.9786C57.4008 41.2794 57.9066 41.6203 58.3165 42.0013C58.7265 42.3824 59.0339 42.8135 59.2389 43.2948C59.4505 43.7761 59.5563 44.3209 59.5563 44.9291C59.5563 45.5775 59.4306 46.1524 59.1794 46.6537C58.9347 47.1551 58.5777 47.5829 58.1082 47.9372C57.6454 48.2848 57.09 48.5488 56.442 48.7293C55.794 48.9098 55.07 49 54.27 49C53.5427 49 52.8253 48.9064 52.1178 48.7193C51.4103 48.5254 50.7689 48.2313 50.1937 47.8369C49.6251 47.4425 49.1688 46.9412 48.825 46.3329C48.4878 45.7179 48.3192 44.9893 48.3192 44.1471H51.5525C51.5525 44.5882 51.6153 44.9626 51.7409 45.2701C51.8665 45.5709 52.0451 45.8148 52.2765 46.002C52.5145 46.1892 52.8021 46.3229 53.1393 46.4031C53.4766 46.4833 53.8534 46.5234 54.27 46.5234C54.7527 46.5234 55.1428 46.4566 55.4403 46.3229C55.7445 46.1825 55.9693 45.992 56.1147 45.7513C56.2602 45.5107 56.3329 45.2433 56.3329 44.9492Z" fill="#141516"></path> <path d="M71.1504 40.0762V42.6029H63.6722V40.0762H71.1504ZM64.6938 34.2005V48.7995H61.4605V34.2005H64.6938ZM73.3819 34.2005V48.7995H70.1586V34.2005H73.3819Z" fill="#141516"></path> <path d="M75.792 47.3155C75.792 46.861 75.9507 46.4799 76.268 46.1725C76.592 45.865 77.0119 45.7112 77.5276 45.7112C78.05 45.7112 78.4665 45.865 78.7773 46.1725C79.0946 46.4799 79.2533 46.861 79.2533 47.3155C79.2533 47.7634 79.0946 48.141 78.7773 48.4485C78.4665 48.756 78.05 48.9098 77.5276 48.9098C77.0119 48.9098 76.592 48.756 76.268 48.4485C75.9507 48.141 75.792 47.7634 75.792 47.3155Z" fill="#141516"></path> <path d="M87.8125 36.9779L84.0834 48.7995H80.6319L85.9777 34.2005H88.1597L87.8125 36.9779ZM90.9069 48.7995L87.1679 36.9779L86.7811 34.2005H88.9928L94.3584 48.7995H90.9069ZM90.7483 43.365V45.8917H83.2205V43.365H90.7483Z" fill="#141516"></path> <path d="M99 34.2005V48.7995H95.7767V34.2005H99Z" fill="#141516"></path> </svg> 