<?xml version="1.0" encoding="UTF-8"?> <svg xmlns="http://www.w3.org/2000/svg" width="442" height="137" viewBox="0 0 442 137" fill="none"> <rect x="0.5" y="0.5" width="441" height="136" rx="20.5" fill="url(#paint0_linear_3017_481)"></rect> <rect x="0.5" y="0.5" width="441" height="136" rx="20.5" fill="url(#paint1_linear_3017_481)"></rect> <rect x="0.5" y="0.5" width="441" height="136" rx="20.5" stroke="url(#paint2_linear_3017_481)"></rect> <mask id="mask0_3017_481" style="mask-type:alpha" maskUnits="userSpaceOnUse" x="1" y="1" width="440" height="135"> <rect x="1.5" y="1.5" width="439" height="134" rx="19.5" fill="url(#paint3_linear_3017_481)" stroke="url(#paint4_linear_3017_481)"></rect> </mask> <g mask="url(#mask0_3017_481)"> <g filter="url(#filter0_f_3017_481)"> <ellipse rx="152.509" ry="74.4663" transform="matrix(-0.873429 0.421451 0.622939 0.83051 512.933 72.1199)" fill="#FFD39E" fill-opacity="0.4"></ellipse> </g> <g filter="url(#filter1_f_3017_481)"> <ellipse rx="153.474" ry="81.8995" transform="matrix(-1.01499 0.00343337 0.0319272 0.977113 125.39 172.258)" fill="#FF9EBB" fill-opacity="0.6"></ellipse> </g> <g filter="url(#filter2_f_3017_481)"> <ellipse rx="153.474" ry="81.8995" transform="matrix(-1.01499 0.00343337 0.0319272 0.977113 335.689 198.078)" fill="#617EE2" fill-opacity="0.6"></ellipse> </g> <path d="M228.466 143.376C261.782 133.071 290.289 117.018 323.822 106.556C347.54 99.1604 369.738 89.5638 393.917 82.9976C458.848 65.3588 525.118 50.2814 590.554 34.0114" stroke="url(#paint5_linear_3017_481)" stroke-opacity="0.4" stroke-width="0.75" stroke-miterlimit="10"></path> <path d="M229.651 146.499C262.523 135.966 291.775 121.087 324.834 110.617C348.993 102.962 371.035 92.6721 395.738 85.9515C460.261 68.3903 526.776 53.4478 591.946 37.5663" stroke="url(#paint6_linear_3017_481)" stroke-opacity="0.4" stroke-width="0.75" stroke-miterlimit="10"></path> <path d="M230.514 149.027C262.803 138.711 293.461 125.629 325.626 115.021C350.608 106.779 372.478 95.0209 398.246 88.0077C426.177 80.4003 454.918 76.8745 483.043 70.0768C520.063 61.133 556.336 50.1788 593.326 41.148" stroke="url(#paint7_linear_3017_481)" stroke-opacity="0.4" stroke-width="0.75" stroke-miterlimit="10"></path> <path d="M231.102 151.058C262.769 141.299 295.156 130.55 326.218 119.745C352.346 110.658 374 96.7882 401.284 89.3892C429.3 81.7919 458.03 80.7096 486.285 74.4939C523.068 66.4045 558.242 53.9287 594.674 44.8481" stroke="url(#paint8_linear_3017_481)" stroke-opacity="0.4" stroke-width="0.75" stroke-miterlimit="10"></path> <path d="M231.488 152.694C262.865 143.637 296.161 135.402 326.687 124.683C354.417 114.945 375.544 98.0264 404.787 90.1944C433.039 82.633 461.563 84.4522 490.039 79.0554C526.452 72.1528 560.445 57.7751 596.053 48.5929" stroke="url(#paint9_linear_3017_481)" stroke-opacity="0.4" stroke-width="0.75" stroke-miterlimit="10"></path> <path d="M231.695 153.92C262.714 145.774 297.43 140.918 327.029 129.699C356.14 118.673 377.269 98.7382 408.585 90.5649C437.253 83.0822 465.38 88.1078 494.138 83.6979C529.98 78.2083 562.918 61.665 597.43 52.3741" stroke="url(#paint10_linear_3017_481)" stroke-opacity="0.4" stroke-width="0.75" stroke-miterlimit="10"></path> <path d="M231.783 154.73C262.751 147.521 298.184 146.435 327.312 134.593C357.682 122.255 379.218 98.9702 412.612 90.5981C441.851 83.2644 469.443 91.5872 498.52 88.2756C533.594 84.2801 565.667 65.493 598.878 56.1198" stroke="url(#paint11_linear_3017_481)" stroke-opacity="0.4" stroke-width="0.75" stroke-miterlimit="10"></path> <path d="M231.839 155.474C263.146 149.157 298.346 152.135 327.573 139.49C359.188 125.812 381.356 99.3939 416.731 90.5428C446.379 83.1236 473.836 95.0003 502.997 92.8384C537.206 90.312 568.492 69.2739 600.318 59.8497" stroke="url(#paint12_linear_3017_481)" stroke-opacity="0.4" stroke-width="0.75" stroke-miterlimit="10"></path> <path d="M231.902 156.299C263.861 150.815 297.98 157.985 327.834 144.364C360.503 129.454 383.608 99.6903 420.796 90.5556C450.947 83.1493 478.212 98.413 507.413 97.367C540.797 96.169 571.239 73.0129 601.741 63.5525" stroke="url(#paint13_linear_3017_481)" stroke-opacity="0.4" stroke-width="0.75" stroke-miterlimit="10"></path> <path d="M232.046 157.303C264.819 152.562 297.316 163.86 328.156 149.153C361.724 133.146 385.905 100.117 424.711 90.7748C455.379 83.3893 482.471 101.867 511.661 101.816C544.391 101.762 573.793 76.7151 603.169 67.2137" stroke="url(#paint14_linear_3017_481)" stroke-opacity="0.4" stroke-width="0.75" stroke-miterlimit="10"></path> <path d="M232.342 158.604C265.976 154.472 296.568 169.615 328.588 153.837C362.96 136.9 388.144 100.87 428.374 91.3719C459.604 83.9999 486.41 105.402 515.627 106.186C547.931 107.046 576.103 80.3836 604.605 70.8526" stroke="url(#paint15_linear_3017_481)" stroke-opacity="0.4" stroke-width="0.75" stroke-miterlimit="10"></path> <path d="M232.814 160.302C267.237 156.571 295.903 175.098 329.12 158.362C345.995 149.864 360.807 137.473 374.862 127.067C389.84 115.97 409.777 97.5512 431.621 92.4763C463.513 85.0667 489.761 109.035 519.129 110.438C551.261 111.971 578.092 84.0034 606.016 74.4494" stroke="url(#paint16_linear_3017_481)" stroke-opacity="0.4" stroke-width="0.75" stroke-miterlimit="10"></path> <path d="M233.544 162.499C268.687 158.879 295.471 180.168 329.834 162.691C347.14 153.888 362.33 140.858 376.62 130.071C391.672 118.702 412.043 99.3835 434.363 94.25C467.034 86.7328 492.326 112.798 522.055 114.557C554.286 116.472 579.731 87.5592 607.421 78.0148" stroke="url(#paint17_linear_3017_481)" stroke-opacity="0.4" stroke-width="0.75" stroke-miterlimit="10"></path> <path d="M234.573 165.313C270.341 161.417 295.343 184.713 330.743 166.779C348.348 157.858 363.825 144.292 378.204 133.297C393.381 121.697 413.735 102.053 436.45 96.833C470.09 89.1129 493.912 116.702 524.26 118.523C556.868 120.482 580.979 91.046 608.807 81.5587" stroke="url(#paint18_linear_3017_481)" stroke-opacity="0.4" stroke-width="0.75" stroke-miterlimit="10"></path> <path d="M235.833 168.809C271.472 164.952 296.671 188.142 331.832 170.196C349.487 161.186 365.091 147.741 379.677 136.732C394.941 125.208 415.489 105.576 438.072 100.252C471.753 92.3165 495.314 120.367 525.638 122.156C558.597 124.106 582.089 94.5232 610.21 85.0624" stroke="url(#paint19_linear_3017_481)" stroke-opacity="0.4" stroke-width="0.75" stroke-miterlimit="10"></path> <path d="M236.614 172.707C271.747 169.088 298.533 190.159 332.707 172.656C350.423 163.582 366.219 150.8 381.321 139.942C396.856 128.774 418.191 109.254 440.374 103.935C473.248 96.0589 497.129 123.831 526.65 125.758C559.669 127.916 583.401 98.0361 611.589 88.5641" stroke="url(#paint20_linear_3017_481)" stroke-opacity="0.4" stroke-width="0.75" stroke-miterlimit="10"></path> <path d="M236.898 176.922C271.737 173.117 299.837 191.314 333.324 174.525C351.22 165.555 367.411 153.473 383.124 142.894C399.141 132.11 421.42 112.971 443.38 107.788C475.538 100.192 498.751 127.45 527.493 129.519C560.443 131.889 584.789 101.527 612.961 92.04" stroke="url(#paint21_linear_3017_481)" stroke-opacity="0.4" stroke-width="0.75" stroke-miterlimit="10"></path> <path d="M236.787 181.388C271.398 177.085 300.778 191.755 333.756 175.915C351.939 167.18 368.67 155.839 385.072 145.66C401.776 135.301 425.059 116.804 446.95 111.827C478.462 104.674 500.215 131.195 528.23 133.395C561.024 135.97 586.275 104.97 614.343 95.4874" stroke="url(#paint22_linear_3017_481)" stroke-opacity="0.4" stroke-width="0.75" stroke-miterlimit="10"></path> <path d="M236.364 186.054C270.714 181.03 301.446 191.682 334.011 176.956C352.569 168.57 369.925 158.009 387.086 148.326C404.612 138.44 428.925 120.791 450.893 116.097C481.894 109.469 501.458 135.172 528.861 137.394C561.557 140.047 587.672 108.447 615.733 98.9124" stroke="url(#paint23_linear_3017_481)" stroke-opacity="0.4" stroke-width="0.75" stroke-miterlimit="10"></path> <path d="M235.745 190.858C269.749 184.97 301.921 191.286 334.164 177.766C353.158 169.804 371.199 160.059 389.122 150.978C407.587 141.626 432.873 124.994 455.023 120.618C486.344 114.427 501.755 140.148 529.418 141.499C563.347 143.161 587.838 112.357 617.121 102.335" stroke="url(#paint24_linear_3017_481)" stroke-opacity="0.4" stroke-width="0.75" stroke-miterlimit="10"></path> <path d="M235.011 195.702C266.762 189.232 299.561 191.1 329.982 180.058C355.279 170.879 379.055 158.981 403.118 148.223C419.304 140.992 439.998 129.194 458.688 126.086C491.083 120.698 503.169 145.653 532.798 145.843C565.033 146.059 590.268 115.324 618.488 105.695" stroke="url(#paint25_linear_3017_481)" stroke-opacity="0.4" stroke-width="0.75" stroke-miterlimit="10"></path> <path d="M234.243 200.574C266.024 193.163 299.117 190.891 329.892 180.606C355.683 171.983 380.443 161.352 405.429 151.523C422.427 144.842 443.608 134.039 462.536 131.109C493.855 126.259 504.591 149.739 533.132 150.014C565.274 150.323 591.685 118.749 619.851 109.067" stroke="url(#paint26_linear_3017_481)" stroke-opacity="0.4" stroke-width="0.75" stroke-miterlimit="10"></path> <path d="M233.569 205.396C265.539 197.054 298.384 190.888 329.84 181.258C356.11 173.22 381.769 163.886 407.59 155.044C425.418 148.939 446.873 139.233 466.105 136.435C496.293 132.038 506.025 153.918 533.505 154.187C565.628 154.504 593.059 122.173 621.238 112.419" stroke="url(#paint27_linear_3017_481)" stroke-opacity="0.4" stroke-width="0.75" stroke-miterlimit="10"></path> <path d="M233.061 210.106C265.383 200.887 297.462 191.18 329.857 182.136C356.546 174.683 382.989 166.667 409.514 158.846C428.125 153.355 449.637 144.804 469.198 142.078C498.25 138.021 507.445 158.184 533.896 158.338C566.169 158.538 594.29 125.612 622.622 115.75" stroke="url(#paint28_linear_3017_481)" stroke-opacity="0.4" stroke-width="0.75" stroke-miterlimit="10"></path> <path d="M232.815 214.636C265.566 204.692 296.542 191.869 329.986 183.362C356.999 176.498 384.068 169.79 411.108 163.004C430.429 158.156 451.772 150.797 471.656 148.06C499.611 144.219 508.833 162.52 534.343 162.438C567.003 162.33 595.287 129.106 623.98 119.058" stroke="url(#paint29_linear_3017_481)" stroke-opacity="0.4" stroke-width="0.75" stroke-miterlimit="10"></path> <path d="M232.875 219.019C266.078 208.614 295.809 193.226 330.243 185.252C376.365 174.579 426.362 161.234 473.306 154.653C500.204 150.888 510.168 167.109 534.893 166.6C568.265 165.918 596.021 132.901 625.361 122.615" stroke="url(#paint30_linear_3017_481)" stroke-opacity="0.4" stroke-width="0.75" stroke-miterlimit="10"></path> <path d="M233.386 223.118C265.595 213.078 293.166 196.192 326.68 188.652C374.583 177.872 426.056 168.888 474.661 161.413C500.812 157.393 513.418 172.7 538.192 170.469C571.935 167.438 596.5 136.742 626.785 126.227" stroke="url(#paint31_linear_3017_481)" stroke-opacity="0.4" stroke-width="0.75" stroke-miterlimit="10"></path> <path d="M234.459 226.843C267.063 217.086 293.552 199.011 327.531 191.851C375.46 181.746 425.669 177.044 474.043 168.91C499.658 164.607 514.628 177.263 539.118 174.323C573.933 170.141 596.75 140.663 628.156 129.783" stroke="url(#paint32_linear_3017_481)" stroke-opacity="0.4" stroke-width="0.75" stroke-miterlimit="10"></path> <path d="M236.238 230.285C268.483 220.245 296.27 202.854 329.97 195.743C376.628 185.891 425.782 180.017 472.94 172.527C498.597 168.45 516.059 180.236 540.788 177.145C575.09 172.858 598.65 144.244 629.535 133.251" stroke="url(#paint33_linear_3017_481)" stroke-opacity="0.4" stroke-width="0.75" stroke-miterlimit="10"></path> <path d="M238.746 233.602C272.278 223.088 302.632 206.586 337.713 199.425C381.237 190.541 426.58 182.811 470.517 176.119C496.101 172.22 515.294 181.782 540.015 179.328C575.003 175.848 599.734 147.848 630.868 136.648" stroke="url(#paint34_linear_3017_481)" stroke-opacity="0.4" stroke-width="0.75" stroke-miterlimit="10"></path> <path d="M241.853 236.82C275.627 226.518 307.692 212.039 342.577 204.332C383.646 195.254 426.474 186.052 468.049 179.352C494.377 175.108 516.452 183.405 542.18 180.456C576.736 176.488 601.097 150.974 632.191 139.98" stroke="url(#paint35_linear_3017_481)" stroke-opacity="0.4" stroke-width="0.75" stroke-miterlimit="10"></path> <path d="M245.433 239.977C317.724 219.048 390.17 195.792 465.222 182.494C492.592 177.643 517.531 184.507 544.548 180.962C578.427 176.518 602.56 153.832 633.499 143.257" stroke="url(#paint36_linear_3017_481)" stroke-opacity="0.4" stroke-width="0.75" stroke-miterlimit="10"></path> </g> <defs> <filter id="filter0_f_3017_481" x="271.843" y="-117.077" width="482.181" height="378.394" filterUnits="userSpaceOnUse" color-interpolation-filters="sRGB"> <feFlood flood-opacity="0" result="BackgroundImageFix"></feFlood> <feBlend mode="normal" in="SourceGraphic" in2="BackgroundImageFix" result="shape"></feBlend> <feGaussianBlur stdDeviation="50" result="effect1_foregroundBlur_3017_481"></feGaussianBlur> </filter> <filter id="filter1_f_3017_481" x="-130.408" y="-7.76929" width="511.596" height="360.054" filterUnits="userSpaceOnUse" color-interpolation-filters="sRGB"> <feFlood flood-opacity="0" result="BackgroundImageFix"></feFlood> <feBlend mode="normal" in="SourceGraphic" in2="BackgroundImageFix" result="shape"></feBlend> <feGaussianBlur stdDeviation="50" result="effect1_foregroundBlur_3017_481"></feGaussianBlur> </filter> <filter id="filter2_f_3017_481" x="79.8916" y="18.051" width="511.596" height="360.054" filterUnits="userSpaceOnUse" color-interpolation-filters="sRGB"> <feFlood flood-opacity="0" result="BackgroundImageFix"></feFlood> <feBlend mode="normal" in="SourceGraphic" in2="BackgroundImageFix" result="shape"></feBlend> <feGaussianBlur stdDeviation="50" result="effect1_foregroundBlur_3017_481"></feGaussianBlur> </filter> <linearGradient id="paint0_linear_3017_481" x1="243.19" y1="62.4773" x2="239.637" y2="-19.8405" gradientUnits="userSpaceOnUse"> <stop stop-color="#141516"></stop> <stop offset="1" stop-color="#141516" stop-opacity="0"></stop> </linearGradient> <linearGradient id="paint1_linear_3017_481" x1="27.1724" y1="-42.3929" x2="269.246" y2="254.44" gradientUnits="userSpaceOnUse"> <stop stop-color="#292524" stop-opacity="0.63"></stop> <stop offset="1" stop-color="#1B1920"></stop> </linearGradient> <linearGradient id="paint2_linear_3017_481" x1="15.6667" y1="1.00001" x2="440.88" y2="95.1396" gradientUnits="userSpaceOnUse"> <stop stop-color="#4E4A49"></stop> <stop offset="1" stop-color="#524E67" stop-opacity="0.35"></stop> <stop offset="1" stop-color="#292831"></stop> </linearGradient> <linearGradient id="paint3_linear_3017_481" x1="-48.9055" y1="-36.8947" x2="110.741" y2="300.986" gradientUnits="userSpaceOnUse"> <stop stop-color="#FFC7E2"></stop> <stop offset="1" stop-color="#5C519B" stop-opacity="0.08"></stop> </linearGradient> <linearGradient id="paint4_linear_3017_481" x1="482.588" y1="192.842" x2="364.458" y2="-158.052" gradientUnits="userSpaceOnUse"> <stop stop-color="#686079" stop-opacity="0.05"></stop> <stop offset="1" stop-color="#FFEFF5" stop-opacity="0.1"></stop> </linearGradient> <linearGradient id="paint5_linear_3017_481" x1="406.275" y1="79.2616" x2="410.923" y2="97.9226" gradientUnits="userSpaceOnUse"> <stop stop-color="#D1E9FF" stop-opacity="0.85"></stop> <stop offset="1" stop-color="#FFDBDB" stop-opacity="0.96"></stop> </linearGradient> <linearGradient id="paint6_linear_3017_481" x1="407.497" y1="82.4066" x2="412.138" y2="101.037" gradientUnits="userSpaceOnUse"> <stop stop-color="#D1E9FF" stop-opacity="0.85"></stop> <stop offset="1" stop-color="#FFDBDB" stop-opacity="0.96"></stop> </linearGradient> <linearGradient id="paint7_linear_3017_481" x1="408.586" y1="85.354" x2="413.112" y2="103.514" gradientUnits="userSpaceOnUse"> <stop stop-color="#D1E9FF" stop-opacity="0.85"></stop> <stop offset="1" stop-color="#FFDBDB" stop-opacity="0.96"></stop> </linearGradient> <linearGradient id="paint8_linear_3017_481" x1="409.258" y1="87.3581" x2="413.786" y2="105.524" gradientUnits="userSpaceOnUse"> <stop stop-color="#D1E9FF" stop-opacity="0.85"></stop> <stop offset="1" stop-color="#FFDBDB" stop-opacity="0.96"></stop> </linearGradient> <linearGradient id="paint9_linear_3017_481" x1="409.758" y1="88.9335" x2="414.294" y2="107.131" gradientUnits="userSpaceOnUse"> <stop stop-color="#D1E9FF" stop-opacity="0.85"></stop> <stop offset="1" stop-color="#FFDBDB" stop-opacity="0.96"></stop> </linearGradient> <linearGradient id="paint10_linear_3017_481" x1="410.107" y1="90.1788" x2="414.932" y2="109.56" gradientUnits="userSpaceOnUse"> <stop stop-color="#D1E9FF" stop-opacity="0.85"></stop> <stop offset="1" stop-color="#FFDBDB" stop-opacity="0.96"></stop> </linearGradient> <linearGradient id="paint11_linear_3017_481" x1="410.387" y1="91.1498" x2="416.066" y2="114.036" gradientUnits="userSpaceOnUse"> <stop stop-color="#D1E9FF" stop-opacity="0.85"></stop> <stop offset="1" stop-color="#FFDBDB" stop-opacity="0.96"></stop> </linearGradient> <linearGradient id="paint12_linear_3017_481" x1="410.63" y1="92.0514" x2="417.231" y2="118.735" gradientUnits="userSpaceOnUse"> <stop stop-color="#D1E9FF" stop-opacity="0.85"></stop> <stop offset="1" stop-color="#FFDBDB" stop-opacity="0.96"></stop> </linearGradient> <linearGradient id="paint13_linear_3017_481" x1="410.873" y1="93.0035" x2="418.394" y2="123.496" gradientUnits="userSpaceOnUse"> <stop stop-color="#D1E9FF" stop-opacity="0.85"></stop> <stop offset="1" stop-color="#FFDBDB" stop-opacity="0.96"></stop> </linearGradient> <linearGradient id="paint14_linear_3017_481" x1="411.184" y1="94.1023" x2="419.58" y2="128.22" gradientUnits="userSpaceOnUse"> <stop stop-color="#D1E9FF" stop-opacity="0.85"></stop> <stop offset="1" stop-color="#FFDBDB" stop-opacity="0.96"></stop> </linearGradient> <linearGradient id="paint15_linear_3017_481" x1="411.628" y1="95.4811" x2="420.806" y2="132.852" gradientUnits="userSpaceOnUse"> <stop stop-color="#D1E9FF" stop-opacity="0.85"></stop> <stop offset="1" stop-color="#FFDBDB" stop-opacity="0.96"></stop> </linearGradient> <linearGradient id="paint16_linear_3017_481" x1="412.221" y1="97.2296" x2="422.053" y2="137.322" gradientUnits="userSpaceOnUse"> <stop stop-color="#D1E9FF" stop-opacity="0.85"></stop> <stop offset="1" stop-color="#FFDBDB" stop-opacity="0.96"></stop> </linearGradient> <linearGradient id="paint17_linear_3017_481" x1="413.037" y1="99.4689" x2="423.353" y2="141.578" gradientUnits="userSpaceOnUse"> <stop stop-color="#D1E9FF" stop-opacity="0.85"></stop> <stop offset="1" stop-color="#FFDBDB" stop-opacity="0.96"></stop> </linearGradient> <linearGradient id="paint18_linear_3017_481" x1="414.107" y1="102.298" x2="424.701" y2="145.567" gradientUnits="userSpaceOnUse"> <stop stop-color="#D1E9FF" stop-opacity="0.85"></stop> <stop offset="1" stop-color="#FFDBDB" stop-opacity="0.96"></stop> </linearGradient> <linearGradient id="paint19_linear_3017_481" x1="415.437" y1="105.792" x2="426.016" y2="148.996" gradientUnits="userSpaceOnUse"> <stop stop-color="#D1E9FF" stop-opacity="0.85"></stop> <stop offset="1" stop-color="#FFDBDB" stop-opacity="0.96"></stop> </linearGradient> <linearGradient id="paint20_linear_3017_481" x1="416.615" y1="109.753" x2="427.123" y2="152.658" gradientUnits="userSpaceOnUse"> <stop stop-color="#D1E9FF" stop-opacity="0.85"></stop> <stop offset="1" stop-color="#FFDBDB" stop-opacity="0.96"></stop> </linearGradient> <linearGradient id="paint21_linear_3017_481" x1="417.627" y1="114.095" x2="428.01" y2="156.476" gradientUnits="userSpaceOnUse"> <stop stop-color="#D1E9FF" stop-opacity="0.85"></stop> <stop offset="1" stop-color="#FFDBDB" stop-opacity="0.96"></stop> </linearGradient> <linearGradient id="paint22_linear_3017_481" x1="418.534" y1="118.783" x2="428.736" y2="160.407" gradientUnits="userSpaceOnUse"> <stop stop-color="#D1E9FF" stop-opacity="0.85"></stop> <stop offset="1" stop-color="#FFDBDB" stop-opacity="0.96"></stop> </linearGradient> <linearGradient id="paint23_linear_3017_481" x1="419.376" y1="123.797" x2="429.34" y2="164.423" gradientUnits="userSpaceOnUse"> <stop stop-color="#D1E9FF" stop-opacity="0.85"></stop> <stop offset="1" stop-color="#FFDBDB" stop-opacity="0.96"></stop> </linearGradient> <linearGradient id="paint24_linear_3017_481" x1="420.198" y1="129.091" x2="429.824" y2="168.306" gradientUnits="userSpaceOnUse"> <stop stop-color="#D1E9FF" stop-opacity="0.85"></stop> <stop offset="1" stop-color="#FFDBDB" stop-opacity="0.96"></stop> </linearGradient> <linearGradient id="paint25_linear_3017_481" x1="421.204" y1="135.086" x2="430.434" y2="172.644" gradientUnits="userSpaceOnUse"> <stop stop-color="#D1E9FF" stop-opacity="0.85"></stop> <stop offset="1" stop-color="#FFDBDB" stop-opacity="0.96"></stop> </linearGradient> <linearGradient id="paint26_linear_3017_481" x1="422.06" y1="140.74" x2="430.93" y2="176.799" gradientUnits="userSpaceOnUse"> <stop stop-color="#D1E9FF" stop-opacity="0.85"></stop> <stop offset="1" stop-color="#FFDBDB" stop-opacity="0.96"></stop> </linearGradient> <linearGradient id="paint27_linear_3017_481" x1="423.043" y1="146.558" x2="431.507" y2="180.929" gradientUnits="userSpaceOnUse"> <stop stop-color="#D1E9FF" stop-opacity="0.85"></stop> <stop offset="1" stop-color="#FFDBDB" stop-opacity="0.96"></stop> </linearGradient> <linearGradient id="paint28_linear_3017_481" x1="424.168" y1="152.489" x2="432.184" y2="184.997" gradientUnits="userSpaceOnUse"> <stop stop-color="#D1E9FF" stop-opacity="0.85"></stop> <stop offset="1" stop-color="#FFDBDB" stop-opacity="0.96"></stop> </linearGradient> <linearGradient id="paint29_linear_3017_481" x1="425.465" y1="158.481" x2="432.992" y2="188.963" gradientUnits="userSpaceOnUse"> <stop stop-color="#D1E9FF" stop-opacity="0.85"></stop> <stop offset="1" stop-color="#FFDBDB" stop-opacity="0.96"></stop> </linearGradient> <linearGradient id="paint30_linear_3017_481" x1="425.89" y1="161.62" x2="433.625" y2="192.959" gradientUnits="userSpaceOnUse"> <stop stop-color="#D1E9FF" stop-opacity="0.85"></stop> <stop offset="1" stop-color="#FFDBDB" stop-opacity="0.96"></stop> </linearGradient> <linearGradient id="paint31_linear_3017_481" x1="426.344" y1="164.037" x2="434.424" y2="196.801" gradientUnits="userSpaceOnUse"> <stop stop-color="#D1E9FF" stop-opacity="0.85"></stop> <stop offset="1" stop-color="#FFDBDB" stop-opacity="0.96"></stop> </linearGradient> <linearGradient id="paint32_linear_3017_481" x1="427.376" y1="167.147" x2="435.572" y2="200.391" gradientUnits="userSpaceOnUse"> <stop stop-color="#D1E9FF" stop-opacity="0.85"></stop> <stop offset="1" stop-color="#FFDBDB" stop-opacity="0.96"></stop> </linearGradient> <linearGradient id="paint33_linear_3017_481" x1="429.164" y1="171.175" x2="437.076" y2="203.242" gradientUnits="userSpaceOnUse"> <stop stop-color="#D1E9FF" stop-opacity="0.85"></stop> <stop offset="1" stop-color="#FFDBDB" stop-opacity="0.96"></stop> </linearGradient> <linearGradient id="paint34_linear_3017_481" x1="431.63" y1="176.037" x2="438.822" y2="205.13" gradientUnits="userSpaceOnUse"> <stop stop-color="#D1E9FF" stop-opacity="0.85"></stop> <stop offset="1" stop-color="#FFDBDB" stop-opacity="0.96"></stop> </linearGradient> <linearGradient id="paint35_linear_3017_481" x1="434.601" y1="181.417" x2="440.773" y2="206.304" gradientUnits="userSpaceOnUse"> <stop stop-color="#D1E9FF" stop-opacity="0.85"></stop> <stop offset="1" stop-color="#FFDBDB" stop-opacity="0.96"></stop> </linearGradient> <linearGradient id="paint36_linear_3017_481" x1="437.869" y1="186.964" x2="442.836" y2="206.908" gradientUnits="userSpaceOnUse"> <stop stop-color="#D1E9FF" stop-opacity="0.85"></stop> <stop offset="1" stop-color="#FFDBDB" stop-opacity="0.96"></stop> </linearGradient> </defs> </svg> 