<?xml version="1.0" encoding="UTF-8"?> <svg xmlns="http://www.w3.org/2000/svg" width="122" height="76" viewBox="0 0 122 76" fill="none"> <path d="M78.7217 20.103C80.2952 11.3481 75.0445 3.51994 66.8243 0.919844C52.2277 -3.69895 41.8827 9.88715 42.001 23.5784C42.0982 34.6417 44.432 41.9957 44.4341 42C44.3285 41.6696 47.1904 40.14 47.522 39.9663C48.6473 39.3883 49.8145 38.8986 51.0133 38.501C53.4759 37.6708 56.0231 37.1452 58.547 36.5596C66.4484 34.7275 74.9368 31.2671 77.9592 22.9391C78.2927 22.0175 78.5476 21.0688 78.7217 20.103Z" fill="#FF5C28"></path> <path fill-rule="evenodd" clip-rule="evenodd" d="M122.001 66.9313H116.449V43.105L122.001 41.5596V66.9313ZM22.2366 48.8678V43.9854L16.7819 45.4989V60.3882C16.7819 62.9398 17.2917 64.6763 18.3302 65.7547C19.2386 66.6696 20.7366 67.3064 22.5261 67.3064C24.0597 67.3064 25.4129 67.0857 26.1053 66.8267L26.0696 62.5811C25.5294 62.6985 24.977 62.7484 24.4248 62.7297C22.7821 62.7297 22.2366 61.7256 22.2366 59.5455V53.0072H26.2228V48.8678H22.2366ZM5.76732 63.3833C4.12881 63.3833 2.00356 62.6892 0.981848 62.0523L0 66.0368C1.34899 66.7777 3.43228 67.3296 5.76942 67.3296C10.8822 67.3296 13.4753 64.8523 13.4753 61.4558C13.4354 58.8321 12.0465 57.0574 8.64993 55.875C6.45965 55.1002 5.76732 54.6565 5.76732 53.7692C5.76732 52.8819 6.53308 52.3278 7.88417 52.3278C9.2361 52.3713 10.5606 52.7255 11.757 53.3637L12.7053 49.4833C11.6102 48.9398 9.78284 48.4219 7.70165 48.4219C3.28332 48.4219 0.434281 50.9692 0.434281 54.3657C0.398616 56.5097 1.82104 58.5434 5.54703 59.7894C7.59465 60.4921 8.14012 60.9357 8.14012 61.8974C8.14012 62.8293 7.4457 63.3833 5.76732 63.3833ZM46.8742 57.6925C46.8742 64.3071 42.2356 67.3363 37.4522 67.3363C32.2304 67.3363 28.2212 63.8634 28.2212 58.0258C28.2212 52.1498 32.0185 48.418 37.79 48.418C43.2154 48.418 46.8742 52.2199 46.8742 57.6925ZM33.9465 57.8772C33.9465 60.9807 35.2263 63.3094 37.5991 63.3094C39.7894 63.3094 41.1426 61.1293 41.1426 57.8389C41.1426 55.1812 40.1187 52.4449 37.5991 52.4449C34.9703 52.4449 33.9465 55.2173 33.9465 57.8772ZM50.1606 48.8661C50.2717 50.4136 50.3074 52.1501 50.3074 54.8099V66.9311H55.8545V57.7712C55.8511 57.3498 55.8876 56.9289 55.9636 56.5145C56.3286 54.7781 57.7154 53.67 59.7609 53.67C60.2629 53.6733 60.7637 53.723 61.2567 53.8186V48.5328C60.873 48.4539 60.482 48.4169 60.0903 48.4224C58.3364 48.4224 56.1796 49.5305 55.2649 52.1925H55.1202L54.9104 48.8661H50.1606ZM69.0073 48.8613L71.6739 57.7665C71.9655 58.8003 72.3284 60.1674 72.5487 61.129H72.6956L72.8044 60.6348C73.0062 59.7169 73.246 58.6268 73.4634 57.7325L75.6894 48.8635H81.6098L77.4454 60.7618C74.8963 67.9644 73.1697 70.809 71.1619 72.6197C69.6785 73.9791 67.8172 74.8435 65.831 75.0949L64.6163 70.3653C65.4647 70.1711 66.28 69.8505 67.0352 69.4143C67.9816 68.8736 68.7759 68.0977 69.343 67.1599C69.5083 66.9198 69.6088 66.6402 69.6346 66.349C69.6287 66.0291 69.5572 65.714 69.4248 65.4234L62.8498 48.8656L69.0073 48.8613ZM90.1538 48.8678V43.9854L84.7138 45.4989V60.3946C84.7138 62.9462 85.2257 64.6826 86.2474 65.7547C87.1558 66.6696 88.6538 67.3064 90.4433 67.3064C91.977 67.3064 93.3281 67.0857 94.0225 66.8267L93.9847 62.5811C93.4453 62.6987 92.8936 62.7486 92.342 62.7297C90.6993 62.7297 90.1538 61.7256 90.1538 59.5455V53.0072H94.14V48.8678H90.1538ZM101.438 59.6879C101.581 62.023 103.885 63.1248 106.474 63.1248C108.148 63.1517 109.814 62.8889 111.4 62.3478L112.13 66.154C110.304 66.9309 108.076 67.3003 105.668 67.3003C99.6048 67.3003 96.1348 63.7531 96.1348 58.1001C96.1348 53.517 98.946 48.4541 105.156 48.4541C110.925 48.4541 113.128 53.0011 113.128 57.4696C113.129 58.2129 113.068 58.9549 112.946 59.6879H101.438ZM107.974 55.8457C107.974 54.4786 107.39 52.1881 104.827 52.1881C102.487 52.1881 101.539 54.3661 101.394 55.8457H107.974Z" fill="white"></path> </svg> 