<?xml version="1.0" encoding="UTF-8"?> <svg xmlns="http://www.w3.org/2000/svg" width="1353" height="1087" viewBox="0 0 1353 1087" fill="none"> <g opacity="0.5" filter="url(#filter0_f_2821_64)"> <path d="M311.229 784.897C241.054 784.897 245.243 772.111 212.25 704.088C197.587 694.541 171.193 657.546 182.923 585.944C197.587 496.44 335.495 396.408 424.911 418.772C526.5 444.181 437.263 418.23 553 263.772C668.737 109.315 721.283 210.54 746.945 237.647C772.606 264.754 821.659 349.026 952.059 347.491C1082.46 345.957 1169.27 390.479 1172.94 444.181C1176.61 497.883 1012.98 404.379 938.094 431.486C863.205 458.593 966.723 473.361 952.059 544.963C937.396 616.566 852.539 585.895 823.212 605.842C793.885 625.789 748.516 664.707 682.53 621.745C616.544 578.783 525.185 546.097 499 576.272C472.815 606.447 400 819.272 367 897.772C346.849 945.708 381.404 784.897 311.229 784.897Z" fill="url(#paint0_radial_2821_64)"></path> <path d="M311.229 784.897C241.054 784.897 245.243 772.111 212.25 704.088C197.587 694.541 171.193 657.546 182.923 585.944C197.587 496.44 335.495 396.408 424.911 418.772C526.5 444.181 437.263 418.23 553 263.772C668.737 109.315 721.283 210.54 746.945 237.647C772.606 264.754 821.659 349.026 952.059 347.491C1082.46 345.957 1169.27 390.479 1172.94 444.181C1176.61 497.883 1012.98 404.379 938.094 431.486C863.205 458.593 966.723 473.361 952.059 544.963C937.396 616.566 852.539 585.895 823.212 605.842C793.885 625.789 748.516 664.707 682.53 621.745C616.544 578.783 525.185 546.097 499 576.272C472.815 606.447 400 819.272 367 897.772C346.849 945.708 381.404 784.897 311.229 784.897Z" fill="url(#paint1_linear_2821_64)" fill-opacity="0.2"></path> </g> <defs> <filter id="filter0_f_2821_64" x="0" y="0" width="1353" height="1086.7" filterUnits="userSpaceOnUse" color-interpolation-filters="sRGB"> <feFlood flood-opacity="0" result="BackgroundImageFix"></feFlood> <feBlend mode="normal" in="SourceGraphic" in2="BackgroundImageFix" result="shape"></feBlend> <feGaussianBlur stdDeviation="90" result="effect1_foregroundBlur_2821_64"></feGaussianBlur> </filter> <radialGradient id="paint0_radial_2821_64" cx="0" cy="0" r="1" gradientUnits="userSpaceOnUse" gradientTransform="translate(595.5 447.272) rotate(108.123) scale(439.736 574.514)"> <stop stop-color="#EF5B5B"></stop> <stop offset="1" stop-color="#3338B9"></stop> </radialGradient> <linearGradient id="paint1_linear_2821_64" x1="585.5" y1="198.272" x2="572.085" y2="361.289" gradientUnits="userSpaceOnUse"> <stop stop-color="#1483EB"></stop> <stop offset="1" stop-color="#FFB545"></stop> </linearGradient> </defs> </svg> 