<?xml version="1.0" encoding="UTF-8"?> <svg xmlns="http://www.w3.org/2000/svg" width="771" height="650" viewBox="0 0 771 650" fill="none"> <g opacity="0.2"> <rect x="263.5" y="499.5" width="259" height="59" rx="3.5" fill="url(#paint0_linear_2957_338)" fill-opacity="0.8"></rect> <rect x="263.5" y="499.5" width="259" height="59" rx="3.5" stroke="url(#paint1_linear_2957_338)"></rect> </g> <g opacity="0.2"> <rect x="263.5" y="431.5" width="259" height="59" rx="3.5" fill="url(#paint2_linear_2957_338)" fill-opacity="0.8"></rect> <rect x="263.5" y="431.5" width="259" height="59" rx="3.5" stroke="url(#paint3_linear_2957_338)"></rect> </g> <g opacity="0.2"> <rect x="263.5" y="363.5" width="259" height="59" rx="3.5" fill="url(#paint4_linear_2957_338)" fill-opacity="0.8"></rect> <rect x="263.5" y="363.5" width="259" height="59" rx="3.5" stroke="url(#paint5_linear_2957_338)"></rect> </g> <g opacity="0.2"> <rect x="263.5" y="295.5" width="259" height="59" rx="3.5" fill="url(#paint6_linear_2957_338)" fill-opacity="0.8"></rect> <rect x="263.5" y="295.5" width="259" height="59" rx="3.5" stroke="url(#paint7_linear_2957_338)"></rect> </g> <g opacity="0.2"> <rect x="263.5" y="227.5" width="259" height="59" rx="3.5" fill="url(#paint8_linear_2957_338)" fill-opacity="0.8"></rect> <rect x="263.5" y="227.5" width="259" height="59" rx="3.5" stroke="url(#paint9_linear_2957_338)"></rect> </g> <rect x="278.5" y="220.274" width="259" height="59" rx="3.5" fill="url(#paint10_linear_2957_338)" fill-opacity="0.8"></rect> <path d="M350.942 246.824C350.804 246.393 350.62 246.007 350.388 245.666C350.161 245.321 349.888 245.027 349.571 244.786C349.254 244.54 348.892 244.353 348.484 244.225C348.082 244.097 347.639 244.033 347.156 244.033C346.337 244.033 345.598 244.244 344.94 244.665C344.282 245.086 343.761 245.704 343.378 246.519C342.999 247.328 342.81 248.32 342.81 249.495C342.81 250.674 343.001 251.67 343.385 252.485C343.768 253.299 344.294 253.917 344.962 254.338C345.629 254.76 346.389 254.97 347.241 254.97C348.032 254.97 348.721 254.809 349.308 254.487C349.9 254.166 350.357 253.711 350.679 253.124C351.006 252.532 351.169 251.836 351.169 251.036L351.737 251.142H347.575V249.331H353.293V250.986C353.293 252.208 353.032 253.268 352.511 254.168C351.995 255.063 351.28 255.754 350.366 256.242C349.457 256.729 348.416 256.973 347.241 256.973C345.925 256.973 344.77 256.67 343.776 256.064C342.786 255.458 342.014 254.599 341.46 253.486C340.906 252.369 340.629 251.043 340.629 249.509C340.629 248.349 340.79 247.307 341.112 246.384C341.434 245.46 341.886 244.677 342.469 244.033C343.056 243.384 343.745 242.889 344.536 242.549C345.331 242.203 346.2 242.03 347.142 242.03C347.928 242.03 348.66 242.146 349.337 242.378C350.018 242.61 350.625 242.939 351.155 243.365C351.69 243.791 352.133 244.298 352.483 244.885C352.833 245.468 353.07 246.114 353.193 246.824H350.942ZM359.083 257.016C358.391 257.016 357.766 256.888 357.208 256.632C356.649 256.372 356.206 255.996 355.88 255.503C355.558 255.011 355.397 254.407 355.397 253.692C355.397 253.076 355.515 252.57 355.752 252.172C355.989 251.774 356.308 251.46 356.711 251.228C357.113 250.996 357.563 250.82 358.06 250.702C358.557 250.584 359.064 250.494 359.58 250.432C360.233 250.356 360.764 250.295 361.171 250.247C361.578 250.195 361.874 250.112 362.059 249.999C362.243 249.885 362.336 249.701 362.336 249.445V249.395C362.336 248.775 362.16 248.294 361.81 247.953C361.464 247.612 360.948 247.442 360.262 247.442C359.547 247.442 358.983 247.601 358.571 247.918C358.164 248.23 357.882 248.578 357.726 248.962L355.73 248.507C355.967 247.844 356.313 247.309 356.767 246.902C357.227 246.49 357.755 246.192 358.351 246.007C358.948 245.818 359.575 245.723 360.233 245.723C360.669 245.723 361.131 245.775 361.618 245.88C362.111 245.979 362.57 246.164 362.996 246.434C363.427 246.703 363.78 247.089 364.054 247.591C364.329 248.088 364.466 248.735 364.466 249.53V256.774H362.392V255.283H362.307C362.17 255.558 361.964 255.827 361.689 256.093C361.415 256.358 361.062 256.578 360.631 256.753C360.2 256.928 359.684 257.016 359.083 257.016ZM359.544 255.311C360.132 255.311 360.633 255.195 361.05 254.963C361.471 254.731 361.791 254.428 362.009 254.054C362.231 253.675 362.343 253.271 362.343 252.84V251.434C362.267 251.509 362.12 251.58 361.902 251.647C361.689 251.708 361.445 251.763 361.171 251.81C360.896 251.853 360.629 251.893 360.368 251.931C360.108 251.964 359.89 251.992 359.715 252.016C359.303 252.068 358.926 252.156 358.586 252.279C358.249 252.402 357.98 252.579 357.776 252.811C357.577 253.039 357.478 253.342 357.478 253.72C357.478 254.246 357.672 254.644 358.06 254.914C358.448 255.179 358.943 255.311 359.544 255.311ZM367.295 256.774V245.865H369.333V247.641H369.468C369.695 247.04 370.067 246.571 370.583 246.235C371.099 245.894 371.717 245.723 372.437 245.723C373.166 245.723 373.777 245.894 374.269 246.235C374.766 246.576 375.133 247.044 375.37 247.641H375.484C375.744 247.059 376.158 246.594 376.727 246.249C377.295 245.898 377.972 245.723 378.758 245.723C379.747 245.723 380.555 246.033 381.18 246.654C381.809 247.274 382.124 248.209 382.124 249.459V256.774H380.001V249.658C380.001 248.919 379.799 248.384 379.397 248.053C378.995 247.721 378.514 247.556 377.955 247.556C377.264 247.556 376.727 247.769 376.343 248.195C375.96 248.616 375.768 249.158 375.768 249.821V256.774H373.651V249.523C373.651 248.931 373.467 248.455 373.097 248.095C372.728 247.736 372.247 247.556 371.656 247.556C371.253 247.556 370.881 247.662 370.54 247.875C370.204 248.084 369.932 248.375 369.724 248.749C369.52 249.123 369.418 249.556 369.418 250.049V256.774H367.295ZM389.672 256.995C388.597 256.995 387.672 256.765 386.895 256.306C386.123 255.842 385.527 255.191 385.105 254.353C384.689 253.51 384.48 252.523 384.48 251.391C384.48 250.273 384.689 249.289 385.105 248.436C385.527 247.584 386.114 246.919 386.867 246.441C387.624 245.962 388.51 245.723 389.523 245.723C390.139 245.723 390.735 245.825 391.313 246.029C391.891 246.232 392.409 246.552 392.868 246.987C393.328 247.423 393.69 247.989 393.955 248.685C394.22 249.376 394.353 250.217 394.353 251.206V251.959H385.681V250.368H392.272C392.272 249.809 392.158 249.315 391.931 248.884C391.703 248.448 391.384 248.105 390.972 247.854C390.565 247.603 390.087 247.478 389.537 247.478C388.941 247.478 388.42 247.624 387.975 247.918C387.534 248.207 387.194 248.585 386.952 249.054C386.715 249.518 386.597 250.023 386.597 250.567V251.81C386.597 252.539 386.725 253.159 386.98 253.671C387.241 254.182 387.603 254.573 388.067 254.843C388.531 255.108 389.073 255.24 389.694 255.24C390.096 255.24 390.463 255.184 390.794 255.07C391.126 254.951 391.412 254.776 391.654 254.544C391.895 254.312 392.08 254.026 392.208 253.685L394.218 254.047C394.057 254.639 393.768 255.157 393.351 255.603C392.939 256.043 392.421 256.386 391.796 256.632C391.176 256.874 390.468 256.995 389.672 256.995ZM406.703 256.995C405.629 256.995 404.703 256.765 403.926 256.306C403.155 255.842 402.558 255.191 402.137 254.353C401.72 253.51 401.512 252.523 401.512 251.391C401.512 250.273 401.72 249.289 402.137 248.436C402.558 247.584 403.145 246.919 403.898 246.441C404.656 245.962 405.541 245.723 406.554 245.723C407.17 245.723 407.766 245.825 408.344 246.029C408.922 246.232 409.44 246.552 409.9 246.987C410.359 247.423 410.721 247.989 410.986 248.685C411.251 249.376 411.384 250.217 411.384 251.206V251.959H402.712V250.368H409.303C409.303 249.809 409.189 249.315 408.962 248.884C408.735 248.448 408.415 248.105 408.003 247.854C407.596 247.603 407.118 247.478 406.569 247.478C405.972 247.478 405.451 247.624 405.006 247.918C404.566 248.207 404.225 248.585 403.983 249.054C403.747 249.518 403.628 250.023 403.628 250.567V251.81C403.628 252.539 403.756 253.159 404.012 253.671C404.272 254.182 404.634 254.573 405.098 254.843C405.562 255.108 406.105 255.24 406.725 255.24C407.127 255.24 407.494 255.184 407.826 255.07C408.157 254.951 408.444 254.776 408.685 254.544C408.926 254.312 409.111 254.026 409.239 253.685L411.249 254.047C411.088 254.639 410.799 255.157 410.382 255.603C409.971 256.043 409.452 256.386 408.827 256.632C408.207 256.874 407.499 256.995 406.703 256.995ZM415.864 250.297V256.774H413.74V245.865H415.778V247.641H415.913C416.164 247.063 416.557 246.599 417.092 246.249C417.632 245.898 418.312 245.723 419.131 245.723C419.874 245.723 420.525 245.88 421.084 246.192C421.643 246.5 422.076 246.959 422.384 247.57C422.691 248.181 422.845 248.936 422.845 249.835V256.774H420.722V250.091C420.722 249.3 420.516 248.683 420.104 248.237C419.692 247.788 419.126 247.563 418.406 247.563C417.914 247.563 417.476 247.669 417.092 247.882C416.714 248.095 416.413 248.408 416.19 248.82C415.973 249.227 415.864 249.719 415.864 250.297ZM430.267 261.093C429.401 261.093 428.655 260.979 428.03 260.752C427.41 260.524 426.903 260.224 426.51 259.85C426.117 259.476 425.823 259.066 425.629 258.621L427.455 257.868C427.582 258.076 427.753 258.297 427.966 258.529C428.184 258.765 428.477 258.967 428.847 259.132C429.221 259.298 429.701 259.381 430.288 259.381C431.093 259.381 431.759 259.184 432.284 258.791C432.81 258.403 433.072 257.783 433.072 256.931V254.786H432.938C432.81 255.018 432.625 255.276 432.384 255.56C432.147 255.844 431.82 256.09 431.403 256.299C430.987 256.507 430.445 256.611 429.777 256.611C428.915 256.611 428.139 256.41 427.447 256.007C426.761 255.6 426.216 255.001 425.814 254.21C425.416 253.415 425.217 252.437 425.217 251.277C425.217 250.117 425.414 249.123 425.807 248.294C426.205 247.466 426.749 246.831 427.44 246.391C428.132 245.946 428.915 245.723 429.791 245.723C430.468 245.723 431.015 245.837 431.432 246.064C431.848 246.287 432.173 246.547 432.405 246.845C432.642 247.144 432.824 247.407 432.952 247.634H433.108V245.865H435.189V257.016C435.189 257.953 434.971 258.723 434.536 259.324C434.1 259.925 433.51 260.371 432.767 260.659C432.028 260.948 431.195 261.093 430.267 261.093ZM430.246 254.85C430.857 254.85 431.373 254.708 431.794 254.424C432.22 254.135 432.542 253.723 432.76 253.188C432.982 252.648 433.094 252.002 433.094 251.249C433.094 250.515 432.985 249.869 432.767 249.31C432.549 248.751 432.23 248.316 431.808 248.003C431.387 247.686 430.866 247.527 430.246 247.527C429.607 247.527 429.074 247.693 428.648 248.024C428.222 248.351 427.9 248.796 427.682 249.36C427.469 249.923 427.362 250.553 427.362 251.249C427.362 251.964 427.471 252.591 427.689 253.131C427.907 253.671 428.229 254.092 428.655 254.395C429.086 254.698 429.616 254.85 430.246 254.85ZM438.037 256.774V245.865H440.161V256.774H438.037ZM439.109 244.182C438.74 244.182 438.423 244.059 438.158 243.813C437.897 243.562 437.767 243.264 437.767 242.918C437.767 242.568 437.897 242.269 438.158 242.023C438.423 241.772 438.74 241.647 439.109 241.647C439.479 241.647 439.794 241.772 440.054 242.023C440.319 242.269 440.452 242.568 440.452 242.918C440.452 243.264 440.319 243.562 440.054 243.813C439.794 244.059 439.479 244.182 439.109 244.182ZM445.141 250.297V256.774H443.017V245.865H445.056V247.641H445.191C445.442 247.063 445.835 246.599 446.37 246.249C446.909 245.898 447.589 245.723 448.408 245.723C449.151 245.723 449.802 245.88 450.361 246.192C450.92 246.5 451.353 246.959 451.661 247.57C451.969 248.181 452.123 248.936 452.123 249.835V256.774H449.999V250.091C449.999 249.3 449.793 248.683 449.381 248.237C448.969 247.788 448.403 247.563 447.684 247.563C447.191 247.563 446.753 247.669 446.37 247.882C445.991 248.095 445.69 248.408 445.468 248.82C445.25 249.227 445.141 249.719 445.141 250.297ZM459.672 256.995C458.597 256.995 457.672 256.765 456.895 256.306C456.123 255.842 455.527 255.191 455.105 254.353C454.689 253.51 454.48 252.523 454.48 251.391C454.48 250.273 454.689 249.289 455.105 248.436C455.527 247.584 456.114 246.919 456.867 246.441C457.624 245.962 458.51 245.723 459.523 245.723C460.139 245.723 460.735 245.825 461.313 246.029C461.891 246.232 462.409 246.552 462.868 246.987C463.328 247.423 463.69 247.989 463.955 248.685C464.22 249.376 464.353 250.217 464.353 251.206V251.959H455.681V250.368H462.272C462.272 249.809 462.158 249.315 461.931 248.884C461.703 248.448 461.384 248.105 460.972 247.854C460.565 247.603 460.087 247.478 459.537 247.478C458.941 247.478 458.42 247.624 457.975 247.918C457.534 248.207 457.194 248.585 456.952 249.054C456.715 249.518 456.597 250.023 456.597 250.567V251.81C456.597 252.539 456.725 253.159 456.98 253.671C457.241 254.182 457.603 254.573 458.067 254.843C458.531 255.108 459.073 255.24 459.694 255.24C460.096 255.24 460.463 255.184 460.794 255.07C461.126 254.951 461.412 254.776 461.654 254.544C461.895 254.312 462.08 254.026 462.208 253.685L464.218 254.047C464.057 254.639 463.768 255.157 463.351 255.603C462.939 256.043 462.421 256.386 461.796 256.632C461.176 256.874 460.468 256.995 459.672 256.995ZM474.884 248.529L472.959 248.87C472.878 248.623 472.75 248.389 472.575 248.166C472.405 247.944 472.173 247.762 471.879 247.62C471.586 247.478 471.219 247.407 470.778 247.407C470.177 247.407 469.675 247.541 469.273 247.811C468.87 248.076 468.669 248.42 468.669 248.841C468.669 249.206 468.804 249.499 469.074 249.722C469.344 249.944 469.779 250.127 470.381 250.269L472.114 250.666C473.117 250.898 473.866 251.256 474.358 251.739C474.85 252.222 475.097 252.849 475.097 253.621C475.097 254.274 474.907 254.857 474.528 255.368C474.154 255.875 473.631 256.273 472.959 256.561C472.291 256.85 471.517 256.995 470.636 256.995C469.415 256.995 468.418 256.734 467.646 256.213C466.875 255.688 466.401 254.942 466.226 253.976L468.278 253.664C468.406 254.199 468.669 254.603 469.067 254.878C469.464 255.148 469.983 255.283 470.622 255.283C471.318 255.283 471.875 255.139 472.291 254.85C472.708 254.556 472.916 254.199 472.916 253.777C472.916 253.436 472.788 253.15 472.533 252.918C472.282 252.686 471.896 252.511 471.375 252.392L469.528 251.987C468.51 251.755 467.758 251.386 467.27 250.88C466.787 250.373 466.545 249.731 466.545 248.955C466.545 248.311 466.725 247.747 467.085 247.264C467.445 246.782 467.942 246.405 468.577 246.135C469.211 245.861 469.938 245.723 470.757 245.723C471.936 245.723 472.864 245.979 473.541 246.49C474.218 246.997 474.666 247.676 474.884 248.529Z" fill="#BAB2C0"></path> <rect x="278.5" y="220.274" width="259" height="59" rx="3.5" stroke="url(#paint11_linear_2957_338)"></rect> <rect x="278.5" y="288.274" width="259" height="59" rx="3.5" fill="url(#paint12_linear_2957_338)" fill-opacity="0.8"></rect> <path d="M398.679 314.959H396.463C396.378 314.486 396.219 314.069 395.987 313.709C395.755 313.349 395.471 313.044 395.135 312.793C394.799 312.542 394.422 312.353 394.006 312.225C393.594 312.097 393.156 312.033 392.692 312.033C391.854 312.033 391.103 312.244 390.44 312.665C389.782 313.086 389.261 313.704 388.878 314.519C388.499 315.333 388.31 316.327 388.31 317.502C388.31 318.685 388.499 319.684 388.878 320.499C389.261 321.313 389.785 321.929 390.447 322.345C391.11 322.762 391.856 322.97 392.685 322.97C393.144 322.97 393.58 322.909 393.991 322.786C394.408 322.658 394.785 322.471 395.121 322.225C395.457 321.978 395.741 321.678 395.973 321.323C396.21 320.963 396.373 320.551 396.463 320.087L398.679 320.094C398.561 320.809 398.331 321.467 397.99 322.068C397.654 322.665 397.221 323.181 396.69 323.617C396.165 324.048 395.563 324.381 394.886 324.618C394.209 324.855 393.471 324.973 392.67 324.973C391.411 324.973 390.289 324.675 389.304 324.078C388.319 323.477 387.543 322.618 386.974 321.5C386.411 320.383 386.129 319.05 386.129 317.502C386.129 315.949 386.413 314.616 386.982 313.503C387.55 312.386 388.326 311.529 389.311 310.932C390.296 310.331 391.416 310.03 392.67 310.03C393.442 310.03 394.162 310.141 394.83 310.364C395.502 310.582 396.106 310.904 396.641 311.33C397.176 311.751 397.618 312.267 397.969 312.878C398.319 313.484 398.556 314.178 398.679 314.959ZM401.305 324.774V310.229H406.49C407.617 310.229 408.552 310.423 409.295 310.811C410.043 311.2 410.602 311.737 410.971 312.424C411.341 313.105 411.525 313.894 411.525 314.789C411.525 315.679 411.338 316.462 410.964 317.139C410.595 317.812 410.036 318.335 409.288 318.709C408.545 319.083 407.609 319.27 406.483 319.27H402.555V317.381H406.284C406.994 317.381 407.572 317.279 408.017 317.076C408.467 316.872 408.796 316.576 409.004 316.188C409.212 315.8 409.316 315.333 409.316 314.789C409.316 314.239 409.21 313.764 408.997 313.361C408.788 312.959 408.459 312.651 408.01 312.438C407.565 312.22 406.98 312.111 406.255 312.111H403.5V324.774H401.305ZM408.485 318.212L412.079 324.774H409.579L406.056 318.212H408.485ZM414.196 310.229H416.859L421.49 321.536H421.66L426.291 310.229H428.954V324.774H426.866V314.249H426.731L422.441 324.753H420.708L416.419 314.242H416.284V324.774H414.196V310.229Z" fill="#BAB2C0"></path> <rect x="278.5" y="288.274" width="259" height="59" rx="3.5" stroke="url(#paint13_linear_2957_338)"></rect> <rect x="278.5" y="356.274" width="259" height="59" rx="3.5" fill="url(#paint14_linear_2957_338)" fill-opacity="0.8"></rect> <path d="M387.598 392.774V378.229H392.925C393.957 378.229 394.812 378.399 395.489 378.74C396.166 379.076 396.672 379.533 397.009 380.111C397.345 380.684 397.513 381.33 397.513 382.05C397.513 382.656 397.402 383.167 397.179 383.584C396.956 383.996 396.658 384.327 396.284 384.578C395.915 384.825 395.508 385.005 395.062 385.118V385.26C395.545 385.284 396.017 385.44 396.476 385.729C396.94 386.013 397.323 386.418 397.626 386.943C397.929 387.469 398.081 388.108 398.081 388.861C398.081 389.604 397.906 390.272 397.555 390.864C397.21 391.451 396.675 391.917 395.95 392.263C395.226 392.604 394.3 392.774 393.173 392.774H387.598ZM389.793 390.892H392.96C394.011 390.892 394.764 390.689 395.219 390.282C395.673 389.874 395.901 389.365 395.901 388.755C395.901 388.295 395.785 387.874 395.553 387.49C395.321 387.107 394.989 386.801 394.558 386.574C394.132 386.347 393.625 386.233 393.038 386.233H389.793V390.892ZM389.793 384.522H392.733C393.225 384.522 393.668 384.427 394.061 384.237C394.459 384.048 394.774 383.783 395.006 383.442C395.242 383.096 395.361 382.689 395.361 382.22C395.361 381.619 395.15 381.115 394.729 380.708C394.307 380.3 393.661 380.097 392.79 380.097H389.793V384.522ZM400.684 392.774V378.229H405.869C407 378.229 407.938 378.435 408.681 378.847C409.424 379.259 409.981 379.822 410.35 380.537C410.719 381.247 410.904 382.048 410.904 382.938C410.904 383.833 410.717 384.638 410.343 385.353C409.974 386.063 409.415 386.626 408.667 387.043C407.924 387.455 406.988 387.661 405.862 387.661H402.296V385.8H405.663C406.378 385.8 406.958 385.677 407.403 385.431C407.848 385.18 408.174 384.839 408.383 384.408C408.591 383.977 408.695 383.487 408.695 382.938C408.695 382.389 408.591 381.901 408.383 381.475C408.174 381.049 407.845 380.715 407.396 380.473C406.951 380.232 406.363 380.111 405.634 380.111H402.879V392.774H400.684ZM413.477 378.229H416.14L420.771 389.536H420.941L425.572 378.229H428.235V392.774H426.147V382.249H426.012L421.723 392.753H419.99L415.7 382.242H415.565V392.774H413.477V378.229Z" fill="#BAB2C0"></path> <rect x="278.5" y="356.274" width="259" height="59" rx="3.5" stroke="url(#paint15_linear_2957_338)"></rect> <rect x="278.5" y="424.274" width="259" height="59" rx="3.5" fill="url(#paint16_linear_2957_338)" fill-opacity="0.8"></rect> <path d="M398.679 450.959H396.463C396.378 450.486 396.219 450.069 395.987 449.709C395.755 449.349 395.471 449.044 395.135 448.793C394.799 448.542 394.422 448.353 394.006 448.225C393.594 448.097 393.156 448.033 392.692 448.033C391.854 448.033 391.103 448.244 390.44 448.665C389.782 449.086 389.261 449.704 388.878 450.519C388.499 451.333 388.31 452.327 388.31 453.502C388.31 454.685 388.499 455.684 388.878 456.499C389.261 457.313 389.785 457.929 390.447 458.345C391.11 458.762 391.856 458.97 392.685 458.97C393.144 458.97 393.58 458.909 393.991 458.786C394.408 458.658 394.785 458.471 395.121 458.225C395.457 457.978 395.741 457.678 395.973 457.323C396.21 456.963 396.373 456.551 396.463 456.087L398.679 456.094C398.561 456.809 398.331 457.467 397.99 458.068C397.654 458.665 397.221 459.181 396.69 459.617C396.165 460.048 395.563 460.381 394.886 460.618C394.209 460.855 393.471 460.973 392.67 460.973C391.411 460.973 390.289 460.675 389.304 460.078C388.319 459.477 387.543 458.618 386.974 457.5C386.411 456.383 386.129 455.05 386.129 453.502C386.129 451.949 386.413 450.616 386.982 449.503C387.55 448.386 388.326 447.529 389.311 446.932C390.296 446.331 391.416 446.03 392.67 446.03C393.442 446.03 394.162 446.141 394.83 446.364C395.502 446.582 396.106 446.904 396.641 447.33C397.176 447.751 397.618 448.267 397.969 448.878C398.319 449.484 398.556 450.178 398.679 450.959ZM401.305 446.229H403.968L408.599 457.536H408.77L413.4 446.229H416.064V460.774H413.975V450.249H413.841L409.551 460.753H407.818L403.528 450.242H403.393V460.774H401.305V446.229ZM427.188 450.05C427.112 449.378 426.799 448.857 426.25 448.487C425.701 448.113 425.009 447.926 424.176 447.926C423.58 447.926 423.063 448.021 422.628 448.21C422.192 448.395 421.854 448.651 421.612 448.978C421.375 449.3 421.257 449.666 421.257 450.078C421.257 450.424 421.338 450.722 421.499 450.973C421.664 451.224 421.88 451.435 422.145 451.605C422.415 451.771 422.704 451.911 423.011 452.024C423.319 452.133 423.615 452.223 423.899 452.294L425.32 452.664C425.784 452.777 426.259 452.931 426.747 453.125C427.235 453.319 427.687 453.575 428.104 453.892C428.52 454.21 428.857 454.603 429.112 455.071C429.373 455.54 429.503 456.101 429.503 456.755C429.503 457.578 429.29 458.31 428.864 458.949C428.442 459.588 427.829 460.093 427.024 460.462C426.224 460.831 425.256 461.016 424.119 461.016C423.03 461.016 422.088 460.843 421.293 460.497C420.497 460.152 419.875 459.662 419.425 459.027C418.975 458.388 418.726 457.63 418.679 456.755H420.881C420.923 457.28 421.094 457.718 421.392 458.068C421.695 458.414 422.081 458.672 422.55 458.843C423.023 459.008 423.542 459.091 424.105 459.091C424.725 459.091 425.277 458.994 425.76 458.8C426.248 458.601 426.631 458.326 426.911 457.976C427.19 457.621 427.33 457.207 427.33 456.733C427.33 456.302 427.206 455.95 426.96 455.675C426.719 455.4 426.39 455.173 425.973 454.993C425.561 454.813 425.095 454.655 424.574 454.517L422.855 454.049C421.69 453.731 420.767 453.265 420.085 452.649C419.408 452.034 419.07 451.219 419.07 450.206C419.07 449.368 419.297 448.637 419.751 448.012C420.206 447.387 420.821 446.901 421.598 446.556C422.375 446.205 423.25 446.03 424.226 446.03C425.211 446.03 426.08 446.203 426.832 446.549C427.59 446.894 428.187 447.37 428.622 447.976C429.058 448.577 429.285 449.269 429.304 450.05H427.188Z" fill="#BAB2C0"></path> <rect x="278.5" y="424.274" width="259" height="59" rx="3.5" stroke="url(#paint17_linear_2957_338)"></rect> <rect x="278.5" y="492.274" width="259" height="59" rx="3.5" fill="url(#paint18_linear_2957_338)" fill-opacity="0.8"></rect> <path d="M390.598 528.774V514.229H399.717V516.118H392.793V520.55H399.241V522.432H392.793V526.885H399.803V528.774H390.598ZM402.649 528.774V514.229H407.833C408.96 514.229 409.895 514.423 410.639 514.811C411.387 515.2 411.946 515.737 412.315 516.424C412.684 517.105 412.869 517.894 412.869 518.789C412.869 519.679 412.682 520.462 412.308 521.139C411.939 521.812 411.38 522.335 410.632 522.709C409.888 523.083 408.953 523.27 407.826 523.27H403.899V521.381H407.627C408.338 521.381 408.915 521.279 409.36 521.076C409.81 520.872 410.139 520.576 410.348 520.188C410.556 519.8 410.66 519.333 410.66 518.789C410.66 518.239 410.554 517.764 410.341 517.361C410.132 516.959 409.803 516.651 409.353 516.438C408.908 516.22 408.324 516.111 407.599 516.111H404.843V528.774H402.649ZM409.829 522.212L413.423 528.774H410.923L407.4 522.212H409.829ZM415.539 528.774V514.229H420.724C421.856 514.229 422.793 514.435 423.537 514.847C424.28 515.259 424.836 515.822 425.206 516.537C425.575 517.247 425.76 518.048 425.76 518.938C425.76 519.833 425.573 520.638 425.199 521.353C424.829 522.063 424.27 522.626 423.522 523.043C422.779 523.455 421.844 523.661 420.717 523.661H417.152V521.8H420.518C421.233 521.8 421.813 521.677 422.258 521.431C422.703 521.18 423.03 520.839 423.238 520.408C423.447 519.977 423.551 519.487 423.551 518.938C423.551 518.389 423.447 517.901 423.238 517.475C423.03 517.049 422.701 516.715 422.251 516.473C421.806 516.232 421.219 516.111 420.49 516.111H417.734V528.774H415.539Z" fill="#BAB2C0"></path> <rect x="278.5" y="492.274" width="259" height="59" rx="3.5" stroke="url(#paint19_linear_2957_338)"></rect> <g filter="url(#filter0_f_2957_338)"> <ellipse cx="439.764" cy="324.86" rx="171.869" ry="162.894" transform="rotate(22.2601 439.764 324.86)" fill="#FFE3E8" fill-opacity="0.11"></ellipse> </g> <path d="M0 379C0 379 90.6428 379 125.585 379C155.191 379 148.931 250 214.81 250C252.078 250 278 250 278 250" stroke="url(#paint20_linear_2957_338)" stroke-width="2"></path> <path d="M0.40918 383C0.40918 383 90.6432 383 125.585 383C155.191 383 148.931 318 214.81 318C252.079 318 278 318 278 318" stroke="url(#paint21_linear_2957_338)" stroke-width="2"></path> <path d="M0.40918 386C0.40918 386 88.5492 386 123.023 386C152.231 386 183.015 386 215.116 386C251.884 386 278 386 278 386" stroke="url(#paint22_linear_2957_338)" stroke-width="2"></path> <path d="M0.40918 395C0.40918 395 91.4454 395 125.273 395C153.933 395 151.893 522 210.9 522C246.979 522 278 522 278 522" stroke="url(#paint23_linear_2957_338)" stroke-width="2"></path> <path d="M0.40918 391C0.40918 391 91.4454 391 125.273 391C153.933 391 151.893 454 210.9 454C246.979 454 278 454 278 454" stroke="url(#paint24_linear_2957_338)" stroke-width="2"></path> <circle cx="292.5" cy="234.5" r="4.5" fill="white" fill-opacity="0.36"></circle> <circle cx="292.5" cy="302.5" r="4.5" fill="white" fill-opacity="0.36"></circle> <circle cx="292.5" cy="370.5" r="4.5" fill="white" fill-opacity="0.36"></circle> <circle cx="292.5" cy="438.5" r="4.5" fill="white" fill-opacity="0.36"></circle> <circle cx="292.5" cy="506.5" r="4.5" fill="white" fill-opacity="0.36"></circle> <defs> <filter id="filter0_f_2957_338" x="109.108" y="0.606201" width="661.312" height="648.508" filterUnits="userSpaceOnUse" color-interpolation-filters="sRGB"> <feFlood flood-opacity="0" result="BackgroundImageFix"></feFlood> <feBlend mode="normal" in="SourceGraphic" in2="BackgroundImageFix" result="shape"></feBlend> <feGaussianBlur stdDeviation="80" result="effect1_foregroundBlur_2957_338"></feGaussianBlur> </filter> <linearGradient id="paint0_linear_2957_338" x1="307.5" y1="468.226" x2="489.5" y2="607.726" gradientUnits="userSpaceOnUse"> <stop stop-color="#38333C"></stop> <stop offset="1" stop-color="#1F202E"></stop> </linearGradient> <linearGradient id="paint1_linear_2957_338" x1="547.575" y1="584.263" x2="513.588" y2="428.166" gradientUnits="userSpaceOnUse"> <stop stop-color="#7F7593" stop-opacity="0.05"></stop> <stop offset="1" stop-color="white" stop-opacity="0.35"></stop> </linearGradient> <linearGradient id="paint2_linear_2957_338" x1="307.5" y1="400.226" x2="489.5" y2="539.726" gradientUnits="userSpaceOnUse"> <stop stop-color="#38333C"></stop> <stop offset="1" stop-color="#1F202E"></stop> </linearGradient> <linearGradient id="paint3_linear_2957_338" x1="547.575" y1="516.263" x2="513.588" y2="360.166" gradientUnits="userSpaceOnUse"> <stop stop-color="#7F7593" stop-opacity="0.05"></stop> <stop offset="1" stop-color="white" stop-opacity="0.35"></stop> </linearGradient> <linearGradient id="paint4_linear_2957_338" x1="307.5" y1="332.226" x2="489.5" y2="471.726" gradientUnits="userSpaceOnUse"> <stop stop-color="#38333C"></stop> <stop offset="1" stop-color="#1F202E"></stop> </linearGradient> <linearGradient id="paint5_linear_2957_338" x1="547.575" y1="448.263" x2="513.588" y2="292.166" gradientUnits="userSpaceOnUse"> <stop stop-color="#7F7593" stop-opacity="0.05"></stop> <stop offset="1" stop-color="white" stop-opacity="0.35"></stop> </linearGradient> <linearGradient id="paint6_linear_2957_338" x1="307.5" y1="264.226" x2="489.5" y2="403.726" gradientUnits="userSpaceOnUse"> <stop stop-color="#38333C"></stop> <stop offset="1" stop-color="#1F202E"></stop> </linearGradient> <linearGradient id="paint7_linear_2957_338" x1="547.575" y1="380.263" x2="513.588" y2="224.166" gradientUnits="userSpaceOnUse"> <stop stop-color="#7F7593" stop-opacity="0.05"></stop> <stop offset="1" stop-color="white" stop-opacity="0.35"></stop> </linearGradient> <linearGradient id="paint8_linear_2957_338" x1="307.5" y1="196.226" x2="489.5" y2="335.726" gradientUnits="userSpaceOnUse"> <stop stop-color="#38333C"></stop> <stop offset="1" stop-color="#1F202E"></stop> </linearGradient> <linearGradient id="paint9_linear_2957_338" x1="547.575" y1="312.263" x2="513.588" y2="156.166" gradientUnits="userSpaceOnUse"> <stop stop-color="#7F7593" stop-opacity="0.05"></stop> <stop offset="1" stop-color="white" stop-opacity="0.35"></stop> </linearGradient> <linearGradient id="paint10_linear_2957_338" x1="322.5" y1="189" x2="504.5" y2="328.5" gradientUnits="userSpaceOnUse"> <stop stop-color="#38333C"></stop> <stop offset="1" stop-color="#1F202E"></stop> </linearGradient> <linearGradient id="paint11_linear_2957_338" x1="562.575" y1="305.038" x2="528.588" y2="148.94" gradientUnits="userSpaceOnUse"> <stop stop-color="#7F7593" stop-opacity="0.05"></stop> <stop offset="1" stop-color="white" stop-opacity="0.35"></stop> </linearGradient> <linearGradient id="paint12_linear_2957_338" x1="322.5" y1="257" x2="504.5" y2="396.5" gradientUnits="userSpaceOnUse"> <stop stop-color="#38333C"></stop> <stop offset="1" stop-color="#1F202E"></stop> </linearGradient> <linearGradient id="paint13_linear_2957_338" x1="562.575" y1="373.038" x2="528.588" y2="216.94" gradientUnits="userSpaceOnUse"> <stop stop-color="#7F7593" stop-opacity="0.05"></stop> <stop offset="1" stop-color="white" stop-opacity="0.35"></stop> </linearGradient> <linearGradient id="paint14_linear_2957_338" x1="322.5" y1="325" x2="504.5" y2="464.5" gradientUnits="userSpaceOnUse"> <stop stop-color="#38333C"></stop> <stop offset="1" stop-color="#1F202E"></stop> </linearGradient> <linearGradient id="paint15_linear_2957_338" x1="562.575" y1="441.038" x2="528.588" y2="284.94" gradientUnits="userSpaceOnUse"> <stop stop-color="#7F7593" stop-opacity="0.05"></stop> <stop offset="1" stop-color="white" stop-opacity="0.35"></stop> </linearGradient> <linearGradient id="paint16_linear_2957_338" x1="322.5" y1="393" x2="504.5" y2="532.5" gradientUnits="userSpaceOnUse"> <stop stop-color="#38333C"></stop> <stop offset="1" stop-color="#1F202E"></stop> </linearGradient> <linearGradient id="paint17_linear_2957_338" x1="562.575" y1="509.038" x2="528.588" y2="352.94" gradientUnits="userSpaceOnUse"> <stop stop-color="#7F7593" stop-opacity="0.05"></stop> <stop offset="1" stop-color="white" stop-opacity="0.35"></stop> </linearGradient> <linearGradient id="paint18_linear_2957_338" x1="322.5" y1="461" x2="504.5" y2="600.5" gradientUnits="userSpaceOnUse"> <stop stop-color="#38333C"></stop> <stop offset="1" stop-color="#1F202E"></stop> </linearGradient> <linearGradient id="paint19_linear_2957_338" x1="562.575" y1="577.038" x2="528.588" y2="420.94" gradientUnits="userSpaceOnUse"> <stop stop-color="#7F7593" stop-opacity="0.05"></stop> <stop offset="1" stop-color="white" stop-opacity="0.35"></stop> </linearGradient> <linearGradient id="paint20_linear_2957_338" x1="259.175" y1="314.216" x2="165.52" y2="488.996" gradientUnits="userSpaceOnUse"> <stop stop-color="#463F42"></stop> <stop offset="1" stop-color="#101213"></stop> </linearGradient> <linearGradient id="paint21_linear_2957_338" x1="259.203" y1="350.357" x2="230.641" y2="455.988" gradientUnits="userSpaceOnUse"> <stop stop-color="#463F42"></stop> <stop offset="1" stop-color="#101213"></stop> </linearGradient> <linearGradient id="paint22_linear_2957_338" x1="318.931" y1="386.226" x2="318.921" y2="387.914" gradientUnits="userSpaceOnUse"> <stop stop-color="#463F42"></stop> <stop offset="1" stop-color="#101213"></stop> </linearGradient> <linearGradient id="paint23_linear_2957_338" x1="259.203" y1="458.78" x2="167.726" y2="285.631" gradientUnits="userSpaceOnUse"> <stop stop-color="#463F42"></stop> <stop offset="1" stop-color="#101213"></stop> </linearGradient> <linearGradient id="paint24_linear_2957_338" x1="259.203" y1="422.639" x2="232.26" y2="319.833" gradientUnits="userSpaceOnUse"> <stop stop-color="#463F42"></stop> <stop offset="1" stop-color="#101213"></stop> </linearGradient> </defs> </svg> 