<?xml version="1.0" encoding="UTF-8"?> <svg xmlns="http://www.w3.org/2000/svg" width="300" height="383" viewBox="0 0 300 383" fill="none"> <rect x="0.5" y="0.5" width="299" height="382" rx="19.5" fill="url(#paint0_linear_2993_469)" fill-opacity="0.5" stroke="url(#paint1_linear_2993_469)"></rect> <mask id="mask0_2993_469" style="mask-type:alpha" maskUnits="userSpaceOnUse" x="0" y="0" width="300" height="383"> <rect width="300" height="383" rx="20" fill="url(#paint2_linear_2993_469)"></rect> <rect width="300" height="383" rx="20" fill="url(#paint3_linear_2993_469)"></rect> </mask> <g mask="url(#mask0_2993_469)"> <g filter="url(#filter0_f_2993_469)"> <ellipse rx="125.817" ry="96.9565" transform="matrix(-1.00159 0.0724229 0.486169 0.774685 403.154 32.2227)" fill="#EE5F56" fill-opacity="0.35"></ellipse> </g> <g filter="url(#filter1_f_2993_469)"> <ellipse rx="125.313" ry="64.4355" transform="matrix(-1.00154 0.0717805 0.489401 0.772769 0.0408337 304.789)" fill="#FFCCC9" fill-opacity="0.11"></ellipse> </g> <g filter="url(#filter2_f_2993_469)"> <path d="M-228.608 349.466C-243.737 367.786 -212.889 398.171 -159.709 417.333C-106.529 436.494 -51.154 437.176 -36.0254 418.856C-20.8968 400.535 381.343 469.667 328.163 450.506C274.983 431.344 -213.479 331.145 -228.608 349.466Z" fill="#FF9EBB" fill-opacity="0.13"></path> </g> <g filter="url(#filter3_f_2993_469)"> <path d="M189.771 -33.3999C116.842 26.1354 197.532 9.75336 279.95 70.4693C362.369 131.185 128.039 122.317 322.308 164.469C349.209 145.899 415.608 130.296 333.19 69.5803C250.772 8.86432 323.999 -65.9641 189.771 -33.3999Z" fill="#2D54B9" fill-opacity="0.35"></path> </g> <g filter="url(#filter4_f_2993_469)"> <path d="M256.488 371.085C295.458 238.516 209.998 327.71 56.4425 328.854C-97.1133 329.999 246.383 148.841 -29.182 268.81C-46.4577 313.771 -161.987 377.327 -8.43169 376.182C145.124 375.038 118.871 525.629 256.488 371.085Z" fill="#E09F53" fill-opacity="0.24"></path> </g> <path opacity="0.7" d="M80.3176 478.976C80.3176 478.976 64.9008 457.735 40.2884 435.585C15.6759 413.434 -9.79347 432.699 -41.4608 423.461C-73.1282 414.223 -30.8321 348.795 -51.7132 330.934C-72.5944 313.072 -141.372 351.436 -182.513 323.73C-223.655 296.025 -203.848 261.112 -203.848 261.112M80.5642 478.885C80.5642 478.885 64.5472 457.685 40.1235 435.839C15.6998 413.994 -9.14255 432.33 -40.321 423.155C-71.4995 413.98 -30.3945 350.068 -51.2684 332.434C-72.1423 314.8 -139.796 351.935 -180.884 323.943C-221.971 295.951 -203.561 261.755 -204.126 261.297M80.8259 478.81C80.8259 478.81 64.2087 457.651 39.9725 436.097C15.7364 414.543 -8.49233 431.951 -39.1807 422.852C-69.8691 413.754 -29.9442 351.331 -50.8351 333.953C-71.726 316.575 -138.218 352.465 -179.264 324.187C-220.31 295.91 -203.274 262.402 -204.391 261.484M81.0738 478.732C81.0738 478.732 63.8551 457.601 39.8076 436.352C15.7602 415.102 -7.85604 431.57 -38.0398 422.559C-68.2236 413.549 -29.4934 352.603 -50.3892 335.467C-71.285 318.331 -136.642 352.977 -177.633 324.413C-218.625 295.849 -202.974 263.044 -204.656 261.668M81.321 478.645C81.321 478.645 63.502 457.555 39.6433 436.611C15.7846 415.666 -7.20459 431.205 -36.8995 422.257C-66.5944 413.31 -29.0564 353.867 -49.9426 336.985C-70.8287 320.102 -135.051 353.493 -176.002 324.643C-216.952 295.794 -202.674 263.69 -204.921 261.855M81.5688 478.568C81.5688 478.568 63.1496 457.518 39.4651 436.866C15.7806 416.215 -6.58158 430.825 -35.7864 421.953C-64.9912 413.082 -28.6321 355.141 -49.5244 338.487C-70.4167 321.834 -133.503 353.994 -174.397 324.871C-215.292 295.749 -202.401 264.334 -205.2 262.04M81.8159 478.479C81.8159 478.479 62.7965 457.471 39.3007 437.124C15.8049 416.777 -5.94479 430.446 -34.6462 421.65C-63.3476 412.854 -28.182 356.402 -49.0925 339.991C-70.0029 323.581 -131.926 354.509 -172.781 325.088C-213.635 295.666 -202.101 264.978 -205.478 262.227M82.0639 478.403C82.0639 478.403 62.4443 457.436 39.136 437.38C15.8277 417.324 -5.29371 430.078 -33.5184 421.359C-61.7297 412.64 -27.7575 357.678 -48.6583 341.521C-69.5592 325.365 -130.361 355.038 -171.161 325.33C-211.962 295.622 -201.814 265.623 -205.743 262.412M82.3121 478.327C82.3121 478.327 62.0922 457.401 38.9715 437.637C15.8507 417.873 -4.65704 429.699 -32.3783 421.056C-60.0995 412.412 -27.3063 358.952 -48.2132 343.024C-69.1201 327.096 -128.772 355.538 -169.517 325.557C-210.261 295.576 -201.527 266.268 -206.021 262.599M82.5588 478.236C82.5588 478.236 61.7387 457.351 38.8067 437.892C15.8746 418.432 -4.02061 429.318 -31.2385 420.749C-58.4563 412.181 -26.8698 360.212 -47.7683 344.524C-68.6668 328.837 -127.184 356.036 -167.887 325.769C-208.59 295.503 -201.227 266.91 -206.286 262.782M82.8068 478.16C82.8068 478.16 61.3852 457.303 38.6286 438.149C15.872 418.996 -3.38291 428.952 -30.124 420.46C-56.8651 411.969 -26.4454 361.488 -47.3609 346.057C-68.2764 330.626 -125.645 356.581 -166.295 326.014C-206.945 295.447 -200.941 267.555 -206.551 262.967M83.055 478.085C83.055 478.085 61.0332 457.269 38.4654 438.42C15.8975 419.571 -2.74497 428.586 -28.9826 420.17C-55.2203 411.754 -25.9941 362.762 -46.9145 347.573C-67.8348 332.384 -124.055 357.094 -164.662 326.256C-205.27 295.417 -200.654 268.2 -206.83 263.154M83.3017 477.994C83.3017 477.994 60.6797 457.218 38.2993 438.661C15.919 420.104 -2.10976 428.191 -27.8573 419.851C-53.6049 411.512 -25.571 364.023 -46.4829 349.074C-67.3949 334.126 -122.493 357.595 -163.046 326.469C-203.599 295.344 -200.354 268.842 -207.095 263.337M83.5501 477.92C83.5501 477.92 60.3278 457.186 38.135 438.92C15.9421 420.654 -1.45836 427.826 -26.7159 419.563C-51.9733 411.299 -25.1196 365.299 -46.0364 350.592C-66.9532 335.886 -120.901 358.123 -161.414 326.699C-201.927 295.275 -200.067 269.489 -207.373 263.526M83.7979 477.842C83.7979 477.842 59.9755 457.149 37.958 439.189C15.9406 421.23 -0.834113 427.46 -25.5882 419.271C-50.3423 411.082 -24.682 366.572 -45.617 352.108C-66.552 337.645 -119.351 358.638 -159.81 326.928C-200.268 295.217 -199.78 270.145 -207.638 263.709M84.0451 477.754C84.0451 477.754 59.6224 457.102 37.7924 439.434C15.9625 421.766 -0.19849 427.068 -24.4625 418.956C-48.7265 410.843 -24.2584 367.836 -45.185 353.613C-66.1116 339.391 -117.776 359.141 -158.192 327.158C-198.608 295.175 -199.479 270.79 -207.916 263.897M84.293 477.677C84.293 477.677 59.2701 457.066 37.6289 439.703C15.9877 422.339 0.453707 426.713 -23.3214 418.664C-47.0953 410.628 -23.8074 369.109 -44.7389 355.128C-65.6703 341.147 -116.199 359.654 -156.561 327.385C-196.922 295.115 -199.193 271.434 -208.182 264.081M84.5412 477.601C84.5412 477.601 58.9169 457.018 37.4644 439.96C16.0119 422.901 1.09042 426.334 -22.1934 418.374C-45.4639 410.413 -23.3828 370.385 -44.3046 356.658C-65.2264 342.931 -114.62 360.195 -154.941 327.627C-195.263 295.059 -198.906 272.079 -208.445 264.28M84.7879 477.51C84.7879 477.51 58.5633 456.968 37.2983 440.201C16.0334 423.434 1.72558 425.939 -21.0549 418.054C-43.8353 410.169 -22.9343 371.63 -43.8743 358.146C-64.8143 344.662 -113.059 360.682 -153.325 327.841C-193.591 294.999 -198.606 272.721 -208.724 264.465M85.036 477.435C85.036 477.435 58.2112 456.934 37.1217 440.472C16.0321 424.011 2.36468 425.587 -19.9269 417.765C-42.2039 409.955 -22.4951 372.919 -43.4279 359.662C-64.3607 346.406 -111.469 361.196 -151.694 328.069C-191.918 294.942 -198.307 273.351 -208.99 264.637M85.2962 477.345C85.2962 477.345 57.8712 456.885 36.9691 440.715C16.0671 424.545 3.01335 425.193 -18.7869 417.461C-40.5872 409.728 -22.0585 374.181 -42.995 361.179C-63.9315 348.178 -109.892 361.71 -150.076 328.298C-190.259 294.886 -198.021 273.996 -209.255 264.822M85.5443 477.267C85.5443 477.267 57.519 456.848 36.8057 440.983C16.0779 425.106 3.65115 424.825 -17.659 417.169C-38.9559 409.512 -21.6207 375.454 -42.5621 362.694C-63.5034 349.935 -108.328 362.238 -148.457 328.539C-188.586 294.84 -197.733 274.653 -209.532 265.021M85.7925 477.193C85.7925 477.193 57.167 456.815 36.6412 441.242C16.1155 425.668 4.30242 424.46 -16.5189 416.867C-37.3268 409.272 -21.1694 376.73 -42.1302 364.2C-63.0909 351.67 -106.752 362.741 -146.84 328.757C-186.927 294.772 -197.447 275.286 -209.812 265.196M86.0393 477.101C86.0393 477.101 56.8136 456.765 36.4753 441.482C16.137 426.2 4.93767 424.065 -15.379 416.56C-35.6969 409.042 -20.7329 377.989 -41.684 365.713C-62.6352 353.437 -105.175 363.253 -145.209 328.982C-185.242 294.711 -197.159 275.942 -210.076 265.392M86.2875 477.028C86.2875 477.028 56.4604 456.719 36.2987 441.756C16.1371 426.793 5.56231 423.702 -14.251 416.272C-34.0788 408.83 -20.2949 379.266 -41.2509 367.232C-62.207 355.198 -103.598 363.769 -143.589 329.226C-183.58 294.684 -196.859 276.588 -210.341 265.579M86.5355 476.95C86.5355 476.95 56.1081 456.682 36.134 442.011C16.1598 427.339 6.21332 423.333 -13.1244 415.967C-32.4621 408.601 -19.8717 380.527 -40.8181 368.747C-61.7645 356.967 -102.034 364.296 -141.972 329.453C-181.909 294.611 -196.573 277.231 -210.619 265.764M86.7822 476.859C86.7822 476.859 55.7546 456.632 35.9692 442.266C16.1838 427.899 6.84977 422.952 -11.9845 415.661C-30.8189 408.371 -19.4207 381.799 -40.3865 370.249C-61.3523 358.699 -100.459 364.796 -140.355 329.668C-180.251 294.54 -196.286 277.874 -210.885 265.934M87.0306 476.785C87.0306 476.785 55.4027 456.599 35.8049 442.524C16.207 428.449 7.48785 422.587 -10.8431 415.372C-29.1873 408.157 -18.9693 383.074 -39.94 371.766C-60.9106 360.458 -98.8817 365.312 -138.724 329.897C-178.565 294.482 -195.986 278.519 -211.15 266.121M87.2784 476.707C87.2784 476.707 55.0503 456.562 35.6267 442.78C16.2042 429.011 8.12418 422.206 -9.72996 415.068C-27.5841 407.93 -18.5595 384.337 -39.5206 373.282C-60.4816 362.228 -97.3185 365.826 -137.118 330.139C-176.917 294.452 -195.712 279.177 -211.441 266.32M87.5256 476.62C87.5256 476.62 54.6973 456.516 35.4623 443.039C16.2274 429.561 8.76108 421.829 -8.58966 414.766C-25.9404 407.703 -18.1081 385.612 -39.0752 374.787C-60.0423 363.961 -95.7416 366.342 -135.488 330.355C-175.234 294.368 -195.413 279.81 -211.694 266.493M87.7735 476.542C87.7735 476.542 54.3449 456.48 35.2975 443.294C16.25 430.107 9.39862 421.461 -7.46204 414.474C-24.3227 407.487 -17.6705 386.886 -38.6546 376.316C-59.6388 365.747 -94.1772 366.869 -133.882 330.597C-173.587 294.325 -195.126 280.453 -211.971 266.691M88.0204 476.454C88.0204 476.454 53.9904 456.419 35.1329 443.551C16.2609 430.671 10.0486 421.081 -6.32194 414.17C-22.6925 407.26 -17.2338 388.148 -38.2095 377.819C-59.1852 367.491 -92.6016 367.371 -132.251 330.825C-171.9 294.28 -194.826 281.097 -212.236 266.877M88.2686 476.377C88.2686 476.377 53.6383 456.383 34.9683 443.807C16.285 431.231 10.6853 420.701 -5.18191 413.865C-21.0491 407.03 -16.7838 389.408 -37.7644 379.321C-58.745 369.234 -91.0116 367.883 -130.621 331.039C-170.23 294.195 -194.526 281.74 -212.502 267.048M88.5166 476.302C88.5166 476.302 53.2862 456.349 34.7904 444.065C16.2946 431.782 11.3097 420.337 -4.06734 413.578C-19.4444 406.818 -16.3581 390.698 -37.3436 380.853C-58.329 371.008 -89.447 368.413 -129.015 331.284C-168.583 294.154 -194.251 282.4 -212.793 267.25M88.7635 476.211C88.7635 476.211 52.9328 456.299 34.6257 444.32C16.3186 432.341 11.9596 419.954 -2.9274 413.271C-17.8144 406.588 -15.9215 391.958 -36.9119 382.355C-57.9022 372.752 -87.8849 368.914 -127.397 331.511C-166.91 294.108 -193.965 283.043 -213.071 267.435M89.0114 476.135C89.0114 476.135 52.5805 456.264 34.461 444.576C16.3414 432.888 12.5961 419.574 -1.80083 412.968C-16.1977 406.361 -15.485 393.219 -36.4802 383.858C-57.4755 374.496 -86.3095 369.414 -125.781 331.726C-165.252 294.038 -193.679 283.674 -213.337 267.606M89.2597 476.06C89.2597 476.06 52.2286 456.23 34.2978 444.847C16.3669 433.464 13.2353 419.223 -0.659416 412.677C-14.5529 406.146 -15.0458 394.508 -36.0326 385.387C-57.0194 376.267 -84.7301 369.956 -124.148 331.968C-163.566 293.98 -193.378 284.332 -213.601 267.806M89.5064 475.969C89.5064 475.969 51.875 456.18 34.1317 445.088C16.3751 433.998 13.8838 418.827 0.480351 412.371C-12.9231 405.915 -14.596 395.767 -35.5877 386.888C-56.5794 378.009 -83.1416 370.454 -122.517 332.194C-161.892 293.933 -193.079 284.96 -213.866 267.989M89.768 475.893C89.768 475.893 51.5352 456.132 33.9673 445.346C16.3994 434.561 14.5206 418.449 1.60726 412.069C-11.3061 405.69 -14.1592 397.029 -35.1679 388.407C-56.1765 379.785 -81.5913 370.972 -120.912 332.425C-160.233 293.878 -192.805 285.621 -214.145 268.177M90.016 475.816C90.016 475.816 51.1829 456.096 33.8038 445.615C16.4246 435.134 15.1595 418.095 2.74833 411.777C-9.66159 405.473 -13.7203 398.317 -34.7217 389.922C-55.7232 381.527 -80.0014 371.484 -119.281 332.652C-158.561 293.82 -192.505 286.264 -214.41 268.361M90.263 475.728C90.263 475.728 50.8298 456.049 33.6381 445.86C16.4465 435.671 15.8083 417.702 3.87519 411.475C-8.05796 405.248 -13.2835 399.58 -34.2898 391.426C-55.295 383.287 -78.4378 372.001 -117.663 332.882C-156.888 293.763 -192.205 286.909 -214.675 268.547M90.511 475.65C90.511 475.65 50.4774 456.012 33.4745 446.128C16.4583 436.244 16.446 417.334 5.01622 411.182C-6.41353 405.03 -12.8325 400.851 -33.8425 392.953C-54.8525 385.055 -76.8467 372.526 -116.031 333.121C-155.215 293.717 -191.918 287.552 -214.953 268.732M90.7581 475.562C90.7581 475.562 50.1243 455.966 33.2956 446.374C16.4669 436.782 17.0695 416.957 6.14193 410.867C-4.79773 404.792 -12.4102 402.102 -33.4251 394.446C-54.44 386.79 -75.2988 373.017 -114.428 333.326C-153.558 293.635 -191.631 288.198 -215.218 268.919M91.006 475.486C91.006 475.486 49.772 455.93 33.1308 446.63C16.4908 437.343 17.7192 416.576 7.26965 410.577C-3.17993 404.577 -11.9713 403.39 -32.9923 395.962C-54.0133 388.535 -73.7223 373.531 -112.811 333.555C-151.899 293.578 -191.346 288.829 -215.498 269.091M91.2541 475.407C91.2541 475.407 49.4198 455.893 32.9674 446.897C16.5149 437.902 18.357 416.208 8.41083 410.283C-1.53535 404.359 -11.5335 404.662 -32.5448 397.489C-53.5562 390.315 -72.1299 374.068 -111.164 333.805C-150.198 293.543 -191.045 289.483 -215.762 269.287M91.501 475.32C91.501 475.32 49.0654 455.833 32.8016 447.142C16.5379 438.452 18.9937 415.83 9.5497 409.967C0.0924089 404.106 -11.0846 405.912 -32.1009 398.98C-53.1171 392.048 -70.5555 374.558 -109.535 334.009C-148.514 293.459 -190.733 290.114 -216.014 269.46M91.7491 475.243C91.7491 475.243 48.7132 455.797 32.6382 447.411C16.5486 439.013 19.6448 415.461 10.6775 409.676C1.71034 403.891 -10.6457 407.198 -31.6801 400.51C-52.7145 393.821 -68.991 375.085 -107.929 334.25C-146.867 293.416 -190.458 290.772 -216.292 269.658M91.9972 475.168C91.9972 475.168 48.3611 455.763 32.4603 447.669C16.5595 439.576 20.2681 415.084 11.8055 409.387C3.34167 403.677 -10.2211 408.475 -31.2471 402.027C-52.2731 395.579 -67.4263 375.615 -106.31 334.494C-145.194 293.372 -190.17 291.431 -216.569 269.859M92.2441 475.077C92.2441 475.077 48.0077 455.714 32.2944 447.912C16.5811 440.11 20.9047 414.703 12.9309 409.07C4.95722 403.436 -9.7857 409.723 -30.8166 403.516C-51.8475 397.31 -65.8521 376.102 -104.695 334.695C-143.537 293.288 -189.886 292.049 -216.85 270.018M92.4922 475.002C92.4922 475.002 47.6556 455.68 32.1311 448.183C16.6065 440.686 21.5558 414.337 14.0722 408.779C6.58856 403.222 -9.33449 410.997 -30.3691 405.046C-51.4036 399.095 -64.2741 376.631 -103.062 334.937C-141.85 293.244 -189.585 292.706 -217.1 270.216M92.7402 474.925C92.7402 474.925 47.3034 455.643 31.9663 448.438C16.6293 441.232 22.1923 413.956 15.2133 408.487C8.23426 403.017 -8.89554 412.284 -29.9362 406.561C-50.9769 400.839 -62.6975 377.143 -101.443 335.178C-140.189 293.212 -189.297 293.363 -217.377 270.414M92.9871 474.836C92.9871 474.836 46.9501 455.596 31.8017 448.695C16.6401 441.795 22.8302 413.591 16.34 408.184C9.84986 402.778 -8.45888 413.546 -29.5032 408.079C-50.5476 402.612 -61.1329 377.673 -99.8251 335.407C-138.517 293.142 -188.997 294.007 -217.656 270.601" stroke="url(#paint4_linear_2993_469)" stroke-width="0.2447" stroke-miterlimit="10"></path> </g> <defs> <filter id="filter0_f_2993_469" x="88.5723" y="-223.446" width="629.163" height="511.338" filterUnits="userSpaceOnUse" color-interpolation-filters="sRGB"> <feFlood flood-opacity="0" result="BackgroundImageFix"></feFlood> <feBlend mode="normal" in="SourceGraphic" in2="BackgroundImageFix" result="shape"></feBlend> <feGaussianBlur stdDeviation="90" result="effect1_foregroundBlur_2993_469"></feGaussianBlur> </filter> <filter id="filter1_f_2993_469" x="-309.397" y="74.1804" width="618.876" height="461.217" filterUnits="userSpaceOnUse" color-interpolation-filters="sRGB"> <feFlood flood-opacity="0" result="BackgroundImageFix"></feFlood> <feBlend mode="normal" in="SourceGraphic" in2="BackgroundImageFix" result="shape"></feBlend> <feGaussianBlur stdDeviation="90" result="effect1_foregroundBlur_2993_469"></feGaussianBlur> </filter> <filter id="filter2_f_2993_469" x="-412.454" y="167.239" width="925.458" height="466.657" filterUnits="userSpaceOnUse" color-interpolation-filters="sRGB"> <feFlood flood-opacity="0" result="BackgroundImageFix"></feFlood> <feBlend mode="normal" in="SourceGraphic" in2="BackgroundImageFix" result="shape"></feBlend> <feGaussianBlur stdDeviation="90" result="effect1_foregroundBlur_2993_469"></feGaussianBlur> </filter> <filter id="filter3_f_2993_469" x="-18.7017" y="-221.295" width="571.83" height="565.764" filterUnits="userSpaceOnUse" color-interpolation-filters="sRGB"> <feFlood flood-opacity="0" result="BackgroundImageFix"></feFlood> <feBlend mode="normal" in="SourceGraphic" in2="BackgroundImageFix" result="shape"></feBlend> <feGaussianBlur stdDeviation="90" result="effect1_foregroundBlur_2993_469"></feGaussianBlur> </filter> <filter id="filter4_f_2993_469" x="-267.1" y="47.7404" width="712.97" height="573.116" filterUnits="userSpaceOnUse" color-interpolation-filters="sRGB"> <feFlood flood-opacity="0" result="BackgroundImageFix"></feFlood> <feBlend mode="normal" in="SourceGraphic" in2="BackgroundImageFix" result="shape"></feBlend> <feGaussianBlur stdDeviation="90" result="effect1_foregroundBlur_2993_469"></feGaussianBlur> </filter> <linearGradient id="paint0_linear_2993_469" x1="36.0776" y1="-158.108" x2="453.091" y2="250.404" gradientUnits="userSpaceOnUse"> <stop stop-color="#252426" stop-opacity="0.7"></stop> <stop offset="1" stop-color="#807B9E" stop-opacity="0.12"></stop> </linearGradient> <linearGradient id="paint1_linear_2993_469" x1="328.355" y1="544.263" x2="-195.755" y2="170.115" gradientUnits="userSpaceOnUse"> <stop stop-color="#8778A7" stop-opacity="0.05"></stop> <stop offset="1" stop-color="#FFEFF5" stop-opacity="0.28"></stop> </linearGradient> <linearGradient id="paint2_linear_2993_469" x1="165.129" y1="174.413" x2="124.429" y2="-52.2518" gradientUnits="userSpaceOnUse"> <stop stop-color="#141516"></stop> <stop offset="1" stop-color="#141516" stop-opacity="0"></stop> </linearGradient> <linearGradient id="paint3_linear_2993_469" x1="99.9569" y1="-60.7489" x2="432.287" y2="66.2485" gradientUnits="userSpaceOnUse"> <stop stop-color="#292524" stop-opacity="0.62"></stop> <stop offset="1" stop-color="#2D2837"></stop> </linearGradient> <linearGradient id="paint4_linear_2993_469" x1="109.014" y1="462.709" x2="-100.019" y2="182.582" gradientUnits="userSpaceOnUse"> <stop stop-color="#AFDDF9" stop-opacity="0.71"></stop> <stop offset="0.2946" stop-color="#BD9066"></stop> <stop offset="0.5919" stop-color="#CECDFF"></stop> <stop offset="0.8514" stop-color="#AE9AFF"></stop> <stop offset="1" stop-color="#11E9EF"></stop> </linearGradient> </defs> </svg> 