<?xml version="1.0" encoding="UTF-8"?> <svg xmlns="http://www.w3.org/2000/svg" width="362" height="332" viewBox="0 0 362 332" fill="none"> <rect x="0.5" y="0.5" width="361" height="331" rx="20.5" fill="url(#paint0_linear_2955_248)"></rect> <rect x="0.5" y="0.5" width="361" height="331" rx="20.5" fill="url(#paint1_linear_2955_248)"></rect> <rect x="0.5" y="0.5" width="361" height="331" rx="20.5" stroke="url(#paint2_linear_2955_248)"></rect> <mask id="mask0_2955_248" style="mask-type:alpha" maskUnits="userSpaceOnUse" x="1" y="1" width="360" height="330"> <rect x="1.5" y="1.5" width="359" height="329" rx="19.5" fill="url(#paint3_linear_2955_248)" stroke="url(#paint4_linear_2955_248)"></rect> </mask> <g mask="url(#mask0_2955_248)"> <g filter="url(#filter0_f_2955_248)"> <ellipse rx="152.509" ry="74.4663" transform="matrix(-0.873429 0.421451 0.622939 0.83051 291.936 239.419)" fill="#FFD39E" fill-opacity="0.4"></ellipse> </g> <g filter="url(#filter1_f_2955_248)"> <ellipse rx="153.474" ry="81.8995" transform="matrix(-1.01499 0.00343336 0.0319272 0.977113 114.693 301.792)" fill="#FF9EBB" fill-opacity="0.6"></ellipse> </g> <g filter="url(#filter2_f_2955_248)"> <ellipse rx="153.474" ry="81.8995" transform="matrix(-1.01499 0.00343336 0.0319272 0.977113 114.693 365.377)" fill="#617EE2" fill-opacity="0.6"></ellipse> </g> <path d="M7.46909 310.675C40.7849 300.37 69.2919 284.317 102.825 273.855C126.543 266.459 148.741 256.863 172.92 250.297C237.851 232.658 304.12 217.581 369.557 201.31" stroke="url(#paint5_linear_2955_248)" stroke-opacity="0.4" stroke-width="0.75" stroke-miterlimit="10"></path> <path d="M8.65361 313.798C41.5262 303.265 70.7777 288.386 103.837 277.916C127.996 270.261 150.038 259.971 174.741 253.251C239.264 235.689 305.779 220.747 370.949 204.865" stroke="url(#paint6_linear_2955_248)" stroke-opacity="0.4" stroke-width="0.75" stroke-miterlimit="10"></path> <path d="M9.51696 316.326C41.8056 306.01 72.4636 292.928 104.629 282.32C129.611 274.078 151.481 262.32 177.249 255.307C205.18 247.699 233.92 244.174 262.046 237.376C299.066 228.432 335.339 217.478 372.329 208.447" stroke="url(#paint7_linear_2955_248)" stroke-opacity="0.4" stroke-width="0.75" stroke-miterlimit="10"></path> <path d="M10.1048 318.358C41.7718 308.598 74.159 297.849 105.22 287.044C131.349 277.957 153.003 264.087 180.287 256.688C208.303 249.091 237.033 248.009 265.288 241.793C302.071 233.704 337.245 221.228 373.677 212.147" stroke="url(#paint8_linear_2955_248)" stroke-opacity="0.4" stroke-width="0.75" stroke-miterlimit="10"></path> <path d="M10.4904 319.993C41.8682 310.936 75.1637 302.701 105.69 291.982C133.42 282.244 154.547 265.325 183.79 257.494C212.042 249.932 240.566 251.751 269.042 246.354C305.455 239.452 339.448 225.074 375.056 215.892" stroke="url(#paint9_linear_2955_248)" stroke-opacity="0.4" stroke-width="0.75" stroke-miterlimit="10"></path> <path d="M10.6974 321.219C41.7166 313.073 76.4331 308.217 106.032 296.998C135.143 285.972 156.272 266.037 187.588 257.864C216.256 250.381 244.383 255.407 273.141 250.997C308.983 245.507 341.921 228.964 376.433 219.673" stroke="url(#paint10_linear_2955_248)" stroke-opacity="0.4" stroke-width="0.75" stroke-miterlimit="10"></path> <path d="M10.7856 322.029C41.7539 314.82 77.1869 313.734 106.315 301.892C136.685 289.554 158.221 266.269 191.615 257.897C220.854 250.563 248.446 258.886 277.523 255.575C312.597 251.579 344.67 232.792 377.881 223.419" stroke="url(#paint11_linear_2955_248)" stroke-opacity="0.4" stroke-width="0.75" stroke-miterlimit="10"></path> <path d="M10.8424 322.773C42.1492 316.456 77.3487 319.435 106.576 306.789C138.191 293.111 160.359 266.693 195.734 257.842C225.382 250.423 252.839 262.299 281.999 260.137C316.209 257.611 347.495 236.573 379.321 227.149" stroke="url(#paint12_linear_2955_248)" stroke-opacity="0.4" stroke-width="0.75" stroke-miterlimit="10"></path> <path d="M10.9051 323.598C42.8644 318.114 76.9829 325.284 106.837 311.663C139.506 296.753 162.61 266.989 199.799 257.855C229.95 250.448 257.215 265.712 286.416 264.666C319.8 263.468 350.242 240.312 380.744 230.852" stroke="url(#paint13_linear_2955_248)" stroke-opacity="0.4" stroke-width="0.75" stroke-miterlimit="10"></path> <path d="M11.0494 324.602C43.8221 319.861 76.3185 331.159 107.159 316.452C140.727 300.445 164.908 267.416 203.714 258.074C234.382 250.688 261.474 269.166 290.664 269.116C323.394 269.061 352.796 244.014 382.172 234.513" stroke="url(#paint14_linear_2955_248)" stroke-opacity="0.4" stroke-width="0.75" stroke-miterlimit="10"></path> <path d="M11.3444 325.903C44.9791 321.771 75.5708 336.914 107.591 321.136C141.963 304.199 167.147 268.169 207.377 258.671C238.607 251.299 265.413 272.701 294.63 273.486C326.933 274.345 355.106 247.683 383.608 238.152" stroke="url(#paint15_linear_2955_248)" stroke-opacity="0.4" stroke-width="0.75" stroke-miterlimit="10"></path> <path d="M11.8174 327.601C46.2403 323.87 74.9059 342.397 108.123 325.661C124.998 317.163 139.81 304.772 153.865 294.366C168.843 283.269 188.78 264.85 210.624 259.775C242.516 252.366 268.764 276.334 298.132 277.737C330.264 279.27 357.095 251.302 385.019 241.748" stroke="url(#paint16_linear_2955_248)" stroke-opacity="0.4" stroke-width="0.75" stroke-miterlimit="10"></path> <path d="M12.5474 329.798C47.6895 326.178 74.4735 347.467 108.837 329.99C126.143 321.187 141.332 308.157 155.623 297.37C170.675 286.002 191.046 266.683 213.366 261.549C246.037 254.032 271.329 280.097 301.058 281.856C333.289 283.771 358.734 254.858 386.424 245.314" stroke="url(#paint17_linear_2955_248)" stroke-opacity="0.4" stroke-width="0.75" stroke-miterlimit="10"></path> <path d="M13.5763 332.612C49.3439 328.716 74.3456 352.012 109.746 334.078C127.351 325.157 142.828 311.591 157.207 300.596C172.384 288.996 192.738 269.352 215.453 264.132C249.093 256.412 272.915 284.001 303.263 285.822C335.871 287.781 359.982 258.345 387.809 248.858" stroke="url(#paint18_linear_2955_248)" stroke-opacity="0.4" stroke-width="0.75" stroke-miterlimit="10"></path> <path d="M14.8356 336.108C50.4751 332.251 75.6739 355.441 110.835 337.495C128.49 328.485 144.094 315.04 158.68 304.031C173.944 292.507 194.492 272.876 217.075 267.551C250.756 259.616 274.317 287.666 304.641 289.455C337.6 291.405 361.092 261.822 389.212 252.361" stroke="url(#paint19_linear_2955_248)" stroke-opacity="0.4" stroke-width="0.75" stroke-miterlimit="10"></path> <path d="M15.6168 340.006C50.7496 336.387 77.5359 357.459 111.71 339.955C129.426 330.881 145.221 318.099 160.324 307.241C175.859 296.073 197.194 276.553 219.377 271.234C252.251 263.358 276.132 291.13 305.653 293.057C338.672 295.215 362.404 265.335 390.592 255.863" stroke="url(#paint20_linear_2955_248)" stroke-opacity="0.4" stroke-width="0.75" stroke-miterlimit="10"></path> <path d="M15.9005 344.221C50.7402 340.416 78.8402 358.613 112.327 341.824C130.223 332.854 146.414 320.773 162.126 310.193C178.144 299.409 200.423 280.27 222.383 275.088C254.541 267.491 277.754 294.749 306.496 296.818C339.446 299.188 363.792 268.826 391.963 259.339" stroke="url(#paint21_linear_2955_248)" stroke-opacity="0.4" stroke-width="0.75" stroke-miterlimit="10"></path> <path d="M15.7895 348.687C50.4008 344.384 79.7806 359.054 112.759 343.214C130.942 334.479 147.673 323.138 164.075 312.959C180.779 302.6 204.062 284.103 225.952 279.126C257.465 271.973 279.218 298.494 307.233 300.694C340.027 303.269 365.278 272.269 393.345 262.786" stroke="url(#paint22_linear_2955_248)" stroke-opacity="0.4" stroke-width="0.75" stroke-miterlimit="10"></path> <path d="M15.3667 353.353C49.7174 348.329 80.4493 358.981 113.014 344.255C131.572 335.869 148.928 325.308 166.089 315.626C183.615 305.739 207.928 288.09 229.896 283.396C260.897 276.768 280.461 302.471 307.864 304.693C340.56 307.346 366.675 275.747 394.736 266.211" stroke="url(#paint23_linear_2955_248)" stroke-opacity="0.4" stroke-width="0.75" stroke-miterlimit="10"></path> <path d="M14.7476 358.157C48.7517 352.269 80.9243 358.586 113.167 345.065C132.161 337.103 150.202 327.358 168.125 318.277C186.589 308.925 211.876 292.293 234.026 287.917C265.347 281.726 280.758 307.447 308.421 308.798C342.35 310.46 366.841 279.656 396.124 269.634" stroke="url(#paint24_linear_2955_248)" stroke-opacity="0.4" stroke-width="0.75" stroke-miterlimit="10"></path> <path d="M14.0141 363.001C45.7646 356.531 78.5634 358.399 108.985 347.357C134.282 338.178 158.058 326.281 182.121 315.522C198.307 308.291 219.001 296.493 237.691 293.385C270.085 287.997 282.172 312.952 311.801 313.142C344.036 313.358 369.271 282.623 397.491 272.995" stroke="url(#paint25_linear_2955_248)" stroke-opacity="0.4" stroke-width="0.75" stroke-miterlimit="10"></path> <path d="M13.2457 367.873C45.0268 360.462 78.1204 358.19 108.895 347.905C134.686 339.282 159.446 328.651 184.432 318.822C201.43 312.141 222.611 301.338 241.539 298.408C272.858 293.558 283.594 317.038 312.135 317.313C344.277 317.622 370.688 286.049 398.854 276.366" stroke="url(#paint26_linear_2955_248)" stroke-opacity="0.4" stroke-width="0.75" stroke-miterlimit="10"></path> <path d="M12.5719 372.695C44.542 364.353 77.3866 358.187 108.843 348.557C135.113 340.519 160.772 331.185 186.593 322.343C204.421 316.238 225.876 306.532 245.108 303.734C275.296 299.337 285.028 321.217 312.508 321.486C344.631 321.803 372.062 289.472 400.24 279.718" stroke="url(#paint27_linear_2955_248)" stroke-opacity="0.4" stroke-width="0.75" stroke-miterlimit="10"></path> <path d="M12.0643 377.405C44.3858 368.186 76.4649 358.479 108.86 349.435C135.549 341.982 161.992 333.966 188.516 326.145C207.128 320.654 228.64 312.103 248.201 309.377C277.253 305.32 286.448 325.483 312.899 325.638C345.172 325.837 373.293 292.911 401.624 283.049" stroke="url(#paint28_linear_2955_248)" stroke-opacity="0.4" stroke-width="0.75" stroke-miterlimit="10"></path> <path d="M11.8175 381.935C44.5692 371.991 75.545 359.168 108.989 350.661C136.002 343.797 163.07 337.089 190.111 330.303C209.432 325.455 230.775 318.096 250.659 315.359C278.614 311.518 287.836 329.819 313.346 329.737C346.006 329.63 374.29 296.405 402.983 286.357" stroke="url(#paint29_linear_2955_248)" stroke-opacity="0.4" stroke-width="0.75" stroke-miterlimit="10"></path> <path d="M11.8776 386.318C45.0807 375.914 74.8123 360.525 109.246 352.551C155.368 341.878 205.365 328.533 252.309 321.952C279.207 318.187 289.171 334.408 313.896 333.899C347.268 333.217 375.024 300.2 404.364 289.914" stroke="url(#paint30_linear_2955_248)" stroke-opacity="0.4" stroke-width="0.75" stroke-miterlimit="10"></path> <path d="M12.3885 390.417C44.5981 380.377 72.1693 363.491 105.683 355.951C153.586 345.171 205.059 336.187 253.664 328.712C279.815 324.692 292.421 339.999 317.195 337.768C350.938 334.737 375.503 304.041 405.788 293.526" stroke="url(#paint31_linear_2955_248)" stroke-opacity="0.4" stroke-width="0.75" stroke-miterlimit="10"></path> <path d="M13.4616 394.142C46.0659 384.385 72.5552 366.31 106.534 359.15C154.463 349.045 204.671 344.343 253.046 336.209C278.661 331.906 293.631 344.562 318.121 341.622C352.936 337.44 375.753 307.962 407.159 297.082" stroke="url(#paint32_linear_2955_248)" stroke-opacity="0.4" stroke-width="0.75" stroke-miterlimit="10"></path> <path d="M15.2407 397.584C47.4863 387.544 75.2728 370.153 108.973 363.042C155.631 353.19 204.785 347.316 251.943 339.826C277.6 335.75 295.062 347.535 319.791 344.444C354.093 340.157 377.653 311.543 408.538 300.55" stroke="url(#paint33_linear_2955_248)" stroke-opacity="0.4" stroke-width="0.75" stroke-miterlimit="10"></path> <path d="M17.7485 400.901C51.2805 390.387 81.6345 373.885 116.716 366.724C160.24 357.84 205.583 350.11 249.52 343.418C275.104 339.519 294.296 349.081 319.018 346.627C354.006 343.147 378.737 315.147 409.871 303.947" stroke="url(#paint34_linear_2955_248)" stroke-opacity="0.4" stroke-width="0.75" stroke-miterlimit="10"></path> <path d="M20.8564 404.119C54.6297 393.818 86.695 379.338 121.58 371.631C162.649 362.553 205.477 353.351 247.052 346.652C273.38 342.407 295.455 350.705 321.183 347.755C355.739 343.787 380.1 318.273 411.194 307.279" stroke="url(#paint35_linear_2955_248)" stroke-opacity="0.4" stroke-width="0.75" stroke-miterlimit="10"></path> <path d="M24.4355 407.276C96.7269 386.347 169.173 363.091 244.225 349.793C271.595 344.942 296.533 351.806 323.551 348.261C357.43 343.817 381.563 321.131 412.502 310.556" stroke="url(#paint36_linear_2955_248)" stroke-opacity="0.4" stroke-width="0.75" stroke-miterlimit="10"></path> <path d="M28.3104 410.444C63.3675 401.03 98.7269 392.433 133.666 382.708C168.907 372.9 205.095 360.277 241.16 353.094C269.71 347.409 297.51 352.024 326.07 348.44C358.69 344.339 383.689 323.813 413.821 314.031" stroke="url(#paint37_linear_2955_248)" stroke-opacity="0.4" stroke-width="0.75" stroke-miterlimit="10"></path> <path d="M32.3692 413.643C68.1222 404.896 105.512 399.869 140.409 388.802C172.617 378.583 204.764 364.121 238.041 356.606C267.822 349.878 298.635 352.583 328.708 348.42C360.207 344.058 385.535 326.618 415.141 317.638" stroke="url(#paint38_linear_2955_248)" stroke-opacity="0.4" stroke-width="0.75" stroke-miterlimit="10"></path> <path d="M36.5071 416.768C72.6587 408.823 112.829 407.454 147.335 394.981C176.665 384.381 204.317 368.146 235.021 360.292C265.993 352.363 299.824 353.182 331.404 348.272C361.657 343.575 387.506 329.386 416.477 321.274" stroke="url(#paint39_linear_2955_248)" stroke-opacity="0.4" stroke-width="0.75" stroke-miterlimit="10"></path> <path d="M40.5212 419.26C77.6716 412.042 122.886 414.194 157.145 399.346C181.892 388.622 204.872 370.838 231.761 363.593C262.766 355.235 298.642 353.825 330.527 348.592C360.94 343.599 388.427 332.42 417.973 324.891" stroke="url(#paint40_linear_2955_248)" stroke-opacity="0.4" stroke-width="0.75" stroke-miterlimit="10"></path> <path d="M44.4166 421.861C81.9764 415.361 129.349 420.369 163.567 404.832C186.736 394.313 203.696 375.219 229.305 367.64C261.378 358.142 299.876 354.839 333.159 348.642C362.345 343.205 390.603 335.078 419.434 328.406" stroke="url(#paint41_linear_2955_248)" stroke-opacity="0.4" stroke-width="0.75" stroke-miterlimit="10"></path> <path d="M48.0513 424.561C84.8972 418.795 136.797 426.667 169.569 410.162C190.925 399.405 202.995 379.973 227.494 372.119C260.543 361.533 301.164 356.318 335.731 349.115C364.078 343.213 392.562 337.906 420.874 331.903" stroke="url(#paint42_linear_2955_248)" stroke-opacity="0.4" stroke-width="0.75" stroke-miterlimit="10"></path> <path d="M51.3131 427.406C87.3797 422.155 143.41 432.429 174.943 415.281C195.02 404.362 202.602 385.22 226.528 377.118C260.608 365.574 302.442 358.401 338.205 350.154C366.187 343.701 394.214 340.957 422.311 335.374" stroke="url(#paint43_linear_2955_248)" stroke-opacity="0.4" stroke-width="0.75" stroke-miterlimit="10"></path> <path d="M54.0842 430.439C78.1585 427.038 99.929 427.734 123.664 427.945C141.698 428.109 163.409 429.207 179.482 420.138C198.864 409.201 202.787 390.971 226.577 382.72C261.892 370.462 303.637 361.273 340.552 351.9C368.574 344.785 395.613 344.257 423.728 338.821" stroke="url(#paint44_linear_2955_248)" stroke-opacity="0.4" stroke-width="0.75" stroke-miterlimit="10"></path> </g> <defs> <filter id="filter0_f_2955_248" x="50.8457" y="50.2219" width="482.181" height="378.394" filterUnits="userSpaceOnUse" color-interpolation-filters="sRGB"> <feFlood flood-opacity="0" result="BackgroundImageFix"></feFlood> <feBlend mode="normal" in="SourceGraphic" in2="BackgroundImageFix" result="shape"></feBlend> <feGaussianBlur stdDeviation="50" result="effect1_foregroundBlur_2955_248"></feGaussianBlur> </filter> <filter id="filter1_f_2955_248" x="-141.104" y="121.765" width="511.596" height="360.054" filterUnits="userSpaceOnUse" color-interpolation-filters="sRGB"> <feFlood flood-opacity="0" result="BackgroundImageFix"></feFlood> <feBlend mode="normal" in="SourceGraphic" in2="BackgroundImageFix" result="shape"></feBlend> <feGaussianBlur stdDeviation="50" result="effect1_foregroundBlur_2955_248"></feGaussianBlur> </filter> <filter id="filter2_f_2955_248" x="-141.104" y="185.35" width="511.596" height="360.054" filterUnits="userSpaceOnUse" color-interpolation-filters="sRGB"> <feFlood flood-opacity="0" result="BackgroundImageFix"></feFlood> <feBlend mode="normal" in="SourceGraphic" in2="BackgroundImageFix" result="shape"></feBlend> <feGaussianBlur stdDeviation="50" result="effect1_foregroundBlur_2955_248"></feGaussianBlur> </filter> <linearGradient id="paint0_linear_2955_248" x1="199.155" y1="151.278" x2="173.589" y2="-47.0218" gradientUnits="userSpaceOnUse"> <stop stop-color="#141516"></stop> <stop offset="1" stop-color="#141516" stop-opacity="0"></stop> </linearGradient> <linearGradient id="paint1_linear_2955_248" x1="22.4138" y1="-105.071" x2="446.79" y2="69.1033" gradientUnits="userSpaceOnUse"> <stop stop-color="#292524" stop-opacity="0.63"></stop> <stop offset="1" stop-color="#1B1920"></stop> </linearGradient> <linearGradient id="paint2_linear_2955_248" x1="13" y1="1.00001" x2="375.961" y2="27.8965" gradientUnits="userSpaceOnUse"> <stop stop-color="#4E4A49"></stop> <stop offset="1" stop-color="#524E67" stop-opacity="0.35"></stop> <stop offset="1" stop-color="#292831"></stop> </linearGradient> <linearGradient id="paint3_linear_2955_248" x1="-39.8318" y1="-91.6316" x2="436.725" y2="245.956" gradientUnits="userSpaceOnUse"> <stop stop-color="#FFC7E2"></stop> <stop offset="1" stop-color="#5C519B" stop-opacity="0.08"></stop> </linearGradient> <linearGradient id="paint4_linear_2955_248" x1="395.026" y1="469.947" x2="-82.4428" y2="-4.76739" gradientUnits="userSpaceOnUse"> <stop stop-color="#686079" stop-opacity="0.05"></stop> <stop offset="1" stop-color="#FFEFF5" stop-opacity="0.1"></stop> </linearGradient> <linearGradient id="paint5_linear_2955_248" x1="185.278" y1="246.561" x2="189.926" y2="265.222" gradientUnits="userSpaceOnUse"> <stop stop-color="#D1E9FF" stop-opacity="0.85"></stop> <stop offset="1" stop-color="#FFDBDB" stop-opacity="0.96"></stop> </linearGradient> <linearGradient id="paint6_linear_2955_248" x1="186.499" y1="249.706" x2="191.141" y2="268.336" gradientUnits="userSpaceOnUse"> <stop stop-color="#D1E9FF" stop-opacity="0.85"></stop> <stop offset="1" stop-color="#FFDBDB" stop-opacity="0.96"></stop> </linearGradient> <linearGradient id="paint7_linear_2955_248" x1="187.588" y1="252.653" x2="192.115" y2="270.813" gradientUnits="userSpaceOnUse"> <stop stop-color="#D1E9FF" stop-opacity="0.85"></stop> <stop offset="1" stop-color="#FFDBDB" stop-opacity="0.96"></stop> </linearGradient> <linearGradient id="paint8_linear_2955_248" x1="188.261" y1="254.657" x2="192.789" y2="272.824" gradientUnits="userSpaceOnUse"> <stop stop-color="#D1E9FF" stop-opacity="0.85"></stop> <stop offset="1" stop-color="#FFDBDB" stop-opacity="0.96"></stop> </linearGradient> <linearGradient id="paint9_linear_2955_248" x1="188.761" y1="256.233" x2="193.297" y2="274.43" gradientUnits="userSpaceOnUse"> <stop stop-color="#D1E9FF" stop-opacity="0.85"></stop> <stop offset="1" stop-color="#FFDBDB" stop-opacity="0.96"></stop> </linearGradient> <linearGradient id="paint10_linear_2955_248" x1="189.11" y1="257.478" x2="193.935" y2="276.859" gradientUnits="userSpaceOnUse"> <stop stop-color="#D1E9FF" stop-opacity="0.85"></stop> <stop offset="1" stop-color="#FFDBDB" stop-opacity="0.96"></stop> </linearGradient> <linearGradient id="paint11_linear_2955_248" x1="189.39" y1="258.449" x2="195.069" y2="281.335" gradientUnits="userSpaceOnUse"> <stop stop-color="#D1E9FF" stop-opacity="0.85"></stop> <stop offset="1" stop-color="#FFDBDB" stop-opacity="0.96"></stop> </linearGradient> <linearGradient id="paint12_linear_2955_248" x1="189.633" y1="259.35" x2="196.234" y2="286.034" gradientUnits="userSpaceOnUse"> <stop stop-color="#D1E9FF" stop-opacity="0.85"></stop> <stop offset="1" stop-color="#FFDBDB" stop-opacity="0.96"></stop> </linearGradient> <linearGradient id="paint13_linear_2955_248" x1="189.875" y1="260.303" x2="197.397" y2="290.795" gradientUnits="userSpaceOnUse"> <stop stop-color="#D1E9FF" stop-opacity="0.85"></stop> <stop offset="1" stop-color="#FFDBDB" stop-opacity="0.96"></stop> </linearGradient> <linearGradient id="paint14_linear_2955_248" x1="190.187" y1="261.401" x2="198.583" y2="295.519" gradientUnits="userSpaceOnUse"> <stop stop-color="#D1E9FF" stop-opacity="0.85"></stop> <stop offset="1" stop-color="#FFDBDB" stop-opacity="0.96"></stop> </linearGradient> <linearGradient id="paint15_linear_2955_248" x1="190.631" y1="262.78" x2="199.809" y2="300.151" gradientUnits="userSpaceOnUse"> <stop stop-color="#D1E9FF" stop-opacity="0.85"></stop> <stop offset="1" stop-color="#FFDBDB" stop-opacity="0.96"></stop> </linearGradient> <linearGradient id="paint16_linear_2955_248" x1="191.223" y1="264.529" x2="201.056" y2="304.621" gradientUnits="userSpaceOnUse"> <stop stop-color="#D1E9FF" stop-opacity="0.85"></stop> <stop offset="1" stop-color="#FFDBDB" stop-opacity="0.96"></stop> </linearGradient> <linearGradient id="paint17_linear_2955_248" x1="192.04" y1="266.768" x2="202.356" y2="308.877" gradientUnits="userSpaceOnUse"> <stop stop-color="#D1E9FF" stop-opacity="0.85"></stop> <stop offset="1" stop-color="#FFDBDB" stop-opacity="0.96"></stop> </linearGradient> <linearGradient id="paint18_linear_2955_248" x1="193.11" y1="269.597" x2="203.704" y2="312.866" gradientUnits="userSpaceOnUse"> <stop stop-color="#D1E9FF" stop-opacity="0.85"></stop> <stop offset="1" stop-color="#FFDBDB" stop-opacity="0.96"></stop> </linearGradient> <linearGradient id="paint19_linear_2955_248" x1="194.44" y1="273.091" x2="205.019" y2="316.295" gradientUnits="userSpaceOnUse"> <stop stop-color="#D1E9FF" stop-opacity="0.85"></stop> <stop offset="1" stop-color="#FFDBDB" stop-opacity="0.96"></stop> </linearGradient> <linearGradient id="paint20_linear_2955_248" x1="195.618" y1="277.052" x2="206.125" y2="319.957" gradientUnits="userSpaceOnUse"> <stop stop-color="#D1E9FF" stop-opacity="0.85"></stop> <stop offset="1" stop-color="#FFDBDB" stop-opacity="0.96"></stop> </linearGradient> <linearGradient id="paint21_linear_2955_248" x1="196.63" y1="281.394" x2="207.013" y2="323.775" gradientUnits="userSpaceOnUse"> <stop stop-color="#D1E9FF" stop-opacity="0.85"></stop> <stop offset="1" stop-color="#FFDBDB" stop-opacity="0.96"></stop> </linearGradient> <linearGradient id="paint22_linear_2955_248" x1="197.537" y1="286.082" x2="207.739" y2="327.706" gradientUnits="userSpaceOnUse"> <stop stop-color="#D1E9FF" stop-opacity="0.85"></stop> <stop offset="1" stop-color="#FFDBDB" stop-opacity="0.96"></stop> </linearGradient> <linearGradient id="paint23_linear_2955_248" x1="198.379" y1="291.096" x2="208.343" y2="331.722" gradientUnits="userSpaceOnUse"> <stop stop-color="#D1E9FF" stop-opacity="0.85"></stop> <stop offset="1" stop-color="#FFDBDB" stop-opacity="0.96"></stop> </linearGradient> <linearGradient id="paint24_linear_2955_248" x1="199.201" y1="296.39" x2="208.827" y2="335.605" gradientUnits="userSpaceOnUse"> <stop stop-color="#D1E9FF" stop-opacity="0.85"></stop> <stop offset="1" stop-color="#FFDBDB" stop-opacity="0.96"></stop> </linearGradient> <linearGradient id="paint25_linear_2955_248" x1="200.207" y1="302.385" x2="209.436" y2="339.943" gradientUnits="userSpaceOnUse"> <stop stop-color="#D1E9FF" stop-opacity="0.85"></stop> <stop offset="1" stop-color="#FFDBDB" stop-opacity="0.96"></stop> </linearGradient> <linearGradient id="paint26_linear_2955_248" x1="201.063" y1="308.04" x2="209.933" y2="344.098" gradientUnits="userSpaceOnUse"> <stop stop-color="#D1E9FF" stop-opacity="0.85"></stop> <stop offset="1" stop-color="#FFDBDB" stop-opacity="0.96"></stop> </linearGradient> <linearGradient id="paint27_linear_2955_248" x1="202.046" y1="313.857" x2="210.51" y2="348.228" gradientUnits="userSpaceOnUse"> <stop stop-color="#D1E9FF" stop-opacity="0.85"></stop> <stop offset="1" stop-color="#FFDBDB" stop-opacity="0.96"></stop> </linearGradient> <linearGradient id="paint28_linear_2955_248" x1="203.171" y1="319.788" x2="211.187" y2="352.296" gradientUnits="userSpaceOnUse"> <stop stop-color="#D1E9FF" stop-opacity="0.85"></stop> <stop offset="1" stop-color="#FFDBDB" stop-opacity="0.96"></stop> </linearGradient> <linearGradient id="paint29_linear_2955_248" x1="204.468" y1="325.78" x2="211.995" y2="356.262" gradientUnits="userSpaceOnUse"> <stop stop-color="#D1E9FF" stop-opacity="0.85"></stop> <stop offset="1" stop-color="#FFDBDB" stop-opacity="0.96"></stop> </linearGradient> <linearGradient id="paint30_linear_2955_248" x1="204.893" y1="328.919" x2="212.628" y2="360.258" gradientUnits="userSpaceOnUse"> <stop stop-color="#D1E9FF" stop-opacity="0.85"></stop> <stop offset="1" stop-color="#FFDBDB" stop-opacity="0.96"></stop> </linearGradient> <linearGradient id="paint31_linear_2955_248" x1="205.347" y1="331.336" x2="213.426" y2="364.1" gradientUnits="userSpaceOnUse"> <stop stop-color="#D1E9FF" stop-opacity="0.85"></stop> <stop offset="1" stop-color="#FFDBDB" stop-opacity="0.96"></stop> </linearGradient> <linearGradient id="paint32_linear_2955_248" x1="206.379" y1="334.446" x2="214.575" y2="367.69" gradientUnits="userSpaceOnUse"> <stop stop-color="#D1E9FF" stop-opacity="0.85"></stop> <stop offset="1" stop-color="#FFDBDB" stop-opacity="0.96"></stop> </linearGradient> <linearGradient id="paint33_linear_2955_248" x1="208.167" y1="338.474" x2="216.078" y2="370.541" gradientUnits="userSpaceOnUse"> <stop stop-color="#D1E9FF" stop-opacity="0.85"></stop> <stop offset="1" stop-color="#FFDBDB" stop-opacity="0.96"></stop> </linearGradient> <linearGradient id="paint34_linear_2955_248" x1="210.633" y1="343.336" x2="217.825" y2="372.429" gradientUnits="userSpaceOnUse"> <stop stop-color="#D1E9FF" stop-opacity="0.85"></stop> <stop offset="1" stop-color="#FFDBDB" stop-opacity="0.96"></stop> </linearGradient> <linearGradient id="paint35_linear_2955_248" x1="213.604" y1="348.717" x2="219.776" y2="373.604" gradientUnits="userSpaceOnUse"> <stop stop-color="#D1E9FF" stop-opacity="0.85"></stop> <stop offset="1" stop-color="#FFDBDB" stop-opacity="0.96"></stop> </linearGradient> <linearGradient id="paint36_linear_2955_248" x1="216.872" y1="354.263" x2="221.839" y2="374.207" gradientUnits="userSpaceOnUse"> <stop stop-color="#D1E9FF" stop-opacity="0.85"></stop> <stop offset="1" stop-color="#FFDBDB" stop-opacity="0.96"></stop> </linearGradient> <linearGradient id="paint37_linear_2955_248" x1="219.61" y1="357.967" x2="223.793" y2="374.71" gradientUnits="userSpaceOnUse"> <stop stop-color="#D1E9FF" stop-opacity="0.85"></stop> <stop offset="1" stop-color="#FFDBDB" stop-opacity="0.96"></stop> </linearGradient> <linearGradient id="paint38_linear_2955_248" x1="222.028" y1="360.544" x2="225.629" y2="374.923" gradientUnits="userSpaceOnUse"> <stop stop-color="#D1E9FF" stop-opacity="0.85"></stop> <stop offset="1" stop-color="#FFDBDB" stop-opacity="0.96"></stop> </linearGradient> <linearGradient id="paint39_linear_2955_248" x1="224.441" y1="362.944" x2="227.664" y2="375.791" gradientUnits="userSpaceOnUse"> <stop stop-color="#D1E9FF" stop-opacity="0.85"></stop> <stop offset="1" stop-color="#FFDBDB" stop-opacity="0.96"></stop> </linearGradient> <linearGradient id="paint40_linear_2955_248" x1="226.761" y1="364.804" x2="231.187" y2="382.543" gradientUnits="userSpaceOnUse"> <stop stop-color="#D1E9FF" stop-opacity="0.85"></stop> <stop offset="1" stop-color="#FFDBDB" stop-opacity="0.96"></stop> </linearGradient> <linearGradient id="paint41_linear_2955_248" x1="229.262" y1="367.414" x2="234.599" y2="388.886" gradientUnits="userSpaceOnUse"> <stop stop-color="#D1E9FF" stop-opacity="0.85"></stop> <stop offset="1" stop-color="#FFDBDB" stop-opacity="0.96"></stop> </linearGradient> <linearGradient id="paint42_linear_2955_248" x1="231.744" y1="370.411" x2="237.89" y2="395.215" gradientUnits="userSpaceOnUse"> <stop stop-color="#D1E9FF" stop-opacity="0.85"></stop> <stop offset="1" stop-color="#FFDBDB" stop-opacity="0.96"></stop> </linearGradient> <linearGradient id="paint43_linear_2955_248" x1="234.186" y1="373.873" x2="240.92" y2="401.105" gradientUnits="userSpaceOnUse"> <stop stop-color="#D1E9FF" stop-opacity="0.85"></stop> <stop offset="1" stop-color="#FFDBDB" stop-opacity="0.96"></stop> </linearGradient> <linearGradient id="paint44_linear_2955_248" x1="236.446" y1="377.609" x2="243.506" y2="406.193" gradientUnits="userSpaceOnUse"> <stop stop-color="#D1E9FF" stop-opacity="0.85"></stop> <stop offset="1" stop-color="#FFDBDB" stop-opacity="0.96"></stop> </linearGradient> </defs> </svg> 