<?xml version="1.0" encoding="UTF-8"?> <svg xmlns="http://www.w3.org/2000/svg" width="440" height="351" viewBox="0 0 440 351" fill="none"> <rect x="0.5" y="0.5" width="439" height="350" rx="19.5" fill="url(#paint0_linear_2993_402)" fill-opacity="0.5" stroke="url(#paint1_linear_2993_402)"></rect> <mask id="mask0_2993_402" style="mask-type:alpha" maskUnits="userSpaceOnUse" x="0" y="0" width="440" height="351"> <rect width="440" height="351" rx="20" fill="url(#paint2_linear_2993_402)"></rect> <rect width="440" height="351" rx="20" fill="url(#paint3_linear_2993_402)"></rect> </mask> <g mask="url(#mask0_2993_402)"> <g filter="url(#filter0_f_2993_402)"> <ellipse rx="125.817" ry="96.9565" transform="matrix(-1.00159 0.0724229 0.486169 0.774685 506.154 4.22268)" fill="#EE5F56" fill-opacity="0.35"></ellipse> </g> <g filter="url(#filter1_f_2993_402)"> <ellipse rx="125.313" ry="64.4355" transform="matrix(-1.00154 0.0717805 0.489401 0.772769 45.0403 251.789)" fill="#FFCCC9" fill-opacity="0.11"></ellipse> </g> <g filter="url(#filter2_f_2993_402)"> <path d="M-139.198 270.494C-158.419 293.769 -119.229 332.373 -51.6652 356.717C15.8984 381.061 86.2505 381.927 105.471 358.651C124.691 335.376 635.723 423.206 568.16 398.862C500.596 374.518 -119.978 247.219 -139.198 270.494Z" fill="#FF9EBB" fill-opacity="0.13"></path> </g> <g filter="url(#filter3_f_2993_402)"> <path d="M343.703 23.8608C254.81 96.4282 353.163 76.4602 453.622 150.467C554.081 224.473 268.457 213.664 505.252 265.042C538.041 242.408 618.975 223.389 518.515 149.383C418.056 75.3765 507.313 -15.8315 343.703 23.8608Z" fill="#2D54B9" fill-opacity="0.35"></path> </g> <g filter="url(#filter4_f_2993_402)"> <path d="M256.489 371.085C295.459 238.516 209.999 327.71 56.443 328.854C-97.1128 329.999 246.383 148.841 -29.1815 268.81C-46.4572 313.771 -161.987 377.327 -8.4312 376.182C145.125 375.038 118.871 525.63 256.489 371.085Z" fill="#E09F53" fill-opacity="0.24"></path> </g> <path opacity="0.7" d="M155.318 379.976C155.318 379.976 139.901 358.735 115.288 336.585C90.6759 314.434 65.2065 333.699 33.5392 324.461C1.87181 315.223 44.1679 249.795 23.2868 231.934C2.40562 214.072 -66.3717 252.436 -107.513 224.73C-148.655 197.025 -128.848 162.112 -128.848 162.112M155.564 379.885C155.564 379.885 139.547 358.685 115.124 336.839C90.6998 314.994 65.8574 333.33 34.679 324.155C3.50047 314.98 44.6055 251.068 23.7316 233.434C2.85766 215.8 -64.7964 252.935 -105.884 224.943C-146.971 196.951 -128.561 162.755 -129.126 162.297M155.826 379.81C155.826 379.81 139.209 358.651 114.973 337.097C90.7364 315.543 66.5077 332.951 35.8193 323.852C5.13087 314.754 45.0558 252.331 24.1649 234.953C3.27396 217.575 -63.2181 253.465 -104.264 225.187C-145.31 196.91 -128.274 163.402 -129.391 162.484M156.074 379.732C156.074 379.732 138.855 358.601 114.808 337.352C90.7602 316.102 67.144 332.57 36.9602 323.559C6.77639 314.549 45.5066 253.603 24.6108 236.467C3.71504 219.331 -61.6417 253.977 -102.633 225.413C-143.625 196.849 -127.974 164.044 -129.656 162.668M156.321 379.645C156.321 379.645 138.502 358.555 114.643 337.611C90.7846 316.666 67.7954 332.205 38.1005 323.257C8.40559 314.31 45.9436 254.867 25.0574 237.985C4.17126 221.102 -60.0514 254.493 -101.002 225.643C-141.952 196.794 -127.674 164.69 -129.921 162.855M156.569 379.568C156.569 379.568 138.15 358.518 114.465 337.866C90.7806 317.215 68.4184 331.825 39.2136 322.953C10.0088 314.082 46.3679 256.141 25.4756 239.487C4.58334 222.834 -58.5028 254.994 -99.3974 225.871C-140.292 196.749 -127.401 165.334 -130.2 163.04M156.816 379.479C156.816 379.479 137.796 358.471 114.301 338.124C90.8049 317.777 69.0552 331.446 40.3538 322.65C11.6524 313.853 46.818 257.402 25.9075 240.991C4.99707 224.581 -56.9259 255.509 -97.7805 226.088C-138.635 196.666 -127.101 165.978 -130.478 163.227M157.064 379.403C157.064 379.403 137.444 358.436 114.136 338.38C90.8277 318.324 69.7063 331.078 41.4816 322.359C13.2703 313.64 47.2425 258.678 26.3417 242.521C5.44084 226.365 -55.3613 256.038 -96.1614 226.33C-136.962 196.622 -126.814 166.623 -130.743 163.412M157.312 379.327C157.312 379.327 137.092 358.401 113.971 338.637C90.8507 318.873 70.343 330.699 42.6217 322.056C14.9005 313.412 47.6937 259.952 26.7868 244.024C5.87987 228.096 -53.7724 256.538 -94.5169 226.557C-135.261 196.576 -126.527 167.268 -131.021 163.599M157.559 379.236C157.559 379.236 136.739 358.351 113.807 338.892C90.8746 319.432 70.9794 330.318 43.7615 321.749C16.5437 313.181 48.1302 261.212 27.2317 245.524C6.33319 229.837 -52.1838 257.036 -92.887 226.769C-133.59 196.503 -126.227 167.91 -131.286 163.782M157.807 379.16C157.807 379.16 136.385 358.303 113.629 339.149C90.872 319.996 71.6171 329.952 44.876 321.46C18.1349 312.969 48.5546 262.488 27.6391 247.057C6.72363 231.626 -50.6447 257.581 -91.2946 227.014C-131.945 196.447 -125.941 168.555 -131.551 163.967M158.055 379.085C158.055 379.085 136.033 358.269 113.465 339.42C90.8975 320.571 72.255 329.586 46.0174 321.17C19.7797 312.754 49.0059 263.762 28.0855 248.573C7.16515 233.384 -49.0546 258.094 -89.6621 227.256C-130.27 196.417 -125.654 169.2 -131.83 164.154M158.302 378.994C158.302 378.994 135.68 358.218 113.299 339.661C90.919 321.104 72.8902 329.191 47.1427 320.851C21.3951 312.512 49.429 265.023 28.5171 250.074C7.60514 235.126 -47.4926 258.595 -88.0456 227.469C-128.599 196.344 -125.354 169.842 -132.095 164.337M158.55 378.92C158.55 378.92 135.328 358.186 113.135 339.92C90.9421 321.654 73.5416 328.826 48.2841 320.563C23.0266 312.299 49.8804 266.299 28.9636 251.592C8.0468 236.886 -45.9011 259.123 -86.4141 227.699C-126.927 196.275 -125.067 170.489 -132.373 164.526M158.798 378.842C158.798 378.842 134.975 358.149 112.958 340.189C90.9406 322.23 74.1659 328.46 49.4118 320.271C24.6577 312.082 50.318 267.572 29.383 253.108C8.44802 238.645 -44.3512 259.638 -84.8097 227.928C-125.268 196.217 -124.78 171.145 -132.638 164.709M159.045 378.754C159.045 378.754 134.622 358.102 112.792 340.434C90.9625 322.766 74.8015 328.068 50.5375 319.956C26.2735 311.843 50.7416 268.836 29.815 254.613C8.88841 240.391 -42.7755 260.141 -83.1916 228.158C-123.608 196.175 -124.479 171.79 -132.916 164.897M159.293 378.677C159.293 378.677 134.27 358.066 112.629 340.703C90.9877 323.339 75.4537 327.713 51.6786 319.664C27.9047 311.628 51.1926 270.109 30.2611 256.128C9.32966 242.147 -41.1989 260.654 -81.5605 228.385C-121.922 196.115 -124.193 172.434 -133.182 165.081M159.541 378.601C159.541 378.601 133.917 358.018 112.464 340.96C91.0119 323.901 76.0904 327.334 52.8066 319.374C29.5361 311.413 51.6172 271.385 30.6954 257.658C9.77358 243.931 -39.6197 261.195 -79.9413 228.627C-120.263 196.059 -123.906 173.079 -133.445 165.28M159.788 378.51C159.788 378.51 133.563 357.968 112.298 341.201C91.0334 324.434 76.7256 326.939 53.9451 319.054C31.1647 311.169 52.0657 272.63 31.1257 259.146C10.1857 245.662 -38.0589 261.682 -78.3248 228.841C-118.591 195.999 -123.606 173.721 -133.724 165.465M160.036 378.435C160.036 378.435 133.211 357.934 112.122 341.472C91.0321 325.011 77.3647 326.587 55.0731 318.765C32.7961 310.955 52.5049 273.919 31.5721 260.662C10.6393 247.406 -36.4689 262.196 -76.6935 229.069C-116.918 195.942 -123.307 174.351 -133.99 165.637M160.296 378.345C160.296 378.345 132.871 357.885 111.969 341.715C91.0671 325.545 78.0134 326.193 56.2131 318.461C34.4128 310.728 52.9415 275.181 32.005 262.179C11.0685 249.178 -34.8922 262.71 -75.0757 229.298C-115.259 195.886 -123.021 174.996 -134.255 165.822M160.544 378.267C160.544 378.267 132.519 357.848 111.806 341.983C91.0779 326.106 78.6512 325.825 57.341 318.169C36.0441 310.512 53.3793 276.454 32.4379 263.694C11.4966 250.935 -33.3276 263.238 -73.4565 229.539C-113.586 195.84 -122.733 175.653 -134.532 166.021M160.793 378.193C160.793 378.193 132.167 357.815 111.641 342.242C91.1155 326.668 79.3024 325.46 58.4811 317.867C37.6732 310.272 53.8306 277.73 32.8698 265.2C11.9091 252.67 -31.7519 263.741 -71.8397 229.757C-111.927 195.772 -122.447 176.286 -134.812 166.196M161.039 378.101C161.039 378.101 131.814 357.765 111.475 342.482C91.137 327.2 79.9377 325.065 59.621 317.56C39.3031 310.042 54.2671 278.989 33.316 266.713C12.3648 254.437 -30.1753 264.253 -70.2086 229.982C-110.242 195.711 -122.159 176.942 -135.076 166.392M161.288 378.028C161.288 378.028 131.46 357.719 111.299 342.756C91.1371 327.793 80.5623 324.702 60.749 317.272C40.9212 309.83 54.7051 280.266 33.7491 268.232C12.793 256.198 -28.5985 264.769 -68.5894 230.226C-108.58 195.684 -121.859 177.588 -135.341 166.579M161.536 377.95C161.536 377.95 131.108 357.682 111.134 343.011C91.1598 328.339 81.2133 324.333 61.8756 316.967C42.5379 309.601 55.1283 281.527 34.1819 269.747C13.2355 257.967 -27.034 265.296 -66.9716 230.453C-106.909 195.611 -121.573 178.231 -135.619 166.764M161.782 377.859C161.782 377.859 130.755 357.632 110.969 343.266C91.1838 328.899 81.8498 323.952 63.0155 316.661C44.1811 309.371 55.5793 282.799 34.6135 271.249C13.6477 259.699 -25.4587 265.796 -65.3551 230.668C-105.251 195.54 -121.286 178.874 -135.885 166.934M162.031 377.785C162.031 377.785 130.403 357.599 110.805 343.524C91.207 329.449 82.4878 323.587 64.1569 316.372C45.8127 309.157 56.0307 284.074 35.06 272.766C14.0894 261.458 -23.8817 266.312 -63.7235 230.897C-103.565 195.482 -120.986 179.519 -136.15 167.121M162.278 377.707C162.278 377.707 130.05 357.562 110.627 343.78C91.2042 330.011 83.1242 323.206 65.27 316.068C47.4159 308.93 56.4405 285.337 35.4794 274.282C14.5184 263.228 -22.3185 266.826 -62.118 231.139C-101.917 195.452 -120.712 180.177 -136.441 167.32M162.526 377.62C162.526 377.62 129.697 357.516 110.462 344.039C91.2274 330.561 83.7611 322.829 66.4103 315.766C49.0596 308.703 56.8919 286.612 35.9248 275.787C14.9576 264.961 -20.7415 267.342 -60.4877 231.355C-100.234 195.368 -120.413 180.81 -136.694 167.493M162.773 377.542C162.773 377.542 129.345 357.48 110.297 344.294C91.25 331.107 84.3986 322.461 67.538 315.474C50.6773 308.487 57.3295 287.886 36.3454 277.316C15.3612 266.747 -19.1772 267.869 -58.8822 231.597C-98.5872 195.325 -120.126 181.453 -136.971 167.691M163.02 377.454C163.02 377.454 128.99 357.419 110.133 344.551C91.2609 331.671 85.0486 322.081 68.6781 315.17C52.3075 308.26 57.7662 289.148 36.7905 278.819C15.8148 268.491 -17.6016 268.371 -57.2509 231.825C-96.9002 195.28 -119.826 182.097 -137.236 167.877M163.269 377.377C163.269 377.377 128.638 357.383 109.968 344.807C91.285 332.231 85.6853 321.701 69.8181 314.865C53.9509 308.03 58.2162 290.408 37.2356 280.321C16.255 270.234 -16.0116 268.883 -55.6208 232.039C-95.2301 195.195 -119.526 182.74 -137.502 168.048M163.517 377.302C163.517 377.302 128.286 357.349 109.79 345.065C91.2946 332.782 86.3097 321.337 70.9327 314.578C55.5556 307.818 58.6419 291.698 37.6564 281.853C16.671 272.008 -14.447 269.413 -54.015 232.284C-93.5831 195.154 -119.251 183.4 -137.793 168.25M163.763 377.211C163.763 377.211 127.933 357.299 109.626 345.32C91.3186 333.341 86.9596 320.954 72.0726 314.271C57.1856 307.588 59.0785 292.958 38.0881 283.355C17.0978 273.752 -12.8849 269.914 -52.3972 232.511C-91.9096 195.108 -118.965 184.043 -138.071 168.435M164.011 377.135C164.011 377.135 127.581 357.264 109.461 345.576C91.3414 333.888 87.5961 320.574 73.1992 313.968C58.8023 307.361 59.515 294.219 38.5198 284.858C17.5245 275.496 -11.3095 270.414 -50.7806 232.726C-90.2518 195.038 -118.679 184.674 -138.337 168.606M164.26 377.06C164.26 377.06 127.229 357.23 109.298 345.847C91.367 334.464 88.2353 320.223 74.3406 313.677C60.4471 307.146 59.9542 295.508 38.9674 286.387C17.9806 277.267 -9.73013 270.956 -49.148 232.968C-88.5659 194.98 -118.378 185.332 -138.601 168.806M164.506 376.969C164.506 376.969 126.875 357.18 109.132 346.088C91.3751 334.998 88.8838 319.827 75.4804 313.371C62.0769 306.915 60.404 296.767 39.4123 287.888C18.4206 279.009 -8.14155 271.454 -47.517 233.194C-86.8925 194.933 -118.079 185.96 -138.866 168.989M164.768 376.893C164.768 376.893 126.535 357.132 108.967 346.346C91.3994 335.561 89.5206 319.449 76.6073 313.069C63.6939 306.69 60.8408 298.029 39.8321 289.407C18.8235 280.785 -6.59126 271.972 -45.9122 233.425C-85.2332 194.878 -117.805 186.621 -139.145 169.177M165.016 376.816C165.016 376.816 126.183 357.096 108.804 346.615C91.4246 336.134 90.1595 319.095 77.7483 312.777C65.3384 306.473 61.2797 299.317 40.2783 290.922C19.2768 282.527 -5.00138 272.484 -44.2811 233.652C-83.5609 194.82 -117.505 187.264 -139.41 169.361M165.263 376.728C165.263 376.728 125.83 357.049 108.638 346.86C91.4465 336.671 90.8083 318.702 78.8752 312.475C66.942 306.248 61.7165 300.58 40.7102 292.426C19.7051 284.287 -3.43781 273.001 -42.6631 233.882C-81.8883 194.763 -117.205 187.909 -139.675 169.547M165.511 376.65C165.511 376.65 125.477 357.012 108.475 347.128C91.4583 337.244 91.446 318.334 80.0162 312.182C68.5865 306.03 62.1675 301.851 41.1575 293.953C20.1475 286.055 -1.84675 273.526 -41.0308 234.121C-80.2149 194.717 -116.918 188.552 -139.953 169.732M165.758 376.562C165.758 376.562 125.124 356.966 108.296 347.374C91.4669 337.782 92.0695 317.957 81.1419 311.867C70.2023 305.792 62.5898 303.102 41.5749 295.446C20.56 287.79 -0.29885 274.017 -39.4284 234.326C-78.558 194.635 -116.631 189.198 -140.218 169.919M166.006 376.486C166.006 376.486 124.772 356.93 108.131 347.63C91.4908 338.343 92.7192 317.576 82.2696 311.577C71.8201 305.577 63.0287 304.39 42.0077 296.962C20.9867 289.535 1.27769 274.531 -37.8107 234.555C-76.899 194.578 -116.346 189.829 -140.498 170.091M166.254 376.407C166.254 376.407 124.42 356.893 107.967 347.897C91.5149 338.902 93.357 317.208 83.4108 311.283C73.4646 305.359 63.4665 305.662 42.4552 298.489C21.4438 291.315 2.87008 275.068 -36.1638 234.805C-75.1976 194.543 -116.045 190.483 -140.762 170.287M166.501 376.32C166.501 376.32 124.065 356.833 107.802 348.142C91.5379 339.452 93.9937 316.83 84.5497 310.967C75.0924 305.106 63.9153 306.912 42.8991 299.98C21.8829 293.048 4.44447 275.558 -34.5349 235.009C-73.5142 194.459 -115.733 191.114 -141.014 170.46M166.749 376.243C166.749 376.243 123.713 356.797 107.638 348.411C91.5486 340.013 94.6448 316.461 85.6775 310.676C76.7103 304.891 64.3543 308.198 43.3199 301.51C22.2855 294.821 6.00902 276.085 -32.9291 235.25C-71.8673 194.416 -115.458 191.772 -141.292 170.658M166.997 376.168C166.997 376.168 123.361 356.763 107.46 348.669C91.5595 340.576 95.2681 316.084 86.8055 310.387C78.3417 304.677 64.7789 309.475 43.7529 303.027C22.7269 296.579 7.57367 276.615 -31.31 235.494C-70.1936 194.372 -115.17 192.431 -141.569 170.859M167.244 376.077C167.244 376.077 123.008 356.714 107.294 348.912C91.5811 341.11 95.9047 315.704 87.9309 310.07C79.9572 304.436 65.2143 310.723 44.1834 304.516C23.1525 298.31 9.14794 277.102 -29.6945 235.695C-68.5369 194.288 -114.886 193.049 -141.85 171.018M167.492 376.002C167.492 376.002 122.656 356.68 107.131 349.183C91.6065 341.686 96.5558 315.337 89.0722 309.779C81.5886 304.222 65.6655 311.997 44.6309 306.046C23.5964 300.095 10.7259 277.631 -28.062 235.937C-66.85 194.244 -114.585 193.706 -142.1 171.216M167.74 375.925C167.74 375.925 122.303 356.643 106.966 349.438C91.6293 342.232 97.1923 314.956 90.2133 309.487C83.2343 304.017 66.1045 313.284 45.0638 307.561C24.0231 301.839 12.3025 278.143 -26.443 236.178C-65.1886 194.212 -114.297 194.363 -142.377 171.414M167.987 375.836C167.987 375.836 121.95 356.596 106.802 349.695C91.6401 342.795 97.8302 314.591 91.34 309.184C84.8499 303.778 66.5411 314.546 45.4968 309.079C24.4524 303.612 13.8671 278.673 -24.8251 236.407C-63.5173 194.142 -113.997 195.007 -142.656 171.601" stroke="url(#paint4_linear_2993_402)" stroke-width="0.2447" stroke-miterlimit="10"></path> <path opacity="0.7" d="M594.008 81.3699C594.008 81.3699 585.999 65.3658 571.904 47.7276C557.809 30.0894 538.533 40.2174 518.256 30.4815C497.979 20.7457 533.709 -18.5673 521.647 -32.9054C509.586 -47.2435 459.05 -29.0822 434.453 -52.2955C409.856 -75.5087 427.064 -96.7934 427.064 -96.7934M594.185 81.336C594.185 81.336 585.766 65.2928 571.765 47.8806C557.763 30.4685 539.012 40.0413 519.057 30.4022C499.102 20.763 533.861 -17.6622 521.779 -31.8466C509.698 -46.031 460.055 -28.5713 435.526 -51.9713C410.997 -75.3713 427.185 -96.329 426.856 -96.7003M594.369 81.3147C594.369 81.3147 585.543 65.2323 571.635 48.0371C557.726 30.8418 539.491 39.859 519.857 30.3256C500.224 20.7923 534.024 -16.7628 521.902 -30.7766C509.78 -44.7904 461.057 -28.0394 436.588 -51.6268C412.119 -75.2142 427.306 -95.8619 426.657 -96.6036M594.544 81.2898C594.544 81.2898 585.31 65.1593 571.495 48.1901C557.68 31.2209 539.962 39.6732 520.658 30.2554C501.354 20.8375 534.186 -15.8571 522.034 -29.7087C509.882 -43.5603 462.061 -27.5194 437.66 -51.2935C413.26 -75.0677 427.436 -95.3969 426.458 -96.5098M594.72 81.2588C594.72 81.2588 585.078 65.0892 571.356 48.346C557.634 31.6028 540.44 39.5001 521.458 30.1789C502.476 20.8578 534.339 -14.9582 522.165 -28.6379C509.992 -42.3176 463.074 -26.9958 438.732 -50.9573C414.391 -74.9189 427.566 -94.9289 426.259 -96.4131M594.896 81.234C594.896 81.234 584.845 65.0252 571.208 48.4983C557.57 31.9714 540.902 39.3136 522.241 30.0982C503.58 20.8829 534.483 -14.0538 522.28 -27.5805C510.076 -41.1071 464.06 -26.4861 439.786 -50.6254C415.513 -74.7646 427.679 -94.4652 426.051 -96.32M595.072 81.2018C595.072 81.2018 584.613 64.954 571.068 48.653C557.524 32.3521 541.372 39.1296 523.042 30.0206C504.711 20.9117 534.646 -13.1555 522.403 -26.5206C510.16 -39.8857 465.063 -25.9644 440.85 -50.3001C416.637 -74.6359 427.809 -93.9984 425.843 -96.2251M595.247 81.1782C595.247 81.1782 584.379 64.8912 570.929 48.8072C557.479 32.7232 541.851 38.9547 523.833 29.9509C505.823 20.9478 534.789 -12.2499 522.525 -25.4431C510.261 -38.6363 466.057 -25.4348 441.912 -49.9573C417.768 -74.4798 427.93 -93.5329 425.644 -96.1301M595.422 81.1551C595.422 81.1551 584.146 64.829 570.79 48.9619C557.433 33.0949 542.322 38.7706 524.634 29.8733C506.945 20.9759 534.951 -11.3425 522.657 -24.3826C510.363 -37.4227 467.07 -24.9214 442.993 -49.6216C418.917 -74.3217 428.051 -93.0668 425.436 -96.0352M595.598 81.1212C595.598 81.1212 583.914 64.7559 570.651 49.1149C557.387 33.4739 542.792 38.5848 525.434 29.7939C508.077 21.003 535.105 -10.4465 522.79 -23.3238C510.475 -36.201 468.084 -24.4098 444.066 -49.2974C420.049 -74.185 428.182 -92.6018 425.237 -95.9414M595.774 81.0975C595.774 81.0975 583.682 64.6841 570.502 49.2684C557.323 33.8527 543.262 38.4092 526.216 29.7235C509.171 21.0377 535.248 -9.54097 522.893 -22.2476C510.539 -34.9543 469.058 -23.8724 445.11 -48.9559C421.162 -74.0393 428.303 -92.1363 425.038 -95.8464M595.949 81.0745C595.949 81.0745 583.449 64.6219 570.362 49.4322C557.276 34.2425 543.732 38.2343 527.016 29.655C510.301 21.0756 535.41 -8.6335 523.025 -21.178C510.64 -33.7225 470.071 -23.35 446.182 -48.6118C422.292 -73.8735 428.424 -91.6702 424.83 -95.7515M596.125 81.0406C596.125 81.0406 583.217 64.5488 570.224 49.5761C557.231 34.6034 544.203 38.0394 527.809 29.5658C511.415 21.0923 535.555 -7.73821 523.149 -20.1199C510.742 -32.5015 471.066 -22.8397 447.246 -48.2882C423.425 -73.7367 428.554 -91.2051 424.631 -95.6577M596.301 81.0186C596.301 81.0186 582.983 64.4878 570.084 49.732C557.185 34.9762 544.682 37.8662 528.609 29.4985C512.536 21.1307 535.717 -6.82958 523.28 -19.0491C510.844 -31.2686 472.078 -22.307 448.318 -47.952C424.557 -73.5971 428.675 -90.7379 424.423 -95.5616M596.476 80.9938C596.476 80.9938 582.751 64.4239 569.935 49.8934C557.12 35.363 545.143 37.6889 529.4 29.4276C513.657 21.1663 535.869 -5.92454 523.394 -17.9825C510.918 -30.0405 473.064 -21.7884 449.371 -47.6201C425.679 -73.4519 428.796 -90.2644 424.225 -95.4678M596.652 80.9622C596.652 80.9622 582.518 64.3532 569.797 50.0396C557.075 35.7261 545.614 37.4963 530.192 29.3408C514.771 21.1853 536.014 -5.02692 523.517 -16.9221C511.02 -28.8172 474.068 -21.2751 450.434 -47.2852C426.801 -73.2953 428.926 -89.7971 424.017 -95.3723M596.827 80.938C596.827 80.938 582.285 64.2898 569.657 50.2023C557.029 36.1148 546.092 37.3299 530.992 29.2711C515.892 21.2214 536.176 -4.12061 523.649 -15.8536C511.122 -27.5866 475.071 -20.7545 451.506 -46.9513C427.942 -73.1482 429.047 -89.3321 423.818 -95.2779M597.003 80.9146C597.003 80.9146 582.053 64.2182 569.518 50.3567C556.983 36.4952 546.562 37.1455 531.784 29.2016C517.014 21.2583 536.319 -3.21485 523.771 -14.7759C511.222 -26.337 476.074 -20.2149 452.569 -46.6082C429.064 -73.0016 429.168 -88.8664 423.618 -95.1737M597.179 80.8807C597.179 80.8807 581.821 64.1451 569.379 50.5006C556.938 36.856 547.034 36.9506 532.585 29.1131C518.136 21.2756 536.483 -2.3273 523.895 -13.7269C511.307 -25.1264 477.069 -19.7137 453.633 -46.2847C430.196 -72.8557 429.299 -88.4014 423.41 -95.0805M597.354 80.8573C597.354 80.8573 581.588 64.0827 569.23 50.6635C556.873 37.2443 547.503 36.7845 533.376 29.0437C519.258 21.3127 536.635 -1.41164 524.027 -12.6574C511.418 -23.9032 478.082 -19.1915 454.705 -45.9499C431.327 -72.7083 429.43 -87.9439 423.212 -94.9943M597.539 80.8258C597.539 80.8258 581.364 64.012 569.101 50.8097C556.837 37.6075 547.983 36.5919 534.177 28.966C520.371 21.3401 536.788 -0.514055 524.149 -11.5886C511.51 -22.6631 479.086 -18.6698 455.768 -45.6157C432.45 -72.5615 429.551 -87.4779 423.013 -94.8988M597.715 80.8011C597.715 80.8011 581.131 63.9483 568.961 50.972C556.782 37.986 548.453 36.4154 534.968 28.8953C521.492 21.3758 536.941 0.391224 524.272 -10.5211C511.602 -21.4335 480.079 -18.1411 456.83 -45.2737C433.581 -72.4063 429.672 -87.0042 422.805 -94.7963M597.89 80.779C597.89 80.779 580.898 63.887 568.821 51.1277C556.744 38.3684 548.932 36.2421 535.769 28.8186C522.615 21.3958 537.103 1.29962 524.395 -9.46033C511.687 -20.2203 481.084 -17.6275 457.894 -44.9475C434.704 -72.2676 429.793 -86.5463 422.597 -94.7096M598.066 80.7448C598.066 80.7448 580.666 63.8136 568.683 51.2713C556.7 38.7289 549.403 36.0468 536.57 28.7389C523.737 21.4219 537.257 2.19524 524.527 -8.39279C511.797 -18.9808 482.087 -17.1078 458.966 -44.6146C435.844 -72.1214 429.914 -86.0732 422.398 -94.6071M598.241 80.7228C598.241 80.7228 580.434 63.7435 568.534 51.4355C556.634 39.1276 549.864 35.8724 537.36 28.6709C524.849 21.4597 537.409 3.10318 524.649 -7.32268C511.889 -17.7485 483.091 -16.5849 460.028 -44.27C436.965 -71.9551 430.044 -85.6053 422.199 -94.5103M598.417 80.698C598.417 80.698 580.201 63.6795 568.395 51.5885C556.589 39.4975 550.343 35.6963 538.152 28.5909C525.962 21.4854 537.554 3.99847 524.772 -6.25547C511.99 -16.5094 484.084 -16.0565 461.091 -43.9374C438.098 -71.8184 430.165 -85.1409 421.991 -94.4172M598.593 80.6645C598.593 80.6645 579.968 63.6069 568.255 51.7419C556.542 39.8769 550.813 35.5109 538.953 28.5119C527.093 21.5129 537.716 4.90455 524.895 -5.19697C512.075 -15.2985 485.089 -15.5452 462.155 -43.6135C439.221 -71.6819 430.287 -84.6762 421.793 -94.3321M598.768 80.642C598.768 80.642 579.735 63.5453 568.116 51.8972C556.497 40.2492 551.283 35.3365 539.753 28.444C528.214 21.5508 537.878 5.81261 525.027 -4.12674C512.177 -14.0661 486.092 -15.0228 463.227 -43.2779C440.361 -71.533 430.417 -84.2088 421.594 -94.2359M598.944 80.6174C598.944 80.6174 579.502 63.4815 567.968 52.0498C556.432 40.627 551.753 35.1509 540.536 28.3635C529.318 21.5761 538.013 6.70745 525.141 -3.05998C512.268 -12.8274 487.087 -14.5032 464.28 -42.9367C441.473 -71.3701 430.528 -83.7358 421.376 -94.1342M599.12 80.5862C599.12 80.5862 579.27 63.4112 567.828 52.2054C556.387 40.9997 552.224 34.9678 541.337 28.2868C530.449 21.6059 538.175 7.61586 525.273 -1.99848C512.371 -11.6128 488.09 -13.9805 465.353 -42.6098C442.615 -71.2391 430.659 -83.2772 421.187 -94.0461M599.295 80.5616C599.295 80.5616 579.037 63.3475 567.689 52.3586C556.341 41.3698 552.694 34.7913 542.128 28.2161C531.562 21.6409 538.328 8.52111 525.386 -0.922642C512.444 -10.3664 489.084 -13.4519 466.406 -42.2686C443.728 -71.0853 430.78 -82.8126 420.978 -93.9436M599.471 80.5294C599.471 80.5294 578.805 63.2671 567.55 52.5134C556.286 41.7499 553.173 34.6079 542.928 28.1385C532.684 21.6691 538.481 9.41883 525.518 0.137912C512.556 -9.143 490.088 -12.9392 467.478 -41.9335C444.868 -70.9279 430.911 -82.3458 420.779 -93.8481M599.646 80.5055C599.646 80.5055 578.572 63.2041 567.411 52.6673C556.24 42.1298 553.644 34.423 543.729 28.0601C533.815 21.6972 538.644 10.3164 525.651 1.19766C512.658 -7.92108 491.101 -12.4175 468.551 -41.6084C446.001 -70.7993 431.041 -81.8799 420.581 -93.7624M599.822 80.4827C599.822 80.4827 578.339 63.1421 567.262 52.8216C556.185 42.5011 554.104 34.2476 544.511 27.9905C534.918 21.7333 538.787 11.2318 525.763 2.27525C512.74 -6.68133 492.095 -11.8871 469.604 -41.2654C447.113 -70.6437 431.152 -81.4051 420.363 -93.6589M599.998 80.4488C599.998 80.4488 578.107 63.0691 567.123 52.9746C556.139 42.8801 554.584 34.0625 545.312 27.9111C536.04 21.7597 538.94 12.1278 525.887 3.33339C512.834 -5.46102 493.09 -11.3768 470.667 -40.9328C448.244 -70.4888 431.274 -80.9408 420.155 -93.5657M600.173 80.4249C600.173 80.4249 577.874 63.0061 566.984 53.1285C556.094 43.2509 555.054 33.8776 546.104 27.832C537.153 21.7865 539.094 13.0247 526.01 4.39248C512.927 -4.23976 494.094 -10.865 471.731 -40.6083C449.367 -70.3517 431.395 -80.4845 419.957 -93.4801M600.349 80.402C600.349 80.402 577.641 62.9441 566.844 53.2926C556.047 43.641 555.524 33.712 546.904 27.7637C538.283 21.8246 539.246 13.9408 526.141 5.47141C513.037 -2.99799 495.096 -10.3248 472.802 -40.264C450.508 -70.2032 431.525 -80.0085 419.758 -93.3752M600.525 80.3681C600.525 80.3681 577.409 62.8711 566.705 53.4365C555.993 44.0012 556.004 33.5177 547.705 27.6844C539.405 21.8511 539.408 14.8374 526.274 6.53021C513.139 -1.77702 496.11 -9.81318 473.874 -39.9307C451.639 -70.0483 431.656 -79.5525 419.559 -93.2814M600.709 80.3462C600.709 80.3462 577.185 62.801 566.566 53.5917C555.947 44.3824 556.474 33.3342 548.496 27.6066C540.518 21.879 539.562 15.7356 526.387 7.59898C513.213 -0.537656 497.095 -9.29226 474.928 -39.5966C452.761 -69.9009 431.767 -79.0775 419.351 -93.186M600.884 80.3219C600.884 80.3219 576.953 62.7376 566.426 53.7543C555.9 44.7711 556.943 33.1671 549.296 27.5369C541.649 21.9158 539.714 16.6503 526.519 8.66744C513.324 0.684553 498.108 -8.771 476 -39.2627C453.893 -69.7544 431.898 -78.6119 419.152 -93.0916M601.06 80.2904C601.06 80.2904 576.72 62.6669 566.288 53.9006C555.855 45.1342 557.424 32.9752 550.088 27.4592C542.753 21.9432 539.867 17.5486 526.642 9.7279C513.416 1.91627 499.102 -8.24931 477.063 -38.9278C455.024 -69.6062 432.028 -78.1446 418.953 -92.9955M601.236 80.2655C601.236 80.2655 576.487 62.6029 566.148 54.0626C555.799 45.5217 557.894 32.7985 550.888 27.3889C543.883 21.9794 540.029 18.4543 526.773 10.8049C513.517 3.1554 500.114 -7.71953 478.135 -38.5854C456.155 -69.4513 432.149 -77.6802 418.745 -92.9023M601.412 80.234C601.412 80.234 576.255 62.5323 566 54.2082C555.745 45.8842 558.355 32.6144 551.681 27.3022C544.997 21.9984 540.174 19.3429 526.888 11.8556C513.602 4.3683 501.101 -7.21666 479.19 -38.2693C457.279 -69.3219 432.27 -77.2135 418.546 -92.8062M601.587 80.2101C601.587 80.2101 576.022 62.4692 565.861 54.3621C555.699 46.2641 558.834 32.4301 552.472 27.2322C546.109 22.0342 540.327 20.2579 527.011 12.9237C513.695 5.58952 502.104 -6.69571 480.253 -37.9358C458.401 -69.1758 432.392 -76.7573 418.339 -92.7212M601.763 80.1849C601.763 80.1849 575.789 62.4049 565.721 54.5239C555.653 46.6428 559.304 32.2531 553.272 27.1616C547.239 22.0701 540.48 21.1626 527.142 14.0004C513.804 6.83807 503.116 -6.15719 481.333 -37.584C459.55 -69.0108 432.522 -76.2835 418.139 -92.6186M601.939 80.1537C601.939 80.1537 575.557 62.3255 565.582 54.6704C555.607 47.0154 559.775 32.07 554.073 27.0758C548.363 22.081 540.643 22.0529 527.275 15.0528C513.907 8.05265 504.12 -5.65266 482.406 -37.2662C460.692 -68.8798 432.662 -75.8242 417.95 -92.5305M602.114 80.1291C602.114 80.1291 575.324 62.2618 565.442 54.8327C555.552 47.3939 560.254 31.8942 554.864 27.0051C549.475 22.1161 540.795 22.9672 527.388 16.1286C513.981 9.29002 505.114 -5.12398 483.459 -36.925C461.805 -68.7259 432.773 -75.3512 417.742 -92.4281M602.289 80.1062C602.289 80.1062 575.091 62.1998 565.294 54.987C555.497 47.7742 560.715 31.7096 555.655 26.9361C550.596 22.1535 540.939 23.8736 527.51 17.1978C514.082 10.522 506.108 -4.59358 484.522 -36.5813C462.935 -68.569 432.894 -74.8758 417.533 -92.3239M602.465 80.073C602.465 80.073 574.859 62.1275 565.155 55.1316C555.452 48.1358 561.186 31.5246 556.448 26.8478C551.71 22.171 541.093 24.7612 527.634 18.2476C514.176 11.734 507.113 -4.091 485.586 -36.2661C464.059 -68.4413 433.016 -74.4289 417.326 -92.2482M602.641 80.0502C602.641 80.0502 574.626 62.0655 565.015 55.2957C555.405 48.5258 561.664 31.3505 557.248 26.7795C552.831 22.2085 541.255 25.6689 527.765 19.3265C514.276 12.9842 508.116 -3.55992 486.657 -35.9218C465.199 -68.2837 433.146 -73.9529 417.136 -92.1427M602.816 80.0256C602.816 80.0256 574.393 62.0018 564.876 55.4489C555.36 48.896 562.135 31.1649 558.048 26.7094C553.961 22.2539 541.407 26.5832 527.888 20.3939C514.369 14.2047 509.119 -3.03968 487.72 -35.5799C466.32 -68.1201 433.266 -73.4792 416.927 -92.0402M602.992 79.9934C602.992 79.9934 574.16 61.9305 564.737 55.6036C555.304 49.2761 562.605 30.9899 558.84 26.6311C555.075 22.2724 541.56 27.4809 528.011 21.4629C514.461 15.4449 510.113 -2.50949 488.783 -35.2456C467.452 -67.9816 433.397 -73.0124 416.719 -91.9453" stroke="url(#paint5_linear_2993_402)" stroke-width="0.2447" stroke-miterlimit="10"></path> </g> <defs> <filter id="filter0_f_2993_402" x="191.573" y="-251.446" width="629.163" height="511.338" filterUnits="userSpaceOnUse" color-interpolation-filters="sRGB"> <feFlood flood-opacity="0" result="BackgroundImageFix"></feFlood> <feBlend mode="normal" in="SourceGraphic" in2="BackgroundImageFix" result="shape"></feBlend> <feGaussianBlur stdDeviation="90" result="effect1_foregroundBlur_2993_402"></feGaussianBlur> </filter> <filter id="filter1_f_2993_402" x="-264.397" y="21.1807" width="618.876" height="461.217" filterUnits="userSpaceOnUse" color-interpolation-filters="sRGB"> <feFlood flood-opacity="0" result="BackgroundImageFix"></feFlood> <feBlend mode="normal" in="SourceGraphic" in2="BackgroundImageFix" result="shape"></feBlend> <feGaussianBlur stdDeviation="90" result="effect1_foregroundBlur_2993_402"></feGaussianBlur> </filter> <filter id="filter2_f_2993_402" x="-324.085" y="87.6654" width="1078.39" height="495.504" filterUnits="userSpaceOnUse" color-interpolation-filters="sRGB"> <feFlood flood-opacity="0" result="BackgroundImageFix"></feFlood> <feBlend mode="normal" in="SourceGraphic" in2="BackgroundImageFix" result="shape"></feBlend> <feGaussianBlur stdDeviation="90" result="effect1_foregroundBlur_2993_402"></feGaussianBlur> </filter> <filter id="filter3_f_2993_402" x="128.997" y="-165.763" width="618.199" height="610.805" filterUnits="userSpaceOnUse" color-interpolation-filters="sRGB"> <feFlood flood-opacity="0" result="BackgroundImageFix"></feFlood> <feBlend mode="normal" in="SourceGraphic" in2="BackgroundImageFix" result="shape"></feBlend> <feGaussianBlur stdDeviation="90" result="effect1_foregroundBlur_2993_402"></feGaussianBlur> </filter> <filter id="filter4_f_2993_402" x="-267.099" y="47.7405" width="712.97" height="573.116" filterUnits="userSpaceOnUse" color-interpolation-filters="sRGB"> <feFlood flood-opacity="0" result="BackgroundImageFix"></feFlood> <feBlend mode="normal" in="SourceGraphic" in2="BackgroundImageFix" result="shape"></feBlend> <feGaussianBlur stdDeviation="90" result="effect1_foregroundBlur_2993_402"></feGaussianBlur> </filter> <linearGradient id="paint0_linear_2993_402" x1="52.9138" y1="-144.898" x2="399.532" y2="398.515" gradientUnits="userSpaceOnUse"> <stop stop-color="#252426" stop-opacity="0.7"></stop> <stop offset="1" stop-color="#807B9E" stop-opacity="0.12"></stop> </linearGradient> <linearGradient id="paint1_linear_2993_402" x1="481.588" y1="498.789" x2="-21.8026" y2="-76.3184" gradientUnits="userSpaceOnUse"> <stop stop-color="#8778A7" stop-opacity="0.05"></stop> <stop offset="1" stop-color="#FFEFF5" stop-opacity="0.28"></stop> </linearGradient> <linearGradient id="paint2_linear_2993_402" x1="242.19" y1="159.841" x2="218.43" y2="-51.918" gradientUnits="userSpaceOnUse"> <stop stop-color="#141516"></stop> <stop offset="1" stop-color="#141516" stop-opacity="0"></stop> </linearGradient> <linearGradient id="paint3_linear_2993_402" x1="146.603" y1="-55.6733" x2="553.145" y2="192.957" gradientUnits="userSpaceOnUse"> <stop stop-color="#292524" stop-opacity="0.62"></stop> <stop offset="1" stop-color="#2D2837"></stop> </linearGradient> <linearGradient id="paint4_linear_2993_402" x1="184.014" y1="363.709" x2="-25.0192" y2="83.5822" gradientUnits="userSpaceOnUse"> <stop stop-color="#AFDDF9" stop-opacity="0.71"></stop> <stop offset="0.2946" stop-color="#BD9066"></stop> <stop offset="0.5919" stop-color="#CECDFF"></stop> <stop offset="0.8514" stop-color="#AE9AFF"></stop> <stop offset="1" stop-color="#11E9EF"></stop> </linearGradient> <linearGradient id="paint5_linear_2993_402" x1="615.123" y1="73.6169" x2="505.645" y2="-138.079" gradientUnits="userSpaceOnUse"> <stop stop-color="#AFDDF9" stop-opacity="0.71"></stop> <stop offset="0.2946" stop-color="#6766BD"></stop> <stop offset="0.5919" stop-color="#CECDFF"></stop> <stop offset="0.8514" stop-color="#AE9AFF"></stop> <stop offset="1" stop-color="#11E9EF"></stop> </linearGradient> </defs> </svg> 