<?xml version="1.0" encoding="UTF-8"?> <svg xmlns="http://www.w3.org/2000/svg" width="622" height="142" viewBox="0 0 622 142" fill="none"> <rect x="0.5" y="0.5" width="621" height="141" rx="20.5" fill="url(#paint0_linear_3016_124)"></rect> <rect x="0.5" y="0.5" width="621" height="141" rx="20.5" fill="url(#paint1_linear_3016_124)"></rect> <rect x="0.5" y="0.5" width="621" height="141" rx="20.5" stroke="url(#paint2_linear_3016_124)"></rect> <mask id="mask0_3016_124" style="mask-type:alpha" maskUnits="userSpaceOnUse" x="1" y="1" width="620" height="140"> <rect x="1.5" y="1.5" width="619" height="139" rx="19.5" fill="url(#paint3_linear_3016_124)" stroke="url(#paint4_linear_3016_124)"></rect> </mask> <g mask="url(#mask0_3016_124)"> <g filter="url(#filter0_f_3016_124)"> <ellipse cx="78.5" cy="167.073" rx="156.5" ry="78.0732" fill="#FFD39E" fill-opacity="0.4"></ellipse> </g> <g filter="url(#filter1_f_3016_124)"> <path d="M265.222 134.309C295.385 173.891 261.172 188.552 200.385 216.952C139.598 245.351 26.4862 234.943 5.38483 205.683C-15.7166 176.424 34.3844 134.309 122.384 155.781C183.171 127.381 240.385 119.964 265.222 134.309Z" fill="#FF9EBB" fill-opacity="0.6"></path> </g> <g filter="url(#filter2_f_3016_124)"> <ellipse rx="129.992" ry="50.7437" transform="matrix(0.953839 -0.30032 0.473061 0.88103 410.997 178.746)" fill="#9ED1FF" fill-opacity="0.6"></ellipse> </g> <g filter="url(#filter3_f_3016_124)"> <ellipse rx="132.785" ry="86.8478" transform="matrix(0.451922 -0.892058 0.950138 0.311829 546.526 177.629)" fill="#BD9EFF" fill-opacity="0.6"></ellipse> </g> <path d="M700.253 82.2147C697.578 80.3796 693.435 80.3039 690.167 81.4297C686.898 82.5555 684.373 84.6813 682.257 86.9237C676.823 92.6825 673.528 99.4643 669.102 105.724C664.675 111.983 658.619 118.027 650.041 120.565C636.653 124.525 622.153 118.912 609.059 114.44C605.632 113.269 601.987 112.149 598.262 112.455C593.493 112.847 589.458 115.571 587.012 118.787C584.567 122.004 583.442 125.704 582.249 129.321C578.405 140.97 573.21 152.848 562.458 161.495C551.705 170.142 528.887 177.462 505.015 169.11" stroke="url(#paint5_linear_3016_124)" stroke-width="0.7121" stroke-miterlimit="10"></path> <path opacity="0.9756" d="M505.356 169.805C518.776 174.238 531.827 173.435 542.573 170.258C550.244 167.991 556.713 164.525 561.186 160.832C565.333 157.422 568.7 153.552 571.531 149.436C572.627 147.838 573.645 146.203 574.595 144.555C576.843 140.648 578.696 136.659 580.297 132.668C580.767 131.496 581.216 130.325 581.652 129.16C582.566 126.701 583.443 124.208 584.766 121.877C585.305 120.923 585.92 119.997 586.648 119.106C587.85 117.644 589.412 116.278 591.232 115.163C593.225 113.942 595.47 113.049 597.887 112.781C598.819 112.68 599.745 112.67 600.662 112.733C603.291 112.91 605.857 113.665 608.303 114.444C610.742 115.22 613.232 116.038 615.756 116.82C622.173 118.811 628.811 120.573 635.501 120.875C639.784 121.075 644.087 120.686 648.316 119.399C651.077 118.559 653.598 117.379 655.898 115.97C660.761 112.991 664.614 108.981 667.736 104.883C670.882 100.744 673.511 96.3742 676.656 92.1996C678.102 90.2821 679.65 88.4077 681.406 86.622C683.577 84.4124 686.149 82.3052 689.439 81.1666C692.729 80.028 696.872 80.0569 699.58 81.8022" stroke="url(#paint6_linear_3016_124)" stroke-width="0.7063" stroke-miterlimit="10"></path> <path opacity="0.9512" d="M505.395 170.389C518.316 174.384 530.862 173.237 541.336 169.825C548.791 167.397 555.155 163.836 559.614 160.059C563.737 156.594 567.133 152.698 570.052 148.591C571.182 146.997 572.239 145.375 573.235 143.751C575.598 139.905 577.582 136.068 579.297 132.247C579.8 131.126 580.284 130.004 580.749 128.89C581.731 126.541 582.673 124.164 584.039 121.951C584.595 121.045 585.227 120.164 585.976 119.315C587.21 117.921 588.812 116.615 590.649 115.498C592.666 114.272 594.861 113.325 597.2 112.999C598.104 112.871 598.997 112.84 599.881 112.88C602.414 112.985 604.885 113.649 607.238 114.339C609.585 115.026 611.98 115.751 614.412 116.444C620.59 118.209 626.976 119.734 633.554 119.847C637.765 119.928 642.047 119.447 646.285 118.125C649.052 117.259 651.597 116.076 653.936 114.684C658.874 111.745 662.826 107.878 666.066 103.934C669.326 99.9463 672.079 95.7444 675.341 91.6771C676.841 89.8118 678.445 87.9729 680.243 86.2167C682.473 84.04 685.084 81.9512 688.398 80.8027C691.713 79.6514 695.856 79.6334 698.594 81.286" stroke="url(#paint7_linear_3016_124)" stroke-width="0.7005" stroke-miterlimit="10"></path> <path opacity="0.9268" d="M505.153 170.868C517.578 174.428 529.615 172.937 539.818 169.287C547.053 166.698 553.298 163.036 557.759 159.183C561.846 155.655 565.288 151.739 568.291 147.642C569.451 146.055 570.548 144.44 571.594 142.84C574.071 139.057 576.187 135.372 578.015 131.716C578.552 130.644 579.066 129.575 579.565 128.512C580.613 126.272 581.625 124.016 583.03 121.915C583.606 121.057 584.252 120.221 585.022 119.417C586.288 118.094 587.93 116.844 589.787 115.725C591.829 114.496 593.973 113.496 596.235 113.109C597.11 112.958 597.971 112.904 598.82 112.918C601.251 112.954 603.627 113.524 605.892 114.124C608.147 114.722 610.45 115.357 612.782 115.96C618.719 117.497 624.858 118.777 631.326 118.709C635.461 118.665 639.725 118.101 643.973 116.738C646.748 115.848 649.317 114.66 651.689 113.289C656.705 110.392 660.756 106.664 664.114 102.872C667.486 99.0357 670.369 94.9995 673.749 91.0423C675.307 89.2265 676.962 87.4257 678.805 85.6964C681.091 83.5554 683.748 81.4852 687.084 80.3211C690.423 79.1572 694.562 79.0921 697.338 80.6551" stroke="url(#paint8_linear_3016_124)" stroke-width="0.6947" stroke-miterlimit="10"></path> <path opacity="0.9024" d="M504.649 171.261C516.576 174.383 528.1 172.553 538.038 168.663C545.056 165.917 551.19 162.154 555.643 158.217C559.7 154.631 563.178 150.689 566.268 146.604C567.462 145.021 568.596 143.417 569.691 141.843C572.282 138.121 574.533 134.588 576.471 131.103C577.039 130.081 577.59 129.061 578.119 128.049C579.238 125.92 580.312 123.78 581.76 121.797C582.353 120.986 583.016 120.194 583.81 119.433C585.112 118.181 586.79 116.988 588.668 115.864C590.734 114.63 592.823 113.579 595.008 113.131C595.851 112.957 596.679 112.879 597.496 112.866C599.831 112.83 602.112 113.31 604.281 113.823C606.443 114.331 608.651 114.874 610.892 115.388C616.586 116.697 622.48 117.74 628.833 117.485C632.895 117.322 637.138 116.669 641.396 115.268C644.176 114.353 646.769 113.161 649.18 111.811C654.272 108.956 658.43 105.377 661.897 101.73C665.389 98.0533 668.39 94.1741 671.888 90.327C673.503 88.5606 675.21 86.798 677.099 85.0956C679.443 82.9875 682.143 80.9359 685.5 79.7617C688.864 78.5878 693.003 78.4703 695.809 79.9463" stroke="url(#paint9_linear_3016_124)" stroke-width="0.6889" stroke-miterlimit="10"></path> <path opacity="0.878" d="M503.896 171.582C515.327 174.269 526.335 172.097 536.008 167.965C542.807 165.06 548.832 161.199 553.278 157.18C557.308 153.538 560.822 149.57 563.997 145.492C565.221 143.913 566.399 142.318 567.542 140.772C570.244 137.11 572.63 133.732 574.682 130.414C575.284 129.441 575.865 128.472 576.424 127.514C577.609 125.492 578.75 123.471 580.24 121.603C580.85 120.837 581.534 120.094 582.344 119.377C583.682 118.195 585.394 117.059 587.295 115.934C589.385 114.695 591.424 113.595 593.532 113.083C594.346 112.886 595.142 112.784 595.927 112.746C598.169 112.636 600.35 113.029 602.427 113.451C604.494 113.869 606.61 114.323 608.755 114.747C614.211 115.827 619.854 116.634 626.095 116.192C630.08 115.908 634.302 115.167 638.573 113.726C641.358 112.787 643.979 111.59 646.426 110.259C651.596 107.445 655.853 104.009 659.437 100.51C663.044 96.988 666.169 93.2716 669.788 89.5347C671.461 87.8177 673.219 86.0933 675.154 84.4178C677.553 82.3425 680.296 80.3094 683.678 79.1225C687.063 77.9359 691.202 77.7715 694.042 79.1577" stroke="url(#paint10_linear_3016_124)" stroke-width="0.6831" stroke-miterlimit="10"></path> <path opacity="0.8537" d="M502.909 171.843C513.841 174.095 524.337 171.587 533.745 167.209C540.324 164.15 546.241 160.187 550.679 156.085C554.683 152.387 558.229 148.394 561.491 144.325C562.749 142.75 563.963 141.168 565.156 139.646C567.973 136.047 570.493 132.821 572.659 129.669C573.294 128.744 573.905 127.826 574.499 126.919C575.751 125.008 576.954 123.103 578.49 121.353C579.117 120.634 579.818 119.936 580.649 119.265C582.019 118.153 583.771 117.074 585.692 115.947C587.806 114.706 589.795 113.552 591.826 112.978C592.61 112.758 593.374 112.633 594.123 112.571C596.268 112.391 598.354 112.691 600.339 113.026C602.314 113.355 604.334 113.719 606.387 114.052C611.601 114.904 616.996 115.474 623.125 114.842C627.037 114.439 631.239 113.609 635.522 112.13C638.316 111.166 640.961 109.965 643.44 108.655C648.685 105.883 653.044 102.589 656.743 99.242C660.465 95.8684 663.713 92.3175 667.45 88.6879C669.18 87.0231 670.99 85.3342 672.968 83.6853C675.422 81.6429 678.211 79.6284 681.617 78.4317C685.027 77.2324 689.167 77.0211 692.04 78.3176" stroke="url(#paint11_linear_3016_124)" stroke-width="0.6774" stroke-miterlimit="10"></path> <path opacity="0.8293" d="M501.705 172.059C512.142 173.873 522.118 171.032 531.265 166.409C537.62 163.197 543.432 159.131 547.863 154.943C551.837 151.189 555.422 147.17 558.769 143.11C560.057 141.54 561.314 139.969 562.553 138.473C565.484 134.934 568.137 131.86 570.415 128.878C571.085 128.002 571.729 127.135 572.353 126.282C573.671 124.481 574.941 122.695 576.523 121.057C577.17 120.387 577.888 119.733 578.736 119.104C580.142 118.063 581.93 117.041 583.873 115.909C586.011 114.664 587.945 113.458 589.902 112.824C590.655 112.579 591.39 112.431 592.103 112.343C594.151 112.09 596.142 112.301 598.035 112.547C599.918 112.783 601.846 113.058 603.8 113.303C608.772 113.93 613.919 114.26 619.935 113.442C623.771 112.92 627.956 112.001 632.249 110.481C635.048 109.493 637.716 108.29 640.235 106.998C645.559 104.266 650.015 101.117 653.829 97.9183C657.665 94.7014 661.031 91.3102 664.896 87.7939C666.677 86.1755 668.545 84.5277 670.568 82.9058C673.081 80.8963 675.91 78.9002 679.34 77.6908C682.775 76.4788 686.914 76.2207 689.818 77.4247" stroke="url(#paint12_linear_3016_124)" stroke-width="0.6716" stroke-miterlimit="10"></path> <path opacity="0.8049" d="M500.308 172.243C510.247 173.622 519.706 170.45 528.593 165.577C534.727 162.215 540.431 158.043 544.854 153.773C548.802 149.962 552.42 145.914 555.854 141.867C557.175 140.304 558.47 138.74 559.757 137.271C562.803 133.795 565.587 130.873 567.979 128.059C568.682 127.234 569.357 126.418 570.014 125.613C571.399 123.92 572.735 122.253 574.359 120.733C575.024 120.11 575.759 119.501 576.627 118.917C578.069 117.947 579.894 116.981 581.857 115.848C584.019 114.599 585.902 113.341 587.782 112.645C588.506 112.378 589.205 112.206 589.89 112.091C591.841 111.768 593.736 111.893 595.534 112.043C597.324 112.196 599.157 112.375 601.016 112.528C605.746 112.927 610.642 113.021 616.553 112.013C620.312 111.372 624.48 110.362 628.782 108.806C631.59 107.791 634.282 106.586 636.837 105.312C642.235 102.622 646.794 99.6156 650.726 96.5686C654.676 93.5057 658.163 90.2771 662.152 86.8711C663.99 85.3021 665.91 83.6925 667.978 82.0974C670.547 80.1236 673.422 78.1434 676.874 76.9212C680.329 75.6964 684.469 75.3914 687.406 76.5057" stroke="url(#paint13_linear_3016_124)" stroke-width="0.6658" stroke-miterlimit="10"></path> <path opacity="0.7805" d="M498.726 172.409C508.169 173.352 517.104 169.852 525.734 164.725C531.645 161.213 537.245 156.935 541.66 152.582C545.581 148.716 549.235 144.642 552.753 140.604C554.105 139.045 555.439 137.491 556.775 136.05C559.932 132.634 562.854 129.867 565.357 127.217C566.09 126.44 566.802 125.676 567.49 124.925C568.942 123.342 570.34 121.791 572.01 120.386C572.692 119.811 573.447 119.247 574.333 118.705C575.813 117.802 577.671 116.899 579.655 115.761C581.841 114.508 583.674 113.201 585.477 112.441C586.168 112.15 586.838 111.953 587.488 111.815C589.342 111.419 591.141 111.453 592.847 111.517C594.545 111.581 596.283 111.668 598.049 111.734C602.541 111.905 607.185 111.764 612.984 110.567C616.671 109.807 620.817 108.708 625.129 107.114C627.942 106.075 630.662 104.866 633.249 103.613C638.726 100.965 643.382 98.1004 647.429 95.2018C651.494 92.2929 655.105 89.227 659.212 85.931C661.104 84.4114 663.079 82.8401 665.193 81.2719C667.817 79.3308 670.738 77.3693 674.211 76.137C677.691 74.8996 681.83 74.5477 684.798 75.5722" stroke="url(#paint14_linear_3016_124)" stroke-width="0.66" stroke-miterlimit="10"></path> <path opacity="0.7561" d="M496.982 172.569C505.93 173.077 514.345 169.252 522.714 163.87C528.404 160.211 533.9 155.826 538.304 151.388C542.198 147.465 545.884 143.366 549.491 139.338C550.876 137.783 552.25 136.241 553.632 134.824C556.903 131.469 559.957 128.854 562.573 126.375C563.34 125.646 564.082 124.933 564.803 124.232C566.326 122.758 567.787 121.328 569.5 120.035C570.198 119.507 570.97 118.989 571.88 118.492C573.396 117.66 575.29 116.813 577.295 115.671C579.505 114.413 581.284 113.054 583.01 112.233C583.672 111.919 584.31 111.698 584.924 111.537C586.685 111.068 588.385 111.013 589.998 110.987C591.605 110.961 593.247 110.959 594.918 110.936C599.168 110.878 603.564 110.501 609.251 109.117C612.861 108.238 616.987 107.05 621.312 105.416C624.129 104.352 626.873 103.139 629.5 101.907C635.052 99.3007 639.81 96.5786 643.975 93.8314C648.154 91.071 651.892 88.1679 656.12 84.9821C658.07 83.5119 660.093 81.9786 662.256 80.4401C664.938 78.5321 667.898 76.5916 671.396 75.344C674.901 74.0966 679.037 73.695 682.041 74.63" stroke="url(#paint15_linear_3016_124)" stroke-width="0.6542" stroke-miterlimit="10"></path> <path opacity="0.7317" d="M495.091 172.746C503.54 172.816 511.434 168.672 519.547 163.031C525.013 159.227 530.404 154.732 534.801 150.208C538.669 146.229 542.391 142.104 546.081 138.085C547.496 136.534 548.911 135.003 550.342 133.61C553.727 130.318 556.916 127.855 559.642 125.543C560.443 124.866 561.219 124.201 561.97 123.552C563.559 122.187 565.083 120.876 566.842 119.698C567.557 119.218 568.349 118.744 569.277 118.29C570.828 117.528 572.759 116.739 574.784 115.594C577.018 114.335 578.746 112.924 580.395 112.04C581.025 111.702 581.634 111.458 582.216 111.27C583.884 110.728 585.485 110.587 587.003 110.471C588.517 110.356 590.064 110.264 591.643 110.149C595.651 109.863 599.796 109.253 605.374 107.677C608.908 106.679 613.016 105.402 617.35 103.729C620.177 102.641 622.945 101.423 625.607 100.209C631.234 97.6455 636.09 95.0656 640.373 92.467C644.664 89.866 648.529 87.1229 652.871 84.0497C654.878 82.6289 656.953 81.1338 659.158 79.6221C661.895 77.7468 664.902 75.825 668.421 74.5674C671.946 73.3073 676.086 72.859 679.121 73.7014" stroke="url(#paint16_linear_3016_124)" stroke-width="0.6484" stroke-miterlimit="10"></path> <path opacity="0.7073" d="M493.065 172.975C501.019 172.611 508.392 168.147 516.245 162.244C521.49 158.299 526.777 153.689 531.163 149.082C535.004 145.048 538.759 140.894 542.537 136.885C543.986 135.339 545.437 133.817 546.917 132.451C550.417 129.219 553.737 126.908 556.576 124.764C557.411 124.135 558.218 123.521 559.002 122.926C560.658 121.672 562.248 120.476 564.049 119.414C564.781 118.981 565.594 118.553 566.539 118.143C568.129 117.452 570.09 116.719 572.139 115.573C574.397 114.309 576.071 112.849 577.646 111.901C578.247 111.54 578.824 111.272 579.37 111.058C580.941 110.444 582.447 110.212 583.873 110.008C585.295 109.803 586.75 109.619 588.23 109.417C592 108.906 595.893 108.056 601.359 106.294C604.816 105.177 608.907 103.811 613.254 102.098C616.086 100.985 618.878 99.7629 621.576 98.5699C627.281 96.0454 632.236 93.6105 636.637 91.1632C641.038 88.7159 645.031 86.1356 649.494 83.1698C651.559 81.7985 653.685 80.3414 655.935 78.8566C658.732 77.0171 661.781 75.111 665.321 73.8406C668.878 72.5709 673.014 72.0728 676.082 72.8284" stroke="url(#paint17_linear_3016_124)" stroke-width="0.6426" stroke-miterlimit="10"></path> <path opacity="0.6829" d="M490.922 173.273C498.377 172.471 505.233 167.693 512.827 161.524C517.854 157.441 523.031 152.716 527.409 148.024C531.223 143.936 535.014 139.754 538.879 135.754C540.359 134.215 541.853 132.703 543.379 131.362C546.99 128.192 550.445 126.033 553.401 124.057C554.269 123.476 555.109 122.913 555.924 122.369C557.647 121.223 559.299 120.149 561.146 119.201C561.895 118.816 562.729 118.432 563.691 118.065C565.32 117.442 567.314 116.768 569.383 115.62C571.665 114.352 573.285 112.84 574.787 111.831C575.355 111.447 575.904 111.153 576.414 110.916C577.892 110.228 579.299 109.907 580.632 109.614C581.962 109.322 583.322 109.046 584.707 108.752C588.235 108.013 591.88 106.929 597.234 104.974C600.615 103.741 604.688 102.281 609.045 100.533C611.882 99.3954 614.701 98.169 617.435 96.997C623.215 94.5144 628.268 92.2217 632.787 89.923C637.3 87.6268 641.42 85.2119 646.003 82.3562C648.123 81.0342 650.304 79.6154 652.599 78.1574C655.451 76.3507 658.543 74.4631 662.108 73.1828C665.683 71.8974 669.818 71.3553 672.921 72.0185" stroke="url(#paint18_linear_3016_124)" stroke-width="0.6368" stroke-miterlimit="10"></path> <path opacity="0.6585" d="M488.678 173.651C495.639 172.415 501.977 167.324 509.308 160.887C514.114 156.666 519.186 151.824 523.554 147.046C527.345 142.903 531.165 138.694 535.118 134.704C536.631 133.169 538.161 131.668 539.74 130.353C543.465 127.244 547.055 125.239 550.121 123.431C551.02 122.901 551.893 122.389 552.742 121.896C554.531 120.86 556.246 119.902 558.143 119.069C558.909 118.732 559.762 118.396 560.741 118.071C562.41 117.518 564.437 116.901 566.527 115.749C568.833 114.476 570.402 112.916 571.827 111.843C572.366 111.435 572.882 111.118 573.361 110.854C574.745 110.094 576.053 109.686 577.295 109.303C578.533 108.923 579.797 108.554 581.089 108.173C584.376 107.207 587.769 105.889 593.018 103.745C596.322 102.393 600.375 100.844 604.745 99.0576C607.59 97.8959 610.434 96.6651 613.203 95.5112C619.062 93.0708 624.209 90.9173 628.847 88.7699C633.473 86.6275 637.717 84.3753 642.419 81.6295C644.596 80.3569 646.828 78.9762 649.169 77.5451C652.076 75.7712 655.215 73.9023 658.804 72.6093C662.403 71.3112 666.539 70.7223 669.672 71.2958" stroke="url(#paint19_linear_3016_124)" stroke-width="0.631" stroke-miterlimit="10"></path> <path opacity="0.6341" d="M486.352 174.127C492.814 172.456 498.641 167.054 505.706 160.348C510.294 155.99 515.26 151.031 519.616 146.168C523.381 141.969 527.236 137.735 531.273 133.754C532.816 132.223 534.391 130.732 536.014 129.444C539.854 126.395 543.576 124.542 546.755 122.901C547.688 122.42 548.595 121.959 549.474 121.517C551.33 120.589 553.104 119.751 555.05 119.034C555.832 118.745 556.707 118.454 557.703 118.17C559.411 117.688 561.471 117.128 563.578 115.973C565.908 114.696 567.423 113.087 568.774 111.95C569.281 111.522 569.768 111.179 570.211 110.892C571.499 110.059 572.711 109.561 573.857 109.089C575.003 108.619 576.172 108.161 577.369 107.688C580.414 106.493 583.559 104.944 588.696 102.609C591.927 101.141 595.96 99.5002 600.339 97.6728C603.189 96.4865 606.056 95.2542 608.865 94.1185C614.799 91.72 620.048 89.7089 624.803 87.7127C629.541 85.7241 633.912 83.6345 638.735 80.9988C640.969 79.7755 643.253 78.433 645.64 77.0287C648.605 75.2878 651.786 73.4373 655.397 72.1316C659.017 70.8207 663.153 70.1823 666.319 70.6689" stroke="url(#paint20_linear_3016_124)" stroke-width="0.6252" stroke-miterlimit="10"></path> <path opacity="0.6098" d="M483.96 174.715C489.926 172.607 495.239 166.903 502.038 159.921C506.412 155.431 511.263 150.352 515.613 145.403C519.35 141.15 523.238 136.885 527.363 132.916C528.94 131.39 530.55 129.908 532.223 128.648C536.177 125.661 540.034 123.961 543.323 122.487C544.29 122.054 545.227 121.644 546.139 121.256C548.062 120.438 549.899 119.717 551.891 119.114C552.69 118.872 553.585 118.626 554.598 118.388C556.345 117.977 558.438 117.475 560.565 116.316C562.919 115.038 564.384 113.377 565.654 112.176C566.133 111.725 566.588 111.356 566.995 111.045C568.19 110.136 569.303 109.552 570.357 108.993C571.411 108.431 572.488 107.886 573.589 107.324C576.395 105.901 579.286 104.119 584.314 101.591C587.469 100.004 591.484 98.2748 595.873 96.4094C598.732 95.196 601.623 93.962 604.464 92.8471C610.476 90.4907 615.82 88.6216 620.693 86.7739C625.542 84.9362 630.04 83.0147 634.98 80.4862C637.272 79.3151 639.608 78.0079 642.037 76.6303C645.058 74.9221 648.281 73.093 651.916 71.7745C655.561 70.4538 659.697 69.7658 662.897 70.1601" stroke="url(#paint21_linear_3016_124)" stroke-width="0.6195" stroke-miterlimit="10"></path> <path opacity="0.5854" d="M481.515 175.429C486.983 172.887 491.787 166.875 498.317 159.621C502.476 154.998 507.218 149.796 511.556 144.764C515.27 140.456 519.191 136.165 523.4 132.205C525.007 130.683 526.657 129.214 528.379 127.978C532.444 125.052 536.436 123.503 539.838 122.2C540.838 121.818 541.809 121.456 542.752 121.118C544.744 120.411 546.641 119.805 548.678 119.321C549.495 119.127 550.41 118.925 551.444 118.729C553.229 118.391 555.356 117.944 557.504 116.78C559.882 115.497 561.295 113.79 562.489 112.523C562.938 112.049 563.358 111.656 563.736 111.319C564.838 110.334 565.853 109.663 566.814 109.015C567.776 108.364 568.758 107.727 569.764 107.075C572.328 105.428 574.971 103.411 579.887 100.692C582.965 98.9891 586.963 97.168 591.365 95.2619C594.229 94.024 597.147 92.7857 600.025 91.689C606.112 89.3718 611.554 87.6475 616.548 85.9511C621.508 84.2671 626.137 82.5084 631.194 80.0898C633.544 78.968 635.931 77.699 638.405 76.3482C641.481 74.6756 644.751 72.8622 648.407 71.531C652.077 70.1977 656.209 69.4627 659.443 69.7674" stroke="url(#paint22_linear_3016_124)" stroke-width="0.6137" stroke-miterlimit="10"></path> <path opacity="0.561" d="M479.041 176.285C484.014 173.306 488.31 166.994 494.568 159.459C498.515 154.706 503.143 149.381 507.471 144.261C511.159 139.9 515.112 135.58 519.408 131.63C521.048 130.115 522.739 128.654 524.507 127.444C528.686 124.58 532.809 123.184 536.325 122.045C537.359 121.711 538.36 121.401 539.336 121.117C541.395 120.517 543.351 120.03 545.438 119.66C546.268 119.513 547.207 119.36 548.258 119.206C550.082 118.939 552.242 118.548 554.41 117.382C556.816 116.095 558.175 114.339 559.292 113.008C559.709 112.51 560.1 112.091 560.442 111.731C561.448 110.671 562.37 109.913 563.236 109.176C564.106 108.435 564.992 107.709 565.906 106.968C568.229 105.092 570.623 102.843 575.428 99.9312C578.433 98.1124 582.407 96.1967 586.821 94.2554C589.69 92.9931 592.633 91.7504 595.55 90.6747C601.715 88.3995 607.252 86.8144 612.364 85.2692C617.435 83.7361 622.191 82.1428 627.366 79.8341C629.773 78.7616 632.211 77.5307 634.731 76.2095C637.866 74.5698 641.179 72.7749 644.856 71.4337C648.547 70.0876 652.682 69.3059 655.946 69.5209" stroke="url(#paint23_linear_3016_124)" stroke-width="0.6079" stroke-miterlimit="10"></path> <path opacity="0.5366" d="M476.544 177.296C481.018 173.883 484.813 167.27 490.792 159.456C494.532 154.573 499.043 149.125 503.36 143.92C507.024 139.503 511.006 135.157 515.39 131.214C517.061 129.702 518.791 128.251 520.608 127.066C524.902 124.263 529.159 123.02 532.789 122.049C533.853 121.764 534.891 121.507 535.898 121.271C538.023 120.782 540.039 120.41 542.174 120.158C543.021 120.059 543.981 119.951 545.049 119.842C546.912 119.648 549.102 119.31 551.294 118.143C553.723 116.851 555.028 115.046 556.072 113.652C556.46 113.134 556.819 112.686 557.125 112.305C558.034 111.169 558.861 110.325 559.632 109.5C560.409 108.671 561.2 107.852 562.019 107.022C564.1 104.919 566.246 102.438 570.939 99.3347C573.867 97.3997 577.824 95.3925 582.248 93.4105C585.126 92.1238 588.092 90.8766 591.041 89.8217C597.281 87.5884 602.916 86.1454 608.147 84.7514C613.328 83.3718 618.211 81.9411 623.508 79.7396C625.969 78.7164 628.462 77.5237 631.028 76.2294C634.217 74.6224 637.573 72.846 641.274 71.4922C644.99 70.1334 649.122 69.3048 652.423 69.4304" stroke="url(#paint24_linear_3016_124)" stroke-width="0.6021" stroke-miterlimit="10"></path> <path opacity="0.5122" d="M474.054 178.475C478.033 174.625 481.326 167.715 487.027 159.62C490.558 154.608 494.953 149.034 499.258 143.746C502.896 139.275 506.914 134.898 511.382 130.967C513.083 129.46 514.857 128.019 516.719 126.861C521.127 124.117 525.516 123.027 529.259 122.226C530.357 121.991 531.425 121.783 532.465 121.601C534.658 121.22 536.736 120.966 538.921 120.829C539.785 120.775 540.767 120.717 541.85 120.647C543.752 120.523 545.974 120.243 548.188 119.071C550.641 117.775 551.895 115.924 552.862 114.463C553.221 113.921 553.548 113.45 553.822 113.043C554.638 111.832 555.366 110.901 556.044 109.987C556.73 109.065 557.429 108.16 558.148 107.24C559.991 104.909 561.886 102.198 566.47 98.9029C569.322 96.8519 573.262 94.7531 577.695 92.733C580.578 91.4218 583.568 90.1703 586.556 89.1336C592.875 86.9424 598.605 85.6385 603.956 84.3958C609.249 83.1671 614.263 81.9018 619.677 79.8102C622.195 78.8363 624.74 77.6817 627.348 76.414C630.596 74.84 633.994 73.0821 637.717 71.7182C641.457 70.3467 645.589 69.4713 648.92 69.5073" stroke="url(#paint25_linear_3016_124)" stroke-width="0.5963" stroke-miterlimit="10"></path> <path opacity="0.4878" d="M471.578 179.836C475.059 175.552 477.857 168.343 483.276 159.967C486.602 154.828 490.877 149.128 495.172 143.751C498.786 139.228 502.833 134.822 507.389 130.9C509.123 129.398 510.934 127.97 512.845 126.835C517.364 124.155 521.888 123.216 525.744 122.58C526.876 122.393 527.978 122.236 529.048 122.105C531.307 121.834 533.444 121.695 535.678 121.677C536.559 121.67 537.562 121.66 538.662 121.632C540.603 121.582 542.859 121.355 545.092 120.181C547.57 118.883 548.773 116.981 549.663 115.456C549.989 114.891 550.284 114.394 550.526 113.963C551.246 112.676 551.874 111.658 552.464 110.658C553.058 109.647 553.661 108.651 554.289 107.641C555.89 105.085 557.537 102.14 562.009 98.6507C564.788 96.4837 568.707 94.2933 573.15 92.2352C576.038 90.8995 579.056 89.6437 582.08 88.6279C588.473 86.4786 594.301 85.314 599.77 84.2251C605.174 83.1472 610.315 82.0472 615.846 80.0654C618.422 79.1409 621.018 78.0244 623.672 76.7835C626.975 75.2449 630.416 73.5027 634.167 72.1263C637.928 70.7421 642.06 69.8199 645.425 69.7637" stroke="url(#paint26_linear_3016_124)" stroke-width="0.5905" stroke-miterlimit="10"></path> <path opacity="0.4634" d="M469.135 181.386C472.121 176.669 474.428 169.161 479.559 160.5C482.68 155.232 486.838 149.409 491.119 143.947C494.71 139.368 498.789 134.936 503.429 131.024C505.193 129.525 507.044 128.107 509.008 127C513.641 124.379 518.3 123.592 522.265 123.126C523.431 122.988 524.563 122.882 525.667 122.804C527.992 122.643 530.193 122.618 532.473 122.717C533.367 122.755 534.394 122.793 535.511 122.807C537.49 122.83 539.779 122.656 542.034 121.481C544.535 120.179 545.69 118.227 546.496 116.641C546.794 116.056 547.057 115.53 547.264 115.076C547.883 113.713 548.42 112.609 548.917 111.52C549.419 110.419 549.927 109.333 550.46 108.234C551.819 105.451 553.217 102.275 557.578 98.5936C560.284 96.3108 564.179 94.0285 568.634 91.9298C571.531 90.5698 574.573 89.3096 577.629 88.3117C584.101 86.2017 590.024 85.1817 595.615 84.2413C601.13 83.3142 606.397 82.3822 612.049 80.5076C614.682 79.6352 617.33 78.554 620.029 77.3399C623.388 75.8341 626.875 74.1105 630.647 72.7213C634.432 71.3272 638.564 70.3555 641.963 70.2097" stroke="url(#paint27_linear_3016_124)" stroke-width="0.5847" stroke-miterlimit="10"></path> <path opacity="0.439" d="M466.746 183.149C469.234 177.994 471.052 170.194 475.894 161.249C478.814 155.854 482.848 149.905 487.118 144.357C490.686 139.725 494.795 135.264 499.522 131.362C501.32 129.867 503.21 128.459 505.22 127.379C509.967 124.821 514.757 124.186 518.836 123.887C520.035 123.8 521.202 123.742 522.335 123.715C524.728 123.662 526.988 123.752 529.316 123.971C530.227 124.057 531.274 124.142 532.412 124.199C534.43 124.295 536.753 124.175 539.027 122.999C541.553 121.692 542.657 119.694 543.387 118.042C543.655 117.433 543.886 116.883 544.06 116.406C544.584 114.968 545.024 113.777 545.427 112.598C545.833 111.409 546.249 110.233 546.69 109.042C547.811 106.031 548.961 102.625 553.207 98.7487C555.836 96.3498 559.714 93.9761 564.182 91.8395C567.084 90.455 570.149 89.1903 573.245 88.2135C579.792 86.1454 585.816 85.2647 591.521 84.478C597.147 83.7017 602.545 82.9351 608.312 81.1701C611.002 80.347 613.702 79.3039 616.446 78.1166C619.863 76.6437 623.393 74.9413 627.186 73.5393C630.996 72.1325 635.128 71.1141 638.557 70.8787" stroke="url(#paint28_linear_3016_124)" stroke-width="0.5789" stroke-miterlimit="10"></path> <path opacity="0.4146" d="M464.418 185.134C466.411 179.545 467.745 171.447 472.292 162.22C475.014 156.695 478.921 150.623 483.18 144.987C486.724 140.302 490.866 135.81 495.677 131.919C497.505 130.431 499.436 129.031 501.494 127.977C506.356 125.48 511.28 124.999 515.47 124.865C516.699 124.826 517.899 124.819 519.066 124.846C521.529 124.903 523.848 125.108 526.222 125.443C527.15 125.573 528.218 125.709 529.373 125.805C531.429 125.977 533.785 125.911 536.081 124.727C538.63 123.416 539.684 121.369 540.336 119.653C540.576 119.024 540.771 118.445 540.913 117.944C541.34 116.431 541.685 115.153 541.995 113.888C542.31 112.606 542.631 111.342 542.976 110.064C543.855 106.826 544.757 103.189 548.891 99.1205C551.447 96.6057 555.304 94.1376 559.782 91.963C562.692 90.5514 565.782 89.2878 568.914 88.3291C575.538 86.303 581.658 85.5614 587.484 84.9259C593.221 84.3004 598.746 83.6989 604.633 82.0439C607.381 81.2701 610.132 80.265 612.922 79.1045C616.395 77.6643 619.967 75.9804 623.784 74.5658C627.616 73.1462 631.748 72.081 635.21 71.7561" stroke="url(#paint29_linear_3016_124)" stroke-width="0.5731" stroke-miterlimit="10"></path> <path opacity="0.3902" d="M462.178 187.355C463.672 181.33 464.525 172.937 468.776 163.427C471.3 157.777 475.084 151.578 479.329 145.857C482.85 141.116 487.02 136.598 491.919 132.714C493.781 131.23 495.751 129.842 497.855 128.813C502.828 126.376 507.887 126.046 512.193 126.082C513.456 126.092 514.69 126.138 515.887 126.214C518.416 126.378 520.798 126.699 523.218 127.154C524.163 127.332 525.251 127.515 526.423 127.653C528.518 127.898 530.904 127.886 533.224 126.7C535.797 125.385 536.803 123.29 537.375 121.509C537.586 120.857 537.749 120.255 537.856 119.728C538.183 118.139 538.432 116.775 538.654 115.42C538.877 114.05 539.105 112.696 539.351 111.329C539.989 107.862 540.646 103.995 544.665 99.7349C547.148 97.1042 550.985 94.5445 555.472 92.3319C558.387 90.8958 561.504 89.6279 564.672 88.6873C571.371 86.7031 577.589 86.1007 583.533 85.6189C589.381 85.1441 595.036 84.7108 601.042 83.16C603.847 82.4355 606.646 81.4683 609.481 80.3346C613.013 78.9273 616.627 77.2618 620.466 75.8371C624.322 74.405 628.453 73.293 631.946 72.8757" stroke="url(#paint30_linear_3016_124)" stroke-width="0.5674" stroke-miterlimit="10"></path> <path opacity="0.3659" d="M460.039 189.828C461.039 183.37 461.414 174.678 465.363 164.884C467.692 159.104 471.346 152.782 475.58 146.975C479.074 142.181 483.28 137.635 488.263 133.76C490.155 132.281 492.166 130.903 494.318 129.9C499.405 127.526 504.596 127.348 509.015 127.551C510.312 127.612 511.576 127.706 512.806 127.835C515.402 128.11 517.847 128.544 520.313 129.117C521.275 129.339 522.383 129.573 523.572 129.75C525.706 130.069 528.126 130.11 530.465 128.923C533.063 127.605 534.018 125.459 534.514 123.615C534.696 122.939 534.823 122.311 534.901 121.761C535.128 120.098 535.285 118.645 535.411 117.204C535.539 115.744 535.675 114.298 535.83 112.842C536.226 109.151 536.638 105.05 540.546 100.596C542.955 97.8491 546.768 95.1976 551.268 92.9471C554.188 91.4865 557.329 90.2143 560.533 89.2945C567.31 87.3522 573.623 86.8888 579.685 86.5581C585.644 86.234 591.426 85.9659 597.549 84.5248C600.411 83.8524 603.262 82.9205 606.142 81.8163C609.729 80.4445 613.39 78.7948 617.25 77.3573C621.13 75.9125 625.258 74.7509 628.788 74.2471" stroke="url(#paint31_linear_3016_124)" stroke-width="0.5616" stroke-miterlimit="10"></path> <path opacity="0.3415" d="M458.057 192.569C458.562 185.674 458.463 176.687 462.106 166.611C464.245 160.705 467.768 154.257 471.988 148.364C475.462 143.517 479.694 138.941 484.764 135.076C486.69 133.601 488.737 132.233 490.939 131.255C496.14 128.94 501.466 128.917 505.995 129.285C507.325 129.393 508.619 129.539 509.88 129.719C512.543 130.104 515.047 130.65 517.565 131.341C518.541 131.611 519.672 131.892 520.879 132.111C523.052 132.506 525.504 132.599 527.865 131.407C530.486 130.085 531.394 127.892 531.809 125.982C531.962 125.283 532.058 124.631 532.1 124.057C532.23 122.319 532.292 120.78 532.326 119.249C532.362 117.7 532.403 116.165 532.462 114.619C532.62 110.701 532.784 106.37 536.576 101.723C538.913 98.8609 542.705 96.1178 547.215 93.8265C550.144 92.3415 553.308 91.0649 556.547 90.166C563.4 88.2628 569.811 87.9413 575.994 87.7645C582.064 87.5911 587.973 87.4908 594.216 86.1569C597.133 85.5336 600.039 84.6399 602.965 83.5625C606.606 82.2234 610.31 80.5921 614.194 79.1448C618.099 77.6873 622.227 76.4789 625.787 75.8855" stroke="url(#paint32_linear_3016_124)" stroke-width="0.5558" stroke-miterlimit="10"></path> <path opacity="0.3171" d="M456.506 195.601C456.513 188.272 455.943 178.985 459.28 168.629C461.224 162.594 464.621 156.022 468.827 150.041C472.277 145.141 476.542 140.534 481.696 136.681C483.652 135.21 485.742 133.855 487.99 132.9C493.305 130.649 498.762 130.774 503.405 131.312C504.769 131.469 506.097 131.665 507.387 131.899C510.117 132.391 512.684 133.053 515.248 133.864C516.24 134.179 517.391 134.511 518.616 134.769C520.827 135.237 523.314 135.383 525.694 134.189C528.34 132.863 529.197 130.622 529.532 128.647C529.652 127.928 529.716 127.248 529.726 126.65C529.757 124.836 529.726 123.21 529.668 121.591C529.612 119.952 529.557 118.328 529.525 116.69C529.441 112.544 529.361 107.982 533.038 103.144C535.301 100.166 539.073 97.3311 543.596 95.0019C546.529 93.4924 549.718 92.2114 552.997 91.3307C559.928 89.4695 566.433 89.287 572.734 89.2611C578.915 89.2384 584.954 89.3033 591.312 88.079C594.286 87.5049 597.243 86.6493 600.215 85.5986C603.915 84.2923 607.662 82.6795 611.567 81.2193C615.493 79.7518 619.621 78.4939 623.215 77.811" stroke="url(#paint33_linear_3016_124)" stroke-width="0.55" stroke-miterlimit="10"></path> <path opacity="0.2927" d="M455.2 198.935C454.712 191.17 453.671 181.585 456.7 170.949C458.456 164.782 461.715 158.089 465.91 152.023C469.338 147.067 473.632 142.433 478.873 138.59C480.863 137.126 482.99 135.778 485.286 134.85C490.713 132.658 496.308 132.939 501.06 133.643C502.454 133.851 503.816 134.096 505.14 134.38C507.936 134.983 510.57 135.758 513.176 136.686C514.186 137.045 515.357 137.428 516.599 137.728C518.845 138.272 521.368 138.47 523.766 137.274C526.435 135.943 527.245 133.653 527.5 131.614C527.592 130.872 527.623 130.168 527.601 129.545C527.532 127.658 527.406 125.942 527.259 124.237C527.107 122.509 526.964 120.792 526.833 119.068C526.508 114.695 526.183 109.902 529.745 104.869C531.935 101.775 535.686 98.8459 540.219 96.4786C543.157 94.9446 546.374 93.6592 549.685 92.7992C556.69 90.9798 563.295 90.9337 569.716 91.0644C576.009 91.1896 582.175 91.4252 588.653 90.3079C591.685 89.7859 594.694 88.9655 597.711 87.9416C601.466 86.668 605.259 85.0764 609.189 83.6036C613.139 82.1234 617.267 80.8187 620.895 80.0464" stroke="url(#paint34_linear_3016_124)" stroke-width="0.5442" stroke-miterlimit="10"></path> <path opacity="0.2683" d="M454.12 202.581C453.134 194.382 451.63 184.497 454.346 173.581C455.911 167.285 459.04 160.468 463.224 154.316C466.628 149.307 470.955 144.645 476.284 140.81C478.303 139.351 480.474 138.013 482.819 137.112C488.36 134.98 494.087 135.412 498.952 136.284C500.38 136.54 501.775 136.836 503.13 137.174C505.996 137.884 508.689 138.775 511.34 139.823C512.367 140.23 513.558 140.66 514.821 141C517.106 141.617 519.663 141.868 522.081 140.668C524.775 139.333 525.537 136.994 525.712 134.891C525.775 134.125 525.77 133.395 525.716 132.749C525.547 130.786 525.326 128.987 525.087 127.189C524.84 125.372 524.605 123.566 524.381 121.75C523.815 117.149 523.245 112.126 526.692 106.901C528.81 103.691 532.537 100.67 537.082 98.2647C540.029 96.7064 543.27 95.4166 546.616 94.5774C553.7 92.7999 560.403 92.8929 566.939 93.1744C573.343 93.4503 579.636 93.8509 586.232 92.8433C589.321 92.3705 592.381 91.5882 595.44 90.5909C599.251 89.3527 603.086 87.7768 607.041 86.2912C611.016 84.7984 615.141 83.4467 618.802 82.5823" stroke="url(#paint35_linear_3016_124)" stroke-width="0.5384" stroke-miterlimit="10"></path> <path opacity="0.2439" d="M453.272 206.549C451.792 197.916 449.824 187.728 452.224 176.533C453.602 170.105 456.597 163.167 460.767 156.926C464.148 151.864 468.504 147.173 473.92 143.348C475.974 141.892 478.18 140.564 480.575 139.691C486.23 137.622 492.088 138.205 497.07 139.244C498.532 139.548 499.957 139.898 501.345 140.284C504.278 141.105 507.034 142.108 509.731 143.274C510.775 143.725 511.983 144.206 513.266 144.588C515.587 145.281 518.18 145.586 520.619 144.381C523.336 143.044 524.048 140.653 524.146 138.487C524.18 137.698 524.143 136.945 524.053 136.274C523.788 134.239 523.471 132.35 523.14 130.466C522.801 128.56 522.471 126.662 522.152 124.759C521.347 119.933 520.53 114.677 523.862 109.257C525.906 105.931 529.613 102.819 534.168 100.373C537.12 98.7899 540.385 97.4956 543.77 96.6747C550.93 94.9389 557.731 95.171 564.388 95.6063C570.903 96.0329 577.328 96.6127 584.04 95.7008C587.185 95.2828 590.298 94.5329 593.402 93.5624C597.272 92.357 601.15 90.7995 605.126 89.3011C609.122 87.7954 613.25 86.3971 616.941 85.4431" stroke="url(#paint36_linear_3016_124)" stroke-width="0.5326" stroke-miterlimit="10"></path> <path opacity="0.2195" d="M452.656 210.861C450.678 201.791 448.249 191.303 450.333 179.83C451.524 173.271 454.385 166.212 458.541 159.885C461.899 154.77 466.287 150.048 471.788 146.232C473.871 144.78 476.118 143.465 478.562 142.615C484.331 140.606 490.324 141.344 495.416 142.55C496.912 142.905 498.37 143.303 499.789 143.74C502.788 144.671 505.607 145.787 508.35 147.073C509.41 147.572 510.639 148.101 511.939 148.524C514.299 149.291 516.922 149.649 519.385 148.442C522.126 147.101 522.791 144.662 522.808 142.432C522.813 141.622 522.741 140.84 522.622 140.146C522.257 138.038 521.845 136.06 521.425 134.087C520.991 132.091 520.569 130.104 520.155 128.109C519.108 123.055 518.046 117.569 521.267 111.957C523.238 108.515 526.924 105.311 531.488 102.827C534.449 101.22 537.737 99.9237 541.156 99.1207C548.394 97.4241 555.29 97.7952 562.064 98.3842C568.694 98.9588 575.243 99.7062 582.076 98.9014C585.279 98.5326 588.443 97.8208 591.593 96.877C595.517 95.7042 599.438 94.1651 603.438 92.6568C607.46 91.1384 611.588 89.6934 615.312 88.6499" stroke="url(#paint37_linear_3016_124)" stroke-width="0.5268" stroke-miterlimit="10"></path> <path opacity="0.1951" d="M452.291 215.523C449.817 206.02 446.929 195.227 448.694 183.479C449.701 176.785 452.424 169.611 456.566 163.195C459.904 158.027 464.318 153.275 469.906 149.469C472.023 148.021 474.31 146.716 476.799 145.893C482.679 143.947 488.807 144.833 494.012 146.207C495.542 146.61 497.031 147.059 498.483 147.549C501.549 148.588 504.435 149.819 507.223 151.223C508.304 151.767 509.549 152.346 510.867 152.809C513.261 153.651 515.921 154.061 518.405 152.849C521.17 151.504 521.787 149.015 521.725 146.721C521.701 145.889 521.593 145.083 521.442 144.363C520.977 142.179 520.473 140.114 519.961 138.052C519.435 135.967 518.921 133.891 518.411 131.807C517.124 126.526 515.82 120.809 518.922 115.005C520.824 111.447 524.486 108.151 529.063 105.629C532.03 103.995 535.345 102.697 538.799 101.915C546.112 100.26 553.11 100.77 559.999 101.513C566.739 102.238 573.415 103.151 580.366 102.455C583.626 102.139 586.842 101.462 590.037 100.545C594.021 99.4051 597.984 97.8843 602.006 96.3632C606.052 94.8321 610.176 93.3402 613.935 92.2073" stroke="url(#paint38_linear_3016_124)" stroke-width="0.521" stroke-miterlimit="10"></path> <path opacity="0.1707" d="M452.182 220.552C449.211 210.612 445.866 199.516 447.311 187.493C448.131 180.665 450.72 173.372 454.848 166.871C458.162 161.647 462.606 156.869 468.282 153.072C470.429 151.631 472.756 150.333 475.294 149.537C481.288 147.651 487.55 148.692 492.866 150.232C494.426 150.684 495.952 151.183 497.434 151.725C500.567 152.873 503.515 154.218 506.349 155.742C507.447 156.331 508.712 156.96 510.047 157.465C512.477 158.38 515.174 158.844 517.678 157.63C520.467 156.28 521.034 153.743 520.891 151.385C520.838 150.529 520.698 149.7 520.512 148.954C519.95 146.697 519.35 144.543 518.744 142.394C518.125 140.22 517.516 138.052 516.911 135.878C515.385 130.37 513.834 124.422 516.821 118.424C518.649 114.75 522.288 111.362 526.878 108.799C529.849 107.14 533.189 105.838 536.683 105.074C544.07 103.461 551.166 104.111 558.176 105.004C565.029 105.877 571.831 106.961 578.903 106.372C582.221 106.105 585.488 105.466 588.725 104.579C592.764 103.471 596.774 101.969 600.816 100.438C604.883 98.8966 609.011 97.3553 612.8 96.1328" stroke="url(#paint39_linear_3016_124)" stroke-width="0.5153" stroke-miterlimit="10"></path> <path opacity="0.1463" d="M452.343 225.966C448.878 215.592 445.073 204.188 446.199 191.89C446.834 184.928 449.286 177.516 453.4 170.927C456.695 165.649 461.167 160.843 466.927 157.055C469.108 155.618 471.475 154.33 474.059 153.558C480.168 151.732 486.561 152.924 491.99 154.635C493.584 155.137 495.14 155.685 496.656 156.28C499.855 157.536 502.87 158.996 505.745 160.638C506.861 161.274 508.143 161.95 509.499 162.495C511.967 163.486 514.698 164.001 517.222 162.785C520.036 161.431 520.555 158.845 520.331 156.423C520.25 155.544 520.074 154.689 519.859 153.919C519.198 151.589 518.506 149.349 517.807 147.108C517.097 144.845 516.392 142.587 515.695 140.325C513.928 134.588 512.135 128.41 515.004 122.22C516.759 118.43 520.377 114.948 524.977 112.35C527.957 110.667 531.32 109.36 534.846 108.617C542.312 107.046 549.508 107.82 556.632 108.878C563.599 109.891 570.525 111.15 577.713 110.672C581.086 110.453 584.407 109.853 587.691 108.992C591.784 107.92 595.837 106.433 599.904 104.889C603.996 103.336 608.12 101.747 611.946 100.433" stroke="url(#paint40_linear_3016_124)" stroke-width="0.5095" stroke-miterlimit="10"></path> <path opacity="0.122" d="M452.789 231.774C448.826 220.964 444.568 209.254 445.37 196.685C445.822 189.588 448.137 182.058 452.237 175.383C455.508 170.052 460.01 165.217 465.857 161.438C468.068 160.005 470.475 158.73 473.108 157.982C479.331 156.218 485.856 157.562 491.398 159.437C493.026 159.988 494.616 160.586 496.161 161.233C499.428 162.599 502.505 164.172 505.427 165.933C506.559 166.615 507.861 167.341 509.238 167.928C511.741 168.992 514.509 169.561 517.054 168.344C519.891 166.987 520.363 164.347 520.059 161.864C519.949 160.962 519.741 160.083 519.49 159.29C518.729 156.887 517.945 154.558 517.154 152.23C516.352 149.878 515.552 147.528 514.76 145.176C512.751 139.215 510.714 132.804 513.468 126.419C515.153 122.514 518.748 118.939 523.357 116.301C526.342 114.593 529.73 113.282 533.295 112.559C540.836 111.03 548.129 111.946 555.374 113.156C562.453 114.319 569.509 115.743 576.815 115.374C580.245 115.205 583.618 114.643 586.947 113.808C591.099 112.769 595.194 111.304 599.283 109.747C603.399 108.18 607.524 106.545 611.38 105.141" stroke="url(#paint41_linear_3016_124)" stroke-width="0.5037" stroke-miterlimit="10"></path> <path opacity="0.0732" d="M454.601 244.635C449.645 232.958 444.482 220.627 444.634 207.518C444.719 200.147 446.775 192.392 450.83 185.536C454.068 180.102 458.618 175.203 464.637 171.445C466.912 170.021 469.399 168.766 472.126 168.072C478.574 166.43 485.369 168.077 491.138 170.289C492.833 170.939 494.487 171.64 496.096 172.388C499.499 173.972 502.706 175.77 505.712 177.772C506.881 178.546 508.217 179.37 509.632 180.039C512.206 181.251 515.047 181.925 517.633 180.701C520.519 179.336 520.899 176.599 520.431 173.988C520.266 173.042 519.985 172.11 519.673 171.268C518.712 168.719 517.744 166.211 516.766 163.705C515.776 161.174 514.793 158.646 513.81 156.113C511.322 149.697 508.809 142.825 511.319 136.055C512.869 131.919 516.412 128.161 521.04 125.446C524.039 123.689 527.478 122.369 531.115 121.686C538.809 120.237 546.299 121.435 553.78 122.948C561.084 124.413 568.391 126.17 575.936 126.015C579.48 125.947 582.957 125.458 586.377 124.677C590.643 123.703 594.824 122.275 598.961 120.693C603.123 119.1 607.248 117.369 611.168 115.789" stroke="url(#paint42_linear_3016_124)" stroke-width="0.4921" stroke-miterlimit="10"></path> <path opacity="0.0488" d="M455.988 251.718C450.538 239.603 444.919 226.964 444.748 213.583C444.652 206.076 446.564 198.205 450.608 191.263C453.823 185.776 458.406 180.848 464.509 177.096C466.818 175.679 469.341 174.434 472.121 173.764C478.683 172.182 485.61 173.984 491.492 176.36C493.217 177.058 494.904 177.81 496.547 178.611C500.017 180.305 503.287 182.219 506.338 184.336C507.525 185.155 508.877 186.032 510.313 186.737C512.922 188.029 515.797 188.753 518.407 187.525C521.316 186.155 521.646 183.366 521.102 180.694C520.908 179.725 520.594 178.77 520.247 177.902C519.185 175.277 518.126 172.683 517.055 170.091C515.974 167.47 514.895 164.85 513.817 162.23C511.087 155.586 508.326 148.481 510.725 141.52C512.198 137.267 515.721 133.418 520.365 130.662C523.369 128.881 526.832 127.557 530.505 126.894C538.278 125.487 545.866 126.824 553.462 128.488C560.877 130.106 568.311 132.025 575.977 131.98C579.578 131.961 583.107 131.51 586.569 130.756C590.89 129.818 595.117 128.405 599.276 126.812C603.462 125.208 607.587 123.43 611.541 121.757" stroke="url(#paint43_linear_3016_124)" stroke-width="0.4863" stroke-miterlimit="10"></path> <path opacity="0.0244" d="M457.73 259.255C451.781 246.707 445.713 233.755 445.215 220.107C444.936 212.46 446.707 204.472 450.74 197.448C453.928 191.905 458.544 186.95 464.735 183.208C467.073 181.795 469.64 180.56 472.465 179.917C479.142 178.395 486.203 180.348 492.195 182.894C493.954 183.641 495.675 184.443 497.348 185.296C500.885 187.097 504.221 189.127 507.318 191.364C508.521 192.23 509.894 193.155 511.347 193.902C513.991 195.266 516.903 196.045 519.534 194.812C522.467 193.438 522.747 190.6 522.122 187.864C521.895 186.871 521.553 185.893 521.17 185.002C520.012 182.304 518.853 179.623 517.695 176.939C516.521 174.229 515.347 171.52 514.177 168.808C511.206 161.936 508.201 154.598 510.484 147.448C511.885 143.076 515.387 139.135 520.041 136.344C523.053 134.538 526.54 133.213 530.249 132.565C538.097 131.2 545.783 132.679 553.496 134.494C561.026 136.263 568.584 138.347 576.367 138.411C580.023 138.441 583.603 138.028 587.114 137.301C591.49 136.395 595.764 135.001 599.943 133.395C604.155 131.781 608.276 129.953 612.264 128.191" stroke="url(#paint44_linear_3016_124)" stroke-width="0.4805" stroke-miterlimit="10"></path> </g> <defs> <filter id="filter0_f_3016_124" x="-178" y="-11" width="513" height="356.146" filterUnits="userSpaceOnUse" color-interpolation-filters="sRGB"> <feFlood flood-opacity="0" result="BackgroundImageFix"></feFlood> <feBlend mode="normal" in="SourceGraphic" in2="BackgroundImageFix" result="shape"></feBlend> <feGaussianBlur stdDeviation="50" result="effect1_foregroundBlur_3016_124"></feGaussianBlur> </filter> <filter id="filter1_f_3016_124" x="-99.4199" y="27.189" width="475.786" height="306.499" filterUnits="userSpaceOnUse" color-interpolation-filters="sRGB"> <feFlood flood-opacity="0" result="BackgroundImageFix"></feFlood> <feBlend mode="normal" in="SourceGraphic" in2="BackgroundImageFix" result="shape"></feBlend> <feGaussianBlur stdDeviation="50" result="effect1_foregroundBlur_3016_124"></feGaussianBlur> </filter> <filter id="filter2_f_3016_124" x="184.679" y="19.3923" width="452.636" height="318.707" filterUnits="userSpaceOnUse" color-interpolation-filters="sRGB"> <feFlood flood-opacity="0" result="BackgroundImageFix"></feFlood> <feBlend mode="normal" in="SourceGraphic" in2="BackgroundImageFix" result="shape"></feBlend> <feGaussianBlur stdDeviation="50" result="effect1_foregroundBlur_3016_124"></feGaussianBlur> </filter> <filter id="filter3_f_3016_124" x="344.488" y="-43.906" width="404.075" height="443.071" filterUnits="userSpaceOnUse" color-interpolation-filters="sRGB"> <feFlood flood-opacity="0" result="BackgroundImageFix"></feFlood> <feBlend mode="normal" in="SourceGraphic" in2="BackgroundImageFix" result="shape"></feBlend> <feGaussianBlur stdDeviation="50" result="effect1_foregroundBlur_3016_124"></feGaussianBlur> </filter> <linearGradient id="paint0_linear_3016_124" x1="342.267" y1="64.7542" x2="339.554" y2="-20.6851" gradientUnits="userSpaceOnUse"> <stop stop-color="#141516"></stop> <stop offset="1" stop-color="#141516" stop-opacity="0"></stop> </linearGradient> <linearGradient id="paint1_linear_3016_124" x1="37.8793" y1="-44" x2="264.041" y2="332.815" gradientUnits="userSpaceOnUse"> <stop stop-color="#292524" stop-opacity="0.63"></stop> <stop offset="1" stop-color="#1B1920"></stop> </linearGradient> <linearGradient id="paint2_linear_3016_124" x1="21.6667" y1="1.00001" x2="598.04" y2="174.386" gradientUnits="userSpaceOnUse"> <stop stop-color="#4E4A49"></stop> <stop offset="1" stop-color="#524E67" stop-opacity="0.35"></stop> <stop offset="1" stop-color="#292831"></stop> </linearGradient> <linearGradient id="paint3_linear_3016_124" x1="-69.3214" y1="-38.2982" x2="63.6477" y2="344.084" gradientUnits="userSpaceOnUse"> <stop stop-color="#FFC7E2"></stop> <stop offset="1" stop-color="#5C519B" stop-opacity="0.08"></stop> </linearGradient> <linearGradient id="paint4_linear_3016_124" x1="679.601" y1="199.947" x2="585.03" y2="-181.753" gradientUnits="userSpaceOnUse"> <stop stop-color="#686079" stop-opacity="0.05"></stop> <stop offset="1" stop-color="#FFEFF5" stop-opacity="0.1"></stop> </linearGradient> <linearGradient id="paint5_linear_3016_124" x1="606.2" y1="76.9386" x2="602.012" y2="176.031" gradientUnits="userSpaceOnUse"> <stop stop-color="#FFEAC2" stop-opacity="0.72"></stop> <stop offset="1" stop-color="#BCB6FF" stop-opacity="0.85"></stop> </linearGradient> <linearGradient id="paint6_linear_3016_124" x1="606.065" y1="76.6559" x2="601.858" y2="176.21" gradientUnits="userSpaceOnUse"> <stop stop-color="#FFEAC2" stop-opacity="0.72"></stop> <stop offset="1" stop-color="#BCB6FF" stop-opacity="0.85"></stop> </linearGradient> <linearGradient id="paint7_linear_3016_124" x1="605.623" y1="76.2695" x2="601.395" y2="176.319" gradientUnits="userSpaceOnUse"> <stop stop-color="#FFEAC2" stop-opacity="0.72"></stop> <stop offset="1" stop-color="#BCB6FF" stop-opacity="0.85"></stop> </linearGradient> <linearGradient id="paint8_linear_3016_124" x1="604.905" y1="75.7632" x2="600.654" y2="176.37" gradientUnits="userSpaceOnUse"> <stop stop-color="#FFEAC2" stop-opacity="0.72"></stop> <stop offset="1" stop-color="#BCB6FF" stop-opacity="0.85"></stop> </linearGradient> <linearGradient id="paint9_linear_3016_124" x1="603.921" y1="75.1759" x2="599.644" y2="176.38" gradientUnits="userSpaceOnUse"> <stop stop-color="#FFEAC2" stop-opacity="0.72"></stop> <stop offset="1" stop-color="#BCB6FF" stop-opacity="0.85"></stop> </linearGradient> <linearGradient id="paint10_linear_3016_124" x1="602.693" y1="74.5057" x2="598.388" y2="176.367" gradientUnits="userSpaceOnUse"> <stop stop-color="#FFEAC2" stop-opacity="0.72"></stop> <stop offset="1" stop-color="#BCB6FF" stop-opacity="0.85"></stop> </linearGradient> <linearGradient id="paint11_linear_3016_124" x1="601.23" y1="73.7806" x2="596.896" y2="176.343" gradientUnits="userSpaceOnUse"> <stop stop-color="#FFEAC2" stop-opacity="0.72"></stop> <stop offset="1" stop-color="#BCB6FF" stop-opacity="0.85"></stop> </linearGradient> <linearGradient id="paint12_linear_3016_124" x1="599.55" y1="73.0011" x2="595.184" y2="176.324" gradientUnits="userSpaceOnUse"> <stop stop-color="#FFEAC2" stop-opacity="0.72"></stop> <stop offset="1" stop-color="#BCB6FF" stop-opacity="0.85"></stop> </linearGradient> <linearGradient id="paint13_linear_3016_124" x1="597.678" y1="72.1893" x2="593.278" y2="176.327" gradientUnits="userSpaceOnUse"> <stop stop-color="#FFEAC2" stop-opacity="0.72"></stop> <stop offset="1" stop-color="#BCB6FF" stop-opacity="0.85"></stop> </linearGradient> <linearGradient id="paint14_linear_3016_124" x1="595.616" y1="71.359" x2="591.179" y2="176.367" gradientUnits="userSpaceOnUse"> <stop stop-color="#FFEAC2" stop-opacity="0.72"></stop> <stop offset="1" stop-color="#BCB6FF" stop-opacity="0.85"></stop> </linearGradient> <linearGradient id="paint15_linear_3016_124" x1="593.399" y1="70.5154" x2="588.923" y2="176.457" gradientUnits="userSpaceOnUse"> <stop stop-color="#FFEAC2" stop-opacity="0.72"></stop> <stop offset="1" stop-color="#BCB6FF" stop-opacity="0.85"></stop> </linearGradient> <linearGradient id="paint16_linear_3016_124" x1="591.027" y1="69.6817" x2="586.509" y2="176.609" gradientUnits="userSpaceOnUse"> <stop stop-color="#FFEAC2" stop-opacity="0.72"></stop> <stop offset="1" stop-color="#BCB6FF" stop-opacity="0.85"></stop> </linearGradient> <linearGradient id="paint17_linear_3016_124" x1="588.529" y1="68.8946" x2="583.97" y2="176.816" gradientUnits="userSpaceOnUse"> <stop stop-color="#FFEAC2" stop-opacity="0.72"></stop> <stop offset="1" stop-color="#BCB6FF" stop-opacity="0.85"></stop> </linearGradient> <linearGradient id="paint18_linear_3016_124" x1="585.912" y1="68.1669" x2="581.31" y2="177.091" gradientUnits="userSpaceOnUse"> <stop stop-color="#FFEAC2" stop-opacity="0.72"></stop> <stop offset="1" stop-color="#BCB6FF" stop-opacity="0.85"></stop> </linearGradient> <linearGradient id="paint19_linear_3016_124" x1="583.201" y1="67.518" x2="578.556" y2="177.449" gradientUnits="userSpaceOnUse"> <stop stop-color="#FFEAC2" stop-opacity="0.72"></stop> <stop offset="1" stop-color="#BCB6FF" stop-opacity="0.85"></stop> </linearGradient> <linearGradient id="paint20_linear_3016_124" x1="580.397" y1="66.957" x2="575.71" y2="177.902" gradientUnits="userSpaceOnUse"> <stop stop-color="#FFEAC2" stop-opacity="0.72"></stop> <stop offset="1" stop-color="#BCB6FF" stop-opacity="0.85"></stop> </linearGradient> <linearGradient id="paint21_linear_3016_124" x1="577.526" y1="66.5078" x2="572.796" y2="178.468" gradientUnits="userSpaceOnUse"> <stop stop-color="#FFEAC2" stop-opacity="0.72"></stop> <stop offset="1" stop-color="#BCB6FF" stop-opacity="0.85"></stop> </linearGradient> <linearGradient id="paint22_linear_3016_124" x1="574.613" y1="66.1639" x2="569.84" y2="179.161" gradientUnits="userSpaceOnUse"> <stop stop-color="#FFEAC2" stop-opacity="0.72"></stop> <stop offset="1" stop-color="#BCB6FF" stop-opacity="0.85"></stop> </linearGradient> <linearGradient id="paint23_linear_3016_124" x1="571.665" y1="65.9563" x2="566.848" y2="179.994" gradientUnits="userSpaceOnUse"> <stop stop-color="#FFEAC2" stop-opacity="0.72"></stop> <stop offset="1" stop-color="#BCB6FF" stop-opacity="0.85"></stop> </linearGradient> <linearGradient id="paint24_linear_3016_124" x1="568.694" y1="65.8936" x2="563.832" y2="180.984" gradientUnits="userSpaceOnUse"> <stop stop-color="#FFEAC2" stop-opacity="0.72"></stop> <stop offset="1" stop-color="#BCB6FF" stop-opacity="0.85"></stop> </linearGradient> <linearGradient id="paint25_linear_3016_124" x1="565.736" y1="65.9937" x2="560.83" y2="182.14" gradientUnits="userSpaceOnUse"> <stop stop-color="#FFEAC2" stop-opacity="0.72"></stop> <stop offset="1" stop-color="#BCB6FF" stop-opacity="0.85"></stop> </linearGradient> <linearGradient id="paint26_linear_3016_124" x1="562.79" y1="66.2733" x2="557.839" y2="183.479" gradientUnits="userSpaceOnUse"> <stop stop-color="#FFEAC2" stop-opacity="0.72"></stop> <stop offset="1" stop-color="#BCB6FF" stop-opacity="0.85"></stop> </linearGradient> <linearGradient id="paint27_linear_3016_124" x1="559.876" y1="66.7426" x2="554.881" y2="185.008" gradientUnits="userSpaceOnUse"> <stop stop-color="#FFEAC2" stop-opacity="0.72"></stop> <stop offset="1" stop-color="#BCB6FF" stop-opacity="0.85"></stop> </linearGradient> <linearGradient id="paint28_linear_3016_124" x1="557.017" y1="67.4348" x2="551.977" y2="186.749" gradientUnits="userSpaceOnUse"> <stop stop-color="#FFEAC2" stop-opacity="0.72"></stop> <stop offset="1" stop-color="#BCB6FF" stop-opacity="0.85"></stop> </linearGradient> <linearGradient id="paint29_linear_3016_124" x1="554.219" y1="68.3356" x2="549.135" y2="188.711" gradientUnits="userSpaceOnUse"> <stop stop-color="#FFEAC2" stop-opacity="0.72"></stop> <stop offset="1" stop-color="#BCB6FF" stop-opacity="0.85"></stop> </linearGradient> <linearGradient id="paint30_linear_3016_124" x1="551.505" y1="69.4786" x2="546.377" y2="190.911" gradientUnits="userSpaceOnUse"> <stop stop-color="#FFEAC2" stop-opacity="0.72"></stop> <stop offset="1" stop-color="#BCB6FF" stop-opacity="0.85"></stop> </linearGradient> <linearGradient id="paint31_linear_3016_124" x1="548.895" y1="70.8732" x2="543.722" y2="193.362" gradientUnits="userSpaceOnUse"> <stop stop-color="#FFEAC2" stop-opacity="0.72"></stop> <stop offset="1" stop-color="#BCB6FF" stop-opacity="0.85"></stop> </linearGradient> <linearGradient id="paint32_linear_3016_124" x1="546.398" y1="72.533" x2="541.181" y2="196.079" gradientUnits="userSpaceOnUse"> <stop stop-color="#FFEAC2" stop-opacity="0.72"></stop> <stop offset="1" stop-color="#BCB6FF" stop-opacity="0.85"></stop> </linearGradient> <linearGradient id="paint33_linear_3016_124" x1="544.034" y1="74.4675" x2="538.773" y2="199.075" gradientUnits="userSpaceOnUse"> <stop stop-color="#FFEAC2" stop-opacity="0.72"></stop> <stop offset="1" stop-color="#BCB6FF" stop-opacity="0.85"></stop> </linearGradient> <linearGradient id="paint34_linear_3016_124" x1="541.825" y1="76.7076" x2="536.518" y2="202.369" gradientUnits="userSpaceOnUse"> <stop stop-color="#FFEAC2" stop-opacity="0.72"></stop> <stop offset="1" stop-color="#BCB6FF" stop-opacity="0.85"></stop> </linearGradient> <linearGradient id="paint35_linear_3016_124" x1="539.782" y1="79.2457" x2="534.431" y2="205.972" gradientUnits="userSpaceOnUse"> <stop stop-color="#FFEAC2" stop-opacity="0.72"></stop> <stop offset="1" stop-color="#BCB6FF" stop-opacity="0.85"></stop> </linearGradient> <linearGradient id="paint36_linear_3016_124" x1="537.928" y1="82.1069" x2="532.532" y2="209.896" gradientUnits="userSpaceOnUse"> <stop stop-color="#FFEAC2" stop-opacity="0.72"></stop> <stop offset="1" stop-color="#BCB6FF" stop-opacity="0.85"></stop> </linearGradient> <linearGradient id="paint37_linear_3016_124" x1="536.27" y1="85.3125" x2="530.829" y2="214.162" gradientUnits="userSpaceOnUse"> <stop stop-color="#FFEAC2" stop-opacity="0.72"></stop> <stop offset="1" stop-color="#BCB6FF" stop-opacity="0.85"></stop> </linearGradient> <linearGradient id="paint38_linear_3016_124" x1="534.833" y1="88.8675" x2="529.348" y2="218.777" gradientUnits="userSpaceOnUse"> <stop stop-color="#FFEAC2" stop-opacity="0.72"></stop> <stop offset="1" stop-color="#BCB6FF" stop-opacity="0.85"></stop> </linearGradient> <linearGradient id="paint39_linear_3016_124" x1="533.622" y1="92.7898" x2="528.092" y2="223.757" gradientUnits="userSpaceOnUse"> <stop stop-color="#FFEAC2" stop-opacity="0.72"></stop> <stop offset="1" stop-color="#BCB6FF" stop-opacity="0.85"></stop> </linearGradient> <linearGradient id="paint40_linear_3016_124" x1="532.664" y1="97.0856" x2="527.09" y2="229.121" gradientUnits="userSpaceOnUse"> <stop stop-color="#FFEAC2" stop-opacity="0.72"></stop> <stop offset="1" stop-color="#BCB6FF" stop-opacity="0.85"></stop> </linearGradient> <linearGradient id="paint41_linear_3016_124" x1="531.973" y1="101.789" x2="526.354" y2="234.88" gradientUnits="userSpaceOnUse"> <stop stop-color="#FFEAC2" stop-opacity="0.72"></stop> <stop offset="1" stop-color="#BCB6FF" stop-opacity="0.85"></stop> </linearGradient> <linearGradient id="paint42_linear_3016_124" x1="531.468" y1="112.424" x2="525.759" y2="247.64" gradientUnits="userSpaceOnUse"> <stop stop-color="#FFEAC2" stop-opacity="0.72"></stop> <stop offset="1" stop-color="#BCB6FF" stop-opacity="0.85"></stop> </linearGradient> <linearGradient id="paint43_linear_3016_124" x1="531.677" y1="118.385" x2="525.923" y2="254.67" gradientUnits="userSpaceOnUse"> <stop stop-color="#FFEAC2" stop-opacity="0.72"></stop> <stop offset="1" stop-color="#BCB6FF" stop-opacity="0.85"></stop> </linearGradient> <linearGradient id="paint44_linear_3016_124" x1="532.225" y1="124.812" x2="526.427" y2="262.155" gradientUnits="userSpaceOnUse"> <stop stop-color="#FFEAC2" stop-opacity="0.72"></stop> <stop offset="1" stop-color="#BCB6FF" stop-opacity="0.85"></stop> </linearGradient> </defs> </svg> 