<?xml version="1.0" encoding="UTF-8"?> <svg xmlns="http://www.w3.org/2000/svg" width="1116" height="626" viewBox="0 0 1116 626" fill="none"> <g opacity="0.5" filter="url(#filter0_f_2822_65)"> <path d="M345.439 344.794C309.419 380.065 422.326 386.182 597.623 358.457C772.92 330.732 825.727 344.292 861.747 309.021C897.767 273.751 672.066 274.626 564.905 250.303C389.608 278.028 381.458 309.524 345.439 344.794Z" fill="url(#paint0_linear_2822_65)" fill-opacity="0.49"></path> </g> <g opacity="0.5" filter="url(#filter1_f_2822_65)"> <path d="M155.666 381.429C141.925 399.108 147.774 431.864 308.449 436.698C447.237 384.176 613.735 456.901 742.906 445.937C756.647 428.258 648.876 324.562 488.2 319.727C409.464 368.386 169.407 363.749 155.666 381.429Z" fill="#EFB18D" fill-opacity="0.37"></path> </g> <g opacity="0.5" filter="url(#filter2_f_2822_65)"> <ellipse rx="76.2573" ry="27.8739" transform="matrix(-0.986216 -0.165464 -0.658103 0.752928 496.838 345.366)" fill="#B6CFFF" fill-opacity="0.16"></ellipse> </g> <defs> <filter id="filter0_f_2822_65" x="88.743" y="0.302734" width="1026.86" height="625.526" filterUnits="userSpaceOnUse" color-interpolation-filters="sRGB"> <feFlood flood-opacity="0" result="BackgroundImageFix"></feFlood> <feBlend mode="normal" in="SourceGraphic" in2="BackgroundImageFix" result="shape"></feBlend> <feGaussianBlur stdDeviation="125" result="effect1_foregroundBlur_2822_65"></feGaussianBlur> </filter> <filter id="filter1_f_2822_65" x="0.850098" y="169.728" width="893.234" height="427.354" filterUnits="userSpaceOnUse" color-interpolation-filters="sRGB"> <feFlood flood-opacity="0" result="BackgroundImageFix"></feFlood> <feBlend mode="normal" in="SourceGraphic" in2="BackgroundImageFix" result="shape"></feBlend> <feGaussianBlur stdDeviation="75" result="effect1_foregroundBlur_2822_65"></feGaussianBlur> </filter> <filter id="filter2_f_2822_65" x="319.409" y="220.875" width="354.858" height="248.983" filterUnits="userSpaceOnUse" color-interpolation-filters="sRGB"> <feFlood flood-opacity="0" result="BackgroundImageFix"></feFlood> <feBlend mode="normal" in="SourceGraphic" in2="BackgroundImageFix" result="shape"></feBlend> <feGaussianBlur stdDeviation="50" result="effect1_foregroundBlur_2822_65"></feGaussianBlur> </filter> <linearGradient id="paint0_linear_2822_65" x1="636.529" y1="337.037" x2="532.998" y2="517.689" gradientUnits="userSpaceOnUse"> <stop stop-color="#9C6DFF"></stop> <stop offset="1" stop-color="white" stop-opacity="0.87"></stop> </linearGradient> </defs> </svg> 