<?xml version="1.0" encoding="UTF-8"?> <svg xmlns="http://www.w3.org/2000/svg" width="233" height="200" viewBox="0 0 233 200" fill="none"> <path d="M20 0.5H232.5V199.5H0.5V20C0.5 9.23045 9.23045 0.5 20 0.5Z" fill="#F0F0F0" stroke="#C7C7C7"></path> <path d="M76.3741 99.2116C77.7185 91.7159 73.2325 85.0137 66.2093 82.7875C53.7383 78.8331 44.8998 90.4651 45.0009 102.187C45.0839 111.659 47.0779 117.956 47.0797 117.959C46.9894 117.676 49.4345 116.367 49.7179 116.218C50.6793 115.723 51.6765 115.304 52.7007 114.964C54.8048 114.253 56.981 113.803 59.1374 113.301C65.8881 111.733 73.1404 108.77 75.7227 101.64C76.0076 100.851 76.2254 100.038 76.3741 99.2116Z" fill="#FF5C28"></path> <path d="M188.912 107.443H184.137V86.8274L188.912 85.4902V107.443Z" fill="#48001E"></path> <path d="M103.105 91.8141V87.5896L98.4128 88.8992V101.782C98.4128 103.99 98.8513 105.492 99.7446 106.425C100.526 107.217 101.814 107.768 103.354 107.768C104.673 107.768 105.837 107.577 106.432 107.353L106.401 103.679C105.937 103.781 105.462 103.824 104.987 103.808C103.574 103.808 103.105 102.939 103.105 101.053V95.3957H106.533V91.8141H103.105Z" fill="#48001E"></path> <path d="M88.9381 104.374C87.5288 104.374 85.7008 103.773 84.822 103.222L83.9775 106.669C85.1378 107.311 86.9297 107.788 88.9399 107.788C93.3375 107.788 95.5679 105.645 95.5679 102.706C95.5336 100.436 94.339 98.9001 91.4175 97.8771C89.5336 97.2067 88.9381 96.8228 88.9381 96.055C88.9381 95.2873 89.5968 94.8079 90.7589 94.8079C91.9217 94.8455 93.0609 95.152 94.09 95.7042L94.9057 92.3467C93.9637 91.8765 92.392 91.4283 90.6019 91.4283C86.8016 91.4283 84.3511 93.6324 84.3511 96.5711C84.3204 98.4263 85.5439 100.186 88.7487 101.264C90.5099 101.872 90.979 102.256 90.979 103.088C90.979 103.894 90.3818 104.374 88.9381 104.374Z" fill="#48001E"></path> <path fill-rule="evenodd" clip-rule="evenodd" d="M124.295 99.4494C124.295 105.173 120.306 107.794 116.191 107.794C111.7 107.794 108.252 104.789 108.252 99.7378C108.252 94.6537 111.518 91.4247 116.482 91.4247C121.148 91.4247 124.295 94.7143 124.295 99.4494ZM113.176 99.6092C113.176 102.295 114.277 104.309 116.318 104.309C118.202 104.309 119.366 102.423 119.366 99.5762C119.366 97.2766 118.485 94.909 116.318 94.909C114.057 94.909 113.176 97.3078 113.176 99.6092Z" fill="#48001E"></path> <path d="M127.122 91.8122C127.218 93.1512 127.248 94.6537 127.248 96.9551V107.443H132.019V99.5173C132.017 99.1527 132.048 98.7885 132.113 98.43C132.427 96.9275 133.62 95.9687 135.379 95.9687C135.811 95.9716 136.242 96.0146 136.666 96.0973V91.5238C136.336 91.4556 136 91.4236 135.663 91.4283C134.154 91.4283 132.299 92.3871 131.512 94.6904H131.388L131.207 91.8122H127.122Z" fill="#48001E"></path> <path d="M143.332 91.8085L145.626 99.5136C145.876 100.408 146.189 101.591 146.378 102.423H146.504L146.598 101.994C146.772 101.201 146.978 100.258 147.165 99.4842L149.079 91.8104H154.172L150.59 102.105C148.397 108.337 146.912 110.799 145.185 112.365C143.909 113.542 142.308 114.289 140.6 114.507L139.555 110.415C140.285 110.247 140.986 109.969 141.636 109.592C142.45 109.124 143.133 108.453 143.621 107.641C143.763 107.433 143.849 107.192 143.872 106.94C143.867 106.663 143.805 106.39 143.691 106.139L138.036 91.8122L143.332 91.8085Z" fill="#48001E"></path> <path d="M161.52 91.8141V87.5896L156.841 88.8992V101.788C156.841 103.995 157.282 105.498 158.16 106.425C158.942 107.217 160.23 107.768 161.769 107.768C163.088 107.768 164.251 107.577 164.848 107.353L164.815 103.679C164.351 103.781 163.877 103.824 163.402 103.808C161.99 103.808 161.52 102.939 161.52 101.053V95.3957H164.949V91.8141H161.52Z" fill="#48001E"></path> <path fill-rule="evenodd" clip-rule="evenodd" d="M171.227 101.176C171.35 103.196 173.331 104.15 175.558 104.15C176.997 104.173 178.43 103.946 179.795 103.477L180.423 106.771C178.853 107.443 176.936 107.762 174.865 107.762C169.65 107.762 166.665 104.693 166.665 99.802C166.665 95.8365 169.083 91.4559 174.424 91.4559C179.387 91.4559 181.282 95.3902 181.282 99.2565C181.282 99.8997 181.23 100.542 181.125 101.176H171.227ZM176.848 97.8514C176.848 96.6686 176.346 94.6867 174.141 94.6867C172.129 94.6867 171.313 96.5712 171.189 97.8514H176.848Z" fill="#48001E"></path> </svg> 