<?xml version="1.0" encoding="UTF-8"?> <svg xmlns="http://www.w3.org/2000/svg" width="40" height="40" viewBox="0 0 40 40" fill="none"> <path fill-rule="evenodd" clip-rule="evenodd" d="M20 40C31.0457 40 40 31.0459 40 20C40 8.9541 31.0457 0 20 0C8.95428 0 0 8.9541 0 20C0 31.0459 8.95428 40 20 40ZM14.9942 13.832V28.001H10.2783V13.832H14.9942ZM15.305 9.44824C15.305 10.8086 14.2814 11.8965 12.6368 11.8965H12.606C11.0234 11.8965 10 10.8086 10 9.44824C10 8.05859 10.9929 7 12.606 7C14.2194 7 15.2744 8.05859 15.305 9.44824ZM22.3204 28.001H17.6044C17.6044 28.001 17.6664 15.1611 17.6046 13.832H22.3205V15.8379C22.9472 14.8721 24.069 13.499 26.5706 13.499C29.6734 13.499 32 15.5244 32 19.876V28.001H27.2844V20.4209C27.2844 18.5156 26.6017 17.2168 24.8951 17.2168C23.5924 17.2168 22.8165 18.0928 22.4755 18.9395C22.389 19.1494 22.3478 19.417 22.3307 19.7031C22.3232 19.8291 22.3204 19.959 22.3204 20.0879V28.001Z" fill="#FFE78C"></path> </svg> 