<?xml version="1.0" encoding="UTF-8"?> <svg xmlns="http://www.w3.org/2000/svg" width="452" height="364" viewBox="0 0 452 364" fill="none"> <rect x="150.666" y="103.533" width="150.919" height="145.905" rx="7.75" fill="url(#paint0_linear_3084_70)" fill-opacity="0.5" stroke="url(#paint1_linear_3084_70)" stroke-width="0.5"></rect> <path d="M301.833 219.604H375.266C376.015 219.604 376.749 219.814 377.384 220.211L412.401 242.062C413.036 242.458 413.77 242.668 414.519 242.668H449.241" stroke="url(#paint2_linear_3084_70)" stroke-width="2"></path> <path d="M265.154 103.291V53.7824C265.154 52.7855 265.527 51.8251 266.198 51.0893L287.174 28.1042C287.846 27.3684 288.218 26.4079 288.218 25.4111V2.40484" stroke="url(#paint3_linear_3084_70)" stroke-width="2"></path> <path d="M150.416 219.604H120.218C119.065 219.604 117.967 220.102 117.208 220.971L92.4093 249.324C91.6497 250.192 90.5522 250.69 89.3984 250.69H-0.000210881" stroke="url(#paint4_linear_3084_70)" stroke-width="2"></path> <path d="M267.159 249.729V271.67C267.159 273.016 267.835 274.272 268.959 275.014L296.444 293.151C297.568 293.893 298.244 295.149 298.244 296.495V363" stroke="url(#paint5_linear_3084_70)" stroke-width="2"></path> <path d="M301.833 203.56H375.556C376.262 203.56 376.956 203.747 377.566 204.102L413.65 225.079C414.261 225.434 414.955 225.621 415.661 225.621H449.241" stroke="url(#paint6_linear_3084_70)" stroke-width="2"></path> <path d="M249.107 103.291V53.5502C249.107 52.6017 249.444 51.6846 250.058 50.9624L270.217 27.2497C270.831 26.5276 271.168 25.6104 271.168 24.662V2.40345" stroke="url(#paint7_linear_3084_70)" stroke-width="2"></path> <path d="M150.416 203.56H114.267C113.185 203.56 112.148 203.999 111.395 204.776L90.4312 226.41C89.6777 227.187 88.6413 227.626 87.5586 227.626H3.0081" stroke="url(#paint8_linear_3084_70)" stroke-width="2"></path> <path d="M251.107 249.687V276.139C251.107 277.417 251.718 278.619 252.75 279.374L273.531 294.568C274.563 295.323 275.174 296.525 275.174 297.802V360.689" stroke="url(#paint9_linear_3084_70)" stroke-width="2"></path> <path d="M301.833 186.513H379.398C380.151 186.513 380.889 186.725 381.527 187.126L414.672 207.96C415.31 208.361 416.048 208.574 416.801 208.574H447.235" stroke="url(#paint10_linear_3084_70)" stroke-width="2"></path> <path d="M232.067 103.291V50.9571C232.067 49.9552 232.443 48.9904 233.12 48.2533L253.074 26.5477C253.752 25.8107 254.128 24.8458 254.128 23.8439V3.77648" stroke="url(#paint11_linear_3084_70)" stroke-width="2"></path> <path d="M150.416 186.513H-0.000213355" stroke="url(#paint12_linear_3084_70)" stroke-width="2"></path> <path d="M234.067 249.687L234.067 362.912" stroke="url(#paint13_linear_3084_70)" stroke-width="2"></path> <path d="M301.833 169.466H451.246" stroke="url(#paint14_linear_3084_70)" stroke-width="2"></path> <path d="M215.011 103.291L215.011 1.00001" stroke="url(#paint15_linear_3084_70)" stroke-width="2"></path> <path d="M150.416 169.466H-0.000213355" stroke="url(#paint16_linear_3084_70)" stroke-width="2"></path> <path d="M217.02 249.687L217.02 362.912" stroke="url(#paint17_linear_3084_70)" stroke-width="2"></path> <path d="M301.833 153.421H451.246" stroke="url(#paint18_linear_3084_70)" stroke-width="2"></path> <path d="M198.972 103.291L198.972 1.00001" stroke="url(#paint19_linear_3084_70)" stroke-width="2"></path> <path d="M150.416 153.421H-0.000213355" stroke="url(#paint20_linear_3084_70)" stroke-width="2"></path> <path d="M200.976 249.687L200.976 362.912" stroke="url(#paint21_linear_3084_70)" stroke-width="2"></path> <path d="M301.833 136.374H451.246" stroke="url(#paint22_linear_3084_70)" stroke-width="2"></path> <path d="M181.924 103.291L181.924 1.00001" stroke="url(#paint23_linear_3084_70)" stroke-width="2"></path> <path d="M150.416 136.374H76.0624C75.4728 136.374 74.8906 136.244 74.3573 135.992L46.1866 122.717C45.6533 122.466 45.071 122.335 44.4814 122.335H3.00811" stroke="url(#paint24_linear_3084_70)" stroke-width="2"></path> <path d="M183.921 249.712V305.206C183.921 305.956 183.709 306.691 183.311 307.327L170.491 327.782C170.093 328.418 169.882 329.153 169.882 329.903V360.647" stroke="url(#paint25_linear_3084_70)" stroke-width="2"></path> <rect x="166.709" y="117.571" width="118.83" height="117.827" rx="3.75" fill="url(#paint26_linear_3084_70)" fill-opacity="0.5" stroke="url(#paint27_linear_3084_70)" stroke-width="0.5"></rect> <path d="M211.963 171.709H206.69C206.54 170.833 206.263 170.058 205.859 169.382C205.454 168.696 204.952 168.116 204.35 167.64C203.749 167.164 203.062 166.807 202.292 166.569C201.53 166.322 200.708 166.198 199.825 166.198C198.255 166.198 196.864 166.598 195.651 167.397C194.439 168.187 193.49 169.348 192.804 170.881C192.117 172.404 191.774 174.265 191.774 176.464C191.774 178.7 192.117 180.585 192.804 182.117C193.499 183.64 194.448 184.792 195.651 185.573C196.864 186.344 198.25 186.729 199.81 186.729C200.675 186.729 201.483 186.615 202.235 186.387C202.997 186.149 203.678 185.801 204.28 185.344C204.891 184.887 205.403 184.326 205.816 183.659C206.239 182.993 206.531 182.232 206.69 181.375L211.963 181.404C211.766 182.793 211.338 184.097 210.68 185.316C210.032 186.534 209.181 187.61 208.128 188.542C207.076 189.466 205.845 190.189 204.435 190.713C203.025 191.227 201.46 191.484 199.74 191.484C197.202 191.484 194.937 190.889 192.945 189.699C190.952 188.509 189.382 186.791 188.236 184.545C187.089 182.298 186.516 179.605 186.516 176.464C186.516 173.313 187.094 170.619 188.25 168.382C189.406 166.136 190.98 164.418 192.973 163.228C194.965 162.038 197.221 161.443 199.74 161.443C201.347 161.443 202.842 161.672 204.223 162.129C205.605 162.586 206.836 163.257 207.917 164.142C208.998 165.018 209.886 166.093 210.582 167.369C211.287 168.635 211.747 170.081 211.963 171.709Z" fill="#C7C7C7"></path> <path d="M216.753 191.084V161.843H227.581C229.799 161.843 231.66 162.262 233.164 163.1C234.677 163.937 235.819 165.089 236.59 166.555C237.37 168.011 237.76 169.667 237.76 171.523C237.76 173.399 237.37 175.064 236.59 176.521C235.81 177.977 234.658 179.124 233.136 179.962C231.613 180.79 229.738 181.204 227.51 181.204H220.334V176.849H226.805C228.102 176.849 229.164 176.621 229.992 176.164C230.819 175.707 231.43 175.079 231.824 174.279C232.229 173.479 232.431 172.561 232.431 171.523C232.431 170.486 232.229 169.572 231.824 168.782C231.43 167.992 230.814 167.378 229.977 166.94C229.15 166.493 228.084 166.269 226.777 166.269H221.984V191.084H216.753Z" fill="#C7C7C7"></path> <path d="M260.504 161.843H265.735V180.947C265.735 183.041 265.246 184.883 264.268 186.472C263.3 188.062 261.937 189.304 260.18 190.199C258.422 191.084 256.369 191.527 254.019 191.527C251.66 191.527 249.601 191.084 247.844 190.199C246.086 189.304 244.723 188.062 243.755 186.472C242.787 184.883 242.303 183.041 242.303 180.947V161.843H247.534V180.504C247.534 181.722 247.797 182.808 248.323 183.759C248.859 184.711 249.611 185.458 250.579 186.001C251.547 186.534 252.694 186.801 254.019 186.801C255.344 186.801 256.491 186.534 257.459 186.001C258.436 185.458 259.188 184.711 259.715 183.759C260.241 182.808 260.504 181.722 260.504 180.504V161.843Z" fill="#C7C7C7"></path> <defs> <linearGradient id="paint0_linear_3084_70" x1="175.986" y1="-47.1057" x2="354.982" y2="295.852" gradientUnits="userSpaceOnUse"> <stop stop-color="#E4947B" stop-opacity="0.19"></stop> <stop offset="1" stop-color="#5B59A5" stop-opacity="0"></stop> </linearGradient> <linearGradient id="paint1_linear_3084_70" x1="84.0531" y1="-74.2955" x2="372.148" y2="247.054" gradientUnits="userSpaceOnUse"> <stop stop-color="white" stop-opacity="0.32"></stop> <stop offset="1" stop-color="white" stop-opacity="0"></stop> </linearGradient> <linearGradient id="paint2_linear_3084_70" x1="443.843" y1="280.169" x2="292.026" y2="245.299" gradientUnits="userSpaceOnUse"> <stop stop-color="#21222A"></stop> <stop offset="1" stop-color="#4C4950"></stop> </linearGradient> <linearGradient id="paint3_linear_3084_70" x1="330.921" y1="-4.44599" x2="309.894" y2="117.238" gradientUnits="userSpaceOnUse"> <stop stop-color="#242229"></stop> <stop offset="1" stop-color="#4C4950"></stop> </linearGradient> <linearGradient id="paint4_linear_3084_70" x1="12.9954" y1="241.21" x2="152.205" y2="213.021" gradientUnits="userSpaceOnUse"> <stop stop-color="#2B2830"></stop> <stop offset="1" stop-color="#4C4950"></stop> </linearGradient> <linearGradient id="paint5_linear_3084_70" x1="293.272" y1="371.5" x2="273.33" y2="246.338" gradientUnits="userSpaceOnUse"> <stop stop-color="#222329"></stop> <stop offset="1" stop-color="#4C4950"></stop> </linearGradient> <linearGradient id="paint6_linear_3084_70" x1="443.843" y1="261.491" x2="292.73" y2="225.206" gradientUnits="userSpaceOnUse"> <stop stop-color="#21222A"></stop> <stop offset="1" stop-color="#4C4950"></stop> </linearGradient> <linearGradient id="paint7_linear_3084_70" x1="312.015" y1="-4.44993" x2="290.098" y2="116.909" gradientUnits="userSpaceOnUse"> <stop stop-color="#242229"></stop> <stop offset="1" stop-color="#4C4950"></stop> </linearGradient> <linearGradient id="paint8_linear_3084_70" x1="-4.8157" y1="221.955" x2="149.169" y2="185.726" gradientUnits="userSpaceOnUse"> <stop stop-color="#2B2830"></stop> <stop offset="1" stop-color="#4C4950"></stop> </linearGradient> <linearGradient id="paint9_linear_3084_70" x1="271.772" y1="372" x2="248.327" y2="247.921" gradientUnits="userSpaceOnUse"> <stop stop-color="#212129"></stop> <stop offset="1" stop-color="#4C4950"></stop> </linearGradient> <linearGradient id="paint10_linear_3084_70" x1="441.911" y1="244.444" x2="292.634" y2="209.087" gradientUnits="userSpaceOnUse"> <stop stop-color="#21222A"></stop> <stop offset="1" stop-color="#4C4950"></stop> </linearGradient> <linearGradient id="paint11_linear_3084_70" x1="294.975" y1="-2.9829" x2="273.63" y2="116.826" gradientUnits="userSpaceOnUse"> <stop stop-color="#242229"></stop> <stop offset="1" stop-color="#4C4950"></stop> </linearGradient> <linearGradient id="paint12_linear_3084_70" x1="-30.3291" y1="179.326" x2="-23.0521" y2="146.933" gradientUnits="userSpaceOnUse"> <stop stop-color="#2B2830"></stop> <stop offset="1" stop-color="#4C4950"></stop> </linearGradient> <linearGradient id="paint13_linear_3084_70" x1="234.274" y1="367" x2="206.726" y2="360.326" gradientUnits="userSpaceOnUse"> <stop stop-color="#202027"></stop> <stop offset="1" stop-color="#4C4950"></stop> </linearGradient> <linearGradient id="paint14_linear_3084_70" x1="445.775" y1="172.092" x2="440.344" y2="142.932" gradientUnits="userSpaceOnUse"> <stop stop-color="#21222A"></stop> <stop offset="1" stop-color="#4C4950"></stop> </linearGradient> <linearGradient id="paint15_linear_3084_70" x1="217.863" y1="-5.9998" x2="188.033" y2="1.44117" gradientUnits="userSpaceOnUse"> <stop stop-color="#242229"></stop> <stop offset="1" stop-color="#4C4950"></stop> </linearGradient> <linearGradient id="paint16_linear_3084_70" x1="-19.2572" y1="164.985" x2="-12.8271" y2="134.475" gradientUnits="userSpaceOnUse"> <stop stop-color="#2B2830"></stop> <stop offset="1" stop-color="#4C4950"></stop> </linearGradient> <linearGradient id="paint17_linear_3084_70" x1="217.273" y1="369" x2="189.258" y2="362.223" gradientUnits="userSpaceOnUse"> <stop stop-color="#212128"></stop> <stop offset="1" stop-color="#4C4950"></stop> </linearGradient> <linearGradient id="paint18_linear_3084_70" x1="445.775" y1="156.047" x2="440.344" y2="126.888" gradientUnits="userSpaceOnUse"> <stop stop-color="#21222A"></stop> <stop offset="1" stop-color="#4C4950"></stop> </linearGradient> <linearGradient id="paint19_linear_3084_70" x1="201.823" y1="-5.9998" x2="171.994" y2="1.44117" gradientUnits="userSpaceOnUse"> <stop stop-color="#242229"></stop> <stop offset="1" stop-color="#4C4950"></stop> </linearGradient> <linearGradient id="paint20_linear_3084_70" x1="-35.6242" y1="143.105" x2="-27.6172" y2="109.879" gradientUnits="userSpaceOnUse"> <stop stop-color="#2B2830"></stop> <stop offset="1" stop-color="#4C4950"></stop> </linearGradient> <linearGradient id="paint21_linear_3084_70" x1="202.273" y1="364.5" x2="175.242" y2="358.222" gradientUnits="userSpaceOnUse"> <stop stop-color="#24242B"></stop> <stop offset="1" stop-color="#4C4950"></stop> </linearGradient> <linearGradient id="paint22_linear_3084_70" x1="445.775" y1="139" x2="440.344" y2="109.84" gradientUnits="userSpaceOnUse"> <stop stop-color="#21222A"></stop> <stop offset="1" stop-color="#4C4950"></stop> </linearGradient> <linearGradient id="paint23_linear_3084_70" x1="184.775" y1="-5.9998" x2="154.946" y2="1.44117" gradientUnits="userSpaceOnUse"> <stop stop-color="#242229"></stop> <stop offset="1" stop-color="#4C4950"></stop> </linearGradient> <linearGradient id="paint24_linear_3084_70" x1="13.9582" y1="118.457" x2="148.567" y2="96.7795" gradientUnits="userSpaceOnUse"> <stop stop-color="#2B2830"></stop> <stop offset="1" stop-color="#4C4950"></stop> </linearGradient> <linearGradient id="paint25_linear_3084_70" x1="170.89" y1="370.221" x2="175.55" y2="248.577" gradientUnits="userSpaceOnUse"> <stop stop-color="#202027"></stop> <stop offset="1" stop-color="#4C4950"></stop> </linearGradient> <linearGradient id="paint26_linear_3084_70" x1="185.512" y1="44.2369" x2="341.556" y2="298.722" gradientUnits="userSpaceOnUse"> <stop stop-color="#E4947B" stop-opacity="0.19"></stop> <stop offset="1" stop-color="#5B59A5" stop-opacity="0"></stop> </linearGradient> <linearGradient id="paint27_linear_3084_70" x1="162.95" y1="-97.4572" x2="360.776" y2="246.37" gradientUnits="userSpaceOnUse"> <stop stop-color="white" stop-opacity="0.32"></stop> <stop offset="1" stop-color="white" stop-opacity="0"></stop> </linearGradient> </defs> </svg> 