<?xml version="1.0" encoding="UTF-8"?> <svg xmlns="http://www.w3.org/2000/svg" width="1675" height="2446" viewBox="0 0 1675 2446" fill="none"> <g opacity="0.5"> <g filter="url(#filter0_f_2961_447)"> <path d="M1184.07 971.964C1155.7 999.187 1121.96 955.272 1086.19 936.123C1050.42 916.973 1030.36 987.901 1006.37 955.453C982.386 923.005 967.071 915.936 954.603 877.558C942.136 839.18 934.989 806.113 902.548 774.083C870.106 742.052 793.876 680.128 787.584 694.945C781.293 709.762 752.937 716.311 760.157 743.39C767.377 770.469 759.509 795.602 793.569 846.907C827.629 898.211 858.166 921.696 853.637 968.578C849.107 1015.46 908.69 1107.88 888.872 1131.11C869.055 1154.34 879.496 1232.19 846.282 1236.23C813.069 1240.26 623.919 1241.94 602.379 1256.93C580.839 1271.91 519.188 1202.94 477.475 1269.41C472.016 1278.11 467.641 1284.02 464.234 1287.92C452.73 1285.07 449.872 1304.38 464.234 1287.92C470.853 1289.57 480.334 1298.55 491.045 1325.91C512.276 1380.13 743.647 1479.58 879.264 1529.7C905.561 1553.88 1019.94 1571.99 965.899 1558.61C950.226 1554.73 918.817 1544.31 879.264 1529.7C871.781 1522.81 871.429 1515.44 884.115 1508.16C941.389 1475.28 640.254 1327.79 704.421 1339.45C768.587 1351.1 900.957 1427.22 915.2 1440.68C929.443 1454.14 939.525 1521 966.851 1519.89C994.177 1518.78 1024.02 1595.43 1043.97 1544.59C1063.92 1493.75 1303.54 1569.46 1292.95 1556.21C1282.36 1542.96 1250.58 1463.26 1254.87 1420.39C1259.15 1377.52 1165.18 1333.99 1206.5 1296.73C1247.81 1259.46 1066.01 1227.75 1109.08 1205.24C1152.15 1182.72 1015.51 1167.27 1053.58 1104.68C1091.65 1042.09 1252.93 994.018 1261.87 968.267C1270.82 942.517 1288.66 897.736 1255.9 887.245C1229.7 878.853 1197.09 940.228 1184.07 971.964Z" fill="url(#paint0_radial_2961_447)"></path> </g> <g filter="url(#filter1_f_2961_447)"> <path d="M1116.38 1430.98C1161.84 1447.5 1183.01 1422.13 1209.44 1405.15C1217.22 1383.71 1240.77 1342.85 1272.79 1350.96C1312.82 1361.09 1302.46 1391.39 1298.03 1408.92C1293.59 1426.45 1296.57 1490.22 1267.01 1531.49C1237.45 1572.76 1220.56 1552.03 1176.16 1564.46C1131.77 1576.9 1086.18 1547.03 1047.15 1570.07C1008.12 1593.12 1050.01 1608.36 1054.81 1638.42C1059.61 1668.48 1140.44 1690.21 1155.62 1700.48C1170.79 1710.75 1126.99 1831.01 1115.59 1865.44C1104.2 1899.86 1126.23 1767.91 1095.08 1766.45C1063.92 1765 1043.34 1729.81 1023.92 1719.09C1004.5 1708.38 834.481 1649.51 758.092 1635.97C681.703 1622.44 562.307 1675.66 503.939 1694.28C445.571 1712.9 514.748 1671.51 431.076 1653.63C347.405 1635.74 465.279 1619.72 426.384 1568.02C387.488 1516.32 486.502 1577.09 519.367 1533.36C552.232 1489.64 576.563 1503.48 597.921 1494.62C619.278 1485.76 732.499 1526.07 769.757 1525.94C807.014 1525.81 730.393 1433.78 747.901 1418.93C765.409 1404.08 710.506 1364.34 705.078 1331.45C699.651 1298.57 838.42 1345.48 787.639 1306.29C736.859 1267.1 684.843 1228.02 670.404 1208.22C655.965 1188.42 687.069 1186.1 690.939 1176.11C694.81 1166.11 796.465 1216.3 841.014 1241.68C885.563 1267.06 1035.32 1295.56 1058.36 1323.81C1081.39 1352.05 966.547 1353.87 1001.47 1378.85C1036.4 1403.84 1070.93 1414.46 1116.38 1430.98Z" fill="url(#paint1_radial_2961_447)"></path> </g> <g filter="url(#filter2_f_2961_447)"> <path d="M878.17 198.558C872.84 257.523 862.889 388.809 865.722 442.23C869.265 509.008 874.952 599.935 870.19 650.191C865.428 700.447 813.785 795.592 793.159 880.761C772.532 965.929 694.537 1113.87 696.092 1156.46C697.648 1199.06 326.27 1106.71 315.757 1265.25C305.244 1423.78 590.144 1540.06 601.733 1567.32C613.321 1594.57 518.271 1556.26 517.132 1633.78C516.151 1700.51 676.106 1963.81 700.934 2050.71C681.249 2080.32 671.492 2099.72 701.118 2077.45C705.431 2074.21 704.952 2064.77 700.934 2050.71C722.71 2017.95 756.634 1972.69 762.835 1957.52C774.643 1928.64 629.825 1874.74 631.581 1765.6C633.337 1656.47 715.908 1623.63 720.304 1570.02C724.7 1516.41 772.004 1299.46 762.503 1216.8C753.002 1134.14 877.441 931.389 894.171 844.773C910.9 758.158 938.196 614.879 938.595 575.297C938.993 535.715 935.26 447.8 925.759 429.248C916.258 410.697 895.374 375.717 889.653 327.727C883.933 279.738 881.425 294.017 885.767 210.08C889.239 142.931 882.149 174.42 878.17 198.558Z" fill="#FD9CFF" fill-opacity="0.24"></path> </g> <g filter="url(#filter3_f_2961_447)"> <ellipse rx="295.786" ry="144.501" transform="matrix(0.3499 -0.936787 -0.681732 -0.731602 678.8 1514.96)" fill="#3693D7" fill-opacity="0.14"></ellipse> </g> <g filter="url(#filter4_f_2961_447)"> <ellipse rx="295.786" ry="144.501" transform="matrix(0.3499 -0.936787 -0.681732 -0.731602 503.624 1401.21)" fill="#2400FF" fill-opacity="0.14"></ellipse> </g> </g> <defs> <filter id="filter0_f_2961_447" x="254.505" y="492.693" width="1238.78" height="1270.46" filterUnits="userSpaceOnUse" color-interpolation-filters="sRGB"> <feFlood flood-opacity="0" result="BackgroundImageFix"></feFlood> <feBlend mode="normal" in="SourceGraphic" in2="BackgroundImageFix" result="shape"></feBlend> <feGaussianBlur stdDeviation="100" result="effect1_foregroundBlur_2961_447"></feGaussianBlur> </filter> <filter id="filter1_f_2961_447" x="250.321" y="1024.81" width="1202.27" height="996.354" filterUnits="userSpaceOnUse" color-interpolation-filters="sRGB"> <feFlood flood-opacity="0" result="BackgroundImageFix"></feFlood> <feBlend mode="normal" in="SourceGraphic" in2="BackgroundImageFix" result="shape"></feBlend> <feGaussianBlur stdDeviation="75" result="effect1_foregroundBlur_2961_447"></feGaussianBlur> </filter> <filter id="filter2_f_2961_447" x="215.473" y="69.6929" width="823.15" height="2117.4" filterUnits="userSpaceOnUse" color-interpolation-filters="sRGB"> <feFlood flood-opacity="0" result="BackgroundImageFix"></feFlood> <feBlend mode="normal" in="SourceGraphic" in2="BackgroundImageFix" result="shape"></feBlend> <feGaussianBlur stdDeviation="50" result="effect1_foregroundBlur_2961_447"></feGaussianBlur> </filter> <filter id="filter3_f_2961_447" x="285.917" y="968.312" width="785.768" height="1093.3" filterUnits="userSpaceOnUse" color-interpolation-filters="sRGB"> <feFlood flood-opacity="0" result="BackgroundImageFix"></feFlood> <feBlend mode="normal" in="SourceGraphic" in2="BackgroundImageFix" result="shape"></feBlend> <feGaussianBlur stdDeviation="125" result="effect1_foregroundBlur_2961_447"></feGaussianBlur> </filter> <filter id="filter4_f_2961_447" x="110.74" y="854.561" width="785.768" height="1093.3" filterUnits="userSpaceOnUse" color-interpolation-filters="sRGB"> <feFlood flood-opacity="0" result="BackgroundImageFix"></feFlood> <feBlend mode="normal" in="SourceGraphic" in2="BackgroundImageFix" result="shape"></feBlend> <feGaussianBlur stdDeviation="125" result="effect1_foregroundBlur_2961_447"></feGaussianBlur> </filter> <radialGradient id="paint0_radial_2961_447" cx="0" cy="0" r="1" gradientUnits="userSpaceOnUse" gradientTransform="translate(805.769 1289.65) rotate(-4.81049) scale(342.5 457.616)"> <stop stop-color="#FDF8E0" stop-opacity="0.65"></stop> <stop offset="1" stop-color="#FF5C00" stop-opacity="0.21"></stop> </radialGradient> <radialGradient id="paint1_radial_2961_447" cx="0" cy="0" r="1" gradientUnits="userSpaceOnUse" gradientTransform="translate(502.957 1442.86) rotate(10.2909) scale(999.668 448.974)"> <stop stop-color="#F27630" stop-opacity="0.76"></stop> <stop offset="1" stop-color="#5E33B9" stop-opacity="0.88"></stop> </radialGradient> </defs> </svg> 