<?xml version="1.0" encoding="UTF-8"?> <svg xmlns="http://www.w3.org/2000/svg" width="622" height="142" viewBox="0 0 622 142" fill="none"> <rect x="0.5" y="0.5" width="621" height="141" rx="20.5" fill="url(#paint0_linear_3016_295)"></rect> <rect x="0.5" y="0.5" width="621" height="141" rx="20.5" fill="url(#paint1_linear_3016_295)"></rect> <rect x="0.5" y="0.5" width="621" height="141" rx="20.5" stroke="url(#paint2_linear_3016_295)"></rect> <mask id="mask0_3016_295" style="mask-type:alpha" maskUnits="userSpaceOnUse" x="1" y="1" width="620" height="140"> <rect x="1.5" y="1.5" width="619" height="139" rx="19.5" fill="url(#paint3_linear_3016_295)" stroke="url(#paint4_linear_3016_295)"></rect> </mask> <g mask="url(#mask0_3016_295)"> <g filter="url(#filter0_f_3016_295)"> <ellipse rx="152.509" ry="74.4663" transform="matrix(-0.873429 0.421451 0.622939 0.83051 574.933 89.4143)" fill="#FFD39E" fill-opacity="0.4"></ellipse> </g> <g filter="url(#filter1_f_3016_295)"> <ellipse rx="153.474" ry="81.8995" transform="matrix(-1.01499 0.00343337 0.0319272 0.977113 187.39 189.552)" fill="#FF9EBB" fill-opacity="0.6"></ellipse> </g> <g filter="url(#filter2_f_3016_295)"> <ellipse rx="153.474" ry="81.8995" transform="matrix(-1.01499 0.00343337 0.0319272 0.977113 397.689 215.372)" fill="#617EE2" fill-opacity="0.6"></ellipse> </g> <path d="M290.466 160.671C323.782 150.365 352.289 134.312 385.822 123.85C409.54 116.455 431.738 106.858 455.917 100.292C520.848 82.6532 587.118 67.5759 652.554 51.3059" stroke="url(#paint5_linear_3016_295)" stroke-opacity="0.4" stroke-width="0.75" stroke-miterlimit="10"></path> <path d="M291.651 163.794C324.523 153.26 353.775 138.381 386.834 127.911C410.993 120.256 433.035 109.967 457.738 103.246C522.261 85.6848 588.776 70.7423 653.946 54.8608" stroke="url(#paint6_linear_3016_295)" stroke-opacity="0.4" stroke-width="0.75" stroke-miterlimit="10"></path> <path d="M292.514 166.321C324.803 156.006 355.461 142.923 387.626 132.316C412.608 124.073 434.478 112.315 460.246 105.302C488.177 97.6948 516.918 94.1689 545.043 87.3712C582.063 78.4274 618.336 67.4732 655.326 58.4424" stroke="url(#paint7_linear_3016_295)" stroke-opacity="0.4" stroke-width="0.75" stroke-miterlimit="10"></path> <path d="M293.102 168.353C324.769 158.594 357.156 147.844 388.218 137.039C414.346 127.952 436 114.083 463.284 106.684C491.3 99.0864 520.03 98.004 548.285 91.7884C585.068 83.6989 620.242 71.2231 656.674 62.1425" stroke="url(#paint8_linear_3016_295)" stroke-opacity="0.4" stroke-width="0.75" stroke-miterlimit="10"></path> <path d="M293.488 169.989C324.865 160.932 358.161 152.696 388.687 141.978C416.417 132.239 437.544 115.321 466.787 107.489C495.039 99.9274 523.563 101.747 552.039 96.3498C588.452 89.4472 622.445 75.0695 658.053 65.8873" stroke="url(#paint9_linear_3016_295)" stroke-opacity="0.4" stroke-width="0.75" stroke-miterlimit="10"></path> <path d="M293.695 171.215C324.714 163.068 359.43 158.212 389.029 146.994C418.14 135.968 439.269 116.033 470.585 107.859C499.253 100.377 527.38 105.402 556.138 100.992C591.98 95.5027 624.918 78.9595 659.43 69.6685" stroke="url(#paint10_linear_3016_295)" stroke-opacity="0.4" stroke-width="0.75" stroke-miterlimit="10"></path> <path d="M293.783 172.024C324.751 164.816 360.184 163.729 389.312 151.887C419.682 139.55 441.218 116.265 474.612 107.892C503.851 100.559 531.443 108.882 560.52 105.57C595.594 101.575 627.667 82.7874 660.878 73.4142" stroke="url(#paint11_linear_3016_295)" stroke-opacity="0.4" stroke-width="0.75" stroke-miterlimit="10"></path> <path d="M293.839 172.768C325.146 166.452 360.346 169.43 389.573 156.784C421.188 143.106 443.356 116.688 478.731 107.837C508.379 100.418 535.836 112.295 564.997 110.133C599.206 107.606 630.492 86.5684 662.318 77.1441" stroke="url(#paint12_linear_3016_295)" stroke-opacity="0.4" stroke-width="0.75" stroke-miterlimit="10"></path> <path d="M293.902 173.594C325.861 168.11 359.98 175.279 389.834 161.658C422.503 146.748 445.608 116.985 482.796 107.85C512.947 100.444 540.212 115.707 569.413 114.661C602.797 113.463 633.239 90.3073 663.741 80.8469" stroke="url(#paint13_linear_3016_295)" stroke-opacity="0.4" stroke-width="0.75" stroke-miterlimit="10"></path> <path d="M294.046 174.597C326.819 169.857 359.316 181.154 390.156 166.448C423.724 150.441 447.905 117.411 486.711 108.069C517.379 100.684 544.471 119.161 573.661 119.111C606.391 119.057 635.793 94.0096 665.169 84.5082" stroke="url(#paint14_linear_3016_295)" stroke-opacity="0.4" stroke-width="0.75" stroke-miterlimit="10"></path> <path d="M294.342 175.898C327.976 171.766 358.568 186.909 390.588 171.131C424.96 154.194 450.144 118.165 490.374 108.666C521.604 101.294 548.41 122.697 577.627 123.481C609.931 124.341 638.103 97.6781 666.605 88.147" stroke="url(#paint15_linear_3016_295)" stroke-opacity="0.4" stroke-width="0.75" stroke-miterlimit="10"></path> <path d="M294.814 177.597C329.237 173.865 357.903 192.393 391.12 175.656C407.995 167.158 422.807 154.768 436.862 144.362C451.84 133.264 471.777 114.846 493.621 109.771C525.513 102.361 551.761 126.329 581.129 127.732C613.261 129.266 640.092 101.298 668.016 91.7438" stroke="url(#paint16_linear_3016_295)" stroke-opacity="0.4" stroke-width="0.75" stroke-miterlimit="10"></path> <path d="M295.544 179.794C330.687 176.173 357.471 197.462 391.834 179.986C409.14 171.183 424.33 158.153 438.62 147.366C453.672 135.997 474.043 116.678 496.363 111.544C529.034 104.027 554.326 130.092 584.055 131.852C616.286 133.766 641.731 104.854 669.421 95.3093" stroke="url(#paint17_linear_3016_295)" stroke-opacity="0.4" stroke-width="0.75" stroke-miterlimit="10"></path> <path d="M296.573 182.607C332.341 178.711 357.343 202.008 392.743 184.073C410.348 175.152 425.825 161.586 440.204 150.592C455.381 138.991 475.735 119.347 498.45 114.127C532.09 106.407 555.912 133.996 586.26 135.817C618.868 137.776 642.979 108.34 670.807 98.8531" stroke="url(#paint18_linear_3016_295)" stroke-opacity="0.4" stroke-width="0.75" stroke-miterlimit="10"></path> <path d="M297.833 186.103C333.472 182.246 358.671 205.436 393.832 187.491C411.487 178.481 427.091 165.035 441.677 154.027C456.941 142.503 477.489 122.871 500.072 117.546C533.753 109.611 557.314 137.661 587.638 139.451C620.597 141.4 644.089 111.818 672.21 102.357" stroke="url(#paint19_linear_3016_295)" stroke-opacity="0.4" stroke-width="0.75" stroke-miterlimit="10"></path> <path d="M298.614 190.001C333.747 186.382 360.533 207.454 394.707 189.95C412.423 180.877 428.219 168.094 443.321 157.237C458.856 146.068 480.191 126.548 502.374 121.23C535.248 113.353 559.129 141.125 588.65 143.053C621.669 145.21 645.401 115.331 673.589 105.859" stroke="url(#paint20_linear_3016_295)" stroke-opacity="0.4" stroke-width="0.75" stroke-miterlimit="10"></path> <path d="M298.898 194.217C333.737 190.412 361.837 208.609 395.324 191.819C413.22 182.849 429.411 170.768 445.124 160.188C461.141 149.404 483.42 130.265 505.38 125.083C537.538 117.486 560.751 144.744 589.493 146.814C622.443 149.183 646.789 118.822 674.961 109.334" stroke="url(#paint21_linear_3016_295)" stroke-opacity="0.4" stroke-width="0.75" stroke-miterlimit="10"></path> <path d="M298.787 198.683C333.398 194.379 362.778 209.05 395.756 193.209C413.939 184.474 430.67 173.133 447.072 162.954C463.776 152.595 487.059 134.099 508.95 129.121C540.462 121.969 562.215 148.489 590.23 150.69C623.024 153.264 648.275 122.265 676.343 112.782" stroke="url(#paint22_linear_3016_295)" stroke-opacity="0.4" stroke-width="0.75" stroke-miterlimit="10"></path> <path d="M298.364 203.349C332.714 198.324 363.446 208.976 396.011 194.25C414.569 185.864 431.925 175.303 449.086 165.621C466.612 155.735 490.925 138.085 512.893 133.391C543.894 126.764 563.458 152.466 590.861 154.688C623.557 157.341 649.672 125.742 677.733 116.207" stroke="url(#paint23_linear_3016_295)" stroke-opacity="0.4" stroke-width="0.75" stroke-miterlimit="10"></path> <path d="M297.745 208.152C331.749 202.265 363.921 208.581 396.164 195.06C415.158 187.098 433.199 177.354 451.122 168.272C469.587 158.92 494.873 142.288 517.023 137.912C548.344 131.721 563.755 157.443 591.418 158.794C625.347 160.455 649.838 129.651 679.121 119.63" stroke="url(#paint24_linear_3016_295)" stroke-opacity="0.4" stroke-width="0.75" stroke-miterlimit="10"></path> <path d="M297.011 212.996C328.762 206.526 361.561 208.395 391.982 197.352C417.279 188.173 441.055 176.276 465.118 165.517C481.304 158.287 501.998 146.488 520.688 143.381C553.083 137.992 565.169 162.947 594.798 163.138C627.033 163.354 652.268 132.619 680.488 122.99" stroke="url(#paint25_linear_3016_295)" stroke-opacity="0.4" stroke-width="0.75" stroke-miterlimit="10"></path> <path d="M296.243 217.868C328.024 210.458 361.117 208.186 391.892 197.9C417.683 189.278 442.443 178.646 467.429 168.818C484.427 162.136 505.608 151.334 524.536 148.404C555.855 143.554 566.591 167.033 595.132 167.308C627.274 167.617 653.685 136.044 681.851 126.362" stroke="url(#paint26_linear_3016_295)" stroke-opacity="0.4" stroke-width="0.75" stroke-miterlimit="10"></path> <path d="M295.569 222.691C327.539 214.349 360.384 208.183 391.84 198.552C418.11 190.514 443.769 181.181 469.59 172.338C487.418 166.233 508.873 156.528 528.105 153.73C558.293 149.333 568.025 171.212 595.505 171.481C627.628 171.798 655.059 139.467 683.238 129.713" stroke="url(#paint27_linear_3016_295)" stroke-opacity="0.4" stroke-width="0.75" stroke-miterlimit="10"></path> <path d="M295.061 227.401C327.383 218.182 359.462 208.475 391.857 199.43C418.546 191.978 444.989 183.961 471.514 176.141C490.125 170.649 511.637 162.099 531.198 159.372C560.25 155.316 569.445 175.478 595.896 175.633C628.169 175.833 656.29 142.906 684.622 133.044" stroke="url(#paint28_linear_3016_295)" stroke-opacity="0.4" stroke-width="0.75" stroke-miterlimit="10"></path> <path d="M294.815 231.931C327.566 221.986 358.542 209.163 391.986 200.657C418.999 193.792 446.068 187.085 473.108 180.299C492.429 175.45 513.772 168.091 533.656 165.354C561.611 161.513 570.833 179.815 596.343 179.733C629.003 179.625 657.287 146.4 685.98 136.352" stroke="url(#paint29_linear_3016_295)" stroke-opacity="0.4" stroke-width="0.75" stroke-miterlimit="10"></path> <path d="M294.875 236.314C328.078 225.909 357.809 210.52 392.243 202.546C438.365 191.873 488.362 178.528 535.306 171.948C562.204 168.182 572.168 184.404 596.893 183.894C630.265 183.213 658.021 150.195 687.361 139.909" stroke="url(#paint30_linear_3016_295)" stroke-opacity="0.4" stroke-width="0.75" stroke-miterlimit="10"></path> <path d="M295.386 240.413C327.595 230.372 355.166 213.486 388.68 205.946C436.583 195.166 488.056 186.182 536.661 178.707C562.812 174.688 575.418 189.994 600.192 187.764C633.935 184.733 658.5 154.036 688.785 143.522" stroke="url(#paint31_linear_3016_295)" stroke-opacity="0.4" stroke-width="0.75" stroke-miterlimit="10"></path> <path d="M296.459 244.137C329.063 234.381 355.552 216.305 389.531 209.146C437.46 199.041 487.669 194.339 536.043 186.205C561.658 181.901 576.628 194.557 601.118 191.618C635.933 187.436 658.75 157.957 690.156 147.078" stroke="url(#paint32_linear_3016_295)" stroke-opacity="0.4" stroke-width="0.75" stroke-miterlimit="10"></path> <path d="M298.238 247.579C330.483 237.539 358.27 220.148 391.97 213.038C438.628 203.186 487.782 197.311 534.94 189.821C560.597 185.745 578.059 197.53 602.788 194.44C637.09 190.152 660.65 161.539 691.535 150.546" stroke="url(#paint33_linear_3016_295)" stroke-opacity="0.4" stroke-width="0.75" stroke-miterlimit="10"></path> </g> <defs> <filter id="filter0_f_3016_295" x="333.843" y="-99.7827" width="482.181" height="378.394" filterUnits="userSpaceOnUse" color-interpolation-filters="sRGB"> <feFlood flood-opacity="0" result="BackgroundImageFix"></feFlood> <feBlend mode="normal" in="SourceGraphic" in2="BackgroundImageFix" result="shape"></feBlend> <feGaussianBlur stdDeviation="50" result="effect1_foregroundBlur_3016_295"></feGaussianBlur> </filter> <filter id="filter1_f_3016_295" x="-68.4082" y="9.52515" width="511.596" height="360.054" filterUnits="userSpaceOnUse" color-interpolation-filters="sRGB"> <feFlood flood-opacity="0" result="BackgroundImageFix"></feFlood> <feBlend mode="normal" in="SourceGraphic" in2="BackgroundImageFix" result="shape"></feBlend> <feGaussianBlur stdDeviation="50" result="effect1_foregroundBlur_3016_295"></feGaussianBlur> </filter> <filter id="filter2_f_3016_295" x="141.892" y="35.3455" width="511.596" height="360.054" filterUnits="userSpaceOnUse" color-interpolation-filters="sRGB"> <feFlood flood-opacity="0" result="BackgroundImageFix"></feFlood> <feBlend mode="normal" in="SourceGraphic" in2="BackgroundImageFix" result="shape"></feBlend> <feGaussianBlur stdDeviation="50" result="effect1_foregroundBlur_3016_295"></feGaussianBlur> </filter> <linearGradient id="paint0_linear_3016_295" x1="342.267" y1="64.7542" x2="339.554" y2="-20.6851" gradientUnits="userSpaceOnUse"> <stop stop-color="#141516"></stop> <stop offset="1" stop-color="#141516" stop-opacity="0"></stop> </linearGradient> <linearGradient id="paint1_linear_3016_295" x1="37.8793" y1="-44" x2="264.041" y2="332.815" gradientUnits="userSpaceOnUse"> <stop stop-color="#292524" stop-opacity="0.63"></stop> <stop offset="1" stop-color="#1B1920"></stop> </linearGradient> <linearGradient id="paint2_linear_3016_295" x1="21.6667" y1="1.00001" x2="598.04" y2="174.386" gradientUnits="userSpaceOnUse"> <stop stop-color="#4E4A49"></stop> <stop offset="1" stop-color="#524E67" stop-opacity="0.35"></stop> <stop offset="1" stop-color="#292831"></stop> </linearGradient> <linearGradient id="paint3_linear_3016_295" x1="-69.3214" y1="-38.2982" x2="63.6477" y2="344.084" gradientUnits="userSpaceOnUse"> <stop stop-color="#FFC7E2"></stop> <stop offset="1" stop-color="#5C519B" stop-opacity="0.08"></stop> </linearGradient> <linearGradient id="paint4_linear_3016_295" x1="679.601" y1="199.947" x2="585.03" y2="-181.753" gradientUnits="userSpaceOnUse"> <stop stop-color="#686079" stop-opacity="0.05"></stop> <stop offset="1" stop-color="#FFEFF5" stop-opacity="0.1"></stop> </linearGradient> <linearGradient id="paint5_linear_3016_295" x1="468.275" y1="96.5561" x2="472.923" y2="115.217" gradientUnits="userSpaceOnUse"> <stop stop-color="#D1E9FF" stop-opacity="0.85"></stop> <stop offset="1" stop-color="#FFDBDB" stop-opacity="0.96"></stop> </linearGradient> <linearGradient id="paint6_linear_3016_295" x1="469.497" y1="99.701" x2="474.138" y2="118.331" gradientUnits="userSpaceOnUse"> <stop stop-color="#D1E9FF" stop-opacity="0.85"></stop> <stop offset="1" stop-color="#FFDBDB" stop-opacity="0.96"></stop> </linearGradient> <linearGradient id="paint7_linear_3016_295" x1="470.586" y1="102.648" x2="475.112" y2="120.809" gradientUnits="userSpaceOnUse"> <stop stop-color="#D1E9FF" stop-opacity="0.85"></stop> <stop offset="1" stop-color="#FFDBDB" stop-opacity="0.96"></stop> </linearGradient> <linearGradient id="paint8_linear_3016_295" x1="471.258" y1="104.653" x2="475.786" y2="122.819" gradientUnits="userSpaceOnUse"> <stop stop-color="#D1E9FF" stop-opacity="0.85"></stop> <stop offset="1" stop-color="#FFDBDB" stop-opacity="0.96"></stop> </linearGradient> <linearGradient id="paint9_linear_3016_295" x1="471.758" y1="106.228" x2="476.294" y2="124.425" gradientUnits="userSpaceOnUse"> <stop stop-color="#D1E9FF" stop-opacity="0.85"></stop> <stop offset="1" stop-color="#FFDBDB" stop-opacity="0.96"></stop> </linearGradient> <linearGradient id="paint10_linear_3016_295" x1="472.107" y1="107.473" x2="476.932" y2="126.854" gradientUnits="userSpaceOnUse"> <stop stop-color="#D1E9FF" stop-opacity="0.85"></stop> <stop offset="1" stop-color="#FFDBDB" stop-opacity="0.96"></stop> </linearGradient> <linearGradient id="paint11_linear_3016_295" x1="472.387" y1="108.444" x2="478.066" y2="131.33" gradientUnits="userSpaceOnUse"> <stop stop-color="#D1E9FF" stop-opacity="0.85"></stop> <stop offset="1" stop-color="#FFDBDB" stop-opacity="0.96"></stop> </linearGradient> <linearGradient id="paint12_linear_3016_295" x1="472.63" y1="109.346" x2="479.231" y2="136.03" gradientUnits="userSpaceOnUse"> <stop stop-color="#D1E9FF" stop-opacity="0.85"></stop> <stop offset="1" stop-color="#FFDBDB" stop-opacity="0.96"></stop> </linearGradient> <linearGradient id="paint13_linear_3016_295" x1="472.873" y1="110.298" x2="480.394" y2="140.791" gradientUnits="userSpaceOnUse"> <stop stop-color="#D1E9FF" stop-opacity="0.85"></stop> <stop offset="1" stop-color="#FFDBDB" stop-opacity="0.96"></stop> </linearGradient> <linearGradient id="paint14_linear_3016_295" x1="473.184" y1="111.397" x2="481.58" y2="145.514" gradientUnits="userSpaceOnUse"> <stop stop-color="#D1E9FF" stop-opacity="0.85"></stop> <stop offset="1" stop-color="#FFDBDB" stop-opacity="0.96"></stop> </linearGradient> <linearGradient id="paint15_linear_3016_295" x1="473.628" y1="112.776" x2="482.806" y2="150.146" gradientUnits="userSpaceOnUse"> <stop stop-color="#D1E9FF" stop-opacity="0.85"></stop> <stop offset="1" stop-color="#FFDBDB" stop-opacity="0.96"></stop> </linearGradient> <linearGradient id="paint16_linear_3016_295" x1="474.221" y1="114.524" x2="484.053" y2="154.617" gradientUnits="userSpaceOnUse"> <stop stop-color="#D1E9FF" stop-opacity="0.85"></stop> <stop offset="1" stop-color="#FFDBDB" stop-opacity="0.96"></stop> </linearGradient> <linearGradient id="paint17_linear_3016_295" x1="475.037" y1="116.763" x2="485.353" y2="158.873" gradientUnits="userSpaceOnUse"> <stop stop-color="#D1E9FF" stop-opacity="0.85"></stop> <stop offset="1" stop-color="#FFDBDB" stop-opacity="0.96"></stop> </linearGradient> <linearGradient id="paint18_linear_3016_295" x1="476.107" y1="119.592" x2="486.701" y2="162.861" gradientUnits="userSpaceOnUse"> <stop stop-color="#D1E9FF" stop-opacity="0.85"></stop> <stop offset="1" stop-color="#FFDBDB" stop-opacity="0.96"></stop> </linearGradient> <linearGradient id="paint19_linear_3016_295" x1="477.437" y1="123.087" x2="488.016" y2="166.29" gradientUnits="userSpaceOnUse"> <stop stop-color="#D1E9FF" stop-opacity="0.85"></stop> <stop offset="1" stop-color="#FFDBDB" stop-opacity="0.96"></stop> </linearGradient> <linearGradient id="paint20_linear_3016_295" x1="478.615" y1="127.048" x2="489.123" y2="169.952" gradientUnits="userSpaceOnUse"> <stop stop-color="#D1E9FF" stop-opacity="0.85"></stop> <stop offset="1" stop-color="#FFDBDB" stop-opacity="0.96"></stop> </linearGradient> <linearGradient id="paint21_linear_3016_295" x1="479.627" y1="131.39" x2="490.01" y2="173.77" gradientUnits="userSpaceOnUse"> <stop stop-color="#D1E9FF" stop-opacity="0.85"></stop> <stop offset="1" stop-color="#FFDBDB" stop-opacity="0.96"></stop> </linearGradient> <linearGradient id="paint22_linear_3016_295" x1="480.534" y1="136.077" x2="490.736" y2="177.702" gradientUnits="userSpaceOnUse"> <stop stop-color="#D1E9FF" stop-opacity="0.85"></stop> <stop offset="1" stop-color="#FFDBDB" stop-opacity="0.96"></stop> </linearGradient> <linearGradient id="paint23_linear_3016_295" x1="481.376" y1="141.091" x2="491.34" y2="181.717" gradientUnits="userSpaceOnUse"> <stop stop-color="#D1E9FF" stop-opacity="0.85"></stop> <stop offset="1" stop-color="#FFDBDB" stop-opacity="0.96"></stop> </linearGradient> <linearGradient id="paint24_linear_3016_295" x1="482.198" y1="146.386" x2="491.824" y2="185.601" gradientUnits="userSpaceOnUse"> <stop stop-color="#D1E9FF" stop-opacity="0.85"></stop> <stop offset="1" stop-color="#FFDBDB" stop-opacity="0.96"></stop> </linearGradient> <linearGradient id="paint25_linear_3016_295" x1="483.204" y1="152.38" x2="492.434" y2="189.938" gradientUnits="userSpaceOnUse"> <stop stop-color="#D1E9FF" stop-opacity="0.85"></stop> <stop offset="1" stop-color="#FFDBDB" stop-opacity="0.96"></stop> </linearGradient> <linearGradient id="paint26_linear_3016_295" x1="484.06" y1="158.035" x2="492.93" y2="194.093" gradientUnits="userSpaceOnUse"> <stop stop-color="#D1E9FF" stop-opacity="0.85"></stop> <stop offset="1" stop-color="#FFDBDB" stop-opacity="0.96"></stop> </linearGradient> <linearGradient id="paint27_linear_3016_295" x1="485.043" y1="163.853" x2="493.507" y2="198.223" gradientUnits="userSpaceOnUse"> <stop stop-color="#D1E9FF" stop-opacity="0.85"></stop> <stop offset="1" stop-color="#FFDBDB" stop-opacity="0.96"></stop> </linearGradient> <linearGradient id="paint28_linear_3016_295" x1="486.168" y1="169.783" x2="494.184" y2="202.291" gradientUnits="userSpaceOnUse"> <stop stop-color="#D1E9FF" stop-opacity="0.85"></stop> <stop offset="1" stop-color="#FFDBDB" stop-opacity="0.96"></stop> </linearGradient> <linearGradient id="paint29_linear_3016_295" x1="487.465" y1="175.776" x2="494.992" y2="206.257" gradientUnits="userSpaceOnUse"> <stop stop-color="#D1E9FF" stop-opacity="0.85"></stop> <stop offset="1" stop-color="#FFDBDB" stop-opacity="0.96"></stop> </linearGradient> <linearGradient id="paint30_linear_3016_295" x1="487.89" y1="178.914" x2="495.625" y2="210.253" gradientUnits="userSpaceOnUse"> <stop stop-color="#D1E9FF" stop-opacity="0.85"></stop> <stop offset="1" stop-color="#FFDBDB" stop-opacity="0.96"></stop> </linearGradient> <linearGradient id="paint31_linear_3016_295" x1="488.344" y1="181.331" x2="496.424" y2="214.095" gradientUnits="userSpaceOnUse"> <stop stop-color="#D1E9FF" stop-opacity="0.85"></stop> <stop offset="1" stop-color="#FFDBDB" stop-opacity="0.96"></stop> </linearGradient> <linearGradient id="paint32_linear_3016_295" x1="489.376" y1="184.441" x2="497.572" y2="217.685" gradientUnits="userSpaceOnUse"> <stop stop-color="#D1E9FF" stop-opacity="0.85"></stop> <stop offset="1" stop-color="#FFDBDB" stop-opacity="0.96"></stop> </linearGradient> <linearGradient id="paint33_linear_3016_295" x1="491.164" y1="188.469" x2="499.076" y2="220.536" gradientUnits="userSpaceOnUse"> <stop stop-color="#D1E9FF" stop-opacity="0.85"></stop> <stop offset="1" stop-color="#FFDBDB" stop-opacity="0.96"></stop> </linearGradient> </defs> </svg> 