<?xml version="1.0" encoding="UTF-8"?> <svg xmlns="http://www.w3.org/2000/svg" width="40" height="40" viewBox="0 0 40 40" fill="none"> <path d="M40 20.1239C40 9.0067 31.0413 0 20 0C8.95125 0 0 9.0067 0 20.1239C0 30.1657 7.31125 38.492 16.875 40V25.9422H11.7963V20.1251H16.875V15.6891C16.875 10.6468 19.8563 7.86215 24.4263 7.86215C26.615 7.86215 28.9062 8.25457 28.9062 8.25457V13.2063H26.38C23.9 13.2063 23.125 14.7596 23.125 16.3507V20.1239H28.6713L27.78 25.9409H23.125V39.9987C32.6812 38.4907 40 30.1645 40 20.1226V20.1239Z" fill="#F4CA2D"></path> </svg> 