<?xml version="1.0" encoding="UTF-8"?> <svg xmlns="http://www.w3.org/2000/svg" width="440" height="476" viewBox="0 0 440 476" fill="none"> <rect x="0.5" y="0.5" width="439" height="475" rx="19.5" fill="url(#paint0_linear_2914_223)" fill-opacity="0.5" stroke="url(#paint1_linear_2914_223)"></rect> <mask id="mask0_2914_223" style="mask-type:alpha" maskUnits="userSpaceOnUse" x="0" y="0" width="440" height="476"> <rect width="440" height="476" rx="20" fill="url(#paint2_linear_2914_223)"></rect> <rect width="440" height="476" rx="20" fill="url(#paint3_linear_2914_223)"></rect> </mask> <g mask="url(#mask0_2914_223)"> <g filter="url(#filter0_f_2914_223)"> <ellipse rx="185.279" ry="52.0811" transform="matrix(-0.983251 -0.126545 0.29399 0.867801 395.387 470.081)" fill="#FFD39E" fill-opacity="0.35"></ellipse> </g> <g filter="url(#filter1_f_2914_223)"> <ellipse rx="173.557" ry="67.6865" transform="matrix(-0.919986 -0.3302 -0.671066 0.80954 31.0152 334.104)" fill="#FF9EBB" fill-opacity="0.4"></ellipse> </g> <g filter="url(#filter2_f_2914_223)"> <ellipse rx="270.164" ry="80.5052" transform="matrix(-0.918364 -0.333008 -0.667032 0.811955 129.777 490.28)" fill="#8361E2" fill-opacity="0.35"></ellipse> </g> <path fill-rule="evenodd" clip-rule="evenodd" d="M-27.6262 334.395C-39.0477 329.769 -50.5075 325.127 -61.6119 319.492L-61.2739 318.856C-50.1998 324.476 -38.7752 329.104 -27.3556 333.729C-24.7316 334.792 -22.1079 335.855 -19.4887 336.929C-5.47895 342.677 8.38994 348.763 21.4031 357.015L21.4031 357.015C29.1891 361.954 37.1974 366.921 45.2963 371.944C73.3529 389.346 102.497 407.422 127.253 427.356L127.038 427.612L127.253 427.356C136.477 434.788 139.141 443.23 141.298 451.725C141.478 452.43 141.653 453.135 141.829 453.84L141.83 453.845C143.769 461.635 145.698 469.381 152.217 476.525L151.945 476.765L152.217 476.525C161.812 487.046 177.224 490.675 193.47 493.086C196.793 493.579 200.157 494.022 203.509 494.464L203.51 494.464C208.321 495.097 213.107 495.727 217.718 496.499C225.556 497.81 232.953 499.537 239.246 502.41L238.935 503.058C232.73 500.226 225.409 498.511 217.591 497.203C212.985 496.433 208.229 495.807 203.435 495.176L203.433 495.176L203.432 495.176C200.079 494.734 196.708 494.29 193.356 493.793C177.123 491.384 161.46 487.734 151.673 477.004C145.028 469.722 143.06 461.809 141.125 454.033L141.124 454.029L141.123 454.025L141.123 454.024C140.947 453.316 140.771 452.608 140.592 451.902C138.443 443.444 135.827 435.192 126.789 427.91C102.071 408.006 72.979 389.963 44.9287 372.565C36.8236 367.538 28.8054 362.564 21.0048 357.616C8.04883 349.4 -5.76998 343.335 -19.7735 337.589C-22.3858 336.517 -25.005 335.457 -27.6262 334.395ZM-64.6302 322.861C-53.3529 328.603 -41.5255 332.859 -29.7446 337.098L-29.7444 337.098L-29.7441 337.098L-29.7439 337.098L-29.7436 337.099L-29.7434 337.099L-29.7431 337.099L-29.7429 337.099L-29.7426 337.099L-29.7423 337.099L-29.7421 337.099L-29.7418 337.099L-29.7416 337.099L-29.7413 337.099L-29.7411 337.099L-29.7408 337.1L-29.7406 337.1L-29.7403 337.1L-29.7401 337.1L-29.7398 337.1L-29.7396 337.1L-29.7393 337.1L-29.7391 337.1L-29.7388 337.1L-29.7386 337.1L-29.7383 337.1L-29.7381 337.101L-29.7378 337.101L-29.7375 337.101L-29.7373 337.101C-27.7001 337.834 -25.6643 338.566 -23.6329 339.306C-9.84204 344.328 3.75271 349.68 16.2596 357.744L16.4611 357.445L16.2596 357.744C52.1079 380.857 88.4941 407.646 122.028 433.705C130.959 440.646 134.072 448.993 136.928 457.478C137.068 457.895 137.208 458.312 137.348 458.729L137.348 458.73L137.348 458.731L137.349 458.734L137.353 458.745L137.354 458.749L137.355 458.75L137.356 458.753C140.055 466.817 142.781 474.961 150.358 481.902C161.203 491.843 176.46 495.015 192.133 497.193C194.802 497.564 197.482 497.906 200.156 498.247L200.156 498.247L200.157 498.248C213.23 499.916 226.143 501.564 236.763 506.453L237.077 505.805C226.344 500.865 213.292 499.2 200.219 497.533L200.218 497.533C197.553 497.193 194.887 496.853 192.24 496.485C176.562 494.307 161.52 491.152 150.857 481.378L150.607 481.64L150.857 481.378C143.419 474.564 140.745 466.58 138.038 458.494C137.899 458.08 137.76 457.665 137.62 457.25C134.759 448.75 131.594 440.224 122.483 433.143L122.255 433.424L122.483 433.143C88.9399 407.078 52.5353 380.274 16.6626 357.146C4.08207 349.034 -9.57955 343.659 -23.3754 338.636C-25.4143 337.893 -27.4559 337.159 -29.4973 336.424C-41.2797 332.184 -53.0583 327.946 -64.2912 322.226L-64.6302 322.861ZM-31.1622 340.568C-43.3008 336.458 -55.5026 332.327 -67.0541 326.239L-66.7059 325.609C-55.2096 331.667 -43.0672 335.779 -30.9242 339.891L-30.9239 339.891C-29.1596 340.488 -27.3952 341.086 -25.6328 341.689C-11.7525 346.442 1.99502 351.562 14.5546 359.971C32.2267 371.798 49.1048 385.012 65.8027 398.44C69.4131 401.343 73.0148 404.256 76.6143 407.168L76.615 407.168C89.6666 417.725 102.689 428.258 115.988 438.212L115.765 438.496L115.988 438.212C125.051 444.998 129.079 453.255 132.859 461.477C133.018 461.822 133.176 462.167 133.334 462.512L133.346 462.538C136.955 470.409 140.519 478.181 148.211 484.704C159.651 494.402 174.595 497.455 190.085 499.609C192.488 499.944 194.906 500.256 197.324 500.569C210.457 502.268 223.637 503.973 234.941 509.185L234.628 509.832C223.434 504.671 210.387 502.982 197.251 501.282L197.251 501.282C194.826 500.968 192.398 500.654 189.978 500.317C174.487 498.163 159.347 495.092 147.732 485.246C139.916 478.619 136.294 470.716 132.695 462.865C132.528 462.501 132.362 462.138 132.195 461.775C128.418 453.56 124.451 445.451 115.543 438.781C102.233 428.818 89.1965 418.274 76.1433 407.716L76.1423 407.715C72.5444 404.805 68.9452 401.894 65.3386 398.994C48.6434 385.568 31.7857 372.371 14.1412 360.562L14.1412 360.562C1.66695 352.211 -12.001 347.115 -25.877 342.364C-27.6337 341.763 -29.394 341.167 -31.1555 340.571L-31.1582 340.57L-31.1585 340.57L-31.1588 340.569L-31.1591 340.569L-31.1595 340.569L-31.1598 340.569L-31.1601 340.569L-31.1604 340.569L-31.1607 340.569L-31.1611 340.569L-31.1622 340.568ZM-34.3424 343.766L-34.3423 343.766C-32.102 344.564 -29.8633 345.361 -27.6308 346.169C-13.7353 351.194 -0.0714032 356.601 12.3104 364.89L12.3104 364.89C36.2014 380.875 59.1867 399.082 81.9791 417.136L81.9793 417.136C91.9947 425.069 101.973 432.972 111.974 440.645C120.811 447.424 125.274 455.833 129.601 464.326C129.734 464.587 129.867 464.849 130.001 465.11L130.032 465.172L130.057 465.222C134.222 473.409 138.404 481.63 146.417 488.339C157.933 497.982 172.941 501.243 188.306 503.587C190.871 503.978 193.445 504.344 196.015 504.709C208.877 506.536 221.636 508.348 232.608 513.276L232.915 512.625C221.839 507.651 208.955 505.822 196.093 503.996L196.093 503.996C193.53 503.632 190.969 503.269 188.422 502.88C173.061 500.537 158.239 497.295 146.892 487.794C138.993 481.18 134.87 473.076 130.692 464.865C130.546 464.578 130.4 464.29 130.253 464.003C125.927 455.51 121.403 446.967 112.425 440.081C102.443 432.423 92.4757 424.528 82.4659 416.599L82.4658 416.599L82.4657 416.599C59.6624 398.537 36.6392 380.3 12.7236 364.298C0.263058 355.957 -13.4732 350.525 -27.3749 345.498C-29.6137 344.688 -31.8565 343.889 -34.099 343.09L-34.1008 343.089C-45.7936 338.924 -57.4778 334.761 -68.5439 329.117L-68.8832 329.751C-57.7712 335.419 -46.0351 339.6 -34.3425 343.766L-34.3424 343.766L-34.3424 343.766ZM-36.8189 347.999C-48.106 343.515 -59.4216 339.02 -70.254 333.514L-69.9159 332.878C-59.1165 338.368 -47.842 342.847 -36.5594 347.329C-33.4695 348.557 -30.3789 349.784 -27.2973 351.033C-12.9741 356.838 1.14115 363.093 14.0148 371.881C45.8829 393.634 77.831 417.44 108.133 441.103C117.013 448.036 122.205 456.456 127.16 464.889C127.439 465.364 127.717 465.839 127.995 466.313L128.011 466.34C132.673 474.296 137.295 482.184 144.777 488.881C156.002 498.921 170.789 502.755 186.181 505.562C189.183 506.11 192.209 506.618 195.235 507.127L195.236 507.127C207.69 509.221 220.149 511.315 230.955 516.131L230.65 516.782C219.938 512.008 207.598 509.933 195.152 507.84C192.115 507.329 189.071 506.818 186.043 506.265C170.642 503.456 155.672 499.597 144.284 489.411L144.531 489.146L144.284 489.411C136.716 482.637 132.042 474.659 127.391 466.72L127.385 466.71C127.1 466.223 126.815 465.736 126.529 465.249C121.575 456.819 116.441 448.506 107.677 441.663L107.905 441.383L107.677 441.663C77.3836 418.007 45.4484 394.211 13.5965 372.469C0.790198 363.727 -13.2645 357.496 -27.5789 351.695C-30.6492 350.45 -33.7321 349.226 -36.8171 348L-36.8176 348L-36.8189 347.999ZM-39.0494 352.716L-39.0493 352.716C-35.6644 354.236 -32.2804 355.755 -28.9084 357.292C-14.7279 363.758 -0.750144 370.549 12.2445 379.057C42.8997 399.125 74.6433 420.245 103.637 442.41L103.862 442.127L103.637 442.41C112.77 449.39 118.77 458.011 124.624 466.749C124.949 467.233 125.273 467.718 125.597 468.203C131.113 476.454 136.651 484.738 144.709 491.675L144.916 491.444L144.709 491.675C156.185 501.551 170.612 505.692 185.436 508.881C188.365 509.511 191.309 510.104 194.249 510.696C206.216 513.107 218.123 515.505 228.749 520.352L229.059 519.703C218.349 514.818 206.335 512.398 194.36 509.987C191.43 509.397 188.502 508.807 185.595 508.182C170.785 504.996 156.518 500.885 145.19 491.136C137.209 484.264 131.721 476.056 126.194 467.789L126.181 467.77C125.865 467.298 125.549 466.825 125.233 466.353C119.379 457.616 113.323 448.904 104.086 441.844C75.0695 419.662 43.3061 398.53 12.6507 378.461C-0.392014 369.921 -14.4113 363.112 -28.5987 356.643C-31.9794 355.102 -35.3691 353.58 -38.7574 352.059L-38.7575 352.059C-49.5959 347.193 -60.4206 342.333 -70.8949 336.857L-71.2399 337.489C-60.7445 342.975 -49.8925 347.848 -39.0499 352.716L-39.0499 352.716L-39.0498 352.716L-39.0498 352.716L-39.0497 352.716L-39.0497 352.716L-39.0497 352.716L-39.0496 352.716L-39.0496 352.716L-39.0495 352.716L-39.0495 352.716L-39.0494 352.716L-39.0494 352.716L-39.0494 352.716ZM-41.2579 358.293L-41.259 358.292C-51.5084 352.757 -61.7445 347.23 -71.9215 341.651L-71.5646 341.026C-61.3962 346.599 -51.1657 352.124 -40.9196 357.657C7.27487 383.684 55.8163 409.898 99.883 442.301C109.669 449.495 116.721 458.471 123.588 467.499C123.991 468.029 124.394 468.56 124.797 469.09L124.802 469.097C131.259 477.603 137.683 486.064 146.221 493.121C157.58 502.51 171.241 506.956 185.373 510.606C188.137 511.32 190.92 512.004 193.707 512.688L193.707 512.688L193.708 512.688L193.708 512.689L193.709 512.689L193.709 512.689L193.71 512.689L193.71 512.689L193.711 512.689L193.711 512.689L193.712 512.689L193.712 512.689L193.712 512.69L193.713 512.69L193.713 512.69L193.714 512.69L193.716 512.69C205.153 515.5 216.658 518.325 227.196 523.329L226.877 523.973C216.412 519.005 204.999 516.201 193.569 513.393C190.77 512.706 187.971 512.018 185.184 511.298C172.602 508.048 160.297 504.147 149.646 496.643C160.096 504.702 172.393 509.226 185.083 513.123C187.871 513.979 190.679 514.805 193.489 515.632L193.491 515.632C204.319 518.817 215.194 522.017 225.16 527.001L224.827 527.639C214.926 522.687 204.131 519.511 193.312 516.328L193.309 516.327L193.309 516.327C190.49 515.498 187.67 514.668 184.863 513.806C175.47 510.922 166.241 507.681 157.8 502.895C166.297 508.142 175.547 511.939 184.999 515.426C187.661 516.409 190.34 517.366 193.022 518.325C203.218 521.971 213.463 525.635 223.022 530.717L222.675 531.348C213.167 526.293 202.986 522.652 192.797 519.008L192.795 519.007L192.795 519.007L192.795 519.007L192.794 519.007L192.794 519.007L192.793 519.007L192.793 519.007L192.793 519.007L192.792 519.007L192.792 519.006L192.792 519.006L192.791 519.006L192.791 519.006L192.791 519.006L192.79 519.006L192.79 519.006L192.79 519.006L192.789 519.005L192.789 519.005L192.789 519.005L192.788 519.005L192.788 519.005C190.102 518.044 187.416 517.084 184.741 516.097C177.506 513.427 170.362 510.568 163.572 507.005C170.462 511 177.677 514.384 184.997 517.617C187.54 518.74 190.096 519.846 192.655 520.952C202.192 525.076 211.771 529.219 220.868 534.374L220.503 534.995C211.444 529.861 201.911 525.739 192.379 521.617C189.815 520.508 187.251 519.399 184.697 518.27C181.764 516.975 178.846 515.655 175.955 514.279C178.506 515.686 181.074 517.064 183.653 518.428C186.53 519.949 189.42 521.453 192.313 522.959C201.169 527.567 210.058 532.192 218.692 537.391L218.309 538.002C209.697 532.815 200.837 528.205 191.985 523.599L191.985 523.599L191.984 523.599L191.983 523.598L191.982 523.598L191.981 523.597L191.98 523.597L191.979 523.596L191.978 523.596L191.977 523.595L191.977 523.595L191.976 523.594L191.975 523.594L191.974 523.593L191.973 523.593L191.972 523.592L191.971 523.592L191.97 523.592L191.969 523.591L191.969 523.591L191.968 523.59C189.076 522.086 186.186 520.582 183.306 519.059C179.074 516.82 174.865 514.541 170.71 512.157C178.155 516.894 185.704 521.47 193.261 526.05C201.066 530.781 208.879 535.516 216.593 540.439L216.194 541.04C208.511 536.136 200.712 531.409 192.913 526.682C182.425 520.325 171.936 513.968 161.727 507.18C168.147 511.586 174.536 516.024 180.923 520.46C192.069 528.202 203.211 535.941 214.505 543.505L214.092 544.096C202.808 536.539 191.647 528.787 180.488 521.036L180.488 521.036C170.969 514.425 161.452 507.815 151.86 501.327C143.876 495.927 135.707 489.988 127.42 483.962C122.502 480.386 117.542 476.78 112.554 473.237C99.1485 463.718 85.5203 454.65 71.8752 447.822C61.8157 442.791 51.1467 441.915 40.3391 441.567C38.7871 441.517 37.2318 441.478 35.6749 441.439C26.4122 441.206 17.0965 440.973 8.11872 438.427L8.22164 438.083L8.11869 438.427C-7.99116 433.858 -21.7905 421.573 -34.7263 408.018C-38.3565 404.214 -41.9178 400.311 -45.4441 396.447L-45.4442 396.446L-45.4443 396.446C-54.5111 386.51 -63.3464 376.828 -72.5266 369.729L-72.0741 369.166C-62.8413 376.306 -53.9401 386.06 -44.8563 396.015C-41.3395 399.869 -37.7952 403.753 -34.1938 407.527C-21.2614 421.079 -7.57872 433.229 8.32458 437.74C17.2053 440.258 26.416 440.49 35.6831 440.723L35.6862 440.723C37.2455 440.762 38.8063 440.802 40.3674 440.852C51.1862 441.2 61.9961 442.076 72.2088 447.184C85.9054 454.038 99.5702 463.133 112.983 472.657C117.984 476.209 122.949 479.819 127.867 483.395L127.868 483.395L127.868 483.395L127.868 483.395L127.868 483.396L127.869 483.396L127.869 483.396L127.869 483.396L127.869 483.396L127.87 483.397L127.87 483.397L127.87 483.397L127.87 483.397L127.871 483.397L127.871 483.397L127.871 483.398L127.871 483.398L127.872 483.398L127.872 483.398L127.872 483.398C136.151 489.418 144.299 495.343 152.276 500.737C152.735 501.047 153.194 501.358 153.652 501.669C152.698 501 151.748 500.325 150.8 499.646C142.684 493.821 134.493 487.351 126.209 480.809C122.282 477.708 118.335 474.59 114.364 471.517C102.009 461.952 89.4203 452.807 76.4942 445.865L76.67 445.551L76.4941 445.865C66.2168 440.342 54.8248 438.349 43.2521 436.823C41.4939 436.592 39.7311 436.371 37.9675 436.15L37.9666 436.149L37.964 436.149C28.1403 434.918 18.2908 433.683 9.06278 430.564C-7.03175 425.126 -20.7904 413.69 -33.8252 401.185C-37.4414 397.716 -41.0007 394.166 -44.539 390.637C-53.7758 381.424 -62.8702 372.354 -72.4643 365.232L-72.0237 364.66C-62.3844 371.815 -53.2326 380.943 -43.9818 390.17L-43.9811 390.17L-43.9805 390.171C-40.4507 393.692 -36.9066 397.226 -33.3154 400.672C-20.2901 413.167 -6.62887 424.504 9.30293 429.888C18.4544 432.98 28.2189 434.205 38.0447 435.437L38.0448 435.437C39.8133 435.659 41.5837 435.881 43.3529 436.114C54.9324 437.641 66.4418 439.646 76.8459 445.237C89.8273 452.208 102.455 461.384 114.817 470.954C118.8 474.037 122.754 477.16 126.683 480.263L126.684 480.264C130.64 483.388 134.572 486.494 138.484 489.519C134.039 485.829 129.604 482.012 125.151 478.18L125.151 478.18C122.109 475.562 119.059 472.936 115.991 470.34C104.763 460.834 93.2985 451.704 81.1354 444.659C70.6108 438.56 58.5128 435.036 46.1774 432.001C43.4064 431.319 40.6226 430.662 37.8424 430.005L37.8422 430.005C28.2622 427.743 18.7238 425.491 9.89533 422.279C-5.90744 416.53 -19.8158 405.824 -33.1236 394.209C-36.8639 390.944 -40.5553 387.609 -44.2283 384.29L-44.2286 384.29L-44.2291 384.29L-44.2294 384.29L-44.2297 384.289L-44.23 384.289L-44.2305 384.289L-44.2308 384.288L-44.2312 384.288L-44.2315 384.288L-44.2318 384.287L-44.2322 384.287L-44.2325 384.287L-44.2329 384.286L-44.2332 384.286L-44.2335 384.286L-44.2339 384.286L-44.2342 384.285L-44.2343 384.285C-53.6456 375.782 -62.9359 367.389 -72.6164 360.568L-72.1908 359.985C-62.4721 366.833 -53.1315 375.272 -43.7075 383.786L-43.7071 383.787C-40.0395 387.1 -36.3593 390.425 -32.6393 393.672C-19.342 405.279 -5.51794 415.908 10.1508 421.608L10.0486 421.876L10.1509 421.608C18.9349 424.804 28.4165 427.043 37.9888 429.303C40.7756 429.961 43.5702 430.621 46.3574 431.306C58.7018 434.344 70.8868 437.887 81.5069 444.042C93.7284 451.121 105.233 460.285 116.467 469.796C119.545 472.401 122.601 475.031 125.646 477.652L125.646 477.653L125.647 477.654L125.651 477.657C127.458 479.212 129.26 480.763 131.061 482.304C129.075 480.46 127.095 478.603 125.116 476.745L125.115 476.744L125.114 476.744L125.114 476.743L125.113 476.743L125.113 476.742L125.112 476.742L125.112 476.741L125.111 476.741L125.11 476.74L125.11 476.74L125.109 476.739L125.109 476.738L125.108 476.738L125.107 476.737L125.107 476.737L125.106 476.736L125.106 476.736L125.105 476.735L125.103 476.733C122.971 474.733 120.838 472.732 118.696 470.746C108.281 461.091 97.6271 451.783 85.6451 444.552C73.7689 437.38 60.6502 432.241 47.3294 427.459C44.5578 426.464 41.7769 425.484 38.9968 424.504C28.4256 420.78 17.865 417.059 7.86323 412.516C-7.01909 405.757 -20.4783 396.022 -33.5787 385.755C-36.8545 383.187 -40.1071 380.587 -43.3539 377.992L-43.3539 377.992L-43.354 377.992L-43.3541 377.992L-43.3541 377.992L-43.3547 377.992L-43.3555 377.991C-53.1033 370.199 -62.7992 362.449 -72.915 355.747L-72.5073 355.152C-62.3621 361.874 -52.6303 369.653 -42.8759 377.45C-39.6332 380.042 -36.3881 382.636 -33.1244 385.194C-20.0322 395.454 -6.62918 405.144 8.17028 411.866L8.01676 412.191L8.17029 411.866C18.14 416.394 28.6614 420.101 39.2287 423.825L39.2291 423.825L39.2295 423.825L39.2299 423.825L39.2303 423.825L39.2307 423.825L39.2311 423.825L39.2315 423.826L39.2319 423.826L39.2323 423.826L39.2327 423.826L39.2331 423.826L39.2335 423.826L39.2339 423.826L39.2343 423.827L39.2347 423.827L39.2351 423.827L39.2355 423.827L39.2359 423.827L39.2363 423.827L39.2367 423.827L39.2371 423.827C42.0184 424.807 44.8029 425.789 47.5813 426.786C60.9086 431.571 74.0853 436.73 86.027 443.941C98.0764 451.213 108.775 460.564 119.195 470.223C121.345 472.216 123.483 474.222 125.618 476.225L125.618 476.225L125.618 476.226C128.86 479.267 132.095 482.302 135.359 485.28C131.672 481.655 128.077 477.934 124.486 474.216L124.486 474.216L124.486 474.216C123.043 472.722 121.6 471.229 120.153 469.743C110.941 460.285 101.514 451.111 90.3573 443.843C77.8747 435.711 64.1585 429.037 50.2306 422.693C46.5273 421.006 42.8081 419.342 39.0934 417.68L39.0932 417.68C28.8455 413.095 18.6313 408.525 8.87389 403.53L9.03167 403.233L8.87385 403.53C-5.53923 396.148 -19.0918 387.244 -32.4599 378.066C-35.6075 375.905 -38.7445 373.729 -41.88 371.554C-52.067 364.487 -62.2389 357.431 -72.7121 350.931L-72.3222 350.325C-61.8321 356.836 -51.6396 363.906 -41.4497 370.975L-41.4497 370.975L-41.4497 370.975L-41.4496 370.975L-41.4496 370.975L-41.4496 370.975L-41.4496 370.975L-41.4495 370.975L-41.4495 370.975L-41.4495 370.975L-41.4494 370.975L-41.4494 370.975L-41.4494 370.975L-41.4494 370.975L-41.4493 370.975L-41.4493 370.975L-41.4493 370.975L-41.4492 370.975L-41.4492 370.975L-41.4492 370.975L-41.4491 370.975L-41.4491 370.975L-41.4489 370.975C-38.3159 373.148 -35.1831 375.322 -32.0421 377.478C-18.679 386.653 -5.15786 395.535 9.21188 402.894C18.9509 407.88 29.1392 412.439 39.3813 417.021L39.3819 417.021L39.3825 417.022L39.3831 417.022L39.3837 417.022L39.3842 417.022L39.3848 417.023L39.3854 417.023L39.386 417.023L39.3866 417.023L39.3872 417.024L39.3878 417.024L39.3884 417.024L39.389 417.024L39.3895 417.025L39.3901 417.025L39.3907 417.025L39.3913 417.026L39.3919 417.026L39.3925 417.026L39.3931 417.026L39.3937 417.027L39.3942 417.027C43.1082 418.689 46.8293 420.353 50.5386 422.043C64.4733 428.391 78.2305 435.082 90.7606 443.246C101.989 450.561 111.463 459.785 120.679 469.246C122.127 470.733 123.569 472.226 125.01 473.718L125.011 473.718L125.012 473.719L125.012 473.72L125.013 473.721L125.014 473.721L125.015 473.722L125.015 473.723L125.016 473.724L125.017 473.724L125.018 473.725L125.018 473.726L125.019 473.727L125.02 473.727L125.02 473.728L125.021 473.728L125.021 473.729L125.021 473.729L125.021 473.729L125.021 473.729L125.021 473.729L125.022 473.729L125.022 473.729L125.022 473.729L125.022 473.73L125.022 473.73L125.022 473.73L125.022 473.73L125.022 473.73L125.022 473.73L125.022 473.73L125.023 473.73L125.023 473.73L125.023 473.73L125.023 473.731L125.023 473.731L125.023 473.731C128.304 477.127 131.582 480.52 134.927 483.837C131.287 479.943 127.813 475.927 124.346 471.918C123.437 470.867 122.528 469.817 121.617 468.769C113.589 459.537 105.374 450.529 94.9943 443.299C77.0819 430.825 57.1216 420.184 37.3669 409.654C28.1087 404.718 18.8957 399.807 9.95987 394.742C-6.12117 385.628 -21.9862 376.136 -37.8473 366.646L-37.8478 366.645L-37.8483 366.645L-37.8487 366.645L-37.8492 366.645L-37.8497 366.644L-37.8502 366.644L-37.8507 366.644L-37.8512 366.643L-37.8517 366.643L-37.8522 366.643L-37.8526 366.643L-37.8531 366.642L-37.8536 366.642L-37.8541 366.642L-37.8546 366.641L-37.8551 366.641L-37.8556 366.641L-37.8561 366.641L-37.8566 366.64L-37.857 366.64L-37.8575 366.64L-37.858 366.639L-37.8585 366.639L-37.859 366.639C-49.3405 359.769 -60.82 352.9 -72.3778 346.178L-72.0053 345.561C-60.4247 352.297 -48.9373 359.17 -37.4522 366.042L-37.4519 366.043C-21.6012 375.527 -5.75497 385.008 10.3253 394.122C19.2255 399.166 28.4188 404.067 37.6671 408.997C57.4425 419.539 77.4689 430.215 95.4165 442.715C105.875 449.999 114.14 459.068 122.171 468.302C123.083 469.351 123.992 470.402 124.901 471.453L124.901 471.453L124.902 471.454L124.902 471.454L124.902 471.454L124.902 471.455L124.903 471.455L124.903 471.455L124.903 471.455L124.903 471.456L124.904 471.456L124.904 471.456L124.904 471.457L124.904 471.457L124.905 471.457L124.905 471.457L124.905 471.458L124.905 471.458L124.906 471.458L124.906 471.459L124.906 471.459L124.906 471.459L124.907 471.46C127.395 474.337 129.882 477.212 132.428 480.039C129.591 476.604 126.909 473.071 124.231 469.543L124.23 469.543L124.23 469.542C123.822 469.004 123.413 468.467 123.005 467.93C116.136 458.899 109.138 450.001 99.4453 442.874C55.423 410.504 6.93509 384.319 -41.2579 358.293L-41.2579 358.293ZM67.3033 450.731C87.8929 460.483 108.886 474.524 129.078 488.028L129.078 488.029C137.01 493.333 144.818 498.555 152.43 503.403C162.96 510.108 172.742 517.516 182.453 525.023C183.771 526.042 185.088 527.063 186.405 528.084C194.789 534.584 203.19 541.096 212.033 547.22L212.455 546.634C203.63 540.523 195.246 534.023 186.86 527.523C185.543 526.501 184.225 525.48 182.906 524.46C173.193 516.952 163.389 509.526 152.829 502.802C145.248 497.975 137.459 492.765 129.539 487.468L129.538 487.468C109.33 473.952 88.2644 459.863 67.6231 450.086C57.4598 445.271 47.3536 445.239 37.3011 445.778C35.9037 445.853 34.5079 445.939 33.1133 446.025C24.4549 446.558 15.842 447.089 7.16545 444.982C-8.63927 441.144 -22.3474 428.227 -35.2262 413.739C-38.8146 409.702 -42.322 405.563 -45.7903 401.471L-45.7908 401.47L-45.791 401.47L-45.7911 401.47L-45.7913 401.47L-45.7915 401.469L-45.7917 401.469L-45.792 401.469C-48.5534 398.21 -51.29 394.981 -54.023 391.856C-60.1724 384.824 -66.2688 378.361 -72.4639 373.438L-72.9242 373.995C-66.7821 378.876 -60.7204 385.299 -54.5768 392.324C-51.8644 395.426 -49.1292 398.653 -46.3651 401.914C-42.8854 406.02 -39.3599 410.179 -35.7762 414.211C-22.902 428.694 -9.06225 441.779 6.98639 445.676C15.78 447.811 24.516 447.272 33.1687 446.738L33.1688 446.738C34.5601 446.652 35.9493 446.567 37.3363 446.492C47.3693 445.954 57.3158 445.999 67.3033 450.731L67.4315 450.472L67.3033 450.731ZM181.645 527.683C172.476 519.974 163.159 512.443 152.36 505.988C145.86 502.102 139.23 498.048 132.511 493.94L132.51 493.939C109.725 480.008 85.9279 465.457 62.7894 454.776L62.7893 454.776C52.7872 450.155 43.5325 450.591 34.2434 451.647C32.9999 451.788 31.755 451.941 30.5073 452.094C22.4515 453.083 14.2782 454.085 5.59228 452.149L5.67513 451.8L5.59224 452.149C-2.74987 450.288 -9.77124 445.576 -15.9531 439.86C-21.1357 435.069 -25.7485 429.552 -30.059 424.396L-30.0592 424.396L-30.0592 424.396L-30.0593 424.396C-30.8871 423.406 -31.7037 422.429 -32.5111 421.473C-33.9595 419.76 -35.3895 418.058 -36.8091 416.368L-36.8122 416.365L-36.8122 416.365L-36.8123 416.365C-48.3604 402.621 -59.2243 389.691 -73.7772 378.002L-73.3138 377.448C-58.7027 389.183 -47.7931 402.168 -36.2496 415.907L-36.2496 415.907L-36.2456 415.912C-34.8257 417.602 -33.3963 419.303 -31.9492 421.015L-31.9491 421.015C-31.1371 421.976 -30.3172 422.957 -29.4874 423.949L-29.4873 423.949C-25.1763 429.105 -20.5977 434.581 -15.4518 439.338C-9.31913 445.008 -2.4094 449.63 5.75798 451.452C14.31 453.358 22.3464 452.374 30.4082 451.386L30.4116 451.385L30.4128 451.385C31.662 451.232 32.9118 451.079 34.1642 450.937C43.4844 449.877 52.9102 449.419 63.1029 454.128C86.2839 464.829 110.132 479.411 132.923 493.347C139.636 497.451 146.256 501.5 152.742 505.376C163.593 511.864 172.948 519.426 182.12 527.139C183.501 528.3 184.876 529.463 186.252 530.627C194.028 537.204 201.813 543.79 210.434 549.839L210.008 550.422C201.358 544.352 193.545 537.743 185.77 531.167L185.77 531.166L185.769 531.165L185.767 531.164L185.766 531.163L185.765 531.162L185.763 531.16L185.762 531.159L185.76 531.158L185.759 531.157L185.757 531.156L185.756 531.154L185.755 531.153L185.753 531.152L185.752 531.151L185.75 531.15L185.749 531.149L185.748 531.147C184.38 529.991 183.014 528.835 181.645 527.683ZM151.385 509.17C162.541 515.401 171.52 522.955 180.287 530.743C181.586 531.898 182.882 533.058 184.179 534.219C191.624 540.887 199.129 547.609 207.884 553.679L208.307 553.095C199.592 547.052 192.124 540.363 184.677 533.695L184.671 533.689C183.375 532.528 182.079 531.368 180.778 530.212C172.004 522.417 162.976 514.82 151.749 508.548L151.567 508.859L151.749 508.548C121.688 491.767 89.7106 474.091 58.632 459.551L58.6319 459.551C48.4146 454.775 39.611 455.301 30.9448 456.431C29.8257 456.577 28.7097 456.733 27.5938 456.889L27.5874 456.89C20.0546 457.941 12.5213 458.993 4.03535 457.023C-4.03149 455.15 -11.0131 450.28 -17.1865 444.387C-22.4879 439.327 -27.1702 433.536 -31.4238 428.275L-31.4238 428.275L-31.424 428.274L-31.4268 428.271L-31.427 428.271C-32.1267 427.405 -32.8149 426.554 -33.4923 425.723C-35.0368 423.827 -36.557 421.945 -38.0648 420.079C-49.3397 406.122 -59.9151 393.031 -74.6979 381.267L-75.1591 381.824C-60.4419 393.536 -49.9171 406.563 -38.6381 420.524C-37.1303 422.39 -35.6091 424.273 -34.0626 426.172L-34.0625 426.172C-33.3878 427 -32.7012 427.849 -32.0022 428.713L-32.0005 428.715C-27.7485 433.975 -23.034 439.806 -17.6963 444.901C-11.4789 450.836 -4.38482 455.803 3.86309 457.718C12.4921 459.722 20.1685 458.649 27.6963 457.596C28.8119 457.44 29.9243 457.285 31.036 457.14C39.6579 456.015 48.2897 455.511 58.3148 460.197C89.3666 474.724 121.323 492.388 151.385 509.17ZM178.31 533.976C169.639 526.148 160.72 518.594 149.314 512.504L149.49 512.19L149.314 512.504C118.574 496.083 86.3806 480.149 54.9599 465.245C45.0268 460.534 36.6495 460.836 28.292 461.717C27.262 461.825 26.2315 461.943 25.1979 462.06L25.1882 462.061L25.1806 462.062L25.1751 462.063L25.1663 462.064L25.1616 462.065C17.826 462.901 10.3367 463.756 1.76832 461.583C-6.39544 459.513 -13.4976 454.442 -19.7341 448.447C-25.1899 443.202 -30.0064 437.227 -34.3007 431.9L-34.3009 431.9L-34.3011 431.899L-34.3011 431.899L-34.3012 431.899L-34.303 431.897L-34.3075 431.891C-34.9191 431.133 -35.5202 430.387 -36.1111 429.658C-37.7137 427.682 -39.288 425.723 -40.8475 423.783L-40.8504 423.779L-40.8521 423.777C-52.0468 409.847 -62.4812 396.862 -77.2 385.224L-76.7405 384.666C-61.9541 396.358 -51.4675 409.408 -40.2766 423.335C-38.7159 425.277 -37.1414 427.236 -35.5398 429.211C-34.9461 429.943 -34.343 430.691 -33.7298 431.452L-33.7263 431.456C-29.4295 436.786 -24.6432 442.724 -19.2224 447.934C-13.0273 453.89 -6.03342 458.865 1.95506 460.89C10.3837 463.028 17.7341 462.191 25.0741 461.355C26.1216 461.236 27.1689 461.116 28.2191 461.006C36.6234 460.121 45.1647 459.803 55.2805 464.601C86.7083 479.508 118.913 495.448 149.666 511.876C161.153 518.009 170.125 525.612 178.805 533.448C180.142 534.655 181.471 535.867 182.802 537.08C190.118 543.749 197.467 550.448 206.218 556.463L205.798 557.049C197.002 551.004 189.613 544.268 182.297 537.599L182.296 537.598L182.294 537.596L182.293 537.595L182.292 537.594L182.291 537.593L182.29 537.592L182.289 537.591L182.287 537.59L182.286 537.589L182.285 537.588L182.284 537.587L182.283 537.586L182.282 537.585L182.28 537.584C180.957 536.377 179.636 535.173 178.31 533.976ZM145.796 514.119C157.606 520.229 166.782 528.04 175.651 536.222C177.302 537.745 178.943 539.282 180.588 540.823L180.589 540.823L180.589 540.823L180.59 540.824L180.59 540.824L180.59 540.824L180.591 540.825L180.591 540.825L180.592 540.826L180.592 540.826L180.592 540.826L180.593 540.827L180.593 540.827L180.596 540.83C187.779 547.556 195.05 554.365 203.635 560.503L204.067 559.924C195.524 553.816 188.295 547.047 181.114 540.323C179.462 538.776 177.813 537.232 176.152 535.699C167.271 527.507 158.038 519.642 146.14 513.486C115.62 497.693 83.9219 482.264 52.8049 467.865L52.6477 468.188L52.8048 467.865C42.8649 463.267 34.2593 463.365 25.7768 463.968C24.75 464.041 23.7255 464.122 22.7011 464.202L22.7 464.202L22.6988 464.202L22.6976 464.202C15.2542 464.786 7.81096 465.369 -0.553716 463.167L-0.553887 463.167C-8.52467 461.073 -15.4786 456.161 -21.6639 450.293C-26.9857 445.243 -31.717 439.507 -36.0303 434.278L-36.0304 434.278L-36.0305 434.278L-36.0306 434.278L-36.0307 434.278C-36.7315 433.428 -37.4212 432.592 -38.1007 431.774C-39.5966 429.973 -41.0719 428.184 -42.5362 426.409L-42.5373 426.407C-53.9545 412.562 -64.7096 399.52 -79.4318 387.789L-79.8934 388.346C-65.2335 400.026 -54.5268 413.009 -43.1052 426.859C-41.6407 428.635 -40.1645 430.425 -38.6667 432.228L-38.6666 432.228C-37.9898 433.043 -37.3018 433.877 -36.6019 434.725C-32.2903 439.953 -27.5283 445.726 -22.1722 450.808C-15.9452 456.716 -8.88618 461.719 -0.746762 463.858C7.74679 466.094 15.3186 465.499 22.7566 464.915L22.7578 464.915L22.759 464.915L22.7601 464.915L22.7613 464.914C23.7843 464.834 24.8047 464.754 25.8246 464.681C34.2687 464.081 42.7217 463.993 52.4905 468.512C83.5989 482.907 115.287 498.331 145.796 514.119ZM172.543 537.588C163.306 528.737 153.662 520.415 141.19 514.31C111.094 499.586 80.2229 485.423 49.7145 471.664C40.1269 467.343 31.58 467.089 23.0319 467.258C22.0611 467.278 21.09 467.302 20.117 467.327L20.1159 467.327L20.1147 467.327L20.1136 467.327C12.5278 467.52 4.83385 467.716 -3.60186 465.33C-19.8609 460.736 -33.4774 447.116 -46.1373 432.235C-49.3055 428.51 -52.4176 424.702 -55.4978 420.933L-55.5455 420.874C-58.6103 417.123 -61.6436 413.411 -64.6737 409.852C-70.7671 402.694 -76.8349 396.171 -83.0934 391.218L-82.6337 390.661C-76.3184 395.658 -70.2141 402.225 -64.1132 409.391C-61.0786 412.956 -58.0417 416.673 -54.9787 420.421L-54.9784 420.422L-54.9281 420.483C-51.8472 424.254 -48.7395 428.056 -45.5766 431.774C-32.9117 446.661 -19.4196 460.115 -3.39576 464.643C4.92557 466.996 12.5053 466.805 20.0978 466.612C21.0718 466.588 22.0461 466.563 23.0221 466.544C31.5985 466.374 40.2814 466.624 50.0224 471.014C80.5332 484.774 111.412 498.94 141.518 513.67C154.093 519.825 163.802 528.209 173.054 537.075C175.164 539.097 177.25 541.144 179.339 543.194L179.34 543.194C186.422 550.143 193.554 557.141 201.87 563.422L201.423 563.99C193.066 557.678 185.89 550.636 178.802 543.682C176.717 541.636 174.64 539.598 172.543 537.588ZM169.069 538.385C160.033 529.352 150.543 520.944 138.759 515.001L136.04 512.904C117.453 504.489 98.6841 496.415 79.9286 488.348L79.9272 488.347C68.9178 483.612 57.9132 478.878 46.9526 474.079L46.8157 474.376L46.9525 474.079C37.4265 469.91 28.652 469.201 19.966 468.808C19.0888 468.768 18.2128 468.731 17.3371 468.695C9.53287 468.369 1.75552 468.045 -6.55818 465.466L-6.55828 465.466C-22.5812 460.501 -36.0751 447.509 -48.8017 433.201C-51.9547 429.657 -55.0611 426.03 -58.1466 422.428L-58.1466 422.428L-58.1466 422.428L-58.1467 422.428L-58.1467 422.428L-58.1468 422.428L-58.1468 422.428L-58.1469 422.428L-58.1469 422.428L-58.147 422.428L-58.147 422.428L-58.1482 422.426C-67.488 411.523 -76.6359 400.844 -86.3033 393.331L-86.7581 393.893C-77.1534 401.357 -68.0748 411.955 -58.7483 422.842L-58.7482 422.842L-58.7476 422.843L-58.7473 422.843L-58.7467 422.844L-58.7461 422.844L-58.7455 422.845L-58.7449 422.846L-58.7443 422.847L-58.7436 422.847L-58.7433 422.848C-55.6496 426.459 -52.5286 430.102 -49.352 433.673C-36.6263 447.98 -23.0168 461.117 -6.78198 466.148C1.62859 468.756 9.50199 469.084 17.2979 469.409L17.3007 469.409C18.177 469.446 19.0524 469.482 19.9275 469.522C28.5963 469.915 37.2562 470.62 46.6519 474.732C57.6221 479.536 68.6307 484.271 79.6414 489.007L79.643 489.008L79.6432 489.008L79.6434 489.008L79.6436 489.008L79.6438 489.008L79.644 489.008L79.6443 489.008L79.6445 489.008L79.6447 489.008L79.6449 489.009L79.6451 489.009L79.6453 489.009C98.3945 497.073 117.15 505.141 135.731 513.554L135.855 513.293L135.731 513.554C136.757 514.018 137.766 514.501 138.759 515.001L147.168 521.489C141.857 517.547 136.184 514.153 129.976 511.604C109.254 503.097 88.4236 494.833 67.6067 486.574C59.6283 483.409 51.6519 480.244 43.6841 477.067C34.4225 473.371 25.5141 472.106 16.6842 470.984C16.1522 470.917 15.6205 470.85 15.089 470.783C6.79108 469.736 -1.44826 468.697 -9.92548 465.783C-25.9494 460.269 -39.4349 447.804 -52.2321 434.178C-55.3237 430.886 -58.3758 427.526 -61.4134 424.181L-61.4135 424.181L-61.4144 424.18C-70.9264 413.706 -80.2969 403.388 -90.2958 395.825L-90.7431 396.393C-80.8027 403.912 -71.4968 414.158 -61.996 424.619L-61.9959 424.619L-61.9947 424.62C-58.9488 427.974 -55.8828 431.349 -52.7694 434.665C-39.969 448.294 -26.3789 460.881 -10.1707 466.457L-10.1706 466.458C-1.61896 469.398 6.69098 470.445 14.9761 471.49L15.0057 471.494L15.4456 471.549C15.8257 471.597 16.2058 471.645 16.5859 471.693C25.414 472.815 34.2392 474.072 43.4058 477.729L43.5327 477.427L43.4059 477.729C51.3739 480.907 59.3495 484.071 67.3264 487.236L67.3271 487.236L67.3278 487.236L67.3285 487.237L67.3292 487.237L67.3298 487.237L67.3305 487.237L67.3312 487.238L67.3319 487.238L67.3326 487.238L67.3333 487.239C88.1488 495.497 108.973 503.759 129.691 512.264C143.561 517.958 154.763 527.93 165.306 538.867C168.493 542.173 171.622 545.571 174.747 548.964L174.747 548.964L174.748 548.964L174.748 548.965L174.749 548.965L174.749 548.966L174.749 548.966L174.75 548.966L174.75 548.967L174.751 548.967L174.751 548.968C181.943 556.777 189.112 564.56 196.91 571.15L197.388 570.607C189.625 564.047 182.507 556.318 175.329 548.525C172.196 545.122 169.051 541.708 165.837 538.374C160.862 533.213 155.726 528.25 150.218 523.842L169.069 538.385ZM123.327 510.869C137.693 516.128 149.902 527.116 161.341 539.304C165.163 543.376 168.902 547.585 172.605 551.756L172.606 551.756L172.607 551.757C179.964 560.041 187.184 568.17 194.646 574.76L195.136 574.228C187.705 567.665 180.537 559.594 173.199 551.331L173.198 551.33L173.198 551.33L173.198 551.33L173.197 551.329L173.197 551.329L173.197 551.329L173.195 551.326C169.485 547.149 165.731 542.922 161.878 538.817C150.427 526.617 138.122 515.52 123.586 510.199C113.432 506.479 103.228 502.89 93.0219 499.301C75.3654 493.091 57.7053 486.88 40.301 479.989C31.2579 476.41 22.2319 474.536 13.2705 472.712L12.6825 472.592L12.6823 472.592C3.91178 470.807 -4.79468 469.036 -13.4508 465.729L-13.5721 466.031L-13.4508 465.729C-29.4259 459.629 -42.9048 447.727 -55.7961 434.838C-58.7826 431.853 -61.7383 428.813 -64.6861 425.781C-74.4426 415.748 -84.1122 405.804 -94.5255 398.195L-94.9631 398.769C-84.6037 406.339 -74.9929 416.222 -65.2451 426.246L-65.245 426.246C-62.2901 429.285 -59.3226 432.337 -56.3178 435.341C-43.4205 448.235 -29.8494 460.237 -13.719 466.396C-5.00567 469.724 3.75274 471.506 12.5083 473.288L13.1179 473.412C22.0846 475.237 31.0499 477.1 40.0245 480.652C57.4394 487.548 75.1264 493.768 92.7941 499.982C102.997 503.57 113.193 507.156 123.327 510.869L123.456 510.534L123.327 510.869ZM158.301 541.197C146.412 528.205 133.783 516.365 119.646 510.708C106.422 505.417 92.7731 501.341 79.1038 497.26L79.1035 497.259L79.1033 497.259L79.1031 497.259L79.1029 497.259L79.1027 497.259L79.1024 497.259L79.1022 497.259L79.102 497.259L78.1002 496.96C64.1011 492.779 50.0917 488.56 36.5413 482.996C27.9873 479.484 19.0963 477.149 10.2075 474.815L10.2072 474.815C9.5774 474.65 8.94762 474.484 8.31795 474.318C-1.18952 471.815 -10.6637 469.217 -19.6284 465.084C-35.0714 457.961 -48.1773 446.714 -60.8229 434.877C-63.2841 432.573 -65.7273 430.248 -68.167 427.926L-68.1675 427.925C-78.2765 418.304 -88.3234 408.741 -99.3193 401.038L-98.8934 400.455C-87.8489 408.192 -77.7528 417.802 -67.6408 427.427L-67.639 427.429C-65.2042 429.746 -62.7684 432.065 -60.3183 434.358C-47.6782 446.19 -34.644 457.367 -19.315 464.436C-10.4157 468.54 -0.999542 471.123 8.51109 473.628C9.13244 473.791 9.75418 473.955 10.3762 474.118L10.4099 474.127C19.289 476.458 28.2252 478.805 36.8263 482.336C50.3379 487.884 64.3132 492.093 78.3165 496.276L79.3312 496.579L79.3314 496.579C92.9919 500.658 106.669 504.742 119.925 510.046C134.227 515.769 146.95 527.72 158.844 540.717C162.841 545.084 166.741 549.567 170.578 553.976C178.186 562.719 185.544 571.175 192.9 577.872L192.402 578.397C185.017 571.673 177.611 563.162 169.984 554.399L169.984 554.399C166.154 549.997 162.267 545.532 158.301 541.197ZM113.334 510.314C121.201 513.235 127.706 518.069 133.637 523.674C137.749 527.561 141.57 531.802 145.378 536.03C147.07 537.908 148.76 539.784 150.472 541.625C163.378 555.499 176.199 569.034 190.223 582.045L190.726 581.524C176.722 568.532 163.916 555.013 151.012 541.141C149.317 539.319 147.638 537.455 145.951 535.582L145.95 535.582L145.95 535.581L145.95 535.581L145.949 535.581L145.949 535.58L145.949 535.58L145.948 535.579L145.948 535.579C142.13 531.341 138.278 527.064 134.144 523.158C128.174 517.516 121.588 512.612 113.595 509.645C101.391 505.111 88.7842 501.752 76.1965 498.399L76.1963 498.399C75.2383 498.144 74.2803 497.888 73.3226 497.633C59.7757 494.016 46.2848 490.301 33.3317 485.023C25.8692 481.982 18.0665 479.368 10.2557 476.751L10.2519 476.75C8.48129 476.157 6.7103 475.564 4.94277 474.965C-4.63054 471.724 -14.1092 468.329 -22.9219 463.98C-38.0365 456.515 -51.167 445.871 -64.005 434.739C-66.2804 432.765 -68.547 430.776 -70.8138 428.787L-70.814 428.787L-70.8141 428.787L-70.8142 428.787L-70.8144 428.787L-70.8145 428.787L-70.8146 428.787L-70.8148 428.787C-81.3265 419.563 -91.844 410.334 -103.282 402.636L-103.696 403.226C-92.3006 410.896 -81.8249 420.088 -71.3144 429.31L-71.3143 429.311L-71.3114 429.313C-69.0421 431.304 -66.7713 433.297 -64.4892 435.276C-51.6464 446.413 -38.4567 457.11 -23.2526 464.619L-23.2525 464.619C-14.3933 468.991 -4.87523 472.399 4.70126 475.641C6.47318 476.241 8.2469 476.835 10.0188 477.429L10.0249 477.431C17.8345 480.048 25.6099 482.653 33.0488 485.684C46.0498 490.981 59.5823 494.707 73.1272 498.323C74.0725 498.575 75.0179 498.827 75.9631 499.079L75.9946 499.087C88.5894 502.443 101.163 505.792 113.334 510.314L113.456 510.001L113.334 510.314ZM150.097 544.979C136.848 530.933 122.843 518.051 107.451 511.135C95.2652 505.659 82.051 502.525 68.749 499.481L68.0495 499.321L66.9999 499.081L66.9997 499.081C54.2868 496.176 41.532 493.261 29.6213 488.366C25.0466 486.485 20.3401 484.614 15.5781 482.722L15.578 482.721L15.5779 482.721L15.5777 482.721L15.5776 482.721L15.5775 482.721L15.5761 482.721C1.25177 477.027 -13.574 471.133 -26.8209 464.182L-26.8208 464.182L-26.6477 463.866L-26.8209 464.182C-41.7358 456.36 -55.0414 446.175 -68.1087 435.69C-70.1464 434.055 -72.178 432.413 -74.2091 430.771L-74.2132 430.768L-74.2212 430.762C-85.219 421.873 -96.1989 412.998 -108.009 405.349L-107.605 404.751C-95.7608 412.423 -84.7471 421.325 -73.75 430.213L-73.7498 430.214C-71.7163 431.857 -69.6834 433.5 -67.6459 435.135C-54.5817 445.617 -41.3226 455.763 -26.4746 463.55L-26.4746 463.55C-13.2648 470.483 1.50854 476.355 15.8239 482.046L15.8241 482.046C20.5938 483.942 25.3127 485.818 29.906 487.706C41.759 492.578 54.4596 495.48 67.1887 498.389L67.2835 498.41C67.8285 498.535 68.3735 498.66 68.9185 498.784C82.2132 501.827 95.4961 504.974 107.758 510.484C123.288 517.463 137.376 530.437 150.633 544.491C155.439 549.586 160.133 554.819 164.748 559.965L164.749 559.966L164.749 559.966L164.749 559.967L164.75 559.967L164.75 559.967L164.75 559.968C172.889 569.041 180.783 577.843 188.619 585.136L188.116 585.657C180.26 578.345 172.324 569.497 164.168 560.404L164.168 560.404L164.167 560.403C159.556 555.262 154.875 550.043 150.097 544.979ZM102.331 513.703C118.044 520.741 132.65 533.803 146.506 548.038C151.699 553.373 156.79 558.877 161.793 564.286C170.115 573.283 178.192 582.016 186.087 589.266L186.586 588.742C178.708 581.508 170.67 572.817 162.366 563.839C157.36 558.426 152.257 552.909 147.034 547.542C133.17 533.299 118.484 520.15 102.636 513.052C90.6238 507.673 77.6496 504.587 64.6805 501.566L63.6582 501.328L63.658 501.328C51.0189 498.386 38.4083 495.45 26.6509 490.465C8.05293 482.584 -12.1549 473.149 -29.8943 463.349C-44.4651 455.301 -57.8757 445.604 -71.175 435.707C-72.8557 434.456 -74.5347 433.202 -76.2141 431.947L-76.2142 431.947L-76.2143 431.947L-76.2144 431.947L-76.2144 431.947L-76.2145 431.947C-87.8179 423.28 -99.438 414.601 -111.754 406.896L-112.148 407.5C-99.8586 415.188 -88.2642 423.848 -76.6585 432.516L-76.6528 432.521L-76.6471 432.525L-76.6414 432.529L-76.6342 432.535L-76.6271 432.54C-74.9579 433.787 -73.2885 435.034 -71.6166 436.278C-65.1471 441.092 -58.6434 445.866 -51.9871 450.428C-58.3839 446.255 -64.7552 442.032 -71.1329 437.806L-71.1335 437.805C-85.8267 428.068 -100.554 418.308 -115.704 409.074L-116.09 409.683C-100.95 418.911 -86.2445 428.656 -71.5596 438.388L-71.5589 438.389L-71.5584 438.389L-71.5578 438.389L-71.5573 438.39C-63.6466 443.632 -55.7418 448.871 -47.7783 454.022C-25.0398 468.732 -1.84085 482.719 23.2754 494.011L23.4281 493.685L23.2754 494.011C35.0489 499.302 47.6465 502.662 60.2036 506.011L60.2038 506.011L60.854 506.185C73.6367 509.595 86.3627 513.028 98.1877 518.508C114.117 525.894 129.051 538.668 143.293 552.526C148.776 557.861 154.161 563.362 159.459 568.774C167.901 577.398 176.123 585.797 184.171 592.943L184.66 592.41C176.625 585.277 168.44 576.914 160.016 568.308L160.015 568.308L160.015 568.307L160.015 568.307C154.714 562.892 149.319 557.38 143.806 552.016C129.554 538.148 114.548 525.301 98.5009 517.86C86.609 512.35 73.8218 508.902 61.048 505.494L60.4232 505.327L60.423 505.327C47.8478 501.973 35.2996 498.626 23.5808 493.36C2.66148 483.955 -16.9322 472.673 -36.0539 460.651C-34.1399 461.786 -32.2073 462.894 -30.2539 463.973C-12.486 473.789 7.74608 483.235 26.3592 491.122C38.1757 496.132 50.841 499.081 63.4615 502.018L64.5086 502.262C77.4867 505.285 90.3928 508.357 102.331 513.703ZM97.7235 526.704C113.137 534.681 127.672 546.565 141.674 559.23C146.832 563.895 151.921 568.669 156.954 573.39L156.954 573.391L156.955 573.391L156.956 573.393L156.957 573.393C165.57 581.474 174.021 589.402 182.375 596.368L182.847 595.821C174.505 588.865 166.085 580.966 157.485 572.897C152.448 568.171 147.349 563.388 142.168 558.701C128.156 546.028 113.564 534.092 98.0645 526.07C85.9169 519.784 72.7621 515.459 59.6009 511.226L58.671 510.927L57.9121 510.683C45.3055 506.632 32.7319 502.592 21.0162 496.915C-3.5041 485.034 -26.8762 470.625 -49.9497 455.687C-56.4643 451.469 -62.956 447.209 -69.4429 442.952L-69.4458 442.95L-69.446 442.95L-69.4461 442.95L-69.4463 442.95C-85.9274 432.134 -102.378 421.338 -119.1 411.31L-119.481 411.922C-102.772 421.941 -86.3404 432.725 -69.864 443.538L-69.8636 443.538C-63.373 447.798 -56.8755 452.062 -50.3514 456.285C-27.2719 471.227 -3.86948 485.657 20.6924 497.558C32.4554 503.257 45.0736 507.312 57.6669 511.358L57.6671 511.358L58.7813 511.717L59.3718 511.906C72.5389 516.142 85.6376 520.449 97.7235 526.704ZM139.585 567.292C125.685 556.379 111.475 545.934 96.5123 537.5L96.6937 537.189L96.5122 537.5C83.9939 530.44 70.7733 524.598 57.5074 518.799L55.8076 518.056C43.111 512.508 30.3987 506.954 18.2766 500.37C-11.6038 484.14 -40.4553 465.772 -69.2545 447.436L-69.2546 447.436L-69.2547 447.436L-69.2552 447.436L-69.2557 447.436C-86.9474 436.172 -104.619 424.921 -122.498 414.186L-122.118 413.574C-104.203 424.331 -86.5171 435.591 -68.821 446.858L-68.8209 446.858L-68.8208 446.858L-68.8206 446.858C-40.0418 465.181 -11.2357 483.521 18.6294 499.743C30.7233 506.311 43.4098 511.854 56.114 517.405L57.8044 518.144C71.0672 523.942 84.3202 529.798 96.875 536.878C111.887 545.34 126.13 555.811 140.039 566.731C145.278 570.844 150.467 575.019 155.632 579.173L155.633 579.174L155.634 579.175C164.19 586.058 172.679 592.888 181.221 599.297L180.779 599.867C172.23 593.453 163.721 586.607 155.156 579.717L155.156 579.717L155.156 579.717L155.154 579.715C149.991 575.562 144.809 571.393 139.585 567.292ZM-35.5886 471.127L-35.5884 471.128L-35.5868 471.129C36.2415 514.968 108.07 558.808 179.413 603.391L179.803 602.785C108.456 558.2 36.6215 514.356 -35.2085 470.516L-35.209 470.515C-65.0239 452.318 -94.838 434.122 -124.616 415.872L-125 416.482C-95.2196 434.732 -65.4041 452.93 -35.5886 471.127Z" fill="url(#paint4_linear_2914_223)" fill-opacity="0.4"></path> </g> <defs> <filter id="filter0_f_2914_223" x="32.5591" y="239.155" width="725.656" height="461.852" filterUnits="userSpaceOnUse" color-interpolation-filters="sRGB"> <feFlood flood-opacity="0" result="BackgroundImageFix"></feFlood> <feBlend mode="normal" in="SourceGraphic" in2="BackgroundImageFix" result="shape"></feBlend> <feGaussianBlur stdDeviation="90" result="effect1_foregroundBlur_2914_223"></feGaussianBlur> </filter> <filter id="filter1_f_2914_223" x="-315.033" y="74.8144" width="692.096" height="518.578" filterUnits="userSpaceOnUse" color-interpolation-filters="sRGB"> <feFlood flood-opacity="0" result="BackgroundImageFix"></feFlood> <feBlend mode="normal" in="SourceGraphic" in2="BackgroundImageFix" result="shape"></feBlend> <feGaussianBlur stdDeviation="90" result="effect1_foregroundBlur_2914_223"></feGaussianBlur> </filter> <filter id="filter2_f_2914_223" x="-304.13" y="199.066" width="867.813" height="582.428" filterUnits="userSpaceOnUse" color-interpolation-filters="sRGB"> <feFlood flood-opacity="0" result="BackgroundImageFix"></feFlood> <feBlend mode="normal" in="SourceGraphic" in2="BackgroundImageFix" result="shape"></feBlend> <feGaussianBlur stdDeviation="90" result="effect1_foregroundBlur_2914_223"></feGaussianBlur> </filter> <linearGradient id="paint0_linear_2914_223" x1="52.9138" y1="-196.5" x2="565.893" y2="396.533" gradientUnits="userSpaceOnUse"> <stop stop-color="#252426" stop-opacity="0.7"></stop> <stop offset="1" stop-color="#807B9E" stop-opacity="0.12"></stop> </linearGradient> <linearGradient id="paint1_linear_2914_223" x1="481.588" y1="676.421" x2="-197.138" y2="104.628" gradientUnits="userSpaceOnUse"> <stop stop-color="#8778A7" stop-opacity="0.05"></stop> <stop offset="1" stop-color="#FFEFF5" stop-opacity="0.28"></stop> </linearGradient> <linearGradient id="paint2_linear_2914_223" x1="242.19" y1="216.764" x2="198.946" y2="-67.4426" gradientUnits="userSpaceOnUse"> <stop stop-color="#141516"></stop> <stop offset="1" stop-color="#141516" stop-opacity="0"></stop> </linearGradient> <linearGradient id="paint3_linear_2914_223" x1="146.603" y1="-75.5" x2="610.796" y2="133.837" gradientUnits="userSpaceOnUse"> <stop stop-color="#6A5C5A" stop-opacity="0.62"></stop> <stop offset="1" stop-color="#332F3C"></stop> </linearGradient> <linearGradient id="paint4_linear_2914_223" x1="93.8234" y1="401.467" x2="27.2075" y2="509.949" gradientUnits="userSpaceOnUse"> <stop stop-color="#D1E9FF" stop-opacity="0.85"></stop> <stop offset="1" stop-color="#FFDBDB" stop-opacity="0.96"></stop> </linearGradient> </defs> </svg> 