<?xml version="1.0" encoding="UTF-8"?> <svg xmlns="http://www.w3.org/2000/svg" width="1160" height="342" viewBox="0 0 1160 342" fill="none"> <rect x="0.5" y="0.5" width="1159" height="340.774" rx="19.5" fill="url(#paint0_linear_2959_373)" fill-opacity="0.5" stroke="url(#paint1_linear_2959_373)"></rect> <mask id="mask0_2959_373" style="mask-type:alpha" maskUnits="userSpaceOnUse" x="0" y="0" width="1160" height="342"> <rect width="1160" height="341.774" rx="20" fill="url(#paint2_linear_2959_373)"></rect> <rect width="1160" height="341.774" rx="20" fill="url(#paint3_linear_2959_373)"></rect> </mask> <g mask="url(#mask0_2959_373)"> <g filter="url(#filter0_f_2959_373)"> <ellipse rx="125.817" ry="96.9565" transform="matrix(-1.00159 0.0724229 0.486169 0.774685 957.16 64.2362)" fill="#EE5F56" fill-opacity="0.35"></ellipse> </g> <g filter="url(#filter1_f_2959_373)"> <ellipse rx="125.313" ry="64.4355" transform="matrix(-1.00154 0.0717805 0.489401 0.772769 229.039 192.701)" fill="#FFCCC9" fill-opacity="0.11"></ellipse> </g> <g filter="url(#filter2_f_2959_373)"> <path d="M-126.046 228.808C-159.159 268.907 -91.6415 335.413 24.7576 377.353C141.157 419.293 262.36 420.785 295.473 380.686C328.586 340.587 1209 491.901 1092.6 449.961C976.198 408.021 -92.9326 188.709 -126.046 228.808Z" fill="#FF9EBB" fill-opacity="0.13"></path> </g> <g filter="url(#filter3_f_2959_373)"> <path d="M892.291 -37.8111C756.817 72.7829 906.708 42.3513 1059.81 155.139C1212.91 267.926 777.616 251.452 1138.49 329.754C1188.47 295.259 1311.81 266.274 1158.71 153.487C1005.61 40.6998 1141.64 -98.303 892.291 -37.8111Z" fill="#2D54B9" fill-opacity="0.35"></path> </g> <g filter="url(#filter4_f_2959_373)"> <path d="M625.788 393.964C674.213 229.23 568.018 340.065 377.204 341.487C186.391 342.909 613.23 117.797 270.805 266.874C249.337 322.744 105.776 401.72 296.59 400.298C487.403 398.876 454.78 586.006 625.788 393.964Z" fill="#E09F53" fill-opacity="0.24"></path> </g> <path opacity="0.7" d="M519.128 544.646C519.128 544.646 486.687 494.183 433.378 440.459C380.069 386.734 319.46 427.411 248.385 402.243C177.31 377.076 282.275 233.223 236.927 189.767C191.58 146.311 29.675 224.985 -60.6384 156.451C-150.952 87.9167 -101.245 10.7996 -101.245 10.7996M519.703 544.47C519.703 544.47 485.886 494.023 432.969 441.019C380.051 388.014 320.993 426.652 251.025 401.691C181.058 376.73 283.109 236.184 237.749 193.248C192.388 150.312 33.2055 226.327 -56.9465 157.146C-147.099 87.9649 -100.674 12.3037 -101.904 11.1847M520.31 544.333C520.31 544.333 485.118 493.902 432.591 441.587C380.063 389.272 322.526 425.872 253.667 401.149C184.808 376.425 283.974 239.124 238.541 196.77C193.109 154.417 36.7388 227.74 -53.2824 157.913C-143.304 88.0857 -100.102 13.8172 -102.532 11.5781M520.885 544.187C520.885 544.187 484.318 493.742 432.182 442.147C380.046 390.552 324.027 425.084 256.308 400.627C188.589 376.17 284.838 242.084 239.364 200.282C193.889 158.48 40.2701 229.113 -49.5897 158.639C-139.45 88.1644 -99.5012 15.3202 -103.162 11.9622M521.461 544.021C521.461 544.021 483.518 493.592 431.773 442.716C380.029 391.841 325.561 424.335 258.949 400.085C192.338 375.835 285.672 245.025 240.187 203.804C194.702 162.583 43.8328 230.494 -45.8961 159.374C-135.625 88.254 -98.8992 16.833 -103.79 12.356M522.036 543.875C522.036 543.875 482.719 493.462 431.334 443.277C379.949 393.092 327.032 423.548 261.529 399.535C196.026 375.522 286.476 247.987 240.948 207.287C195.419 166.587 47.3022 231.839 -42.2643 160.102C-131.831 88.3653 -98.359 18.3382 -104.45 12.7411M522.612 543.704C522.612 543.704 481.919 493.308 430.925 443.843C379.932 394.378 328.534 422.766 264.17 398.989C199.806 375.212 287.341 250.923 241.739 210.775C196.138 170.627 50.8344 233.217 -38.6024 160.804C-128.039 88.391 -97.7571 19.8471 -105.109 13.132M523.188 543.563C523.188 543.563 481.12 493.183 430.516 444.407C379.913 395.631 330.067 422.011 266.781 398.472C203.526 374.933 288.145 253.889 242.532 214.322C196.92 174.755 54.3366 234.626 -34.9388 161.565C-124.214 88.5052 -97.1861 21.3551 -105.737 13.52M523.764 543.423C523.764 543.423 480.321 493.059 430.108 444.973C379.895 396.886 331.569 421.228 269.422 397.926C207.276 374.624 289.01 256.856 243.354 217.809C197.699 178.763 57.8979 235.973 -31.2151 162.296C-120.328 88.6193 -96.615 22.8651 -106.397 13.9109M524.338 543.247C524.338 543.247 479.52 492.899 429.699 445.532C379.877 398.166 333.07 420.44 272.063 397.374C211.056 374.308 289.844 259.787 244.176 221.291C198.508 182.795 61.4591 237.314 -27.5231 162.991C-116.505 88.6686 -96.0135 24.3681 -107.025 14.295M524.914 543.105C524.914 543.105 478.72 492.743 429.259 446.097C379.798 399.451 334.573 419.686 274.643 396.858C214.714 374.031 290.648 262.753 244.908 224.84C199.169 186.927 64.9011 238.755 -23.9207 163.755C-112.743 88.7544 -95.4428 25.8761 -107.654 14.6829M525.49 542.965C525.49 542.965 477.921 492.619 428.852 446.694C379.782 400.768 336.076 418.935 277.286 396.343C218.495 373.751 291.513 265.72 245.731 228.358C199.949 190.996 68.4636 240.133 -20.2263 164.517C-108.916 88.9011 -94.8715 27.3861 -108.314 15.0739M526.065 542.789C526.065 542.789 477.121 492.459 428.442 447.223C379.763 401.986 337.576 418.116 279.895 395.761C222.213 373.407 292.316 268.651 246.522 231.84C200.729 195.028 71.9638 241.476 -16.5648 165.213C-105.093 88.9504 -94.2701 28.8891 -108.942 15.458M526.641 542.653C526.641 542.653 476.322 492.34 428.033 447.792C379.744 403.245 339.11 417.367 282.537 395.25C225.964 373.132 293.181 271.622 247.345 235.361C201.51 199.101 75.5274 242.888 -12.8713 165.949C-101.27 89.0094 -93.6987 30.403 -109.601 15.8528M527.217 542.507C527.217 542.507 475.523 492.21 427.595 448.384C379.667 404.558 340.582 416.61 285.148 394.729C229.714 372.848 294.016 274.583 248.107 238.875C202.198 203.167 78.9978 244.263 -9.23959 166.677C-97.477 89.0903 -93.127 31.9376 -110.23 16.2369M527.792 542.339C527.792 542.339 474.723 492.058 427.185 448.921C379.648 405.784 342.083 415.799 287.758 394.155C233.432 372.512 294.819 277.523 248.899 242.365C202.978 207.208 82.5289 245.613 -5.57666 167.411C-93.6822 89.2094 -92.525 33.4485 -110.889 16.6298M528.368 542.195C528.368 542.195 473.924 491.93 426.777 449.513C379.631 407.096 343.617 415.073 290.399 393.636C237.182 372.229 295.684 280.485 249.721 245.879C203.758 211.273 86.0605 246.988 -1.88369 168.139C-89.8279 89.2901 -91.9542 34.9545 -111.518 17.0158M528.944 542.054C528.944 542.054 473.124 491.775 426.369 450.078C379.614 408.381 345.119 414.289 293.011 393.12C240.933 371.95 296.489 283.453 250.515 249.427C204.541 215.402 89.5946 248.426 1.78021 168.901C-86.0342 89.3756 -91.3829 36.4633 -112.146 17.435M529.519 541.877C529.519 541.877 472.323 491.615 425.959 450.607C379.594 409.599 346.619 413.471 295.65 392.538C244.681 371.604 297.352 286.352 251.305 252.879C205.258 219.406 93.0935 249.739 5.44157 169.597C-82.2104 89.4554 -90.7816 37.9663 -112.805 17.8201M530.095 541.737C530.095 541.737 471.524 491.491 425.521 451.204C379.517 410.917 348.123 412.749 298.262 392.022C248.432 371.325 298.187 289.349 252.128 256.396C206.068 223.443 96.656 251.116 9.13485 170.328C-78.3863 89.5404 -90.1809 39.444 -113.435 18.1787M530.7 541.565C530.7 541.565 470.755 491.335 425.141 451.738C379.528 412.14 349.654 411.934 300.903 391.476C252.151 371.017 299.021 292.286 252.92 259.914C206.819 227.543 100.188 252.494 12.7974 171.06C-74.5929 89.6267 -89.61 40.9536 -114.064 18.5683M531.277 541.42C531.277 541.42 469.956 491.206 424.734 452.329C379.48 413.421 351.157 411.177 303.514 390.956C255.901 370.733 299.856 295.248 253.713 263.428C207.569 231.608 103.69 253.899 16.4613 171.818C-70.7677 89.7377 -89.0377 42.4889 -114.722 18.9846M531.853 541.283C531.853 541.283 469.157 491.086 424.325 452.898C379.493 414.709 352.691 410.428 306.155 390.413C259.65 370.397 300.721 298.217 254.504 266.919C208.287 235.621 107.221 255.251 20.1229 172.524C-66.9751 89.7971 -88.4676 43.9715 -115.382 19.3482M532.428 541.106C532.428 541.106 468.356 490.925 423.915 453.426C379.474 415.927 354.192 409.608 308.796 389.86C263.399 370.081 301.555 301.147 255.327 270.43C209.099 239.712 110.753 256.622 23.8161 173.248C-63.1206 89.8746 -87.8955 45.5049 -116.01 19.7616M533.004 540.97C533.004 540.97 467.556 490.775 423.477 454.027C379.397 417.279 355.664 408.861 311.407 389.349C267.119 369.808 302.389 304.118 256.119 273.952C209.849 243.786 114.285 258.005 27.4798 174.015C-59.325 90.0263 -87.294 47.0177 -116.639 20.1554M533.579 540.824C533.579 540.824 466.757 490.645 423.068 454.587C379.379 418.528 357.197 408.102 314.017 388.798C270.838 369.494 303.193 307.05 256.911 277.465C210.63 247.88 117.787 259.409 31.1424 174.742C-55.5021 90.0755 -86.723 48.5218 -117.298 20.5405M534.154 540.649C534.154 540.649 465.957 490.486 422.659 455.148C379.361 419.809 358.699 407.315 316.658 388.247C274.618 369.179 304.058 310.012 257.703 280.948C211.348 251.885 121.317 260.753 34.8038 175.44C-51.7099 90.1271 -86.152 50.0271 -117.928 20.8952M534.731 540.511C534.731 540.511 465.158 490.365 422.251 455.715C379.343 421.066 360.202 406.565 319.3 387.734C278.369 368.903 304.923 312.98 258.526 284.468C212.128 255.956 124.85 262.133 38.4974 176.173C-47.8549 90.2137 -85.5501 51.538 -118.556 21.2871M535.306 540.366C535.306 540.366 464.359 490.236 421.811 456.277C379.264 422.349 361.703 405.778 321.88 387.184C282.057 368.591 305.695 315.914 259.287 287.983C212.879 260.051 128.351 263.508 42.1301 176.933C-44.0903 90.3573 -85.0089 53.0744 -119.245 21.7045M535.882 540.199C535.882 540.199 463.559 490.085 421.403 456.846C379.246 423.607 363.205 404.999 324.521 386.641C285.837 368.284 306.561 318.883 260.11 291.473C213.658 264.062 131.883 264.89 45.8226 177.637C-40.2374 90.3841 -84.4079 54.556 -119.844 22.066M536.457 540.054C536.457 540.054 462.76 489.956 420.993 457.407C379.227 424.857 364.708 404.242 327.132 386.122C289.556 368.001 307.395 321.846 260.872 295.018C214.349 268.19 135.385 266.295 49.4554 178.396C-36.4739 90.4972 -83.8374 56.0608 -120.503 22.4824M537.032 539.884C537.032 539.884 461.959 489.771 420.585 457.972C379.18 426.144 366.24 403.458 329.773 385.575C293.306 367.692 308.229 324.783 261.694 298.505C215.159 272.228 138.915 267.643 53.1486 179.128C-32.6182 90.6123 -83.2356 57.5697 -121.132 22.8723M537.608 539.741C537.608 539.741 461.16 489.645 420.176 458.535C379.162 427.427 367.742 402.673 332.414 385.027C297.086 367.38 309.093 327.716 262.516 301.99C215.938 276.263 142.478 269.018 56.8409 179.826C-28.7961 90.6343 -82.6339 59.0759 -121.761 23.229M538.184 539.602C538.184 539.602 460.36 489.522 419.737 459.103C379.113 428.684 369.214 401.923 334.995 384.514C300.775 367.104 309.898 330.715 263.279 305.54C216.659 280.366 145.98 270.429 60.4739 180.591C-25.0323 90.7533 -82.0925 60.6182 -122.45 23.6522M538.759 539.426C538.759 539.426 459.56 489.362 419.328 459.663C379.096 429.963 370.746 401.134 337.636 383.962C304.525 366.789 310.732 333.646 264.07 309.023C217.408 284.399 149.48 271.772 64.1366 181.318C-21.2072 90.8636 -81.5214 62.1223 -123.109 24.0373M539.335 539.283C539.335 539.283 458.761 489.236 418.919 460.226C379.077 431.216 372.248 400.349 340.246 383.414C308.243 366.479 311.566 336.58 264.861 312.508C218.156 288.436 153.011 273.118 67.798 182.017C-17.4149 90.9171 -80.9515 63.599 -123.739 24.394M539.911 539.144C539.911 539.144 457.962 489.113 418.512 460.823C379.061 432.532 373.752 399.628 342.888 382.899C312.025 366.2 312.402 339.579 265.685 316.057C218.969 292.535 156.545 274.558 71.4926 182.78C-13.56 91.0024 -80.3486 65.1392 -124.367 24.8152M540.486 538.968C540.486 538.968 457.162 488.953 418.102 461.352C379.011 433.752 375.283 398.809 345.528 382.347C315.774 365.885 313.266 342.509 266.507 319.538C219.748 296.568 160.106 275.899 75.1854 183.506C-9.73528 91.1127 -79.7484 66.6118 -124.996 25.1992M541.093 538.829C541.093 538.829 456.393 488.8 417.693 461.919C378.994 435.039 376.785 398.028 348.139 381.803C319.493 365.579 314.1 345.447 267.269 323.06C220.438 300.672 163.577 277.282 78.8178 184.241C-5.94151 91.201 -79.2065 68.1549 -125.655 25.5918M541.669 538.685C541.669 538.685 455.593 488.672 417.285 462.512C378.977 436.352 378.289 397.303 350.781 381.284C323.274 365.296 314.935 348.441 268.092 326.573C221.248 304.706 167.139 278.655 82.5108 184.969C-2.11766 91.2828 -78.6051 69.6599 -126.284 25.9778M542.244 538.516C542.244 538.516 454.793 488.52 416.876 463.049C378.958 437.578 379.82 396.491 353.391 380.741C326.963 364.991 315.769 351.38 268.883 330.063C221.998 308.777 170.641 280.037 86.1737 185.704C1.7065 91.3704 -78.0033 71.1707 -126.912 26.3697M542.819 538.371C542.819 538.371 453.994 488.39 416.468 463.639C378.911 438.889 381.323 395.733 356.033 380.219C330.743 364.705 316.634 354.34 269.707 333.606C222.78 312.871 174.204 281.439 89.8677 186.46C5.53142 91.4807 -77.4324 72.6748 -127.571 26.7547M543.395 538.202C543.395 538.202 453.194 488.238 416.028 464.178C378.861 440.117 382.794 394.954 358.643 379.645C334.461 364.369 317.436 357.25 270.467 337.066C223.497 316.883 177.673 282.761 93.4981 187.135C9.32314 91.5083 -76.8611 74.1867 -128.2 27.1466M543.97 538.06C543.97 538.06 452.395 488.112 415.619 464.74C378.843 441.4 384.326 394.168 361.254 379.128C338.181 364.089 318.272 360.245 271.259 340.582C224.246 320.92 181.204 284.137 97.1604 187.865C13.1163 91.5923 -76.2914 75.6635 -128.861 27.5044M544.547 537.913C544.547 537.913 451.596 487.981 415.211 465.33C378.826 442.678 385.829 393.409 363.896 378.605C341.962 363.802 319.107 363.205 272.083 344.123C225.059 325.042 184.769 285.568 100.886 188.649C17.0036 91.7299 -75.6885 77.1958 -129.488 27.9177M545.121 537.746C545.121 537.746 450.795 487.8 414.801 465.868C378.808 443.937 387.331 392.629 366.535 378.032C345.71 363.435 319.97 366.114 272.904 347.583C225.838 329.053 188.299 286.889 104.577 189.323C20.8561 91.7566 -75.0574 78.6764 -130.087 28.2792M545.697 537.601C545.697 537.601 449.996 487.671 414.394 466.459C378.76 445.218 388.864 391.871 369.147 377.512C349.43 363.153 320.806 369.106 273.667 351.128C226.528 333.15 191.801 288.294 108.211 190.082C24.6201 91.8698 -74.5159 80.2128 -130.746 28.6956M546.273 537.461C546.273 537.461 449.197 487.548 413.954 467.027C378.712 446.505 390.335 391.091 371.758 376.998C353.18 362.875 321.61 372.075 274.459 354.648C227.308 337.22 195.303 289.705 111.874 190.846C28.4451 91.9867 -73.9438 81.754 -131.404 29.1178M546.848 537.288C546.848 537.288 448.397 487.39 413.544 467.558C378.692 447.726 391.837 390.305 374.368 376.419C356.898 362.533 322.442 374.978 275.249 358.102C228.056 341.225 198.833 291.019 115.535 191.514C32.2366 92.0089 -73.3748 83.1995 -132.065 29.4443M547.424 537.148C547.424 537.148 447.597 487.267 413.137 468.155C378.676 449.043 393.37 389.553 377.009 375.904C360.648 362.256 323.308 377.945 276.073 361.651C228.839 345.356 202.366 292.429 119.229 192.277C36.0921 92.1248 -72.7722 84.7396 -132.662 29.8644M548 537.003C548 537.003 446.798 487.139 412.728 468.716C378.657 450.293 394.872 388.765 379.651 375.384C364.43 362.002 324.143 380.938 276.865 365.164C229.588 349.391 205.898 293.803 122.893 193.035C39.8876 92.2674 -72.2001 86.275 -133.321 30.2808M548.575 536.833C548.575 536.833 445.998 486.985 412.319 469.282C378.609 451.58 396.375 388.014 382.262 374.838C368.148 361.663 324.977 383.875 277.658 368.683C230.339 353.491 209.4 295.213 126.555 193.768C43.7106 92.3225 -71.5985 87.7839 -133.98 30.6717" stroke="url(#paint4_linear_2959_373)" stroke-width="0.2447" stroke-miterlimit="10"></path> <path opacity="0.7" d="M1232.78 170.462C1232.78 170.462 1205.16 127.494 1159.77 81.7492C1114.38 36.0045 1062.77 70.6392 1002.25 49.2098C941.733 27.7805 1031.11 -94.7058 992.495 -131.707C953.883 -168.708 816.026 -101.72 739.127 -160.075C662.228 -218.429 704.552 -284.092 704.552 -284.092M1233.27 170.312C1233.27 170.312 1204.48 127.358 1159.42 82.226C1114.36 37.0942 1064.07 69.9931 1004.5 48.7398C944.924 27.4865 1031.82 -92.1842 993.194 -128.743C954.572 -165.302 819.032 -100.577 742.271 -159.483C665.509 -218.388 705.038 -282.811 703.991 -283.764M1233.79 170.195C1233.79 170.195 1203.82 127.255 1159.1 82.7098C1114.37 38.165 1065.38 69.3292 1006.75 48.2778C948.117 27.2265 1032.55 -89.6815 993.869 -125.744C955.185 -161.806 822.041 -99.3742 745.391 -158.83C668.74 -218.286 705.525 -281.523 703.456 -283.429M1234.28 170.071C1234.28 170.071 1203.14 127.118 1158.75 83.1865C1114.36 39.2547 1066.66 68.6581 1009 47.8338C951.337 27.0096 1033.29 -87.1607 994.57 -122.754C955.85 -158.347 825.048 -98.2053 748.535 -158.212C672.022 -218.218 706.037 -280.243 702.92 -283.102M1234.77 169.929C1234.77 169.929 1202.46 126.99 1158.4 83.6715C1114.34 40.3526 1067.96 68.0202 1011.25 47.372C954.529 26.7237 1034 -84.6568 995.271 -119.755C956.541 -154.854 828.081 -97.029 751.68 -157.586C675.278 -218.142 706.549 -278.955 702.385 -282.767M1235.26 169.805C1235.26 169.805 1201.78 126.88 1158.03 84.1491C1114.27 41.4181 1069.22 67.35 1013.44 46.9038C957.669 26.4575 1034.68 -82.1343 995.918 -116.789C957.152 -151.444 831.035 -95.8843 754.772 -156.966C678.509 -218.047 707.009 -277.673 701.823 -282.439M1235.75 169.66C1235.75 169.66 1201.1 126.749 1157.68 84.6308C1114.26 42.5127 1070.49 66.6839 1015.69 46.4388C960.888 26.1936 1035.42 -79.6346 996.592 -113.819C957.764 -148.004 834.043 -94.7104 757.89 -156.368C681.738 -218.026 707.522 -276.389 701.262 -282.106M1236.24 169.539C1236.24 169.539 1200.42 126.642 1157.33 85.1108C1114.24 43.5796 1071.8 66.0412 1017.91 45.9989C964.055 25.9558 1036.11 -77.1088 997.268 -110.799C958.43 -144.489 837.025 -93.5113 761.01 -155.72C684.994 -217.928 708.008 -275.104 700.727 -281.776M1236.73 169.42C1236.73 169.42 1199.74 126.537 1156.98 85.5925C1114.23 44.6483 1073.08 65.375 1020.16 45.5338C967.248 25.6926 1036.84 -74.5831 997.968 -107.83C959.093 -141.076 840.057 -92.3643 764.18 -155.098C688.303 -217.831 708.494 -273.819 700.166 -281.443M1237.22 169.27C1237.22 169.27 1199.06 126.4 1156.63 86.0692C1114.21 45.738 1074.36 64.7039 1022.41 45.0638C970.466 25.4238 1037.55 -72.0874 998.667 -104.866C959.783 -137.644 843.089 -91.2222 767.324 -154.506C691.558 -217.789 709.006 -272.539 699.63 -281.116M1237.71 169.149C1237.71 169.149 1198.37 126.268 1156.26 86.5501C1114.15 46.8327 1075.64 64.0621 1024.61 44.6249C973.581 25.1877 1038.24 -69.5616 999.29 -101.843C960.345 -134.125 846.02 -89.9954 770.391 -153.856C694.762 -217.716 709.492 -271.255 699.095 -280.786M1238.2 169.03C1238.2 169.03 1197.69 126.162 1155.91 87.0578C1114.13 47.9533 1076.92 63.4219 1026.86 44.1858C976.801 24.9497 1038.97 -67.0359 999.991 -98.8483C961.01 -130.661 849.054 -88.8224 773.537 -153.207C698.02 -217.591 709.979 -269.969 698.533 -280.453M1238.69 168.88C1238.69 168.88 1197.01 126.026 1155.56 87.5085C1114.11 48.991 1078.19 62.7248 1029.08 43.6907C979.966 24.6566 1039.66 -64.5394 1000.66 -95.8833C961.673 -127.227 852.034 -87.6786 776.654 -152.614C701.275 -217.549 710.491 -268.69 697.998 -280.126M1239.18 168.764C1239.18 168.764 1196.33 125.924 1155.22 87.9935C1114.1 50.0629 1079.5 62.087 1031.33 43.2549C983.16 24.4228 1040.39 -62.0103 1001.37 -92.8848C962.338 -123.759 855.068 -86.4763 779.799 -151.988C704.531 -217.499 710.977 -267.4 697.437 -279.79M1239.67 168.64C1239.67 168.64 1195.65 125.814 1154.84 88.4971C1114.03 51.1804 1080.75 61.4428 1033.55 42.8118C986.353 24.1808 1041.1 -59.4887 1002.01 -89.8928C962.924 -120.297 858.023 -85.3056 782.892 -151.368C707.76 -217.43 711.464 -266.094 696.901 -279.463M1240.16 168.497C1240.16 168.497 1194.97 125.684 1154.49 88.9545C1114.02 52.2247 1082.03 60.7523 1035.78 42.3233C989.519 23.8943 1041.79 -56.9856 1002.69 -86.9211C963.588 -116.857 861.03 -84.156 786.011 -150.742C710.991 -217.329 711.977 -264.807 696.34 -279.128M1240.65 168.374C1240.65 168.374 1194.29 125.576 1154.15 89.4588C1114 53.342 1083.34 60.134 1038.02 41.8809C992.712 23.6539 1042.52 -54.4631 1003.39 -83.9293C964.253 -113.395 864.037 -82.9855 789.155 -150.123C714.273 -217.26 712.463 -263.525 695.805 -278.799M1241.14 168.254C1241.14 168.254 1193.61 125.443 1153.8 89.9395C1113.99 54.4356 1084.62 59.4668 1040.25 41.4417C995.906 23.4158 1043.21 -51.9367 1004.06 -80.9083C964.919 -109.88 867.046 -81.7606 792.275 -149.474C717.504 -217.187 712.949 -262.24 695.27 -278.442M1241.63 168.104C1241.63 168.104 1192.93 125.307 1153.45 90.3902C1113.97 55.4733 1085.89 58.7697 1042.5 40.9457C999.097 23.1217 1043.94 -49.4679 1004.74 -77.9692C965.53 -106.47 870.025 -80.6428 795.392 -148.881C720.759 -217.119 713.461 -260.961 694.709 -278.114M1242.12 167.984C1242.12 167.984 1192.25 125.201 1153.08 90.8982C1113.91 56.595 1087.18 58.1549 1044.72 40.5069C1002.29 22.8841 1044.66 -46.916 1005.44 -74.9747C966.22 -103.033 873.058 -79.4704 798.537 -148.259C724.015 -217.047 713.973 -259.702 694.173 -277.809M1242.63 167.838C1242.63 167.838 1191.59 125.069 1152.75 91.3527C1113.91 57.6365 1088.48 57.4615 1046.97 40.0416C1005.46 22.6216 1045.37 -44.4157 1006.11 -71.979C966.859 -99.5423 876.066 -78.2969 801.656 -147.635C727.245 -216.973 714.459 -258.417 693.637 -277.477M1243.12 167.714C1243.12 167.714 1190.91 124.959 1152.41 91.856C1113.87 58.7277 1089.76 56.817 1049.19 39.599C1008.65 22.3801 1046.08 -41.8935 1006.79 -68.9873C967.498 -96.0812 879.048 -77.1005 804.775 -146.99C730.502 -216.879 714.946 -257.11 693.077 -277.123M1243.61 167.598C1243.61 167.598 1190.23 124.857 1152.06 92.3403C1113.89 59.8241 1091.06 56.1786 1051.44 39.1366C1011.84 22.0938 1046.81 -39.365 1007.46 -66.0146C968.109 -92.6641 882.054 -75.9499 807.893 -146.389C733.732 -216.828 715.432 -255.847 692.515 -276.813M1244.1 167.447C1244.1 167.447 1189.55 124.719 1151.71 92.7901C1113.87 60.8608 1092.34 55.4805 1053.69 38.6656C1015.03 21.8247 1047.52 -36.8704 1008.16 -63.0254C968.8 -89.1804 885.061 -74.782 811.038 -145.772C737.014 -216.762 715.919 -254.542 691.98 -276.461M1244.59 167.331C1244.59 167.331 1188.87 124.591 1151.34 93.3019C1113.8 62.0125 1093.6 54.8446 1055.91 38.2308C1018.2 21.5919 1048.23 -34.3405 1008.84 -60.0261C969.439 -85.7116 888.069 -73.6048 814.157 -145.119C740.246 -216.633 716.431 -253.254 691.445 -276.126M1245.09 167.207C1245.09 167.207 1188.19 124.481 1150.99 93.7786C1113.79 63.0761 1094.9 54.1985 1058.13 37.7616C1021.37 21.3246 1048.92 -31.844 1009.51 -57.035C970.104 -82.226 891.051 -72.409 817.276 -144.5C743.501 -216.591 716.917 -251.973 690.883 -275.798M1245.57 167.058C1245.57 167.058 1187.51 124.346 1150.64 94.2564C1113.77 64.1668 1096.18 53.5284 1060.38 37.2926C1024.59 21.0568 1049.65 -29.3223 1010.18 -54.0689C970.715 -78.8156 894.057 -71.2651 820.393 -143.906C746.73 -216.547 717.403 -250.691 690.347 -275.496M1246.07 166.941C1246.07 166.941 1186.83 124.242 1150.29 94.7397C1113.76 65.2371 1097.46 52.8899 1062.63 36.8552C1027.78 20.8214 1050.39 -26.7949 1010.89 -51.0721C971.38 -75.3493 897.065 -70.0895 823.538 -143.282C750.012 -216.474 717.916 -249.405 689.812 -275.162M1246.56 166.817C1246.56 166.817 1186.15 124.133 1149.92 95.218C1113.69 66.3292 1098.74 52.2194 1064.83 36.3876C1030.92 20.5557 1051.05 -24.2968 1011.53 -48.0795C972.019 -71.8622 900.045 -68.9191 826.631 -142.635C753.217 -216.351 718.377 -248.096 689.225 -274.807M1247.05 166.675C1247.05 166.675 1185.46 124.004 1149.57 95.7023C1113.68 67.4005 1100.02 51.556 1067.08 35.9252C1034.14 20.2945 1051.79 -21.7684 1012.23 -45.1077C972.682 -68.4469 903.053 -67.7425 829.775 -142.035C756.498 -216.328 718.888 -246.835 688.715 -274.499M1247.54 166.551C1247.54 166.551 1184.78 123.895 1149.22 96.1797C1113.66 68.4649 1101.3 50.9115 1069.3 35.4827C1037.31 20.054 1052.5 -19.2462 1012.88 -42.0891C973.27 -64.9321 906.035 -66.5461 832.869 -141.389C759.703 -216.232 719.374 -245.554 688.154 -274.145M1248.02 166.406C1248.02 166.406 1184.1 123.737 1148.87 96.6614C1113.62 69.5603 1102.6 50.2444 1071.55 35.0177C1040.5 19.7909 1053.21 -16.7456 1013.58 -39.12C973.96 -61.4943 909.041 -65.3982 836.013 -140.766C762.986 -216.134 719.886 -244.269 687.619 -273.813M1248.52 166.285C1248.52 166.285 1183.42 123.63 1148.53 97.1408C1113.6 70.6527 1103.88 49.576 1073.8 34.5503C1043.72 19.5247 1053.94 -14.2481 1014.28 -36.1531C974.624 -58.058 912.074 -64.2275 839.157 -140.171C766.24 -216.115 720.399 -242.986 687.083 -273.509M1249.01 166.167C1249.01 166.167 1182.74 123.525 1148.15 97.624C1113.56 71.7229 1105.13 48.9373 1076 34.1137C1046.86 19.29 1054.63 -11.694 1014.93 -33.1296C975.237 -54.5651 915.056 -63.0261 842.251 -139.52C769.445 -216.014 720.86 -241.673 686.497 -273.149M1249.5 166.016C1249.5 166.016 1182.06 123.389 1147.8 98.1007C1113.55 72.8125 1106.44 48.2653 1078.25 33.6436C1050.05 19.0219 1055.34 -9.19842 1015.61 -30.1645C975.875 -51.1306 918.037 -61.8823 845.369 -138.901C772.702 -215.92 721.346 -240.393 685.935 -272.821M1249.99 165.895C1249.99 165.895 1181.38 123.281 1147.46 98.5801C1113.53 73.8789 1107.72 47.5969 1080.47 33.1772C1053.22 18.7575 1056.05 -6.70005 1016.28 -27.1967C976.512 -47.6933 921.043 -60.7367 848.487 -138.306C775.931 -215.875 721.831 -239.135 685.399 -272.517M1250.48 165.777C1250.48 165.777 1180.7 123.177 1147.11 99.0884C1113.52 75.0001 1109 46.9833 1082.72 32.7388C1056.44 18.5202 1056.76 -4.14687 1016.98 -24.175C977.204 -44.2031 924.052 -59.5102 851.633 -137.656C779.213 -215.802 722.345 -237.824 684.865 -272.158M1250.97 165.627C1250.97 165.627 1180.02 123.041 1146.76 99.5391C1113.47 76.0387 1110.3 46.2854 1084.97 32.2687C1059.63 18.2521 1057.49 -1.65211 1017.68 -21.2108C977.867 -40.7694 927.084 -58.3682 854.777 -137.038C782.47 -215.708 722.856 -236.57 684.329 -271.831M1251.48 165.508C1251.48 165.508 1179.36 122.91 1146.41 100.022C1113.46 77.1347 1111.58 45.6206 1087.19 31.8059C1062.8 17.9913 1058.2 0.849859 1018.33 -18.2125C978.455 -37.2749 930.04 -57.1911 857.87 -136.412C785.7 -215.633 723.317 -235.256 683.768 -271.497M1251.97 165.385C1251.97 165.385 1178.68 122.801 1146.06 100.527C1113.45 78.252 1112.86 45.003 1089.44 31.3635C1066.02 17.75 1058.92 3.39908 1019.03 -15.2207C979.145 -33.8405 933.073 -56.0215 861.014 -135.792C788.956 -215.563 723.829 -233.975 683.232 -271.168M1252.46 165.242C1252.46 165.242 1178 122.672 1145.72 100.984C1113.43 79.2963 1114.16 44.3117 1091.66 30.9011C1069.16 17.4904 1059.63 5.90138 1019.7 -12.249C979.783 -30.3733 936.054 -54.845 864.133 -135.167C792.212 -215.489 724.342 -232.688 682.697 -270.835M1252.95 165.118C1252.95 165.118 1177.32 122.561 1145.37 101.487C1113.39 80.4128 1115.44 43.6665 1093.91 30.457C1072.38 17.2474 1060.36 8.42208 1020.41 -9.23286C980.449 -26.8878 939.088 -53.6511 867.278 -134.523C795.469 -215.395 724.828 -231.407 682.136 -270.507M1253.44 164.975C1253.44 164.975 1176.64 122.432 1144.99 101.945C1113.35 81.4581 1116.7 43.003 1096.13 29.9685C1075.54 16.961 1061.05 10.8993 1021.05 -6.2862C981.06 -23.4717 942.042 -52.5256 870.37 -133.948C798.697 -215.371 725.314 -230.12 681.601 -270.173M1253.93 164.853C1253.93 164.853 1175.96 122.324 1144.65 102.424C1113.33 82.5503 1118 42.3336 1098.36 29.528C1078.71 16.7225 1061.76 13.4495 1021.73 -3.29251C981.697 -20.0346 945.049 -51.3541 873.488 -133.327C801.927 -215.3 725.799 -228.863 681.038 -269.869M1254.42 164.728C1254.42 164.728 1175.28 122.213 1144.3 102.926C1113.32 83.639 1119.28 41.6874 1100.6 29.083C1081.93 16.4785 1062.47 15.9701 1022.43 -0.277373C982.39 -16.5249 948.084 -50.1351 876.66 -132.659C805.237 -215.183 726.313 -227.558 680.504 -269.517M1254.91 164.586C1254.91 164.586 1174.6 122.058 1143.95 103.384C1113.3 84.7103 1120.56 41.024 1102.85 28.5946C1085.12 16.1662 1063.2 18.4466 1023.13 2.66852C983.053 -13.1096 951.089 -49.0105 879.803 -132.085C808.517 -215.16 726.85 -226.297 679.994 -269.209M1255.4 164.462C1255.4 164.462 1173.92 121.949 1143.6 103.888C1113.26 85.8015 1121.86 40.3786 1105.08 28.1521C1088.29 15.9257 1063.91 20.9948 1023.78 5.68709C983.64 -9.62066 954.072 -47.8141 882.897 -131.439C811.722 -215.063 727.311 -224.989 679.433 -268.854M1255.89 164.344C1255.89 164.344 1173.24 121.844 1143.23 104.371C1113.22 86.8976 1123.12 39.7139 1107.3 27.7145C1091.48 15.6892 1064.6 23.5229 1024.45 8.68369C984.305 -6.15551 957.054 -46.6127 886.016 -130.788C814.979 -214.964 727.798 -223.677 678.873 -268.495M1256.38 164.196C1256.38 164.196 1172.55 121.71 1142.88 104.824C1113.2 87.9374 1124.4 39.0449 1109.52 27.2215C1094.65 15.3981 1065.31 25.9946 1025.12 11.6249C984.941 -2.7449 960.059 -45.4937 889.133 -130.219C818.207 -214.945 728.283 -222.446 678.31 -268.217M1256.87 164.077C1256.87 164.077 1171.87 121.605 1142.53 105.332C1113.19 89.0586 1125.7 38.4045 1111.77 26.7831C1097.84 15.1617 1066.05 28.521 1025.83 14.6466C985.608 0.772297 963.067 -44.2932 892.279 -129.57C821.49 -214.846 728.796 -221.135 677.801 -267.859M1257.36 163.954C1257.36 163.954 1171.19 121.496 1142.18 105.809C1113.17 90.1229 1126.98 37.7339 1114.02 26.3396C1101.06 14.9453 1066.76 31.0692 1026.5 17.6383C986.246 4.20742 966.074 -43.1237 895.398 -128.924C824.722 -214.725 729.283 -219.827 677.241 -267.505M1257.85 163.809C1257.85 163.809 1170.51 121.364 1141.84 106.291C1113.13 91.2184 1128.26 37.0938 1116.24 25.8755C1104.23 14.6572 1067.47 33.5698 1027.18 20.6343C986.885 7.69887 969.056 -41.9229 898.517 -128.3C827.977 -214.678 729.795 -218.542 676.679 -267.172" stroke="url(#paint5_linear_2959_373)" stroke-width="0.2447" stroke-miterlimit="10"></path> </g> <defs> <filter id="filter0_f_2959_373" x="642.579" y="-191.433" width="629.162" height="511.338" filterUnits="userSpaceOnUse" color-interpolation-filters="sRGB"> <feFlood flood-opacity="0" result="BackgroundImageFix"></feFlood> <feBlend mode="normal" in="SourceGraphic" in2="BackgroundImageFix" result="shape"></feBlend> <feGaussianBlur stdDeviation="90" result="effect1_foregroundBlur_2959_373"></feGaussianBlur> </filter> <filter id="filter1_f_2959_373" x="-80.3992" y="-37.9077" width="618.876" height="461.217" filterUnits="userSpaceOnUse" color-interpolation-filters="sRGB"> <feFlood flood-opacity="0" result="BackgroundImageFix"></feFlood> <feBlend mode="normal" in="SourceGraphic" in2="BackgroundImageFix" result="shape"></feBlend> <feGaussianBlur stdDeviation="90" result="effect1_foregroundBlur_2959_373"></feGaussianBlur> </filter> <filter id="filter2_f_2959_373" x="-314.464" y="43.9346" width="1597.66" height="593.447" filterUnits="userSpaceOnUse" color-interpolation-filters="sRGB"> <feFlood flood-opacity="0" result="BackgroundImageFix"></feFlood> <feBlend mode="normal" in="SourceGraphic" in2="BackgroundImageFix" result="shape"></feBlend> <feGaussianBlur stdDeviation="90" result="effect1_foregroundBlur_2959_373"></feGaussianBlur> </filter> <filter id="filter3_f_2959_373" x="659.399" y="-232.478" width="753.5" height="742.232" filterUnits="userSpaceOnUse" color-interpolation-filters="sRGB"> <feFlood flood-opacity="0" result="BackgroundImageFix"></feFlood> <feBlend mode="normal" in="SourceGraphic" in2="BackgroundImageFix" result="shape"></feBlend> <feGaussianBlur stdDeviation="90" result="effect1_foregroundBlur_2959_373"></feGaussianBlur> </filter> <filter id="filter4_f_2959_373" x="18.8342" y="35.8396" width="798.613" height="624.824" filterUnits="userSpaceOnUse" color-interpolation-filters="sRGB"> <feFlood flood-opacity="0" result="BackgroundImageFix"></feFlood> <feBlend mode="normal" in="SourceGraphic" in2="BackgroundImageFix" result="shape"></feBlend> <feGaussianBlur stdDeviation="90" result="effect1_foregroundBlur_2959_373"></feGaussianBlur> </filter> <linearGradient id="paint0_linear_2959_373" x1="139.5" y1="-141.09" x2="305.651" y2="564.179" gradientUnits="userSpaceOnUse"> <stop stop-color="#252426" stop-opacity="0.7"></stop> <stop offset="1" stop-color="#807B9E" stop-opacity="0.12"></stop> </linearGradient> <linearGradient id="paint1_linear_2959_373" x1="1269.64" y1="485.679" x2="980.159" y2="-409.764" gradientUnits="userSpaceOnUse"> <stop stop-color="#8778A7" stop-opacity="0.05"></stop> <stop offset="1" stop-color="#FFEFF5" stop-opacity="0.28"></stop> </linearGradient> <linearGradient id="paint2_linear_2959_373" x1="638.5" y1="155.64" x2="629.863" y2="-52.7912" gradientUnits="userSpaceOnUse"> <stop stop-color="#141516"></stop> <stop offset="1" stop-color="#141516" stop-opacity="0"></stop> </linearGradient> <linearGradient id="paint3_linear_2959_373" x1="386.5" y1="-54.21" x2="780.067" y2="597.478" gradientUnits="userSpaceOnUse"> <stop stop-color="#292524" stop-opacity="0.62"></stop> <stop offset="1" stop-color="#2D2837"></stop> </linearGradient> <linearGradient id="paint4_linear_2959_373" x1="586.715" y1="511.225" x2="145.832" y2="-155.015" gradientUnits="userSpaceOnUse"> <stop stop-color="#AFDDF9" stop-opacity="0.71"></stop> <stop offset="0.2946" stop-color="#BD9066"></stop> <stop offset="0.5919" stop-color="#CECDFF"></stop> <stop offset="0.8514" stop-color="#AE9AFF"></stop> <stop offset="1" stop-color="#11E9EF"></stop> </linearGradient> <linearGradient id="paint5_linear_2959_373" x1="1290.33" y1="142.005" x2="914.93" y2="-425.278" gradientUnits="userSpaceOnUse"> <stop stop-color="#AFDDF9" stop-opacity="0.71"></stop> <stop offset="0.2946" stop-color="#6766BD"></stop> <stop offset="0.5919" stop-color="#CECDFF"></stop> <stop offset="0.8514" stop-color="#AE9AFF"></stop> <stop offset="1" stop-color="#11E9EF"></stop> </linearGradient> </defs> </svg> 