<?xml version="1.0" encoding="UTF-8"?> <svg xmlns="http://www.w3.org/2000/svg" width="1534" height="723" viewBox="0 0 1534 723" fill="none"> <mask id="mask0_2954_80" style="mask-type:alpha" maskUnits="userSpaceOnUse" x="299" y="0" width="922" height="723"> <path d="M1048.46 -1.15934e-05L299.838 321.451L471.971 722.329L1220.59 400.878L1048.46 -1.15934e-05Z" fill="url(#paint0_linear_2954_80)"></path> </mask> <g mask="url(#mask0_2954_80)"> <path d="M1157.53 383.777C1157.48 383.998 1157.28 384.157 1157.06 384.155C1110.64 383.804 1081.9 375.745 1058.82 369.255C1043.73 365.025 1030.68 361.356 1016.97 361.262C972.915 360.961 962.102 378.763 952.56 394.469C943.088 410.05 934.15 424.748 895.422 418.741C857.433 412.847 839.316 394.905 823.366 379.08C806.305 362.161 791.542 347.546 757.576 349.644C748.37 350.214 741.397 352.535 736.226 356.755C726.247 364.891 724.64 379.077 723.078 392.795C721.404 407.458 719.678 422.63 707.625 430.478C698.524 436.405 684.497 437.587 664.771 434.113C616.532 425.61 593.056 385.706 572.368 350.512C552.034 315.914 532.817 283.229 494.013 284.918C464.946 286.184 454.597 314.031 445.432 338.603C437.912 358.786 430.83 377.865 414.288 378.014C381.208 378.337 355.456 377.477 351.34 377.328C351.041 377.317 350.853 377.027 350.941 376.741C351.002 376.542 351.187 376.408 351.396 376.416C354.697 376.537 380.791 377.432 414.511 377.096C430.091 376.948 436.726 359.127 444.396 338.487C453.681 313.564 464.2 285.308 494.18 283.987C533.566 282.272 552.919 315.16 573.369 349.97C594.984 386.748 617.335 424.779 665.118 433.197C684.52 436.605 698.207 435.495 706.981 429.783C718.574 422.244 720.257 407.315 721.901 392.87C723.479 378.959 725.122 364.57 735.471 356.145C740.879 351.729 748.15 349.299 757.647 348.716C792.117 346.589 806.984 361.328 824.209 378.4C840.097 394.14 858.077 411.991 895.769 417.826C933.599 423.695 941.913 410.013 951.546 394.175C961.277 378.164 972.293 360.031 1017.13 360.33C1031.02 360.425 1044.11 364.091 1059.3 368.358C1082.32 374.817 1110.93 382.842 1157.06 383.213C1157.36 383.215 1157.59 383.486 1157.53 383.777Z" stroke="url(#paint1_radial_2954_80)" stroke-width="0.5" stroke-linecap="round" stroke-linejoin="round"></path> <path d="M351.38 376.845C351.434 376.663 351.592 376.54 351.782 376.546C354.965 376.65 382.089 377.518 413.866 377.204C428.465 377.067 437.158 360.362 444.352 341.029C453.049 317.667 466.631 291.199 494.729 289.976C531.671 288.375 555.608 319.239 574.804 351.877C595.063 386.358 622.976 422.057 667.769 429.946C685.948 433.15 700.727 432.113 708.945 426.771C716.488 421.869 720.934 413.604 722.621 404.487C723.369 400.483 724.541 396.316 725.013 392.188C726.5 379.157 730.065 365.681 739.752 357.783C744.832 353.639 752.67 351.377 761.585 350.82C793.889 348.818 811.676 362.659 827.825 378.66C842.698 393.415 863.883 410.17 899.227 415.649C934.68 421.156 945.49 408.346 954.512 393.499C963.64 378.495 977.469 361.51 1019.51 361.794C1032.53 361.87 1046.87 365.338 1061.09 369.325C1082.47 375.323 1113.63 382.785 1156.18 383.264C1156.57 383.274 1156.95 383.31 1157.35 383.334C1157.64 383.352 1157.85 383.631 1157.78 383.916C1157.73 384.118 1157.54 384.258 1157.34 384.257C1113.79 383.927 1082.16 376.331 1060.48 370.26C1046.31 366.286 1032.06 362.855 1019.21 362.763C977.937 362.486 964.34 379.148 955.388 393.871C946.506 408.47 935.072 422.24 898.768 416.594C863.156 411.062 841.833 394.216 826.877 379.385C810.866 363.53 793.244 349.787 761.376 351.769C752.751 352.314 745.219 354.482 740.376 358.431C731.017 366.058 727.515 379.337 726.037 392.216C725.578 396.319 724.393 400.455 723.666 404.449C721.949 413.841 717.369 422.369 709.443 427.529C700.919 433.077 685.801 434.186 667.297 430.916C622.124 422.946 593.161 385.492 573.761 352.493C554.695 320.043 530.894 289.382 494.533 290.957C467.28 292.135 453.93 318.224 445.367 341.266C438.252 360.153 429.044 378.015 413.56 378.158C384.765 378.447 359.078 377.757 352.868 377.545C352.424 377.53 352.068 377.505 351.801 377.48C351.51 377.453 351.296 377.124 351.38 376.845Z" stroke="url(#paint2_radial_2954_80)" stroke-width="0.5" stroke-linecap="round" stroke-linejoin="round"></path> <path d="M351.809 377.041C351.87 376.811 352.08 376.652 352.318 376.659C355.974 376.776 383.812 377.577 413.215 377.297C426.852 377.161 437.589 361.597 444.302 343.555C452.432 321.746 469.048 297.058 495.263 295.933C529.735 294.44 558.284 323.287 576.199 353.746C595.122 385.921 628.556 419.306 670.358 426.666C687.335 429.657 703.165 428.711 710.861 423.705C717.903 419.13 723.506 411.434 725.077 402.909C725.767 399.173 727.628 395.29 728.064 391.42C729.453 379.253 734.94 366.691 743.993 359.327C748.725 355.463 757.142 353.344 765.462 352.837C795.627 350.969 816.314 363.92 831.386 378.851C845.272 392.628 869.663 408.287 902.63 413.403C935.728 418.538 948.992 406.617 957.425 392.753C965.941 378.741 982.596 362.935 1021.84 363.188C1033.99 363.262 1049.55 366.523 1062.84 370.237C1082.78 375.824 1116.81 382.84 1156.53 383.281C1156.89 383.286 1157.23 383.348 1157.58 383.392C1157.86 383.428 1158.06 383.699 1158 383.975C1157.95 384.174 1157.77 384.313 1157.56 384.312C1116.91 384 1082.37 376.876 1062.15 371.208C1048.93 367.499 1033.46 364.273 1021.46 364.193C982.926 363.933 966.551 379.47 958.209 393.201C949.924 406.834 935.987 419.66 902.095 414.399C868.838 409.239 844.33 393.481 830.362 379.627C815.42 364.827 794.899 351.974 765.169 353.823C757.119 354.326 749.028 356.342 744.491 360.029C735.753 367.146 730.364 379.535 728.976 391.533C728.548 395.362 726.701 399.221 726.004 402.941C724.389 411.709 718.625 419.661 711.214 424.47C703.247 429.648 687.029 430.667 669.754 427.617C627.579 420.193 593.123 385.172 575.01 354.368C557.245 324.144 528.868 295.467 494.908 296.945C469.475 298.053 453.146 322.374 445.15 343.864C438.572 361.53 427.265 378.18 412.812 378.311C385.933 378.581 358.98 377.93 353.191 377.724C352.762 377.71 352.423 377.673 352.175 377.635C351.899 377.592 351.737 377.311 351.809 377.041Z" stroke="url(#paint3_radial_2954_80)" stroke-width="0.5" stroke-linecap="round" stroke-linejoin="round"></path> <path d="M352.256 377.154C352.318 376.931 352.528 376.777 352.759 376.784C356.454 376.894 385.235 377.668 412.592 377.396C425.246 377.272 438.049 362.839 444.272 346.073C451.814 325.824 471.472 302.934 495.84 301.873C527.841 300.488 561.022 327.308 577.642 355.612C595.209 385.491 634.198 416.528 673.016 423.375C688.771 426.162 705.693 425.289 712.826 420.637C719.36 416.374 726.12 409.246 727.588 401.345C728.221 397.876 730.744 394.27 731.156 390.691C732.447 379.388 739.857 367.739 748.268 360.893C752.672 357.301 761.655 355.35 769.373 354.878C797.372 353.136 820.986 365.204 834.96 379.073C847.852 391.856 875.435 406.444 906.053 411.204C936.774 415.976 952.529 404.912 960.357 392.055C968.27 379.049 987.737 364.391 1024.19 364.629C1035.47 364.7 1052.27 367.731 1064.58 371.19C1083.1 376.381 1120.01 382.926 1156.88 383.338C1157.19 383.345 1157.5 383.433 1157.81 383.497C1158.08 383.554 1158.29 383.828 1158.22 384.1C1158.17 384.291 1158 384.424 1157.8 384.423C1120.02 384.13 1082.58 377.479 1063.81 372.213C1051.55 368.767 1034.84 365.757 1023.7 365.679C987.914 365.436 968.775 379.823 961.009 392.597C953.314 405.248 936.881 417.145 905.414 412.245C874.54 407.463 846.82 392.785 833.846 379.925C819.974 366.18 796.58 354.224 768.962 355.933C761.487 356.395 752.836 358.259 748.634 361.689C740.516 368.297 733.232 379.78 731.95 390.929C731.551 394.484 729.036 398.05 728.403 401.518C726.912 409.654 719.935 417.024 713.074 421.503C705.691 426.318 688.346 427.242 672.329 424.418C633.165 417.514 593.201 384.952 576.383 356.358C559.844 328.243 526.897 301.566 495.381 302.93C471.761 303.95 452.458 326.519 445.037 346.473C438.927 362.873 425.527 378.328 412.105 378.447C387.129 378.722 358.895 378.078 353.515 377.902C353.127 377.889 352.825 377.842 352.602 377.792C352.331 377.731 352.181 377.421 352.256 377.154Z" stroke="url(#paint4_radial_2954_80)" stroke-width="0.5" stroke-linecap="round" stroke-linejoin="round"></path> <path d="M352.745 377.135C352.784 376.995 352.892 376.898 353.037 376.902C355.943 376.98 386.252 377.749 411.947 377.505C423.619 377.391 438.466 364.099 444.229 348.615C451.203 329.918 473.903 308.825 496.381 307.846C525.933 306.56 563.711 331.387 579.064 357.488C595.275 385.071 639.806 413.784 675.653 420.093C690.2 422.651 708.194 421.86 714.776 417.594C720.809 413.658 728.727 407.099 730.079 399.789C730.675 396.58 733.866 393.266 734.248 389.961C735.441 379.523 744.801 368.794 752.55 362.475C756.606 359.164 766.175 357.372 773.312 356.925C799.151 355.326 825.678 366.478 838.584 379.293C850.488 391.098 881.256 404.599 909.518 408.987C937.884 413.387 956.093 403.213 963.325 391.323C970.627 379.308 992.913 365.814 1026.54 366.03C1036.94 366.108 1054.99 368.915 1066.36 372.11C1083.45 376.905 1123.24 382.978 1157.26 383.362C1157.54 383.364 1157.79 383.465 1158.05 383.546C1158.32 383.631 1158.52 383.913 1158.45 384.185C1158.4 384.377 1158.23 384.51 1158.03 384.509C1123.14 384.234 1082.81 378.072 1065.48 373.217C1054.15 370.045 1036.23 367.231 1025.94 367.165C992.903 366.939 970.985 380.201 963.831 391.984C956.732 403.668 937.79 414.605 908.74 410.106C880.243 405.688 849.316 392.106 837.337 380.24C824.534 367.549 798.241 356.483 772.762 358.058C765.861 358.479 756.659 360.206 752.784 363.366C745.307 369.455 736.108 380.041 734.93 390.341C734.561 393.621 731.363 396.92 730.782 400.104C729.393 407.617 721.231 414.411 714.885 418.538C708.059 422.983 689.636 423.809 674.827 421.214C638.682 414.846 593.203 384.727 577.694 358.319C562.429 332.367 524.892 307.698 495.797 308.957C473.997 309.906 451.708 330.692 444.84 349.119C439.198 364.252 423.699 378.496 411.315 378.618C388.297 378.856 358.797 378.251 353.838 378.081C353.577 378.073 353.359 378.039 353.18 377.997C352.924 377.936 352.674 377.389 352.745 377.135Z" stroke="url(#paint5_radial_2954_80)" stroke-width="0.5" stroke-linecap="round" stroke-linejoin="round"></path> <path d="M353.15 377.398C353.214 377.179 353.419 377.026 353.647 377.032C357.434 377.131 388.123 377.822 411.324 377.604C422.034 377.492 438.919 365.325 444.206 351.148C450.593 334.012 476.355 314.707 496.965 313.802C524.045 312.623 566.435 335.432 580.514 359.37C595.369 384.656 645.455 411.022 678.298 416.827C691.642 419.172 710.687 418.472 716.727 414.551C722.259 410.942 731.326 404.936 732.576 398.249C733.114 395.308 736.995 392.277 737.326 389.256C738.422 379.683 749.703 369.866 756.818 364.082C760.546 361.042 770.702 359.41 777.216 359.006C800.916 357.54 830.322 367.812 842.172 379.547C853.088 390.374 887.035 402.771 912.948 406.804C938.958 410.833 959.643 401.539 966.264 390.64C972.962 379.633 998.06 367.286 1028.89 367.487C1038.42 367.562 1057.7 370.148 1068.13 373.07C1083.81 377.46 1126.44 383.08 1157.64 383.442C1157.88 383.445 1158.1 383.564 1158.32 383.666C1158.57 383.778 1158.77 384.06 1158.7 384.323C1158.66 384.512 1158.49 384.644 1158.3 384.643C1126.26 384.394 1083.06 378.697 1067.18 374.245C1056.8 371.336 1037.65 368.753 1028.22 368.69C997.939 368.497 973.258 380.609 966.693 391.409C960.184 402.111 938.746 412.12 912.121 407.982C886.001 403.926 851.847 391.449 840.883 380.568C829.15 368.932 799.957 358.755 776.596 360.207C770.277 360.602 760.508 362.161 756.94 365.058C750.083 370.638 738.997 380.333 737.916 389.769C737.578 392.774 733.719 395.796 733.195 398.713C731.929 405.593 722.562 411.821 716.759 415.603C710.51 419.669 690.974 420.431 677.408 418.031C644.282 412.198 593.288 384.522 579.073 360.325C565.063 336.489 522.941 313.844 496.269 314.998C476.282 315.86 451.021 334.894 444.726 351.784C439.559 365.667 421.954 378.685 410.601 378.793C389.471 379.006 358.699 378.424 354.141 378.269C353.842 378.26 353.609 378.201 353.435 378.131C353.183 378.029 353.073 377.659 353.15 377.398Z" stroke="url(#paint6_radial_2954_80)" stroke-width="0.5" stroke-linecap="round" stroke-linejoin="round"></path> <path d="M353.629 377.39C353.663 377.252 353.764 377.157 353.906 377.16C356.871 377.221 389.206 377.91 410.652 377.706C420.386 377.62 439.33 366.57 444.135 353.683C449.933 338.109 478.737 320.6 497.479 319.768C522.109 318.688 569.09 339.489 581.887 361.248C595.407 384.229 651.013 408.28 680.887 413.547C693.008 415.688 713.145 415.061 718.622 411.494C723.653 408.212 733.898 402.766 735.011 396.68C735.492 394.007 740.034 391.253 740.356 388.497C741.34 379.813 754.564 370.901 761.01 365.628C764.39 362.868 775.133 361.396 781.065 361.017C802.599 359.677 834.926 369.05 845.698 379.715C855.621 389.548 892.759 400.874 916.317 404.535C939.95 408.201 963.104 399.773 969.121 389.881C975.194 379.889 1003.15 368.672 1031.16 368.867C1039.82 368.924 1060.34 371.311 1069.82 373.969C1084.07 377.963 1129.59 383.111 1157.96 383.436C1158.17 383.435 1158.35 383.558 1158.53 383.671C1158.76 383.814 1158.96 384.111 1158.9 384.374C1158.85 384.561 1158.69 384.692 1158.49 384.69C1129.32 384.46 1083.24 379.236 1068.82 375.186C1059.39 372.542 1039 370.174 1030.44 370.112C1002.92 369.928 975.434 380.908 969.48 390.717C963.568 400.452 939.627 409.517 915.413 405.764C891.669 402.071 854.31 390.691 844.34 380.803C833.677 370.222 801.612 360.942 780.362 362.253C774.617 362.608 764.29 364.014 761.056 366.655C754.826 371.741 741.839 380.515 740.862 389.102C740.554 391.833 736.033 394.578 735.546 397.236C734.404 403.484 723.824 409.129 718.543 412.575C712.851 416.271 692.236 416.935 679.9 414.755C649.785 409.443 593.283 384.225 580.357 362.223C567.676 340.62 520.977 319.959 496.727 321.007C478.56 321.798 450.312 339.049 444.599 354.419C439.9 367.035 420.202 378.858 409.88 378.953C390.688 379.138 358.642 378.58 354.485 378.439C354.287 378.434 354.121 378.395 353.986 378.342C353.749 378.249 353.568 377.637 353.629 377.39Z" stroke="url(#paint7_radial_2954_80)" stroke-width="0.5" stroke-linecap="round" stroke-linejoin="round"></path> <path d="M354.033 377.644C354.093 377.432 354.28 377.284 354.5 377.289C358.305 377.369 390.989 377.998 410.028 377.805C418.801 377.721 439.789 367.812 444.106 356.201C449.337 342.178 481.182 326.467 498.041 325.733C520.208 324.776 571.814 343.534 583.31 363.123C595.473 383.808 656.621 405.536 683.503 410.274C694.416 412.186 715.632 411.656 720.565 408.435C725.095 405.481 736.491 400.587 737.502 395.125C737.952 392.726 743.156 390.248 743.448 387.768C744.334 379.948 759.48 371.949 765.292 367.21C768.344 364.722 779.646 363.402 784.983 363.073C804.378 361.867 839.604 370.35 849.301 379.944C858.236 388.8 898.559 399.038 919.761 402.327C941.039 405.621 966.668 398.074 972.074 389.173C977.537 380.173 1008.31 370.135 1033.53 370.299C1041.33 370.354 1063.08 372.51 1071.61 374.904C1084.43 378.502 1132.8 383.189 1158.34 383.475C1158.52 383.476 1158.68 383.612 1158.83 383.741C1159.03 383.911 1159.21 384.218 1159.15 384.472C1159.11 384.656 1158.95 384.785 1158.76 384.784C1132.45 384.571 1083.49 379.82 1070.5 376.182C1062 373.795 1040.42 371.639 1032.7 371.59C1007.93 371.422 977.686 381.268 972.322 390.095C967 398.848 940.563 406.984 918.781 403.608C897.42 400.293 856.848 389.993 847.872 381.099C838.258 371.582 803.314 363.183 784.203 364.361C779.033 364.675 768.153 365.944 765.247 368.313C759.638 372.891 744.763 380.773 743.884 388.496C743.606 390.952 738.417 393.405 737.966 395.804C736.933 401.444 725.183 406.49 720.417 409.583C715.309 412.916 693.568 413.485 682.468 411.541C655.371 406.764 593.382 383.995 581.723 364.197C570.281 344.735 519.013 326.074 497.185 327.016C480.832 327.72 449.611 343.219 444.465 357.037C440.234 368.387 418.437 378.999 409.125 379.091C391.835 379.281 358.516 378.746 354.788 378.627C354.553 378.616 354.373 378.542 354.239 378.454C354.018 378.307 353.96 377.899 354.033 377.644Z" stroke="url(#paint8_radial_2954_80)" stroke-width="0.5" stroke-linecap="round" stroke-linejoin="round"></path> <path d="M354.426 378.012C354.519 377.656 354.822 377.41 355.189 377.417C360.034 377.503 392.771 378.071 409.405 377.905C417.195 377.831 440.248 369.054 444.083 358.734C448.726 346.273 483.627 332.333 498.624 331.688C518.32 330.839 574.538 347.58 584.78 364.996C595.588 383.385 662.291 402.764 686.189 406.989C695.88 408.698 718.166 408.25 722.564 405.39C726.593 402.763 739.146 398.438 740.041 393.567C740.433 391.436 746.326 389.242 746.567 387.045C747.356 380.089 764.424 373.004 769.601 368.799C772.305 366.591 784.194 365.431 788.956 365.143C806.191 364.079 844.338 371.663 852.958 380.187C860.899 388.049 904.414 397.216 923.26 400.133C942.161 403.064 970.266 396.398 975.083 388.48C979.942 380.486 1013.53 371.596 1035.93 371.754C1042.86 371.806 1065.83 373.757 1073.43 375.878C1084.82 379.079 1136.08 383.295 1158.77 383.553C1158.93 383.55 1159.05 383.693 1159.18 383.837C1159.34 384.035 1159.5 384.361 1159.44 384.612C1159.39 384.797 1159.24 384.926 1159.05 384.924C1135.58 384.729 1083.76 380.451 1072.23 377.216C1064.68 375.093 1041.87 373.168 1035.01 373.121C1012.99 372.97 979.965 381.691 975.191 389.536C970.466 397.322 941.526 404.515 922.148 401.508C903.143 398.565 859.386 389.352 851.397 381.436C842.853 372.974 805.031 365.456 788.037 366.509C783.448 366.798 772.003 367.899 769.411 370.021C764.421 374.089 747.652 381.065 746.85 387.933C746.602 390.115 740.751 392.291 740.358 394.422C739.449 399.429 726.493 403.908 722.248 406.666C717.698 409.629 694.864 410.125 685.007 408.375C660.902 404.127 593.426 383.809 583.075 366.196C572.887 348.85 517.028 332.197 497.63 333.05C483.096 333.683 448.896 347.415 444.303 359.705C440.546 369.805 416.644 379.19 408.369 379.284C393.024 379.406 358.417 378.919 355.112 378.806C354.767 378.796 354.569 378.59 354.466 378.427C354.388 378.304 354.389 378.153 354.426 378.012Z" stroke="url(#paint9_radial_2954_80)" stroke-width="0.5" stroke-linecap="round" stroke-linejoin="round"></path> <path d="M354.973 377.75C355.008 377.621 355.104 377.532 355.238 377.534C358.255 377.584 393.705 378.152 408.761 378.013C415.568 377.95 440.687 370.305 444.04 361.276C448.094 350.376 486.058 338.224 499.166 337.662C516.412 336.911 577.227 351.659 586.182 366.881C595.633 382.973 667.877 400.029 688.778 403.709C697.267 405.205 720.618 404.823 724.459 402.333C727.987 400.033 741.698 396.277 742.483 392.014C742.839 390.142 749.379 388.249 749.611 386.318C750.302 380.226 769.298 374.07 773.828 370.368C776.204 368.431 788.659 367.439 792.819 367.185C807.887 366.248 848.955 372.933 856.484 380.411C863.437 387.295 910.131 395.359 926.628 397.92C943.174 400.48 973.748 394.679 977.953 387.752C982.201 380.75 1018.61 373.023 1038.21 373.166C1044.28 373.216 1068.49 374.935 1075.13 376.792C1085.12 379.589 1139.22 383.352 1159.08 383.572C1159.2 383.57 1159.3 383.709 1159.39 383.857C1159.53 384.076 1159.68 384.448 1159.62 384.699C1159.57 384.875 1159.43 384.998 1159.24 384.997C1138.62 384.821 1083.94 381.031 1073.86 378.198C1067.26 376.339 1043.23 374.62 1037.22 374.584C1017.94 374.451 982.162 382.038 977.978 388.9C973.842 395.704 942.4 401.953 925.46 399.338C908.832 396.758 861.848 388.65 854.874 381.719C847.4 374.311 806.678 367.683 791.803 368.612C787.788 368.859 775.791 369.824 773.519 371.659C769.15 375.218 750.493 381.303 749.789 387.307C749.571 389.214 743.037 391.122 742.696 392.97C741.889 397.354 727.741 401.241 724.039 403.653C720.066 406.238 696.133 406.645 687.485 405.124C666.398 401.412 593.407 383.536 584.351 368.134C575.479 352.989 515.05 338.337 498.067 339.068C485.347 339.614 448.167 351.578 444.148 362.332C440.859 371.166 414.864 379.355 407.613 379.422C394.198 379.556 358.333 379.067 355.435 378.984C355.298 378.982 355.191 378.93 355.107 378.858C354.921 378.698 354.908 377.987 354.973 377.75Z" stroke="url(#paint10_radial_2954_80)" stroke-width="0.5" stroke-linecap="round" stroke-linejoin="round"></path> <path d="M355.4 377.905C355.435 377.767 355.542 377.667 355.684 377.669C358.866 377.724 395.223 378.237 408.116 378.122C413.963 378.06 441.119 371.54 443.996 363.818C447.483 354.47 488.468 344.124 499.707 343.635C514.483 342.992 579.91 355.723 587.59 368.781C595.706 382.568 673.491 397.301 691.401 400.452C698.667 401.743 723.091 401.444 726.389 399.299C729.416 397.326 744.277 394.123 744.953 390.468C745.251 388.863 752.474 387.238 752.654 385.59C753.254 380.379 774.166 375.12 778.041 371.961C780.069 370.305 793.11 369.472 796.688 369.244C809.618 368.44 853.585 374.235 860.031 380.626C865.997 386.532 915.875 393.509 930.017 395.699C944.193 397.911 977.257 392.967 980.852 387.031C984.496 381.036 1023.72 374.457 1040.52 374.569C1045.72 374.6 1071.17 376.121 1076.84 377.723C1085.4 380.124 1142.38 383.415 1159.39 383.607C1159.5 383.606 1159.57 383.773 1159.64 383.945C1159.74 384.173 1159.86 384.537 1159.8 384.779C1159.76 384.96 1159.61 385.087 1159.43 385.085C1141.58 384.935 1084.12 381.611 1075.49 379.18C1069.83 377.594 1044.57 376.081 1039.43 376.048C1022.92 375.938 984.331 382.377 980.765 388.264C977.205 394.111 943.28 399.406 928.745 397.161C914.493 394.944 864.303 387.932 858.324 381.995C851.919 375.642 808.304 369.92 795.561 370.7C792.121 370.906 779.565 371.718 777.628 373.297C773.878 376.346 753.306 381.535 752.728 386.681C752.54 388.313 745.338 389.928 745.04 391.533C744.356 395.285 729.003 398.606 725.823 400.682C722.407 402.897 697.374 403.215 689.977 401.905C671.901 398.713 593.402 383.295 585.634 370.088C578.016 357.115 512.996 344.471 498.435 345.097C487.535 345.572 447.354 355.778 443.93 364.987C441.109 372.553 413.015 379.532 406.802 379.602C395.373 379.706 358.235 379.24 355.759 379.163C355.626 379.161 355.53 379.091 355.459 378.995C355.32 378.805 355.343 378.133 355.4 377.905Z" stroke="url(#paint11_radial_2954_80)" stroke-width="0.5" stroke-linecap="round" stroke-linejoin="round"></path> <path d="M355.742 378.443C355.839 378.064 356.168 377.794 356.559 377.799C361.791 377.871 397.094 378.325 407.472 378.23C412.336 378.179 441.557 372.791 443.946 366.345C446.845 358.557 490.892 350 500.263 349.584C512.568 349.048 582.627 359.752 589.026 370.632C595.786 382.122 679.106 394.516 694.032 397.154C700.09 398.217 725.591 398.015 728.333 396.24C730.838 394.603 746.876 391.96 747.443 388.912C747.683 387.575 755.596 386.234 755.746 384.861C756.249 380.514 779.082 376.168 782.323 373.543C784.023 372.159 797.644 371.469 800.606 371.3C811.376 370.638 858.257 375.518 863.633 380.855C868.584 385.777 921.675 391.673 933.461 393.491C945.281 395.332 980.8 391.277 983.805 386.323C986.838 381.32 1028.88 375.904 1042.89 376.002C1047.22 376.03 1073.88 377.329 1078.62 378.658C1085.75 380.663 1145.61 383.483 1159.79 383.637C1159.89 383.641 1159.93 383.806 1159.98 383.983C1160.03 384.222 1160.11 384.649 1160.05 384.887C1160.01 385.05 1159.88 385.164 1159.72 385.163C1144.68 385.033 1084.37 382.18 1077.17 380.16C1072.46 378.838 1045.99 377.546 1041.69 377.525C1027.93 377.432 986.584 382.737 983.606 387.642C980.637 392.506 944.216 396.873 932.112 395.005C920.244 393.166 866.842 387.235 861.856 382.291C856.528 377.009 810.028 372.152 799.403 372.807C796.523 372.997 783.422 373.632 781.798 374.964C778.669 377.504 756.21 381.802 755.729 386.084C755.578 387.457 747.707 388.78 747.46 390.101C746.879 393.23 730.341 395.975 727.697 397.69C724.865 399.542 698.706 399.764 692.545 398.69C677.487 396.034 593.474 383.059 587.021 372.053C580.67 361.228 511.06 350.593 498.949 351.12C489.862 351.508 446.701 359.946 443.858 367.635C441.512 373.951 411.291 379.712 406.13 379.76C396.562 379.831 358.136 379.413 356.075 379.326C355.805 379.313 355.738 378.862 355.721 378.652C355.716 378.582 355.725 378.511 355.742 378.443Z" stroke="url(#paint12_radial_2954_80)" stroke-width="0.5" stroke-linecap="round" stroke-linejoin="round"></path> <path d="M356.217 378.434C356.299 378.132 356.573 377.918 356.886 377.922C361.73 377.983 398.444 378.41 406.848 378.33C410.751 378.28 442.016 374.033 443.923 368.878C446.255 362.643 493.344 355.882 500.825 355.548C510.68 355.111 585.331 363.807 590.448 372.507C595.852 381.701 684.713 391.772 696.669 393.872C701.525 394.722 728.098 394.602 730.297 393.172C732.301 391.863 749.511 389.763 749.948 387.332C750.151 386.254 758.711 385.214 758.832 384.116C759.236 380.633 783.999 377.216 786.591 375.093C787.943 373.99 802.15 373.459 804.531 373.316C813.135 372.78 862.943 376.778 867.243 381.044C871.206 384.987 927.503 389.787 936.913 391.243C946.377 392.712 984.364 389.522 986.766 385.575C989.195 381.579 1034.05 377.327 1045.26 377.393C1048.73 377.419 1076.63 378.504 1080.42 379.569C1086.11 381.162 1148.84 383.535 1160.2 383.652C1160.27 383.657 1160.29 383.851 1160.32 384.052C1160.35 384.296 1160.4 384.724 1160.34 384.963C1160.29 385.131 1160.17 385.248 1160 385.247C1147.66 385.134 1084.66 382.747 1078.9 381.138C1075.12 380.089 1047.43 379.003 1043.99 378.984C1032.98 378.909 988.856 383.089 986.469 387.011C984.096 390.909 945.152 394.341 935.473 392.833C925.981 391.357 869.373 386.522 865.382 382.572C861.124 378.344 811.723 374.377 803.237 374.899C800.932 375.048 787.279 375.546 785.976 376.591C783.488 378.613 759.113 382.013 758.737 385.446C758.616 386.545 750.084 387.591 749.874 388.654C749.416 391.15 731.665 393.313 729.55 394.707C727.275 396.189 700.044 396.33 695.106 395.459C683.066 393.339 593.538 382.807 588.373 373.996C583.276 365.343 509.116 356.698 499.407 357.129C492.14 357.446 446 364.117 443.724 370.253C441.846 375.303 409.533 379.869 405.402 379.904C397.737 379.98 358.052 379.562 356.399 379.505C356.216 379.497 356.172 379.134 356.162 378.885C356.156 378.736 356.179 378.578 356.217 378.434Z" stroke="url(#paint13_radial_2954_80)" stroke-width="0.5" stroke-linecap="round" stroke-linejoin="round"></path> <path d="M356.754 378.234C356.785 378.119 356.869 378.041 356.988 378.042C360.009 378.072 399.719 378.488 406.197 378.422C409.124 378.399 442.427 375.278 443.873 371.404C445.617 366.73 495.768 361.757 501.388 361.513C508.779 361.199 588.034 367.861 591.877 374.398C595.925 381.296 690.348 389.035 699.293 390.615C702.926 391.26 730.57 391.222 732.227 390.137C733.73 389.156 752.097 387.624 752.424 385.801C752.577 385.007 761.812 384.219 761.903 383.395C762.189 380.786 788.915 378.264 790.852 376.684C791.877 375.852 806.65 375.49 808.428 375.381C814.893 374.979 867.595 378.07 870.824 381.282C873.793 384.231 933.276 387.944 940.336 389.044C947.424 390.15 987.887 387.842 989.698 384.877C991.517 381.872 1039.2 378.783 1047.59 378.844C1050.19 378.867 1079.33 379.721 1082.16 380.522C1086.43 381.719 1152.03 383.605 1160.54 383.709C1160.6 383.711 1160.6 383.951 1160.6 384.186C1160.6 384.423 1160.61 384.846 1160.55 385.076C1160.51 385.242 1160.4 385.359 1160.23 385.358C1150.52 385.262 1084.87 383.349 1080.56 382.143C1077.73 381.342 1048.81 380.487 1046.24 380.47C1037.97 380.412 991.088 383.458 989.29 386.398C987.507 389.313 946.067 391.817 938.82 390.685C931.704 389.572 871.89 385.834 868.887 382.861C865.678 379.697 813.426 376.618 807.03 377.009C805.3 377.117 791.087 377.462 790.119 378.252C788.258 379.78 761.982 382.258 761.703 384.827C761.613 385.651 752.391 386.414 752.266 387.215C751.917 389.103 732.976 390.676 731.396 391.709C729.698 392.812 701.348 392.872 697.66 392.213C688.632 390.613 593.617 382.53 589.726 375.939C585.909 369.465 507.159 362.829 499.886 363.129C494.432 363.359 445.319 368.278 443.597 372.887C442.186 376.671 407.774 380.026 404.681 380.064C398.925 380.106 357.953 379.735 356.723 379.684C356.64 379.681 356.609 379.527 356.6 379.346C356.588 379.117 356.694 378.455 356.754 378.234Z" stroke="url(#paint14_radial_2954_80)" stroke-width="0.5" stroke-linecap="round" stroke-linejoin="round"></path> <path d="M357.137 378.58C357.211 378.318 357.396 378.166 357.669 378.168C362.134 378.202 401.333 378.562 405.574 378.522C407.518 378.51 442.88 376.504 443.844 373.922C444.999 370.808 498.192 367.633 501.943 367.461C506.864 367.255 590.758 371.907 593.313 376.249C596.026 380.842 695.963 386.25 701.944 387.308C704.376 387.741 733.092 387.785 734.191 387.07C735.193 386.415 754.71 385.437 754.929 384.221C755.024 383.695 764.948 383.19 765.009 382.641C765.204 380.912 793.845 379.287 795.127 378.251C795.803 377.699 811.163 377.496 812.361 377.412C816.666 377.152 872.267 379.354 874.441 381.486C876.422 383.458 939.089 386.083 943.801 386.827C948.533 387.561 991.472 386.134 992.666 384.145C993.88 382.146 1044.37 380.206 1049.97 380.251C1051.7 380.256 1082.06 380.92 1083.97 381.448C1086.82 382.24 1155.27 383.673 1160.95 383.74C1160.99 383.742 1160.96 384.019 1160.93 384.278C1160.91 384.51 1160.87 384.932 1160.81 385.158C1160.77 385.322 1160.66 385.437 1160.49 385.435C1153.19 385.366 1085.12 383.934 1082.25 383.139C1080.36 382.602 1050.23 381.952 1048.52 381.938C1043.03 381.904 993.354 383.793 992.153 385.767C990.967 387.716 947.023 389.275 942.181 388.513C937.421 387.772 874.401 385.129 872.413 383.142C870.273 381.032 815.122 378.843 810.865 379.101C809.709 379.167 794.937 379.36 794.282 379.903C793.042 380.922 764.878 382.51 764.697 384.214C764.637 384.763 754.754 385.25 754.659 385.776C754.433 387.032 734.286 388.038 733.222 388.719C732.08 389.452 702.652 389.415 700.172 388.985C694.142 387.929 593.633 382.28 591.03 377.884C588.515 373.58 505.174 368.952 500.33 369.163C496.697 369.321 444.597 372.458 443.449 375.53C442.506 378.047 406.001 380.207 403.933 380.217C400.1 380.255 357.876 379.899 357.025 379.872C356.934 379.876 356.969 379.498 357.005 379.21C357.032 379.003 357.079 378.78 357.137 378.58Z" stroke="url(#paint15_radial_2954_80)" stroke-width="0.5" stroke-linecap="round" stroke-linejoin="round"></path> <path d="M357.508 379.012C357.618 378.563 357.928 378.3 358.39 378.304C364.123 378.344 402.841 378.662 404.929 378.63C405.912 378.62 443.318 377.755 443.8 376.464C444.388 374.903 500.616 373.508 502.485 373.435C504.955 373.327 593.44 375.97 594.721 378.149C596.078 380.445 701.577 383.521 704.568 384.05C705.769 384.263 735.578 384.38 736.121 384.035C736.622 383.708 757.296 383.298 757.405 382.691C757.463 382.423 768.036 382.22 768.066 381.945C768.163 381.081 798.733 380.385 799.367 379.851C799.716 379.57 815.641 379.536 816.237 379.486C818.396 379.344 876.904 380.671 877.973 381.726C878.961 382.704 944.82 384.258 947.176 384.63C949.531 385.002 994.939 384.44 995.55 383.448C996.154 382.441 1049.46 381.664 1052.26 381.679C1053.12 381.681 1084.72 382.115 1085.67 382.379C1087.1 382.775 1158.43 383.737 1161.26 383.774C1161.29 383.773 1161.23 384.081 1161.18 384.363C1161.14 384.593 1161.06 385.054 1161 385.28C1160.96 385.434 1160.87 385.541 1160.71 385.539C1155.45 385.489 1085.32 384.532 1083.89 384.137C1082.93 383.872 1051.59 383.445 1050.74 383.433C1048 383.416 995.543 384.18 994.953 385.163C994.357 386.129 947.911 386.744 945.507 386.375C943.13 386.012 876.898 384.45 875.903 383.456C874.834 382.402 816.783 381.102 814.665 381.227C814.09 381.268 798.759 381.308 798.425 381.564C797.805 382.073 767.747 382.755 767.65 383.619C767.619 383.894 757.074 384.104 757.017 384.372C756.893 385.004 735.562 385.434 735.04 385.77C734.483 386.14 703.927 386.008 702.705 385.804C699.686 385.268 593.669 382.078 592.375 379.867C591.1 377.704 503.19 375.076 500.767 375.181C498.947 375.253 443.875 376.637 443.301 378.174C442.833 379.44 404.222 380.373 403.191 380.386C401.275 380.405 357.757 380.081 357.356 380.066C357.286 380.062 357.469 379.19 357.499 379.05C357.502 379.037 357.505 379.025 357.508 379.012Z" stroke="url(#paint16_radial_2954_80)" stroke-width="0.5" stroke-linecap="round" stroke-linejoin="round"></path> <path d="M1161.39 384.929C1161.29 385.337 1160.92 385.623 1160.5 385.621L358.83 380.237C358.24 380.233 357.809 379.678 357.951 379.106C358.053 378.697 358.421 378.411 358.842 378.414L1160.51 383.797C1161.1 383.801 1161.53 384.356 1161.39 384.929Z" stroke="url(#paint17_radial_2954_80)" stroke-width="0.5" stroke-linecap="round" stroke-linejoin="round"></path> </g> <mask id="mask1_2954_80" style="mask-type:alpha" maskUnits="userSpaceOnUse" x="299" y="0" width="922" height="723"> <path d="M1048.46 -1.15934e-05L299.838 321.451L471.971 722.329L1220.59 400.878L1048.46 -1.15934e-05Z" fill="url(#paint18_linear_2954_80)"></path> </mask> <g mask="url(#mask1_2954_80)"> <path d="M1161.2 384.311C1161.13 384.512 1160.95 384.649 1160.74 384.648L1083.49 384.138C1062.04 384.002 1052.63 396.623 1042.66 410.008C1032.09 424.174 1021.18 438.821 995.139 438.637C973.065 438.488 959.429 419.258 943.633 397.011C923.315 368.369 898.024 332.741 844.742 323.356C828.138 320.429 816.379 321.721 808.824 327.283C795.718 336.93 797.199 358.538 798.645 379.432C800.003 399.317 801.41 419.892 790.124 430.271C785.541 434.482 779.322 436.778 771.106 437.297C736.587 439.427 711.757 415.563 685.48 390.283C660.136 365.912 633.942 340.709 596.326 334.879C584.139 332.989 575.357 334.087 569.412 338.285C559.101 345.535 558.664 361.238 558.204 377.866C557.693 396.329 557.162 415.436 543.511 426.457C535.923 432.575 525.167 435.512 510.598 435.43C496.646 435.346 482.128 426.42 465.313 416.107C439.888 400.443 408.226 381.025 362.139 380.548C361.846 380.545 361.627 380.268 361.699 379.983C361.751 379.782 361.936 379.641 362.144 379.643C408.67 380.053 440.497 399.577 466.095 415.285C482.78 425.524 497.215 434.373 510.849 434.463C525.058 434.568 535.536 431.732 542.846 425.827C556.072 415.138 556.6 396.256 557.123 377.993C557.585 361.14 558.046 345.203 568.83 337.619C575.081 333.215 584.217 332.021 596.749 333.968C634.662 339.858 660.966 365.144 686.393 389.593C712.532 414.725 737.218 438.483 771.273 436.365C779.157 435.877 785.084 433.706 789.416 429.715C800.326 419.666 798.937 399.307 797.591 379.623C796.141 358.487 794.655 336.638 808.242 326.617C816.132 320.799 828.229 319.437 845.207 322.427C898.861 331.876 924.242 367.654 944.656 396.404C960.328 418.48 973.848 437.554 995.424 437.692C1020.74 437.868 1031.45 423.494 1041.82 409.602C1051.56 396.541 1061.63 383.04 1083.78 383.193L1160.74 383.701C1161.06 383.703 1161.29 384.008 1161.2 384.311Z" stroke="url(#paint19_radial_2954_80)" stroke-width="0.5" stroke-linecap="round" stroke-linejoin="round"></path> <path d="M361.47 379.902C361.523 379.706 361.702 379.571 361.904 379.572C405.539 379.947 440.562 398.295 464.552 413.013C480.198 422.614 496.056 430.927 508.846 431.005C522.183 431.091 533.365 428.458 540.236 422.91C552.64 412.892 555.607 395.206 556.099 378.078C556.538 362.263 559.044 347.354 569.166 340.241C575.021 336.12 584.806 335.002 596.543 336.823C632.101 342.341 662.016 366.095 685.851 389.021C710.358 412.593 738.606 434.877 770.529 432.908C777.908 432.451 784.27 430.429 788.336 426.683C798.576 417.258 799.84 398.191 798.579 379.74C797.228 359.927 798.559 339.467 811.303 330.069C818.706 324.61 831.633 323.34 847.547 326.152C897.844 335.024 927.955 368.601 947.078 395.551C961.766 416.255 977.836 434.141 998.056 434.281C1021.79 434.446 1034.2 420.987 1043.9 407.96C1053.03 395.721 1064.65 383.069 1085.41 383.202L1159.48 383.699L1160.77 383.755C1161.06 383.767 1161.27 384.046 1161.2 384.331C1161.14 384.537 1160.96 384.68 1160.74 384.679L1085.06 384.174C1064.97 384.036 1054.01 395.864 1044.66 408.401C1034.76 421.678 1022.1 435.397 997.674 435.23C976.983 435.086 960.728 417.055 945.917 396.18C926.863 369.332 896.812 335.897 846.86 327.082C831.292 324.328 818.683 325.536 811.622 330.755C799.345 339.802 798.015 360.038 799.348 379.635C800.621 398.286 799.314 417.539 788.718 427.285C785.886 429.885 781.879 431.699 777.628 432.776C775.423 433.33 772.688 433.683 770.05 433.862C737.677 435.874 709.514 413.442 684.883 389.755C661.13 366.906 631.311 343.259 596.044 337.785C584.624 336.015 575.22 337.043 569.651 340.968C559.988 347.771 557.518 362.477 557.095 378.043C556.608 395.355 553.584 413.253 540.812 423.56C533.704 429.304 522.175 432.048 508.533 431.943C495.466 431.853 479.484 423.481 463.715 413.821C440.088 399.367 405.707 381.362 363.238 380.55C362.787 380.547 362.343 380.504 361.896 380.477C361.606 380.46 361.396 380.182 361.47 379.902Z" stroke="url(#paint20_radial_2954_80)" stroke-width="0.5" stroke-linecap="round" stroke-linejoin="round"></path> <path d="M361.242 379.818C361.29 379.622 361.468 379.485 361.67 379.486C402.423 379.859 440.601 397.007 463.009 410.741C477.616 419.703 494.917 427.471 506.843 427.547C519.288 427.624 531.216 425.176 537.633 420.009C549.215 410.662 554.64 394.163 555.081 378.179C555.483 363.426 560.076 349.528 569.509 342.879C574.988 339.031 585.381 338.008 596.351 339.709C629.532 344.864 663.094 367.053 685.337 388.457C708.205 410.452 740.028 431.294 769.813 429.459C776.707 429.022 783.476 427.144 787.263 423.667C796.813 414.875 800.728 397.099 799.547 379.867C798.273 361.385 802.436 342.288 814.344 333.53C821.265 328.446 835.022 327.268 849.865 329.886C896.82 338.155 931.648 369.558 949.5 394.698C963.197 414.014 981.83 430.743 1000.71 430.862C1022.86 431.015 1036.94 418.48 1046.01 406.325C1054.53 394.892 1067.67 383.098 1087.06 383.243L1159.59 383.727L1160.77 383.836C1161.05 383.862 1161.25 384.132 1161.18 384.407C1161.13 384.616 1160.94 384.761 1160.73 384.76L1086.6 384.259C1067.84 384.128 1055.35 395.154 1046.64 406.86C1037.4 419.256 1022.97 432.031 1000.19 431.889C980.86 431.758 962 414.902 948.186 395.43C930.395 370.376 895.601 339.109 848.971 330.905C834.424 328.347 821.007 329.454 814.413 334.323C802.957 342.756 798.804 361.643 800.065 379.925C801.266 397.317 797.231 415.274 787.347 424.379C784.71 426.801 780.406 428.499 776.419 429.501C774.353 430.033 771.458 430.36 769.001 430.499C738.787 432.369 707.284 411.409 684.292 389.298C662.131 367.971 628.7 345.857 595.782 340.738C585.129 339.088 575.097 340.031 569.91 343.698C560.881 350.023 556.379 363.733 555.986 378.276C555.523 394.438 550.006 411.126 538.076 420.753C531.443 426.106 519.161 428.651 506.419 428.57C494.216 428.483 476.791 420.656 462.081 411.625C440.05 398.131 402.512 381.276 362.885 380.533C362.474 380.529 362.076 380.447 361.666 380.398C361.385 380.364 361.175 380.094 361.242 379.818Z" stroke="url(#paint21_radial_2954_80)" stroke-width="0.5" stroke-linecap="round" stroke-linejoin="round"></path> <path d="M361.013 379.738C361.062 379.547 361.234 379.414 361.431 379.416C399.297 379.752 440.666 395.725 461.473 408.485C475.04 416.809 493.765 424.041 504.847 424.105C516.399 424.173 529.073 421.909 535.01 417.116C545.769 408.44 553.633 393.138 554.049 378.304C554.434 364.605 561.087 351.711 569.859 345.533C574.934 341.952 585.984 341.02 596.16 342.595C626.957 347.372 664.157 368.036 684.83 387.908C706.059 408.327 741.458 427.727 769.124 426.016C775.52 425.625 782.716 423.881 786.232 420.633C795.112 412.465 801.679 395.981 800.584 379.983C799.402 362.807 806.409 345.106 817.453 336.98C823.867 332.264 838.474 331.169 852.274 333.599C895.865 341.276 935.424 370.479 952.012 393.825C964.747 411.76 985.915 427.326 1003.44 427.447C1024 427.589 1039.78 415.953 1048.19 404.678C1056.1 394.068 1070.77 383.132 1088.78 383.248L1159.78 383.718L1160.84 383.866C1161.11 383.905 1161.29 384.176 1161.22 384.447C1161.17 384.655 1160.98 384.8 1160.77 384.798L1088.18 384.311C1070.76 384.201 1056.74 394.41 1048.63 405.294C1040.05 416.809 1023.87 428.656 1002.74 428.515C984.791 428.387 963.327 412.706 950.503 394.622C933.998 371.353 894.417 342.271 851.144 334.645C837.641 332.275 823.388 333.273 817.259 337.792C806.612 345.636 799.662 363.125 800.832 380.101C801.946 396.258 795.184 412.92 786.004 421.366C783.563 423.611 778.955 425.178 775.266 426.126C773.353 426.612 770.299 426.913 768.015 427.053C739.968 428.797 705.096 409.301 683.737 388.752C663.146 368.956 626.104 348.374 595.542 343.627C585.656 342.096 575.001 342.97 570.19 346.362C561.815 352.258 555.303 364.961 554.912 378.475C554.494 393.478 546.483 408.956 535.418 417.894C529.265 422.873 516.21 425.226 504.381 425.146C493.05 425.077 474.174 417.779 460.51 409.403C439.985 396.888 399.302 381.215 362.505 380.509C362.14 380.504 361.788 380.401 361.426 380.333C361.15 380.282 360.943 380.01 361.013 379.738Z" stroke="url(#paint22_radial_2954_80)" stroke-width="0.5" stroke-linecap="round" stroke-linejoin="round"></path> <path d="M360.784 379.657C360.83 379.464 361.001 379.328 361.199 379.33C396.193 379.665 440.754 394.435 459.929 406.213C472.458 413.899 492.606 420.594 502.851 420.663C513.518 420.737 526.909 418.651 532.407 414.215C542.337 406.194 552.646 392.103 553.031 378.405C553.379 365.768 562.112 353.869 570.209 348.186C574.887 344.888 586.579 344.017 595.989 345.472C624.431 349.877 665.262 369.001 684.317 387.344C703.913 406.202 742.88 424.144 768.408 422.566C774.319 422.197 781.943 420.586 785.18 417.608C793.369 410.073 802.588 394.88 801.579 380.116C800.496 364.263 810.32 347.95 820.515 340.432C826.441 336.074 841.884 335.089 854.614 337.324C894.847 344.423 939.137 371.426 954.441 392.988C966.191 409.55 989.916 423.944 1006.1 424.044C1025.1 424.165 1042.54 413.462 1050.3 403.043C1057.6 393.255 1073.82 383.168 1090.43 383.289L1159.76 383.745C1159.85 383.745 1159.93 383.754 1160.02 383.772L1160.85 383.945C1161.11 383.999 1161.27 384.261 1161.21 384.521C1161.16 384.733 1160.96 384.881 1160.75 384.879L1089.7 384.406C1073.62 384.302 1058.07 393.709 1050.58 403.746C1042.65 414.365 1024.74 425.29 1005.21 425.151C988.661 425.044 964.564 410.53 952.731 393.834C937.489 372.358 893.171 345.461 853.207 338.414C840.739 336.216 825.643 337.146 820.002 341.307C810.183 348.551 800.402 364.677 801.48 380.346C802.502 395.253 793.032 410.61 784.557 418.399C782.29 420.475 777.407 421.917 774.003 422.781C772.242 423.219 769.036 423.512 766.918 423.636C741.03 425.237 702.811 407.198 683.098 388.241C664.098 369.968 623.425 350.926 595.218 346.551C586.092 345.123 574.816 345.928 570.388 349.063C562.653 354.496 554.115 366.219 553.769 378.686C553.375 392.538 542.892 406.797 532.669 415.056C526.99 419.644 513.19 421.812 502.253 421.742C491.787 421.675 471.446 414.932 458.842 407.184C439.941 395.635 396.107 381.129 362.125 380.486C361.791 380.485 361.495 380.359 361.188 380.269C360.925 380.192 360.721 379.924 360.784 379.657Z" stroke="url(#paint23_radial_2954_80)" stroke-width="0.5" stroke-linecap="round" stroke-linejoin="round"></path> <path d="M360.555 379.577C360.602 379.389 360.767 379.257 360.961 379.259C393.077 379.558 440.791 393.146 458.386 403.94C469.87 410.973 491.468 417.139 500.848 417.205C510.622 417.27 524.766 415.384 529.804 411.314C538.89 403.973 551.659 391.069 552.013 378.505C552.338 366.907 563.144 356.042 570.552 350.824C574.854 347.799 587.175 347.014 595.797 348.359C621.862 352.401 666.319 369.967 683.803 386.779C701.76 404.061 744.282 420.57 767.692 419.117C773.098 418.777 781.156 417.317 784.128 414.583C791.647 407.672 803.518 393.77 802.588 380.225C801.604 365.694 814.245 350.77 823.597 343.875C829.036 339.876 845.308 338.983 856.981 341.055C893.872 347.552 942.892 372.356 956.911 392.132C967.671 407.307 993.952 420.529 1008.8 420.622C1026.22 420.732 1045.36 410.943 1052.46 401.39C1059.14 392.409 1076.89 383.195 1092.14 383.303L1159.91 383.761C1160.02 383.762 1160.12 383.777 1160.23 383.806L1160.9 383.995C1161.16 384.067 1161.31 384.329 1161.25 384.586C1161.19 384.806 1160.99 384.96 1160.77 384.958L1091.27 384.498C1076.52 384.401 1059.44 393.006 1052.59 402.212C1045.32 411.95 1025.65 421.946 1007.76 421.817C992.585 421.714 965.891 408.39 955.028 393.091C941.049 373.409 891.966 348.688 855.338 342.228C843.913 340.217 827.988 341.055 822.793 344.875C813.796 351.505 801.211 366.273 802.197 380.636C803.133 394.309 790.928 408.354 783.165 415.501C781.093 417.4 775.914 418.727 772.773 419.515C771.15 419.931 767.779 420.182 765.855 420.298C742.127 421.757 700.566 405.19 682.493 387.809C665.085 371.058 620.8 353.548 594.922 349.538C586.542 348.239 574.685 348.956 570.591 351.835C563.504 356.823 552.934 367.548 552.611 378.978C552.262 391.67 539.264 404.728 529.899 412.282C524.673 416.489 510.121 418.457 500.125 418.394C490.544 418.321 468.739 412.131 457.18 405.038C439.862 394.417 392.877 381.076 361.751 380.478C361.462 380.476 361.205 380.332 360.94 380.221C360.69 380.115 360.49 379.84 360.555 379.577Z" stroke="url(#paint24_radial_2954_80)" stroke-width="0.5" stroke-linecap="round" stroke-linejoin="round"></path> <path d="M360.331 379.525C360.375 379.327 360.545 379.187 360.748 379.189C390.003 379.474 440.861 391.866 456.843 401.668C467.267 408.072 490.309 413.692 498.845 413.747C507.727 413.802 522.616 412.101 527.173 408.406C535.438 401.735 550.665 390.019 550.975 378.615C551.263 368.079 564.149 358.209 570.874 353.471C574.78 350.729 587.75 350.019 595.577 351.238C619.266 354.917 667.376 370.934 683.268 386.224C699.613 401.935 745.677 416.98 766.975 415.667C771.904 415.364 780.362 414.031 783.069 411.542C789.898 405.264 804.414 392.638 803.576 380.343C802.67 367.142 818.17 353.589 826.659 347.327C831.589 343.696 848.718 342.902 859.321 344.78C892.848 350.684 946.606 373.304 959.354 391.27C969.151 405.064 997.967 417.122 1011.46 417.218C1027.29 417.317 1048.11 408.452 1054.59 399.761C1060.69 391.594 1079.97 383.238 1093.81 383.335L1159.99 383.779C1160.13 383.78 1160.27 383.805 1160.39 383.854L1160.93 384.058C1161.17 384.151 1161.3 384.41 1161.24 384.66C1161.18 384.885 1160.98 385.041 1160.74 385.039L1092.81 384.584C1079.4 384.493 1060.79 392.297 1054.56 400.671C1047.96 409.528 1026.55 418.571 1010.27 418.476C996.462 418.386 967.162 406.236 957.29 392.325C944.596 374.428 890.734 351.909 857.441 346.035C847.06 344.212 830.298 344.942 825.577 348.428C817.387 354.467 801.992 367.863 802.886 380.92C803.729 393.343 788.825 406.098 781.766 412.587C779.869 414.318 774.407 415.504 771.564 416.239C770.094 416.609 766.564 416.835 764.812 416.951C743.23 418.293 698.315 403.166 681.909 387.368C666.065 372.133 618.176 356.171 594.673 352.523C587.06 351.343 574.582 351.991 570.864 354.597C564.424 359.138 551.816 368.851 551.522 379.258C551.198 390.8 535.727 402.639 527.205 409.514C522.46 413.346 507.134 415.122 498.051 415.06C489.342 415.005 466.086 409.345 455.566 402.89C439.824 393.237 389.709 381.053 361.391 380.502C361.147 380.498 360.939 380.348 360.721 380.223C360.481 380.084 360.27 379.796 360.331 379.525Z" stroke="url(#paint25_radial_2954_80)" stroke-width="0.5" stroke-linecap="round" stroke-linejoin="round"></path> <path d="M360.117 379.392C360.162 379.215 360.313 379.091 360.496 379.093C386.888 379.351 440.934 390.556 455.321 399.387C464.705 405.152 489.191 410.228 496.863 410.28C504.859 410.342 520.466 408.818 524.584 405.48C532.02 399.465 549.692 388.96 549.971 378.691C550.242 369.209 565.188 360.343 571.252 356.075C574.775 353.591 588.381 352.982 595.414 354.075C616.747 357.382 668.467 371.868 682.782 385.61C697.488 399.745 747.128 413.348 766.287 412.168C770.71 411.895 779.603 410.712 782.045 408.467C788.183 402.822 805.372 391.479 804.62 380.418C803.806 368.524 822.123 356.359 829.776 350.737C834.219 347.464 852.177 346.763 861.737 348.453C891.928 353.771 950.389 374.184 961.852 390.366C970.666 402.788 1002.04 413.673 1014.19 413.747C1028.44 413.834 1050.95 405.868 1056.77 398.058C1062.26 390.713 1083.07 383.215 1095.52 383.308L1160.13 383.739C1160.29 383.74 1160.46 383.779 1160.61 383.853L1161.02 384.057C1161.23 384.166 1161.34 384.411 1161.29 384.646C1161.23 384.877 1161.02 385.039 1160.78 385.037L1094.4 384.595C1082.35 384.517 1062.18 391.512 1056.58 399.04C1050.65 407.007 1027.46 415.131 1012.82 415.045C1000.39 414.959 968.49 403.984 959.608 391.46C948.178 375.358 889.571 355.007 859.595 349.728C850.249 348.077 832.644 348.739 828.41 351.865C821.042 357.291 802.837 369.314 803.645 381.079C804.403 392.269 786.785 403.703 780.416 409.559C778.721 411.128 772.956 412.183 770.397 412.833C769.059 413.165 765.398 413.372 763.813 413.474C744.342 414.675 696.086 401.02 681.298 386.808C667.045 373.095 615.525 358.674 594.378 355.398C587.532 354.338 574.424 354.9 571.089 357.248C565.29 361.327 550.657 370.059 550.4 379.403C550.1 389.795 532.157 400.415 524.478 406.61C520.206 410.052 504.135 411.644 495.945 411.59C488.1 411.538 463.4 406.423 453.947 400.613C439.781 391.929 386.507 380.895 361.033 380.413C360.819 380.408 360.639 380.237 360.45 380.091C360.245 379.933 360.054 379.643 360.117 379.392Z" stroke="url(#paint26_radial_2954_80)" stroke-width="0.5" stroke-linecap="round" stroke-linejoin="round"></path> <path d="M359.888 379.312C359.934 379.14 360.079 379.021 360.257 379.023C383.801 379.26 441.006 389.289 453.778 397.115C462.123 402.242 488.032 406.782 494.86 406.822C501.964 406.875 518.316 405.536 521.982 402.579C528.595 397.234 548.705 387.926 548.953 378.791C549.181 370.357 566.22 362.516 571.595 358.713C574.721 356.511 588.956 355.988 595.222 356.961C614.178 359.906 669.545 372.826 682.255 385.07C695.328 397.644 748.536 409.79 765.557 408.743C769.495 408.491 778.823 407.458 780.978 405.467C786.447 400.446 806.267 390.403 805.594 380.56C804.879 369.988 826.013 359.213 832.823 354.213C836.779 351.3 855.573 350.707 864.062 352.202C890.889 356.927 954.088 375.157 964.281 389.529C972.104 400.563 1006.04 410.292 1016.82 410.353C1029.5 410.444 1053.68 403.386 1058.86 396.432C1063.73 389.894 1086.08 383.269 1097.16 383.333L1160.17 383.75C1160.38 383.751 1160.58 383.812 1160.74 383.926L1161.03 384.117C1161.22 384.247 1161.31 384.484 1161.26 384.71C1161.19 384.956 1160.97 385.128 1160.72 385.127L1095.92 384.69C1085.2 384.618 1063.51 390.827 1058.54 397.507C1053.26 404.594 1028.34 411.78 1015.32 411.688C1004.28 411.606 969.754 401.815 961.87 390.695C951.704 376.386 888.339 358.228 861.691 353.519C853.389 352.056 834.948 352.61 831.187 355.402C824.648 360.229 803.612 370.888 804.342 381.322C805.035 391.268 784.661 401.4 779.024 406.605C777.525 407.997 771.463 408.936 769.189 409.502C768.01 409.802 764.162 409.978 762.764 410.055C745.508 411.127 693.905 398.928 680.756 386.293C668.095 374.103 612.97 361.229 594.144 358.302C588.065 357.361 574.335 357.854 571.377 359.928C566.225 363.561 549.56 371.297 549.326 379.603C549.071 388.835 528.613 398.254 521.798 403.76C518.007 406.827 501.157 408.212 493.886 408.175C486.906 408.125 460.756 403.54 452.348 398.383C439.757 390.667 383.333 380.8 360.694 380.371C360.485 380.38 360.33 380.214 360.177 380.059C359.998 379.877 359.822 379.559 359.888 379.312Z" stroke="url(#paint27_radial_2954_80)" stroke-width="0.5" stroke-linecap="round" stroke-linejoin="round"></path> <path d="M359.665 379.238C359.704 379.061 359.846 378.935 360.027 378.937C380.753 379.158 441.067 387.993 452.235 394.843C459.535 399.316 486.894 403.326 492.864 403.38C499.076 403.423 516.173 402.269 519.358 399.686C525.148 395.013 547.698 386.901 547.921 378.916C548.132 371.536 567.232 364.699 571.931 361.392C574.66 359.472 589.544 359.025 595.037 359.863C611.638 362.436 670.615 373.824 681.748 384.521C693.182 395.519 749.965 406.223 764.868 405.3C768.308 405.094 778.057 404.18 779.947 402.433C784.725 398.045 807.218 389.284 806.631 380.676C805.994 371.435 829.986 362.03 835.927 357.648C839.374 355.102 859.018 354.592 866.443 355.909C889.914 360.056 957.836 376.071 966.766 388.649C973.625 398.302 1010.09 406.851 1019.55 406.922C1030.63 407.002 1056.52 400.859 1061.04 394.77C1065.29 389.054 1089.19 383.278 1098.87 383.347L1160.28 383.75C1160.53 383.752 1160.76 383.841 1160.94 384.002L1161.12 384.169C1161.28 384.309 1161.35 384.524 1161.3 384.728C1161.24 384.986 1161 385.167 1160.74 385.165L1097.49 384.742C1088.11 384.676 1064.9 390.084 1060.52 395.926C1055.9 402.116 1029.23 408.39 1017.85 408.306C1008.2 408.244 971.061 399.628 964.14 389.888C955.258 377.365 887.128 361.383 863.802 357.286C856.543 356.01 837.272 356.472 833.971 358.898C828.233 363.119 804.415 372.412 805.032 381.55C805.632 390.246 782.558 399.088 777.605 403.645C776.28 404.868 769.915 405.676 767.939 406.188C766.913 406.441 762.906 406.592 761.68 406.669C746.584 407.6 691.634 396.857 680.124 385.798C669.033 375.139 610.297 363.797 593.828 361.242C588.508 360.405 574.177 360.819 571.567 362.669C567.055 365.84 548.365 372.595 548.176 379.854C547.944 387.935 525.014 396.136 519.042 400.962C515.725 403.639 498.129 404.839 491.765 404.786C485.657 404.755 458.056 400.699 450.694 396.196C439.671 389.433 380.102 380.748 360.293 380.357C360.134 380.355 360.022 380.168 359.907 379.993C359.774 379.791 359.614 379.475 359.665 379.238Z" stroke="url(#paint28_radial_2954_80)" stroke-width="0.5" stroke-linecap="round" stroke-linejoin="round"></path> <path d="M359.43 379.153C359.473 378.983 359.608 378.864 359.784 378.866C377.697 379.066 441.109 386.719 450.691 392.571C456.952 396.406 485.735 399.88 490.861 399.922C496.18 399.956 514.003 398.995 516.748 396.769C521.716 392.767 546.725 385.842 546.896 379.001C547.071 372.683 568.229 366.85 572.288 364.005C574.641 362.359 590.148 361.981 594.852 362.709C609.077 364.919 671.707 374.757 681.241 383.916C691.036 393.337 751.388 402.583 764.159 401.81C767.115 401.625 777.277 400.869 778.902 399.368C783.004 395.588 808.155 388.134 807.654 380.76C807.116 372.841 833.925 364.825 839.023 361.066C841.983 358.879 862.463 358.478 868.818 359.6C888.945 363.145 961.585 376.985 969.223 387.762C975.098 396.043 1014.12 403.42 1022.21 403.478C1031.72 403.546 1059.28 398.311 1063.16 393.11C1066.81 388.216 1092.24 383.299 1100.54 383.339L1160.35 383.743C1160.64 383.745 1160.91 383.875 1161.09 384.098L1161.19 384.231C1161.31 384.38 1161.36 384.578 1161.31 384.764C1161.24 385.034 1161 385.223 1160.72 385.221L1099.03 384.812C1090.99 384.752 1066.24 389.358 1062.49 394.369C1058.53 399.678 1030.12 404.999 1020.35 404.95C1012.06 404.9 972.325 397.458 966.395 389.107C958.777 378.377 885.882 364.573 865.892 361.062C859.669 359.958 839.555 360.351 836.742 362.419C831.832 366.042 805.176 373.955 805.728 381.793C806.243 389.254 780.433 396.785 776.206 400.675C775.076 401.721 768.415 402.413 766.723 402.84C765.836 403.072 761.691 403.188 760.632 403.25C747.674 404.047 689.383 394.776 679.534 385.285C670.034 376.148 607.666 366.347 593.552 364.164C588.979 363.455 574.047 363.791 571.812 365.368C567.949 368.092 547.219 373.834 547.06 380.071C546.873 386.993 521.429 393.993 516.314 398.115C513.471 400.401 495.109 401.425 489.658 401.373C484.435 401.335 455.369 397.834 449.046 393.969C439.613 388.206 376.886 380.671 359.898 380.358C359.772 380.355 359.686 380.165 359.6 379.979C359.496 379.755 359.369 379.391 359.43 379.153Z" stroke="url(#paint29_radial_2954_80)" stroke-width="0.5" stroke-linecap="round" stroke-linejoin="round"></path> <path d="M359.208 379.072C359.248 378.908 359.372 378.794 359.54 378.796C374.67 378.974 441.173 385.436 449.155 390.315C454.377 393.512 484.61 396.456 488.864 396.48C493.298 396.52 511.86 395.728 514.152 393.884C518.291 390.536 545.744 384.823 545.906 379.109C546.057 373.829 569.282 369.015 572.659 366.649C574.608 365.27 590.771 364.985 594.688 365.602C606.536 367.45 672.791 375.731 680.741 383.383C688.903 391.244 752.824 399.032 763.449 398.376C765.9 398.222 776.49 397.6 777.857 396.358C781.268 393.212 809.071 387.049 808.649 380.894C808.203 374.281 837.836 367.669 842.091 364.534C844.563 362.706 865.873 362.397 871.164 363.34C887.928 366.292 965.305 377.948 971.679 386.931C976.57 393.841 1018.15 400.045 1024.9 400.081C1032.82 400.138 1062.08 395.818 1065.3 391.481C1068.34 387.41 1095.29 383.335 1102.22 383.387L1160.4 383.777C1160.74 383.779 1161.04 383.96 1161.2 384.25L1161.26 384.347C1161.33 384.487 1161.36 384.652 1161.32 384.808C1161.25 385.094 1160.99 385.295 1160.69 385.293L1100.59 384.888C1093.89 384.85 1067.61 388.639 1064.49 392.819C1061.19 397.247 1031.02 401.639 1022.88 401.584C1015.98 401.539 973.631 395.271 968.699 388.323C962.338 379.372 884.691 367.776 868.052 364.826C862.871 363.91 841.921 364.196 839.56 365.938C835.473 368.946 806.013 375.502 806.473 382.033C806.895 388.245 778.379 394.471 774.842 397.728C773.907 398.596 766.95 399.173 765.542 399.515C764.807 399.7 760.483 399.8 759.617 399.854C748.826 400.524 687.181 392.693 678.978 384.795C671.07 377.181 605.07 368.92 593.326 367.084C589.519 366.494 573.958 366.746 572.106 368.064C568.883 370.327 546.15 375.079 545.993 380.287C545.83 386.057 517.913 391.839 513.641 395.281C511.279 397.192 492.158 398.001 487.606 397.974C483.248 397.938 452.738 394.982 447.482 391.762C439.548 386.963 373.67 380.594 359.539 380.325C359.426 380.326 359.37 380.115 359.314 379.91C359.251 379.682 359.151 379.301 359.208 379.072Z" stroke="url(#paint30_radial_2954_80)" stroke-width="0.5" stroke-linecap="round" stroke-linejoin="round"></path> <path d="M358.971 378.976C359.013 378.818 359.127 378.707 359.291 378.709C371.685 378.851 441.23 384.137 447.612 388.042C451.795 390.602 483.451 393.01 486.861 393.022C490.424 393.044 509.689 392.454 511.522 390.976C514.838 388.299 544.73 383.782 544.868 379.218C544.981 375.001 570.294 371.198 572.981 369.296C574.554 368.191 591.346 367.99 594.469 368.481C603.954 369.941 673.848 376.698 680.199 382.812C686.722 389.096 754.219 395.442 762.726 394.911C764.699 394.793 775.696 394.314 776.798 393.318C779.518 390.804 809.994 385.924 809.658 381.003C809.29 375.721 841.782 370.48 845.173 367.977C847.144 366.533 869.304 366.307 873.545 367.047C886.952 369.422 969.053 378.862 974.163 386.052C978.085 391.564 1022.2 396.621 1027.59 396.644C1033.93 396.69 1064.87 393.293 1067.45 389.812C1069.87 386.547 1098.37 383.337 1103.92 383.385L1160.45 383.761C1160.84 383.763 1161.19 384.019 1161.31 384.395L1161.32 384.449C1161.36 384.572 1161.37 384.704 1161.34 384.829C1161.26 385.145 1160.97 385.367 1160.65 385.365L1102.13 384.974C1096.77 384.942 1068.96 387.93 1066.46 391.262C1063.82 394.81 1031.92 398.264 1025.41 398.218C1019.89 398.177 974.917 393.093 970.975 387.533C965.899 380.366 883.486 370.947 870.169 368.609C866.004 367.874 844.252 368.073 842.358 369.466C839.078 371.884 806.829 377.058 807.176 382.292C807.512 387.27 776.268 392.199 773.457 394.79C772.697 395.49 765.457 395.926 764.326 396.224C763.744 396.362 759.261 396.437 758.568 396.491C749.937 397.019 684.951 390.66 678.366 384.347C672.028 378.264 602.438 371.527 593.029 370.071C589.99 369.601 573.807 369.783 572.331 370.828C569.755 372.644 544.99 376.399 544.87 380.544C544.731 385.165 514.321 389.736 510.913 392.489C509.025 394.011 489.137 394.643 485.498 394.617C482.012 394.6 450.031 392.182 445.834 389.591C439.511 385.726 370.481 380.524 359.159 380.301C359.069 380.301 359.037 380.065 359.003 379.838C358.969 379.607 358.913 379.202 358.971 378.976Z" stroke="url(#paint31_radial_2954_80)" stroke-width="0.5" stroke-linecap="round" stroke-linejoin="round"></path> <path d="M358.745 378.887C358.786 378.739 358.885 378.637 359.038 378.638C368.755 378.756 441.291 382.853 446.069 385.77C449.192 387.7 482.313 389.554 484.859 389.564C487.529 389.576 507.539 389.172 508.912 388.059C511.386 386.062 543.736 382.732 543.843 379.303C543.94 376.139 571.312 373.34 573.338 371.909C574.515 371.086 591.956 370.962 594.284 371.327C601.393 372.424 674.919 377.64 679.7 382.223C684.611 386.937 755.656 391.834 762.024 391.437C763.492 391.349 774.944 391.011 775.732 390.261C777.783 388.371 810.89 384.791 810.632 381.089C810.363 377.129 845.666 373.261 848.215 371.382C849.698 370.296 872.687 370.163 875.871 370.74C885.935 372.513 972.753 379.778 976.572 385.167C979.51 389.308 1026.18 393.176 1030.24 393.209C1034.99 393.243 1067.6 390.754 1069.54 388.145C1071.38 385.694 1101.39 383.35 1105.55 383.378L1160.43 383.74C1160.87 383.743 1161.24 384.069 1161.3 384.505L1161.31 384.531C1161.32 384.629 1161.31 384.729 1161.29 384.825C1161.2 385.161 1160.9 385.394 1160.55 385.391L1103.63 385.005C1099.62 384.971 1070.26 387.166 1068.4 389.666C1066.43 392.324 1032.75 394.86 1027.87 394.823C1023.74 394.786 976.168 390.892 973.189 386.713C969.377 381.34 882.206 374.114 872.218 372.346C869.096 371.799 846.487 371.899 845.088 372.949C842.629 374.752 807.556 378.578 807.825 382.481C808.069 386.208 774.117 389.833 771.997 391.79C771.432 392.313 763.895 392.633 763.049 392.847C762.606 392.963 757.984 393.003 757.451 393.026C750.986 393.429 682.625 388.519 677.707 383.789C672.954 379.213 599.739 374.032 592.685 372.948C590.412 372.597 573.608 372.71 572.508 373.481C570.572 374.835 543.782 377.609 543.685 380.717C543.592 384.177 510.688 387.539 508.123 389.612C506.695 390.768 486.075 391.191 483.35 391.165C480.728 391.151 447.303 389.278 444.152 387.341C439.446 384.483 367.286 380.438 358.778 380.278C358.714 380.276 358.713 380.02 358.707 379.775C358.701 379.545 358.684 379.109 358.745 378.887Z" stroke="url(#paint32_radial_2954_80)" stroke-width="0.5" stroke-linecap="round" stroke-linejoin="round"></path> <path d="M358.526 378.845C358.557 378.675 358.657 378.55 358.831 378.553C366.324 378.659 441.353 381.556 444.526 383.498C446.603 384.774 481.154 386.108 482.862 386.122C484.64 386.125 505.396 385.905 506.316 385.173C507.967 383.847 542.756 381.714 542.832 379.419C542.892 377.319 572.344 375.514 573.695 374.579C574.474 374.038 592.544 373.999 594.127 374.236C598.859 374.97 676.031 378.621 679.199 381.69C682.471 384.827 757.071 388.292 761.342 388.01C762.325 387.943 774.184 387.748 774.714 387.259C776.075 386.002 811.854 383.704 811.683 381.236C811.512 378.599 849.632 376.119 851.338 374.863C852.334 374.136 876.16 374.112 878.273 374.494C884.973 375.674 976.522 380.74 979.077 384.334C981.031 387.103 1030.26 389.799 1032.95 389.819C1036.12 389.841 1070.43 388.267 1071.74 386.53C1072.96 384.901 1104.52 383.407 1107.3 383.431L1160.51 383.778C1161.01 383.781 1161.41 384.19 1161.4 384.69L1161.4 384.704C1161.4 384.766 1161.4 384.828 1161.38 384.887C1161.29 385.24 1160.97 385.486 1160.61 385.484L1105.25 385.111C1102.58 385.083 1071.69 386.476 1070.46 388.146C1069.14 389.907 1033.73 391.521 1030.47 391.502C1027.7 391.494 977.522 388.759 975.562 385.975C973.013 382.396 881.098 377.338 874.426 376.165C872.346 375.805 848.908 375.813 847.975 376.513C846.345 377.717 808.455 380.155 808.618 382.776C808.796 385.26 772.117 387.589 770.701 388.888C770.332 389.234 762.499 389.438 761.937 389.567C761.646 389.636 756.845 389.661 756.506 389.675C752.179 389.944 680.499 386.497 677.22 383.344C674.058 380.29 597.211 376.65 592.507 375.922C590.973 375.684 573.588 375.709 572.829 376.24C571.541 377.149 542.712 378.91 542.645 380.995C542.576 383.305 507.178 385.457 505.471 386.826C504.516 387.591 483.124 387.823 481.318 387.813C479.582 387.792 444.693 386.473 442.581 385.175C439.429 383.238 364.118 380.359 358.453 380.268C358.409 380.265 358.443 379.921 358.464 379.632C358.479 379.42 358.489 379.055 358.526 378.845Z" stroke="url(#paint33_radial_2954_80)" stroke-width="0.5" stroke-linecap="round" stroke-linejoin="round"></path> <path d="M358.291 378.719C358.327 378.578 358.399 378.48 358.544 378.482C363.748 378.552 441.404 380.266 442.982 381.226C444.021 381.864 479.995 382.661 480.859 382.664C481.752 382.673 503.225 382.631 503.685 382.265C504.508 381.594 541.762 380.664 541.793 379.529C541.83 378.466 573.355 377.697 574.017 377.226C574.414 376.943 593.119 377.005 593.907 377.115C596.284 377.478 677.067 379.596 678.658 381.119C680.297 382.695 758.459 384.687 760.598 384.553C761.083 384.532 773.37 384.471 773.635 384.227C774.325 383.594 812.729 382.581 812.65 381.363C812.551 380.041 853.536 378.948 854.379 378.324C854.866 377.965 879.542 378.024 880.592 378.228C883.955 378.821 980.214 381.696 981.499 383.481C982.483 384.853 1034.25 386.402 1035.61 386.399C1037.19 386.411 1073.18 385.76 1073.84 384.879C1074.45 384.057 1107.54 383.436 1108.93 383.44L1160.43 383.788C1161 383.792 1161.44 384.302 1161.36 384.871C1161.26 385.277 1160.89 385.56 1160.48 385.557L1106.75 385.199C1105.41 385.193 1072.99 385.768 1072.36 386.6C1071.7 387.481 1034.53 388.15 1032.9 388.141C1031.52 388.137 978.731 386.576 977.741 385.188C976.477 383.394 879.782 380.538 876.446 379.952C875.403 379.764 851.143 379.695 850.669 380.029C849.841 380.628 809.146 381.708 809.238 383.014C809.324 384.249 769.917 385.281 769.206 385.923C769.011 386.1 760.895 386.164 760.632 386.24C760.479 386.287 755.54 386.277 755.367 386.276C753.207 386.418 678.179 384.427 676.533 382.835C674.941 381.313 594.511 379.211 592.155 378.84C591.388 378.72 573.381 378.676 572.999 378.934C572.351 379.38 541.497 380.161 541.474 381.199C541.45 382.349 503.558 383.292 502.695 383.98C502.221 384.371 480.076 384.402 479.163 384.402C478.298 384.399 441.951 383.594 440.912 382.956C439.337 381.988 360.875 380.275 358.039 380.222C358.011 380.223 358.081 379.856 358.136 379.547C358.173 379.339 358.239 378.924 358.291 378.719Z" stroke="url(#paint34_radial_2954_80)" stroke-width="0.5" stroke-linecap="round" stroke-linejoin="round"></path> <path d="M1161.38 384.913C1161.28 385.322 1160.91 385.608 1160.49 385.605L358.823 380.221C358.233 380.217 357.802 379.663 357.944 379.09C358.046 378.681 358.414 378.395 358.835 378.398L1160.5 383.781C1161.09 383.785 1161.52 384.34 1161.38 384.913Z" stroke="url(#paint35_radial_2954_80)" stroke-width="0.5" stroke-linecap="round" stroke-linejoin="round"></path> </g> <g filter="url(#filter0_f_2954_80)"> <rect x="615" y="268.2" width="269" height="228" rx="100" fill="#111314" fill-opacity="0.94"></rect> </g> <g filter="url(#filter1_f_2954_80)"> <rect x="1101" y="290.974" width="383" height="192" rx="88" fill="#131314"></rect> </g> <g filter="url(#filter2_f_2954_80)"> <rect x="50" y="290.974" width="343" height="192" rx="88" fill="#131314"></rect> </g> <rect x="673.933" y="304.934" width="143.755" height="7.29192" fill="#9783D0" fill-opacity="0.07"></rect> <rect x="673.933" y="361.186" width="143.755" height="9.37532" fill="#9783D0" fill-opacity="0.07"></rect> <rect x="673.933" y="420.563" width="143.755" height="8.33362" fill="#9783D0" fill-opacity="0.07"></rect> <rect x="674.001" y="477.2" width="144" height="8" fill="#9783D0" fill-opacity="0.07"></rect> <rect x="629.001" y="485.2" width="234" height="4" fill="#9783D0" fill-opacity="0.07"></rect> <rect x="628.165" y="256.474" width="234.221" height="47.96" rx="3.5" fill="url(#paint36_linear_2954_80)" fill-opacity="0.2" stroke="url(#paint37_linear_2954_80)"></rect> <rect x="648.386" y="274.568" width="101.177" height="11.7722" fill="url(#paint38_linear_2954_80)" fill-opacity="0.2" stroke="url(#paint39_linear_2954_80)"></rect> <circle cx="832.021" cy="280.454" r="6.38609" fill="white" fill-opacity="0.36"></circle> <circle cx="806.928" cy="280.879" r="6.38609" fill="white" fill-opacity="0.36"></circle> <circle cx="780.928" cy="280.879" r="6.38609" fill="white" fill-opacity="0.36"></circle> <rect x="648.386" y="332.043" width="101.177" height="11.7722" fill="url(#paint40_linear_2954_80)" fill-opacity="0.2" stroke="url(#paint41_linear_2954_80)"></rect> <rect x="628.165" y="313.949" width="234.221" height="47.96" rx="3.5" fill="url(#paint42_linear_2954_80)" fill-opacity="0.2" stroke="url(#paint43_linear_2954_80)"></rect> <circle cx="832.021" cy="337.929" r="6.38609" fill="white" fill-opacity="0.36"></circle> <circle cx="806.474" cy="337.929" r="6.38609" fill="white" fill-opacity="0.36"></circle> <circle cx="780.928" cy="337.879" r="6.38609" fill="white" fill-opacity="0.36"></circle> <rect x="628.165" y="371.424" width="234.221" height="47.96" rx="3.5" fill="url(#paint44_linear_2954_80)" fill-opacity="0.2" stroke="url(#paint45_linear_2954_80)"></rect> <rect x="648.386" y="389.518" width="101.177" height="11.7722" fill="url(#paint46_linear_2954_80)" fill-opacity="0.2" stroke="url(#paint47_linear_2954_80)"></rect> <circle cx="831.928" cy="395.879" r="6.38609" fill="white" fill-opacity="0.36"></circle> <circle cx="806.474" cy="395.404" r="6.38609" fill="white" fill-opacity="0.36"></circle> <circle cx="780.928" cy="395.879" r="6.38609" fill="white" fill-opacity="0.36"></circle> <rect x="648.386" y="446.992" width="101.177" height="11.7722" fill="url(#paint48_linear_2954_80)" fill-opacity="0.2" stroke="url(#paint49_linear_2954_80)"></rect> <rect x="628.165" y="428.899" width="234.221" height="47.96" rx="3.5" fill="url(#paint50_linear_2954_80)" fill-opacity="0.2" stroke="url(#paint51_linear_2954_80)"></rect> <circle cx="831.928" cy="452.879" r="6.38609" fill="white" fill-opacity="0.36"></circle> <circle cx="806.928" cy="452.879" r="6.38609" fill="white" fill-opacity="0.36"></circle> <circle cx="780.928" cy="452.879" r="6.38609" fill="white" fill-opacity="0.36"></circle> <defs> <filter id="filter0_f_2954_80" x="565" y="218.2" width="369" height="328" filterUnits="userSpaceOnUse" color-interpolation-filters="sRGB"> <feFlood flood-opacity="0" result="BackgroundImageFix"></feFlood> <feBlend mode="normal" in="SourceGraphic" in2="BackgroundImageFix" result="shape"></feBlend> <feGaussianBlur stdDeviation="25" result="effect1_foregroundBlur_2954_80"></feGaussianBlur> </filter> <filter id="filter1_f_2954_80" x="1051" y="240.974" width="483" height="292" filterUnits="userSpaceOnUse" color-interpolation-filters="sRGB"> <feFlood flood-opacity="0" result="BackgroundImageFix"></feFlood> <feBlend mode="normal" in="SourceGraphic" in2="BackgroundImageFix" result="shape"></feBlend> <feGaussianBlur stdDeviation="25" result="effect1_foregroundBlur_2954_80"></feGaussianBlur> </filter> <filter id="filter2_f_2954_80" x="0" y="240.974" width="443" height="292" filterUnits="userSpaceOnUse" color-interpolation-filters="sRGB"> <feFlood flood-opacity="0" result="BackgroundImageFix"></feFlood> <feBlend mode="normal" in="SourceGraphic" in2="BackgroundImageFix" result="shape"></feBlend> <feGaussianBlur stdDeviation="25" result="effect1_foregroundBlur_2954_80"></feGaussianBlur> </filter> <linearGradient id="paint0_linear_2954_80" x1="364.361" y1="356.381" x2="1113.23" y2="549.703" gradientUnits="userSpaceOnUse"> <stop></stop> <stop offset="0.0808" stop-color="#58595B"></stop> <stop offset="0.3283" stop-color="#58595B"></stop> <stop offset="0.4301" stop-color="#3B3A3B"></stop> <stop offset="0.517" stop-color="#292627"></stop> <stop offset="0.5758" stop-color="#231F20"></stop> <stop offset="0.6414" stop-color="#58595B"></stop> <stop offset="0.6435" stop-color="#5D5E60"></stop> <stop offset="0.6633" stop-color="#8E8F90"></stop> <stop offset="0.683" stop-color="#B7B7B8"></stop> <stop offset="0.7022" stop-color="#D6D7D7"></stop> <stop offset="0.7207" stop-color="#EDEDED"></stop> <stop offset="0.7383" stop-color="#FAFAFA"></stop> <stop offset="0.7539" stop-color="white"></stop> <stop offset="0.9663"></stop> <stop offset="1"></stop> </linearGradient> <radialGradient id="paint1_radial_2954_80" cx="0" cy="0" r="1" gradientUnits="userSpaceOnUse" gradientTransform="translate(745.499 365.974) rotate(-178.741) scale(273.066 296.225)"> <stop stop-color="#DF96AC" stop-opacity="0.69"></stop> <stop offset="0.526042" stop-color="#574D81" stop-opacity="0.6"></stop> <stop offset="1" stop-color="#191A1C"></stop> </radialGradient> <radialGradient id="paint2_radial_2954_80" cx="0" cy="0" r="1" gradientUnits="userSpaceOnUse" gradientTransform="translate(745.499 365.974) rotate(-178.741) scale(273.066 296.225)"> <stop stop-color="#DF96AC" stop-opacity="0.69"></stop> <stop offset="0.526042" stop-color="#574D81" stop-opacity="0.6"></stop> <stop offset="1" stop-color="#191A1C"></stop> </radialGradient> <radialGradient id="paint3_radial_2954_80" cx="0" cy="0" r="1" gradientUnits="userSpaceOnUse" gradientTransform="translate(745.499 365.974) rotate(-178.741) scale(273.066 296.225)"> <stop stop-color="#DF96AC" stop-opacity="0.69"></stop> <stop offset="0.526042" stop-color="#574D81" stop-opacity="0.6"></stop> <stop offset="1" stop-color="#191A1C"></stop> </radialGradient> <radialGradient id="paint4_radial_2954_80" cx="0" cy="0" r="1" gradientUnits="userSpaceOnUse" gradientTransform="translate(745.499 365.974) rotate(-178.741) scale(273.066 296.225)"> <stop stop-color="#DF96AC" stop-opacity="0.69"></stop> <stop offset="0.526042" stop-color="#574D81" stop-opacity="0.6"></stop> <stop offset="1" stop-color="#191A1C"></stop> </radialGradient> <radialGradient id="paint5_radial_2954_80" cx="0" cy="0" r="1" gradientUnits="userSpaceOnUse" gradientTransform="translate(745.499 365.974) rotate(-178.741) scale(273.066 296.225)"> <stop stop-color="#DF96AC" stop-opacity="0.69"></stop> <stop offset="0.526042" stop-color="#574D81" stop-opacity="0.6"></stop> <stop offset="1" stop-color="#191A1C"></stop> </radialGradient> <radialGradient id="paint6_radial_2954_80" cx="0" cy="0" r="1" gradientUnits="userSpaceOnUse" gradientTransform="translate(745.499 365.974) rotate(-178.741) scale(273.066 296.225)"> <stop stop-color="#DF96AC" stop-opacity="0.69"></stop> <stop offset="0.526042" stop-color="#574D81" stop-opacity="0.6"></stop> <stop offset="1" stop-color="#191A1C"></stop> </radialGradient> <radialGradient id="paint7_radial_2954_80" cx="0" cy="0" r="1" gradientUnits="userSpaceOnUse" gradientTransform="translate(745.499 365.974) rotate(-178.741) scale(273.066 296.225)"> <stop stop-color="#DF96AC" stop-opacity="0.69"></stop> <stop offset="0.526042" stop-color="#574D81" stop-opacity="0.6"></stop> <stop offset="1" stop-color="#191A1C"></stop> </radialGradient> <radialGradient id="paint8_radial_2954_80" cx="0" cy="0" r="1" gradientUnits="userSpaceOnUse" gradientTransform="translate(745.499 365.974) rotate(-178.741) scale(273.066 296.225)"> <stop stop-color="#DF96AC" stop-opacity="0.69"></stop> <stop offset="0.526042" stop-color="#574D81" stop-opacity="0.6"></stop> <stop offset="1" stop-color="#191A1C"></stop> </radialGradient> <radialGradient id="paint9_radial_2954_80" cx="0" cy="0" r="1" gradientUnits="userSpaceOnUse" gradientTransform="translate(745.499 365.974) rotate(-178.741) scale(273.066 296.225)"> <stop stop-color="#DF96AC" stop-opacity="0.69"></stop> <stop offset="0.526042" stop-color="#574D81" stop-opacity="0.6"></stop> <stop offset="1" stop-color="#191A1C"></stop> </radialGradient> <radialGradient id="paint10_radial_2954_80" cx="0" cy="0" r="1" gradientUnits="userSpaceOnUse" gradientTransform="translate(745.499 365.974) rotate(-178.741) scale(273.066 296.225)"> <stop stop-color="#DF96AC" stop-opacity="0.69"></stop> <stop offset="0.526042" stop-color="#574D81" stop-opacity="0.6"></stop> <stop offset="1" stop-color="#191A1C"></stop> </radialGradient> <radialGradient id="paint11_radial_2954_80" cx="0" cy="0" r="1" gradientUnits="userSpaceOnUse" gradientTransform="translate(745.499 365.974) rotate(-178.741) scale(273.066 296.225)"> <stop stop-color="#DF96AC" stop-opacity="0.69"></stop> <stop offset="0.526042" stop-color="#574D81" stop-opacity="0.6"></stop> <stop offset="1" stop-color="#191A1C"></stop> </radialGradient> <radialGradient id="paint12_radial_2954_80" cx="0" cy="0" r="1" gradientUnits="userSpaceOnUse" gradientTransform="translate(745.499 365.974) rotate(-178.741) scale(273.066 296.225)"> <stop stop-color="#DF96AC" stop-opacity="0.69"></stop> <stop offset="0.526042" stop-color="#574D81" stop-opacity="0.6"></stop> <stop offset="1" stop-color="#191A1C"></stop> </radialGradient> <radialGradient id="paint13_radial_2954_80" cx="0" cy="0" r="1" gradientUnits="userSpaceOnUse" gradientTransform="translate(745.499 365.974) rotate(-178.741) scale(273.066 296.225)"> <stop stop-color="#DF96AC" stop-opacity="0.69"></stop> <stop offset="0.526042" stop-color="#574D81" stop-opacity="0.6"></stop> <stop offset="1" stop-color="#191A1C"></stop> </radialGradient> <radialGradient id="paint14_radial_2954_80" cx="0" cy="0" r="1" gradientUnits="userSpaceOnUse" gradientTransform="translate(745.499 365.974) rotate(-178.741) scale(273.066 296.225)"> <stop stop-color="#DF96AC" stop-opacity="0.69"></stop> <stop offset="0.526042" stop-color="#574D81" stop-opacity="0.6"></stop> <stop offset="1" stop-color="#191A1C"></stop> </radialGradient> <radialGradient id="paint15_radial_2954_80" cx="0" cy="0" r="1" gradientUnits="userSpaceOnUse" gradientTransform="translate(745.499 365.974) rotate(-178.741) scale(273.066 296.225)"> <stop stop-color="#DF96AC" stop-opacity="0.69"></stop> <stop offset="0.526042" stop-color="#574D81" stop-opacity="0.6"></stop> <stop offset="1" stop-color="#191A1C"></stop> </radialGradient> <radialGradient id="paint16_radial_2954_80" cx="0" cy="0" r="1" gradientUnits="userSpaceOnUse" gradientTransform="translate(745.499 365.974) rotate(-178.741) scale(273.066 296.225)"> <stop stop-color="#DF96AC" stop-opacity="0.69"></stop> <stop offset="0.526042" stop-color="#574D81" stop-opacity="0.6"></stop> <stop offset="1" stop-color="#191A1C"></stop> </radialGradient> <radialGradient id="paint17_radial_2954_80" cx="0" cy="0" r="1" gradientUnits="userSpaceOnUse" gradientTransform="translate(745.499 365.974) rotate(-178.741) scale(273.066 296.225)"> <stop stop-color="#DF96AC" stop-opacity="0.69"></stop> <stop offset="0.526042" stop-color="#574D81" stop-opacity="0.6"></stop> <stop offset="1" stop-color="#191A1C"></stop> </radialGradient> <linearGradient id="paint18_linear_2954_80" x1="356.479" y1="364.4" x2="1115.71" y2="539.054" gradientUnits="userSpaceOnUse"> <stop></stop> <stop offset="0.0455" stop-color="#373334"></stop> <stop offset="0.2475" stop-color="white"></stop> <stop offset="0.3801" stop-color="#9F9D9D"></stop> <stop offset="0.4667" stop-color="#231F20"></stop> <stop offset="0.5966" stop-color="#231F20"></stop> <stop offset="0.6018" stop-color="#231F20"></stop> <stop offset="0.6481" stop-color="#2F2B2C"></stop> <stop offset="0.732" stop-color="#4E4C4C"></stop> <stop offset="0.7929" stop-color="#696767"></stop> <stop offset="0.9596" stop-color="#696767"></stop> <stop offset="1"></stop> </linearGradient> <radialGradient id="paint19_radial_2954_80" cx="0" cy="0" r="1" gradientUnits="userSpaceOnUse" gradientTransform="translate(759.999 353.7) rotate(171.649) scale(330.504 279.976)"> <stop stop-color="#DF96AC" stop-opacity="0.69"></stop> <stop offset="0.526042" stop-color="#574D81" stop-opacity="0.6"></stop> <stop offset="1" stop-color="#191A1C"></stop> </radialGradient> <radialGradient id="paint20_radial_2954_80" cx="0" cy="0" r="1" gradientUnits="userSpaceOnUse" gradientTransform="translate(759.999 353.7) rotate(171.649) scale(330.504 279.976)"> <stop stop-color="#DF96AC" stop-opacity="0.69"></stop> <stop offset="0.526042" stop-color="#574D81" stop-opacity="0.6"></stop> <stop offset="1" stop-color="#191A1C"></stop> </radialGradient> <radialGradient id="paint21_radial_2954_80" cx="0" cy="0" r="1" gradientUnits="userSpaceOnUse" gradientTransform="translate(759.999 353.7) rotate(171.649) scale(330.504 279.976)"> <stop stop-color="#DF96AC" stop-opacity="0.69"></stop> <stop offset="0.526042" stop-color="#574D81" stop-opacity="0.6"></stop> <stop offset="1" stop-color="#191A1C"></stop> </radialGradient> <radialGradient id="paint22_radial_2954_80" cx="0" cy="0" r="1" gradientUnits="userSpaceOnUse" gradientTransform="translate(759.999 353.7) rotate(171.649) scale(330.504 279.976)"> <stop stop-color="#DF96AC" stop-opacity="0.69"></stop> <stop offset="0.526042" stop-color="#574D81" stop-opacity="0.6"></stop> <stop offset="1" stop-color="#191A1C"></stop> </radialGradient> <radialGradient id="paint23_radial_2954_80" cx="0" cy="0" r="1" gradientUnits="userSpaceOnUse" gradientTransform="translate(759.999 353.7) rotate(171.649) scale(330.504 279.976)"> <stop stop-color="#DF96AC" stop-opacity="0.69"></stop> <stop offset="0.526042" stop-color="#574D81" stop-opacity="0.6"></stop> <stop offset="1" stop-color="#191A1C"></stop> </radialGradient> <radialGradient id="paint24_radial_2954_80" cx="0" cy="0" r="1" gradientUnits="userSpaceOnUse" gradientTransform="translate(759.999 353.7) rotate(171.649) scale(330.504 279.976)"> <stop stop-color="#DF96AC" stop-opacity="0.69"></stop> <stop offset="0.526042" stop-color="#574D81" stop-opacity="0.6"></stop> <stop offset="1" stop-color="#191A1C"></stop> </radialGradient> <radialGradient id="paint25_radial_2954_80" cx="0" cy="0" r="1" gradientUnits="userSpaceOnUse" gradientTransform="translate(759.999 353.7) rotate(171.649) scale(330.504 279.976)"> <stop stop-color="#DF96AC" stop-opacity="0.69"></stop> <stop offset="0.526042" stop-color="#574D81" stop-opacity="0.6"></stop> <stop offset="1" stop-color="#191A1C"></stop> </radialGradient> <radialGradient id="paint26_radial_2954_80" cx="0" cy="0" r="1" gradientUnits="userSpaceOnUse" gradientTransform="translate(759.999 353.7) rotate(171.649) scale(330.504 279.976)"> <stop stop-color="#DF96AC" stop-opacity="0.69"></stop> <stop offset="0.526042" stop-color="#574D81" stop-opacity="0.6"></stop> <stop offset="1" stop-color="#191A1C"></stop> </radialGradient> <radialGradient id="paint27_radial_2954_80" cx="0" cy="0" r="1" gradientUnits="userSpaceOnUse" gradientTransform="translate(759.999 353.7) rotate(171.649) scale(330.504 279.976)"> <stop stop-color="#DF96AC" stop-opacity="0.69"></stop> <stop offset="0.526042" stop-color="#574D81" stop-opacity="0.6"></stop> <stop offset="1" stop-color="#191A1C"></stop> </radialGradient> <radialGradient id="paint28_radial_2954_80" cx="0" cy="0" r="1" gradientUnits="userSpaceOnUse" gradientTransform="translate(759.999 353.7) rotate(171.649) scale(330.504 279.976)"> <stop stop-color="#DF96AC" stop-opacity="0.69"></stop> <stop offset="0.526042" stop-color="#574D81" stop-opacity="0.6"></stop> <stop offset="1" stop-color="#191A1C"></stop> </radialGradient> <radialGradient id="paint29_radial_2954_80" cx="0" cy="0" r="1" gradientUnits="userSpaceOnUse" gradientTransform="translate(759.999 353.7) rotate(171.649) scale(330.504 279.976)"> <stop stop-color="#DF96AC" stop-opacity="0.69"></stop> <stop offset="0.526042" stop-color="#574D81" stop-opacity="0.6"></stop> <stop offset="1" stop-color="#191A1C"></stop> </radialGradient> <radialGradient id="paint30_radial_2954_80" cx="0" cy="0" r="1" gradientUnits="userSpaceOnUse" gradientTransform="translate(759.999 353.7) rotate(171.649) scale(330.504 279.976)"> <stop stop-color="#DF96AC" stop-opacity="0.69"></stop> <stop offset="0.526042" stop-color="#574D81" stop-opacity="0.6"></stop> <stop offset="1" stop-color="#191A1C"></stop> </radialGradient> <radialGradient id="paint31_radial_2954_80" cx="0" cy="0" r="1" gradientUnits="userSpaceOnUse" gradientTransform="translate(759.999 353.7) rotate(171.649) scale(330.504 279.976)"> <stop stop-color="#DF96AC" stop-opacity="0.69"></stop> <stop offset="0.526042" stop-color="#574D81" stop-opacity="0.6"></stop> <stop offset="1" stop-color="#191A1C"></stop> </radialGradient> <radialGradient id="paint32_radial_2954_80" cx="0" cy="0" r="1" gradientUnits="userSpaceOnUse" gradientTransform="translate(759.999 353.7) rotate(171.649) scale(330.504 279.976)"> <stop stop-color="#DF96AC" stop-opacity="0.69"></stop> <stop offset="0.526042" stop-color="#574D81" stop-opacity="0.6"></stop> <stop offset="1" stop-color="#191A1C"></stop> </radialGradient> <radialGradient id="paint33_radial_2954_80" cx="0" cy="0" r="1" gradientUnits="userSpaceOnUse" gradientTransform="translate(759.999 353.7) rotate(171.649) scale(330.504 279.976)"> <stop stop-color="#DF96AC" stop-opacity="0.69"></stop> <stop offset="0.526042" stop-color="#574D81" stop-opacity="0.6"></stop> <stop offset="1" stop-color="#191A1C"></stop> </radialGradient> <radialGradient id="paint34_radial_2954_80" cx="0" cy="0" r="1" gradientUnits="userSpaceOnUse" gradientTransform="translate(759.999 353.7) rotate(171.649) scale(330.504 279.976)"> <stop stop-color="#DF96AC" stop-opacity="0.69"></stop> <stop offset="0.526042" stop-color="#574D81" stop-opacity="0.6"></stop> <stop offset="1" stop-color="#191A1C"></stop> </radialGradient> <radialGradient id="paint35_radial_2954_80" cx="0" cy="0" r="1" gradientUnits="userSpaceOnUse" gradientTransform="translate(759.999 353.7) rotate(171.649) scale(330.504 279.976)"> <stop stop-color="#DF96AC" stop-opacity="0.69"></stop> <stop offset="0.526042" stop-color="#574D81" stop-opacity="0.6"></stop> <stop offset="1" stop-color="#191A1C"></stop> </radialGradient> <linearGradient id="paint36_linear_2954_80" x1="594.851" y1="208.577" x2="625.339" y2="361.649" gradientUnits="userSpaceOnUse"> <stop stop-color="#FFC7E2"></stop> <stop offset="1" stop-color="#5C519B" stop-opacity="0.08"></stop> </linearGradient> <linearGradient id="paint37_linear_2954_80" x1="881.501" y1="319.2" x2="854.169" y2="189.755" gradientUnits="userSpaceOnUse"> <stop stop-color="#686079" stop-opacity="0.05"></stop> <stop offset="1" stop-color="#FFFCFD" stop-opacity="0.33"></stop> </linearGradient> <linearGradient id="paint38_linear_2954_80" x1="628.187" y1="263.787" x2="632.793" y2="310.487" gradientUnits="userSpaceOnUse"> <stop stop-color="#FFC7E2"></stop> <stop offset="1" stop-color="#5C519B" stop-opacity="0.08"></stop> </linearGradient> <linearGradient id="paint39_linear_2954_80" x1="759.721" y1="292.218" x2="754.745" y2="255.94" gradientUnits="userSpaceOnUse"> <stop stop-color="#686079" stop-opacity="0.05"></stop> <stop offset="1" stop-color="#FFEFF5" stop-opacity="0.1"></stop> </linearGradient> <linearGradient id="paint40_linear_2954_80" x1="631.312" y1="320.56" x2="636.267" y2="364.626" gradientUnits="userSpaceOnUse"> <stop stop-color="#FFC7E2"></stop> <stop offset="1" stop-color="#5C519B" stop-opacity="0.08"></stop> </linearGradient> <linearGradient id="paint41_linear_2954_80" x1="759.721" y1="349.693" x2="754.745" y2="313.415" gradientUnits="userSpaceOnUse"> <stop stop-color="#686079" stop-opacity="0.05"></stop> <stop offset="1" stop-color="#FFEFF5" stop-opacity="0.1"></stop> </linearGradient> <linearGradient id="paint42_linear_2954_80" x1="594.851" y1="266.052" x2="625.339" y2="419.124" gradientUnits="userSpaceOnUse"> <stop stop-color="#FFC7E2"></stop> <stop offset="1" stop-color="#5C519B" stop-opacity="0.08"></stop> </linearGradient> <linearGradient id="paint43_linear_2954_80" x1="881.501" y1="376.675" x2="854.169" y2="247.23" gradientUnits="userSpaceOnUse"> <stop stop-color="#686079" stop-opacity="0.05"></stop> <stop offset="1" stop-color="#FFFCFD" stop-opacity="0.33"></stop> </linearGradient> <linearGradient id="paint44_linear_2954_80" x1="594.851" y1="323.526" x2="625.339" y2="476.599" gradientUnits="userSpaceOnUse"> <stop stop-color="#FFC7E2"></stop> <stop offset="1" stop-color="#5C519B" stop-opacity="0.08"></stop> </linearGradient> <linearGradient id="paint45_linear_2954_80" x1="881.501" y1="434.149" x2="854.169" y2="304.705" gradientUnits="userSpaceOnUse"> <stop stop-color="#686079" stop-opacity="0.05"></stop> <stop offset="1" stop-color="#FFFCFD" stop-opacity="0.33"></stop> </linearGradient> <linearGradient id="paint46_linear_2954_80" x1="636.297" y1="385.432" x2="641.271" y2="425.621" gradientUnits="userSpaceOnUse"> <stop stop-color="#FFC7E2"></stop> <stop offset="1" stop-color="#5C519B" stop-opacity="0.08"></stop> </linearGradient> <linearGradient id="paint47_linear_2954_80" x1="759.721" y1="407.168" x2="754.745" y2="370.89" gradientUnits="userSpaceOnUse"> <stop stop-color="#686079" stop-opacity="0.05"></stop> <stop offset="1" stop-color="#FFEFF5" stop-opacity="0.1"></stop> </linearGradient> <linearGradient id="paint48_linear_2954_80" x1="637.377" y1="446.492" x2="642.181" y2="485.572" gradientUnits="userSpaceOnUse"> <stop stop-color="#FFC7E2"></stop> <stop offset="1" stop-color="#5C519B" stop-opacity="0.08"></stop> </linearGradient> <linearGradient id="paint49_linear_2954_80" x1="759.721" y1="464.642" x2="754.745" y2="428.365" gradientUnits="userSpaceOnUse"> <stop stop-color="#686079" stop-opacity="0.05"></stop> <stop offset="1" stop-color="#FFEFF5" stop-opacity="0.1"></stop> </linearGradient> <linearGradient id="paint50_linear_2954_80" x1="594.851" y1="381.001" x2="625.339" y2="534.074" gradientUnits="userSpaceOnUse"> <stop stop-color="#FFC7E2"></stop> <stop offset="1" stop-color="#5C519B" stop-opacity="0.08"></stop> </linearGradient> <linearGradient id="paint51_linear_2954_80" x1="881.501" y1="491.624" x2="854.169" y2="362.18" gradientUnits="userSpaceOnUse"> <stop stop-color="#686079" stop-opacity="0.05"></stop> <stop offset="1" stop-color="#FFFCFD" stop-opacity="0.33"></stop> </linearGradient> </defs> </svg> 