<?xml version="1.0" encoding="UTF-8"?> <svg xmlns="http://www.w3.org/2000/svg" width="116" height="83" viewBox="0 0 116 83" fill="none"> <rect x="0.5" y="0.5" width="115" height="82" rx="19.5" fill="#F0F0F0" stroke="#C7C7C7"></rect> <path fill-rule="evenodd" clip-rule="evenodd" d="M23.704 33.4493C24.411 33.3317 24.9998 32.7823 25.1313 32.0379C25.2983 31.0936 24.6663 30.1932 23.7199 30.0267C22.7736 29.8602 21.871 30.4907 21.7042 31.4349C21.5726 32.1793 21.9375 32.8965 22.5616 33.2483L22.3205 34.6123H17.173L16.932 33.2485C17.5562 32.8967 17.9212 32.1794 17.7896 31.4349C17.6228 30.4907 16.7203 29.8602 15.7739 30.0267C14.8275 30.1932 14.1955 31.0936 14.3624 32.0379C14.494 32.7822 15.0826 33.3316 15.7896 33.4493L15.9951 34.6123H13.6541C11.636 34.6123 10 36.2446 10 38.2581V46.1863C10 48.1999 11.636 49.8321 13.6541 49.8321H15.5584C15.8985 49.8321 16.1728 50.11 16.1674 50.4495L16.1407 52.1245C16.1315 52.705 16.7729 53.0629 17.2638 52.7512L20.3651 50.7821C21.3423 50.1617 22.4766 49.8321 23.6348 49.8321H25.8344C27.8526 49.8321 29.4885 48.1999 29.4885 46.1863V38.2581C29.4885 36.2446 27.8526 34.6123 25.8344 34.6123H23.4985L23.704 33.4493ZM24.1032 31.857C24.0364 32.2347 23.6754 32.4869 23.2968 32.4203C22.9183 32.3537 22.6655 31.9935 22.7323 31.6158C22.799 31.2381 23.1601 30.9859 23.5386 31.0525C23.9172 31.1191 24.1699 31.4793 24.1032 31.857ZM16.7615 31.6158C16.8283 31.9935 16.5755 32.3537 16.1969 32.4203C15.8184 32.4869 15.4574 32.2347 15.3906 31.857C15.3239 31.4793 15.5766 31.1191 15.9552 31.0525C16.3338 30.9859 16.6948 31.2381 16.7615 31.6158Z" fill="#5A34F0"></path> <path d="M14.0312 41.2094C14.0312 40.1068 14.9272 39.2129 16.0323 39.2129C17.1375 39.2129 18.0334 40.1068 18.0334 41.2094C18.0334 41.545 17.7607 41.817 17.4244 41.817C17.088 41.817 16.8153 41.545 16.8153 41.2094C16.8153 40.7779 16.4648 40.4282 16.0323 40.4282C15.5999 40.4282 15.2493 40.7779 15.2493 41.2094C15.2493 41.545 14.9766 41.817 14.6403 41.817C14.3039 41.817 14.0312 41.545 14.0312 41.2094Z" fill="white"></path> <path d="M15.0468 44.4214C15.1908 44.1182 15.554 43.9889 15.8579 44.1326C16.5382 44.4543 17.7762 44.8567 19.2095 44.9737C20.6408 45.0906 22.2202 44.9195 23.6272 44.149C23.9221 43.9875 24.2923 44.0951 24.4542 44.3893C24.616 44.6835 24.5082 45.0529 24.2133 45.2144C22.5347 46.1335 20.6969 46.3145 19.1102 46.1849C17.5255 46.0555 16.1447 45.6131 15.3362 45.2308C15.0323 45.087 14.9027 44.7247 15.0468 44.4214Z" fill="white"></path> <path d="M23.4565 39.2129C22.3515 39.2129 21.4555 40.1068 21.4555 41.2094C21.4555 41.545 21.7282 41.817 22.0646 41.817C22.4009 41.817 22.6736 41.545 22.6736 41.2094C22.6736 40.7779 23.0242 40.4282 23.4565 40.4282C23.889 40.4282 24.2396 40.778 24.2396 41.2094C24.2396 41.545 24.5123 41.817 24.8486 41.817C25.185 41.817 25.4577 41.545 25.4577 41.2094C25.4577 40.1067 24.5617 39.2129 23.4565 39.2129Z" fill="white"></path> <path d="M40.3164 36.0622H45.0884C46.033 36.0622 46.736 36.1026 47.1975 36.1833C47.6644 36.2587 48.0797 36.4202 48.4434 36.6678C48.8126 36.9154 49.1193 37.2464 49.3636 37.6609C49.6079 38.07 49.73 38.5302 49.73 39.0416C49.73 39.596 49.578 40.1047 49.274 40.5676C48.9754 41.0305 48.5683 41.3777 48.0525 41.6092C48.78 41.8191 49.3391 42.1771 49.73 42.6831C50.1209 43.1891 50.3163 43.7839 50.3163 44.4675C50.3163 45.0058 50.1888 45.5306 49.9336 46.0419C49.6839 46.5479 49.3391 46.9543 48.8994 47.2612C48.4651 47.5626 47.9276 47.7483 47.287 47.8183C46.8853 47.8613 45.9163 47.8883 44.3799 47.899H40.3164V36.0622ZM42.7268 38.0323V40.7695H44.3066C45.2458 40.7695 45.8294 40.756 46.0574 40.7291C46.47 40.6807 46.793 40.5407 47.0265 40.3092C47.2653 40.0724 47.3848 39.7629 47.3848 39.3807C47.3848 39.0147 47.2816 38.7186 47.0753 38.4925C46.8745 38.2611 46.5732 38.1211 46.1714 38.0727C45.9325 38.0458 45.2458 38.0323 44.1112 38.0323H42.7268ZM42.7268 42.7396V45.9047H44.9581C45.8267 45.9047 46.3777 45.8805 46.6112 45.832C46.9695 45.7674 47.2599 45.6113 47.4825 45.3637C47.7105 45.1107 47.8245 44.7743 47.8245 44.3544C47.8245 43.9992 47.7376 43.6977 47.5639 43.4501C47.3902 43.2025 47.1378 43.0222 46.8066 42.9091C46.4809 42.7961 45.7697 42.7396 44.6731 42.7396H42.7268Z" fill="#5A34F0"></path> <path d="M51.8147 43.4905C51.8147 42.7369 52.002 42.0075 52.3766 41.3024C52.7512 40.5972 53.2805 40.0589 53.9645 39.6875C54.654 39.3161 55.4222 39.1304 56.2691 39.1304C57.5774 39.1304 58.6496 39.553 59.4857 40.3981C60.3217 41.2378 60.7397 42.3009 60.7397 43.5874C60.7397 44.8846 60.3163 45.9612 59.4694 46.8171C58.6279 47.6676 57.5666 48.0928 56.2854 48.0928C55.4927 48.0928 54.7354 47.9152 54.0134 47.5599C53.2968 47.2046 52.7512 46.6852 52.3766 46.0016C52.002 45.3126 51.8147 44.4755 51.8147 43.4905ZM54.16 43.6116C54.16 44.4621 54.3635 45.1134 54.7707 45.5656C55.1779 46.0177 55.68 46.2438 56.2772 46.2438C56.8744 46.2438 57.3738 46.0177 57.7756 45.5656C58.1827 45.1134 58.3863 44.4567 58.3863 43.5955C58.3863 42.7557 58.1827 42.1098 57.7756 41.6576C57.3738 41.2055 56.8744 40.9794 56.2772 40.9794C55.68 40.9794 55.1779 41.2055 54.7707 41.6576C54.3635 42.1098 54.16 42.7611 54.16 43.6116Z" fill="#5A34F0"></path> <path d="M66.5052 39.3242V41.1328H64.9417V44.5886C64.9417 45.2884 64.9552 45.6974 64.9824 45.8159C65.0149 45.9289 65.0828 46.0231 65.186 46.0985C65.2945 46.1738 65.4248 46.2115 65.5768 46.2115C65.7886 46.2115 66.0953 46.1388 66.497 45.9935L66.6925 47.7537C66.1604 47.9798 65.5578 48.0928 64.8847 48.0928C64.4721 48.0928 64.1002 48.0255 63.769 47.8909C63.4379 47.751 63.1936 47.5734 63.0361 47.358C62.8841 47.1374 62.7783 46.8413 62.7185 46.4699C62.6697 46.2061 62.6453 45.6732 62.6453 44.8712V41.1328H61.5948V39.3242H62.6453V37.6205L64.9417 36.2964V39.3242H66.5052Z" fill="#5A34F0"></path> <path d="M68.0931 38.1615V36.0622H70.3814V38.1615H68.0931ZM68.0931 47.899V39.3242H70.3814V47.899H68.0931Z" fill="#5A34F0"></path> <path d="M71.7331 39.3242H73.0035V38.6783C73.0035 37.957 73.0795 37.4187 73.2315 37.0634C73.3889 36.7081 73.674 36.4202 74.0865 36.1995C74.5046 35.9734 75.0312 35.8604 75.6663 35.8604C76.3178 35.8604 76.9557 35.9572 77.58 36.151L77.2706 37.7336C76.9068 37.6474 76.5567 37.6044 76.2201 37.6044C75.8889 37.6044 75.6501 37.6824 75.5035 37.8385C75.3623 37.9893 75.2918 38.2826 75.2918 38.7186V39.3242H77.0018V41.1086H75.2918V47.899H73.0035V41.1086H71.7331V39.3242Z" fill="#5A34F0"></path> <path d="M77.2054 39.3242H79.6403L81.7086 45.4122L83.7282 39.3242H86.0979L83.0441 47.5761L82.4985 49.0698C82.2977 49.5704 82.105 49.9526 81.9204 50.2163C81.7412 50.4801 81.5322 50.6927 81.2933 50.8542C81.0599 51.0211 80.7695 51.1502 80.422 51.2417C80.08 51.3333 79.6918 51.379 79.2575 51.379C78.8178 51.379 78.3862 51.3333 77.9627 51.2417L77.7592 49.4654C78.1175 49.5354 78.4405 49.5704 78.7282 49.5704C79.2602 49.5704 79.6538 49.4143 79.909 49.1021C80.1641 48.7953 80.3596 48.4023 80.4953 47.9232L77.2054 39.3242Z" fill="#5A34F0"></path> <path d="M102.376 47.899H99.7541L98.7118 45.2103H93.9398L92.9545 47.899H90.3975L95.0473 36.0622H97.5962L102.376 47.899ZM97.9382 43.216L96.2932 38.8236L94.6809 43.216H97.9382Z" fill="#5A34F0"></path> <path d="M103.59 47.899V36.0622H106V47.899H103.59Z" fill="#5A34F0"></path> </svg> 