<?xml version="1.0" encoding="UTF-8"?> <svg xmlns="http://www.w3.org/2000/svg" width="920" height="342" viewBox="0 0 920 342" fill="none"> <rect x="0.5" y="0.5" width="919" height="341" rx="19.5" fill="url(#paint0_linear_2991_268)" fill-opacity="0.5" stroke="url(#paint1_linear_2991_268)"></rect> <mask id="mask0_2991_268" style="mask-type:alpha" maskUnits="userSpaceOnUse" x="0" y="0" width="920" height="342"> <rect width="920" height="342" rx="20" fill="url(#paint2_linear_2991_268)"></rect> <rect width="920" height="342" rx="20" fill="url(#paint3_linear_2991_268)"></rect> </mask> <g mask="url(#mask0_2991_268)"> <g filter="url(#filter0_f_2991_268)"> <ellipse rx="125.817" ry="96.9565" transform="matrix(-1.00159 0.0724229 0.486169 0.774685 863.161 48.2365)" fill="#EE5F56" fill-opacity="0.35"></ellipse> </g> <g filter="url(#filter1_f_2991_268)"> <ellipse rx="125.313" ry="64.4355" transform="matrix(-1.00154 0.0717805 0.489401 0.772769 149.039 192.701)" fill="#FFCCC9" fill-opacity="0.11"></ellipse> </g> <g filter="url(#filter2_f_2991_268)"> <path d="M-126.048 228.807C-159.161 268.907 -91.6434 335.412 24.7557 377.352C141.155 419.293 262.358 420.785 295.471 380.686C328.584 340.587 1208.99 491.901 1092.6 449.961C976.196 408.02 -92.9345 188.708 -126.048 228.807Z" fill="#FF9EBB" fill-opacity="0.13"></path> </g> <g filter="url(#filter3_f_2991_268)"> <path d="M765.292 -53.811C629.818 56.7831 779.709 26.3514 932.811 139.139C1085.91 251.926 650.617 235.452 1011.5 313.754C1061.47 279.259 1184.81 250.274 1031.71 137.487C878.608 24.6999 1014.64 -114.303 765.292 -53.811Z" fill="#2D54B9" fill-opacity="0.35"></path> </g> <g filter="url(#filter4_f_2991_268)"> <path d="M495.788 393.964C544.213 229.23 438.018 340.064 247.204 341.487C56.391 342.909 483.23 117.796 140.805 266.874C119.337 322.744 -24.2239 401.72 166.59 400.298C357.403 398.876 324.78 586.006 495.788 393.964Z" fill="#E09F53" fill-opacity="0.24"></path> </g> <path opacity="0.7" d="M331.088 458.145C331.088 458.145 304.613 416.962 261.107 373.118C217.602 329.273 168.139 362.469 110.135 341.93C52.1307 321.391 137.792 203.993 100.784 168.529C63.7763 133.064 -68.3537 197.27 -142.058 141.34C-215.763 85.4089 -175.197 22.4739 -175.197 22.4739M331.557 458.001C331.557 458.001 303.959 416.832 260.773 373.575C217.587 330.318 169.39 361.85 112.29 341.48C55.1895 321.109 138.473 206.41 101.455 171.37C64.4363 136.33 -65.4725 198.366 -139.045 141.907C-212.618 85.4483 -174.731 23.7013 -175.735 22.7881M332.052 457.889C332.052 457.889 303.333 416.733 260.465 374.039C217.598 331.344 170.641 361.214 114.445 341.037C58.2498 320.86 139.179 208.809 102.102 174.244C65.0246 139.68 -62.589 199.519 -136.055 142.533C-209.521 85.5469 -174.265 24.9365 -176.248 23.1092M332.522 457.77C332.522 457.77 302.679 416.602 260.131 374.495C217.583 332.389 171.866 360.571 116.601 340.611C61.3359 320.652 139.885 211.225 102.773 177.11C65.6613 142.996 -59.707 200.639 -133.041 143.125C-206.376 85.6112 -173.774 26.1631 -176.761 23.4226M332.992 457.634C332.992 457.634 302.027 416.48 259.798 374.96C217.569 333.441 173.118 359.959 118.757 340.169C64.3953 320.378 140.565 213.625 103.445 179.984C66.3243 146.344 -56.7995 201.766 -130.027 143.725C-203.255 85.6842 -173.283 27.3978 -177.274 23.744M333.461 457.515C333.461 457.515 301.374 416.374 259.439 375.418C217.504 334.462 174.318 359.317 120.862 339.72C67.4051 320.123 141.221 216.042 104.065 182.827C66.9095 149.611 -53.9682 202.863 -127.063 144.319C-200.158 85.7751 -172.842 28.6261 -177.812 24.0583M333.931 457.376C333.931 457.376 300.721 416.248 259.106 375.88C217.49 335.511 175.544 358.678 123.017 339.274C70.4901 319.87 141.927 218.438 104.711 185.673C67.496 152.909 -51.0856 203.989 -124.075 144.892C-197.064 85.7961 -172.351 29.8575 -178.35 24.3774M334.401 457.261C334.401 457.261 300.069 416.146 258.772 376.34C217.475 336.534 176.795 358.062 125.148 338.853C73.5259 319.642 142.583 220.859 105.359 188.568C68.1346 156.278 -48.2274 205.138 -121.085 145.514C-193.942 85.8893 -171.885 31.0882 -178.863 24.694M334.871 457.147C334.871 457.147 299.417 416.045 258.439 376.802C217.46 337.558 178.021 357.424 127.303 338.407C76.5859 319.39 143.289 223.28 106.03 191.414C68.77 159.549 -45.321 206.237 -118.046 146.11C-190.771 85.9824 -171.419 32.3205 -179.401 25.013M335.34 457.003C335.34 457.003 298.764 415.914 258.105 377.258C217.446 338.603 179.247 356.781 129.459 337.956C79.6706 319.132 143.969 225.672 106.7 194.255C69.4309 162.839 -42.4148 207.332 -115.033 146.677C-187.651 86.0226 -170.928 33.5471 -179.915 25.3265M335.81 456.887C335.81 456.887 298.111 415.787 257.746 377.719C217.381 339.652 180.473 356.165 131.565 337.536C82.6564 318.906 144.625 228.093 107.298 197.152C69.9697 166.211 -39.6057 208.508 -112.093 147.3C-184.58 86.0926 -170.462 34.7778 -180.428 25.6431M336.28 456.773C336.28 456.773 297.459 415.686 257.414 378.206C217.368 340.726 181.699 355.552 133.721 337.115C85.7422 318.678 145.332 230.513 107.969 200.023C70.6069 169.532 -36.6984 209.632 -109.078 147.922C-181.458 86.2123 -169.996 36.0101 -180.966 25.9621M336.749 456.629C336.749 456.629 296.806 415.555 257.079 378.638C217.352 341.72 182.924 354.884 135.85 336.64C88.7762 318.397 145.987 232.906 108.615 202.864C71.2428 172.823 -33.8419 210.728 -106.09 148.49C-178.338 86.2526 -169.505 37.2367 -181.479 26.2756M337.219 456.518C337.219 456.518 296.154 415.458 256.746 379.103C217.337 342.748 184.176 354.273 138.006 336.223C91.8372 318.173 146.693 235.33 109.287 205.738C71.8801 176.146 -30.9336 211.881 -103.076 149.091C-175.218 86.3007 -169.039 38.4722 -182.017 26.5978M337.689 456.399C337.689 456.399 295.502 415.352 256.388 379.585C217.274 343.819 185.377 353.655 140.137 335.798C94.8977 317.941 147.374 237.747 109.908 208.606C72.4421 179.465 -28.1014 213.003 -100.112 149.685C-172.122 86.3667 -168.572 39.7245 -182.53 26.9112M338.159 456.262C338.159 456.262 294.849 415.228 256.054 380.024C217.258 344.82 186.602 352.993 142.267 335.33C97.9321 317.666 148.03 240.146 110.554 211.454C73.0784 182.762 -25.2198 214.104 -97.1225 150.284C-169.025 86.464 -168.081 40.9576 -183.068 27.2319M338.629 456.144C338.629 456.144 294.197 415.124 255.721 380.507C217.245 345.891 187.854 352.401 144.423 334.906C100.993 317.436 148.736 242.564 111.226 214.322C73.7153 186.08 -22.3376 215.226 -94.1087 150.878C-165.88 86.5298 -167.615 42.1867 -183.581 27.5469M339.099 456.029C339.099 456.029 293.544 414.997 255.387 380.968C217.231 346.939 189.08 351.761 146.554 334.485C104.054 317.208 149.392 244.985 111.873 217.217C74.3541 189.449 -19.4535 216.4 -91.1186 151.5C-162.784 86.5996 -167.149 43.4179 -184.093 27.889M339.568 455.885C339.568 455.885 292.891 414.866 255.053 381.4C217.215 347.933 190.304 351.093 148.708 334.009C107.112 316.926 150.097 247.352 112.518 220.034C74.9393 192.717 -16.598 217.472 -88.1305 152.068C-159.663 86.6647 -166.658 44.6446 -184.632 28.2033M340.038 455.771C340.038 455.771 292.239 414.765 254.695 381.887C217.151 349.009 191.531 350.504 150.839 333.589C110.173 316.698 150.779 249.798 113.19 222.904C75.6005 196.011 -13.6907 218.595 -85.1165 152.665C-156.542 86.734 -166.168 45.8505 -185.145 28.496M340.532 455.63C340.532 455.63 291.61 414.638 254.385 382.322C217.16 350.007 192.781 349.839 152.995 333.143C113.208 316.446 151.459 252.194 113.836 225.776C76.2133 199.357 -10.8084 219.72 -82.1275 153.262C-153.446 86.8045 -165.702 47.0825 -185.659 28.8139M341.002 455.512C341.002 455.512 290.958 414.533 254.053 382.805C217.121 351.053 194.007 349.221 155.126 332.719C116.269 316.215 152.14 254.611 114.483 228.643C76.8255 202.675 -7.95007 220.867 -79.1374 153.881C-150.325 86.8951 -165.235 48.3355 -186.196 29.1537M341.472 455.401C341.472 455.401 290.306 414.435 253.719 383.269C217.132 352.104 195.259 348.61 157.281 332.275C119.328 315.941 152.846 257.035 115.129 231.492C77.411 205.95 -5.06856 221.97 -76.1491 154.457C-147.23 86.9436 -164.77 49.5454 -186.735 29.4504M341.942 455.256C341.942 455.256 289.653 414.303 253.385 383.7C217.116 353.097 196.484 347.94 159.436 331.824C122.388 315.683 153.527 259.426 115.8 234.357C78.0737 209.289 -2.18629 223.089 -73.1351 155.048C-144.084 87.0068 -164.303 50.7968 -187.247 29.7877M342.412 455.145C342.412 455.145 289 414.18 253.027 384.191C217.054 354.201 197.685 347.331 161.567 331.407C125.424 315.46 154.208 261.851 116.447 237.232C78.6858 212.614 0.696021 224.217 -70.1452 155.674C-140.986 87.1306 -163.812 52.0314 -187.76 30.1091M342.882 455.026C342.882 455.026 288.348 414.075 252.694 384.648C217.039 355.22 198.936 346.712 163.698 330.958C128.459 315.203 154.863 264.243 117.094 240.099C79.3236 215.954 3.55421 225.364 -67.1562 156.267C-137.867 87.1708 -163.346 53.2589 -188.298 30.4234M343.351 454.883C343.351 454.883 287.695 413.945 252.36 385.105C217.024 356.266 200.162 346.069 165.853 330.508C131.544 314.947 155.569 266.66 117.739 242.942C79.9089 219.223 6.43549 226.46 -64.1681 156.836C-134.772 87.2129 -162.88 54.4874 -188.812 30.7129M343.821 454.771C343.821 454.771 287.043 413.846 252.027 385.569C217.01 357.292 201.389 345.457 168.009 330.089C134.605 314.721 156.276 269.083 118.411 245.814C80.5462 222.545 9.31818 227.587 -61.1537 157.435C-131.626 87.2835 -162.389 55.7204 -189.325 31.0327M344.291 454.652C344.291 454.652 286.391 413.741 251.668 386.027C216.945 358.338 202.614 344.815 170.114 329.641C137.614 314.466 156.906 271.477 119.032 248.682C81.1588 225.888 12.1752 228.708 -58.1891 158.055C-128.553 87.4008 -161.947 56.9743 -189.887 31.3733M344.76 454.516C344.76 454.516 285.738 413.618 251.334 386.491C216.931 359.365 203.84 344.179 172.27 329.197C140.699 314.216 157.612 273.9 119.703 251.531C81.7944 229.161 15.0578 229.836 -55.1756 158.629C-125.409 87.4226 -161.457 58.1834 -190.376 31.6684M345.23 454.397C345.23 454.397 285.086 413.513 251 386.949C216.915 360.385 205.066 343.561 174.4 328.773C143.735 313.986 158.293 276.318 120.326 254.424C82.358 232.53 17.9157 230.983 -52.211 159.249C-122.338 87.5149 -160.991 59.4115 -190.914 32.0082M345.699 454.258C345.699 454.258 284.432 413.362 250.667 387.411C216.876 361.435 206.316 342.922 176.556 328.328C146.795 313.733 158.974 278.715 120.996 257.27C83.0191 235.825 20.7972 232.083 -49.1969 159.846C-119.191 87.6089 -160.5 60.6429 -191.427 32.3264M346.17 454.142C346.17 454.142 283.78 413.259 250.334 387.87C216.862 362.482 207.542 342.281 178.711 327.88C149.88 313.478 159.679 281.108 121.667 260.113C83.6554 239.118 23.7045 233.205 -46.1837 160.416C-116.072 87.6268 -160.009 61.8721 -191.94 32.6175M346.64 454.028C346.64 454.028 283.128 413.158 249.975 388.333C216.822 363.508 208.743 341.669 180.817 327.461C152.891 313.253 160.336 283.556 122.29 263.011C84.2432 242.466 26.5627 234.357 -43.2188 161.04C-113 87.7239 -159.567 63.1307 -192.503 32.9629M347.109 453.885C347.109 453.885 282.475 413.028 249.641 388.79C216.808 364.552 209.994 341.025 182.972 327.011C155.951 312.996 161.017 285.948 122.936 265.853C84.8545 245.758 29.4192 235.453 -40.2296 161.633C-109.879 87.8139 -159.101 64.3582 -193.041 33.2772M347.579 453.768C347.579 453.768 281.823 412.925 249.308 389.25C216.793 365.574 211.219 340.384 185.102 326.564C158.985 312.743 161.697 288.343 123.581 268.698C85.4655 249.052 32.3005 236.551 -37.2416 162.204C-106.784 87.8576 -158.636 65.5634 -193.555 33.5683M348.049 453.655C348.049 453.655 281.171 412.824 248.975 389.737C216.78 366.649 212.447 339.796 187.259 326.143C162.071 312.515 162.379 290.79 124.254 271.594C86.1285 252.398 35.1848 237.727 -34.2265 162.827C-103.638 87.9272 -158.144 66.8203 -194.067 33.912M348.518 453.511C348.518 453.511 280.517 412.694 248.64 390.169C216.738 367.645 213.696 339.127 189.414 325.693C165.131 312.259 163.084 293.181 124.924 274.435C86.7644 255.689 38.0909 238.821 -31.2127 163.419C-100.516 88.0173 -157.654 68.0221 -194.58 34.2254M349.013 453.397C349.013 453.397 279.89 412.569 248.307 390.632C216.725 368.695 214.922 338.49 191.544 325.249C168.166 312.009 163.765 295.579 125.546 277.309C87.3278 259.038 40.9236 239.949 -28.2483 164.019C-97.4203 88.0893 -157.212 69.2814 -195.118 34.5458M349.483 453.28C349.483 453.28 279.237 412.464 247.974 391.115C216.711 369.766 216.149 337.898 193.7 324.825C171.252 311.777 164.446 298.022 126.218 280.176C87.9887 262.33 43.8307 241.07 -25.2345 164.613C-94.2996 88.156 -156.721 70.5096 -195.631 34.8608M349.953 453.142C349.953 453.142 278.585 412.34 247.64 391.554C216.695 370.767 217.399 337.236 195.83 324.382C174.262 311.528 165.127 300.421 126.863 283.024C88.6009 265.653 46.6882 242.198 -22.2453 165.213C-91.1787 88.2275 -156.23 71.7426 -196.144 35.1806M350.422 453.023C350.422 453.023 277.932 412.235 247.307 392.035C216.657 371.837 218.625 336.617 197.986 323.956C177.348 311.296 165.833 302.837 127.536 285.915C89.2386 268.994 49.5962 243.342 -19.2305 165.83C-88.0572 88.3176 -155.764 72.9701 -196.682 35.4948M350.892 452.886C350.892 452.886 277.28 412.11 246.948 392.475C216.616 372.839 219.826 335.981 200.116 323.488C180.382 311.021 166.488 305.211 128.156 288.74C89.8243 272.268 52.4272 244.421 -16.2678 166.381C-84.9628 88.3401 -155.298 74.204 -197.195 35.8146M351.362 452.77C351.362 452.77 276.627 412.007 246.614 392.934C216.602 373.886 221.076 335.34 202.247 323.066C183.417 310.792 167.17 307.655 128.802 291.609C90.4352 275.562 55.3092 245.544 -13.279 166.976C-81.8672 88.4087 -154.833 75.4091 -197.734 36.1066M351.832 452.65C351.832 452.65 275.975 411.901 246.282 393.415C216.588 374.929 222.303 334.72 204.403 322.639C186.503 310.559 167.851 310.071 129.475 294.499C91.099 278.926 58.2183 246.712 -10.2382 167.617C-78.6948 88.5209 -154.341 76.6597 -198.246 36.4439M352.301 452.513C352.301 452.513 275.321 411.753 245.947 393.854C216.573 375.956 223.528 334.084 206.557 322.171C189.561 310.259 168.555 312.445 130.145 297.322C91.7342 282.2 61.0988 247.79 -7.22597 168.166C-75.5508 88.5427 -153.826 77.868 -198.735 36.739M352.771 452.395C352.771 452.395 274.669 411.647 245.614 394.337C216.534 377.002 224.78 333.466 208.689 321.747C192.597 310.029 169.237 314.887 130.767 300.215C92.2974 285.544 63.9571 248.937 -4.26093 168.786C-72.479 88.6351 -153.384 79.1218 -199.273 37.0788M353.241 452.281C353.241 452.281 274.017 411.547 245.256 394.8C216.494 378.052 225.98 332.829 210.82 321.328C195.658 309.802 169.894 317.31 131.414 303.088C92.9343 288.865 66.8153 250.088 -1.27103 169.409C-69.3574 88.7305 -152.917 80.3796 -199.81 37.4233M353.71 452.14C353.71 452.14 273.364 411.419 244.921 395.234C216.479 379.049 227.206 332.188 212.949 320.855C198.692 309.523 170.573 319.679 132.059 305.907C93.5447 292.134 69.696 251.161 1.71639 169.955C-66.2632 88.7486 -152.452 81.5592 -200.349 37.6898M354.18 452.026C354.18 452.026 272.712 411.318 244.589 395.721C216.465 380.124 228.457 331.574 215.105 320.435C201.753 309.296 171.279 322.101 132.731 308.803C94.1833 295.505 72.579 252.311 4.73117 170.577C-63.1167 88.8432 -151.961 82.8162 -200.837 38.0326M354.65 451.908C354.65 451.908 272.06 411.213 244.255 396.178C216.45 381.144 229.683 330.931 217.261 320.01C204.839 309.089 171.961 324.543 133.378 311.67C94.7945 298.797 75.4613 253.432 7.72106 171.196C-60.0192 88.9596 -151.494 84.0692 -201.374 38.3724M355.12 451.769C355.12 451.769 271.407 411.087 243.921 396.64C216.411 382.194 230.909 330.317 219.391 319.565C207.874 308.813 172.642 326.94 134.024 314.542C95.4074 302.144 78.3195 254.583 10.7101 171.794C-56.8993 89.0046 -151.003 85.3006 -201.912 38.6915" stroke="url(#paint4_linear_2991_268)" stroke-width="0.2447" stroke-miterlimit="10"></path> <path opacity="0.7" d="M984.485 132.64C984.485 132.64 960.793 97.4496 922.299 60.2665C883.806 23.0834 841.566 52.7492 790.94 36.0216C740.314 19.294 812.366 -83.9805 779.655 -114.023C746.944 -144.066 633.66 -86.0184 568.783 -133.117C503.906 -180.216 537.892 -235.481 537.892 -235.481M984.889 132.507C984.889 132.507 960.225 97.3486 922.019 60.6685C883.812 23.9885 842.639 52.1899 792.799 35.5918C742.959 18.9937 813.001 -81.8993 780.288 -111.574C747.576 -141.25 636.176 -85.1223 571.404 -132.681C506.631 -180.239 538.318 -234.426 537.432 -235.199M985.316 132.4C985.316 132.4 959.68 97.2744 921.76 61.0759C883.84 24.8774 843.711 51.6156 794.658 35.1686C745.606 18.7216 813.656 -79.8342 780.902 -109.096C748.147 -138.358 638.695 -84.1765 574.005 -132.194C509.316 -180.211 538.745 -233.365 536.993 -234.911M985.72 132.289C985.72 132.289 959.112 97.1734 921.479 61.4779C883.847 25.7824 844.76 51.0359 796.518 34.7603C748.275 18.4848 814.312 -77.7542 781.536 -106.626C748.759 -135.497 641.212 -83.2589 576.627 -131.736C512.042 -180.213 539.192 -232.311 536.554 -234.63M986.125 132.162C986.125 132.162 958.544 97.0791 921.199 61.8867C883.854 26.6943 845.833 50.4833 798.377 34.3373C750.921 18.1913 814.946 -75.6877 782.17 -104.148C749.395 -132.609 643.752 -82.3356 579.249 -131.271C514.747 -180.207 539.641 -231.251 536.116 -234.342M986.529 132.051C986.529 132.051 957.977 96.9995 920.897 62.2898C883.816 27.5801 846.861 49.9048 800.192 33.9099C753.523 17.915 815.558 -73.6053 782.76 -101.697C749.962 -129.789 646.225 -81.4371 581.828 -130.811C517.431 -180.185 540.045 -230.195 535.655 -234.06M986.934 131.922C986.934 131.922 957.409 96.9025 920.616 62.6959C883.823 28.4892 847.912 49.3292 802.051 33.4842C756.191 17.6392 816.213 -71.5427 783.372 -99.243C750.531 -126.943 648.743 -80.5154 584.427 -130.37C520.112 -180.224 540.493 -229.137 535.195 -233.774M987.339 131.813C987.339 131.813 956.842 96.8257 920.336 63.1006C883.829 29.3754 848.984 48.7725 803.89 33.0798C758.817 17.3859 816.826 -69.4575 783.986 -96.7471C751.146 -124.037 651.24 -79.5723 587.029 -129.886C522.818 -180.2 540.92 -228.079 534.757 -233.49M987.744 131.705C987.744 131.705 956.276 96.7503 920.055 63.5067C883.835 30.263 850.034 48.1969 805.749 32.6541C761.463 17.1113 817.483 -67.3734 784.62 -94.2941C751.757 -121.215 653.778 -78.6733 589.672 -129.426C525.567 -180.178 541.346 -227.02 534.296 -233.204M988.147 131.572C988.147 131.572 955.707 96.6492 919.775 63.9086C883.842 31.168 851.084 47.6172 807.607 32.2243C764.131 16.8314 818.116 -65.3137 785.253 -91.8452C752.39 -118.377 656.316 -77.7784 592.293 -128.989C528.27 -180.2 541.794 -225.967 533.858 -232.923M988.552 131.463C988.552 131.463 955.139 96.5508 919.472 64.3145C883.805 32.0782 852.135 47.0617 809.424 31.8211C766.713 16.5805 818.729 -63.2286 785.823 -89.3469C752.918 -115.465 658.771 -76.8113 594.851 -128.504C530.932 -180.196 542.22 -224.909 533.419 -232.639M988.958 131.356C988.958 131.356 954.573 96.4754 919.193 64.7422C883.814 33.0089 853.186 46.5077 811.284 31.417C769.382 16.3263 819.385 -61.1444 786.458 -86.8723C753.531 -112.6 661.31 -75.8908 597.474 -128.02C533.639 -180.15 542.646 -223.85 532.959 -232.353M989.361 131.222C989.361 131.222 954.004 96.3743 918.911 65.1225C883.818 33.8708 854.235 45.9063 813.12 30.9667C772.005 16.0271 819.996 -59.0836 787.07 -84.4223C754.143 -109.761 663.804 -74.9935 600.073 -127.583C536.342 -180.172 543.094 -222.797 532.52 -232.072M989.767 131.118C989.767 131.118 953.438 96.3016 918.631 65.5313C883.824 34.7611 855.308 45.3538 814.98 30.5653C774.653 15.7768 820.653 -56.9967 787.704 -81.9449C754.756 -106.893 666.345 -74.0487 602.696 -127.118C539.046 -180.188 543.521 -221.735 532.06 -231.783M990.172 131.006C990.172 131.006 952.871 96.222 918.33 65.9561C883.789 35.6901 856.337 44.7969 816.818 30.1583C777.3 15.5197 821.287 -54.9155 788.295 -79.4721C755.303 -104.029 668.819 -73.1287 605.274 -126.658C541.729 -180.188 543.948 -220.659 531.621 -231.502M990.576 130.878C990.576 130.878 952.303 96.1264 918.048 66.3419C883.794 36.5575 857.386 44.2011 818.655 29.7135C779.923 15.226 821.899 -52.8491 788.907 -77.0166C755.915 -101.184 671.336 -72.2271 607.875 -126.194C544.414 -180.16 544.396 -219.599 531.161 -231.215M990.981 130.768C990.981 130.768 951.736 96.0482 917.769 66.7668C883.802 37.4854 858.46 43.6646 820.515 29.3067C782.571 14.9702 822.555 -50.7677 789.542 -74.5447C756.528 -98.3218 673.853 -71.3081 610.497 -125.734C547.14 -180.161 544.822 -218.543 530.722 -230.932M991.386 130.66C991.386 130.66 951.168 95.9504 917.488 67.1721C883.809 38.3937 859.51 43.0881 822.353 28.9028C785.218 14.7163 823.168 -48.6821 790.156 -72.0483C757.143 -95.4145 676.373 -70.3441 613.098 -125.251C549.823 -180.157 545.249 -217.485 530.285 -230.627M991.79 130.527C991.79 130.527 950.6 95.8493 917.206 67.5524C883.813 39.2556 860.559 42.4868 824.211 28.4514C787.863 14.416 823.822 -46.6451 790.766 -69.6198C757.71 -92.5944 678.867 -69.4684 615.697 -124.813C552.528 -180.158 545.697 -216.431 529.824 -230.344M992.195 130.418C992.195 130.418 950.033 95.7733 916.906 67.9808C883.778 40.1882 861.611 41.9538 826.049 28.0479C790.51 14.1624 824.458 -44.5388 791.401 -67.1458C758.343 -89.7527 681.406 -68.5483 618.319 -124.352C555.233 -180.155 546.143 -215.396 529.384 -230.081M992.62 130.288C992.62 130.288 949.487 95.6749 916.645 68.3638C883.804 41.0528 862.681 41.3552 827.908 27.622C793.135 13.8888 825.091 -42.4753 792.013 -64.6703C758.936 -86.8653 683.923 -67.6269 620.92 -123.889C557.916 -180.151 546.57 -214.337 528.946 -229.797M993.025 130.177C993.025 130.177 948.92 95.5959 916.366 68.7878C883.79 41.9594 863.732 40.7975 829.746 27.2154C795.782 13.6321 825.726 -40.3935 792.626 -62.1981C759.527 -84.0027 686.421 -66.686 623.521 -123.408C560.622 -180.13 546.997 -213.26 528.487 -229.492M993.43 130.072C993.43 130.072 948.353 95.5226 916.086 69.1961C883.818 42.8696 864.805 40.2445 831.605 26.7919C798.427 13.3381 826.382 -38.3072 793.238 -59.7417C760.094 -81.1763 688.937 -65.7835 626.121 -122.964C563.304 -180.145 547.422 -212.221 528.025 -229.225M993.834 129.937C993.834 129.937 947.785 95.4207 915.804 69.5757C883.823 43.7307 865.854 39.6423 833.464 26.3612C801.073 13.0585 827.015 -36.2484 793.873 -57.2721C760.73 -78.2959 691.455 -64.8668 628.742 -122.507C566.03 -180.148 547.85 -211.145 527.588 -228.924M994.239 129.833C994.239 129.833 947.217 95.3265 915.503 70.0073C883.789 44.6881 866.884 39.0922 835.303 25.961C803.699 12.8094 827.65 -34.1603 794.485 -54.7936C761.321 -75.427 693.972 -63.9423 631.344 -122.02C568.716 -180.098 548.298 -210.085 527.149 -228.636M994.644 129.721C994.644 129.721 946.65 95.2469 915.222 70.4092C883.795 45.5715 867.956 38.5328 837.14 25.5323C806.323 12.5318 828.262 -32.0994 795.098 -52.322C761.935 -72.5446 696.469 -63.0019 633.944 -121.561C571.419 -180.12 548.724 -209.03 526.689 -228.354M995.048 129.589C995.048 129.589 946.082 95.1466 914.942 70.812C883.801 46.4774 869.006 37.9539 838.998 25.1033C808.991 12.2528 828.918 -30.0186 795.71 -49.8711C762.502 -69.7237 698.985 -62.105 636.543 -121.123C574.101 -180.14 549.15 -207.974 526.249 -228.094M995.454 129.483C995.454 129.483 945.516 95.0726 914.662 71.2195C883.807 47.3663 870.058 37.4013 840.859 24.7006C811.639 12.0011 829.574 -27.933 796.345 -47.3952C763.115 -66.8573 701.503 -61.1819 639.166 -120.659C576.828 -180.137 549.598 -206.915 525.81 -227.807M995.858 129.371C995.858 129.371 944.949 94.9936 914.359 71.6231C883.771 48.2743 871.107 36.822 842.674 24.2736C814.241 11.7252 830.164 -25.8705 796.936 -44.9218C763.707 -63.9732 703.999 -60.2625 641.745 -120.177C579.492 -180.092 550.004 -205.837 525.329 -227.502M996.263 129.245C996.263 129.245 944.381 94.8988 914.079 72.0314C883.777 49.1641 872.157 36.2487 844.533 23.8502C816.909 11.4517 830.82 -23.7841 797.569 -42.4666C764.318 -61.1491 706.517 -59.3385 644.366 -119.735C582.216 -180.131 550.451 -204.798 524.911 -227.237M996.667 129.133C996.667 129.133 943.814 94.8198 913.798 72.4339C883.782 50.0481 873.208 35.691 846.371 23.4436C819.535 11.1962 831.455 -21.7024 798.161 -39.9717C764.868 -58.2411 709.014 -58.3977 646.946 -119.252C584.878 -180.107 550.877 -203.743 524.452 -226.933M997.071 129.004C997.071 129.004 943.245 94.7012 913.518 72.84C883.768 50.9584 874.28 35.1142 848.23 23.0179C822.181 10.9216 832.088 -19.6386 798.795 -37.5187C765.501 -55.3988 711.53 -57.4975 649.568 -118.791C587.606 -180.084 551.325 -202.685 524.013 -226.648M997.477 128.895C997.477 128.895 942.678 94.6239 913.237 73.2442C883.775 51.8656 875.33 34.5367 850.089 22.5903C824.849 10.6439 832.743 -17.5779 799.428 -35.0676C766.113 -52.5573 714.069 -56.5788 652.189 -118.352C590.308 -180.125 551.773 -201.63 523.574 -226.386M997.882 128.788C997.882 128.788 942.111 94.549 912.935 73.652C883.759 52.7549 876.359 33.9843 851.906 22.189C827.453 10.3937 833.357 -15.4693 800.02 -32.5686C766.684 -49.6679 716.567 -55.6338 654.769 -117.866C592.971 -180.098 552.179 -200.547 523.093 -226.077M998.285 128.655C998.285 128.655 941.543 94.4479 912.654 74.0539C883.766 53.6599 877.431 33.4034 853.765 21.7592C830.099 10.1149 833.991 -13.4096 800.632 -30.1185C767.274 -46.8274 719.061 -54.7366 657.369 -117.407C595.677 -180.077 552.605 -199.492 522.633 -225.794M998.69 128.545C998.69 128.545 940.976 94.3706 912.374 74.4581C883.771 54.5456 878.481 32.8259 855.602 21.3328C832.723 9.83966 834.624 -11.3477 801.244 -27.6662C767.864 -43.9847 721.578 -53.8382 659.968 -116.967C598.359 -180.096 553.03 -198.457 522.193 -225.533M999.096 128.438C999.096 128.438 940.41 94.2956 912.095 74.8862C883.78 55.4768 879.533 32.2939 857.462 20.9291C835.392 9.58591 835.26 -9.24033 801.88 -25.1696C768.499 -41.0989 724.098 -52.8729 662.592 -116.483C601.086 -180.093 553.48 -197.377 521.755 -225.226M999.499 128.305C999.499 128.305 939.841 94.1945 911.813 75.2666C883.763 56.3399 880.603 31.6914 859.321 20.4993C838.038 9.30718 835.914 -7.18186 802.513 -22.7207C769.111 -38.2596 726.635 -51.978 665.213 -116.025C603.791 -180.073 553.926 -196.345 521.316 -224.945M999.926 128.198C999.926 128.198 939.295 94.0975 911.532 75.6739C883.77 57.2502 881.654 31.1169 861.158 20.0759C840.663 9.03488 836.548 -5.11696 803.104 -20.2427C769.66 -35.3684 729.11 -51.0527 667.792 -115.56C606.475 -180.067 554.332 -195.262 520.856 -224.657M1000.33 128.087C1000.33 128.087 938.728 94.0193 911.253 76.0987C883.778 58.1781 882.706 30.5816 863.018 19.6689C843.332 8.77783 837.184 -3.01285 803.738 -17.7709C770.293 -32.5289 731.649 -50.1349 670.414 -115.101C609.179 -180.067 554.78 -194.207 520.418 -224.375M1000.74 127.96C1000.74 127.96 938.16 93.9237 910.971 76.4846C883.783 59.0455 883.776 29.9847 864.856 19.2458C845.935 8.50702 837.817 -0.94767 804.35 -15.3153C770.885 -29.6614 734.145 -49.2106 673.015 -114.636C611.884 -180.062 555.228 -193.148 519.979 -224.089M1001.14 127.848C1001.14 127.848 937.593 93.8441 910.692 76.9081C883.769 59.9733 884.827 29.4264 866.715 18.8375C848.604 8.24859 838.473 1.13232 804.986 -12.8233C771.498 -26.779 736.685 -48.2726 675.638 -114.157C614.59 -180.041 555.654 -192.093 519.519 -223.806M1001.54 127.72C1001.54 127.72 937.026 93.7486 910.389 77.2953C883.752 60.8419 885.856 28.8534 868.552 18.3929C851.227 7.95503 839.084 3.17715 805.575 -10.3881C772.066 -23.9533 739.158 -47.3902 678.214 -113.734C617.271 -180.079 556.081 -191.033 519.08 -223.52M1001.95 127.611C1001.95 127.611 936.458 93.6712 910.108 77.6994C883.759 61.7491 886.927 28.2747 870.39 17.988C853.853 7.70122 839.72 5.2821 806.188 -7.91429C772.656 -21.1107 741.675 -46.4704 680.814 -113.273C619.954 -180.076 556.506 -189.998 518.619 -223.257M1002.35 127.498C1002.35 127.498 935.892 93.5908 909.829 78.122C883.766 62.6533 887.978 27.7157 872.25 17.5788C856.522 7.442 840.354 7.36246 806.823 -5.42315C773.292 -18.2088 744.217 -45.5117 683.46 -112.774C622.704 -180.037 556.955 -188.923 518.181 -222.955M1002.76 127.371C1002.76 127.371 935.323 93.4745 909.547 78.5088C883.772 63.5431 889.028 27.1423 874.108 17.1338C859.165 7.1265 841.008 9.40575 807.455 -2.98945C773.903 -15.3847 746.732 -44.6308 686.08 -112.353C625.428 -180.076 557.423 -187.886 517.763 -222.691M1003.16 127.26C1003.16 127.26 934.756 93.3954 909.268 78.9328C883.757 64.4498 890.101 26.5834 875.946 16.7272C861.791 6.87104 841.644 11.509 808.048 -0.494553C774.452 -12.4982 749.229 -43.6899 688.66 -111.871C628.091 -180.052 557.829 -186.808 517.304 -222.387M1003.57 127.153C1003.57 127.153 934.189 93.3205 908.966 79.3406C883.742 65.3606 891.129 26.0095 877.785 16.3248C864.438 6.61846 842.257 13.5961 808.661 1.98167C775.065 -9.63271 751.726 -42.7449 691.262 -111.386C630.797 -180.027 558.257 -185.727 516.845 -222.078M1003.97 127.022C1003.97 127.022 933.621 93.2211 908.684 79.7227C883.747 66.2243 892.179 25.4315 879.621 15.8763C867.062 6.32108 842.889 15.6359 809.271 4.4119C775.654 -6.81207 754.241 -41.8687 693.86 -110.968C633.478 -180.068 558.681 -184.713 516.382 -221.838M1004.38 126.915C1004.38 126.915 933.054 93.1462 908.405 80.1508C883.755 67.1555 893.252 24.8768 881.481 15.4727C869.709 6.06857 843.545 17.7206 809.907 6.90856C776.269 -3.90344 756.76 -40.9249 696.483 -110.484C636.205 -180.044 559.13 -183.634 515.966 -221.532M1004.78 126.804C1004.78 126.804 932.487 93.0672 908.124 80.5533C883.761 68.0395 894.302 24.2975 883.341 15.0649C872.379 5.83221 844.181 19.8238 810.52 9.38068C776.859 -1.06246 759.277 -40.0068 699.084 -110.003C638.891 -180 559.557 -182.557 515.507 -221.227M1005.19 126.675C1005.19 126.675 931.919 92.9701 907.843 80.9593C883.746 68.9498 895.353 23.7435 885.178 14.6404C875.002 5.53725 844.814 21.8876 811.133 11.8564C777.451 1.82525 761.775 -39.0622 701.685 -109.54C641.595 -180.019 560.005 -181.499 515.047 -220.941" stroke="url(#paint5_linear_2991_268)" stroke-width="0.2447" stroke-miterlimit="10"></path> </g> <defs> <filter id="filter0_f_2991_268" x="548.58" y="-207.433" width="629.163" height="511.338" filterUnits="userSpaceOnUse" color-interpolation-filters="sRGB"> <feFlood flood-opacity="0" result="BackgroundImageFix"></feFlood> <feBlend mode="normal" in="SourceGraphic" in2="BackgroundImageFix" result="shape"></feBlend> <feGaussianBlur stdDeviation="90" result="effect1_foregroundBlur_2991_268"></feGaussianBlur> </filter> <filter id="filter1_f_2991_268" x="-160.398" y="-37.9078" width="618.876" height="461.217" filterUnits="userSpaceOnUse" color-interpolation-filters="sRGB"> <feFlood flood-opacity="0" result="BackgroundImageFix"></feFlood> <feBlend mode="normal" in="SourceGraphic" in2="BackgroundImageFix" result="shape"></feBlend> <feGaussianBlur stdDeviation="90" result="effect1_foregroundBlur_2991_268"></feGaussianBlur> </filter> <filter id="filter2_f_2991_268" x="-314.466" y="43.9342" width="1597.66" height="593.447" filterUnits="userSpaceOnUse" color-interpolation-filters="sRGB"> <feFlood flood-opacity="0" result="BackgroundImageFix"></feFlood> <feBlend mode="normal" in="SourceGraphic" in2="BackgroundImageFix" result="shape"></feBlend> <feGaussianBlur stdDeviation="90" result="effect1_foregroundBlur_2991_268"></feGaussianBlur> </filter> <filter id="filter3_f_2991_268" x="532.4" y="-248.478" width="753.5" height="742.232" filterUnits="userSpaceOnUse" color-interpolation-filters="sRGB"> <feFlood flood-opacity="0" result="BackgroundImageFix"></feFlood> <feBlend mode="normal" in="SourceGraphic" in2="BackgroundImageFix" result="shape"></feBlend> <feGaussianBlur stdDeviation="90" result="effect1_foregroundBlur_2991_268"></feGaussianBlur> </filter> <filter id="filter4_f_2991_268" x="-111.166" y="35.8394" width="798.613" height="624.825" filterUnits="userSpaceOnUse" color-interpolation-filters="sRGB"> <feFlood flood-opacity="0" result="BackgroundImageFix"></feFlood> <feBlend mode="normal" in="SourceGraphic" in2="BackgroundImageFix" result="shape"></feBlend> <feGaussianBlur stdDeviation="90" result="effect1_foregroundBlur_2991_268"></feGaussianBlur> </filter> <linearGradient id="paint0_linear_2991_268" x1="110.638" y1="-141.183" x2="314.078" y2="543.25" gradientUnits="userSpaceOnUse"> <stop stop-color="#252426" stop-opacity="0.7"></stop> <stop offset="1" stop-color="#807B9E" stop-opacity="0.12"></stop> </linearGradient> <linearGradient id="paint1_linear_2991_268" x1="1006.96" y1="486" x2="660.86" y2="-362.512" gradientUnits="userSpaceOnUse"> <stop stop-color="#8778A7" stop-opacity="0.05"></stop> <stop offset="1" stop-color="#FFEFF5" stop-opacity="0.28"></stop> </linearGradient> <linearGradient id="paint2_linear_2991_268" x1="506.397" y1="155.742" x2="495.503" y2="-52.6146" gradientUnits="userSpaceOnUse"> <stop stop-color="#141516"></stop> <stop offset="1" stop-color="#141516" stop-opacity="0"></stop> </linearGradient> <linearGradient id="paint3_linear_2991_268" x1="306.534" y1="-54.2458" x2="735.562" y2="508.808" gradientUnits="userSpaceOnUse"> <stop stop-color="#292524" stop-opacity="0.62"></stop> <stop offset="1" stop-color="#2D2837"></stop> </linearGradient> <linearGradient id="paint4_linear_2991_268" x1="386.246" y1="430.87" x2="26.4416" y2="-112.847" gradientUnits="userSpaceOnUse"> <stop stop-color="#AFDDF9" stop-opacity="0.71"></stop> <stop offset="0.2946" stop-color="#BD9066"></stop> <stop offset="0.5919" stop-color="#CECDFF"></stop> <stop offset="0.8514" stop-color="#AE9AFF"></stop> <stop offset="1" stop-color="#11E9EF"></stop> </linearGradient> <linearGradient id="paint5_linear_2991_268" x1="1031.77" y1="107.999" x2="710.085" y2="-356.412" gradientUnits="userSpaceOnUse"> <stop stop-color="#AFDDF9" stop-opacity="0.71"></stop> <stop offset="0.2946" stop-color="#6766BD"></stop> <stop offset="0.5919" stop-color="#CECDFF"></stop> <stop offset="0.8514" stop-color="#AE9AFF"></stop> <stop offset="1" stop-color="#11E9EF"></stop> </linearGradient> </defs> </svg> 