<?xml version="1.0" encoding="UTF-8"?> <svg xmlns="http://www.w3.org/2000/svg" width="233" height="200" viewBox="0 0 233 200" fill="none"> <rect x="0.5" y="0.5" width="232" height="199" fill="#141516" stroke="#C7C7C7"></rect> <path d="M166.383 75H66.6174C64.0673 75 62 77.0727 62 79.6295V121.371C62 123.927 64.0673 126 66.6174 126H166.383C168.933 126 171 123.927 171 121.371V79.6295C171 77.0727 168.933 75 166.383 75Z" fill="#1C00A1"></path> <path d="M117.237 113.313C115.643 113.313 114.146 113.153 112.745 112.832C111.344 112.512 110.136 112.02 109.121 111.355C108.105 110.691 107.322 109.849 106.769 108.829C106.216 107.811 105.979 106.591 106.056 105.17H111.415C111.363 105.949 111.479 106.602 111.762 107.128C112.044 107.656 112.456 108.085 112.995 108.417C113.535 108.749 114.177 108.984 114.923 109.122C115.668 109.259 116.49 109.328 117.39 109.328C118.084 109.328 118.746 109.271 119.376 109.156C120.006 109.042 120.564 108.853 121.053 108.589C121.541 108.326 121.933 107.994 122.229 107.593C122.524 107.192 122.672 106.705 122.672 106.132C122.672 105.697 122.582 105.32 122.402 104.998C122.222 104.678 121.901 104.369 121.439 104.071C120.976 103.773 120.359 103.475 119.588 103.177C118.817 102.88 117.853 102.536 116.697 102.146C115.463 101.757 114.364 101.357 113.4 100.944C112.437 100.532 111.62 100.063 110.952 99.5352C110.283 99.0087 109.776 98.396 109.429 97.6973C109.082 96.9987 108.909 96.1684 108.909 95.2062C108.909 94.0377 109.146 92.9898 109.622 92.0623C110.097 91.1344 110.778 90.3501 111.665 89.7086C112.552 89.0674 113.612 88.5806 114.846 88.2483C116.08 87.9164 117.454 87.75 118.971 87.75C120.384 87.75 121.728 87.8876 123 88.1626C124.272 88.4374 125.377 88.8837 126.315 89.5022C127.253 90.1207 127.992 90.9168 128.532 91.8902C129.072 92.8642 129.304 94.0377 129.226 95.4122H123.944C123.996 94.1982 123.578 93.2708 122.692 92.6291C121.805 91.9882 120.5 91.6669 118.778 91.6669C118.264 91.6669 117.737 91.7132 117.198 91.8046C116.658 91.8962 116.163 92.0569 115.714 92.2854C115.264 92.5147 114.89 92.8128 114.595 93.1789C114.3 93.5456 114.152 94.0034 114.152 94.5532C114.152 94.9656 114.235 95.315 114.402 95.6011C114.569 95.8879 114.865 96.1569 115.29 96.4089C115.714 96.661 116.291 96.907 117.024 97.1472C117.757 97.3878 118.663 97.6801 119.742 98.0235C121.104 98.4359 122.312 98.877 123.366 99.3464C124.42 99.816 125.3 100.343 126.007 100.927C126.714 101.511 127.247 102.169 127.607 102.903C127.967 103.636 128.147 104.495 128.147 105.479C128.147 106.785 127.87 107.925 127.318 108.898C126.765 109.872 126.007 110.685 125.043 111.338C124.079 111.991 122.929 112.483 121.593 112.815C120.256 113.147 118.803 113.313 117.237 113.313Z" fill="white"></path> <path fill-rule="evenodd" clip-rule="evenodd" d="M86.3947 88.1968H97.4595C98.6159 88.1968 99.6762 88.317 100.64 88.5575C101.604 88.7978 102.445 89.1818 103.165 89.7085C103.833 90.1894 104.36 90.7968 104.746 91.5298C105.131 92.2629 105.324 93.1331 105.324 94.141C105.324 95.584 104.881 96.7983 103.994 97.7829C103.107 98.768 101.854 99.4665 100.235 99.8788V99.9817C103.088 100.692 104.501 102.399 104.476 105.101C104.476 107.094 103.628 108.812 101.931 110.255C100.981 111.058 99.8557 111.676 98.5581 112.111C97.2598 112.546 95.6726 112.764 93.7968 112.764H81.0742L86.3947 88.1968ZM87.4741 108.675H93.8355C95.3776 108.675 96.6045 108.372 97.5171 107.764C98.4291 107.158 98.8857 106.201 98.8857 104.895C98.8857 103.842 98.5256 103.057 97.8064 102.542C97.0863 102.026 96.1486 101.769 94.9919 101.769H88.9774L87.4741 108.675ZM95.493 98.1266C96.0583 98.1266 96.6114 98.0809 97.1508 97.9892C97.6906 97.8978 98.166 97.726 98.5774 97.4736C98.988 97.2219 99.3224 96.8781 99.5797 96.4431C99.8364 96.0082 99.9651 95.4584 99.9651 94.7937C99.9651 94.0154 99.7148 93.3906 99.2134 92.9213C98.7122 92.452 97.8835 92.2166 96.7268 92.2166H91.0596L89.7871 98.1266H95.493Z" fill="white"></path> <path d="M136.147 112.832C137.548 113.153 139.045 113.313 140.638 113.313C142.206 113.313 143.658 113.147 144.995 112.815C146.331 112.483 147.482 111.991 148.446 111.338C149.409 110.685 150.167 109.872 150.72 108.898C151.273 107.925 151.549 106.785 151.549 105.479C151.549 104.495 151.369 103.636 151.009 102.903C150.649 102.169 150.116 101.511 149.409 100.927C148.702 100.343 147.822 99.816 146.768 99.3464C145.714 98.877 144.507 98.4359 143.144 98.0235C142.065 97.6801 141.159 97.3878 140.427 97.1472C139.694 96.907 139.116 96.661 138.692 96.4089C138.268 96.1569 137.972 95.8879 137.805 95.6011C137.638 95.315 137.554 94.9656 137.554 94.5532C137.554 94.0034 137.702 93.5456 137.997 93.1789C138.293 92.8128 138.666 92.5147 139.116 92.2854C139.565 92.0569 140.06 91.8962 140.6 91.8046C141.14 91.7132 141.666 91.6669 142.181 91.6669C143.902 91.6669 145.207 91.9882 146.094 92.6291C146.981 93.2708 147.398 94.1982 147.347 95.4122H152.628C152.706 94.0377 152.474 92.8642 151.935 91.8902C151.395 90.9168 150.656 90.1207 149.718 89.5022C148.779 88.8837 147.675 88.4374 146.402 88.1626C145.13 87.8876 143.787 87.75 142.373 87.75C140.857 87.75 139.482 87.9164 138.248 88.2483C137.015 88.5806 135.954 89.0674 135.068 89.7086C134.181 90.3501 133.499 91.1344 133.025 92.0623C132.548 92.9898 132.311 94.0377 132.311 95.2062C132.311 96.1684 132.484 96.9987 132.831 97.6973C133.178 98.396 133.686 99.0087 134.354 99.5352C135.022 100.063 135.839 100.532 136.802 100.944C137.766 101.357 138.865 101.757 140.099 102.146C141.255 102.536 142.219 102.88 142.99 103.177C143.761 103.475 144.378 103.773 144.841 104.071C145.303 104.369 145.624 104.678 145.805 104.998C145.984 105.32 146.074 105.697 146.074 106.132C146.074 106.705 145.926 107.192 145.631 107.593C145.335 107.994 144.944 108.326 144.455 108.589C143.967 108.853 143.408 109.042 142.778 109.156C142.148 109.271 141.487 109.328 140.793 109.328C139.893 109.328 139.071 109.259 138.325 109.122C137.58 108.984 136.937 108.749 136.398 108.417C135.858 108.085 135.446 107.656 135.164 107.128C134.881 106.602 134.765 105.949 134.817 105.17H129.458C129.381 106.591 129.618 107.811 130.171 108.829C130.724 109.849 131.507 110.691 132.523 111.355C133.538 112.02 134.746 112.512 136.147 112.832Z" fill="white"></path> </svg> 