<?xml version="1.0" encoding="UTF-8"?> <svg xmlns="http://www.w3.org/2000/svg" width="116" height="83" viewBox="0 0 116 83" fill="none"> <rect x="0.5" y="0.5" width="115" height="82" rx="19.5" fill="#F0F0F0" stroke="#C7C7C7"></rect> <path d="M91.865 24H25.0905C23.3837 24 22 25.3873 22 27.0986V55.0366C22 56.7479 23.3837 58.1352 25.0905 58.1352H91.865C93.5719 58.1352 94.9555 56.7479 94.9555 55.0366V27.0986C94.9555 25.3873 93.5719 24 91.865 24Z" fill="#1C00A1"></path> <path d="M58.9716 49.6436C57.905 49.6436 56.9028 49.5362 55.9657 49.3217C55.0276 49.107 54.2191 48.7778 53.5399 48.3328C52.86 47.8883 52.3355 47.3251 51.9658 46.6424C51.5956 45.9606 51.4368 45.1443 51.4884 44.1933H55.0749C55.0404 44.7148 55.1179 45.1518 55.3072 45.504C55.4963 45.8569 55.7718 46.1443 56.133 46.3665C56.494 46.5889 56.924 46.746 57.4232 46.8382C57.922 46.9299 58.4722 46.9761 59.0746 46.9761C59.5391 46.9761 59.982 46.938 60.4035 46.8611C60.825 46.7845 61.1991 46.658 61.5261 46.4816C61.8529 46.3054 62.1151 46.0832 62.3132 45.8146C62.5107 45.5467 62.6098 45.2206 62.6098 44.8373C62.6098 44.5462 62.5493 44.2933 62.4291 44.0783C62.3085 43.8638 62.0937 43.6568 61.7842 43.4575C61.4743 43.2584 61.0616 43.059 60.5455 42.8595C60.0295 42.6604 59.3841 42.4305 58.6103 42.1695C57.7846 41.909 57.049 41.6409 56.4038 41.3646C55.7589 41.0888 55.2124 40.7747 54.7654 40.4217C54.3178 40.0693 53.9782 39.6592 53.746 39.1916C53.5137 38.724 53.3976 38.1682 53.3976 37.5243C53.3976 36.7421 53.5565 36.0408 53.8753 35.42C54.193 34.7989 54.6491 34.274 55.2426 33.8446C55.8362 33.4155 56.5458 33.0896 57.3716 32.8672C58.1974 32.6451 59.1173 32.5337 60.1326 32.5337C61.0784 32.5337 61.9776 32.6258 62.8293 32.8099C63.6808 32.9938 64.42 33.2925 65.0483 33.7065C65.676 34.1204 66.1707 34.6533 66.5322 35.3048C66.8933 35.9567 67.0483 36.7421 66.9965 37.6621H63.4613C63.4956 36.8496 63.2163 36.2289 62.6227 35.7993C62.0292 35.3704 61.1559 35.1553 60.0036 35.1553C59.6593 35.1553 59.3068 35.1863 58.9457 35.2475C58.5842 35.3088 58.2529 35.4163 57.9522 35.5693C57.6512 35.7228 57.4012 35.9223 57.2037 36.1673C57.0058 36.4128 56.9071 36.7192 56.9071 37.0872C56.9071 37.3632 56.9628 37.5971 57.0746 37.7886C57.1864 37.9805 57.3846 38.1606 57.6684 38.3292C57.9522 38.498 58.339 38.6626 58.8296 38.8234C59.3198 38.9844 59.9263 39.18 60.6487 39.4099C61.5604 39.6859 62.3687 39.9812 63.0743 40.2954C63.7794 40.6096 64.3684 40.9623 64.8418 41.3531C65.3149 41.7441 65.6717 42.1849 65.9127 42.6755C66.1534 43.1665 66.274 43.7412 66.274 44.4003C66.274 45.2743 66.0891 46.0372 65.7193 46.6886C65.3492 47.3404 64.8418 47.8845 64.1969 48.3213C63.5517 48.7583 62.7816 49.0882 61.8874 49.3102C60.9927 49.5324 60.0204 49.6436 58.9716 49.6436Z" fill="white"></path> <path fill-rule="evenodd" clip-rule="evenodd" d="M38.3287 32.8328H45.7345C46.5085 32.8328 47.2182 32.9132 47.8633 33.0741C48.5082 33.235 49.0715 33.492 49.5533 33.8446C50.0005 34.1664 50.3532 34.573 50.6113 35.0636C50.8695 35.5542 50.9985 36.1367 50.9985 36.8113C50.9985 37.7771 50.7017 38.5898 50.1082 39.2489C49.5146 39.9082 48.6761 40.3757 47.5922 40.6517V40.7206C49.5017 41.1963 50.4475 42.3383 50.4309 44.1473C50.4309 45.4812 49.8632 46.6312 48.7277 47.5968C48.0912 48.1338 47.3384 48.5478 46.4698 48.8389C45.6009 49.1301 44.5385 49.2757 43.283 49.2757H34.7676L38.3287 32.8328ZM39.0511 46.5391H43.3089C44.341 46.5391 45.1623 46.3361 45.7731 45.9296C46.3835 45.5236 46.6891 44.8832 46.6891 44.0093C46.6891 43.3043 46.4481 42.7792 45.9667 42.4341C45.4847 42.0891 44.8571 41.9167 44.0829 41.9167H40.0573L39.0511 46.5391ZM44.4183 39.4789C44.7967 39.4789 45.1668 39.4483 45.5279 39.387C45.8892 39.3258 46.2074 39.2108 46.4828 39.0419C46.7576 38.8734 46.9814 38.6433 47.1536 38.3521C47.3254 38.061 47.4116 37.6931 47.4116 37.2481C47.4116 36.7272 47.244 36.3091 46.9084 35.995C46.573 35.6808 46.0183 35.5233 45.2441 35.5233H41.451L40.5993 39.4789H44.4183Z" fill="white"></path> <path d="M71.629 49.3217C72.5661 49.5362 73.5683 49.6436 74.6349 49.6436C75.684 49.6436 76.656 49.5324 77.5509 49.3102C78.4452 49.0882 79.2153 48.7583 79.8604 48.3213C80.5053 47.8845 81.0128 47.3404 81.3829 46.6886C81.7526 46.0372 81.9376 45.2743 81.9376 44.4003C81.9376 43.7412 81.817 43.1665 81.5763 42.6755C81.3352 42.1849 80.9784 41.7441 80.5053 41.3531C80.032 40.9623 79.4429 40.6096 78.7378 40.2954C78.0322 39.9812 77.2239 39.6859 76.3122 39.4099C75.5898 39.18 74.9833 38.9844 74.4931 38.8234C74.0028 38.6626 73.6158 38.498 73.3319 38.3292C73.0481 38.1606 72.85 37.9805 72.7384 37.7886C72.6264 37.5971 72.5707 37.3632 72.5707 37.0872C72.5707 36.7192 72.6693 36.4128 72.8673 36.1673C73.0647 35.9223 73.3147 35.7228 73.6158 35.5693C73.9164 35.4163 74.248 35.3088 74.6093 35.2475C74.9703 35.1863 75.3228 35.1553 75.6671 35.1553C76.8195 35.1553 77.6927 35.3704 78.2863 35.7993C78.8798 36.2289 79.1591 36.8496 79.1248 37.6621H82.66C82.7118 36.7421 82.5568 35.9567 82.1957 35.3048C81.8342 34.6533 81.3397 34.1204 80.7119 33.7065C80.0835 33.2925 79.3443 32.9938 78.4928 32.8099C77.6411 32.6258 76.742 32.5337 75.7961 32.5337C74.7809 32.5337 73.8607 32.6451 73.0352 32.8672C72.2094 33.0896 71.4997 33.4155 70.9064 33.8446C70.3128 34.274 69.8566 34.7989 69.5388 35.42C69.22 36.0408 69.0614 36.7421 69.0614 37.5243C69.0614 38.1682 69.1773 38.724 69.4095 39.1916C69.6418 39.6592 69.9813 40.0693 70.4289 40.4217C70.876 40.7747 71.4224 41.0888 72.0674 41.3646C72.7125 41.6409 73.4481 41.909 74.2739 42.1695C75.0479 42.4305 75.693 42.6604 76.2091 42.8595C76.7251 43.059 77.138 43.2584 77.4477 43.4575C77.7572 43.6568 77.972 43.8638 78.0927 44.0783C78.2129 44.2933 78.2733 44.5462 78.2733 44.8373C78.2733 45.2206 78.1742 45.5467 77.9768 45.8146C77.7786 46.0832 77.5164 46.3054 77.1896 46.4816C76.8626 46.658 76.4885 46.7845 76.067 46.8611C75.6455 46.938 75.2026 46.9761 74.7382 46.9761C74.136 46.9761 73.5856 46.9299 73.0867 46.8382C72.5875 46.746 72.1578 46.5889 71.7965 46.3665C71.4354 46.1443 71.1597 45.8569 70.9707 45.504C70.7814 45.1518 70.7039 44.7148 70.7384 44.1933H67.1517C67.1001 45.1443 67.2589 45.9606 67.6291 46.6424C67.9988 47.3251 68.5233 47.8883 69.2032 48.3328C69.8824 48.7778 70.6909 49.107 71.629 49.3217Z" fill="white"></path> </svg> 