<?xml version="1.0" encoding="UTF-8"?> <svg xmlns="http://www.w3.org/2000/svg" width="95" height="63" viewBox="0 0 95 63" fill="none"> <path d="M17.7003 61.9953C16.3547 62.8514 14.6024 61.5915 14.9549 60.0064C15.2608 58.631 15.5102 57.2999 15.5102 56.5901C15.5102 56.5464 15.51 56.5029 15.5097 56.4596C15.4938 54.3985 13.6952 52.9767 11.6925 52.9767H10.1404C6.99748 52.9767 4.52128 52.2811 2.83738 51.034C1.16266 49.7937 0.25 47.9928 0.25 45.7192V7.02816C0.25 5.16059 1.30392 3.47281 3.07963 2.24187C4.85572 1.01067 7.33922 0.25 10.1404 0.25H84.8596C87.7078 0.25 90.1908 0.994833 91.9543 2.21682C93.716 3.43753 94.75 5.1245 94.75 7.02816V45.7248C94.75 47.9229 93.7949 49.7261 92.092 50.9873C90.3822 52.2536 87.9043 52.9823 84.8596 52.9823H33.1037C32.2955 52.9823 31.5041 53.2127 30.8223 53.6465L17.7003 61.9953Z" fill="url(#paint0_linear_2808_309)" fill-opacity="0.8" stroke="url(#paint1_linear_2808_309)" stroke-width="0.5"></path> <defs> <linearGradient id="paint0_linear_2808_309" x1="28" y1="-36" x2="24.7995" y2="64.2594" gradientUnits="userSpaceOnUse"> <stop stop-color="#E47B7B" stop-opacity="0.12"></stop> <stop offset="1" stop-color="#5B59A5" stop-opacity="0.03"></stop> </linearGradient> <linearGradient id="paint1_linear_2808_309" x1="26.5709" y1="-60.0147" x2="-9.52675" y2="89.6691" gradientUnits="userSpaceOnUse"> <stop stop-color="white" stop-opacity="0.32"></stop> <stop offset="1" stop-color="white" stop-opacity="0"></stop> </linearGradient> </defs> </svg> 