<?xml version="1.0" encoding="UTF-8"?> <svg xmlns="http://www.w3.org/2000/svg" width="116" height="83" viewBox="0 0 116 83" fill="none"> <rect x="0.5" y="0.5" width="115" height="82" rx="19.5" fill="#F0F0F0" stroke="#C7C7C7"></rect> <path d="M32.0568 41.003C32.9162 36.2112 30.0484 31.9266 25.5587 30.5035C17.5862 27.9754 11.9359 35.4116 12.0005 42.9052C12.0536 48.9605 13.3283 52.9856 13.3295 52.9879C13.2718 52.8071 14.8349 51.9699 15.016 51.8748C15.6307 51.5585 16.2681 51.2904 16.9229 51.0729C18.268 50.6184 19.6592 50.3308 21.0377 50.0102C25.3533 49.0075 29.9896 47.1135 31.6404 42.5553C31.8225 42.0509 31.9617 41.5316 32.0568 41.003Z" fill="#FF5C28"></path> <path d="M104 46.2648H100.948V33.0858L104 32.231V46.2648Z" fill="#48001E"></path> <path d="M49.1455 36.2736V33.573L46.1461 34.4102V42.6459C46.1461 44.0573 46.4265 45.0178 46.9975 45.6143C47.497 46.1204 48.3206 46.4726 49.3046 46.4726C50.1479 46.4726 50.892 46.3505 51.2727 46.2073L51.2531 43.8589C50.956 43.9238 50.6523 43.9514 50.3486 43.9411C49.4454 43.9411 49.1455 43.3857 49.1455 42.1798V38.5633H51.3373V36.2736H49.1455Z" fill="#48001E"></path> <path d="M40.0892 44.3027C39.1882 44.3027 38.0196 43.9187 37.4578 43.5665L36.918 45.7704C37.6597 46.1802 38.8052 46.4855 40.0903 46.4855C42.9016 46.4855 44.3274 45.1152 44.3274 43.2365C44.3055 41.7852 43.5419 40.8036 41.6742 40.1496C40.4699 39.721 40.0892 39.4756 40.0892 38.9848C40.0892 38.494 40.5102 38.1875 41.2531 38.1875C41.9965 38.2116 42.7248 38.4075 43.3827 38.7605L43.9041 36.6141C43.3019 36.3135 42.2971 36.027 41.1528 36.027C38.7233 36.027 37.1568 37.436 37.1568 39.3147C37.1372 40.5007 37.9193 41.6255 39.968 42.3148C41.0939 42.7034 41.3939 42.9488 41.3939 43.4807C41.3939 43.9962 41.012 44.3027 40.0892 44.3027Z" fill="#48001E"></path> <path fill-rule="evenodd" clip-rule="evenodd" d="M62.6924 41.1548C62.6924 44.8135 60.1418 46.4891 57.5116 46.4891C54.6403 46.4891 52.4358 44.5681 52.4358 41.3391C52.4358 38.089 54.5238 36.0248 57.6973 36.0248C60.6805 36.0248 62.6924 38.1277 62.6924 41.1548ZM55.584 41.2569C55.584 42.9736 56.2877 44.2616 57.5924 44.2616C58.7967 44.2616 59.5408 43.0558 59.5408 41.2358C59.5408 39.7657 58.9778 38.2522 57.5924 38.2522C56.1469 38.2522 55.584 39.7857 55.584 41.2569Z" fill="#48001E"></path> <path d="M64.4993 36.2725C64.5604 37.1284 64.58 38.0889 64.58 39.5602V46.2648H67.6301V41.1982C67.6282 40.965 67.6483 40.7323 67.6901 40.5031C67.8908 39.5426 68.6533 38.9296 69.7781 38.9296C70.0541 38.9315 70.3295 38.959 70.6006 39.0118V36.0881C70.3896 36.0445 70.1746 36.024 69.9592 36.0271C68.9948 36.0271 67.8089 36.64 67.3059 38.1124H67.2263L67.111 36.2725H64.4993Z" fill="#48001E"></path> <path d="M74.862 36.2701L76.3282 41.1958C76.4886 41.7676 76.6881 42.5238 76.8093 43.0557H76.89L76.95 42.7818C77.0609 42.2742 77.1927 41.6715 77.3122 41.177L78.5362 36.2713H81.7916L79.5017 42.8526C78.1001 46.8366 77.1507 48.41 76.0467 49.4116C75.231 50.1635 74.2076 50.6417 73.1155 50.7807L72.4475 48.1646C72.9141 48.0572 73.3623 47.8799 73.7776 47.6386C74.298 47.3395 74.7348 46.9103 75.0466 46.3916C75.1375 46.2588 75.1927 46.1041 75.2069 45.943C75.2037 45.7661 75.1644 45.5918 75.0916 45.4311L71.4762 36.2725L74.862 36.2701Z" fill="#48001E"></path> <path d="M86.4894 36.2736V33.573L83.4982 34.4102V42.6495C83.4982 44.0608 83.7796 45.0213 84.3414 45.6143C84.8409 46.1204 85.6646 46.4726 86.6486 46.4726C87.4919 46.4726 88.2348 46.3505 88.6166 46.2073L88.5958 43.8589C88.2993 43.9239 87.9959 43.9515 87.6926 43.9411C86.7893 43.9411 86.4894 43.3857 86.4894 42.1798V38.5633H88.6812V36.2736H86.4894Z" fill="#48001E"></path> <path fill-rule="evenodd" clip-rule="evenodd" d="M92.6946 42.2585C92.773 43.5501 94.0396 44.1595 95.4632 44.1595C96.3836 44.1744 97.2997 44.029 98.1718 43.7297L98.5732 45.835C97.5696 46.2648 96.3445 46.4691 95.0202 46.4691C91.6863 46.4691 89.7783 44.507 89.7783 41.3802C89.7783 38.8451 91.3241 36.0447 94.7387 36.0447C97.9111 36.0447 99.1223 38.5598 99.1223 41.0314C99.1227 41.4426 99.0891 41.853 99.022 42.2585H92.6946ZM96.288 40.1332C96.288 39.377 95.9673 38.1101 94.5576 38.1101C93.2713 38.1101 92.7499 39.3148 92.6703 40.1332H96.288Z" fill="#48001E"></path> </svg> 