<?xml version="1.0" encoding="UTF-8"?> <svg xmlns="http://www.w3.org/2000/svg" width="101" height="40" viewBox="0 0 101 40" fill="none"> <path d="M96.6745 8.60067C99.0635 8.60067 101 6.67534 101 4.30033C101 1.92532 99.0635 0 96.6745 0C94.2855 0 92.3489 1.92532 92.3489 4.30033C92.3489 6.67534 94.2855 8.60067 96.6745 8.60067Z" fill="white"></path> <path d="M92.692 17.0647H82.8736L80.4018 11.5356H72.4371L63.1679 32.3548L63.0993 11.5356H56.4392L46.6207 27.9862L36.5275 11.5356H29.8674V32.2865L20.5982 11.5356H12.6336L0 39.9998H8.23929L10.5051 34.4708H22.5894L24.8552 39.9998H29.8674H33.3005H37.3515V25.324L44.6982 37.2012H48.2685L55.6152 24.9145L55.6839 39.9998H59.7349H63.1679H67.9742L70.24 34.4708H82.3243L84.5901 39.9998H89.1217H100.725V11.5356H92.6234V17.0647H92.692ZM12.9082 28.5322L16.6159 19.3855L20.3236 28.5322H12.9082ZM75.2522 25.1193V27.4401H74.085V25.1193V23.0715H75.2522V25.1193ZM76.9687 25.1193V28.5322H75.8015V25.1193V21.7063H76.9687V25.1193ZM78.6852 25.1193V26.8257H77.518V25.1193V23.4128H78.6852V25.1193ZM80.4018 25.1193V25.5971H79.2345V25.1193V24.6414H80.4018V25.1193ZM82.1183 25.1193V27.7131H80.9511V25.1193V22.5254H82.1183V25.1193ZM83.8348 25.1193V28.3275H82.6676V25.1193V21.9111H83.8348V25.1193ZM85.5513 25.1193V30.7848H84.3841V25.1193V19.4537H85.5513V25.1193ZM87.2678 25.1193V29.4879H86.1006V25.1193V20.7507H87.2678V25.1193ZM88.9844 25.1193V26.9623H87.8171V25.1193V23.2762H88.9844V25.1193ZM90.7009 25.1193V27.2353H89.5336V25.1193V23.0715H90.7009V25.1193ZM92.4174 25.1193V25.9384H91.2502V25.1193V24.3001H92.4174V25.1193ZM94.6146 25.1193V24.6414H95.7818V25.1193V25.5971H94.6146V25.1193ZM92.898 25.1193V21.9111H94.0653V25.1193V28.3275H92.898V25.1193Z" fill="white"></path> </svg> 