<?xml version="1.0" encoding="UTF-8"?> <svg xmlns="http://www.w3.org/2000/svg" width="600" height="346" viewBox="0 0 600 346" fill="none"> <rect x="0.5" y="0.5" width="599" height="345" rx="19.5" fill="url(#paint0_linear_2991_335)" fill-opacity="0.5" stroke="url(#paint1_linear_2991_335)"></rect> <mask id="mask0_2991_335" style="mask-type:alpha" maskUnits="userSpaceOnUse" x="0" y="0" width="600" height="346"> <rect width="600" height="346" rx="20" fill="url(#paint2_linear_2991_335)"></rect> <rect width="600" height="346" rx="20" fill="url(#paint3_linear_2991_335)"></rect> </mask> <g mask="url(#mask0_2991_335)"> <g filter="url(#filter0_f_2991_335)"> <ellipse rx="125.817" ry="96.9565" transform="matrix(-1.00159 0.0724229 0.486169 0.774685 661.156 45.2232)" fill="#EE5F56" fill-opacity="0.35"></ellipse> </g> <g filter="url(#filter1_f_2991_335)"> <ellipse rx="125.313" ry="64.4355" transform="matrix(-1.00154 0.0717805 0.489401 0.772769 71.0403 181.789)" fill="#FFCCC9" fill-opacity="0.11"></ellipse> </g> <g filter="url(#filter2_f_2991_335)"> <path d="M-251.046 272.963C-284.159 313.062 -216.641 379.568 -100.242 421.508C16.1568 463.448 137.36 464.941 170.473 424.842C203.586 384.742 1084 536.056 967.597 494.116C851.198 452.176 -217.933 232.864 -251.046 272.963Z" fill="#FF9EBB" fill-opacity="0.13"></path> </g> <g filter="url(#filter3_f_2991_335)"> <path d="M437.285 -148.871C301.811 -38.2774 451.702 -68.709 604.804 44.0782C757.906 156.865 322.609 140.392 683.488 218.694C733.459 184.199 856.805 155.214 703.703 42.4267C550.601 -70.3605 686.629 -209.363 437.285 -148.871Z" fill="#2D54B9" fill-opacity="0.35"></path> </g> <g filter="url(#filter4_f_2991_335)"> <path d="M369.565 430.287C417.99 265.553 311.795 376.388 120.982 377.81C-69.8317 379.232 357.008 154.12 14.582 303.198C-6.88534 359.068 -150.447 438.044 40.367 436.621C231.18 435.199 198.557 622.33 369.565 430.287Z" fill="#E09F53" fill-opacity="0.24"></path> </g> <path opacity="0.7" d="M268.488 428.93C268.488 428.93 243.072 401.595 204.52 374.556C165.967 347.518 133.324 379.091 87.0319 371.494C40.7397 363.897 89.2012 264.263 56.6531 242.638C24.1051 221.012 -66.3917 286.992 -129.233 254.954C-192.075 222.915 -170.115 170.224 -170.115 170.224M268.82 428.759C268.82 428.759 242.565 401.585 204.331 374.944C166.097 348.304 134.18 378.458 88.5883 370.866C42.997 363.274 90.0377 265.985 57.539 244.679C25.0403 223.373 -64.0821 287.426 -126.896 254.973C-189.71 222.521 -169.6 171.083 -170.476 170.533M269.177 428.608C269.177 428.608 242.081 401.595 204.162 375.334C166.243 349.072 135.032 377.812 90.1461 370.243C45.2598 362.674 90.8904 267.69 58.4118 246.749C25.9331 225.808 -61.7631 287.903 -124.568 255.04C-187.373 222.177 -169.083 171.947 -170.818 170.843M269.513 428.456C269.513 428.456 241.573 401.585 203.973 375.722C166.373 349.858 135.865 377.164 91.7063 369.633C47.5475 362.102 91.7455 269.408 59.3015 248.809C26.8576 228.21 -59.4496 288.355 -122.227 255.079C-185.004 221.802 -168.55 172.801 -171.161 171.147M269.847 428.291C269.847 428.291 241.067 401.581 203.786 376.115C166.504 350.65 136.722 376.537 93.2641 369.011C49.8063 361.485 92.5796 271.117 60.1929 250.875C27.8062 230.633 -57.116 288.81 -119.884 255.123C-182.652 221.436 -168.015 173.661 -171.502 171.457M270.184 428.138C270.184 428.138 240.563 401.59 203.578 376.507C166.593 351.425 137.536 375.893 94.7833 368.391C52.0304 360.888 93.3976 272.843 61.0415 252.925C28.6855 233.006 -54.8436 289.251 -117.58 255.169C-180.316 221.087 -167.519 174.524 -171.864 171.766M270.517 427.97C270.517 427.97 240.056 401.583 203.39 376.898C166.724 352.214 138.37 375.249 96.3406 367.766C54.3113 360.282 94.2498 274.545 61.9098 254.974C29.5699 235.402 -52.529 289.707 -115.26 255.197C-177.992 220.686 -166.984 175.381 -172.224 172.078M270.854 427.82C270.854 427.82 239.553 401.594 203.202 377.289C166.85 352.983 139.226 374.618 97.8829 367.162C56.5585 359.702 95.0683 276.274 62.7857 257.059C30.503 237.844 -50.2294 290.185 -112.933 255.26C-175.637 220.335 -166.469 176.242 -172.567 172.384M271.192 427.671C271.192 427.671 239.05 401.606 203.014 377.68C166.977 353.754 140.06 373.974 99.4401 366.537C58.8207 359.101 95.9244 277.995 63.6724 259.104C31.4204 240.212 -47.9004 290.618 -110.572 255.298C-173.244 219.978 -165.953 177.104 -172.927 172.696M271.524 427.5C271.524 427.5 238.543 401.596 202.825 378.068C167.107 354.539 140.892 373.326 100.997 365.909C61.1006 358.492 96.7571 279.698 64.5584 261.145C32.3597 242.592 -45.5722 291.048 -108.235 255.318C-170.898 219.588 -165.419 177.958 -173.27 173M271.861 427.35C271.861 427.35 238.035 401.589 202.618 378.462C167.2 355.335 141.73 372.699 102.52 365.31C63.3106 357.92 97.5755 281.426 65.3969 263.238C33.2183 245.05 -43.3059 291.552 -105.945 255.389C-168.584 219.227 -164.904 178.819 -173.613 173.307M272.199 427.201C272.199 427.201 237.533 401.601 202.434 378.872C167.335 356.143 142.567 372.074 104.081 364.703C65.5954 357.333 98.4317 283.148 66.2877 265.302C34.1438 247.456 -40.9728 292.004 -103.599 255.45C-166.225 218.896 -164.388 179.681 -173.973 173.619M272.531 427.03C272.531 427.03 237.025 401.591 202.241 379.241C167.457 356.892 143.396 371.407 105.615 364.06C67.8342 356.713 99.2457 284.855 67.1551 267.347C35.0644 249.84 -38.6817 292.441 -101.28 255.473C-163.879 218.506 -163.855 180.535 -174.316 173.923M272.869 426.883C272.869 426.883 236.523 401.605 202.053 379.635C167.584 357.665 144.253 370.78 107.177 363.456C70.1009 356.133 100.102 286.579 68.0464 269.413C35.9904 252.248 -36.3441 292.914 -98.9375 255.518C-161.531 218.121 -163.338 181.399 -174.676 174.238M273.206 426.731C273.206 426.731 236.019 401.614 201.85 380.045C167.681 358.477 145.071 370.155 108.719 362.851C72.3662 355.546 100.939 288.3 68.8991 271.481C36.8592 254.662 -34.0677 293.375 -96.6334 255.564C-159.199 217.754 -162.819 182.276 -175.019 174.542M273.539 426.564C273.539 426.564 235.512 401.609 201.658 380.419C167.804 359.23 145.901 369.493 110.254 362.212C74.6061 354.931 101.754 290.012 69.7676 273.532C37.781 257.051 -31.757 293.813 -94.3095 255.611C-156.862 217.41 -162.285 183.135 -175.38 174.855M273.876 426.413C273.876 426.413 235.009 401.618 201.473 380.827C167.938 360.035 146.761 368.88 111.814 361.604C76.8717 354.346 102.61 291.731 70.6577 275.593C38.7058 259.455 -29.4431 294.267 -91.968 255.651C-154.493 217.035 -161.769 183.995 -175.723 175.161M274.214 426.263C274.214 426.263 234.502 401.611 201.285 381.218C168.069 360.824 147.595 368.235 113.357 361.001C79.1378 353.762 103.429 293.46 71.5338 277.678C39.6392 261.897 -27.1207 294.759 -89.6405 255.715C-152.16 216.67 -161.254 184.856 -176.061 175.486M274.546 426.092C274.546 426.092 233.994 401.601 201.092 381.587C168.191 361.572 148.423 367.569 114.909 360.354C81.3951 353.139 104.276 295.141 72.3971 279.705C40.5186 264.27 -24.8337 295.178 -87.3218 255.739C-149.81 216.299 -160.72 185.71 -176.422 175.795M274.883 425.943C274.883 425.943 233.491 401.613 200.89 382C168.288 362.387 149.265 366.961 116.452 359.751C83.6612 352.555 105.117 296.884 73.2878 281.769C41.4585 266.653 -22.5007 295.63 -84.9798 255.78C-147.459 215.93 -160.19 186.549 -176.768 176.084M275.235 425.771C275.235 425.771 233.003 401.602 200.716 382.369C168.429 363.135 150.113 366.294 118.009 359.126C85.9046 351.958 105.95 298.591 74.1598 283.836C42.3691 269.081 -20.1864 296.085 -82.6564 255.826C-145.126 215.566 -159.674 187.411 -177.111 176.391M275.572 425.619C275.572 425.619 232.499 401.611 200.532 382.776C168.541 363.925 150.95 365.665 119.551 358.521C88.1702 351.372 106.787 300.313 75.0314 285.9C43.2755 271.488 -17.8871 296.561 -80.3294 255.887C-142.772 215.214 -159.155 188.288 -177.468 176.719M275.91 425.472C275.91 425.472 231.997 401.625 200.344 383.169C168.691 364.712 151.807 365.038 121.108 357.898C90.4287 350.754 107.644 302.036 75.8999 287.951C44.1561 273.867 -15.5763 297 -78.0095 255.916C-140.443 214.833 -158.643 189.133 -177.832 177.014M276.242 425.3C276.242 425.3 231.489 401.615 200.151 383.537C168.813 365.46 152.636 364.37 122.665 357.268C92.6901 350.148 108.476 303.739 76.7898 290.011C45.1032 276.283 -13.2627 297.452 -75.6682 255.954C-138.074 214.457 -158.124 190.009 -178.171 177.336M276.58 425.153C276.58 425.153 230.983 401.611 199.949 383.954C168.915 366.297 153.455 363.751 124.208 356.669C94.938 349.571 109.314 305.466 77.6623 292.081C46.0104 278.695 -10.9478 297.91 -73.3403 256.021C-135.733 214.132 -157.589 190.87 -178.513 177.646M276.917 425.001C276.917 425.001 230.479 401.619 199.76 384.342C169.041 367.064 154.311 363.118 125.746 356.044C97.1809 348.97 110.128 307.174 78.5338 294.145C46.9391 281.116 -8.64872 298.385 -71.0174 256.063C-133.386 213.742 -157.074 191.728 -178.874 177.955M277.25 424.83C277.25 424.83 229.971 401.61 199.571 384.73C169.171 367.85 155.144 362.471 127.302 355.417C99.4609 348.362 110.984 308.892 79.4013 296.191C47.8187 283.49 -6.33895 298.819 -68.6986 256.088C-131.058 213.357 -156.559 192.587 -179.221 178.241M277.587 424.683C277.587 424.683 229.469 401.623 199.383 385.123C169.298 368.622 155.982 361.846 128.864 354.811C101.728 347.78 111.84 310.615 80.2924 298.256C48.7446 285.897 -4.02404 299.277 -66.356 256.131C-128.688 212.986 -156.024 193.446 -179.563 178.55M277.924 424.53C277.924 424.53 228.965 401.632 199.176 385.515C169.391 369.416 156.815 361.199 130.383 354.191C103.952 347.184 112.636 312.326 81.1451 300.324C49.6546 288.323 -1.72907 299.733 -64.0479 256.197C-126.367 212.66 -155.524 194.327 -179.939 178.882M278.258 424.365C278.258 424.365 228.459 401.628 198.988 385.908C169.518 370.189 157.649 360.557 131.941 353.569C106.233 346.58 113.492 314.05 82.0324 302.371C50.5725 290.693 0.585909 300.191 -61.7093 256.222C-124.004 212.252 -154.993 195.169 -180.266 179.169M278.594 424.213C278.594 424.213 227.955 401.637 198.799 386.297C169.644 370.956 158.485 359.928 133.483 352.963C108.48 345.998 114.329 315.772 82.8891 304.459C51.4493 293.145 2.88489 300.667 -59.4012 256.287C-121.687 211.908 -154.478 196.027 -180.623 179.496M278.928 424.045C278.928 424.045 227.444 401.612 198.611 386.688C169.756 371.749 159.338 359.28 135.04 352.338C110.742 345.397 115.162 317.479 83.7759 306.504C52.3893 295.529 5.19535 301.104 -57.0591 256.329C-119.313 211.554 -153.944 196.885 -180.966 179.804M279.265 423.895C279.265 423.895 226.941 401.622 198.423 387.078C169.886 372.537 160.171 358.634 136.597 351.712C113.022 344.79 116.014 319.18 84.6623 308.547C53.3105 297.914 7.52812 301.554 -54.7212 256.351C-116.97 211.148 -153.41 197.742 -181.312 180.092M279.602 423.746C279.602 423.746 226.438 401.635 198.216 387.473C169.995 373.312 160.99 358.013 138.121 351.114C115.251 344.215 116.837 320.928 85.5198 310.638C54.2026 300.347 9.82793 302.033 -52.4123 256.42C-114.652 210.807 -152.909 198.626 -181.687 180.427M279.935 423.575C279.935 423.575 225.931 401.625 198.028 387.861C170.125 374.097 161.842 357.361 139.677 350.486C117.513 343.61 117.67 322.632 86.3874 312.683C55.1049 302.735 12.1191 302.471 -50.0894 256.462C-112.298 210.454 -152.393 199.485 -182.049 180.735M280.272 423.424C280.272 423.424 225.427 401.636 197.839 388.251C170.251 374.866 162.675 356.715 141.215 349.863C119.756 343.011 118.503 324.337 87.255 314.731C56.0072 305.125 14.4291 302.907 -47.7703 256.488C-109.97 210.069 -151.882 200.326 -182.395 181.023M280.61 423.276C280.61 423.276 224.925 401.648 197.655 388.661C170.386 375.675 163.517 356.109 142.777 349.257C122.041 342.425 119.345 326.081 88.15 316.813C56.9554 307.546 16.7518 303.4 -45.424 256.549C-107.6 209.698 -151.344 201.203 -182.733 181.35M280.942 423.105C280.942 423.105 224.417 401.638 197.462 389.031C170.489 376.427 164.364 355.438 144.333 348.629C124.302 341.82 120.196 327.78 89.0359 318.855C57.876 309.929 19.0799 303.83 -43.0827 256.587C-105.245 209.345 -150.814 202.039 -183.076 181.654M281.298 422.953C281.298 422.953 223.929 401.629 197.275 389.423C170.62 377.217 165.198 354.795 145.872 348.009C126.546 341.223 121.03 329.488 89.8897 320.927C58.75 312.367 21.3575 304.295 -40.7775 256.638C-102.912 208.982 -150.312 202.924 -183.436 181.967M281.635 422.801C281.635 422.801 223.425 401.638 197.09 389.831C170.754 378.023 166.039 354.185 147.433 347.4C128.83 340.634 121.87 331.23 90.7799 322.989C59.6894 314.748 23.69 304.745 -38.4359 256.678C-100.562 208.611 -149.779 203.78 -183.779 182.272M281.969 422.635C281.969 422.635 222.919 401.633 196.898 390.204C170.877 378.776 166.888 353.52 148.972 346.781C131.055 340.042 122.704 332.938 91.6483 325.039C60.5965 317.159 25.9861 305.206 -36.1121 256.725C-98.2103 208.245 -149.244 204.639 -184.121 182.581M282.306 422.482C282.306 422.482 222.415 401.642 196.713 390.611C170.993 379.584 167.725 352.891 150.532 346.171C133.339 339.451 123.559 334.655 92.5422 327.118C61.5251 319.58 28.3223 305.673 -33.7668 256.782C-95.8559 207.892 -148.729 205.497 -184.482 182.89M282.639 422.316C282.639 422.316 221.909 401.637 196.503 390.989C171.097 380.341 168.54 352.252 152.067 345.533C135.579 338.836 124.371 336.349 93.3882 329.153C62.4057 321.958 30.592 306.101 -31.4695 256.796C-93.5309 207.492 -148.213 206.36 -184.824 183.199M282.976 422.165C282.976 422.165 221.405 401.647 196.314 391.379C171.228 381.129 169.392 351.602 153.609 344.929C137.826 338.256 125.212 338.091 94.2598 331.219C63.308 324.347 32.9059 306.555 -29.1465 256.84C-91.1988 207.126 -147.702 207.202 -185.189 183.49M283.313 422.012C283.313 422.012 220.902 401.655 196.13 391.784C171.358 381.914 170.229 350.972 155.17 344.318C140.11 337.665 126.048 339.812 95.1538 333.297C64.2593 326.782 35.2462 307.04 -26.7785 256.911C-88.8031 206.783 -147.164 208.074 -185.528 183.813M283.646 421.846C283.646 421.846 220.391 401.632 195.938 392.159C171.485 382.686 171.063 350.33 156.723 343.677C142.365 337.028 126.897 341.498 96.0368 335.326C65.177 329.153 37.5529 307.46 -24.4441 256.918C-86.441 206.376 -146.615 208.911 -185.855 184.1M283.983 421.694C283.983 421.694 219.888 401.641 195.753 392.566C171.596 383.476 171.918 349.697 158.265 343.071C144.612 336.446 127.738 343.239 96.8938 337.413C66.0501 331.586 39.8522 307.936 -22.1357 256.983C-84.1236 206.031 -146.114 209.793 -186.213 184.427M284.321 421.546C284.321 421.546 219.385 401.653 195.547 392.962C171.708 384.27 172.733 349.057 159.808 342.47C146.878 335.864 128.556 344.969 97.7659 339.481C66.9755 333.993 42.1521 308.415 -19.8081 257.048C-81.7684 205.682 -145.594 210.674 -186.569 184.758M284.654 421.376C284.654 421.376 218.877 401.645 195.354 393.332C171.831 385.02 173.567 348.411 161.342 341.828C149.117 335.245 129.385 346.655 98.6297 341.509C67.8739 336.363 44.4581 308.831 -17.493 257.055C-79.4441 205.279 -145.087 211.496 -186.938 185.031M284.991 421.227C284.991 421.227 218.375 401.658 195.17 393.743C171.965 385.828 174.423 347.781 162.903 341.222C151.383 334.663 130.242 348.377 99.5244 343.592C68.8073 338.807 46.7766 309.306 -15.1469 257.116C-77.0703 204.926 -144.549 212.373 -187.258 185.354M285.328 421.075C285.328 421.075 217.871 401.667 194.981 394.131C172.092 386.595 175.256 347.134 164.464 340.613C153.671 334.092 131.082 350.118 100.396 345.656C69.7096 341.195 49.0904 309.759 -12.82 257.177C-74.7303 204.596 -144.03 213.25 -187.615 185.681M285.661 420.908C285.661 420.908 217.364 401.66 194.793 394.522C172.204 387.389 176.094 346.508 166.002 339.992C155.911 333.476 131.916 351.824 101.268 347.724C70.6203 343.624 51.3902 310.238 -10.4965 257.223C-72.3832 204.209 -143.495 214.108 -187.976 185.993" stroke="url(#paint4_linear_2991_335)" stroke-width="0.2447" stroke-miterlimit="10"></path> <path opacity="0.7" d="M658.275 134.217C658.275 134.217 647.109 117.631 628.966 100.106C610.824 82.5811 590.916 96.563 567.055 88.6791C543.194 80.7951 577.153 32.1203 561.736 17.9607C546.319 3.80113 492.926 31.1598 462.349 8.96155C431.771 -13.2367 447.789 -39.2841 447.789 -39.2841M658.465 134.154C658.465 134.154 646.841 117.583 628.834 100.296C610.827 83.0077 591.421 96.2994 567.931 88.4765C544.441 80.6536 577.452 33.1012 562.034 19.1149C546.616 5.1286 494.112 31.5822 463.584 9.16714C433.056 -13.2479 447.99 -38.7869 447.572 -39.1511M658.667 134.104C658.667 134.104 646.584 117.548 628.712 100.488C610.84 83.4266 591.926 96.0287 568.807 88.277C545.688 80.5253 577.761 34.0745 562.323 20.283C546.886 6.49137 495.299 32.0279 464.81 9.39674C434.321 -13.2345 448.191 -38.2867 447.366 -39.0156M658.857 134.051C658.857 134.051 646.316 117.501 628.58 100.677C610.843 83.8532 592.421 95.7555 569.684 88.0846C546.946 80.4137 578.07 35.0549 562.622 21.4473C547.174 7.83972 496.486 32.4604 466.046 9.6125C435.606 -13.2354 448.402 -37.7901 447.159 -38.8831M659.048 133.992C659.048 133.992 646.049 117.456 628.448 100.87C610.846 84.2829 592.927 95.4951 570.56 87.8852C548.193 80.2754 578.369 36.0289 562.921 22.6149C547.474 9.20091 497.683 32.8956 467.282 9.83149C436.881 -13.2326 448.614 -37.2902 446.952 -38.7475M659.239 133.939C659.239 133.939 645.782 117.419 628.305 101.06C610.829 84.7005 593.411 95.2224 571.415 87.6838C549.42 80.1451 578.658 37.0103 563.199 23.7702C547.741 10.5301 498.848 33.319 468.497 10.0484C438.146 -13.2223 448.804 -36.7925 446.735 -38.6145M659.429 133.878C659.429 133.878 645.514 117.373 628.173 101.251C610.832 85.129 593.906 94.9511 572.292 87.4831C550.677 80.0152 578.966 37.9824 563.488 24.9269C548.009 11.8713 500.035 33.7535 469.722 10.2565C439.409 -13.2405 449.015 -36.294 446.518 -38.4796M659.62 133.827C659.62 133.827 645.247 117.337 628.041 101.442C610.835 85.5466 594.412 94.6888 573.158 87.2926C551.915 79.8958 579.255 38.9652 563.777 26.1033C548.299 13.2413 501.212 34.198 470.948 10.4842C440.685 -13.2295 449.216 -35.7955 446.312 -38.3459M659.811 133.776C659.811 133.776 644.98 117.301 627.909 101.633C610.837 85.965 594.907 94.4174 574.034 87.0919C553.162 79.7664 579.565 39.9475 564.076 27.2594C548.587 14.5713 502.408 34.6217 472.194 10.7014C441.98 -13.2189 449.417 -35.2964 446.095 -38.2109M660.001 133.713C660.001 133.713 644.712 117.254 627.776 101.823C610.841 86.3915 595.401 94.1442 574.91 86.8893C554.419 79.6344 579.863 40.9182 564.374 28.4136C548.885 15.9089 503.604 35.0435 473.429 10.907C443.255 -13.2295 449.628 -34.7999 445.888 -38.0785M660.192 133.662C660.192 133.662 644.444 117.207 627.634 102.014C610.823 86.8205 595.897 93.8824 575.766 86.6993C555.636 79.5162 580.152 41.901 564.643 29.5911C549.134 17.2811 504.761 35.4993 474.635 11.1359C444.509 -13.2275 449.829 -34.3014 445.681 -37.9448M660.383 133.611C660.383 133.611 644.177 117.172 627.502 102.215C610.827 87.2591 596.392 93.6213 576.643 86.5088C556.894 79.3964 580.461 42.8833 564.942 30.7574C549.423 18.6314 505.958 35.9331 475.871 11.3637C445.785 -13.2057 450.03 -33.8023 445.464 -37.8099M660.574 133.549C660.574 133.549 643.909 117.124 627.369 102.395C610.829 87.6653 596.886 93.3379 577.508 86.2966C558.13 79.2554 580.749 43.8546 565.23 31.9121C549.711 19.9696 507.134 36.356 477.096 11.5699C447.059 -13.2163 450.241 -33.3057 445.257 -37.6775M660.765 133.499C660.765 133.499 643.642 117.09 627.237 102.587C610.832 88.085 597.392 93.0775 578.385 86.1074C559.378 79.1374 581.059 44.8382 565.53 33.0797C550 21.3212 508.331 36.8013 478.332 11.7889C448.333 -13.2236 450.442 -32.8053 445.041 -37.5413M660.955 133.447C660.955 133.447 643.375 117.052 627.095 102.788C610.816 88.5228 597.877 92.815 579.252 85.9156C560.626 79.0162 581.358 45.8191 565.808 34.2452C550.259 22.6713 509.497 37.235 479.548 12.0058C449.598 -13.2234 450.644 -32.298 444.834 -37.4088M661.146 133.386C661.146 133.386 643.107 117.007 626.963 102.969C610.818 88.9316 598.372 92.5342 580.117 85.706C561.862 78.8778 581.646 46.793 566.097 35.4025C550.547 24.0121 510.683 37.6599 480.773 12.2247C450.863 -13.2105 450.855 -31.7988 444.617 -37.2733M661.337 133.334C661.337 133.334 642.84 116.97 626.831 103.17C610.822 89.369 598.878 92.2813 580.994 85.5142C563.11 78.7572 581.955 47.774 566.396 36.5675C550.836 25.3611 511.87 38.093 482.009 12.4411C452.148 -13.2109 451.056 -31.301 444.41 -37.1402M661.528 133.283C661.528 133.283 642.573 116.924 626.699 103.361C610.825 89.7971 599.373 92.0096 581.86 85.3239C564.358 78.6376 582.244 48.757 566.685 37.7441C551.126 26.7313 513.058 38.5474 483.235 12.6691C453.413 -13.2092 451.257 -30.8023 444.204 -36.9961M661.718 133.221C661.718 133.221 642.305 116.877 626.566 103.54C610.827 90.2033 599.867 91.7262 582.736 85.1111C565.604 78.496 582.552 49.717 566.973 38.8887C551.393 28.0604 514.233 38.9601 484.46 12.8752C454.688 -13.2096 451.468 -30.3058 443.987 -36.8631M661.909 133.17C661.909 133.17 642.038 116.841 626.424 103.742C610.811 90.6428 600.363 91.475 583.602 84.921C566.852 78.3765 582.852 50.7098 567.272 40.0548C551.691 29.3998 515.43 39.3937 485.696 13.0927C455.962 -13.2083 451.678 -29.8176 443.78 -36.7391M662.109 133.108C662.109 133.108 641.78 116.795 626.301 103.922C610.823 91.0503 600.867 91.1929 584.478 84.7202C568.089 78.2475 583.151 51.6823 567.561 41.2215C551.971 30.7607 516.616 39.828 486.922 13.3108C457.227 -13.2064 451.879 -29.3187 443.573 -36.6049M662.3 133.056C662.3 133.056 641.513 116.757 626.17 104.122C610.816 91.4777 601.363 90.93 585.345 84.5286C569.337 78.1265 583.45 52.6635 567.849 42.3867C552.249 32.1098 517.793 40.2715 488.148 13.5376C458.502 -13.1964 452.081 -28.8111 443.357 -36.4615M662.491 133.006C662.491 133.006 641.246 116.723 626.038 104.315C610.829 91.9066 601.868 90.6694 586.221 84.329C570.583 77.988 583.759 53.6468 568.138 43.5444C552.517 33.442 518.979 40.6968 489.373 13.7467C459.766 -13.2034 452.281 -28.3211 443.139 -36.3357M662.682 132.943C662.682 132.943 640.978 116.675 625.905 104.494C610.832 92.3125 602.363 90.3856 587.097 84.126C571.831 77.8562 584.057 54.6172 568.437 44.7084C552.816 34.7995 520.166 41.1289 490.609 13.9621C461.051 -13.2048 452.483 -27.8142 442.933 -36.1935M662.873 132.894C662.873 132.894 640.71 116.63 625.763 104.697C610.816 92.7637 602.848 90.1263 587.963 83.9374C573.068 77.7388 584.357 55.6013 568.726 45.8765C553.095 36.1517 521.352 41.5646 491.835 14.1918C462.317 -13.1811 452.694 -27.3144 442.726 -36.0579M663.064 132.841C663.064 132.841 640.443 116.593 625.631 104.886C610.818 93.1801 603.354 89.8626 588.829 83.7353C574.305 77.608 584.645 56.5726 569.015 47.0414C553.384 37.5102 522.529 42.0078 493.06 14.4081C463.591 -13.1917 452.895 -26.8172 442.509 -35.9249M663.254 132.779C663.254 132.779 640.175 116.546 625.498 105.076C610.822 93.607 603.848 89.5898 589.705 83.5331C575.562 77.4765 584.954 57.5534 569.303 48.1966C553.651 38.8398 523.715 42.4306 494.285 14.6146C464.855 -13.2013 453.096 -26.3197 442.302 -35.8022M663.445 132.729C663.445 132.729 639.908 116.511 625.366 105.268C610.824 94.026 604.344 89.3293 590.582 83.3433C576.81 77.3578 585.263 58.5363 569.602 49.3635C553.94 40.1907 524.902 42.8656 495.521 14.833C466.14 -13.1997 453.307 -25.8205 442.095 -35.6672M663.636 132.676C663.636 132.676 639.641 116.473 625.224 105.459C610.807 94.4539 604.839 89.0563 591.438 83.1421C578.037 77.2278 585.541 59.5084 569.88 50.5292C554.219 41.5501 526.078 43.2989 496.737 15.0603C467.396 -13.1784 453.498 -25.3124 441.868 -35.5233M663.826 132.616C663.826 132.616 639.374 116.429 625.092 105.651C610.81 94.8733 605.334 88.7861 592.314 82.9425C579.294 77.0989 585.851 60.4918 570.179 51.6864C554.507 42.8811 527.265 43.7344 497.972 15.2689C468.68 -13.1967 453.709 -24.8229 441.671 -35.3986M664.017 132.564C664.017 132.564 639.106 116.392 624.959 105.841C610.813 95.2899 605.829 88.5232 593.18 82.7509C580.532 76.9785 586.15 61.4729 570.458 52.8623C554.767 44.2517 528.442 44.1779 499.188 15.4962C469.935 -13.1856 453.909 -24.3255 441.455 -35.2552M664.207 132.503C664.207 132.503 638.838 116.336 624.827 106.032C610.806 95.719 606.334 88.2514 594.056 82.5502C581.779 76.8491 586.448 62.4456 570.757 54.0184C555.065 45.5913 529.628 44.6022 500.424 15.7139C471.22 -13.1744 454.121 -23.827 441.248 -35.1208M664.398 132.452C664.398 132.452 638.571 116.299 624.695 106.223C610.809 96.1466 606.829 87.9792 594.933 82.3487C583.036 76.7182 586.757 63.4168 571.055 55.1737C555.353 46.9305 530.824 45.0351 501.659 15.9205C472.494 -13.1941 454.332 -23.3294 441.041 -34.9975M664.589 132.401C664.589 132.401 638.304 116.264 624.553 106.415C610.802 96.5657 607.314 87.7189 595.789 82.1596C584.264 76.6003 587.046 64.4107 571.334 56.3515C555.622 48.2924 532.001 45.4805 502.875 16.1497C473.749 -13.1811 454.523 -22.8193 440.814 -34.8516M664.78 132.338C664.78 132.338 638.036 116.216 624.42 106.604C610.805 96.9923 607.819 87.445 596.665 81.957C585.511 76.4689 587.345 65.3814 571.623 57.5062C555.9 49.6311 533.177 45.9034 504.101 16.366C475.024 -13.1713 454.724 -22.3222 440.597 -34.7187M664.97 132.287C664.97 132.287 637.769 116.18 624.288 106.795C610.807 97.4097 608.314 87.1729 597.531 81.756C586.748 76.3391 587.643 66.3532 571.911 58.6621C556.178 50.9709 534.363 46.3268 505.326 16.5733C476.288 -13.1803 454.924 -21.8341 440.39 -34.5954M665.161 132.236C665.161 132.236 637.502 116.144 624.157 106.997C610.811 97.8486 608.81 86.9221 598.408 81.5658C588.006 76.2195 587.943 67.3465 572.211 59.8388C556.478 52.3311 535.551 46.7818 506.562 16.8014C477.573 -13.1791 455.136 -21.3252 440.184 -34.4506M665.352 132.174C665.352 132.174 637.234 116.097 624.024 107.176C610.803 98.2554 609.314 86.6382 599.283 81.3632C589.253 76.0882 588.252 68.3166 572.509 60.9929C556.766 53.6693 536.747 47.2036 507.798 17.0171C478.849 -13.1694 455.347 -20.8387 439.977 -34.3182M665.553 132.123C665.553 132.123 636.977 116.051 623.892 107.368C610.807 98.6844 609.809 86.3674 600.15 81.1636C590.49 75.9598 588.55 69.2899 572.788 62.1609C557.025 55.0319 537.913 47.6397 509.013 17.2365C480.113 -13.1667 455.538 -20.3284 439.76 -34.1827M665.744 132.071C665.744 132.071 636.709 116.014 623.76 107.568C610.81 99.1218 610.305 86.1151 601.026 80.9718C591.748 75.8387 588.85 70.2816 573.087 63.3259C557.324 56.3702 539.11 48.0722 510.249 17.4529C481.388 -13.1665 455.749 -19.8312 439.553 -34.0497M665.934 132.011C665.934 132.011 636.442 115.969 623.627 107.75C610.813 99.5306 610.81 85.8338 601.892 80.7724C592.975 75.711 589.149 71.2549 573.375 64.4832C557.602 57.7217 540.286 48.5079 511.475 17.6718C482.663 -13.1643 455.96 -19.332 439.347 -33.9146M666.125 131.958C666.125 131.958 636.174 115.932 623.495 107.949C610.806 99.9678 611.305 85.5707 602.769 80.5799C594.232 75.5892 589.458 72.2352 573.675 65.6577C557.892 59.0802 541.484 48.95 512.711 17.8977C483.938 -13.1546 456.161 -18.8348 439.13 -33.7817M666.316 131.898C666.316 131.898 635.907 115.887 623.353 108.132C610.798 100.377 611.79 85.3006 603.634 80.3704C595.469 75.4509 589.746 73.199 573.952 66.8055C558.159 60.412 542.649 49.3659 513.925 18.0968C485.202 -13.1722 456.362 -18.3351 438.923 -33.6467M666.506 131.846C666.506 131.846 635.64 115.85 623.22 108.322C610.802 100.805 612.295 85.0278 604.501 80.1795C596.706 75.3313 590.045 74.1911 574.241 67.9714C558.437 61.7518 543.835 49.7994 515.151 18.3142C486.466 -13.171 456.562 -17.847 438.706 -33.5228M666.697 131.793C666.697 131.793 635.373 115.812 623.089 108.522C610.805 101.231 612.79 84.7643 605.377 79.9867C597.964 75.2091 590.344 75.1716 574.541 69.1455C558.737 63.1195 545.033 50.2512 516.398 18.5493C487.763 -13.1526 456.774 -17.3407 438.499 -33.3806M666.888 131.734C666.888 131.734 635.104 115.757 622.956 108.704C610.808 101.65 613.285 84.4941 606.253 79.777C599.21 75.0604 590.652 76.1346 574.839 70.2926C559.025 64.4505 546.219 50.6664 517.633 18.7477C489.047 -13.1709 456.995 -16.8518 438.302 -33.2559M667.079 131.681C667.079 131.681 634.837 115.72 622.824 108.904C610.801 102.078 613.791 84.2307 607.119 79.5853C600.448 74.94 590.952 77.1259 575.118 71.4685C559.284 65.811 547.396 51.1099 518.849 18.975C490.302 -13.1598 457.186 -16.3437 438.086 -33.1125M667.27 131.631C667.27 131.631 634.57 115.685 622.682 109.096C610.794 102.507 614.275 83.9602 607.986 79.3956C601.696 74.8209 591.241 78.1096 575.407 72.6355C559.572 67.1615 548.573 51.5552 520.075 19.2037C491.577 -13.1479 457.388 -15.8342 437.87 -32.9672M667.46 131.569C667.46 131.569 634.302 115.638 622.549 109.276C610.796 102.914 614.77 83.6878 608.851 79.1843C602.932 74.6808 591.539 79.071 575.694 73.7809C559.85 68.4909 549.758 51.9682 521.299 19.4005C492.84 -13.1672 457.587 -15.3566 437.651 -32.8537M667.651 131.518C667.651 131.518 634.035 115.603 622.417 109.478C610.8 103.353 615.276 83.4263 609.728 78.994C604.18 74.5618 591.848 80.0535 575.994 74.9577C560.14 69.8618 550.945 52.4131 522.536 19.6286C494.126 -13.1559 457.799 -14.8476 437.455 -32.7095M667.842 131.466C667.842 131.466 633.768 115.565 622.285 109.668C610.802 103.77 615.771 83.1533 610.604 78.8018C605.438 74.4504 592.148 81.0448 576.283 76.1228C560.418 71.2008 552.132 52.8458 523.762 19.8553C495.392 -13.1352 458.001 -14.3401 437.239 -32.5662M668.032 131.405C668.032 131.405 633.5 115.52 622.153 109.859C610.795 104.199 616.266 82.8922 611.47 78.6018C606.675 74.3113 592.446 82.0175 576.572 77.2897C560.697 72.5618 553.309 53.291 524.987 20.0736C496.666 -13.1438 458.212 -13.8416 437.022 -32.4312" stroke="url(#paint5_linear_2991_335)" stroke-width="0.2447" stroke-miterlimit="10"></path> </g> <defs> <filter id="filter0_f_2991_335" x="346.575" y="-210.446" width="629.163" height="511.338" filterUnits="userSpaceOnUse" color-interpolation-filters="sRGB"> <feFlood flood-opacity="0" result="BackgroundImageFix"></feFlood> <feBlend mode="normal" in="SourceGraphic" in2="BackgroundImageFix" result="shape"></feBlend> <feGaussianBlur stdDeviation="90" result="effect1_foregroundBlur_2991_335"></feGaussianBlur> </filter> <filter id="filter1_f_2991_335" x="-238.397" y="-48.8195" width="618.876" height="461.217" filterUnits="userSpaceOnUse" color-interpolation-filters="sRGB"> <feFlood flood-opacity="0" result="BackgroundImageFix"></feFlood> <feBlend mode="normal" in="SourceGraphic" in2="BackgroundImageFix" result="shape"></feBlend> <feGaussianBlur stdDeviation="90" result="effect1_foregroundBlur_2991_335"></feGaussianBlur> </filter> <filter id="filter2_f_2991_335" x="-439.464" y="88.09" width="1597.66" height="593.447" filterUnits="userSpaceOnUse" color-interpolation-filters="sRGB"> <feFlood flood-opacity="0" result="BackgroundImageFix"></feFlood> <feBlend mode="normal" in="SourceGraphic" in2="BackgroundImageFix" result="shape"></feBlend> <feGaussianBlur stdDeviation="90" result="effect1_foregroundBlur_2991_335"></feGaussianBlur> </filter> <filter id="filter3_f_2991_335" x="204.393" y="-343.538" width="753.5" height="742.232" filterUnits="userSpaceOnUse" color-interpolation-filters="sRGB"> <feFlood flood-opacity="0" result="BackgroundImageFix"></feFlood> <feBlend mode="normal" in="SourceGraphic" in2="BackgroundImageFix" result="shape"></feBlend> <feGaussianBlur stdDeviation="90" result="effect1_foregroundBlur_2991_335"></feGaussianBlur> </filter> <filter id="filter4_f_2991_335" x="-237.389" y="72.1629" width="798.613" height="624.825" filterUnits="userSpaceOnUse" color-interpolation-filters="sRGB"> <feFlood flood-opacity="0" result="BackgroundImageFix"></feFlood> <feBlend mode="normal" in="SourceGraphic" in2="BackgroundImageFix" result="shape"></feBlend> <feGaussianBlur stdDeviation="90" result="effect1_foregroundBlur_2991_335"></feGaussianBlur> </filter> <linearGradient id="paint0_linear_2991_335" x1="72.1552" y1="-142.834" x2="358.718" y2="478.648" gradientUnits="userSpaceOnUse"> <stop stop-color="#252426" stop-opacity="0.7"></stop> <stop offset="1" stop-color="#807B9E" stop-opacity="0.12"></stop> </linearGradient> <linearGradient id="paint1_linear_2991_335" x1="656.711" y1="491.684" x2="204.302" y2="-223.314" gradientUnits="userSpaceOnUse"> <stop stop-color="#8778A7" stop-opacity="0.05"></stop> <stop offset="1" stop-color="#FFEFF5" stop-opacity="0.28"></stop> </linearGradient> <linearGradient id="paint2_linear_2991_335" x1="330.259" y1="157.564" x2="313.227" y2="-52.4248" gradientUnits="userSpaceOnUse"> <stop stop-color="#141516"></stop> <stop offset="1" stop-color="#141516" stop-opacity="0"></stop> </linearGradient> <linearGradient id="paint3_linear_2991_335" x1="199.914" y1="-54.8802" x2="643.876" y2="320.718" gradientUnits="userSpaceOnUse"> <stop stop-color="#292524" stop-opacity="0.62"></stop> <stop offset="1" stop-color="#2D2837"></stop> </linearGradient> <linearGradient id="paint4_linear_2991_335" x1="306.202" y1="401.033" x2="-37.0415" y2="41.5162" gradientUnits="userSpaceOnUse"> <stop stop-color="#AFDDF9" stop-opacity="0.71"></stop> <stop offset="0.2946" stop-color="#BD9066"></stop> <stop offset="0.5919" stop-color="#CECDFF"></stop> <stop offset="0.8514" stop-color="#AE9AFF"></stop> <stop offset="1" stop-color="#11E9EF"></stop> </linearGradient> <linearGradient id="paint5_linear_2991_335" x1="680.56" y1="122.603" x2="528.947" y2="-96.2805" gradientUnits="userSpaceOnUse"> <stop stop-color="#AFDDF9" stop-opacity="0.71"></stop> <stop offset="0.2946" stop-color="#6766BD"></stop> <stop offset="0.5919" stop-color="#CECDFF"></stop> <stop offset="0.8514" stop-color="#AE9AFF"></stop> <stop offset="1" stop-color="#11E9EF"></stop> </linearGradient> </defs> </svg> 