<?xml version="1.0" encoding="UTF-8"?> <svg xmlns="http://www.w3.org/2000/svg" width="446" height="453" viewBox="0 0 446 453" fill="none"> <path fill-rule="evenodd" clip-rule="evenodd" d="M350.998 440.999C311.648 464.401 253.402 443.242 208.498 449.999C140.446 460.24 118.998 414.499 57.9979 388.999C-3.00209 363.499 17.1306 314.185 13.4974 267.999C8.91834 209.79 -14.2253 190.854 13.4974 135.5C37.8259 86.9237 72.5002 21.3436 133.501 5.50033C194.501 -10.3429 195.501 20.5003 283.501 20.5003C371.501 20.5003 385.262 49.5008 425.384 111.001C465.505 172.5 432.501 258.999 432.5 296C432.5 333.001 436.373 390.226 350.998 440.999Z" fill="url(#paint0_radial_2907_71)" fill-opacity="0.14"></path> <defs> <radialGradient id="paint0_radial_2907_71" cx="0" cy="0" r="1" gradientUnits="userSpaceOnUse" gradientTransform="translate(222 232) rotate(-100.316) scale(226.156 237.431)"> <stop offset="0.729167" stop-color="#9187CF" stop-opacity="0"></stop> <stop offset="0.895833" stop-color="#7988D9" stop-opacity="0.86"></stop> <stop offset="1" stop-color="#D252AF"></stop> </radialGradient> </defs> </svg> 