<?xml version="1.0" encoding="UTF-8"?> <svg xmlns="http://www.w3.org/2000/svg" width="1160" height="476" viewBox="0 0 1160 476" fill="none"> <rect x="0.5" y="0.5" width="1159" height="475" rx="19.5" fill="url(#paint0_linear_2839_65)" fill-opacity="0.5" stroke="url(#paint1_linear_2839_65)"></rect> <mask id="mask0_2839_65" style="mask-type:alpha" maskUnits="userSpaceOnUse" x="0" y="0" width="1160" height="476"> <rect width="1160" height="476" rx="20" fill="url(#paint2_linear_2839_65)"></rect> <rect width="1160" height="476" rx="20" fill="url(#paint3_linear_2839_65)"></rect> </mask> <g mask="url(#mask0_2839_65)"> <g filter="url(#filter0_f_2839_65)"> <ellipse rx="243.717" ry="68.5079" transform="matrix(-0.983251 -0.126545 0.29399 0.867801 519.777 431.292)" fill="#FFD39E" fill-opacity="0.35"></ellipse> </g> <g filter="url(#filter1_f_2839_65)"> <ellipse rx="228.298" ry="89.0353" transform="matrix(-0.919986 -0.3302 -0.671066 0.80954 40.4799 252.427)" fill="#FF9EBB" fill-opacity="0.4"></ellipse> </g> <g filter="url(#filter2_f_2839_65)"> <ellipse rx="355.376" ry="105.897" transform="matrix(-0.918364 -0.333008 -0.667032 0.811955 170.391 457.862)" fill="#8361E2" fill-opacity="0.35"></ellipse> </g> <path fill-rule="evenodd" clip-rule="evenodd" d="M28.191 284.711L28.191 284.711C15.0308 279.381 1.82894 274.034 -10.9637 267.542L-10.6258 266.906C2.13663 273.383 15.3032 278.716 28.4616 284.046C31.4849 285.27 34.5077 286.495 37.5251 287.733C53.6673 294.356 69.6439 301.366 84.6339 310.871L84.6339 310.871C93.6064 316.563 102.835 322.287 112.167 328.075C144.495 348.126 178.072 368.952 206.594 391.918L206.362 392.195L206.594 391.918C217.208 400.47 220.274 410.184 222.759 419.969C222.966 420.783 223.169 421.598 223.372 422.413C225.606 431.387 227.832 440.325 235.353 448.568L235.13 448.764L235.353 448.568C246.423 460.706 264.201 464.89 282.919 467.667C286.751 468.236 290.628 468.746 294.491 469.255C300.032 469.985 305.545 470.71 310.858 471.599C319.887 473.109 328.405 475.099 335.649 478.406L335.338 479.054C328.182 475.788 319.74 473.811 310.731 472.304C305.423 471.416 299.94 470.694 294.415 469.967C290.551 469.458 286.666 468.947 282.805 468.374C264.099 465.598 246.07 461.394 234.809 449.047C227.162 440.666 224.897 431.561 222.667 422.6C222.463 421.781 222.26 420.962 222.052 420.146C219.576 410.398 216.558 400.874 206.129 392.472C177.645 369.536 144.121 348.743 111.8 328.696C102.461 322.904 93.2227 317.174 84.2356 311.473C69.3028 302.003 53.3763 295.013 37.2404 288.392C34.23 287.157 31.2121 285.935 28.1919 284.712L28.1919 284.712L28.1918 284.712L28.1917 284.712L28.1916 284.712L28.1916 284.712L28.1915 284.712L28.1914 284.711L28.1913 284.711L28.1913 284.711L28.1912 284.711L28.1911 284.711L28.191 284.711ZM-14.4413 271.424C-1.45048 278.039 12.1739 282.941 25.7485 287.826L25.7492 287.826C28.0992 288.671 30.4478 289.516 32.7914 290.37C48.6823 296.156 64.3519 302.325 78.7685 311.621L78.9412 311.365L78.7685 311.621C120.076 338.253 162.004 369.122 200.644 399.148C210.948 407.158 214.539 416.789 217.83 426.567C217.995 427.055 218.159 427.545 218.322 428.034C221.433 437.327 224.571 446.698 233.29 454.687C245.773 466.129 263.336 469.782 281.395 472.292C284.464 472.718 287.547 473.112 290.623 473.504L290.633 473.506L290.635 473.506L290.636 473.506L290.638 473.506C305.7 475.429 320.59 477.329 332.836 482.966L333.149 482.318C320.791 476.63 305.763 474.713 290.699 472.792C287.628 472.4 284.555 472.008 281.502 471.584C263.438 469.074 246.089 465.437 233.789 454.163L233.54 454.423L233.789 454.163C225.209 446.301 222.124 437.089 219.004 427.775C218.844 427.296 218.683 426.817 218.522 426.338C215.226 416.546 211.583 406.736 201.098 398.587L200.871 398.868L201.098 398.587C162.449 368.554 120.504 337.671 79.1714 311.023C64.6812 301.679 48.9448 295.487 33.0489 289.699C30.7036 288.845 28.3551 288 26.0066 287.155L26.0062 287.155L26.0059 287.155L26.0055 287.155L26.0052 287.155L26.0048 287.155L26.0045 287.155L26.0041 287.154L26.0038 287.154L26.0034 287.154L26.0031 287.154L26.0027 287.154L26.0024 287.154L26.002 287.154L26.0017 287.153L26.0013 287.153L26.001 287.153L26.0006 287.153L26.0003 287.153L25.9999 287.153L25.9996 287.153L25.9992 287.153L25.9989 287.152L25.9985 287.152L25.9982 287.152L25.9978 287.152L25.9975 287.152L25.9971 287.152L25.9968 287.152L25.9957 287.151C12.4197 282.266 -1.15586 277.381 -14.1023 270.789L-14.4413 271.424ZM24.1143 291.824L24.1143 291.824L24.1143 291.824C10.1272 287.088 -3.92765 282.329 -17.2336 275.317L-16.8855 274.686C-3.63462 281.67 10.3609 286.409 24.3523 291.146L24.3531 291.147C26.3858 291.835 28.4185 292.523 30.4488 293.218C46.442 298.694 62.2765 304.592 76.7417 314.277C97.1023 327.904 116.548 343.128 135.788 358.6C139.948 361.945 144.098 365.302 148.246 368.656L148.246 368.656L148.246 368.657C163.285 380.82 178.291 392.958 193.615 404.428L193.393 404.712L193.615 404.428C204.047 412.239 208.684 421.741 213.039 431.215C213.225 431.621 213.411 432.026 213.597 432.432L213.601 432.439C217.758 441.507 221.869 450.473 230.742 457.997C243.937 469.182 261.171 472.701 279.019 475.184C281.786 475.569 284.569 475.928 287.353 476.289L287.353 476.289L287.354 476.289L287.354 476.289L287.354 476.289L287.354 476.289L287.355 476.289L287.355 476.289L287.355 476.289L287.356 476.289L287.356 476.289L287.356 476.289L287.357 476.289L287.357 476.289L287.357 476.289L287.357 476.289L287.358 476.289L287.358 476.289L287.358 476.289L287.359 476.289L287.359 476.289L287.359 476.289L287.359 476.29L287.36 476.29L287.36 476.29L287.36 476.29L287.361 476.29L287.361 476.29L287.363 476.29C302.495 478.247 317.672 480.211 330.689 486.213L330.375 486.86C317.47 480.909 302.425 478.962 287.29 477.003L287.288 477.003C284.495 476.641 281.698 476.279 278.912 475.892C261.062 473.409 243.633 469.872 230.263 458.539C221.267 450.91 217.097 441.814 212.949 432.766L212.928 432.719L212.912 432.685L212.897 432.652L212.692 432.205L212.527 431.845L212.374 431.512C208.023 422.046 203.447 412.692 193.171 404.997C177.835 393.518 162.815 381.37 147.774 369.204L147.773 369.204C143.627 365.85 139.48 362.496 135.324 359.154C116.087 343.684 96.6612 328.476 76.3283 314.868L76.3283 314.868C61.9484 305.241 46.1935 299.368 30.2046 293.894C28.178 293.2 26.1475 292.512 24.1156 291.824L24.1155 291.824L24.1155 291.824L24.1155 291.824L24.1154 291.824L24.1154 291.824L24.1154 291.824L24.1153 291.824L24.1153 291.824L24.1153 291.824L24.1152 291.824L24.1152 291.824L24.1152 291.824L24.1143 291.824ZM-19.3419 279.363C-6.54162 285.892 6.97732 290.708 20.4502 295.508C23.0318 296.428 25.6118 297.347 28.1846 298.277C44.1961 304.068 59.9459 310.3 74.2187 319.855L74.2188 319.855C101.749 338.275 128.237 359.256 154.5 380.059C166.04 389.199 177.536 398.306 189.059 407.146C199.252 414.964 204.399 424.664 209.385 434.45L209.663 434.997L209.909 435.48C214.709 444.916 219.523 454.379 228.748 462.102C242.004 473.202 259.283 476.958 276.986 479.659C279.94 480.109 282.905 480.531 285.866 480.951C300.686 483.056 315.398 485.146 328.047 490.827L328.354 490.177C315.601 484.449 300.764 482.343 285.944 480.239L285.937 480.238C282.986 479.819 280.036 479.4 277.103 478.952C259.402 476.252 242.309 472.515 229.223 461.557C220.112 453.929 215.357 444.582 210.544 435.123L210.533 435.102L210.523 435.082L210.445 434.928L210.42 434.88L210.397 434.834L210.182 434.411L210.037 434.127C205.052 424.341 199.844 414.508 189.51 406.581C178.007 397.756 166.521 388.658 154.987 379.522C128.712 358.711 102.187 337.7 74.632 319.263C60.2804 309.656 44.4582 303.399 28.4406 297.606C25.8607 296.673 23.2762 295.753 20.6918 294.832C7.2188 290.032 -6.2482 285.234 -19.0026 278.729L-19.3419 279.363ZM17.5981 300.387C4.59297 295.22 -8.44227 290.042 -20.9213 283.698L-20.5832 283.063C-8.13714 289.39 4.85701 294.552 17.8576 299.717L17.8583 299.717C21.4182 301.131 24.9785 302.545 28.5281 303.984C45.0314 310.672 61.291 317.878 76.1195 328C112.838 353.064 149.649 380.493 184.564 407.758C194.787 415.74 200.765 425.434 206.475 435.151C206.802 435.709 207.129 436.267 207.456 436.824C212.826 445.99 218.156 455.086 226.784 462.808C239.73 474.388 256.783 478.807 274.518 482.042C277.976 482.673 281.461 483.259 284.946 483.845L284.946 483.845L284.947 483.845L284.947 483.845L284.947 483.845L284.948 483.845L284.948 483.845L284.948 483.845L284.948 483.845L284.949 483.845L284.949 483.845L284.949 483.845L284.95 483.845L284.95 483.845L284.95 483.845L284.95 483.845L284.951 483.846L284.951 483.846L284.951 483.846L284.952 483.846L284.952 483.846L284.952 483.846L284.953 483.846L284.953 483.846L284.953 483.846L284.953 483.846L284.956 483.846C299.306 486.259 313.652 488.67 326.096 494.216L325.792 494.868C313.441 489.363 299.214 486.971 284.872 484.559L284.872 484.559C281.373 483.971 277.868 483.382 274.381 482.746C256.635 479.508 239.4 475.064 226.291 463.338L226.538 463.073L226.291 463.338C217.577 455.539 212.196 446.354 206.836 437.204L206.836 437.204C206.505 436.639 206.174 436.075 205.843 435.511C200.135 425.797 194.215 416.21 184.108 408.319L184.291 408.095L184.108 408.319C149.202 381.06 112.404 353.641 75.7012 328.588C60.94 318.512 44.7409 311.33 28.2466 304.645C24.7075 303.211 21.1541 301.799 17.5985 300.387L17.5981 300.387ZM15.0303 305.822L15.0304 305.822C18.9309 307.573 22.8306 309.324 26.7166 311.096C43.0565 318.546 59.1655 326.372 74.1422 336.179C109.465 359.302 146.043 383.638 179.452 409.179L179.677 408.896L179.452 409.179C189.983 417.228 196.901 427.168 203.647 437.236C204.016 437.788 204.385 438.34 204.754 438.892L204.758 438.898L204.762 438.904L204.767 438.91C211.124 448.419 217.5 457.958 226.779 465.947L227.02 465.677L226.779 465.947C239.991 477.317 256.602 482.085 273.682 485.76C277.055 486.485 280.445 487.168 283.831 487.85L283.834 487.851C297.623 490.628 311.352 493.393 323.601 498.981L323.911 498.331C311.577 492.706 297.743 489.92 283.945 487.141C280.568 486.461 277.193 485.782 273.842 485.061C256.776 481.39 240.325 476.65 227.261 465.408C218.058 457.484 211.731 448.021 205.363 438.496L205.334 438.453L205.323 438.436L205.317 438.428L205.312 438.419C204.96 437.893 204.608 437.367 204.255 436.84C197.511 426.773 190.536 416.742 179.901 408.613C146.469 383.055 109.871 358.706 74.5484 335.583C59.5236 325.745 43.3731 317.9 27.0263 310.447C23.1315 308.671 19.2262 306.918 15.3223 305.165C2.83344 299.558 -9.64141 293.957 -21.7121 287.647L-22.057 288.279C-9.96529 294.6 2.53699 300.213 15.0301 305.822L15.0302 305.822L15.0303 305.822ZM12.4893 312.25C0.679334 305.872 -11.1151 299.503 -22.8412 293.075L-22.4843 292.45C-10.7676 298.872 1.02031 305.238 12.8261 311.614L12.8276 311.615C68.3594 341.603 124.287 371.806 175.059 409.14C186.328 417.424 194.45 427.76 202.362 438.163C202.824 438.77 203.284 439.376 203.744 439.983L203.747 439.986L203.762 440.006C211.202 449.806 218.607 459.56 228.45 467.695C241.548 478.522 257.299 483.647 273.583 487.853C276.773 488.677 279.985 489.466 283.2 490.256L283.201 490.256C296.378 493.493 309.627 496.747 321.765 502.509L321.445 503.154C309.382 497.426 296.224 494.194 283.053 490.959C279.829 490.167 276.604 489.374 273.395 488.545C258.073 484.588 243.117 479.794 230.39 470.151C242.857 480.46 257.804 486.01 273.247 490.752C276.461 491.739 279.698 492.692 282.938 493.645C295.414 497.315 307.938 500.999 319.416 506.74L319.084 507.379C307.67 501.67 295.226 498.009 282.759 494.34C279.511 493.385 276.261 492.429 273.027 491.436C261.212 487.808 249.627 483.691 239.203 477.306C249.696 484.229 261.287 489.03 273.148 493.406C276.216 494.538 279.303 495.642 282.394 496.747C294.142 500.948 305.942 505.168 316.953 511.022L316.605 511.652C305.646 505.825 293.91 501.629 282.169 497.43C279.071 496.322 275.973 495.214 272.889 494.076C263.776 490.714 254.792 487.091 246.328 482.434L246.644 482.635C255.126 487.709 264.066 491.92 273.142 495.929C276.073 497.223 279.019 498.497 281.968 499.773L281.968 499.773C292.957 504.525 303.99 509.296 314.469 515.235L314.104 515.856C303.663 509.938 292.676 505.187 281.692 500.437L281.689 500.435L281.684 500.433C278.733 499.157 275.782 497.881 272.842 496.582C268.891 494.837 264.962 493.052 261.081 491.172C264.559 493.11 268.066 494.998 271.59 496.861C274.904 498.614 278.233 500.346 281.566 502.08L281.566 502.081L281.566 502.081L281.567 502.081L281.567 502.081L281.567 502.081L281.567 502.081L281.568 502.081L281.568 502.081L281.568 502.082L281.568 502.082L281.57 502.083C291.774 507.392 302.014 512.72 311.96 518.71L311.578 519.321C301.653 513.344 291.441 508.03 281.242 502.724L281.242 502.723L281.241 502.723L281.24 502.723L281.24 502.722L281.239 502.722L281.238 502.721L281.238 502.721L281.237 502.721L281.236 502.72L281.236 502.72L281.235 502.72L281.234 502.719L281.234 502.719L281.233 502.719L281.232 502.718L281.232 502.718L281.231 502.718L281.231 502.717L281.23 502.717L281.229 502.717C277.896 500.982 274.563 499.248 271.243 497.492C265.631 494.524 260.056 491.493 254.57 488.29C263.829 494.23 273.24 499.934 282.66 505.644C291.653 511.095 300.654 516.55 309.54 522.222L309.142 522.822C300.286 517.171 291.299 511.723 282.313 506.276C265.868 496.309 249.426 486.343 233.795 475.128C224.444 468.416 215.007 460.964 205.463 453.426L205.462 453.425C200.938 449.852 196.389 446.259 191.813 442.717C177.576 431.697 163.068 421.156 148.17 413.155L148.332 412.865L148.169 413.155C136.318 406.786 123.182 404.489 109.847 402.731C107.82 402.464 105.788 402.209 103.755 401.954L103.753 401.954C92.4332 400.535 81.0906 399.113 70.4635 395.522C51.931 389.259 36.0851 376.09 21.0665 361.682C16.9016 357.686 12.8016 353.597 8.72521 349.531C-1.91897 338.915 -12.4023 328.459 -23.4606 320.25L-23.0199 319.679C-11.9165 327.921 -1.37581 338.434 9.2824 349.064C13.3506 353.122 17.436 357.196 21.5763 361.168C36.5854 375.567 52.3339 388.637 70.7036 394.845C81.2542 398.41 92.5119 399.822 103.833 401.242L103.841 401.243C105.876 401.498 107.913 401.754 109.948 402.022C123.29 403.781 136.543 406.09 148.521 412.527C163.475 420.558 178.022 431.128 192.265 442.154C196.851 445.704 201.404 449.3 205.93 452.874L205.933 452.877L205.936 452.879L205.936 452.879L205.936 452.879L205.937 452.88L205.937 452.88L205.937 452.88L205.937 452.88L205.938 452.88L205.938 452.881L205.938 452.881L205.938 452.881L205.938 452.881L205.939 452.881L205.939 452.881L205.939 452.882L205.939 452.882L205.939 452.882L205.94 452.882L205.94 452.882L205.94 452.882C211.377 457.176 216.774 461.439 222.139 465.551C216.169 460.66 210.221 455.541 204.245 450.398C200.74 447.381 197.224 444.355 193.689 441.363C180.751 430.409 167.538 419.887 153.519 411.766L153.705 411.458L153.519 411.766C141.385 404.735 127.438 400.672 113.224 397.175C110.03 396.389 106.822 395.632 103.619 394.875L103.618 394.875C92.5796 392.269 81.5932 389.675 71.424 385.975C53.2255 379.355 37.2061 367.025 21.873 353.641C17.5627 349.879 13.308 346.035 9.07411 342.21C-1.77103 332.412 -12.4796 322.737 -23.6369 314.876L-23.2113 314.293C-12.0159 322.181 -1.257 331.901 9.60077 341.711C13.8275 345.53 18.0691 349.362 22.3574 353.105C37.6799 366.479 53.615 378.732 71.6795 385.304C81.8043 388.988 92.7336 391.568 103.764 394.173L103.764 394.173C106.975 394.931 110.194 395.691 113.404 396.481C127.627 399.98 141.661 404.062 153.89 411.149C167.968 419.303 181.221 429.86 194.166 440.819C197.71 443.82 201.231 446.85 204.739 449.87L204.74 449.87L204.742 449.872C207.526 452.268 210.303 454.657 213.077 457.02C210.104 454.279 207.148 451.506 204.192 448.732C201.735 446.427 199.277 444.121 196.808 441.832C184.806 430.707 172.528 419.978 158.716 411.643C145.027 403.377 129.906 397.454 114.557 391.943C111.363 390.797 108.159 389.668 104.955 388.539L104.954 388.539C92.7741 384.247 80.6086 379.961 69.0866 374.727C51.9448 366.942 36.4408 355.728 21.3466 343.898C17.5727 340.941 13.8252 337.945 10.0841 334.955L10.0832 334.954C-1.14926 325.976 -12.3239 317.044 -23.9821 309.319L-23.5744 308.725C-11.8869 316.469 -0.676201 325.43 10.5628 334.413C14.2995 337.4 18.0393 340.389 21.8008 343.337C36.8869 355.16 52.3347 366.329 69.3937 374.077L69.2705 374.338L69.3937 374.077C80.8836 379.296 93.0098 383.569 105.186 387.859C108.394 388.989 111.605 390.12 114.809 391.271C130.165 396.784 145.343 402.726 159.098 411.032C172.977 419.408 185.301 430.18 197.307 441.309C199.78 443.602 202.239 445.909 204.695 448.213L204.696 448.214L204.696 448.215L204.697 448.215L204.698 448.216L204.698 448.216L204.699 448.217L204.7 448.218L204.7 448.218L204.701 448.219L204.702 448.22L204.702 448.22L204.703 448.221L204.704 448.222L204.705 448.222L204.707 448.224C209.197 452.437 213.679 456.642 218.22 460.733C213.191 455.885 208.334 450.856 203.481 445.833L203.476 445.828C201.815 444.108 200.155 442.389 198.488 440.678C187.873 429.781 177.008 419.206 164.147 410.828C149.761 401.455 133.953 393.764 117.904 386.454C113.637 384.51 109.352 382.593 105.073 380.678L105.071 380.678L105.071 380.677L105.07 380.677L105.07 380.677C93.2622 375.394 81.4948 370.129 70.2532 364.374L70.411 364.077L70.2532 364.374C53.6491 355.87 38.0355 345.613 22.6326 335.037C19.0084 332.549 15.3964 330.043 11.7858 327.539L11.7854 327.539L11.7851 327.538L11.7848 327.538L11.7846 327.538L11.7843 327.538L11.784 327.537L11.7837 327.537L11.7834 327.537L11.7831 327.537L11.7828 327.537L11.7825 327.536L11.7822 327.536L11.7819 327.536L11.7816 327.536L11.7814 327.536L11.7811 327.535L11.7808 327.535L11.7805 327.535L11.7802 327.535L11.7799 327.535L11.7796 327.534L11.7793 327.534C0.0411948 319.392 -11.681 311.26 -23.75 303.77L-23.3601 303.164C-11.2739 310.665 0.46915 318.811 12.2105 326.956C15.8206 329.46 19.4306 331.964 23.0504 334.449C38.4484 345.021 54.0304 355.257 70.5912 363.739C81.8144 369.484 93.5558 374.738 105.358 380.018C109.642 381.935 113.934 383.855 118.212 385.804C134.268 393.117 150.116 400.827 164.55 410.231C177.483 418.656 188.396 429.28 199.014 440.182C200.687 441.899 202.352 443.622 204.016 445.345C208.517 450.005 213.014 454.66 217.642 459.167C212.664 453.989 207.988 448.582 203.322 443.188L203.315 443.18C202.27 441.971 201.225 440.763 200.177 439.559C190.927 428.921 181.457 418.536 169.491 410.202C148.849 395.827 125.845 383.564 103.081 371.429C92.4142 365.742 81.8001 360.084 71.5065 354.25C52.9771 343.748 34.6979 332.811 16.4226 321.877L16.4221 321.876L16.4215 321.876L16.421 321.876L16.4204 321.875L16.4198 321.875L16.4192 321.875L16.4187 321.874L16.4181 321.874L16.4176 321.874L16.417 321.873L16.4164 321.873L16.4158 321.873L16.4153 321.872L16.4147 321.872L16.4141 321.872L16.4136 321.871L16.413 321.871L16.4124 321.871L16.4119 321.87L16.4113 321.87L16.4107 321.87L16.4102 321.869L16.4096 321.869C3.18011 313.953 -10.0473 306.039 -23.3662 298.292L-22.9937 297.675C-9.65136 305.436 3.58478 313.356 16.8185 321.274L16.8188 321.274C35.0835 332.203 53.3435 343.128 71.8719 353.629C82.1298 359.443 92.7243 365.091 103.381 370.772C126.166 382.919 149.236 395.217 169.914 409.617C181.959 418.007 191.478 428.451 200.731 439.092C201.782 440.3 202.83 441.511 203.877 442.722C207.361 446.75 210.843 450.776 214.446 454.703C210.496 450.076 206.84 445.26 203.19 440.452L203.19 440.451C202.72 439.832 202.249 439.213 201.779 438.594C193.865 428.189 185.797 417.93 174.622 409.713C123.894 372.412 68.0197 342.238 12.4895 312.25L12.4894 312.25L12.4893 312.25ZM189.725 444.699C174.278 433.73 158.573 423.279 142.846 415.409C131.243 409.606 118.939 408.597 106.485 408.196C104.708 408.139 102.926 408.094 101.143 408.049L101.141 408.049L101.14 408.049L101.138 408.049L101.136 408.049L101.134 408.049L101.133 408.049L101.131 408.049L101.129 408.049L101.128 408.049L101.126 408.049L101.124 408.049L101.123 408.049L101.121 408.049L101.119 408.049L101.118 408.049L101.116 408.049L101.114 408.049L101.11 408.048C90.4364 407.781 79.7104 407.511 69.3732 404.58C50.8264 399.32 34.935 385.175 20.0301 369.556C15.8498 365.176 11.748 360.681 7.68596 356.229L7.68582 356.229L7.68454 356.228C-2.76396 344.778 -12.9494 333.616 -23.5312 325.432L-23.0788 324.869C-12.4443 333.093 -2.19297 344.327 8.27253 355.796L8.27265 355.796L8.27276 355.797L8.27287 355.797L8.27299 355.797L8.2731 355.797L8.27321 355.797L8.27332 355.797L8.27344 355.797L8.27355 355.797L8.27366 355.798L8.27377 355.798L8.27389 355.798L8.274 355.798L8.27411 355.798L8.27422 355.798L8.27434 355.798L8.27445 355.798L8.27456 355.799C12.3269 360.239 16.4114 364.715 20.5626 369.065C35.4642 384.681 51.2388 398.691 69.5791 403.893C79.8192 406.797 90.4401 407.064 101.118 407.333L101.119 407.333L101.12 407.333L101.122 407.333L101.123 407.333L101.124 407.333L101.125 407.333L101.127 407.333L101.128 407.333L101.129 407.333L101.13 407.333L101.132 407.333L101.133 407.333L101.134 407.333L101.136 407.333L101.137 407.333L101.138 407.333L101.139 407.333L101.141 407.333C102.931 407.378 104.722 407.423 106.514 407.481C118.979 407.882 131.424 408.892 143.18 414.771C158.958 422.667 174.7 433.144 190.154 444.118C195.918 448.211 201.64 452.371 207.308 456.493C216.848 463.43 226.238 470.258 235.43 476.474C246.509 483.968 257.474 491.584 268.436 499.198L268.437 499.198L268.438 499.199C281.282 508.12 294.121 517.038 307.134 525.753L306.721 526.345C293.718 517.636 280.859 508.705 268.002 499.775L268.001 499.774C257.034 492.157 246.068 484.541 235.015 477.064C225.815 470.843 216.405 464 206.856 457.057C201.189 452.937 195.474 448.781 189.725 444.699ZM137.577 418.76C161.305 430 185.499 446.181 208.767 461.743C217.906 467.855 226.901 473.871 235.669 479.455C247.806 487.182 259.078 495.719 270.268 504.37C271.783 505.541 273.296 506.714 274.81 507.888L274.821 507.897C284.482 515.386 294.161 522.889 304.349 529.944L304.771 529.359C294.601 522.316 284.939 514.826 275.277 507.336L275.277 507.336C273.759 506.159 272.241 504.982 270.721 503.807C259.529 495.155 248.235 486.601 236.068 478.854C227.331 473.29 218.355 467.287 209.228 461.182C185.943 445.61 161.677 429.38 137.897 418.116C126.199 412.574 114.567 412.536 102.985 413.157C101.376 413.244 99.768 413.343 98.1613 413.442C88.1851 414.056 78.2516 414.668 68.2452 412.238C50.0157 407.811 34.2106 392.915 19.3713 376.222C15.2371 371.571 11.1944 366.801 7.19737 362.084L7.19702 362.084L7.19616 362.083C4.01385 358.328 0.8604 354.607 -2.28746 351.007C-9.37264 342.905 -16.3946 335.461 -23.5288 329.792L-23.9891 330.349C-16.9079 335.976 -9.92064 343.38 -2.84127 351.475C0.285629 355.051 3.4374 358.769 6.62224 362.527L6.62255 362.528C10.631 367.257 14.6918 372.048 18.8214 376.694C33.656 393.382 49.5927 408.446 68.0661 412.933C78.1897 415.391 88.2463 414.77 98.2168 414.155L98.2182 414.155C99.8211 414.056 101.422 413.957 103.02 413.871C114.582 413.251 126.055 413.302 137.577 418.76L137.737 418.438L137.577 418.76ZM269.338 507.436C258.774 498.553 248.035 489.873 235.588 482.433C228.101 477.958 220.464 473.288 212.724 468.555L212.724 468.555L212.724 468.555L212.723 468.555L212.723 468.554L212.722 468.554L212.722 468.554L212.722 468.554L212.721 468.553L212.721 468.553L212.72 468.553L212.72 468.553L212.72 468.552L212.719 468.552L212.719 468.552L212.718 468.552L212.718 468.551C186.464 452.498 159.04 435.73 132.375 423.421L132.375 423.421C120.836 418.09 110.159 418.594 99.4534 419.811C98.0205 419.974 96.5863 420.15 95.1491 420.326L95.1471 420.327C85.8642 421.465 76.4571 422.619 66.4589 420.391L66.5418 420.042L66.4589 420.391C56.86 418.25 48.7782 412.827 41.659 406.244C35.6902 400.726 30.3779 394.372 25.4112 388.432L25.4112 388.432L25.4111 388.432L25.4111 388.432L25.4111 388.432L25.411 388.432L25.411 388.432L25.4109 388.432L25.4109 388.432L25.4108 388.432L25.4108 388.432L25.4107 388.432L25.4107 388.431L25.4106 388.431L25.4106 388.431L25.4105 388.431L25.4105 388.431C24.4566 387.29 23.5154 386.165 22.5847 385.063C20.9146 383.087 19.2658 381.125 17.6288 379.177C4.32285 363.341 -8.19858 348.438 -24.9716 334.966L-24.5081 334.411C-7.67704 347.93 4.89007 362.888 18.1914 378.719L18.1945 378.723C19.831 380.67 21.4785 382.631 23.1465 384.604L23.1466 384.604C24.082 385.712 25.0264 386.841 25.9824 387.984L25.9824 387.984L25.9825 387.985L25.9826 387.985C30.9499 393.925 36.2281 400.238 42.1602 405.722C49.2303 412.259 57.2005 417.591 66.6246 419.693C76.4889 421.892 85.7591 420.756 95.0479 419.618L95.0487 419.618L95.0494 419.618L95.0502 419.618L95.0509 419.618L95.0517 419.618L95.0524 419.618L95.0531 419.618L95.0539 419.618L95.0546 419.618L95.0554 419.618L95.0561 419.618L95.0569 419.617L95.0576 419.617L95.0584 419.617L95.0591 419.617L95.0598 419.617C96.4968 419.441 97.9342 419.265 99.3743 419.101C110.111 417.88 120.959 417.355 132.689 422.774C159.396 435.102 186.871 451.902 213.131 467.959L213.131 467.959L213.132 467.959L213.132 467.959L213.132 467.96L213.133 467.96L213.133 467.96L213.134 467.96L213.134 467.961L213.134 467.961L213.135 467.961L213.135 467.961L213.135 467.961L213.136 467.962L213.136 467.962L213.136 467.962L213.137 467.962C220.87 472.691 228.498 477.355 235.969 481.821C248.47 489.294 259.245 498.005 269.814 506.892C271.404 508.229 272.989 509.57 274.574 510.911L274.575 510.911C283.534 518.49 292.506 526.08 302.442 533.051L302.016 533.634C292.051 526.642 283.051 519.028 274.093 511.45L274.092 511.45L274.091 511.449L274.09 511.448L274.089 511.447L274.088 511.447L274.087 511.446L274.086 511.445L274.085 511.444L274.084 511.443L274.083 511.442L274.082 511.441L274.081 511.44L274.08 511.439L274.078 511.439L274.077 511.438L274.076 511.437L274.075 511.436C272.497 510.1 270.919 508.766 269.338 507.436ZM234.464 486.098C247.323 493.281 257.673 501.989 267.775 510.963C269.273 512.294 270.765 513.63 272.26 514.969C280.839 522.652 289.484 530.395 299.569 537.387L299.992 536.803C289.947 529.838 281.339 522.128 272.759 514.445L272.756 514.442C271.261 513.103 269.767 511.765 268.266 510.432C258.157 501.451 247.758 492.7 234.827 485.476C200.189 466.141 163.345 445.774 127.537 429.022L127.537 429.022C115.779 423.526 105.648 424.13 95.6658 425.432C94.3749 425.6 93.0873 425.78 91.7995 425.96L91.7986 425.96C83.1193 427.172 74.4282 428.386 64.6394 426.112C55.3307 423.951 47.2775 418.332 40.1609 411.539C34.0498 405.706 28.6523 399.03 23.7513 392.968L23.7511 392.968L23.7509 392.968L23.7508 392.968L23.7507 392.968C22.9433 391.969 22.1494 390.987 21.368 390.028C19.5882 387.843 17.8365 385.675 16.0992 383.525C3.10746 367.443 -9.07419 352.364 -26.1026 338.813L-26.5638 339.369C-9.601 352.868 2.53003 367.884 15.5259 383.97L15.5263 383.97C17.2634 386.12 19.0161 388.29 20.7978 390.477L20.7978 390.477C21.5759 391.432 22.3675 392.411 23.1734 393.408L23.1743 393.409L23.1743 393.409L23.1744 393.409L23.1744 393.409L23.1745 393.409L23.1745 393.409L23.1746 393.409L23.1747 393.41L23.1749 393.41C28.0742 399.47 33.5038 406.185 39.6511 412.053C46.8118 418.888 54.9773 424.605 64.4672 426.808C74.3991 429.115 83.2333 427.879 91.9076 426.667L91.9162 426.665C93.1989 426.486 94.4782 426.307 95.757 426.141C105.695 424.844 115.654 424.261 127.22 429.668C163.001 446.407 199.824 466.762 234.464 486.098ZM265.497 514.689C255.505 505.668 245.224 496.96 232.076 489.94C196.655 471.018 159.559 452.658 123.354 435.484C111.895 430.05 102.23 430.399 92.5965 431.414C91.3951 431.54 90.1934 431.677 88.9883 431.815C80.5356 432.779 71.9166 433.762 62.0544 431.261C52.6611 428.88 44.4859 423.044 37.303 416.139C31.0192 410.098 25.4717 403.216 20.5233 397.078L20.5231 397.078L20.523 397.077C19.8156 396.2 19.1205 395.338 18.4373 394.495C16.5897 392.217 14.7747 389.958 12.9767 387.721L12.9747 387.718C0.0760166 371.668 -11.951 356.702 -28.9158 343.287L-28.4563 342.729C-11.4238 356.197 0.655295 371.229 13.5503 387.276L13.5514 387.277C15.3494 389.515 17.1633 391.772 19.0086 394.048C19.6821 394.878 20.3663 395.727 21.0618 396.589L21.0781 396.61L21.0787 396.61L21.0916 396.626L21.0978 396.634L21.0979 396.634C26.0488 402.776 31.5659 409.62 37.8147 415.627C44.9562 422.491 53.0231 428.232 62.2411 430.569C71.9636 433.034 80.4435 432.069 88.9007 431.105L88.9008 431.105C90.1077 430.968 91.3141 430.83 92.5235 430.703C102.204 429.684 112.033 429.319 123.675 434.84L123.515 435.162L123.675 434.84C159.887 452.017 196.994 470.383 232.428 489.311C245.657 496.375 255.991 505.132 265.993 514.161C267.529 515.547 269.056 516.94 270.585 518.334L270.586 518.335L270.587 518.335L270.588 518.336L270.589 518.337L270.59 518.338L270.59 518.338L270.591 518.339L270.592 518.34L270.593 518.341L270.594 518.341L270.595 518.342L270.595 518.343L270.596 518.344L270.597 518.344C279.027 526.029 287.498 533.751 297.585 540.684L297.164 541.27C287.033 534.307 278.522 526.548 270.092 518.863L270.088 518.86C268.559 517.465 267.031 516.073 265.497 514.689ZM228.022 491.801C241.636 498.844 252.214 507.848 262.433 517.276C264.339 519.035 266.234 520.808 268.133 522.587C276.409 530.337 284.784 538.179 294.673 545.25L295.105 544.672C285.258 537.631 276.925 529.828 268.651 522.08L268.651 522.08L268.65 522.079C266.747 520.298 264.848 518.52 262.934 516.754C252.703 507.315 242.068 498.257 228.365 491.168C193.2 472.97 156.677 455.193 120.823 438.602C109.383 433.309 99.4784 433.422 89.7074 434.117C88.5233 434.201 87.3419 434.294 86.1602 434.386C77.584 435.059 68.9978 435.732 59.3498 433.192L59.3496 433.192C50.1525 430.775 42.1319 425.109 35.0017 418.344C28.8671 412.524 23.4131 405.911 18.4433 399.886L18.4381 399.88L18.4334 399.874C17.6292 398.899 16.8378 397.94 16.0581 397.002C14.3389 394.932 12.6435 392.876 10.9606 390.835L10.9525 390.825L10.9485 390.82L10.9458 390.817L10.9458 390.817L10.9457 390.817C-2.20993 374.864 -14.5988 359.841 -31.5576 346.328L-32.0192 346.884C-15.1226 360.347 -2.7822 375.311 10.3779 391.269L10.378 391.269L10.3784 391.27L10.3829 391.275C12.0687 393.319 13.768 395.38 15.4921 397.456L15.4922 397.456C16.2722 398.394 17.0651 399.356 17.8716 400.334C22.8398 406.357 28.3244 413.006 34.4934 418.86C41.6652 425.664 49.7909 431.421 59.1566 433.882C68.9335 436.456 77.6483 435.772 86.2192 435.099C87.3998 435.006 88.5776 434.914 89.7552 434.83C99.4878 434.138 109.239 434.035 120.508 439.249C156.354 455.836 192.867 473.608 228.022 491.801ZM258.853 518.852C248.209 508.652 237.091 499.058 222.713 492.02C188.034 475.053 152.463 458.734 117.309 442.88C106.25 437.896 96.3919 437.604 86.5402 437.799C85.4219 437.821 84.3033 437.85 83.1828 437.878L83.1814 437.878L83.1799 437.878L83.1785 437.878L83.1771 437.878C74.4359 438.101 65.5793 438.326 55.868 435.579C37.1515 430.29 21.4714 414.609 6.88372 397.462C3.23351 393.172 -0.352007 388.784 -3.90126 384.441L-3.95664 384.373L-3.95669 384.373L-3.95674 384.373L-3.95678 384.373L-3.95683 384.373L-3.95688 384.373L-3.95692 384.373L-3.95697 384.372L-3.95702 384.372L-3.95706 384.372L-3.95711 384.372L-3.95716 384.372L-3.9572 384.372C-7.48823 380.051 -10.9833 375.773 -14.4748 371.672C-21.4964 363.424 -28.4908 355.904 -35.7065 350.194L-35.2467 349.637C-27.9744 355.391 -20.9435 362.955 -13.9143 371.211C-10.418 375.318 -6.91904 379.601 -3.38958 383.92L-3.38927 383.921L-3.33155 383.991C0.218403 388.336 3.7995 392.718 7.44439 397.002C22.0371 414.155 37.5927 429.67 56.0741 434.892C65.671 437.606 74.4134 437.385 83.1613 437.163C84.2836 437.135 85.4061 437.107 86.5304 437.084C96.4104 436.889 106.405 437.177 117.617 442.23C152.773 458.085 188.352 474.408 223.041 491.38C237.523 498.468 248.705 508.124 259.364 518.339C261.794 520.667 264.196 523.023 266.602 525.385L266.603 525.385L266.603 525.385L266.603 525.385L266.603 525.386L266.603 525.386L266.604 525.386L266.604 525.386L266.604 525.387L266.604 525.387L266.604 525.387L266.605 525.387L266.605 525.387C274.766 533.394 282.987 541.461 292.572 548.701L292.125 549.268C282.5 541.998 274.234 533.888 266.067 525.875L266.065 525.872C263.663 523.516 261.27 521.168 258.853 518.852ZM216.422 491.148C231.653 498.04 243.561 508.484 254.852 519.771C257.864 522.782 260.833 525.855 263.811 528.936L263.812 528.936C271.982 537.391 280.212 545.907 289.541 553.376L290.004 552.821C280.714 545.383 272.531 536.915 264.37 528.471C261.386 525.383 258.405 522.298 255.373 519.268C244.066 507.964 232.084 497.446 216.731 490.498C195.314 480.802 173.689 471.5 152.078 462.204C139.392 456.747 126.711 451.293 114.081 445.762L113.944 446.059L114.081 445.762C103.114 440.963 93.0126 440.146 83.0055 439.693C81.9953 439.647 80.9864 439.605 79.9777 439.563L79.9775 439.563L79.9774 439.563L79.9772 439.563L79.9771 439.563L79.9769 439.563L79.9768 439.563L79.9766 439.563L79.9765 439.563L79.9763 439.563L79.9761 439.563C70.9844 439.188 62.0157 438.814 52.429 435.84C33.9504 430.114 18.3934 415.133 3.72926 398.647C0.0940241 394.56 -3.48686 390.38 -7.04313 386.229L-7.04403 386.228L-7.04408 386.228C-17.8048 373.666 -28.3402 361.367 -39.4746 352.714L-39.9294 353.275C-28.8577 361.88 -18.3917 374.097 -7.6442 386.643L-7.64416 386.643L-7.64404 386.643L-7.64343 386.644C-4.07777 390.806 -0.481127 395.005 3.17889 399.119C17.8421 415.604 33.5148 430.73 52.2051 436.522C61.8888 439.525 70.9536 439.903 79.9371 440.277C80.9478 440.319 81.9575 440.361 82.967 440.407C92.9569 440.86 102.944 441.673 113.78 446.415C126.419 451.95 139.103 457.406 151.79 462.862L151.793 462.864L151.793 462.864C173.398 472.157 195.01 481.453 216.422 491.148L216.577 490.823L216.422 491.148ZM250.516 520.327C238.367 507.723 225.453 496.226 209.46 489.661C185.588 479.861 161.594 470.341 137.611 460.826L137.61 460.826L137.61 460.826L137.61 460.826L137.61 460.826L137.609 460.826L137.609 460.825L137.609 460.825L137.609 460.825L137.608 460.825L137.608 460.825L137.6 460.822L137.592 460.819L137.585 460.816L137.577 460.813L137.569 460.809L137.561 460.806L137.553 460.803L137.545 460.8L137.538 460.797L137.53 460.794C128.362 457.157 119.196 453.52 110.038 449.868L110.177 449.537L110.038 449.868C99.4686 445.651 89.2934 444.202 79.1211 442.91C78.5169 442.833 77.9128 442.757 77.3085 442.681L77.2988 442.679L77.2674 442.675C67.7199 441.472 58.1502 440.265 48.3022 436.879C29.6403 430.458 13.9891 415.965 -0.759874 400.26C-4.34585 396.442 -7.87786 392.553 -11.3872 388.689L-11.3877 388.689L-11.3878 388.689C-22.3359 376.634 -33.0635 364.822 -44.5217 356.155L-44.0744 355.588C-32.5577 364.299 -21.7655 376.183 -10.8062 388.25L-10.8053 388.251C-7.30447 392.106 -3.78655 395.979 -0.222519 399.774C14.5233 415.475 30.0698 429.847 48.5473 436.204C58.3208 439.565 67.8198 440.763 77.38 441.968L77.3802 441.968L78.4574 442.104L79.2194 442.201C89.3935 443.493 99.6519 444.951 110.316 449.206C119.497 452.867 128.688 456.513 137.881 460.16C161.867 469.677 185.868 479.199 209.745 489.001C225.883 495.625 238.881 507.213 251.047 519.834C254.748 523.673 258.37 527.606 261.98 531.525L261.981 531.526L261.981 531.526C270.252 540.507 278.459 549.417 287.405 556.977L286.928 557.52C277.946 549.93 269.689 540.966 261.403 531.969C257.8 528.058 254.192 524.14 250.516 520.327ZM202.125 488.053C218.692 494.117 232.766 506.786 245.948 520.83C250.355 525.526 254.664 530.378 258.933 535.184L258.933 535.185C267.41 544.728 275.725 554.09 284.32 561.682L284.81 561.149C276.246 553.585 267.982 544.281 259.525 534.758C255.249 529.943 250.924 525.073 246.485 520.344C233.292 506.288 219.121 493.509 202.384 487.383C190.687 483.097 178.929 478.962 167.17 474.826L167.169 474.826C146.824 467.671 126.473 460.513 106.418 452.573C96.0036 448.45 85.6081 446.292 75.2819 444.19L74.6028 444.052L74.6026 444.052C64.4979 441.996 54.462 439.954 44.4836 436.142L44.3495 436.476L44.4836 436.142C26.0646 429.109 10.5265 415.387 -4.32788 400.536C-7.77049 397.094 -11.1771 393.591 -14.5741 390.097C-25.8154 378.537 -36.9527 367.083 -48.9472 358.319L-49.3849 358.893C-37.4442 367.618 -26.3657 379.011 -15.1331 390.562L-15.133 390.562L-15.1329 390.562L-15.1327 390.563L-15.1326 390.563L-15.1325 390.563L-15.1323 390.563L-15.1322 390.563L-15.1321 390.563L-15.1319 390.563C-11.7281 394.064 -8.31002 397.579 -4.84954 401.038C10.0108 415.895 25.641 429.716 44.2154 436.809C54.251 440.642 64.3388 442.695 74.4285 444.748L75.1293 444.89C85.4608 446.994 95.7956 449.141 106.142 453.236C126.207 461.181 146.585 468.348 166.942 475.507C178.698 479.642 190.447 483.774 202.125 488.053L202.255 487.718L202.125 488.053ZM242.446 523.012C228.747 508.042 214.188 494.391 197.886 487.868C182.645 481.77 166.916 477.073 151.166 472.37L150.01 472.025C133.879 467.207 117.74 462.347 102.129 455.937C92.2692 451.889 82.021 449.198 71.7796 446.508L71.7543 446.502L70.4669 446.163L69.6019 445.936C58.6467 443.051 47.7345 440.059 37.41 435.298C19.6245 427.096 4.52873 414.141 -10.0417 400.503C-12.8767 397.849 -15.6913 395.17 -18.502 392.495L-18.5021 392.495L-18.5022 392.495L-18.5023 392.495L-18.5024 392.495L-18.5025 392.495L-18.5026 392.494L-18.5027 392.494L-18.5028 392.494L-18.5029 392.494C-30.1512 381.407 -41.7313 370.385 -54.405 361.506L-53.9791 360.924C-41.2568 369.837 -29.6274 380.906 -17.9761 391.996L-17.974 391.998L-17.974 391.998C-15.1681 394.669 -12.361 397.341 -9.53708 399.984C5.02785 413.617 20.0519 426.501 37.7233 434.651C47.9825 439.382 58.8367 442.36 69.795 445.245C70.5237 445.437 71.2529 445.628 71.9823 445.82C82.214 448.507 92.5072 451.21 102.414 455.277L102.272 455.607L102.414 455.277C117.986 461.671 134.091 466.521 150.226 471.341L151.394 471.689C167.135 476.39 182.893 481.095 198.165 487.206C214.632 493.795 229.285 507.557 242.989 522.533C247.591 527.562 252.084 532.725 256.504 537.804L256.506 537.806C265.274 547.882 273.755 557.628 282.233 565.347L281.736 565.873C273.228 558.127 264.697 548.324 255.912 538.228C251.497 533.156 247.019 528.009 242.446 523.012ZM214.024 502.819C207.94 497.068 201.328 492.02 193.55 488.604L214.024 502.819ZM193.55 488.604L190.873 486.745C176.813 481.52 162.289 477.651 147.785 473.787C146.681 473.493 145.577 473.199 144.474 472.905C128.864 468.737 113.316 464.456 98.3877 458.373C89.791 454.87 80.8025 451.859 71.8027 448.844L71.8024 448.843L71.7992 448.842L71.796 448.841L71.7928 448.84L71.7896 448.839L71.7864 448.838L71.7832 448.837L71.78 448.836C69.7457 448.154 67.7108 447.473 65.6798 446.785C54.6488 443.05 43.724 439.137 33.5661 434.124C16.1435 425.52 1.00949 413.251 -13.7834 400.423C-16.4063 398.149 -19.0187 395.857 -21.6312 393.564L-21.6313 393.564L-21.6314 393.564C-33.7434 382.936 -45.8589 372.305 -59.0345 363.437L-59.4491 364.028C-46.3154 372.867 -34.2416 383.462 -22.1307 394.088L-22.1302 394.089L-22.1298 394.089L-22.1293 394.09L-22.1288 394.09L-22.1283 394.09L-22.1278 394.091L-22.1273 394.091C-19.5128 396.385 -16.8966 398.681 -14.2677 400.961C0.530043 413.793 15.7233 426.115 33.2354 434.763C43.4398 439.8 54.404 443.725 65.4383 447.461C67.4819 448.153 69.5278 448.838 71.5717 449.523L71.5718 449.523L71.5719 449.523L71.5721 449.523L71.5722 449.523L71.5723 449.523L71.5724 449.524L71.5726 449.524C80.5709 452.538 89.5319 455.541 98.1047 459.034C113.082 465.136 128.671 469.428 144.278 473.595C145.377 473.888 146.476 474.181 147.574 474.474L147.583 474.476C162.095 478.342 176.585 482.202 190.611 487.414L190.742 487.079L190.611 487.414C191.61 487.784 192.589 488.182 193.55 488.604ZM232.992 527.369C217.725 511.184 201.581 496.334 183.836 488.36C169.789 482.048 154.558 478.436 139.231 474.929C138.56 474.775 137.889 474.622 137.217 474.468C122.567 471.121 107.875 467.763 94.1551 462.124C88.8821 459.957 83.4576 457.8 77.9696 455.619L77.9689 455.619L77.9686 455.618L77.9684 455.618C61.464 449.058 44.3853 442.269 29.1246 434.26C11.9441 425.25 -3.38384 413.518 -18.4403 401.437C-20.7926 399.549 -23.138 397.654 -25.4828 395.758L-25.483 395.758L-25.4835 395.758C-38.1554 385.516 -50.8093 375.288 -64.4193 366.473L-64.0157 365.876C-50.3708 374.713 -37.6828 384.968 -25.0114 395.21L-25.0101 395.211L-25.0091 395.212C-22.6666 397.106 -20.3248 398.998 -17.9775 400.882C-2.92414 412.96 12.3572 424.654 29.4709 433.629C44.6947 441.618 61.7212 448.386 78.2168 454.944L78.2187 454.944C83.7134 457.129 89.1492 459.289 94.4398 461.464C108.102 467.079 122.74 470.425 137.406 473.776L137.465 473.789C138.11 473.937 138.755 474.084 139.401 474.232C154.72 477.738 170.02 481.363 184.143 487.71C202.027 495.746 218.253 510.688 233.528 526.882C239.064 532.751 244.472 538.781 249.791 544.711C259.17 555.167 268.27 565.313 277.299 573.717L276.797 574.238C267.746 565.814 258.605 555.623 249.209 545.147C243.895 539.223 238.499 533.208 232.992 527.369ZM177.936 491.32C196.052 499.434 212.888 514.491 228.854 530.894C234.84 537.044 240.707 543.387 246.471 549.619C256.059 559.985 265.363 570.044 274.459 578.396L274.958 577.872C265.879 569.535 256.615 559.519 247.045 549.172C241.277 542.935 235.398 536.579 229.382 530.398C213.408 513.987 196.492 498.843 178.242 490.669C164.406 484.473 149.462 480.918 134.518 477.437L133.338 477.163L133.338 477.163C118.776 473.773 104.241 470.389 90.6891 464.643L90.5432 464.972L90.689 464.643C69.2584 455.562 45.9722 444.69 25.5299 433.397C8.73715 424.122 -6.71774 412.946 -22.0419 401.541C-23.9786 400.1 -25.9134 398.655 -27.8485 397.21C-41.2188 387.223 -54.6061 377.224 -68.7953 368.347L-69.1888 368.951C-55.0269 377.811 -41.6652 387.791 -28.2928 397.779L-28.2861 397.784L-28.279 397.789C-26.3482 399.231 -24.4172 400.673 -22.4836 402.113C-13.2644 408.974 -3.98607 415.761 5.60991 422.105L5.38289 421.958C-3.77723 416.033 -12.8781 410.001 -21.99 403.963L-21.9931 403.961C-38.9228 392.741 -55.8904 381.497 -73.3466 370.857L-73.7323 371.466C-56.2868 382.099 -39.3412 393.329 -22.4202 404.543L-22.4192 404.544L-22.4176 404.545L-22.4163 404.545L-22.415 404.546L-22.4137 404.547C-13.2998 410.587 -4.19308 416.622 4.98079 422.557C31.1804 439.505 57.9085 455.62 86.8448 468.629L86.9975 468.304L86.8448 468.629C100.407 474.724 114.919 478.595 129.389 482.454L130.136 482.654C144.864 486.583 159.532 490.54 173.163 496.856C191.526 505.371 208.739 520.095 225.151 536.064C231.47 542.213 237.675 548.552 243.779 554.787L243.781 554.789C253.507 564.724 262.978 574.399 272.25 582.632L272.739 582.1C263.48 573.879 254.046 564.241 244.337 554.322L244.337 554.322C238.229 548.082 232.013 541.732 225.664 535.554C209.243 519.576 191.957 504.778 173.476 496.209C159.779 489.861 145.049 485.89 130.33 481.963L129.608 481.77L129.608 481.77C115.12 477.906 100.657 474.048 87.1502 467.978C61.1988 456.311 37.0185 442.138 13.3826 427.093C17.2462 429.495 21.1702 431.811 25.1703 434.021C45.6411 445.33 68.9516 456.213 90.3973 465.3C104.008 471.071 118.598 474.467 133.141 477.853L133.141 477.853L134.346 478.133C149.299 481.616 164.175 485.157 177.936 491.32ZM172.63 506.301C190.397 515.496 207.149 529.194 223.284 543.787C229.23 549.165 235.095 554.667 240.895 560.109C250.82 569.419 260.554 578.552 270.18 586.578L270.651 586.031C261.039 578.016 251.335 568.911 241.424 559.613L241.424 559.613C235.62 554.168 229.746 548.657 223.778 543.259C207.633 528.657 190.824 514.907 172.971 505.667C158.979 498.426 143.826 493.445 128.66 488.567C128.011 488.358 127.362 488.149 126.713 487.941C112.188 483.273 97.697 478.617 84.1941 472.075C55.9375 458.383 29.0047 441.778 2.41798 424.566C-5.09028 419.705 -12.5717 414.795 -20.0476 409.889L-20.0482 409.889L-20.0487 409.888L-20.0493 409.888C-39.0388 397.426 -57.9925 384.987 -77.259 373.434L-77.6397 374.046C-58.386 385.591 -39.4508 398.018 -20.4654 410.477L-20.4614 410.48C-12.9842 415.387 -5.49913 420.299 2.01623 425.164C28.6091 442.381 55.5721 459.006 83.8702 472.717C97.4206 479.282 111.956 483.953 126.468 488.616C127.123 488.826 127.777 489.037 128.431 489.247C143.602 494.127 158.7 499.092 172.63 506.301ZM220.874 553.074C204.857 540.499 188.481 528.462 171.236 518.741L171.418 518.43L171.236 518.741C156.809 510.606 141.573 503.873 126.288 497.191L124.33 496.335C109.7 489.943 95.0543 483.543 81.0889 475.959C46.6603 457.258 13.4197 436.095 -19.7626 414.969L-19.7637 414.969L-19.7648 414.968C-40.1499 401.99 -60.513 389.025 -81.1161 376.654L-80.7362 376.042C-60.0961 388.435 -39.7187 401.409 -19.3287 414.391L-19.3283 414.391C13.8334 435.505 47.0286 456.639 81.4416 475.331C95.3789 482.901 109.999 489.289 124.636 495.685L126.585 496.536C141.867 503.217 157.136 509.963 171.599 518.119C188.893 527.868 205.302 539.932 221.328 552.513C227.364 557.252 233.343 562.062 239.294 566.849C249.153 574.781 258.937 582.652 268.78 590.038L268.338 590.608C258.489 583.217 248.685 575.331 238.817 567.392L238.817 567.392C232.867 562.606 226.895 557.801 220.874 553.074ZM19.0029 442.252L19.025 442.265C101.789 492.78 184.555 543.295 266.761 594.665L267.15 594.059C184.941 542.686 102.17 492.168 19.4045 441.653L19.4043 441.653L19.4009 441.651C-14.9521 420.684 -49.3042 399.717 -83.6152 378.691L-83.9991 379.3C-49.6919 400.324 -15.3445 421.288 19.0029 442.252Z" fill="url(#paint4_linear_2839_65)" fill-opacity="0.4"></path> </g> <defs> <filter id="filter0_f_2839_65" x="99.2834" y="184.304" width="840.987" height="493.977" filterUnits="userSpaceOnUse" color-interpolation-filters="sRGB"> <feFlood flood-opacity="0" result="BackgroundImageFix"></feFlood> <feBlend mode="normal" in="SourceGraphic" in2="BackgroundImageFix" result="shape"></feBlend> <feGaussianBlur stdDeviation="90" result="effect1_foregroundBlur_2839_65"></feGaussianBlur> </filter> <filter id="filter1_f_2839_65" x="-357.94" y="-31.8708" width="796.841" height="568.595" filterUnits="userSpaceOnUse" color-interpolation-filters="sRGB"> <feFlood flood-opacity="0" result="BackgroundImageFix"></feFlood> <feBlend mode="normal" in="SourceGraphic" in2="BackgroundImageFix" result="shape"></feBlend> <feGaussianBlur stdDeviation="90" result="effect1_foregroundBlur_2839_65"></feGaussianBlur> </filter> <filter id="filter2_f_2839_65" x="-343.6" y="131.57" width="1027.98" height="652.583" filterUnits="userSpaceOnUse" color-interpolation-filters="sRGB"> <feFlood flood-opacity="0" result="BackgroundImageFix"></feFlood> <feBlend mode="normal" in="SourceGraphic" in2="BackgroundImageFix" result="shape"></feBlend> <feGaussianBlur stdDeviation="90" result="effect1_foregroundBlur_2839_65"></feGaussianBlur> </filter> <linearGradient id="paint0_linear_2839_65" x1="139.5" y1="-196.5" x2="446.609" y2="739.501" gradientUnits="userSpaceOnUse"> <stop stop-color="#252426" stop-opacity="0.7"></stop> <stop offset="1" stop-color="#807B9E" stop-opacity="0.12"></stop> </linearGradient> <linearGradient id="paint1_linear_2839_65" x1="1269.64" y1="676.421" x2="753.984" y2="-468.856" gradientUnits="userSpaceOnUse"> <stop stop-color="#8778A7" stop-opacity="0.05"></stop> <stop offset="1" stop-color="#FFEFF5" stop-opacity="0.28"></stop> </linearGradient> <linearGradient id="paint2_linear_2839_65" x1="638.5" y1="216.764" x2="621.773" y2="-73.0571" gradientUnits="userSpaceOnUse"> <stop stop-color="#141516"></stop> <stop offset="1" stop-color="#141516" stop-opacity="0"></stop> </linearGradient> <linearGradient id="paint3_linear_2839_65" x1="386.5" y1="-75.5" x2="996.669" y2="649.943" gradientUnits="userSpaceOnUse"> <stop stop-color="#6A5C5A" stop-opacity="0.62"></stop> <stop offset="1" stop-color="#332F3C"></stop> </linearGradient> <linearGradient id="paint4_linear_2839_65" x1="168.081" y1="362.092" x2="91.3809" y2="486.996" gradientUnits="userSpaceOnUse"> <stop stop-color="#D1E9FF" stop-opacity="0.85"></stop> <stop offset="1" stop-color="#FFDBDB" stop-opacity="0.96"></stop> </linearGradient> </defs> </svg> 