<?xml version="1.0" encoding="UTF-8"?> <svg xmlns="http://www.w3.org/2000/svg" width="1979" height="1314" viewBox="0 0 1979 1314" fill="none"> <g filter="url(#filter0_f_2954_75)"> <path d="M1420.69 668.054C1449.3 687.321 1657.71 567.944 1657.71 567.944L1811.79 692.238L1828.97 839.314C1828.97 839.314 1755.43 873.673 1693.88 813.043C1622.24 742.485 1506.73 828.314 1475.84 795.262C1444.95 762.21 1436.77 746.148 1389.61 709.502C1342.45 672.857 1288.82 681.551 1240.3 665.45C1191.77 649.349 1132.58 554.177 1119.15 556.378C1105.73 558.58 914.498 591.441 813.639 531.011C757.194 497.191 221.451 659.68 151.951 654.698C134.543 653.45 333.504 560.397 250.924 527.032C165.233 492.409 594.847 540.316 627.534 513.305C654.712 490.846 842.566 377.995 948.264 359.284C1010.47 348.272 1096.87 305.671 1096.87 305.671L1237.17 356.635L1316.1 431.259C1316.1 431.259 1378.8 482.53 1398.41 500.233C1418.03 517.937 1402.43 536.496 1411.33 557.779C1420.24 579.062 1392.08 648.788 1420.69 668.054Z" fill="url(#paint0_radial_2954_75)" fill-opacity="0.4"></path> <path d="M1420.69 668.054C1449.3 687.321 1657.71 567.944 1657.71 567.944L1811.79 692.238L1828.97 839.314C1828.97 839.314 1755.43 873.673 1693.88 813.043C1622.24 742.485 1506.73 828.314 1475.84 795.262C1444.95 762.21 1436.77 746.148 1389.61 709.502C1342.45 672.857 1288.82 681.551 1240.3 665.45C1191.77 649.349 1132.58 554.177 1119.15 556.378C1105.73 558.58 914.498 591.441 813.639 531.011C757.194 497.191 221.451 659.68 151.951 654.698C134.543 653.45 333.504 560.397 250.924 527.032C165.233 492.409 594.847 540.316 627.534 513.305C654.712 490.846 842.566 377.995 948.264 359.284C1010.47 348.272 1096.87 305.671 1096.87 305.671L1237.17 356.635L1316.1 431.259C1316.1 431.259 1378.8 482.53 1398.41 500.233C1418.03 517.937 1402.43 536.496 1411.33 557.779C1420.24 579.062 1392.08 648.788 1420.69 668.054Z" fill="url(#paint1_linear_2954_75)" fill-opacity="0.2"></path> </g> <g filter="url(#filter1_f_2954_75)"> <ellipse cx="1531.48" cy="707.457" rx="77.5" ry="41" transform="rotate(8.05666 1531.48 707.457)" fill="#BAEAFF" fill-opacity="0.09"></ellipse> </g> <g filter="url(#filter2_f_2954_75)"> <ellipse cx="207.087" cy="580.342" rx="99.0542" ry="42.8825" transform="rotate(8.05666 207.087 580.342)" fill="#FFD8FB" fill-opacity="0.21"></ellipse> </g> <g filter="url(#filter3_f_2954_75)"> <ellipse cx="939.151" cy="487.719" rx="77.5" ry="41" transform="rotate(-11.5767 939.151 487.719)" fill="#FFF1D5" fill-opacity="0.21"></ellipse> </g> <defs> <filter id="filter0_f_2954_75" x="0.865234" y="155.671" width="1978.11" height="843.341" filterUnits="userSpaceOnUse" color-interpolation-filters="sRGB"> <feFlood flood-opacity="0" result="BackgroundImageFix"></feFlood> <feBlend mode="normal" in="SourceGraphic" in2="BackgroundImageFix" result="shape"></feBlend> <feGaussianBlur stdDeviation="75" result="effect1_foregroundBlur_2954_75"></feGaussianBlur> </filter> <filter id="filter1_f_2954_75" x="1354.53" y="565.423" width="353.907" height="284.068" filterUnits="userSpaceOnUse" color-interpolation-filters="sRGB"> <feFlood flood-opacity="0" result="BackgroundImageFix"></feFlood> <feBlend mode="normal" in="SourceGraphic" in2="BackgroundImageFix" result="shape"></feBlend> <feGaussianBlur stdDeviation="50" result="effect1_foregroundBlur_2954_75"></feGaussianBlur> </filter> <filter id="filter2_f_2954_75" x="8.82324" y="435.659" width="396.527" height="289.367" filterUnits="userSpaceOnUse" color-interpolation-filters="sRGB"> <feFlood flood-opacity="0" result="BackgroundImageFix"></feFlood> <feBlend mode="normal" in="SourceGraphic" in2="BackgroundImageFix" result="shape"></feBlend> <feGaussianBlur stdDeviation="50" result="effect1_foregroundBlur_2954_75"></feGaussianBlur> </filter> <filter id="filter3_f_2954_75" x="762.777" y="344.635" width="352.749" height="286.167" filterUnits="userSpaceOnUse" color-interpolation-filters="sRGB"> <feFlood flood-opacity="0" result="BackgroundImageFix"></feFlood> <feBlend mode="normal" in="SourceGraphic" in2="BackgroundImageFix" result="shape"></feBlend> <feGaussianBlur stdDeviation="50" result="effect1_foregroundBlur_2954_75"></feGaussianBlur> </filter> <radialGradient id="paint0_radial_2954_75" cx="0" cy="0" r="1" gradientUnits="userSpaceOnUse" gradientTransform="translate(1125.64 306.105) rotate(52.9565) scale(687.224 1205.36)"> <stop stop-color="#F27630" stop-opacity="0.76"></stop> <stop offset="1" stop-color="#5E33B9" stop-opacity="0.88"></stop> </radialGradient> <linearGradient id="paint1_linear_2954_75" x1="1622.1" y1="736.148" x2="1071.57" y2="692.859" gradientUnits="userSpaceOnUse"> <stop stop-color="#1483EB"></stop> <stop offset="1" stop-color="#FFB545"></stop> </linearGradient> </defs> </svg> 