<?xml version="1.0" encoding="UTF-8"?> <svg xmlns="http://www.w3.org/2000/svg" width="600" height="476" viewBox="0 0 600 476" fill="none"> <rect x="0.5" y="0.5" width="599" height="475" rx="19.5" fill="url(#paint0_linear_2915_344)" fill-opacity="0.5" stroke="url(#paint1_linear_2915_344)"></rect> <mask id="mask0_2915_344" style="mask-type:alpha" maskUnits="userSpaceOnUse" x="0" y="0" width="600" height="476"> <rect width="600" height="476" rx="20" fill="url(#paint2_linear_2915_344)"></rect> <rect width="600" height="476" rx="20" fill="url(#paint3_linear_2915_344)"></rect> </mask> <g mask="url(#mask0_2915_344)"> <g filter="url(#filter0_f_2915_344)"> <ellipse rx="185.279" ry="52.0811" transform="matrix(-0.983251 -0.126545 0.29399 0.867801 338.387 408.081)" fill="#FFD39E" fill-opacity="0.35"></ellipse> </g> <g filter="url(#filter1_f_2915_344)"> <ellipse rx="173.557" ry="67.6865" transform="matrix(-0.919986 -0.3302 -0.671066 0.80954 -25.9848 272.104)" fill="#FF9EBB" fill-opacity="0.4"></ellipse> </g> <g filter="url(#filter2_f_2915_344)"> <ellipse rx="270.164" ry="80.5052" transform="matrix(-0.918364 -0.333008 -0.667032 0.811955 72.7769 428.28)" fill="#8361E2" fill-opacity="0.35"></ellipse> </g> <path fill-rule="evenodd" clip-rule="evenodd" d="M31.3738 315.395C19.9523 310.769 8.49251 306.127 -2.61186 300.492L-2.2739 299.856C8.80019 305.476 20.2248 310.104 31.6444 314.729C34.2684 315.792 36.8921 316.855 39.5113 317.929C53.521 323.677 67.3899 329.763 80.4031 338.015L80.4031 338.015C88.1891 342.954 96.1974 347.921 104.296 352.944C132.353 370.346 161.497 388.422 186.253 408.356L186.038 408.612L186.253 408.356C195.477 415.788 198.141 424.23 200.298 432.725C200.478 433.43 200.653 434.135 200.829 434.84L200.83 434.845C202.769 442.635 204.698 450.381 211.217 457.525L210.945 457.765L211.217 457.525C220.812 468.046 236.224 471.675 252.47 474.086C255.793 474.579 259.157 475.022 262.509 475.464L262.51 475.464C267.321 476.097 272.107 476.727 276.718 477.499C284.556 478.81 291.953 480.537 298.246 483.41L297.935 484.058C291.73 481.226 284.409 479.511 276.591 478.203C271.985 477.433 267.229 476.807 262.435 476.176L262.433 476.176L262.432 476.176C259.079 475.734 255.708 475.29 252.356 474.793C236.123 472.384 220.46 468.734 210.673 458.004C204.028 450.722 202.06 442.809 200.125 435.033L200.124 435.029L200.123 435.025L200.123 435.024C199.947 434.316 199.771 433.608 199.592 432.902C197.443 424.444 194.827 416.192 185.789 408.91C161.071 389.006 131.979 370.963 103.929 353.565C95.8236 348.538 87.8054 343.564 80.0048 338.616C67.0488 330.4 53.23 324.335 39.2265 318.589C36.6142 317.517 33.995 316.457 31.3738 315.395ZM-5.63021 303.861C5.64711 309.603 17.4745 313.859 29.2554 318.098L29.2556 318.098L29.2559 318.098L29.2561 318.098L29.2564 318.099L29.2566 318.099L29.2569 318.099L29.2571 318.099L29.2574 318.099L29.2577 318.099L29.2579 318.099L29.2582 318.099L29.2584 318.099L29.2587 318.099L29.2589 318.099L29.2592 318.1L29.2594 318.1L29.2597 318.1L29.2599 318.1L29.2602 318.1L29.2604 318.1L29.2607 318.1L29.2609 318.1L29.2612 318.1L29.2614 318.1L29.2617 318.1L29.2619 318.101L29.2622 318.101L29.2625 318.101L29.2627 318.101C31.2999 318.834 33.3357 319.566 35.3671 320.306C49.158 325.328 62.7527 330.68 75.2596 338.744L75.4611 338.445L75.2596 338.744C111.108 361.857 147.494 388.646 181.028 414.705C189.959 421.646 193.072 429.993 195.928 438.478C196.068 438.895 196.208 439.312 196.348 439.729L196.348 439.73L196.348 439.731L196.349 439.734L196.353 439.745L196.354 439.749L196.355 439.75L196.356 439.753C199.055 447.817 201.781 455.961 209.358 462.902C220.203 472.843 235.46 476.015 251.133 478.193C253.802 478.564 256.482 478.906 259.156 479.247L259.156 479.247L259.157 479.248C272.23 480.916 285.143 482.564 295.763 487.453L296.077 486.805C285.344 481.865 272.292 480.2 259.219 478.533L259.218 478.533C256.553 478.193 253.887 477.853 251.24 477.485C235.562 475.307 220.52 472.152 209.857 462.378L209.607 462.64L209.857 462.378C202.419 455.564 199.745 447.58 197.038 439.494C196.899 439.08 196.76 438.665 196.62 438.25C193.759 429.75 190.594 421.224 181.483 414.143L181.255 414.424L181.483 414.143C147.94 388.078 111.535 361.274 75.6626 338.146C63.0821 330.034 49.4204 324.659 35.6246 319.636C33.5857 318.893 31.5441 318.159 29.5027 317.424C17.7203 313.184 5.94174 308.946 -5.29121 303.226L-5.63021 303.861ZM27.8378 321.568C15.6992 317.458 3.49741 313.327 -8.05409 307.239L-7.70595 306.609C3.7904 312.667 15.9328 316.779 28.0758 320.891L28.0761 320.891C29.8404 321.488 31.6048 322.086 33.3672 322.689C47.2475 327.442 60.995 332.562 73.5546 340.971C91.2267 352.798 108.105 366.012 124.803 379.44C128.413 382.343 132.015 385.256 135.614 388.168L135.615 388.168C148.667 398.725 161.689 409.258 174.988 419.212L174.765 419.496L174.988 419.212C184.051 425.998 188.079 434.255 191.859 442.477C192.018 442.822 192.176 443.167 192.334 443.512L192.346 443.538C195.955 451.409 199.519 459.181 207.211 465.704C218.651 475.402 233.595 478.455 249.085 480.609C251.488 480.944 253.906 481.256 256.324 481.569C269.457 483.268 282.637 484.973 293.941 490.185L293.628 490.832C282.434 485.671 269.387 483.982 256.251 482.282L256.251 482.282C253.826 481.968 251.398 481.654 248.978 481.317C233.487 479.163 218.347 476.092 206.732 466.246C198.916 459.619 195.294 451.716 191.695 443.865C191.528 443.501 191.362 443.138 191.195 442.775C187.418 434.56 183.451 426.451 174.543 419.781C161.233 409.818 148.196 399.274 135.143 388.716L135.142 388.715C131.544 385.805 127.945 382.894 124.339 379.994C107.643 366.568 90.7857 353.371 73.1412 341.562L73.1412 341.562C60.6669 333.211 46.999 328.115 33.123 323.364C31.3663 322.763 29.606 322.167 27.8445 321.571L27.8418 321.57L27.8415 321.57L27.8412 321.569L27.8409 321.569L27.8405 321.569L27.8402 321.569L27.8399 321.569L27.8396 321.569L27.8393 321.569L27.8389 321.569L27.8378 321.568ZM24.6576 324.766L24.6577 324.766C26.898 325.564 29.1367 326.361 31.3692 327.169C45.2647 332.194 58.9286 337.601 71.3104 345.89L71.3104 345.89C95.2014 361.875 118.187 380.082 140.979 398.136L140.979 398.136C150.995 406.069 160.973 413.972 170.974 421.645C179.811 428.424 184.274 436.833 188.601 445.326C188.734 445.587 188.867 445.849 189.001 446.11L189.032 446.172L189.057 446.222C193.222 454.409 197.404 462.63 205.417 469.339C216.933 478.982 231.941 482.243 247.306 484.587C249.871 484.978 252.445 485.344 255.015 485.709C267.877 487.536 280.636 489.348 291.608 494.276L291.915 493.625C280.839 488.651 267.955 486.822 255.093 484.996L255.093 484.996C252.53 484.632 249.969 484.269 247.422 483.88C232.061 481.537 217.239 478.295 205.892 468.794C197.993 462.18 193.87 454.076 189.692 445.865C189.546 445.578 189.4 445.29 189.253 445.003C184.927 436.51 180.403 427.967 171.425 421.081C161.443 413.423 151.476 405.528 141.466 397.599L141.466 397.599L141.466 397.599C118.662 379.537 95.6392 361.3 71.7236 345.298C59.2631 336.957 45.5268 331.525 31.6251 326.498C29.3863 325.688 27.1435 324.889 24.901 324.09L24.8992 324.089C13.2064 319.924 1.52223 315.761 -9.54388 310.117L-9.88324 310.751C1.22878 316.419 12.9649 320.6 24.6575 324.766L24.6576 324.766L24.6576 324.766ZM22.1811 328.999C10.894 324.515 -0.421624 320.02 -11.254 314.514L-10.9159 313.878C-0.116498 319.368 11.158 323.847 22.4406 328.329C25.5305 329.557 28.6211 330.784 31.7027 332.033C46.0259 337.838 60.1412 344.093 73.0148 352.881C104.883 374.634 136.831 398.44 167.133 422.103C176.013 429.036 181.205 437.456 186.16 445.889C186.439 446.364 186.717 446.839 186.995 447.313L187.011 447.34C191.673 455.296 196.295 463.184 203.777 469.881C215.002 479.921 229.789 483.755 245.181 486.562C248.183 487.11 251.209 487.618 254.235 488.127L254.236 488.127C266.69 490.221 279.149 492.315 289.955 497.131L289.65 497.782C278.938 493.008 266.598 490.933 254.152 488.84C251.115 488.329 248.071 487.818 245.043 487.265C229.642 484.456 214.672 480.597 203.284 470.411L203.531 470.146L203.284 470.411C195.716 463.637 191.042 455.659 186.391 447.72L186.385 447.71C186.1 447.223 185.815 446.736 185.529 446.249C180.575 437.819 175.441 429.506 166.677 422.663L166.905 422.383L166.677 422.663C136.384 399.007 104.448 375.211 72.5965 353.469C59.7902 344.727 45.7355 338.496 31.4211 332.695C28.3508 331.45 25.2679 330.226 22.1829 329L22.1824 329L22.1811 328.999ZM19.9506 333.716L19.9507 333.716C23.3356 335.236 26.7196 336.755 30.0916 338.292C44.2721 344.758 58.2499 351.549 71.2445 360.057C101.9 380.125 133.643 401.245 162.637 423.41L162.862 423.127L162.637 423.41C171.77 430.39 177.77 439.011 183.624 447.749C183.949 448.233 184.273 448.718 184.597 449.203C190.113 457.454 195.651 465.738 203.709 472.675L203.916 472.444L203.709 472.675C215.185 482.551 229.612 486.692 244.436 489.881C247.365 490.511 250.309 491.104 253.249 491.696C265.216 494.107 277.123 496.505 287.749 501.352L288.059 500.703C277.349 495.818 265.335 493.398 253.36 490.987C250.43 490.397 247.502 489.807 244.595 489.182C229.785 485.996 215.518 481.885 204.19 472.136C196.209 465.264 190.721 457.056 185.194 448.789L185.181 448.77C184.865 448.298 184.549 447.825 184.233 447.353C178.379 438.616 172.323 429.904 163.086 422.844C134.069 400.662 102.306 379.53 71.6507 359.461C58.608 350.921 44.5887 344.112 30.4013 337.643C27.0206 336.102 23.6309 334.58 20.2426 333.059L20.2425 333.059C9.40411 328.193 -1.42059 323.333 -11.8949 317.857L-12.2399 318.489C-1.74454 323.975 9.10751 328.848 19.9501 333.716L19.9501 333.716L19.9502 333.716L19.9502 333.716L19.9503 333.716L19.9503 333.716L19.9503 333.716L19.9504 333.716L19.9504 333.716L19.9505 333.716L19.9505 333.716L19.9506 333.716L19.9506 333.716L19.9506 333.716ZM17.7421 339.293L17.741 339.292C7.4916 333.757 -2.7445 328.23 -12.9215 322.651L-12.5646 322.026C-2.39615 327.599 7.83428 333.124 18.0804 338.657C66.2749 364.684 114.816 390.898 158.883 423.301C168.669 430.495 175.721 439.471 182.588 448.499C182.991 449.029 183.394 449.56 183.797 450.09L183.802 450.097C190.259 458.603 196.683 467.064 205.221 474.121C216.58 483.51 230.241 487.956 244.373 491.606C247.137 492.32 249.92 493.004 252.707 493.688L252.707 493.688L252.708 493.688L252.708 493.689L252.709 493.689L252.709 493.689L252.71 493.689L252.71 493.689L252.711 493.689L252.711 493.689L252.712 493.689L252.712 493.689L252.712 493.69L252.713 493.69L252.713 493.69L252.714 493.69L252.716 493.69C264.153 496.5 275.658 499.325 286.196 504.329L285.877 504.973C275.412 500.005 263.999 497.201 252.569 494.393C249.77 493.706 246.971 493.018 244.184 492.298C231.602 489.048 219.297 485.147 208.646 477.643C219.096 485.702 231.393 490.226 244.083 494.123C246.871 494.979 249.679 495.805 252.489 496.632L252.491 496.632C263.319 499.817 274.194 503.017 284.16 508.001L283.827 508.639C273.926 503.687 263.131 500.511 252.312 497.328L252.309 497.327L252.309 497.327C249.49 496.498 246.67 495.668 243.863 494.806C234.47 491.922 225.241 488.681 216.8 483.895C225.297 489.142 234.547 492.939 243.999 496.426C246.661 497.409 249.34 498.366 252.022 499.325C262.218 502.971 272.463 506.635 282.022 511.717L281.675 512.348C272.167 507.293 261.986 503.652 251.797 500.008L251.795 500.007L251.795 500.007L251.795 500.007L251.794 500.007L251.794 500.007L251.793 500.007L251.793 500.007L251.793 500.007L251.792 500.007L251.792 500.006L251.792 500.006L251.791 500.006L251.791 500.006L251.791 500.006L251.79 500.006L251.79 500.006L251.79 500.006L251.789 500.005L251.789 500.005L251.789 500.005L251.788 500.005L251.788 500.005C249.102 499.044 246.416 498.084 243.741 497.097C236.506 494.427 229.362 491.568 222.572 488.005C229.462 492 236.677 495.384 243.997 498.617C246.54 499.74 249.096 500.846 251.655 501.952C261.192 506.076 270.771 510.219 279.868 515.374L279.503 515.995C270.444 510.861 260.911 506.739 251.379 502.617C248.815 501.508 246.251 500.399 243.697 499.27C240.764 497.975 237.846 496.655 234.955 495.279C237.506 496.686 240.074 498.064 242.653 499.428C245.53 500.949 248.42 502.453 251.313 503.959C260.169 508.567 269.058 513.192 277.692 518.391L277.309 519.002C268.697 513.815 259.837 509.205 250.985 504.599L250.985 504.599L250.984 504.599L250.983 504.598L250.982 504.598L250.981 504.597L250.98 504.597L250.979 504.596L250.978 504.596L250.977 504.595L250.977 504.595L250.976 504.594L250.975 504.594L250.974 504.593L250.973 504.593L250.972 504.592L250.971 504.592L250.97 504.592L250.969 504.591L250.969 504.591L250.968 504.59C248.076 503.086 245.186 501.582 242.306 500.059C238.074 497.82 233.865 495.541 229.71 493.157C237.155 497.894 244.704 502.47 252.261 507.05C260.066 511.781 267.879 516.516 275.593 521.439L275.194 522.04C267.511 517.136 259.712 512.409 251.913 507.682C241.425 501.325 230.936 494.968 220.727 488.18C227.147 492.586 233.536 497.024 239.923 501.46C251.069 509.202 262.211 516.941 273.505 524.505L273.092 525.096C261.808 517.539 250.647 509.787 239.488 502.036L239.488 502.036C229.969 495.425 220.452 488.815 210.86 482.327C202.876 476.927 194.707 470.988 186.42 464.962C181.502 461.386 176.542 457.78 171.554 454.237C158.149 444.718 144.52 435.65 130.875 428.822C120.816 423.791 110.147 422.915 99.3391 422.567C97.7871 422.517 96.2318 422.478 94.6749 422.439C85.4122 422.206 76.0965 421.973 67.1187 419.427L67.2216 419.083L67.1187 419.427C51.0088 414.858 37.2095 402.573 24.2737 389.018C20.6435 385.214 17.0822 381.311 13.5559 377.447L13.5558 377.446L13.5557 377.446C4.48889 367.51 -4.3464 357.828 -13.5266 350.729L-13.0741 350.166C-3.84127 357.306 5.05988 367.06 14.1437 377.015C17.6605 380.869 21.2048 384.753 24.8062 388.527C37.7386 402.079 51.4213 414.229 67.3246 418.74C76.2053 421.258 85.416 421.49 94.6831 421.723L94.6862 421.723C96.2455 421.762 97.8063 421.802 99.3674 421.852C110.186 422.2 120.996 423.076 131.209 428.184C144.905 435.038 158.57 444.133 171.983 453.657C176.984 457.209 181.949 460.819 186.867 464.395L186.868 464.395L186.868 464.395L186.868 464.395L186.868 464.396L186.869 464.396L186.869 464.396L186.869 464.396L186.869 464.396L186.87 464.397L186.87 464.397L186.87 464.397L186.87 464.397L186.871 464.397L186.871 464.397L186.871 464.398L186.871 464.398L186.872 464.398L186.872 464.398L186.872 464.398C195.151 470.418 203.299 476.343 211.276 481.737C211.735 482.047 212.194 482.358 212.652 482.669C211.698 482 210.748 481.325 209.8 480.646C201.684 474.821 193.493 468.351 185.209 461.809C181.282 458.708 177.335 455.59 173.364 452.517C161.009 442.952 148.42 433.807 135.494 426.865L135.67 426.551L135.494 426.865C125.217 421.342 113.825 419.349 102.252 417.823C100.494 417.592 98.7311 417.371 96.9675 417.15L96.9666 417.149L96.964 417.149C87.1403 415.918 77.2908 414.683 68.0628 411.564C51.9683 406.126 38.2096 394.69 25.1748 382.185C21.5586 378.716 17.9993 375.166 14.461 371.637C5.22419 362.424 -3.87017 353.354 -13.4643 346.232L-13.0237 345.66C-3.38436 352.815 5.76736 361.943 15.0182 371.17L15.0189 371.17L15.0195 371.171C18.5493 374.692 22.0934 378.226 25.6846 381.672C38.7099 394.167 52.3711 405.504 68.3029 410.888C77.4544 413.98 87.2189 415.205 97.0447 416.437L97.0448 416.437C98.8133 416.659 100.584 416.881 102.353 417.114C113.932 418.641 125.442 420.646 135.846 426.237C148.827 433.208 161.455 442.384 173.817 451.954C177.8 455.037 181.754 458.16 185.683 461.263L185.684 461.264C189.64 464.388 193.572 467.494 197.484 470.519C193.039 466.829 188.604 463.012 184.151 459.18L184.151 459.18C181.109 456.562 178.059 453.936 174.991 451.34C163.763 441.834 152.299 432.704 140.135 425.659C129.611 419.56 117.513 416.036 105.177 413.001C102.406 412.319 99.6226 411.662 96.8424 411.005L96.8422 411.005C87.2622 408.743 77.7238 406.491 68.8953 403.279C53.0926 397.53 39.1842 386.824 25.8764 375.209C22.1361 371.944 18.4447 368.609 14.7717 365.29L14.7714 365.29L14.7709 365.29L14.7706 365.29L14.7703 365.289L14.77 365.289L14.7695 365.289L14.7692 365.288L14.7688 365.288L14.7685 365.288L14.7682 365.287L14.7678 365.287L14.7675 365.287L14.7671 365.286L14.7668 365.286L14.7665 365.286L14.7661 365.286L14.7658 365.285L14.7657 365.285C5.35442 356.782 -3.93585 348.389 -13.6164 341.568L-13.1908 340.985C-3.47214 347.833 5.86848 356.272 15.2925 364.786L15.2929 364.787C18.9605 368.1 22.6407 371.425 26.3607 374.672C39.658 386.279 53.4821 396.908 69.1508 402.608L69.0486 402.876L69.1509 402.608C77.9349 405.804 87.4165 408.043 96.9888 410.303C99.7756 410.961 102.57 411.621 105.357 412.306C117.702 415.344 129.887 418.887 140.507 425.042C152.728 432.121 164.233 441.285 175.467 450.796C178.545 453.401 181.601 456.031 184.646 458.652L184.646 458.653L184.647 458.654L184.651 458.657C186.458 460.212 188.26 461.763 190.061 463.304C188.075 461.46 186.095 459.603 184.116 457.745L184.115 457.744L184.114 457.744L184.114 457.743L184.113 457.743L184.113 457.742L184.112 457.742L184.112 457.741L184.111 457.741L184.11 457.74L184.11 457.74L184.109 457.739L184.109 457.738L184.108 457.738L184.107 457.737L184.107 457.737L184.106 457.736L184.106 457.736L184.105 457.735L184.103 457.733C181.971 455.733 179.838 453.732 177.696 451.746C167.281 442.091 156.627 432.783 144.645 425.552C132.769 418.38 119.65 413.241 106.329 408.459C103.558 407.464 100.777 406.484 97.9968 405.504C87.4256 401.78 76.865 398.059 66.8632 393.516C51.9809 386.757 38.5217 377.022 25.4213 366.755C22.1455 364.187 18.8929 361.587 15.6461 358.992L15.6461 358.992L15.646 358.992L15.6459 358.992L15.6459 358.992L15.6453 358.992L15.6445 358.991C5.89665 351.199 -3.79915 343.449 -13.915 336.747L-13.5073 336.152C-3.3621 342.874 6.3697 350.653 16.1241 358.45C19.3668 361.042 22.6119 363.636 25.8756 366.194C38.9678 376.454 52.3708 386.144 67.1703 392.866L67.0168 393.191L67.1703 392.866C77.14 397.394 87.6614 401.101 98.2287 404.825L98.2291 404.825L98.2295 404.825L98.2299 404.825L98.2303 404.825L98.2307 404.825L98.2311 404.825L98.2315 404.826L98.2319 404.826L98.2323 404.826L98.2327 404.826L98.2331 404.826L98.2335 404.826L98.2339 404.826L98.2343 404.827L98.2347 404.827L98.2351 404.827L98.2355 404.827L98.2359 404.827L98.2363 404.827L98.2367 404.827L98.2371 404.827C101.018 405.807 103.803 406.789 106.581 407.786C119.909 412.571 133.085 417.73 145.027 424.941C157.076 432.213 167.775 441.564 178.195 451.223C180.345 453.216 182.483 455.222 184.618 457.225L184.618 457.225L184.618 457.226C187.86 460.267 191.095 463.302 194.359 466.28C190.672 462.655 187.077 458.934 183.486 455.216L183.486 455.216L183.486 455.216C182.043 453.722 180.6 452.229 179.153 450.743C169.941 441.285 160.514 432.111 149.357 424.843C136.875 416.711 123.158 410.037 109.231 403.693C105.527 402.006 101.808 400.342 98.0934 398.68L98.0932 398.68C87.8455 394.095 77.6313 389.525 67.8739 384.53L68.0317 384.233L67.8738 384.53C53.4608 377.148 39.9082 368.244 26.5401 359.066C23.3925 356.905 20.2555 354.729 17.12 352.554C6.93302 345.487 -3.23893 338.431 -13.7121 331.931L-13.3222 331.325C-2.83212 337.836 7.36042 344.906 17.5503 351.975L17.5503 351.975L17.5503 351.975L17.5504 351.975L17.5504 351.975L17.5504 351.975L17.5504 351.975L17.5505 351.975L17.5505 351.975L17.5505 351.975L17.5506 351.975L17.5506 351.975L17.5506 351.975L17.5506 351.975L17.5507 351.975L17.5507 351.975L17.5507 351.975L17.5508 351.975L17.5508 351.975L17.5508 351.975L17.5509 351.975L17.5509 351.975L17.5511 351.975C20.6841 354.148 23.8169 356.322 26.9579 358.478C40.321 367.653 53.8421 376.535 68.2119 383.894C77.9509 388.88 88.1392 393.439 98.3813 398.021L98.3819 398.021L98.3825 398.022L98.3831 398.022L98.3837 398.022L98.3842 398.022L98.3848 398.023L98.3854 398.023L98.386 398.023L98.3866 398.023L98.3872 398.024L98.3878 398.024L98.3884 398.024L98.389 398.024L98.3895 398.025L98.3901 398.025L98.3907 398.025L98.3913 398.026L98.3919 398.026L98.3925 398.026L98.3931 398.026L98.3937 398.027L98.3942 398.027C102.108 399.689 105.829 401.353 109.539 403.043C123.473 409.391 137.231 416.082 149.761 424.246C160.989 431.561 170.463 440.785 179.679 450.246C181.127 451.733 182.569 453.226 184.01 454.718L184.011 454.718L184.012 454.719L184.012 454.72L184.013 454.721L184.014 454.721L184.015 454.722L184.015 454.723L184.016 454.724L184.017 454.724L184.018 454.725L184.018 454.726L184.019 454.727L184.02 454.727L184.02 454.728L184.021 454.728L184.021 454.729L184.021 454.729L184.021 454.729L184.021 454.729L184.021 454.729L184.022 454.729L184.022 454.729L184.022 454.729L184.022 454.73L184.022 454.73L184.022 454.73L184.022 454.73L184.022 454.73L184.022 454.73L184.022 454.73L184.023 454.73L184.023 454.73L184.023 454.73L184.023 454.731L184.023 454.731L184.023 454.731C187.304 458.127 190.582 461.52 193.927 464.837C190.287 460.943 186.813 456.927 183.346 452.918C182.437 451.867 181.528 450.817 180.617 449.769C172.589 440.537 164.374 431.529 153.994 424.299C136.082 411.825 116.122 401.184 96.3669 390.654C87.1087 385.718 77.8957 380.807 68.9599 375.742C52.8788 366.628 37.0138 357.136 21.1527 347.646L21.1522 347.645L21.1517 347.645L21.1513 347.645L21.1508 347.645L21.1503 347.644L21.1498 347.644L21.1493 347.644L21.1488 347.643L21.1483 347.643L21.1478 347.643L21.1474 347.643L21.1469 347.642L21.1464 347.642L21.1459 347.642L21.1454 347.641L21.1449 347.641L21.1444 347.641L21.1439 347.641L21.1434 347.64L21.143 347.64L21.1425 347.64L21.142 347.639L21.1415 347.639L21.141 347.639C9.65946 340.769 -1.81996 333.9 -13.3778 327.178L-13.0053 326.561C-1.42471 333.297 10.0627 340.17 21.5478 347.042L21.5481 347.043C37.3988 356.527 53.245 366.008 69.3253 375.122C78.2255 380.166 87.4188 385.067 96.6671 389.997C116.442 400.539 136.469 411.215 154.416 423.715C164.875 430.999 173.14 440.068 181.171 449.302C182.083 450.351 182.992 451.402 183.901 452.453L183.901 452.453L183.902 452.454L183.902 452.454L183.902 452.454L183.902 452.455L183.903 452.455L183.903 452.455L183.903 452.455L183.903 452.456L183.904 452.456L183.904 452.456L183.904 452.457L183.904 452.457L183.905 452.457L183.905 452.457L183.905 452.458L183.905 452.458L183.906 452.458L183.906 452.459L183.906 452.459L183.906 452.459L183.907 452.46C186.395 455.337 188.882 458.212 191.428 461.039C188.591 457.604 185.909 454.071 183.231 450.543L183.23 450.543L183.23 450.542C182.822 450.004 182.413 449.467 182.005 448.93C175.136 439.899 168.138 431.001 158.445 423.874C114.423 391.504 65.9351 365.319 17.7421 339.293L17.7421 339.293ZM126.303 431.731C146.893 441.483 167.886 455.524 188.078 469.028L188.078 469.029C196.01 474.333 203.818 479.555 211.43 484.403C221.96 491.108 231.742 498.516 241.453 506.023C242.771 507.042 244.088 508.063 245.405 509.084C253.789 515.584 262.19 522.096 271.033 528.22L271.455 527.634C262.63 521.523 254.246 515.023 245.86 508.523C244.543 507.501 243.225 506.48 241.906 505.46C232.193 497.952 222.389 490.526 211.829 483.802C204.248 478.975 196.459 473.765 188.539 468.468L188.538 468.468C168.33 454.952 147.264 440.863 126.623 431.086C116.46 426.271 106.354 426.239 96.3011 426.778C94.9037 426.853 93.5079 426.939 92.1133 427.025C83.4549 427.558 74.842 428.089 66.1654 425.982C50.3607 422.144 36.6526 409.227 23.7738 394.739C20.1854 390.702 16.678 386.563 13.2097 382.471L13.2092 382.47L13.209 382.47L13.2089 382.47L13.2087 382.47L13.2085 382.469L13.2083 382.469L13.208 382.469C10.4466 379.21 7.71004 375.981 4.97703 372.856C-1.17238 365.824 -7.26881 359.361 -13.4639 354.438L-13.9242 354.995C-7.78211 359.876 -1.72038 366.299 4.42322 373.324C7.13556 376.426 9.87076 379.653 12.6349 382.914C16.1146 387.02 19.6401 391.179 23.2238 395.211C36.098 409.694 49.9377 422.779 65.9864 426.676C74.78 428.811 83.516 428.272 92.1687 427.738L92.1688 427.738C93.5601 427.652 94.9493 427.567 96.3363 427.492C106.369 426.954 116.316 426.999 126.303 431.731L126.431 431.472L126.303 431.731ZM240.645 508.683C231.476 500.974 222.159 493.443 211.36 486.988C204.86 483.102 198.23 479.048 191.511 474.94L191.51 474.939C168.725 461.008 144.928 446.457 121.789 435.776L121.789 435.776C111.787 431.155 102.532 431.591 93.2434 432.647C91.9999 432.788 90.755 432.941 89.5073 433.094C81.4515 434.083 73.2782 435.085 64.5923 433.149L64.6751 432.8L64.5922 433.149C56.2501 431.288 49.2288 426.576 43.0469 420.86C37.8643 416.069 33.2515 410.552 28.941 405.396L28.9408 405.396L28.9408 405.396L28.9407 405.396C28.1129 404.406 27.2963 403.429 26.4889 402.473C25.0405 400.76 23.6105 399.058 22.1909 397.368L22.1878 397.365L22.1878 397.365L22.1877 397.365C10.6396 383.621 -0.224317 370.691 -14.7772 359.002L-14.3138 358.448C0.29726 370.183 11.2069 383.168 22.7504 396.907L22.7504 396.907L22.7544 396.912C24.1743 398.602 25.6037 400.303 27.0508 402.015L27.0509 402.015C27.8629 402.976 28.6828 403.957 29.5126 404.949L29.5127 404.949C33.8237 410.105 38.4023 415.581 43.5482 420.338C49.6809 426.008 56.5906 430.63 64.758 432.452C73.31 434.358 81.3464 433.374 89.4082 432.386L89.4116 432.385L89.4128 432.385C90.662 432.232 91.9118 432.079 93.1642 431.937C102.484 430.877 111.91 430.419 122.103 435.128C145.284 445.829 169.132 460.411 191.923 474.347C198.636 478.451 205.256 482.5 211.742 486.376C222.593 492.864 231.948 500.426 241.12 508.139C242.501 509.3 243.876 510.463 245.252 511.627C253.028 518.204 260.813 524.79 269.434 530.839L269.008 531.422C260.358 525.352 252.545 518.743 244.77 512.167L244.77 512.166L244.769 512.165L244.767 512.164L244.766 512.163L244.765 512.162L244.763 512.16L244.762 512.159L244.76 512.158L244.759 512.157L244.757 512.156L244.756 512.154L244.755 512.153L244.753 512.152L244.752 512.151L244.75 512.15L244.749 512.149L244.748 512.147C243.38 510.991 242.014 509.835 240.645 508.683ZM210.385 490.17C221.541 496.401 230.52 503.955 239.287 511.743C240.586 512.898 241.882 514.058 243.179 515.219C250.624 521.887 258.129 528.609 266.884 534.679L267.307 534.095C258.592 528.052 251.124 521.363 243.677 514.695L243.671 514.689C242.375 513.528 241.079 512.368 239.778 511.212C231.004 503.417 221.976 495.82 210.749 489.548L210.567 489.859L210.749 489.548C180.688 472.767 148.711 455.091 117.632 440.551L117.632 440.551C107.415 435.775 98.611 436.301 89.9448 437.431C88.8257 437.577 87.7097 437.733 86.5938 437.889L86.5874 437.89C79.0546 438.941 71.5213 439.993 63.0354 438.023C54.9685 436.15 47.9869 431.28 41.8135 425.387C36.5121 420.327 31.8298 414.536 27.5762 409.275L27.5762 409.275L27.576 409.274L27.5732 409.271L27.573 409.271C26.8733 408.405 26.1851 407.554 25.5077 406.723C23.9632 404.827 22.443 402.945 20.9352 401.079C9.66035 387.122 -0.915082 374.031 -15.6979 362.267L-16.1591 362.824C-1.4419 374.536 9.08291 387.563 20.3619 401.524C21.8697 403.39 23.3909 405.273 24.9374 407.172L24.9375 407.172C25.6122 408 26.2988 408.849 26.9978 409.713L26.9995 409.715C31.2515 414.975 35.966 420.806 41.3037 425.901C47.5211 431.836 54.6152 436.803 62.8631 438.718C71.4921 440.722 79.1685 439.649 86.6963 438.596C87.8119 438.44 88.9243 438.285 90.036 438.14C98.6579 437.015 107.29 436.511 117.315 441.197C148.367 455.724 180.323 473.388 210.385 490.17ZM237.31 514.976C228.639 507.148 219.72 499.594 208.314 493.504L208.49 493.19L208.314 493.504C177.574 477.083 145.381 461.149 113.96 446.245C104.027 441.534 95.6495 441.836 87.292 442.717C86.262 442.825 85.2315 442.943 84.1979 443.06L84.1882 443.061L84.1806 443.062L84.1751 443.063L84.1663 443.064L84.1616 443.065C76.826 443.901 69.3367 444.756 60.7683 442.583C52.6046 440.513 45.5024 435.442 39.2659 429.447C33.8101 424.202 28.9936 418.227 24.6993 412.9L24.6991 412.9L24.6989 412.899L24.6989 412.899L24.6988 412.899L24.697 412.897L24.6925 412.891C24.0809 412.133 23.4798 411.387 22.8889 410.658C21.2863 408.682 19.712 406.723 18.1525 404.783L18.1496 404.779L18.1479 404.777C6.95322 390.847 -3.48119 377.862 -18.2 366.224L-17.7405 365.666C-2.95407 377.358 7.5325 390.408 18.7234 404.335C20.2841 406.277 21.8586 408.236 23.4602 410.211C24.0539 410.943 24.657 411.691 25.2702 412.452L25.2737 412.456C29.5705 417.786 34.3568 423.724 39.7776 428.934C45.9727 434.89 52.9666 439.865 60.9551 441.89C69.3837 444.028 76.7341 443.191 84.0741 442.355C85.1216 442.236 86.1689 442.116 87.2191 442.006C95.6234 441.121 104.165 440.803 114.281 445.601C145.708 460.508 177.913 476.448 208.666 492.876C220.153 499.009 229.125 506.612 237.805 514.448C239.142 515.655 240.471 516.867 241.802 518.08C249.118 524.749 256.467 531.448 265.218 537.463L264.798 538.049C256.002 532.004 248.613 525.268 241.297 518.599L241.296 518.598L241.294 518.596L241.293 518.595L241.292 518.594L241.291 518.593L241.29 518.592L241.289 518.591L241.287 518.59L241.286 518.589L241.285 518.588L241.284 518.587L241.283 518.586L241.282 518.585L241.28 518.584C239.957 517.377 238.636 516.173 237.31 514.976ZM204.796 495.119C216.606 501.229 225.782 509.04 234.651 517.222C236.302 518.745 237.943 520.282 239.588 521.823L239.589 521.823L239.589 521.823L239.59 521.824L239.59 521.824L239.59 521.824L239.591 521.825L239.591 521.825L239.592 521.826L239.592 521.826L239.592 521.826L239.593 521.827L239.593 521.827L239.596 521.83C246.779 528.556 254.05 535.365 262.635 541.503L263.067 540.924C254.524 534.816 247.295 528.047 240.114 521.323C238.462 519.776 236.813 518.232 235.152 516.699C226.271 508.507 217.038 500.642 205.14 494.486C174.62 478.693 142.922 463.264 111.805 448.865L111.648 449.188L111.805 448.865C101.865 444.267 93.2593 444.365 84.7768 444.968C83.75 445.041 82.7255 445.122 81.7011 445.202L81.7 445.202L81.6988 445.202L81.6976 445.202C74.2542 445.786 66.811 446.369 58.4463 444.167L58.4461 444.167C50.4753 442.073 43.5214 437.161 37.3361 431.293C32.0143 426.243 27.283 420.507 22.9697 415.278L22.9696 415.278L22.9695 415.278L22.9694 415.278L22.9693 415.278C22.2685 414.428 21.5788 413.592 20.8993 412.774C19.4034 410.973 17.9281 409.184 16.4638 407.409L16.4627 407.407C5.04554 393.562 -5.70963 380.52 -20.4318 368.789L-20.8934 369.346C-6.2335 381.026 4.47321 394.009 15.8948 407.859C17.3593 409.635 18.8355 411.425 20.3333 413.228L20.3334 413.228C21.0102 414.043 21.6982 414.877 22.3981 415.725C26.7097 420.953 31.4717 426.726 36.8278 431.808C43.0548 437.716 50.1138 442.719 58.2532 444.858C66.7468 447.094 74.3186 446.499 81.7566 445.915L81.7578 445.915L81.759 445.915L81.7601 445.915L81.7613 445.914C82.7843 445.834 83.8047 445.754 84.8246 445.681C93.2687 445.081 101.722 444.993 111.49 449.512C142.599 463.907 174.287 479.331 204.796 495.119ZM231.543 518.588C222.306 509.737 212.662 501.415 200.19 495.31C170.094 480.586 139.223 466.423 108.715 452.664C99.1269 448.343 90.58 448.089 82.0319 448.258C81.0611 448.278 80.09 448.302 79.117 448.327L79.1159 448.327L79.1147 448.327L79.1136 448.327C71.5278 448.52 63.8338 448.716 55.3981 446.33C39.1391 441.736 25.5226 428.116 12.8627 413.235C9.69446 409.51 6.58239 405.702 3.50216 401.933L3.4545 401.874C0.389679 398.123 -2.64361 394.411 -5.67374 390.852C-11.7671 383.694 -17.8349 377.171 -24.0934 372.218L-23.6337 371.661C-17.3184 376.658 -11.2141 383.225 -5.11322 390.391C-2.0786 393.956 0.958331 397.673 4.02135 401.421L4.02161 401.422L4.07186 401.483C7.15282 405.254 10.2605 409.056 13.4234 412.774C26.0883 427.661 39.5804 441.115 55.6042 445.643C63.9256 447.996 71.5053 447.805 79.0978 447.612C80.0718 447.588 81.0461 447.563 82.0221 447.544C90.5985 447.374 99.2814 447.624 109.022 452.014C139.533 465.774 170.412 479.94 200.518 494.67C213.093 500.825 222.802 509.209 232.054 518.075C234.164 520.097 236.25 522.144 238.339 524.194L238.34 524.194C245.422 531.143 252.554 538.141 260.87 544.422L260.423 544.99C252.066 538.678 244.89 531.636 237.802 524.682C235.717 522.636 233.64 520.598 231.543 518.588ZM228.069 519.385C219.033 510.352 209.543 501.944 197.759 496.001L195.04 493.904C176.453 485.489 157.684 477.415 138.929 469.348L138.927 469.347C127.918 464.612 116.913 459.878 105.953 455.079L105.816 455.376L105.953 455.079C96.4265 450.91 87.652 450.201 78.966 449.808C78.0888 449.768 77.2128 449.731 76.3371 449.695C68.5329 449.369 60.7555 449.045 52.4418 446.466L52.4417 446.466C36.4188 441.501 22.9249 428.509 10.1983 414.201C7.04534 410.657 3.93893 407.03 0.85345 403.428L0.853403 403.428L0.853357 403.428L0.85331 403.428L0.853264 403.428L0.853217 403.428L0.853171 403.428L0.853124 403.428L0.853077 403.428L0.853031 403.428L0.852984 403.428L0.851792 403.426C-8.48798 392.523 -17.6359 381.844 -27.3033 374.331L-27.7581 374.893C-18.1534 382.357 -9.07483 392.955 0.251712 403.842L0.251785 403.842L0.252419 403.843L0.252662 403.843L0.253267 403.844L0.253864 403.844L0.254462 403.845L0.255059 403.846L0.255653 403.847L0.256361 403.847L0.256687 403.848C3.35041 407.459 6.4714 411.102 9.64797 414.673C22.3737 428.98 35.9832 442.117 52.218 447.148C60.6286 449.756 68.502 450.084 76.2979 450.409L76.3007 450.409C77.177 450.446 78.0524 450.482 78.9275 450.522C87.5963 450.915 96.2562 451.62 105.652 455.732C116.622 460.536 127.631 465.271 138.641 470.007L138.643 470.008L138.643 470.008L138.643 470.008L138.644 470.008L138.644 470.008L138.644 470.008L138.644 470.008L138.644 470.008L138.645 470.008L138.645 470.009L138.645 470.009L138.645 470.009C157.395 478.073 176.15 486.141 194.731 494.554L194.855 494.293L194.731 494.554C195.757 495.018 196.766 495.501 197.759 496.001L206.168 502.489C200.857 498.547 195.184 495.153 188.976 492.604C168.254 484.097 147.424 475.833 126.607 467.574C118.628 464.409 110.652 461.244 102.684 458.067C93.4225 454.371 84.5141 453.106 75.6842 451.984C75.1522 451.917 74.6205 451.85 74.089 451.783C65.7911 450.736 57.5517 449.697 49.0745 446.783C33.0506 441.269 19.5651 428.804 6.76791 415.178C3.67632 411.886 0.624238 408.526 -2.41341 405.181L-2.41347 405.181L-2.41442 405.18C-11.9264 394.706 -21.2969 384.388 -31.2958 376.825L-31.7431 377.393C-21.8027 384.912 -12.4968 395.158 -2.99601 405.619L-2.99594 405.619L-2.99475 405.62C0.0512159 408.974 3.11721 412.349 6.23056 415.665C19.031 429.294 32.6211 441.881 48.8293 447.457L48.8294 447.458C57.381 450.398 65.691 451.445 73.9761 452.49L74.0057 452.494L74.4456 452.549C74.8257 452.597 75.2058 452.645 75.5859 452.693C84.414 453.815 93.2392 455.072 102.406 458.729L102.533 458.427L102.406 458.729C110.374 461.907 118.35 465.071 126.326 468.236L126.327 468.236L126.328 468.236L126.328 468.237L126.329 468.237L126.33 468.237L126.331 468.237L126.331 468.238L126.332 468.238L126.333 468.238L126.333 468.239C147.149 476.497 167.973 484.759 188.691 493.264C202.561 498.958 213.763 508.93 224.306 519.867C227.493 523.173 230.622 526.571 233.747 529.964L233.747 529.964L233.748 529.964L233.748 529.965L233.749 529.965L233.749 529.966L233.749 529.966L233.75 529.966L233.75 529.967L233.751 529.967L233.751 529.968C240.943 537.777 248.112 545.56 255.91 552.15L256.388 551.607C248.625 545.047 241.507 537.318 234.329 529.525C231.196 526.122 228.051 522.708 224.837 519.374C219.862 514.213 214.726 509.25 209.218 504.842L228.069 519.385ZM182.327 491.869C196.693 497.128 208.902 508.116 220.341 520.304C224.163 524.376 227.902 528.585 231.605 532.756L231.606 532.756L231.607 532.757C238.964 541.041 246.184 549.17 253.646 555.76L254.136 555.228C246.705 548.665 239.537 540.594 232.199 532.331L232.198 532.33L232.198 532.33L232.198 532.33L232.197 532.329L232.197 532.329L232.197 532.329L232.195 532.326C228.485 528.149 224.731 523.922 220.878 519.817C209.427 507.617 197.122 496.52 182.586 491.199C172.432 487.479 162.228 483.89 152.022 480.301C134.365 474.091 116.705 467.88 99.301 460.989C90.2579 457.41 81.2319 455.536 72.2705 453.712L71.6825 453.592L71.6823 453.592C62.9118 451.807 54.2053 450.036 45.5492 446.729L45.4279 447.031L45.5492 446.729C29.5741 440.629 16.0952 428.727 3.20391 415.838C0.217371 412.853 -2.73832 409.813 -5.68607 406.781C-15.4426 396.748 -25.1122 386.804 -35.5255 379.195L-35.9631 379.769C-25.6037 387.339 -15.9929 397.222 -6.24513 407.246L-6.24504 407.246C-3.2901 410.285 -0.322551 413.337 2.68224 416.341C15.5795 429.235 29.1506 441.237 45.281 447.396C53.9943 450.724 62.7527 452.506 71.5083 454.288L72.1179 454.412C81.0846 456.237 90.0499 458.1 99.0245 461.652C116.439 468.548 134.126 474.768 151.794 480.982C161.997 484.57 172.193 488.156 182.327 491.869L182.456 491.534L182.327 491.869ZM217.301 522.197C205.412 509.205 192.783 497.365 178.646 491.708C165.422 486.417 151.773 482.341 138.104 478.26L138.104 478.259L138.103 478.259L138.103 478.259L138.103 478.259L138.103 478.259L138.102 478.259L138.102 478.259L138.102 478.259L137.1 477.96C123.101 473.779 109.092 469.56 95.5413 463.996C86.9873 460.484 78.0963 458.149 69.2075 455.815L69.2072 455.815C68.5774 455.65 67.9476 455.484 67.318 455.318C57.8105 452.815 48.3363 450.217 39.3716 446.084C23.9286 438.961 10.8227 427.714 -1.82295 415.877C-4.28406 413.573 -6.72734 411.248 -9.167 408.926L-9.16752 408.925C-19.2765 399.304 -29.3234 389.741 -40.3193 382.038L-39.8934 381.455C-28.8489 389.192 -18.7528 398.802 -8.64077 408.427L-8.63896 408.429C-6.20416 410.746 -3.76843 413.065 -1.3183 415.358C11.3218 427.19 24.356 438.367 39.685 445.436C48.5843 449.54 58.0005 452.123 67.5111 454.628C68.1324 454.791 68.7542 454.955 69.3762 455.118L69.4099 455.127C78.289 457.458 87.2252 459.805 95.8263 463.336C109.338 468.884 123.313 473.093 137.316 477.276L138.331 477.579L138.331 477.579C151.992 481.658 165.669 485.742 178.925 491.046C193.227 496.769 205.95 508.72 217.844 521.717C221.841 526.084 225.741 530.567 229.578 534.976C237.186 543.719 244.544 552.175 251.9 558.872L251.402 559.397C244.017 552.673 236.611 544.162 228.984 535.399L228.984 535.399C225.154 530.997 221.267 526.532 217.301 522.197ZM172.334 491.314C180.201 494.235 186.706 499.069 192.637 504.674C196.749 508.561 200.57 512.802 204.378 517.03C206.07 518.908 207.76 520.784 209.472 522.625C222.378 536.499 235.199 550.034 249.223 563.045L249.726 562.524C235.722 549.532 222.916 536.013 210.012 522.141C208.317 520.319 206.638 518.455 204.951 516.582L204.95 516.582L204.95 516.581L204.95 516.581L204.949 516.581L204.949 516.58L204.949 516.58L204.948 516.579L204.948 516.579C201.13 512.341 197.278 508.064 193.144 504.158C187.174 498.516 180.588 493.612 172.595 490.645C160.391 486.111 147.784 482.752 135.197 479.399L135.196 479.399C134.238 479.144 133.28 478.888 132.323 478.633C118.776 475.016 105.285 471.301 92.3317 466.023C84.8692 462.982 77.0665 460.368 69.2557 457.751L69.2519 457.75C67.4813 457.157 65.7103 456.564 63.9428 455.965C54.3695 452.724 44.8908 449.329 36.0781 444.98C20.9635 437.515 7.83304 426.871 -5.00496 415.739C-7.28043 413.765 -9.547 411.776 -11.8138 409.787L-11.814 409.787L-11.8141 409.787L-11.8142 409.787L-11.8144 409.787L-11.8145 409.787L-11.8146 409.787L-11.8148 409.787C-22.3265 400.563 -32.844 391.334 -44.2816 383.636L-44.6962 384.226C-33.3006 391.896 -22.8249 401.088 -12.3144 410.31L-12.3143 410.311L-12.3114 410.313C-10.0421 412.304 -7.77128 414.297 -5.48918 416.276C7.35362 427.413 20.5433 438.11 35.7474 445.619L35.7475 445.619C44.6067 449.991 54.1248 453.399 63.7013 456.641C65.4732 457.241 67.2469 457.835 69.0188 458.429L69.0249 458.431C76.8345 461.048 84.6099 463.653 92.0488 466.684C105.05 471.981 118.582 475.707 132.127 479.323C133.073 479.575 134.018 479.827 134.963 480.079L134.995 480.087C147.589 483.443 160.163 486.792 172.334 491.314L172.456 491.001L172.334 491.314ZM209.097 525.979C195.848 511.933 181.843 499.051 166.451 492.135C154.265 486.659 141.051 483.525 127.749 480.481L127.049 480.321L126 480.081L126 480.081C113.287 477.176 100.532 474.261 88.6213 469.366C84.0466 467.485 79.3401 465.614 74.5781 463.722L74.578 463.721L74.5779 463.721L74.5777 463.721L74.5776 463.721L74.5775 463.721L74.5761 463.721C60.2518 458.027 45.426 452.133 32.1791 445.182L32.1792 445.182L32.3523 444.866L32.1791 445.182C17.2642 437.36 3.95856 427.175 -9.10873 416.69C-11.1464 415.055 -13.178 413.413 -15.2091 411.771L-15.2132 411.768L-15.2212 411.762C-26.219 402.873 -37.1989 393.998 -49.0086 386.349L-48.605 385.751C-36.7608 393.423 -25.7471 402.325 -14.75 411.213L-14.7498 411.214C-12.7163 412.857 -10.6834 414.5 -8.6459 416.135C4.41827 426.617 17.6774 436.763 32.5254 444.55L32.5254 444.55C45.7352 451.483 60.5085 457.355 74.8239 463.046L74.8241 463.046C79.5938 464.942 84.3127 466.818 88.906 468.706C100.759 473.578 113.46 476.48 126.189 479.389L126.283 479.41C126.828 479.535 127.373 479.66 127.919 479.784C141.213 482.827 154.496 485.974 166.758 491.484C182.288 498.463 196.376 511.437 209.633 525.491C214.439 530.586 219.133 535.819 223.748 540.965L223.749 540.966L223.749 540.966L223.749 540.967L223.75 540.967L223.75 540.967L223.75 540.968C231.889 550.041 239.783 558.843 247.619 566.136L247.116 566.657C239.26 559.345 231.324 550.497 223.168 541.404L223.168 541.404L223.167 541.403C218.556 536.262 213.875 531.043 209.097 525.979ZM161.331 494.703C177.044 501.741 191.65 514.803 205.506 529.038C210.699 534.373 215.79 539.877 220.793 545.286C229.115 554.283 237.192 563.016 245.087 570.266L245.586 569.742C237.708 562.508 229.67 553.817 221.366 544.839C216.36 539.426 211.257 533.909 206.034 528.542C192.17 514.299 177.484 501.15 161.636 494.052C149.624 488.673 136.65 485.587 123.681 482.566L122.658 482.328L122.658 482.328C110.019 479.386 97.4083 476.45 85.6509 471.465C67.0529 463.584 46.8451 454.149 29.1057 444.349C14.5349 436.301 1.12432 426.604 -12.175 416.707C-13.8557 415.456 -15.5347 414.202 -17.2141 412.947L-17.2142 412.947L-17.2143 412.947L-17.2144 412.947L-17.2144 412.947L-17.2145 412.947C-28.8179 404.28 -40.438 395.601 -52.754 387.896L-53.1476 388.5C-40.8586 396.188 -29.2642 404.848 -17.6585 413.516L-17.6528 413.521L-17.6471 413.525L-17.6414 413.529L-17.6342 413.535L-17.6271 413.54C-15.9579 414.787 -14.2885 416.034 -12.6166 417.278C-6.14709 422.092 0.356625 426.866 7.01285 431.428C0.616092 427.255 -5.7552 423.032 -12.1329 418.806L-12.1335 418.805C-26.8267 409.068 -41.5539 399.308 -56.7043 390.074L-57.0899 390.683C-41.95 399.911 -27.2445 409.656 -12.5596 419.388L-12.5589 419.389L-12.5584 419.389L-12.5578 419.389L-12.5573 419.39C-4.64659 424.632 3.25816 429.871 11.2217 435.022C33.9602 449.732 57.1591 463.719 82.2754 475.011L82.4281 474.685L82.2754 475.011C94.0489 480.302 106.647 483.662 119.204 487.011L119.204 487.011L119.854 487.185C132.637 490.595 145.363 494.028 157.188 499.508C173.117 506.894 188.051 519.668 202.293 533.526C207.776 538.861 213.161 544.362 218.459 549.774C226.901 558.398 235.123 566.797 243.171 573.943L243.66 573.41C235.625 566.277 227.44 557.914 219.016 549.308L219.015 549.308L219.015 549.307L219.015 549.307C213.714 543.892 208.319 538.38 202.806 533.016C188.554 519.148 173.548 506.301 157.501 498.86C145.609 493.35 132.822 489.902 120.048 486.494L119.423 486.327L119.423 486.327C106.848 482.973 94.2996 479.626 82.5808 474.36C61.6615 464.955 42.0678 453.673 22.9461 441.651C24.8601 442.786 26.7927 443.894 28.7461 444.973C46.514 454.789 66.7461 464.235 85.3592 472.122C97.1757 477.132 109.841 480.081 122.462 483.018L123.509 483.262C136.487 486.285 149.393 489.357 161.331 494.703ZM156.723 507.704C172.137 515.681 186.672 527.565 200.674 540.23C205.832 544.895 210.921 549.669 215.954 554.39L215.954 554.391L215.955 554.391L215.956 554.393L215.957 554.393C224.57 562.474 233.021 570.402 241.375 577.368L241.847 576.821C233.505 569.865 225.085 561.966 216.485 553.897C211.448 549.171 206.349 544.388 201.168 539.701C187.156 527.028 172.564 515.092 157.065 507.07C144.917 500.784 131.762 496.459 118.601 492.226L117.671 491.927L116.912 491.683C104.306 487.632 91.7319 483.592 80.0162 477.915C55.4959 466.034 32.1238 451.625 9.05033 436.687C2.53565 432.469 -3.95596 428.209 -10.4429 423.952L-10.4458 423.95L-10.446 423.95L-10.4461 423.95L-10.4463 423.95C-26.9274 413.134 -43.3783 402.338 -60.1004 392.31L-60.481 392.922C-43.7723 402.941 -27.3404 413.725 -10.864 424.538L-10.8636 424.538C-4.37301 428.798 2.12451 433.062 8.64859 437.285C31.7281 452.227 55.1305 466.657 79.6924 478.558C91.4554 484.257 104.074 488.312 116.667 492.358L116.667 492.358L117.781 492.717L118.372 492.906C131.539 497.142 144.638 501.449 156.723 507.704ZM198.585 548.292C184.685 537.379 170.475 526.934 155.512 518.5L155.694 518.189L155.512 518.5C142.994 511.44 129.773 505.598 116.507 499.799L114.808 499.056C102.111 493.508 89.3987 487.954 77.2766 481.37C47.3962 465.14 18.5447 446.772 -10.2545 428.436L-10.2546 428.436L-10.2547 428.436L-10.2552 428.436L-10.2557 428.436C-27.9474 417.172 -45.6193 405.921 -63.498 395.186L-63.1181 394.574C-45.2028 405.331 -27.5171 416.591 -9.821 427.858L-9.82092 427.858L-9.82084 427.858L-9.82058 427.858C18.9582 446.181 47.7643 464.521 77.6294 480.743C89.7233 487.311 102.41 492.854 115.114 498.405L116.804 499.144C130.067 504.942 143.32 510.798 155.875 517.878C170.887 526.34 185.13 536.811 199.039 547.731C204.278 551.844 209.467 556.019 214.632 560.173L214.633 560.174L214.634 560.175C223.19 567.058 231.679 573.888 240.221 580.297L239.779 580.867C231.23 574.453 222.721 567.607 214.156 560.717L214.156 560.717L214.156 560.717L214.154 560.715C208.991 556.562 203.809 552.393 198.585 548.292ZM23.4114 452.127L23.4116 452.128L23.4132 452.129C95.2415 495.968 167.07 539.808 238.413 584.391L238.803 583.785C167.456 539.2 95.6215 495.356 23.7915 451.516L23.791 451.515C-6.02385 433.318 -35.838 415.122 -65.6163 396.872L-66.0002 397.482C-36.2196 415.732 -6.40411 433.93 23.4114 452.127Z" fill="url(#paint4_linear_2915_344)" fill-opacity="0.4"></path> </g> <defs> <filter id="filter0_f_2915_344" x="-24.4409" y="177.155" width="725.656" height="461.852" filterUnits="userSpaceOnUse" color-interpolation-filters="sRGB"> <feFlood flood-opacity="0" result="BackgroundImageFix"></feFlood> <feBlend mode="normal" in="SourceGraphic" in2="BackgroundImageFix" result="shape"></feBlend> <feGaussianBlur stdDeviation="90" result="effect1_foregroundBlur_2915_344"></feGaussianBlur> </filter> <filter id="filter1_f_2915_344" x="-372.033" y="12.8144" width="692.096" height="518.578" filterUnits="userSpaceOnUse" color-interpolation-filters="sRGB"> <feFlood flood-opacity="0" result="BackgroundImageFix"></feFlood> <feBlend mode="normal" in="SourceGraphic" in2="BackgroundImageFix" result="shape"></feBlend> <feGaussianBlur stdDeviation="90" result="effect1_foregroundBlur_2915_344"></feGaussianBlur> </filter> <filter id="filter2_f_2915_344" x="-361.13" y="137.066" width="867.813" height="582.428" filterUnits="userSpaceOnUse" color-interpolation-filters="sRGB"> <feFlood flood-opacity="0" result="BackgroundImageFix"></feFlood> <feBlend mode="normal" in="SourceGraphic" in2="BackgroundImageFix" result="shape"></feBlend> <feGaussianBlur stdDeviation="90" result="effect1_foregroundBlur_2915_344"></feGaussianBlur> </filter> <linearGradient id="paint0_linear_2915_344" x1="72.1552" y1="-196.5" x2="541.114" y2="542.785" gradientUnits="userSpaceOnUse"> <stop stop-color="#252426" stop-opacity="0.7"></stop> <stop offset="1" stop-color="#807B9E" stop-opacity="0.12"></stop> </linearGradient> <linearGradient id="paint1_linear_2915_344" x1="656.711" y1="676.421" x2="-25.4406" y2="-107.232" gradientUnits="userSpaceOnUse"> <stop stop-color="#8778A7" stop-opacity="0.05"></stop> <stop offset="1" stop-color="#FFEFF5" stop-opacity="0.28"></stop> </linearGradient> <linearGradient id="paint2_linear_2915_344" x1="330.259" y1="216.764" x2="298.211" y2="-70.4465" gradientUnits="userSpaceOnUse"> <stop stop-color="#141516"></stop> <stop offset="1" stop-color="#141516" stop-opacity="0"></stop> </linearGradient> <linearGradient id="paint3_linear_2915_344" x1="199.914" y1="-75.5" x2="752.618" y2="264.391" gradientUnits="userSpaceOnUse"> <stop stop-color="#6A5C5A" stop-opacity="0.62"></stop> <stop offset="1" stop-color="#332F3C"></stop> </linearGradient> <linearGradient id="paint4_linear_2915_344" x1="152.823" y1="382.467" x2="86.2075" y2="490.949" gradientUnits="userSpaceOnUse"> <stop stop-color="#D1E9FF" stop-opacity="0.85"></stop> <stop offset="1" stop-color="#FFDBDB" stop-opacity="0.96"></stop> </linearGradient> </defs> </svg> 