<?xml version="1.0" encoding="UTF-8"?> <svg xmlns="http://www.w3.org/2000/svg" width="233" height="200" viewBox="0 0 233 200" fill="none"> <rect x="0.5" y="0.5" width="232" height="199" fill="#F0F0F0" stroke="#C7C7C7"></rect> <path d="M166.383 75H66.6174C64.0673 75 62 77.0727 62 79.6295V121.371C62 123.927 64.0673 126 66.6174 126H166.383C168.933 126 171 123.927 171 121.371V79.6295C171 77.0727 168.933 75 166.383 75Z" fill="#1C00A1"></path> <path d="M117.237 113.313C115.644 113.313 114.147 113.153 112.746 112.832C111.345 112.512 110.137 112.02 109.122 111.355C108.106 110.691 107.323 109.849 106.77 108.829C106.217 107.811 105.98 106.591 106.057 105.17H111.416C111.364 105.949 111.48 106.602 111.763 107.128C112.045 107.656 112.457 108.085 112.996 108.417C113.536 108.749 114.178 108.984 114.924 109.122C115.669 109.259 116.491 109.328 117.391 109.328C118.085 109.328 118.747 109.271 119.377 109.156C120.007 109.042 120.565 108.853 121.054 108.589C121.542 108.326 121.934 107.994 122.23 107.593C122.525 107.192 122.673 106.705 122.673 106.132C122.673 105.697 122.583 105.32 122.403 104.998C122.223 104.678 121.902 104.369 121.44 104.071C120.977 103.773 120.36 103.475 119.589 103.177C118.818 102.88 117.854 102.536 116.698 102.146C115.464 101.757 114.365 101.357 113.401 100.944C112.437 100.532 111.621 100.063 110.953 99.5352C110.284 99.0087 109.777 98.396 109.43 97.6973C109.083 96.9987 108.91 96.1684 108.91 95.2062C108.91 94.0377 109.147 92.9898 109.623 92.0623C110.098 91.1344 110.779 90.3501 111.666 89.7086C112.553 89.0674 113.613 88.5806 114.847 88.2483C116.081 87.9164 117.455 87.75 118.972 87.75C120.385 87.75 121.729 87.8876 123.001 88.1626C124.273 88.4374 125.378 88.8837 126.316 89.5022C127.254 90.1207 127.993 90.9168 128.533 91.8902C129.073 92.8642 129.305 94.0377 129.227 95.4122H123.945C123.997 94.1982 123.579 93.2708 122.692 92.6291C121.806 91.9882 120.501 91.6669 118.779 91.6669C118.265 91.6669 117.738 91.7132 117.199 91.8046C116.659 91.8962 116.164 92.0569 115.714 92.2854C115.265 92.5147 114.891 92.8128 114.596 93.1789C114.3 93.5456 114.153 94.0034 114.153 94.5532C114.153 94.9656 114.236 95.315 114.403 95.6011C114.57 95.8879 114.866 96.1569 115.29 96.4089C115.714 96.661 116.292 96.907 117.025 97.1472C117.758 97.3878 118.664 97.6801 119.743 98.0235C121.105 98.4359 122.313 98.877 123.367 99.3464C124.421 99.816 125.301 100.343 126.008 100.927C126.715 101.511 127.248 102.169 127.608 102.903C127.968 103.636 128.148 104.495 128.148 105.479C128.148 106.785 127.871 107.925 127.319 108.898C126.766 109.872 126.008 110.685 125.044 111.338C124.08 111.991 122.93 112.483 121.594 112.815C120.257 113.147 118.804 113.313 117.237 113.313Z" fill="white"></path> <path fill-rule="evenodd" clip-rule="evenodd" d="M86.3957 88.1968H97.4604C98.6168 88.1968 99.6771 88.317 100.641 88.5575C101.605 88.7978 102.446 89.1818 103.166 89.7085C103.834 90.1894 104.361 90.7968 104.747 91.5298C105.132 92.2629 105.325 93.1331 105.325 94.141C105.325 95.584 104.882 96.7983 103.995 97.7829C103.108 98.768 101.855 99.4665 100.236 99.8788V99.9817C103.089 100.692 104.502 102.399 104.477 105.101C104.477 107.094 103.629 108.812 101.932 110.255C100.982 111.058 99.8567 111.676 98.5591 112.111C97.2608 112.546 95.6736 112.764 93.7978 112.764H81.0752L86.3957 88.1968ZM87.475 108.675H93.8365C95.3785 108.675 96.6055 108.372 97.5181 107.764C98.4301 107.158 98.8867 106.201 98.8867 104.895C98.8867 103.842 98.5266 103.057 97.8074 102.542C97.0873 102.026 96.1495 101.769 94.9929 101.769H88.9784L87.475 108.675ZM95.494 98.1266C96.0592 98.1266 96.6123 98.0809 97.1518 97.9892C97.6916 97.8978 98.1669 97.726 98.5784 97.4736C98.989 97.2219 99.3233 96.8781 99.5807 96.4431C99.8374 96.0082 99.9661 95.4584 99.9661 94.7937C99.9661 94.0154 99.7157 93.3906 99.2143 92.9213C98.7132 92.452 97.8845 92.2166 96.7278 92.2166H91.0606L89.7881 98.1266H95.494Z" fill="white"></path> <path d="M136.148 112.832C137.549 113.153 139.046 113.313 140.639 113.313C142.207 113.313 143.659 113.147 144.996 112.815C146.332 112.483 147.483 111.991 148.447 111.338C149.41 110.685 150.168 109.872 150.721 108.898C151.274 107.925 151.55 106.785 151.55 105.479C151.55 104.495 151.37 103.636 151.01 102.903C150.65 102.169 150.117 101.511 149.41 100.927C148.703 100.343 147.823 99.816 146.769 99.3464C145.715 98.877 144.508 98.4359 143.145 98.0235C142.066 97.6801 141.16 97.3878 140.428 97.1472C139.695 96.907 139.117 96.661 138.693 96.4089C138.269 96.1569 137.973 95.8879 137.806 95.6011C137.639 95.315 137.555 94.9656 137.555 94.5532C137.555 94.0034 137.703 93.5456 137.998 93.1789C138.293 92.8128 138.667 92.5147 139.117 92.2854C139.566 92.0569 140.061 91.8962 140.601 91.8046C141.141 91.7132 141.667 91.6669 142.182 91.6669C143.903 91.6669 145.208 91.9882 146.095 92.6291C146.982 93.2708 147.399 94.1982 147.348 95.4122H152.629C152.707 94.0377 152.475 92.8642 151.936 91.8902C151.396 90.9168 150.657 90.1207 149.719 89.5022C148.78 88.8837 147.676 88.4374 146.403 88.1626C145.131 87.8876 143.788 87.75 142.374 87.75C140.858 87.75 139.483 87.9164 138.249 88.2483C137.016 88.5806 135.955 89.0674 135.069 89.7086C134.182 90.3501 133.5 91.1344 133.026 92.0623C132.549 92.9898 132.312 94.0377 132.312 95.2062C132.312 96.1684 132.485 96.9987 132.832 97.6973C133.179 98.396 133.687 99.0087 134.355 99.5352C135.023 100.063 135.84 100.532 136.803 100.944C137.767 101.357 138.866 101.757 140.1 102.146C141.256 102.536 142.22 102.88 142.991 103.177C143.762 103.475 144.379 103.773 144.842 104.071C145.304 104.369 145.625 104.678 145.805 104.998C145.985 105.32 146.075 105.697 146.075 106.132C146.075 106.705 145.927 107.192 145.632 107.593C145.336 107.994 144.944 108.326 144.456 108.589C143.968 108.853 143.409 109.042 142.779 109.156C142.149 109.271 141.488 109.328 140.794 109.328C139.894 109.328 139.072 109.259 138.326 109.122C137.581 108.984 136.938 108.749 136.399 108.417C135.859 108.085 135.447 107.656 135.165 107.128C134.882 106.602 134.766 105.949 134.818 105.17H129.459C129.382 106.591 129.619 107.811 130.172 108.829C130.725 109.849 131.508 110.691 132.524 111.355C133.539 112.02 134.747 112.512 136.148 112.832Z" fill="white"></path> </svg> 