<?xml version="1.0" encoding="UTF-8"?> <svg xmlns="http://www.w3.org/2000/svg" width="82" height="82" viewBox="0 0 82 82" fill="none"> <circle cx="41" cy="41" r="41" fill="#FFE78C"></circle> <path d="M24.9318 26.8182H26.2841L27.4176 28.3097L27.7159 28.7074L29.4062 30.9545H28.054L26.9403 29.4631L26.6619 29.0852L24.9318 26.8182ZM29.8239 24.9091C29.8239 25.983 29.63 26.911 29.2422 27.6932C28.8544 28.4754 28.3224 29.0786 27.6463 29.5028C26.9702 29.9271 26.1979 30.1392 25.3295 30.1392C24.4612 30.1392 23.6889 29.9271 23.0128 29.5028C22.3366 29.0786 21.8047 28.4754 21.4169 27.6932C21.0291 26.911 20.8352 25.983 20.8352 24.9091C20.8352 23.8352 21.0291 22.9072 21.4169 22.125C21.8047 21.3428 22.3366 20.7396 23.0128 20.3153C23.6889 19.8911 24.4612 19.679 25.3295 19.679C26.1979 19.679 26.9702 19.8911 27.6463 20.3153C28.3224 20.7396 28.8544 21.3428 29.2422 22.125C29.63 22.9072 29.8239 23.8352 29.8239 24.9091ZM28.6307 24.9091C28.6307 24.0275 28.4832 23.2834 28.1882 22.6768C27.8965 22.0703 27.5005 21.6113 27 21.2997C26.5028 20.9882 25.946 20.8324 25.3295 20.8324C24.7131 20.8324 24.1546 20.9882 23.6541 21.2997C23.157 21.6113 22.7609 22.0703 22.4659 22.6768C22.1742 23.2834 22.0284 24.0275 22.0284 24.9091C22.0284 25.7907 22.1742 26.5348 22.4659 27.1413C22.7609 27.7479 23.157 28.2069 23.6541 28.5185C24.1546 28.83 24.7131 28.9858 25.3295 28.9858C25.946 28.9858 26.5028 28.83 27 28.5185C27.5005 28.2069 27.8965 27.7479 28.1882 27.1413C28.4832 26.5348 28.6307 25.7907 28.6307 24.9091ZM36.5504 26.8778V22.3636H37.7237V30H36.5504V28.7074H36.4709C36.2919 29.0952 36.0135 29.425 35.6357 29.6967C35.2578 29.9652 34.7805 30.0994 34.2038 30.0994C33.7266 30.0994 33.3023 29.995 32.9311 29.7862C32.5599 29.5741 32.2682 29.2559 32.0561 28.8317C31.844 28.4041 31.7379 27.8655 31.7379 27.2159V22.3636H32.9112V27.1364C32.9112 27.6932 33.067 28.1373 33.3786 28.4688C33.6934 28.8002 34.0945 28.9659 34.5817 28.9659C34.8733 28.9659 35.17 28.8913 35.4716 28.7422C35.7765 28.593 36.0317 28.3643 36.2372 28.0561C36.446 27.7479 36.5504 27.3551 36.5504 26.8778ZM39.8727 30V22.3636H41.046V30H39.8727ZM40.4693 21.0909C40.2406 21.0909 40.0434 21.013 39.8777 20.8572C39.7153 20.7015 39.6341 20.5142 39.6341 20.2955C39.6341 20.0767 39.7153 19.8894 39.8777 19.7337C40.0434 19.5779 40.2406 19.5 40.4693 19.5C40.698 19.5 40.8935 19.5779 41.0559 19.7337C41.2217 19.8894 41.3045 20.0767 41.3045 20.2955C41.3045 20.5142 41.2217 20.7015 41.0559 20.8572C40.8935 21.013 40.698 21.0909 40.4693 21.0909ZM42.9762 30V29.1051L47.3114 23.5369V23.4574H43.1154V22.3636H48.8228V23.2983L44.6069 28.8267V28.9062H48.962V30H42.9762Z" fill="#121417"></path> <path d="M14.0043 62V51.8182H15.8487V56.1286H20.5668V51.8182H22.4162V62H20.5668V57.6747H15.8487V62H14.0043ZM29.2099 58.7884V54.3636H31.0096V62H29.2646V60.6428H29.185C29.0127 61.0703 28.7293 61.42 28.3349 61.6918C27.9438 61.9635 27.4615 62.0994 26.8881 62.0994C26.3877 62.0994 25.9452 61.9884 25.5607 61.7663C25.1796 61.541 24.8813 61.2145 24.6658 60.7869C24.4504 60.3561 24.3427 59.8357 24.3427 59.2259V54.3636H26.1424V58.9474C26.1424 59.4313 26.275 59.8158 26.5401 60.1009C26.8053 60.3859 27.1533 60.5284 27.5842 60.5284C27.8493 60.5284 28.1062 60.4638 28.3548 60.3345C28.6033 60.2053 28.8072 60.013 28.9663 59.7578C29.1287 59.4993 29.2099 59.1761 29.2099 58.7884ZM32.8603 62V54.3636H34.5804V55.6612H34.6699C34.829 55.2237 35.0925 54.8823 35.4604 54.6371C35.8283 54.3885 36.2675 54.2642 36.7779 54.2642C37.2949 54.2642 37.7308 54.3902 38.0854 54.642C38.4434 54.8906 38.6953 55.2304 38.8411 55.6612H38.9206C39.0897 55.237 39.3747 54.8989 39.7757 54.647C40.1801 54.3918 40.659 54.2642 41.2125 54.2642C41.9152 54.2642 42.4886 54.4863 42.9327 54.9304C43.3768 55.3745 43.5989 56.0225 43.5989 56.8743V62H41.7942V57.1527C41.7942 56.6787 41.6683 56.3324 41.4164 56.1136C41.1645 55.8916 40.8562 55.7805 40.4917 55.7805C40.0575 55.7805 39.7177 55.9164 39.4725 56.1882C39.2305 56.4567 39.1096 56.8063 39.1096 57.2372V62H37.3446V57.0781C37.3446 56.6837 37.2253 56.3688 36.9867 56.1335C36.7514 55.8982 36.4431 55.7805 36.062 55.7805C35.8034 55.7805 35.5681 55.8468 35.356 55.9794C35.1439 56.1087 34.9748 56.2926 34.8489 56.5312C34.723 56.7666 34.66 57.0417 34.66 57.3565V62H32.8603ZM47.6222 62.1541C47.1383 62.1541 46.7024 62.0679 46.3146 61.8956C45.9302 61.7199 45.6252 61.4614 45.3999 61.12C45.1778 60.7786 45.0668 60.3577 45.0668 59.8572C45.0668 59.4264 45.1463 59.0701 45.3054 58.7884C45.4645 58.5066 45.6816 58.2812 45.9567 58.1122C46.2318 57.9432 46.5417 57.8156 46.8864 57.7294C47.2344 57.6399 47.594 57.5753 47.9652 57.5355C48.4126 57.4891 48.7756 57.4477 49.054 57.4112C49.3324 57.3714 49.5346 57.3118 49.6605 57.2322C49.7898 57.1494 49.8544 57.0218 49.8544 56.8494V56.8196C49.8544 56.4451 49.7434 56.1551 49.5213 55.9496C49.2992 55.7441 48.9794 55.6413 48.5618 55.6413C48.121 55.6413 47.7713 55.7375 47.5128 55.9297C47.2576 56.1219 47.0852 56.349 46.9957 56.6108L45.3153 56.3722C45.4479 55.9081 45.6667 55.5204 45.9716 55.2088C46.2765 54.8939 46.6494 54.6586 47.0902 54.5028C47.531 54.3438 48.0182 54.2642 48.5518 54.2642C48.9197 54.2642 49.286 54.3073 49.6506 54.3935C50.0152 54.4796 50.3482 54.6222 50.6499 54.821C50.9515 55.0166 51.1934 55.2834 51.3757 55.6214C51.5613 55.9595 51.6541 56.3821 51.6541 56.8892V62H49.924V60.951H49.8643C49.755 61.1631 49.6009 61.362 49.402 61.5476C49.2064 61.7299 48.9595 61.8774 48.6612 61.9901C48.3662 62.0994 48.0199 62.1541 47.6222 62.1541ZM48.0895 60.8317C48.4508 60.8317 48.764 60.7604 49.0291 60.6179C49.2943 60.4721 49.4981 60.2798 49.6406 60.0412C49.7865 59.8026 49.8594 59.5424 49.8594 59.2607V58.3608C49.803 58.4072 49.7069 58.4503 49.571 58.4901C49.4384 58.5298 49.2893 58.5646 49.1236 58.5945C48.9579 58.6243 48.7938 58.6508 48.6314 58.674C48.469 58.6972 48.3281 58.7171 48.2088 58.7337C47.9403 58.7701 47.7 58.8298 47.4879 58.9126C47.2758 58.9955 47.1084 59.1115 46.9858 59.2607C46.8632 59.4065 46.8018 59.5954 46.8018 59.8274C46.8018 60.1589 46.9228 60.4091 47.1648 60.5781C47.4067 60.7472 47.715 60.8317 48.0895 60.8317ZM55.2635 57.5256V62H53.4638V54.3636H55.1839V55.6612H55.2734C55.4491 55.2337 55.7292 54.8939 56.1136 54.642C56.5014 54.3902 56.9804 54.2642 57.5504 54.2642C58.0774 54.2642 58.5365 54.3769 58.9276 54.6023C59.322 54.8277 59.6269 55.1541 59.8423 55.5817C60.0611 56.0092 60.1688 56.5279 60.1655 57.1378V62H58.3658V57.4162C58.3658 56.9058 58.2332 56.5064 57.968 56.218C57.7062 55.9297 57.3433 55.7855 56.8793 55.7855C56.5644 55.7855 56.2843 55.8551 56.0391 55.9943C55.7971 56.1302 55.6065 56.3274 55.4673 56.5859C55.3314 56.8445 55.2635 57.1577 55.2635 57.5256ZM61.8558 60.9062L63.7649 57.8239H65.4851V57.9233L63.4766 60.9062H61.8558ZM61.8558 54.8011H63.4766L65.4851 57.7841V57.8835H63.7649L61.8558 54.8011ZM64.9183 60.9062L66.8274 57.8239H68.5476V57.9233L66.5391 60.9062H64.9183ZM64.9183 54.8011H66.5391L68.5476 57.7841V57.8835H66.8274L64.9183 54.8011Z" fill="#121417"></path> <path d="M12.4844 44.9062H10.8636L8.85511 41.9233V41.8239H10.5753L12.4844 44.9062ZM12.4844 38.8011L10.5753 41.8835H8.85511V41.7841L10.8636 38.8011H12.4844ZM15.517 44.9062H13.8963L11.8878 41.9233V41.8239H13.608L15.517 44.9062ZM15.517 38.8011L13.608 41.8835H11.8878V41.7841L13.8963 38.8011H15.517ZM17.3714 46V35.8182H21.1896C21.9718 35.8182 22.6281 35.9541 23.1584 36.2259C23.692 36.4976 24.0947 36.8788 24.3665 37.3693C24.6416 37.8565 24.7791 38.425 24.7791 39.0746C24.7791 39.7275 24.6399 40.2943 24.3615 40.7749C24.0864 41.2521 23.6804 41.6217 23.1435 41.8835C22.6065 42.142 21.947 42.2713 21.1648 42.2713H18.4453V40.7401H20.9162C21.3736 40.7401 21.7481 40.6771 22.0398 40.5511C22.3314 40.4219 22.5469 40.2346 22.6861 39.9893C22.8286 39.7408 22.8999 39.4358 22.8999 39.0746C22.8999 38.7133 22.8286 38.4051 22.6861 38.1499C22.5436 37.8913 22.3265 37.6958 22.0348 37.5632C21.7431 37.4273 21.367 37.3594 20.9062 37.3594H19.2159V46H17.3714ZM22.6314 41.3864L25.152 46H23.0938L20.6179 41.3864H22.6314ZM29.619 46.1491C28.8732 46.1491 28.2269 45.9851 27.68 45.657C27.1332 45.3288 26.7089 44.8698 26.4073 44.2798C26.109 43.6899 25.9599 43.0005 25.9599 42.2116C25.9599 41.4228 26.109 40.7318 26.4073 40.1385C26.7089 39.5452 27.1332 39.0845 27.68 38.7564C28.2269 38.4283 28.8732 38.2642 29.619 38.2642C30.3647 38.2642 31.011 38.4283 31.5579 38.7564C32.1048 39.0845 32.5273 39.5452 32.8256 40.1385C33.1272 40.7318 33.2781 41.4228 33.2781 42.2116C33.2781 43.0005 33.1272 43.6899 32.8256 44.2798C32.5273 44.8698 32.1048 45.3288 31.5579 45.657C31.011 45.9851 30.3647 46.1491 29.619 46.1491ZM29.6289 44.7074C30.0333 44.7074 30.3713 44.5964 30.6431 44.3743C30.9149 44.1489 31.1171 43.8473 31.2496 43.4695C31.3855 43.0916 31.4535 42.6707 31.4535 42.2067C31.4535 41.7393 31.3855 41.3168 31.2496 40.9389C31.1171 40.5578 30.9149 40.2545 30.6431 40.0291C30.3713 39.8037 30.0333 39.6911 29.6289 39.6911C29.2146 39.6911 28.8699 39.8037 28.5948 40.0291C28.323 40.2545 28.1192 40.5578 27.9833 40.9389C27.8507 41.3168 27.7844 41.7393 27.7844 42.2067C27.7844 42.6707 27.8507 43.0916 27.9833 43.4695C28.1192 43.8473 28.323 44.1489 28.5948 44.3743C28.8699 44.5964 29.2146 44.7074 29.6289 44.7074ZM34.8851 46V35.8182H36.6848V39.6264H36.7594C36.8522 39.4408 36.9831 39.2436 37.1522 39.0348C37.3212 38.8227 37.5499 38.642 37.8382 38.4929C38.1266 38.3404 38.4945 38.2642 38.9419 38.2642C39.5319 38.2642 40.0639 38.415 40.5378 38.7166C41.0151 39.0149 41.3929 39.4574 41.6713 40.044C41.9531 40.6274 42.0939 41.3433 42.0939 42.1918C42.0939 43.0303 41.9564 43.7429 41.6813 44.3295C41.4062 44.9162 41.0317 45.3636 40.5577 45.6719C40.0837 45.9801 39.5468 46.1342 38.9469 46.1342C38.5094 46.1342 38.1465 46.0613 37.8581 45.9155C37.5698 45.7696 37.3378 45.594 37.1621 45.3885C36.9898 45.1797 36.8555 44.9825 36.7594 44.7969H36.655V46H34.8851ZM36.65 42.1818C36.65 42.6757 36.7196 43.1082 36.8588 43.4794C37.0014 43.8506 37.2052 44.1406 37.4703 44.3494C37.7388 44.5549 38.0636 44.6577 38.4448 44.6577C38.8425 44.6577 39.1756 44.5516 39.4441 44.3395C39.7125 44.1241 39.9147 43.8307 40.0506 43.4595C40.1898 43.085 40.2594 42.6591 40.2594 42.1818C40.2594 41.7079 40.1915 41.2869 40.0556 40.919C39.9197 40.5511 39.7175 40.2628 39.449 40.054C39.1806 39.8452 38.8458 39.7408 38.4448 39.7408C38.0603 39.7408 37.7338 39.8419 37.4654 40.044C37.1969 40.2462 36.9931 40.5296 36.8539 40.8942C36.718 41.2588 36.65 41.688 36.65 42.1818ZM46.9549 46.1491C46.2092 46.1491 45.5629 45.9851 45.016 45.657C44.4691 45.3288 44.0449 44.8698 43.7433 44.2798C43.445 43.6899 43.2958 43.0005 43.2958 42.2116C43.2958 41.4228 43.445 40.7318 43.7433 40.1385C44.0449 39.5452 44.4691 39.0845 45.016 38.7564C45.5629 38.4283 46.2092 38.2642 46.9549 38.2642C47.7006 38.2642 48.3469 38.4283 48.8938 38.7564C49.4407 39.0845 49.8633 39.5452 50.1616 40.1385C50.4632 40.7318 50.614 41.4228 50.614 42.2116C50.614 43.0005 50.4632 43.6899 50.1616 44.2798C49.8633 44.8698 49.4407 45.3288 48.8938 45.657C48.3469 45.9851 47.7006 46.1491 46.9549 46.1491ZM46.9648 44.7074C47.3692 44.7074 47.7073 44.5964 47.979 44.3743C48.2508 44.1489 48.453 43.8473 48.5856 43.4695C48.7215 43.0916 48.7894 42.6707 48.7894 42.2067C48.7894 41.7393 48.7215 41.3168 48.5856 40.9389C48.453 40.5578 48.2508 40.2545 47.979 40.0291C47.7073 39.8037 47.3692 39.6911 46.9648 39.6911C46.5505 39.6911 46.2058 39.8037 45.9308 40.0291C45.659 40.2545 45.4551 40.5578 45.3192 40.9389C45.1867 41.3168 45.1204 41.7393 45.1204 42.2067C45.1204 42.6707 45.1867 43.0916 45.3192 43.4695C45.4551 43.8473 45.659 44.1489 45.9308 44.3743C46.2058 44.5964 46.5505 44.7074 46.9648 44.7074ZM55.9547 38.3636V39.7557H51.5648V38.3636H55.9547ZM52.6486 36.5341H54.4483V43.7031C54.4483 43.9451 54.4848 44.1307 54.5577 44.2599C54.6339 44.3859 54.7334 44.4721 54.856 44.5185C54.9786 44.5649 55.1145 44.5881 55.2637 44.5881C55.3764 44.5881 55.4791 44.5798 55.5719 44.5632C55.668 44.5466 55.7409 44.5317 55.7907 44.5185L56.0939 45.9254C55.9978 45.9586 55.8603 45.995 55.6813 46.0348C55.5056 46.0746 55.2902 46.0978 55.035 46.1044C54.5842 46.1177 54.1782 46.0497 53.8169 45.9006C53.4557 45.7481 53.169 45.5128 52.9569 45.1946C52.748 44.8764 52.6453 44.4787 52.6486 44.0014V36.5341ZM64.2635 46.1491C63.5178 46.1491 62.8714 45.9851 62.3246 45.657C61.7777 45.3288 61.3535 44.8698 61.0518 44.2798C60.7536 43.6899 60.6044 43.0005 60.6044 42.2116C60.6044 41.4228 60.7536 40.7318 61.0518 40.1385C61.3535 39.5452 61.7777 39.0845 62.3246 38.7564C62.8714 38.4283 63.5178 38.2642 64.2635 38.2642C65.0092 38.2642 65.6555 38.4283 66.2024 38.7564C66.7493 39.0845 67.1719 39.5452 67.4702 40.1385C67.7718 40.7318 67.9226 41.4228 67.9226 42.2116C67.9226 43.0005 67.7718 43.6899 67.4702 44.2798C67.1719 44.8698 66.7493 45.3288 66.2024 45.657C65.6555 45.9851 65.0092 46.1491 64.2635 46.1491ZM64.2734 44.7074C64.6778 44.7074 65.0159 44.5964 65.2876 44.3743C65.5594 44.1489 65.7616 43.8473 65.8942 43.4695C66.0301 43.0916 66.098 42.6707 66.098 42.2067C66.098 41.7393 66.0301 41.3168 65.8942 40.9389C65.7616 40.5578 65.5594 40.2545 65.2876 40.0291C65.0159 39.8037 64.6778 39.6911 64.2734 39.6911C63.8591 39.6911 63.5144 39.8037 63.2393 40.0291C62.9676 40.2545 62.7637 40.5578 62.6278 40.9389C62.4953 41.3168 62.429 41.7393 62.429 42.2067C62.429 42.6707 62.4953 43.0916 62.6278 43.4695C62.7637 43.8473 62.9676 44.1489 63.2393 44.3743C63.5144 44.5964 63.8591 44.7074 64.2734 44.7074ZM69.4501 46V38.3636H71.1951V39.6364H71.2747C71.4139 39.1955 71.6525 38.8558 71.9906 38.6172C72.332 38.3752 72.7214 38.2543 73.1589 38.2543C73.2583 38.2543 73.3694 38.2592 73.492 38.2692C73.618 38.2758 73.7224 38.2874 73.8052 38.304V39.9595C73.729 39.933 73.608 39.9098 73.4423 39.8899C73.2799 39.8667 73.1225 39.8551 72.97 39.8551C72.6419 39.8551 72.3469 39.9264 72.085 40.0689C71.8265 40.2081 71.6227 40.402 71.4735 40.6506C71.3244 40.8991 71.2498 41.1858 71.2498 41.5107V46H69.4501Z" fill="#121417"></path> <path d="M55 23H61M61 23V29M61 23L55.3 28.561" stroke="#121417"></path> </svg> 