<?xml version="1.0" encoding="UTF-8"?> <svg xmlns="http://www.w3.org/2000/svg" width="1899" height="960" viewBox="0 0 1899 960" fill="none"> <g filter="url(#filter0_f_2829_114)"> <path d="M932.997 672.044C815.102 619.69 786.32 777.485 602.498 676.696C582.21 697.274 534.409 679.3 471.497 676.696C408.584 674.093 150.815 653.1 161.046 627.095C203.547 566.094 207.598 471.531 378.047 442.095C565.93 409.648 807.746 592.845 687.547 389.2C614.042 264.664 607.123 393.663 579.047 330.095C550.972 266.527 544.882 200.336 746.047 165.595C947.212 130.854 899.432 279.652 982.752 389.2C1066.07 498.748 1057.85 371.933 1220.16 348.199C1382.48 324.466 1606.32 370.178 1710.5 442.095C1814.68 514.012 1603.94 461.906 1457.5 478.599C1311.06 495.291 1250.79 706.418 1185 777.599C1119.21 848.779 1050.89 724.398 932.997 672.044Z" fill="url(#paint0_radial_2829_114)" fill-opacity="0.65"></path> </g> <defs> <filter id="filter0_f_2829_114" x="0.75" y="0.455811" width="1897.64" height="958.596" filterUnits="userSpaceOnUse" color-interpolation-filters="sRGB"> <feFlood flood-opacity="0" result="BackgroundImageFix"></feFlood> <feBlend mode="normal" in="SourceGraphic" in2="BackgroundImageFix" result="shape"></feBlend> <feGaussianBlur stdDeviation="80" result="effect1_foregroundBlur_2829_114"></feGaussianBlur> </filter> <radialGradient id="paint0_radial_2829_114" cx="0" cy="0" r="1" gradientUnits="userSpaceOnUse" gradientTransform="translate(1101 277.599) rotate(155.071) scale(712.926 1820.99)"> <stop stop-color="#CC712F" stop-opacity="0.69"></stop> <stop offset="0.552083" stop-color="#3A6EBD" stop-opacity="0.42"></stop> <stop offset="0.822917" stop-color="#C74189" stop-opacity="0.4"></stop> <stop offset="1" stop-color="#CB6363" stop-opacity="0.14"></stop> </radialGradient> </defs> </svg> 