<?xml version="1.0" encoding="UTF-8"?> <svg xmlns="http://www.w3.org/2000/svg" width="446" height="171" viewBox="0 0 446 171" fill="none"> <path d="M362.172 23.1314C362.172 9.4796 374.678 0.778809 388.269 0.778809C396.235 0.778809 403.273 2.30606 408.017 7.10751C409.358 8.46447 411.34 9.12053 413.224 8.80731C414.595 8.57946 416.036 8.46635 417.285 8.46635C420.3 8.46635 423.924 9.90516 427.021 12.3224C430.116 14.7377 432.653 18.1054 433.527 21.9269C433.893 23.5306 434.872 24.9874 436.314 25.8143C441.931 29.0357 445.681 34.8955 445.681 41.5836C445.681 51.7323 437.04 59.98 426.356 59.98H366.816C356.132 59.98 347.491 51.7323 347.491 41.5836C347.491 33.1486 353.458 26.0287 361.609 23.8627C361.939 23.7749 362.172 23.4751 362.172 23.1314Z" fill="url(#paint0_linear_3084_105)" fill-opacity="0.6" stroke="url(#paint1_linear_3084_105)" stroke-width="0.5"></path> <path d="M111.744 71.9466C111.744 35.3336 141.449 5.65234 178.094 5.65234C200.068 5.65234 219.545 16.3246 231.62 32.7653C232.801 34.3729 234.894 35.0261 236.793 34.4393C240.921 33.1636 245.308 32.4764 249.857 32.4764C273.003 32.4764 291.989 50.2728 293.856 72.9175C293.991 74.56 294.978 76.0234 296.457 76.7538C312.747 84.7978 323.951 101.568 323.951 120.952C323.951 148.164 301.873 170.223 274.638 170.223H123.885C96.65 170.223 74.5723 148.164 74.5723 120.952C74.5723 98.3536 89.7988 79.3077 110.562 73.5001C111.257 73.3056 111.744 72.671 111.744 71.9466Z" fill="url(#paint2_linear_3084_105)" fill-opacity="0.6" stroke="url(#paint3_linear_3084_105)" stroke-width="0.5"></path> <path d="M123.71 76.2709C123.71 44.6713 149.331 19.0547 180.938 19.0547C199.733 19.0547 216.41 28.1123 226.844 42.1004C228.036 43.6989 230.126 44.3497 232.03 43.7851C235.466 42.7664 239.105 42.2193 242.872 42.2193C262.712 42.2193 279.008 57.393 280.781 76.7659C280.931 78.4051 281.915 79.866 283.386 80.6081C297.266 87.6082 306.784 101.988 306.784 118.591C306.784 142.072 287.745 161.106 264.259 161.106H134.153C110.668 161.106 91.6289 142.072 91.6289 118.591C91.6289 99.0911 104.759 82.6568 122.664 77.6454C123.279 77.4732 123.71 76.9119 123.71 76.2709Z" fill="url(#paint4_linear_3084_105)" fill-opacity="0.6" stroke="url(#paint5_linear_3084_105)" stroke-width="0.5"></path> <path d="M165.917 124.805H159.047L171.556 88.2529H179.502L192.028 124.805H185.158L175.668 95.7489H175.39L165.917 124.805ZM166.143 110.473H184.88V115.792H166.143V110.473Z" fill="#C7C7C7"></path> <path d="M196.709 124.805V88.2529H210.033C212.763 88.2529 215.053 88.7765 216.904 89.8235C218.766 90.8706 220.171 92.3103 221.119 94.1426C222.079 95.9631 222.559 98.0334 222.559 100.354C222.559 102.698 222.079 104.78 221.119 106.6C220.159 108.421 218.743 109.854 216.869 110.901C214.995 111.937 212.688 112.454 209.946 112.454H201.115V107.011H209.079C210.675 107.011 211.982 106.725 213 106.154C214.018 105.583 214.77 104.798 215.255 103.798C215.753 102.799 216.001 101.65 216.001 100.354C216.001 99.0566 215.753 97.9144 215.255 96.9268C214.77 95.9393 214.012 95.1718 212.982 94.6245C211.965 94.0653 210.652 93.7857 209.044 93.7857H203.145V124.805H196.709Z" fill="#C7C7C7"></path> <path d="M234.587 88.2529V124.805H228.15V88.2529H234.587Z" fill="#C7C7C7"></path> <path d="M397.195 132.115H349.481L338.695 118.958C337.935 118.032 336.8 117.494 335.601 117.494H332.4H324" stroke="url(#paint6_linear_3084_105)" stroke-width="2"></path> <path d="M37.7705 72.4138H85.4851L96.271 58.1609C97.0271 57.1618 98.2077 56.5747 99.4606 56.5747H102.565H113.311" stroke="url(#paint7_linear_3084_105)" stroke-width="2"></path> <path d="M434.966 90.6897H374.625H361.392C360.244 90.6897 359.151 91.1831 358.392 92.0444L344.547 107.747H322.874" stroke="url(#paint8_linear_3084_105)" stroke-width="2"></path> <path d="M0 30.9885H59.0294H71.8262C73.037 30.9885 74.1828 31.537 74.9421 32.4803L88.4529 49.2644L115 49" stroke="url(#paint9_linear_3084_105)" stroke-width="2"></path> <path d="M414.253 112.621H400.828H381.339H370.974H345.217H334.356H323.499" stroke="url(#paint10_linear_3084_105)" stroke-width="2"></path> <path d="M20.7109 52.9194L34.4169 52.9313L54.3127 52.9485L64.8946 52.9576L91.1898 52.9803L102.278 52.9899L114 53" stroke="url(#paint11_linear_3084_105)" stroke-width="2"></path> <defs> <linearGradient id="paint0_linear_3084_105" x1="347.241" y1="-25.6901" x2="421.082" y2="123.375" gradientUnits="userSpaceOnUse"> <stop stop-color="#E4947B" stop-opacity="0.19"></stop> <stop offset="1" stop-color="#807FC6" stop-opacity="0"></stop> </linearGradient> <linearGradient id="paint1_linear_3084_105" x1="344.339" y1="-107.836" x2="416.497" y2="97.7393" gradientUnits="userSpaceOnUse"> <stop stop-color="white" stop-opacity="0.32"></stop> <stop offset="1" stop-color="white" stop-opacity="0"></stop> </linearGradient> <linearGradient id="paint2_linear_3084_105" x1="74.3223" y1="-67.0919" x2="289.128" y2="330.005" gradientUnits="userSpaceOnUse"> <stop stop-color="#E4947B" stop-opacity="0.19"></stop> <stop offset="1" stop-color="#807FC6" stop-opacity="0"></stop> </linearGradient> <linearGradient id="paint3_linear_3084_105" x1="66.9729" y1="-294.223" x2="280.343" y2="262.43" gradientUnits="userSpaceOnUse"> <stop stop-color="white" stop-opacity="0.32"></stop> <stop offset="1" stop-color="white" stop-opacity="0"></stop> </linearGradient> <linearGradient id="paint4_linear_3084_105" x1="91.3789" y1="-77.4482" x2="226.574" y2="216.798" gradientUnits="userSpaceOnUse"> <stop stop-color="#E4947B" stop-opacity="0.19"></stop> <stop offset="1" stop-color="#807FC6" stop-opacity="0"></stop> </linearGradient> <linearGradient id="paint5_linear_3084_105" x1="85.0361" y1="-239.945" x2="269.383" y2="240.692" gradientUnits="userSpaceOnUse"> <stop stop-color="white" stop-opacity="0.32"></stop> <stop offset="1" stop-color="white" stop-opacity="0"></stop> </linearGradient> <linearGradient id="paint6_linear_3084_105" x1="301.523" y1="127.619" x2="399.055" y2="124.15" gradientUnits="userSpaceOnUse"> <stop stop-color="#504959"></stop> <stop offset="1" stop-color="#2D2B34"></stop> </linearGradient> <linearGradient id="paint7_linear_3084_105" x1="116.59" y1="72.1857" x2="14.0938" y2="64.8422" gradientUnits="userSpaceOnUse"> <stop stop-color="#504959"></stop> <stop offset="1" stop-color="#2D2B34"></stop> </linearGradient> <linearGradient id="paint8_linear_3084_105" x1="293.001" y1="102.502" x2="437.612" y2="95.9597" gradientUnits="userSpaceOnUse"> <stop stop-color="#504959"></stop> <stop offset="1" stop-color="#2D2B34"></stop> </linearGradient> <linearGradient id="paint9_linear_3084_105" x1="119.5" y1="49.0012" x2="-35.3225" y2="34.4258" gradientUnits="userSpaceOnUse"> <stop stop-color="#504959"></stop> <stop offset="1" stop-color="#2D2B34"></stop> </linearGradient> <linearGradient id="paint10_linear_3084_105" x1="298.521" y1="113.313" x2="383.158" y2="60.0705" gradientUnits="userSpaceOnUse"> <stop stop-color="#504959"></stop> <stop offset="1" stop-color="#2D2B34"></stop> </linearGradient> <linearGradient id="paint11_linear_3084_105" x1="118.048" y1="53.9891" x2="75.1772" y2="-6.20296" gradientUnits="userSpaceOnUse"> <stop stop-color="#504959"></stop> <stop offset="1" stop-color="#2D2B34"></stop> </linearGradient> </defs> </svg> 