<?xml version="1.0" encoding="UTF-8"?> <svg xmlns="http://www.w3.org/2000/svg" width="100" height="40" viewBox="0 0 100 40" fill="none"> <path d="M95.7171 8.56426C98.0825 8.56426 99.9999 6.64709 99.9999 4.28213C99.9999 1.91717 98.0825 0 95.7171 0C93.3518 0 91.4343 1.91717 91.4343 4.28213C91.4343 6.64709 93.3518 8.56426 95.7171 8.56426Z" fill="white"></path> <path d="M91.7743 16.9929H82.053L79.6057 11.4873H71.7199L62.5425 32.2183L62.4745 11.4873H55.8804L46.1591 27.8682L36.1659 11.4873H29.5717V32.1503L20.3943 11.4873H12.5085L0 39.831H8.15772L10.4011 34.3254H22.3657L24.6091 39.831H29.5717H32.9708H36.9817V25.2173L44.2556 37.0442H47.7906L55.0646 24.8095L55.1326 39.831H59.1434H62.5425H67.3012L69.5445 34.3254H81.5092L83.7526 39.831H88.2393H99.7281V11.4873H91.7063V16.9929H91.7743ZM12.7804 28.4119L16.4514 19.3039L20.1224 28.4119H12.7804ZM74.5071 25.0134V27.3244H73.3515V25.0134V22.9743H74.5071V25.0134ZM76.2067 25.0134V28.4119H75.051V25.0134V21.6149H76.2067V25.0134ZM77.9062 25.0134V26.7127H76.7505V25.0134V23.3142H77.9062V25.0134ZM79.6057 25.0134V25.4892H78.45V25.0134V24.5376H79.6057V25.0134ZM81.3052 25.0134V27.5963H80.1496V25.0134V22.4306H81.3052V25.0134ZM83.0048 25.0134V28.208H81.8491V25.0134V21.8188H83.0048V25.0134ZM84.7043 25.0134V30.655H83.5486V25.0134V19.3719H84.7043V25.0134ZM86.4038 25.0134V29.3635H85.2481V25.0134V20.6633H86.4038V25.0134ZM88.1033 25.0134V26.8486H86.9477V25.0134V23.1782H88.1033V25.0134ZM89.8029 25.0134V27.1205H88.6472V25.0134V22.9743H89.8029V25.0134ZM91.5024 25.0134V25.8291H90.3467V25.0134V24.1978H91.5024V25.0134ZM93.6778 25.0134V24.5376H94.8335V25.0134V25.4892H93.6778V25.0134ZM91.9783 25.0134V21.8188H93.1339V25.0134V28.208H91.9783V25.0134Z" fill="white"></path> </svg> 