<?xml version="1.0" encoding="UTF-8"?> <svg xmlns="http://www.w3.org/2000/svg" width="442" height="137" viewBox="0 0 442 137" fill="none"> <rect x="0.5" y="0.5" width="441" height="136" rx="20.5" fill="url(#paint0_linear_3016_360)"></rect> <rect x="0.5" y="0.5" width="441" height="136" rx="20.5" fill="url(#paint1_linear_3016_360)"></rect> <rect x="0.5" y="0.5" width="441" height="136" rx="20.5" stroke="url(#paint2_linear_3016_360)"></rect> <mask id="mask0_3016_360" style="mask-type:alpha" maskUnits="userSpaceOnUse" x="1" y="1" width="440" height="135"> <rect x="1.5" y="1.5" width="439" height="134" rx="19.5" fill="url(#paint3_linear_3016_360)" stroke="url(#paint4_linear_3016_360)"></rect> </mask> <g mask="url(#mask0_3016_360)"> <g filter="url(#filter0_f_3016_360)"> <ellipse cx="-95.5" cy="159.978" rx="156.5" ry="78.0732" fill="#FFD39E" fill-opacity="0.4"></ellipse> </g> <g filter="url(#filter1_f_3016_360)"> <path d="M91.2217 127.214C121.385 166.795 87.172 181.457 26.3848 209.856C-34.4024 238.256 -147.514 227.848 -168.615 198.588C-189.717 169.328 -139.616 127.214 -51.6162 148.686C9.17104 120.286 66.3848 112.868 91.2217 127.214Z" fill="#FF9EBB" fill-opacity="0.6"></path> </g> <g filter="url(#filter2_f_3016_360)"> <ellipse rx="129.992" ry="50.7437" transform="matrix(0.953839 -0.30032 0.473061 0.88103 236.997 171.651)" fill="#9ED1FF" fill-opacity="0.6"></ellipse> </g> <g filter="url(#filter3_f_3016_360)"> <ellipse rx="132.785" ry="86.8478" transform="matrix(0.451922 -0.892058 0.950138 0.311829 372.526 170.534)" fill="#BD9EFF" fill-opacity="0.6"></ellipse> </g> <path d="M526.253 75.1192C523.578 73.2842 519.435 73.2085 516.167 74.3342C512.898 75.46 510.373 77.5858 508.257 79.8282C502.823 85.587 499.528 92.3689 495.102 98.6283C490.675 104.888 484.619 110.932 476.041 113.47C462.653 117.43 448.153 111.817 435.059 107.345C431.632 106.173 427.987 105.053 424.262 105.359C419.493 105.751 415.458 108.475 413.012 111.692C410.567 114.908 409.442 118.608 408.249 122.226C404.405 133.874 399.21 145.753 388.458 154.4C377.705 163.047 354.887 170.367 331.015 162.014" stroke="url(#paint5_linear_3016_360)" stroke-width="0.7121" stroke-miterlimit="10"></path> <path opacity="0.9756" d="M331.356 162.71C344.776 167.143 357.827 166.34 368.573 163.162C376.244 160.895 382.713 157.43 387.186 153.736C391.333 150.327 394.7 146.457 397.531 142.341C398.627 140.743 399.645 139.108 400.595 137.459C402.843 133.553 404.696 129.564 406.297 125.572C406.767 124.4 407.216 123.23 407.652 122.064C408.566 119.606 409.443 117.112 410.766 114.781C411.305 113.827 411.92 112.901 412.648 112.01C413.85 110.549 415.412 109.183 417.232 108.068C419.225 106.847 421.47 105.954 423.887 105.686C424.819 105.585 425.745 105.574 426.662 105.638C429.291 105.815 431.857 106.569 434.303 107.349C436.742 108.125 439.232 108.942 441.756 109.725C448.173 111.715 454.811 113.478 461.501 113.78C465.784 113.98 470.087 113.591 474.316 112.304C477.077 111.463 479.598 110.284 481.898 108.874C486.761 105.895 490.614 101.886 493.736 97.7877C496.882 93.649 499.511 89.2787 502.656 85.1041C504.102 83.1867 505.65 81.3122 507.406 79.5266C509.577 77.3169 512.149 75.2098 515.439 74.0712C518.729 72.9326 522.872 72.9614 525.58 74.7067" stroke="url(#paint6_linear_3016_360)" stroke-width="0.7063" stroke-miterlimit="10"></path> <path opacity="0.9512" d="M331.395 163.294C344.316 167.289 356.862 166.141 367.336 162.729C374.791 160.301 381.155 156.74 385.614 152.964C389.737 149.499 393.133 145.603 396.052 141.496C397.182 139.902 398.239 138.28 399.235 136.655C401.598 132.809 403.582 128.972 405.297 125.151C405.8 124.03 406.284 122.909 406.749 121.794C407.731 119.446 408.673 117.069 410.039 114.856C410.595 113.949 411.227 113.068 411.976 112.22C413.21 110.826 414.812 109.519 416.649 108.402C418.666 107.177 420.861 106.229 423.2 105.903C424.104 105.776 424.997 105.745 425.881 105.785C428.414 105.889 430.885 106.554 433.238 107.244C435.585 107.93 437.98 108.655 440.412 109.349C446.59 111.113 452.976 112.639 459.554 112.751C463.765 112.833 468.047 112.351 472.285 111.029C475.052 110.164 477.597 108.98 479.936 107.589C484.874 104.649 488.826 100.782 492.066 96.8382C495.326 92.8509 498.079 88.6489 501.341 84.5817C502.841 82.7163 504.445 80.8774 506.243 79.1212C508.473 76.9446 511.084 74.8558 514.398 73.7072C517.713 72.556 521.856 72.5379 524.594 74.1906" stroke="url(#paint7_linear_3016_360)" stroke-width="0.7005" stroke-miterlimit="10"></path> <path opacity="0.9268" d="M331.153 163.773C343.578 167.333 355.615 165.841 365.818 162.192C373.053 159.603 379.298 155.941 383.759 152.087C387.846 148.56 391.288 144.644 394.291 140.547C395.451 138.959 396.548 137.345 397.594 135.745C400.071 131.962 402.187 128.277 404.015 124.621C404.552 123.548 405.066 122.48 405.565 121.417C406.613 119.177 407.625 116.921 409.03 114.82C409.606 113.961 410.252 113.125 411.022 112.322C412.288 110.998 413.93 109.749 415.787 108.63C417.829 107.4 419.973 106.401 422.235 106.014C423.11 105.863 423.971 105.808 424.82 105.822C427.251 105.859 429.627 106.428 431.892 107.029C434.147 107.626 436.45 108.261 438.782 108.865C444.719 110.402 450.858 111.682 457.326 111.613C461.461 111.57 465.725 111.005 469.973 109.642C472.748 108.752 475.317 107.564 477.689 106.194C482.705 103.296 486.756 99.5689 490.114 95.7764C493.486 91.9402 496.369 87.9041 499.749 83.9469C501.307 82.131 502.962 80.3303 504.805 78.601C507.091 76.4599 509.748 74.3897 513.084 73.2257C516.423 72.0617 520.562 71.9966 523.338 73.5597" stroke="url(#paint8_linear_3016_360)" stroke-width="0.6947" stroke-miterlimit="10"></path> <path opacity="0.9024" d="M330.649 164.166C342.576 167.288 354.1 165.457 364.038 161.568C371.056 158.821 377.19 155.058 381.643 151.122C385.7 147.536 389.178 143.594 392.268 139.509C393.462 137.926 394.596 136.321 395.691 134.748C398.282 131.025 400.533 127.492 402.471 124.007C403.039 122.985 403.59 121.966 404.119 120.954C405.238 118.824 406.312 116.684 407.76 114.701C408.353 113.89 409.016 113.099 409.81 112.338C411.112 111.085 412.79 109.893 414.668 108.769C416.734 107.535 418.823 106.484 421.008 106.035C421.851 105.861 422.679 105.783 423.496 105.771C425.831 105.734 428.112 106.214 430.281 106.728C432.443 107.236 434.651 107.779 436.892 108.293C442.586 109.601 448.48 110.645 454.833 110.389C458.895 110.227 463.138 109.573 467.396 108.172C470.176 107.258 472.769 106.065 475.18 104.716C480.272 101.86 484.43 98.2811 487.897 94.6341C491.389 90.9578 494.39 87.0787 497.888 83.2316C499.503 81.4651 501.21 79.7026 503.099 78.0001C505.443 75.8921 508.143 73.8404 511.5 72.6663C514.864 71.4924 519.003 71.3749 521.809 72.8508" stroke="url(#paint9_linear_3016_360)" stroke-width="0.6889" stroke-miterlimit="10"></path> <path opacity="0.878" d="M329.896 164.487C341.327 167.174 352.335 165.002 362.008 160.87C368.807 157.965 374.832 154.104 379.278 150.084C383.308 146.442 386.822 142.475 389.997 138.396C391.221 136.817 392.399 135.223 393.542 133.677C396.244 130.014 398.63 126.636 400.682 123.319C401.284 122.345 401.865 121.377 402.424 120.418C403.609 118.397 404.75 116.376 406.24 114.508C406.85 113.742 407.534 112.998 408.344 112.282C409.682 111.1 411.394 109.964 413.295 108.839C415.385 107.6 417.424 106.5 419.532 105.988C420.346 105.79 421.142 105.689 421.927 105.65C424.169 105.541 426.35 105.934 428.427 106.355C430.494 106.774 432.61 107.227 434.755 107.652C440.211 108.732 445.854 109.539 452.095 109.096C456.08 108.812 460.302 108.072 464.573 106.63C467.358 105.691 469.979 104.494 472.426 103.163C477.596 100.35 481.853 96.913 485.437 93.4147C489.044 89.8925 492.169 86.1761 495.788 82.4392C497.461 80.7222 499.219 78.9979 501.154 77.3223C503.553 75.247 506.296 73.2139 509.678 72.0271C513.063 70.8404 517.202 70.676 520.042 72.0623" stroke="url(#paint10_linear_3016_360)" stroke-width="0.6831" stroke-miterlimit="10"></path> <path opacity="0.8537" d="M328.909 164.747C339.841 167 350.337 164.491 359.745 160.114C366.324 157.054 372.241 153.092 376.679 148.99C380.683 145.292 384.229 141.298 387.491 137.229C388.749 135.655 389.963 134.073 391.156 132.551C393.973 128.952 396.493 125.726 398.659 122.573C399.294 121.648 399.905 120.731 400.499 119.823C401.751 117.912 402.954 116.007 404.49 114.257C405.117 113.539 405.818 112.84 406.649 112.169C408.019 111.057 409.771 109.978 411.692 108.851C413.806 107.611 415.795 106.456 417.826 105.883C418.61 105.662 419.374 105.537 420.123 105.475C422.268 105.295 424.354 105.596 426.339 105.931C428.314 106.26 430.334 106.624 432.387 106.956C437.601 107.808 442.996 108.378 449.125 107.746C453.037 107.343 457.239 106.514 461.522 105.034C464.316 104.071 466.961 102.87 469.44 101.559C474.685 98.788 479.044 95.4936 482.743 92.1466C486.465 88.7729 489.713 85.222 493.45 81.5925C495.18 79.9277 496.99 78.2387 498.968 76.5899C501.422 74.5475 504.211 72.533 507.617 71.3362C511.027 70.1369 515.167 69.9256 518.04 71.2222" stroke="url(#paint11_linear_3016_360)" stroke-width="0.6774" stroke-miterlimit="10"></path> <path opacity="0.8293" d="M327.705 164.963C338.142 166.778 348.118 163.936 357.265 159.314C363.62 156.101 369.432 152.035 373.863 147.848C377.837 144.094 381.422 140.074 384.769 136.015C386.057 134.445 387.314 132.873 388.553 131.378C391.484 127.839 394.137 124.765 396.415 121.783C397.085 120.906 397.729 120.04 398.353 119.186C399.671 117.386 400.941 115.6 402.523 113.962C403.17 113.291 403.888 112.638 404.736 112.009C406.142 110.967 407.93 109.945 409.873 108.814C412.011 107.569 413.945 106.363 415.902 105.728C416.655 105.484 417.39 105.336 418.103 105.247C420.151 104.995 422.142 105.206 424.035 105.451C425.918 105.688 427.846 105.962 429.8 106.208C434.772 106.834 439.919 107.165 445.935 106.346C449.771 105.824 453.956 104.906 458.249 103.385C461.048 102.398 463.716 101.195 466.235 99.9026C471.559 97.1706 476.015 94.0213 479.829 90.8228C483.665 87.606 487.031 84.2148 490.896 80.6984C492.677 79.0801 494.545 77.4323 496.568 75.8103C499.081 73.8009 501.91 71.8048 505.34 70.5954C508.775 69.3834 512.914 69.1252 515.818 70.3292" stroke="url(#paint12_linear_3016_360)" stroke-width="0.6716" stroke-miterlimit="10"></path> <path opacity="0.8049" d="M326.308 165.147C336.247 166.527 345.706 163.355 354.593 158.482C360.727 155.119 366.431 150.947 370.854 146.677C374.802 142.867 378.42 138.819 381.854 134.772C383.175 133.208 384.47 131.644 385.757 130.176C388.803 126.7 391.587 123.778 393.979 120.964C394.682 120.138 395.357 119.323 396.014 118.518C397.399 116.825 398.735 115.157 400.359 113.637C401.024 113.014 401.759 112.406 402.627 111.822C404.069 110.851 405.894 109.886 407.857 108.752C410.019 107.503 411.902 106.245 413.782 105.549C414.506 105.282 415.205 105.11 415.89 104.996C417.841 104.673 419.736 104.797 421.534 104.948C423.324 105.1 425.157 105.28 427.016 105.433C431.746 105.831 436.642 105.925 442.553 104.917C446.312 104.276 450.48 103.266 454.782 101.71C457.59 100.696 460.282 99.4909 462.837 98.217C468.235 95.527 472.794 92.5202 476.726 89.4731C480.676 86.4102 484.163 83.1816 488.152 79.7756C489.99 78.2067 491.91 76.5971 493.978 75.002C496.547 73.0281 499.422 71.0479 502.874 69.8257C506.329 68.6009 510.469 68.2959 513.406 69.4102" stroke="url(#paint13_linear_3016_360)" stroke-width="0.6658" stroke-miterlimit="10"></path> <path opacity="0.7805" d="M324.726 165.314C334.169 166.256 343.104 162.756 351.734 157.63C357.645 154.118 363.245 149.84 367.66 145.487C371.581 141.62 375.235 137.547 378.753 133.509C380.105 131.95 381.439 130.395 382.775 128.954C385.932 125.538 388.854 122.771 391.357 120.122C392.09 119.345 392.802 118.581 393.49 117.829C394.942 116.247 396.34 114.695 398.01 113.29C398.692 112.715 399.447 112.151 400.333 111.61C401.813 110.707 403.671 109.804 405.655 108.666C407.841 107.412 409.674 106.105 411.477 105.346C412.168 105.055 412.838 104.857 413.488 104.719C415.342 104.323 417.141 104.358 418.847 104.422C420.545 104.485 422.283 104.572 424.049 104.639C428.541 104.809 433.185 104.669 438.984 103.472C442.671 102.712 446.817 101.613 451.129 100.019C453.942 98.9793 456.662 97.7704 459.249 96.5173C464.726 93.8694 469.382 91.0049 473.429 88.1063C477.494 85.1975 481.105 82.1315 485.212 78.8356C487.104 77.3159 489.079 75.7446 491.193 74.1764C493.817 72.2354 496.738 70.2738 500.211 69.0416C503.691 67.8041 507.83 67.4523 510.798 68.4768" stroke="url(#paint14_linear_3016_360)" stroke-width="0.66" stroke-miterlimit="10"></path> <path opacity="0.7561" d="M322.982 165.474C331.93 165.982 340.345 162.156 348.714 156.774C354.404 153.115 359.9 148.731 364.304 144.292C368.198 140.37 371.884 136.27 375.491 132.242C376.876 130.687 378.25 129.146 379.632 127.729C382.903 124.373 385.957 121.758 388.573 119.279C389.34 118.55 390.082 117.837 390.803 117.137C392.326 115.662 393.787 114.232 395.5 112.94C396.198 112.412 396.97 111.893 397.88 111.397C399.396 110.564 401.29 109.718 403.295 108.575C405.505 107.317 407.284 105.959 409.01 105.138C409.672 104.824 410.31 104.603 410.924 104.441C412.685 103.972 414.385 103.917 415.998 103.892C417.605 103.866 419.247 103.863 420.918 103.84C425.168 103.783 429.564 103.406 435.251 102.022C438.861 101.143 442.987 99.955 447.312 98.3204C450.129 97.2564 452.873 96.0432 455.5 94.8111C461.052 92.2052 465.81 89.4831 469.975 86.7359C474.154 83.9755 477.892 81.0724 482.12 77.8866C484.07 76.4164 486.093 74.8831 488.256 73.3447C490.938 71.4366 493.898 69.4961 497.396 68.2485C500.901 67.0012 505.037 66.5996 508.041 67.5346" stroke="url(#paint15_linear_3016_360)" stroke-width="0.6542" stroke-miterlimit="10"></path> <path opacity="0.7317" d="M321.091 165.651C329.54 165.721 337.434 161.576 345.547 155.935C351.013 152.132 356.404 147.636 360.801 143.112C364.669 139.134 368.391 135.009 372.081 130.99C373.496 129.439 374.911 127.908 376.342 126.515C379.727 123.222 382.916 120.759 385.642 118.448C386.443 117.77 387.219 117.105 387.97 116.456C389.559 115.092 391.083 113.78 392.842 112.603C393.557 112.123 394.349 111.649 395.277 111.195C396.828 110.433 398.759 109.643 400.784 108.499C403.018 107.239 404.746 105.829 406.395 104.944C407.025 104.607 407.634 104.362 408.216 104.175C409.884 103.633 411.485 103.491 413.003 103.376C414.517 103.261 416.064 103.169 417.643 103.054C421.651 102.768 425.796 102.157 431.374 100.581C434.908 99.5834 439.016 98.3065 443.35 96.6339C446.177 95.5455 448.945 94.3278 451.607 93.1139C457.234 90.5501 462.09 87.9702 466.373 85.3716C470.664 82.7705 474.529 80.0274 478.871 76.9543C480.878 75.5335 482.953 74.0383 485.158 72.5266C487.895 70.6514 490.902 68.7296 494.421 67.4719C497.946 66.2118 502.086 65.7635 505.121 66.6059" stroke="url(#paint16_linear_3016_360)" stroke-width="0.6484" stroke-miterlimit="10"></path> <path opacity="0.7073" d="M319.065 165.879C327.019 165.515 334.392 161.051 342.245 155.149C347.49 151.204 352.777 146.594 357.163 141.987C361.004 137.953 364.759 133.799 368.537 129.789C369.986 128.243 371.437 126.722 372.917 125.356C376.417 122.123 379.737 119.813 382.576 117.669C383.411 117.04 384.218 116.426 385.002 115.83C386.658 114.577 388.248 113.381 390.049 112.318C390.781 111.886 391.594 111.457 392.539 111.048C394.129 110.356 396.09 109.623 398.139 108.477C400.397 107.213 402.071 105.754 403.646 104.806C404.247 104.445 404.824 104.177 405.37 103.963C406.941 103.348 408.447 103.117 409.873 102.912C411.295 102.708 412.75 102.524 414.23 102.322C418 101.811 421.893 100.961 427.359 99.1982C430.816 98.0814 434.907 96.7157 439.254 95.0024C442.086 93.8895 444.878 92.6674 447.576 91.4744C453.281 88.9499 458.236 86.515 462.637 84.0677C467.038 81.6205 471.031 79.0401 475.494 76.0744C477.559 74.703 479.685 73.246 481.935 71.7611C484.732 69.9216 487.781 68.0156 491.321 66.7451C494.878 65.4754 499.014 64.9774 502.082 65.7329" stroke="url(#paint17_linear_3016_360)" stroke-width="0.6426" stroke-miterlimit="10"></path> <path opacity="0.6829" d="M316.922 166.177C324.377 165.376 331.233 160.598 338.827 154.428C343.854 150.345 349.031 145.62 353.409 140.928C357.223 136.841 361.014 132.658 364.879 128.658C366.359 127.119 367.853 125.608 369.379 124.266C372.99 121.097 376.445 118.938 379.401 116.962C380.269 116.381 381.109 115.818 381.924 115.273C383.647 114.127 385.299 113.053 387.146 112.106C387.895 111.721 388.729 111.337 389.691 110.97C391.32 110.346 393.314 109.672 395.383 108.525C397.665 107.256 399.285 105.745 400.787 104.736C401.355 104.352 401.904 104.058 402.414 103.82C403.892 103.133 405.299 102.812 406.632 102.518C407.962 102.227 409.322 101.951 410.707 101.656C414.235 100.918 417.88 99.8336 423.234 97.879C426.615 96.646 430.688 95.1859 435.045 93.4373C437.882 92.2999 440.701 91.0736 443.435 89.9015C449.215 87.419 454.268 85.1262 458.787 82.8275C463.3 80.5313 467.42 78.1165 472.003 75.2608C474.123 73.9387 476.304 72.52 478.599 71.062C481.451 69.2552 484.543 67.3677 488.108 66.0874C491.683 64.8019 495.818 64.2598 498.921 64.923" stroke="url(#paint18_linear_3016_360)" stroke-width="0.6368" stroke-miterlimit="10"></path> <path opacity="0.6585" d="M314.678 166.556C321.639 165.32 327.977 160.228 335.308 153.792C340.114 149.57 345.186 144.728 349.554 139.951C353.345 135.807 357.165 131.599 361.118 127.609C362.631 126.073 364.161 124.572 365.74 123.258C369.465 120.148 373.055 118.144 376.121 116.335C377.02 115.806 377.893 115.294 378.742 114.8C380.531 113.765 382.246 112.806 384.143 111.974C384.909 111.637 385.762 111.301 386.741 110.975C388.41 110.423 390.437 109.805 392.527 108.653C394.833 107.38 396.402 105.82 397.827 104.747C398.366 104.34 398.882 104.023 399.361 103.759C400.745 102.999 402.053 102.591 403.295 102.208C404.533 101.827 405.797 101.459 407.089 101.078C410.376 100.111 413.769 98.7933 419.018 96.6496C422.322 95.2978 426.375 93.7487 430.745 91.9621C433.59 90.8004 436.434 89.5697 439.203 88.4157C445.062 85.9753 450.209 83.8219 454.847 81.6744C459.473 79.5321 463.717 77.2798 468.419 74.5341C470.596 73.2614 472.828 71.8808 475.169 70.4496C478.076 68.6757 481.215 66.8068 484.804 65.5138C488.403 64.2158 492.539 63.6268 495.672 64.2003" stroke="url(#paint19_linear_3016_360)" stroke-width="0.631" stroke-miterlimit="10"></path> <path opacity="0.6341" d="M312.352 167.031C318.814 165.361 324.641 159.959 331.706 153.252C336.294 148.895 341.26 143.936 345.616 139.073C349.381 134.873 353.236 130.639 357.273 126.658C358.816 125.127 360.391 123.636 362.014 122.349C365.854 119.299 369.576 117.447 372.755 115.806C373.688 115.324 374.595 114.864 375.474 114.421C377.33 113.493 379.104 112.656 381.05 111.939C381.832 111.649 382.707 111.358 383.703 111.075C385.411 110.593 387.471 110.032 389.578 108.878C391.908 107.601 393.423 105.991 394.774 104.855C395.281 104.427 395.768 104.084 396.211 103.796C397.499 102.963 398.711 102.466 399.857 101.993C401.003 101.523 402.172 101.065 403.369 100.592C406.414 99.3977 409.559 97.849 414.696 95.5134C417.927 94.0455 421.96 92.4047 426.339 90.5773C429.189 89.3911 432.056 88.1587 434.865 87.0231C440.799 84.6246 446.048 82.6134 450.803 80.6173C455.541 78.6286 459.912 76.539 464.735 73.9034C466.969 72.6801 469.253 71.3376 471.64 69.9333C474.605 68.1923 477.786 66.3419 481.397 65.0361C485.017 63.7253 489.153 63.0868 492.319 63.5734" stroke="url(#paint20_linear_3016_360)" stroke-width="0.6252" stroke-miterlimit="10"></path> <path opacity="0.6098" d="M309.96 167.619C315.926 165.512 321.239 159.807 328.038 152.826C332.412 148.335 337.263 143.256 341.613 138.307C345.35 134.055 349.238 129.789 353.363 125.821C354.94 124.294 356.55 122.813 358.223 121.552C362.177 118.566 366.034 116.866 369.323 115.392C370.29 114.959 371.227 114.549 372.139 114.16C374.062 113.343 375.899 112.621 377.891 112.019C378.69 111.777 379.585 111.531 380.598 111.293C382.345 110.881 384.438 110.38 386.565 109.221C388.919 107.942 390.384 106.281 391.654 105.081C392.133 104.629 392.588 104.26 392.995 103.949C394.19 103.04 395.303 102.456 396.357 101.897C397.411 101.335 398.488 100.791 399.589 100.228C402.395 98.8058 405.286 97.0232 410.314 94.4957C413.469 92.909 417.484 91.1794 421.873 89.3139C424.732 88.1006 427.623 86.8665 430.464 85.7517C436.476 83.3953 441.82 81.5261 446.693 79.6784C451.542 77.8407 456.04 75.9193 460.98 73.3908C463.272 72.2196 465.608 70.9125 468.037 69.5349C471.058 67.8267 474.281 65.9975 477.916 64.6791C481.561 63.3584 485.697 62.6703 488.897 63.0646" stroke="url(#paint21_linear_3016_360)" stroke-width="0.6195" stroke-miterlimit="10"></path> <path opacity="0.5854" d="M307.515 168.334C312.983 165.792 317.787 159.78 324.317 152.525C328.476 147.902 333.218 142.7 337.556 137.669C341.27 133.36 345.191 129.069 349.4 125.11C351.007 123.587 352.657 122.119 354.379 120.882C358.444 117.956 362.436 116.408 365.838 115.104C366.838 114.722 367.809 114.361 368.752 114.023C370.744 113.316 372.641 112.71 374.678 112.225C375.495 112.031 376.41 111.83 377.444 111.634C379.229 111.296 381.356 110.848 383.504 109.685C385.882 108.402 387.295 106.695 388.489 105.427C388.938 104.953 389.358 104.56 389.736 104.223C390.838 103.239 391.853 102.568 392.814 101.92C393.776 101.268 394.758 100.632 395.764 99.9796C398.328 98.3322 400.971 96.316 405.887 93.5965C408.965 91.8936 412.963 90.0725 417.365 88.1664C420.229 86.9286 423.147 85.6903 426.025 84.5935C432.112 82.2763 437.554 80.552 442.548 78.8556C447.508 77.1716 452.137 75.4129 457.194 72.9944C459.544 71.8726 461.931 70.6035 464.405 69.2528C467.481 67.5801 470.751 65.7668 474.407 64.4356C478.077 63.1022 482.209 62.3672 485.443 62.672" stroke="url(#paint22_linear_3016_360)" stroke-width="0.6137" stroke-miterlimit="10"></path> <path opacity="0.561" d="M305.041 169.189C310.014 166.211 314.31 159.899 320.568 152.363C324.515 147.611 329.143 142.286 333.471 137.166C337.159 132.804 341.112 128.484 345.408 124.535C347.048 123.019 348.739 121.558 350.507 120.348C354.686 117.485 358.809 116.088 362.325 114.95C363.359 114.616 364.36 114.305 365.336 114.021C367.395 113.422 369.351 112.934 371.438 112.565C372.268 112.418 373.207 112.265 374.258 112.111C376.082 111.843 378.242 111.452 380.41 110.287C382.816 108.999 384.175 107.243 385.292 105.913C385.709 105.415 386.1 104.996 386.442 104.635C387.448 103.575 388.37 102.818 389.236 102.08C390.106 101.34 390.992 100.614 391.906 99.8722C394.229 97.997 396.623 95.7472 401.428 92.8358C404.433 91.0169 408.407 89.1012 412.821 87.16C415.69 85.8976 418.633 84.6549 421.55 83.5792C427.715 81.3041 433.252 79.7189 438.364 78.1738C443.435 76.6406 448.191 75.0473 453.366 72.7386C455.773 71.6662 458.211 70.4352 460.731 69.114C463.866 67.4743 467.179 65.6795 470.856 64.3382C474.547 62.9921 478.682 62.2104 481.946 62.4255" stroke="url(#paint23_linear_3016_360)" stroke-width="0.6079" stroke-miterlimit="10"></path> <path opacity="0.5366" d="M302.544 170.201C307.018 166.788 310.813 160.174 316.792 152.36C320.532 147.478 325.043 142.03 329.36 136.824C333.024 132.407 337.006 128.061 341.39 124.118C343.061 122.607 344.791 121.156 346.608 119.97C350.902 117.167 355.159 115.925 358.789 114.954C359.853 114.668 360.891 114.412 361.898 114.176C364.023 113.687 366.039 113.315 368.174 113.063C369.021 112.964 369.981 112.855 371.049 112.746C372.912 112.552 375.102 112.215 377.294 111.048C379.723 109.756 381.028 107.951 382.072 106.556C382.46 106.038 382.819 105.59 383.125 105.209C384.034 104.074 384.861 103.229 385.632 102.405C386.409 101.575 387.2 100.757 388.019 99.9262C390.1 97.8231 392.246 95.3425 396.939 92.2392C399.867 90.3043 403.824 88.297 408.248 86.315C411.126 85.0283 414.092 83.7812 417.041 82.7262C423.281 80.493 428.916 79.0499 434.147 77.6559C439.328 76.2764 444.211 74.8456 449.508 72.6442C451.969 71.621 454.462 70.4283 457.028 69.1339C460.217 67.5269 463.573 65.7506 467.274 64.3967C470.99 63.0379 475.122 62.2093 478.423 62.335" stroke="url(#paint24_linear_3016_360)" stroke-width="0.6021" stroke-miterlimit="10"></path> <path opacity="0.5122" d="M300.054 171.379C304.033 167.53 307.326 160.62 313.027 152.525C316.558 147.512 320.953 141.938 325.258 136.65C328.896 132.18 332.914 127.803 337.382 123.872C339.083 122.364 340.857 120.924 342.719 119.765C347.127 117.022 351.516 115.932 355.259 115.131C356.357 114.896 357.425 114.688 358.465 114.505C360.658 114.124 362.736 113.87 364.921 113.734C365.785 113.679 366.767 113.622 367.85 113.552C369.752 113.428 371.974 113.147 374.188 111.976C376.641 110.679 377.895 108.828 378.862 107.367C379.221 106.826 379.548 106.355 379.822 105.947C380.638 104.736 381.366 103.805 382.044 102.891C382.73 101.97 383.429 101.065 384.148 100.145C385.991 97.814 387.886 95.1025 392.47 91.8074C395.322 89.7564 399.262 87.6576 403.695 85.6376C406.578 84.3264 409.568 83.0749 412.556 82.0382C418.875 79.847 424.605 78.5431 429.956 77.3003C435.249 76.0717 440.263 74.8064 445.677 72.7148C448.195 71.7409 450.74 70.5863 453.348 69.3186C456.596 67.7445 459.994 65.9866 463.717 64.6227C467.457 63.2513 471.589 62.3759 474.92 62.4119" stroke="url(#paint25_linear_3016_360)" stroke-width="0.5963" stroke-miterlimit="10"></path> <path opacity="0.4878" d="M297.578 172.74C301.059 168.456 303.857 161.248 309.276 152.871C312.602 147.732 316.877 142.032 321.172 136.656C324.786 132.133 328.833 127.727 333.389 123.805C335.123 122.302 336.934 120.874 338.845 119.74C343.364 117.059 347.888 116.121 351.744 115.484C352.876 115.298 353.978 115.141 355.048 115.009C357.307 114.738 359.444 114.6 361.678 114.581C362.559 114.574 363.562 114.564 364.662 114.536C366.603 114.486 368.859 114.259 371.092 113.086C373.57 111.788 374.773 109.885 375.663 108.36C375.989 107.796 376.284 107.298 376.526 106.868C377.246 105.581 377.874 104.563 378.464 103.563C379.058 102.552 379.661 101.555 380.289 100.546C381.89 97.9899 383.537 95.0449 388.009 91.5552C390.788 89.3883 394.707 87.1978 399.15 85.1397C402.038 83.8041 405.056 82.5483 408.08 81.5325C414.473 79.3832 420.301 78.2185 425.77 77.1296C431.174 76.0518 436.315 74.9518 441.846 72.97C444.422 72.0454 447.018 70.9289 449.672 69.688C452.975 68.1495 456.416 66.4073 460.167 65.0309C463.928 63.6467 468.06 62.7245 471.425 62.6682" stroke="url(#paint26_linear_3016_360)" stroke-width="0.5905" stroke-miterlimit="10"></path> <path opacity="0.4634" d="M295.135 174.291C298.121 169.573 300.428 162.066 305.559 153.405C308.68 148.136 312.838 142.314 317.119 136.851C320.71 132.272 324.789 127.84 329.429 123.928C331.193 122.429 333.044 121.011 335.008 119.904C339.641 117.284 344.3 116.497 348.265 116.031C349.431 115.893 350.563 115.786 351.667 115.709C353.992 115.548 356.193 115.522 358.473 115.621C359.367 115.659 360.394 115.697 361.511 115.711C363.49 115.734 365.779 115.561 368.034 114.386C370.535 113.084 371.69 111.132 372.496 109.546C372.794 108.961 373.057 108.434 373.264 107.98C373.883 106.618 374.42 105.513 374.917 104.424C375.419 103.324 375.927 102.238 376.46 101.139C377.819 98.3554 379.217 95.1797 383.578 91.4982C386.284 89.2153 390.179 86.9331 394.634 84.8343C397.531 83.4743 400.573 82.2141 403.629 81.2163C410.101 79.1063 416.024 78.0862 421.615 77.1458C427.13 76.2188 432.397 75.2868 438.049 73.4122C440.682 72.5397 443.33 71.4585 446.029 70.2444C449.388 68.7386 452.875 67.015 456.647 65.6258C460.432 64.2317 464.564 63.26 467.963 63.1143" stroke="url(#paint27_linear_3016_360)" stroke-width="0.5847" stroke-miterlimit="10"></path> <path opacity="0.439" d="M292.746 176.053C295.234 170.899 297.052 163.099 301.894 154.153C304.814 148.758 308.848 142.809 313.118 137.262C316.686 132.629 320.795 128.169 325.522 124.266C327.32 122.772 329.21 121.364 331.22 120.283C335.967 117.726 340.757 117.09 344.836 116.792C346.035 116.704 347.202 116.646 348.335 116.62C350.728 116.567 352.988 116.656 355.316 116.876C356.227 116.961 357.274 117.047 358.412 117.103C360.43 117.199 362.753 117.08 365.027 115.903C367.553 114.596 368.657 112.599 369.387 110.946C369.655 110.338 369.886 109.788 370.06 109.31C370.584 107.872 371.024 106.681 371.427 105.503C371.833 104.313 372.249 103.138 372.69 101.947C373.811 98.9359 374.961 95.5295 379.207 91.6533C381.836 89.2544 385.714 86.8806 390.182 84.744C393.084 83.3595 396.149 82.0949 399.245 81.1181C405.792 79.0499 411.816 78.1693 417.521 77.3825C423.147 76.6063 428.545 75.8396 434.312 74.0747C437.002 73.2516 439.702 72.2084 442.446 71.0211C445.863 69.5482 449.393 67.8458 453.186 66.4438C456.996 65.0371 461.128 64.0186 464.557 63.7832" stroke="url(#paint28_linear_3016_360)" stroke-width="0.5789" stroke-miterlimit="10"></path> <path opacity="0.4146" d="M290.418 178.038C292.411 172.45 293.745 164.351 298.292 155.124C301.014 149.6 304.921 143.528 309.18 137.892C312.724 133.206 316.866 128.714 321.677 124.824C323.505 123.336 325.436 121.935 327.494 120.882C332.356 118.384 337.28 117.904 341.47 117.769C342.699 117.73 343.899 117.723 345.066 117.75C347.529 117.808 349.848 118.013 352.222 118.347C353.15 118.478 354.218 118.614 355.373 118.709C357.429 118.881 359.785 118.816 362.081 117.631C364.63 116.32 365.684 114.274 366.336 112.557C366.576 111.928 366.771 111.35 366.913 110.849C367.34 109.335 367.685 108.058 367.995 106.793C368.31 105.511 368.631 104.246 368.976 102.969C369.855 99.7302 370.757 96.0931 374.891 92.0251C377.447 89.5103 381.304 87.0422 385.782 84.8675C388.692 83.4559 391.782 82.1924 394.914 81.2337C401.538 79.2076 407.658 78.4659 413.484 77.8304C419.221 77.2049 424.746 76.6035 430.633 74.9484C433.381 74.1746 436.132 73.1695 438.922 72.0091C442.395 70.5689 445.967 68.8849 449.784 67.4703C453.616 66.0508 457.748 64.9855 461.21 64.6606" stroke="url(#paint29_linear_3016_360)" stroke-width="0.5731" stroke-miterlimit="10"></path> <path opacity="0.3902" d="M288.178 180.26C289.672 174.235 290.525 165.841 294.776 156.332C297.3 150.681 301.084 144.483 305.329 138.761C308.85 134.02 313.02 129.502 317.919 125.618C319.781 124.135 321.751 122.747 323.855 121.717C328.828 119.28 333.887 118.951 338.193 118.987C339.456 118.996 340.69 119.043 341.887 119.118C344.416 119.283 346.798 119.604 349.218 120.059C350.163 120.236 351.251 120.42 352.423 120.557C354.518 120.803 356.904 120.791 359.224 119.605C361.797 118.289 362.803 116.194 363.375 114.414C363.586 113.762 363.749 113.16 363.856 112.633C364.183 111.043 364.432 109.679 364.654 108.325C364.877 106.954 365.105 105.6 365.351 104.233C365.989 100.767 366.646 96.8994 370.665 92.6394C373.148 90.0088 376.985 87.4491 381.472 85.2364C384.387 83.8003 387.504 82.5325 390.672 81.5919C397.371 79.6076 403.589 79.0052 409.533 78.5235C415.381 78.0487 421.036 77.6153 427.042 76.0645C429.847 75.34 432.646 74.3729 435.481 73.2392C439.013 71.8319 442.627 70.1663 446.466 68.7417C450.322 67.3095 454.453 66.1975 457.946 65.7803" stroke="url(#paint30_linear_3016_360)" stroke-width="0.5674" stroke-miterlimit="10"></path> <path opacity="0.3659" d="M286.039 182.733C287.039 176.274 287.414 167.583 291.363 157.789C293.692 152.009 297.346 145.687 301.58 139.88C305.074 135.086 309.28 130.539 314.263 126.664C316.155 125.185 318.166 123.807 320.318 122.805C325.405 120.43 330.596 120.253 335.015 120.456C336.312 120.516 337.576 120.611 338.806 120.74C341.402 121.015 343.847 121.449 346.313 122.021C347.275 122.244 348.383 122.478 349.572 122.655C351.706 122.973 354.126 123.015 356.465 121.827C359.063 120.51 360.018 118.363 360.514 116.519C360.696 115.844 360.823 115.216 360.901 114.665C361.128 113.003 361.285 111.549 361.411 110.109C361.539 108.649 361.675 107.203 361.83 105.746C362.226 102.055 362.638 97.9547 366.546 93.5002C368.955 90.7536 372.768 88.1022 377.268 85.8516C380.188 84.391 383.329 83.1188 386.533 82.199C393.31 80.2568 399.623 79.7934 405.685 79.4626C411.644 79.1386 417.426 78.8704 423.549 77.4293C426.411 76.7569 429.262 75.825 432.142 74.7209C435.729 73.349 439.39 71.6993 443.25 70.2619C447.13 68.8171 451.258 67.6554 454.788 67.1516" stroke="url(#paint31_linear_3016_360)" stroke-width="0.5616" stroke-miterlimit="10"></path> <path opacity="0.3415" d="M284.057 185.473C284.562 178.578 284.463 169.592 288.106 159.516C290.245 153.609 293.768 147.161 297.988 141.269C301.462 136.421 305.694 131.846 310.764 127.981C312.69 126.506 314.737 125.138 316.939 124.159C322.14 121.845 327.466 121.822 331.995 122.189C333.325 122.298 334.619 122.443 335.88 122.623C338.543 123.009 341.047 123.555 343.565 124.245C344.541 124.515 345.672 124.797 346.879 125.016C349.052 125.411 351.504 125.503 353.865 124.311C356.486 122.99 357.394 120.797 357.809 118.886C357.962 118.187 358.058 117.536 358.1 116.962C358.23 115.224 358.292 113.684 358.326 112.154C358.362 110.605 358.403 109.07 358.462 107.524C358.62 103.606 358.784 99.2742 362.576 94.6278C364.913 91.7654 368.705 89.0223 373.215 86.731C376.144 85.2461 379.308 83.9694 382.547 83.0705C389.4 81.1674 395.811 80.8459 401.994 80.669C408.064 80.4956 413.973 80.3953 420.216 79.0614C423.133 78.4381 426.039 77.5444 428.965 76.467C432.606 75.1279 436.31 73.4967 440.194 72.0493C444.099 70.5918 448.227 69.3834 451.787 68.79" stroke="url(#paint32_linear_3016_360)" stroke-width="0.5558" stroke-miterlimit="10"></path> <path opacity="0.3171" d="M282.506 188.506C282.513 181.177 281.943 171.89 285.28 161.534C287.224 155.498 290.621 148.927 294.827 142.946C298.277 138.045 302.542 133.438 307.696 129.585C309.652 128.114 311.742 126.759 313.99 125.805C319.305 123.553 324.762 123.679 329.405 124.216C330.769 124.373 332.097 124.57 333.387 124.803C336.117 125.296 338.684 125.958 341.248 126.769C342.24 127.083 343.391 127.415 344.616 127.674C346.827 128.142 349.314 128.288 351.694 127.094C354.34 125.768 355.197 123.526 355.532 121.552C355.652 120.833 355.716 120.152 355.726 119.555C355.757 117.741 355.726 116.115 355.668 114.495C355.612 112.857 355.557 111.232 355.525 109.595C355.441 105.449 355.361 100.887 359.038 96.0486C361.301 93.0704 365.073 90.2357 369.596 87.9064C372.529 86.397 375.718 85.1159 378.997 84.2352C385.928 82.374 392.433 82.1915 398.734 82.1656C404.915 82.1429 410.954 82.2079 417.312 80.9835C420.286 80.4095 423.243 79.5538 426.215 78.5032C429.915 77.1969 433.662 75.584 437.567 74.1239C441.493 72.6563 445.621 71.3984 449.215 70.7156" stroke="url(#paint33_linear_3016_360)" stroke-width="0.55" stroke-miterlimit="10"></path> <path opacity="0.2927" d="M281.2 191.84C280.712 184.074 279.671 174.489 282.7 163.854C284.456 157.687 287.715 150.994 291.91 144.927C295.338 139.971 299.632 135.338 304.873 131.494C306.863 130.03 308.99 128.682 311.286 127.755C316.713 125.563 322.308 125.843 327.06 126.548C328.454 126.755 329.816 127 331.14 127.285C333.936 127.888 336.57 128.663 339.176 129.591C340.186 129.95 341.357 130.333 342.599 130.633C344.845 131.177 347.368 131.374 349.766 130.178C352.435 128.848 353.245 126.557 353.5 124.519C353.592 123.776 353.623 123.073 353.601 122.449C353.532 120.562 353.406 118.847 353.259 117.141C353.107 115.413 352.964 113.697 352.833 111.973C352.508 107.599 352.183 102.807 355.745 97.7737C357.935 94.6795 361.686 91.7504 366.219 89.3831C369.157 87.8491 372.374 86.5638 375.685 85.7038C382.69 83.8844 389.295 83.8382 395.716 83.9689C402.009 84.0942 408.175 84.3297 414.653 83.2124C417.685 82.6904 420.694 81.87 423.711 80.8461C427.466 79.5725 431.259 77.981 435.189 76.5081C439.139 75.0279 443.267 73.7232 446.895 72.9509" stroke="url(#paint34_linear_3016_360)" stroke-width="0.5442" stroke-miterlimit="10"></path> <path opacity="0.2683" d="M280.12 195.485C279.134 187.286 277.63 177.401 280.346 166.486C281.911 160.19 285.04 153.373 289.224 147.221C292.628 142.211 296.955 137.55 302.284 133.715C304.303 132.255 306.474 130.917 308.819 130.017C314.36 127.885 320.087 128.317 324.952 129.189C326.38 129.444 327.775 129.74 329.13 130.078C331.996 130.789 334.689 131.679 337.34 132.728C338.367 133.134 339.558 133.565 340.821 133.905C343.106 134.522 345.663 134.773 348.081 133.572C350.775 132.237 351.537 129.898 351.712 127.796C351.775 127.03 351.77 126.3 351.716 125.653C351.547 123.691 351.326 121.891 351.087 120.094C350.84 118.276 350.605 116.471 350.381 114.655C349.815 110.053 349.245 105.031 352.692 99.8055C354.81 96.5954 358.537 93.5745 363.082 91.1693C366.029 89.6109 369.27 88.3211 372.616 87.4819C379.7 85.7044 386.403 85.7974 392.939 86.0789C399.343 86.3548 405.636 86.7555 412.232 85.7478C415.321 85.2751 418.381 84.4927 421.44 83.4954C425.251 82.2572 429.086 80.6813 433.041 79.1958C437.016 77.7029 441.141 76.3513 444.802 75.4868" stroke="url(#paint35_linear_3016_360)" stroke-width="0.5384" stroke-miterlimit="10"></path> <path opacity="0.2439" d="M279.272 199.454C277.792 190.821 275.824 180.633 278.224 169.437C279.602 163.01 282.597 156.072 286.767 149.831C290.148 144.769 294.504 140.078 299.92 136.253C301.974 134.797 304.18 133.469 306.575 132.595C312.23 130.526 318.088 131.109 323.07 132.149C324.532 132.453 325.957 132.802 327.345 133.189C330.278 134.009 333.034 135.012 335.731 136.178C336.775 136.63 337.983 137.111 339.266 137.492C341.587 138.185 344.18 138.49 346.619 137.285C349.336 135.949 350.048 133.558 350.146 131.392C350.18 130.603 350.143 129.849 350.053 129.179C349.788 127.144 349.471 125.255 349.14 123.371C348.801 121.464 348.471 119.567 348.152 117.664C347.347 112.838 346.53 107.582 349.862 102.162C351.906 98.8359 355.613 95.7234 360.168 93.2773C363.12 91.6944 366.385 90.4002 369.77 89.5792C376.93 87.8435 383.731 88.0756 390.388 88.5109C396.903 88.9374 403.328 89.5172 410.04 88.6053C413.185 88.1873 416.298 87.4375 419.402 86.4669C423.272 85.2615 427.15 83.704 431.126 82.2057C435.122 80.7 439.25 79.3017 442.941 78.3477" stroke="url(#paint36_linear_3016_360)" stroke-width="0.5326" stroke-miterlimit="10"></path> <path opacity="0.2195" d="M278.656 203.766C276.678 194.696 274.249 184.208 276.333 172.735C277.524 166.176 280.385 159.117 284.541 152.79C287.899 147.674 292.287 142.952 297.788 139.136C299.871 137.685 302.118 136.369 304.562 135.52C310.331 133.511 316.324 134.248 321.416 135.455C322.912 135.81 324.37 136.207 325.789 136.645C328.788 137.575 331.607 138.691 334.35 139.978C335.41 140.477 336.639 141.005 337.939 141.429C340.299 142.195 342.922 142.554 345.385 141.347C348.126 140.006 348.791 137.566 348.808 135.336C348.813 134.527 348.741 133.744 348.622 133.051C348.257 130.942 347.845 128.964 347.425 126.991C346.991 124.995 346.569 123.008 346.155 121.014C345.108 115.96 344.046 110.473 347.267 104.862C349.238 101.42 352.924 98.2156 357.488 95.7315C360.449 94.1242 363.737 92.8283 367.156 92.0252C374.394 90.3287 381.29 90.6997 388.064 91.2887C394.694 91.8633 401.243 92.6107 408.076 91.8059C411.279 91.4372 414.443 90.7253 417.593 89.7815C421.517 88.6088 425.438 87.0696 429.438 85.5613C433.46 84.0429 437.588 82.5979 441.312 81.5544" stroke="url(#paint37_linear_3016_360)" stroke-width="0.5268" stroke-miterlimit="10"></path> <path opacity="0.1951" d="M278.291 208.428C275.817 198.924 272.929 188.131 274.694 176.383C275.701 169.69 278.424 162.515 282.566 156.1C285.904 150.931 290.318 146.18 295.906 142.373C298.023 140.926 300.31 139.621 302.799 138.798C308.679 136.851 314.807 137.738 320.012 139.111C321.542 139.515 323.031 139.963 324.483 140.454C327.549 141.492 330.435 142.724 333.223 144.128C334.304 144.672 335.549 145.25 336.867 145.714C339.261 146.555 341.921 146.965 344.405 145.754C347.17 144.408 347.787 141.92 347.725 139.626C347.701 138.793 347.593 137.987 347.442 137.268C346.977 135.084 346.473 133.019 345.961 130.957C345.435 128.872 344.921 126.796 344.411 124.711C343.124 119.43 341.82 113.713 344.922 107.909C346.824 104.352 350.486 101.056 355.063 98.5337C358.03 96.8992 361.345 95.6017 364.799 94.8194C372.112 93.1647 379.11 93.6749 385.999 94.4174C392.739 95.1427 399.415 96.0552 406.366 95.36C409.626 95.0433 412.842 94.3666 416.037 93.4496C420.021 92.3096 423.984 90.7889 428.006 89.2678C432.052 87.7367 436.176 86.2447 439.935 85.1118" stroke="url(#paint38_linear_3016_360)" stroke-width="0.521" stroke-miterlimit="10"></path> <path opacity="0.1707" d="M278.182 213.457C275.211 203.516 271.866 192.42 273.311 180.398C274.131 173.57 276.72 166.277 280.848 159.776C284.162 154.551 288.606 149.774 294.282 145.976C296.429 144.536 298.756 143.238 301.294 142.442C307.288 140.555 313.55 141.596 318.866 143.137C320.426 143.588 321.952 144.088 323.434 144.63C326.567 145.778 329.515 147.122 332.349 148.646C333.447 149.235 334.712 149.864 336.047 150.37C338.477 151.285 341.174 151.748 343.678 150.535C346.467 149.185 347.034 146.648 346.891 144.29C346.838 143.434 346.698 142.605 346.512 141.859C345.95 139.602 345.35 137.448 344.744 135.299C344.125 133.125 343.516 130.956 342.911 128.783C341.385 123.274 339.834 117.327 342.821 111.328C344.649 107.655 348.288 104.267 352.878 101.704C355.849 100.045 359.189 98.743 362.683 97.979C370.07 96.366 377.166 97.0153 384.176 97.9089C391.029 98.782 397.831 99.8651 404.903 99.2769C408.221 99.0094 411.488 98.3708 414.725 97.4831C418.764 96.3758 422.774 94.8735 426.816 93.3423C430.883 91.8011 435.011 90.2598 438.8 89.0374" stroke="url(#paint39_linear_3016_360)" stroke-width="0.5153" stroke-miterlimit="10"></path> <path opacity="0.1463" d="M278.343 218.87C274.878 208.496 271.073 197.092 272.199 184.795C272.834 177.832 275.286 170.421 279.4 163.831C282.695 158.554 287.167 153.747 292.927 149.959C295.108 148.523 297.475 147.235 300.059 146.463C306.168 144.636 312.561 145.829 317.99 147.539C319.584 148.042 321.14 148.589 322.656 149.185C325.855 150.441 328.87 151.901 331.745 153.542C332.861 154.179 334.143 154.855 335.499 155.4C337.967 156.391 340.698 156.905 343.222 155.69C346.036 154.335 346.555 151.75 346.331 149.328C346.25 148.449 346.074 147.593 345.859 146.824C345.198 144.494 344.506 142.253 343.807 140.013C343.097 137.749 342.392 135.492 341.695 133.229C339.928 127.493 338.135 121.315 341.004 115.124C342.759 111.335 346.377 107.853 350.977 105.255C353.957 103.571 357.32 102.265 360.846 101.521C368.312 99.9502 375.508 100.725 382.632 101.783C389.599 102.796 396.525 104.055 403.713 103.576C407.086 103.358 410.407 102.757 413.691 101.896C417.784 100.825 421.837 99.3379 425.904 97.794C429.996 96.2401 434.12 94.6519 437.946 93.3374" stroke="url(#paint40_linear_3016_360)" stroke-width="0.5095" stroke-miterlimit="10"></path> <path opacity="0.122" d="M278.789 224.679C274.826 213.868 270.568 202.159 271.37 189.589C271.822 182.493 274.137 174.963 278.237 168.287C281.508 162.957 286.01 158.121 291.857 154.342C294.068 152.91 296.475 151.635 299.108 150.887C305.331 149.123 311.856 150.467 317.398 152.342C319.026 152.892 320.616 153.491 322.161 154.137C325.428 155.503 328.505 157.076 331.427 158.838C332.559 159.519 333.861 160.246 335.238 160.833C337.741 161.897 340.509 162.465 343.054 161.248C345.891 159.892 346.363 157.252 346.059 154.769C345.949 153.867 345.741 152.988 345.49 152.195C344.729 149.792 343.945 147.462 343.154 145.135C342.352 142.783 341.552 140.433 340.76 138.081C338.751 132.12 336.714 125.708 339.468 119.323C341.153 115.418 344.748 111.844 349.357 109.205C352.342 107.497 355.73 106.186 359.295 105.464C366.836 103.934 374.129 104.851 381.374 106.06C388.453 107.224 395.509 108.648 402.815 108.279C406.245 108.11 409.618 107.547 412.947 106.713C417.099 105.674 421.194 104.208 425.283 102.652C429.399 101.085 433.524 99.4499 437.38 98.0459" stroke="url(#paint41_linear_3016_360)" stroke-width="0.5037" stroke-miterlimit="10"></path> <path opacity="0.0732" d="M280.601 237.54C275.645 225.862 270.482 213.531 270.634 200.422C270.719 193.052 272.775 185.296 276.83 178.441C280.068 173.007 284.618 168.108 290.637 164.35C292.912 162.926 295.399 161.67 298.126 160.976C304.574 159.335 311.369 160.982 317.138 163.194C318.833 163.844 320.487 164.544 322.096 165.292C325.499 166.876 328.706 168.675 331.712 170.677C332.881 171.45 334.217 172.275 335.632 172.943C338.206 174.156 341.047 174.829 343.633 173.606C346.519 172.241 346.899 169.503 346.431 166.892C346.266 165.946 345.985 165.015 345.673 164.173C344.712 161.624 343.744 159.116 342.766 156.61C341.776 154.079 340.793 151.551 339.81 149.018C337.322 142.601 334.809 135.73 337.319 128.96C338.869 124.823 342.412 121.066 347.04 118.351C350.039 116.594 353.478 115.274 357.115 114.59C364.809 113.142 372.299 114.339 379.78 115.853C387.084 117.318 394.391 119.075 401.936 118.92C405.48 118.852 408.957 118.362 412.377 117.582C416.643 116.608 420.824 115.179 424.961 113.597C429.123 112.005 433.248 110.274 437.168 108.693" stroke="url(#paint42_linear_3016_360)" stroke-width="0.4921" stroke-miterlimit="10"></path> <path opacity="0.0488" d="M281.988 244.622C276.538 232.508 270.919 219.869 270.748 206.488C270.652 198.981 272.564 191.109 276.608 184.167C279.823 178.681 284.406 173.752 290.509 170.001C292.818 168.584 295.341 167.339 298.121 166.668C304.683 165.087 311.61 166.888 317.492 169.265C319.217 169.963 320.904 170.714 322.547 171.516C326.017 173.21 329.287 175.124 332.338 177.241C333.525 178.059 334.877 178.937 336.313 179.642C338.922 180.933 341.797 181.658 344.407 180.43C347.316 179.06 347.646 176.271 347.102 173.599C346.908 172.63 346.594 171.675 346.247 170.807C345.185 168.182 344.126 165.587 343.055 162.995C341.974 160.375 340.895 157.755 339.817 155.135C337.087 148.491 334.326 141.386 336.725 134.424C338.198 130.172 341.721 126.322 346.365 123.567C349.369 121.785 352.832 120.461 356.505 119.798C364.278 118.392 371.866 119.728 379.462 121.393C386.877 123.011 394.311 124.93 401.977 124.885C405.578 124.866 409.107 124.415 412.569 123.66C416.89 122.722 421.117 121.309 425.276 119.717C429.462 118.112 433.587 116.334 437.541 114.662" stroke="url(#paint43_linear_3016_360)" stroke-width="0.4863" stroke-miterlimit="10"></path> <path opacity="0.0244" d="M283.73 252.16C277.781 239.612 271.713 226.659 271.215 213.011C270.936 205.364 272.707 197.377 276.74 190.352C279.928 184.809 284.544 179.855 290.735 176.113C293.073 174.7 295.64 173.465 298.465 172.821C305.142 171.3 312.203 173.252 318.195 175.799C319.954 176.545 321.675 177.347 323.348 178.2C326.885 180.001 330.221 182.031 333.318 184.268C334.521 185.134 335.894 186.059 337.347 186.806C339.991 188.171 342.903 188.949 345.534 187.716C348.467 186.342 348.747 183.504 348.122 180.769C347.895 179.776 347.553 178.798 347.17 177.906C346.012 175.208 344.853 172.527 343.695 169.843C342.521 167.134 341.347 164.424 340.177 161.712C337.206 154.841 334.201 147.503 336.484 140.352C337.885 135.981 341.387 132.04 346.041 129.249C349.053 127.443 352.54 126.117 356.249 125.47C364.097 124.105 371.783 125.583 379.496 127.398C387.026 129.167 394.584 131.251 402.367 131.316C406.023 131.346 409.603 130.933 413.114 130.205C417.49 129.3 421.764 127.905 425.943 126.3C430.155 124.685 434.276 122.858 438.264 121.096" stroke="url(#paint44_linear_3016_360)" stroke-width="0.4805" stroke-miterlimit="10"></path> </g> <defs> <filter id="filter0_f_3016_360" x="-352" y="-18.0955" width="513" height="356.146" filterUnits="userSpaceOnUse" color-interpolation-filters="sRGB"> <feFlood flood-opacity="0" result="BackgroundImageFix"></feFlood> <feBlend mode="normal" in="SourceGraphic" in2="BackgroundImageFix" result="shape"></feBlend> <feGaussianBlur stdDeviation="50" result="effect1_foregroundBlur_3016_360"></feGaussianBlur> </filter> <filter id="filter1_f_3016_360" x="-273.42" y="20.0935" width="475.786" height="306.499" filterUnits="userSpaceOnUse" color-interpolation-filters="sRGB"> <feFlood flood-opacity="0" result="BackgroundImageFix"></feFlood> <feBlend mode="normal" in="SourceGraphic" in2="BackgroundImageFix" result="shape"></feBlend> <feGaussianBlur stdDeviation="50" result="effect1_foregroundBlur_3016_360"></feGaussianBlur> </filter> <filter id="filter2_f_3016_360" x="10.6787" y="12.2969" width="452.636" height="318.707" filterUnits="userSpaceOnUse" color-interpolation-filters="sRGB"> <feFlood flood-opacity="0" result="BackgroundImageFix"></feFlood> <feBlend mode="normal" in="SourceGraphic" in2="BackgroundImageFix" result="shape"></feBlend> <feGaussianBlur stdDeviation="50" result="effect1_foregroundBlur_3016_360"></feGaussianBlur> </filter> <filter id="filter3_f_3016_360" x="170.488" y="-51.0015" width="404.075" height="443.071" filterUnits="userSpaceOnUse" color-interpolation-filters="sRGB"> <feFlood flood-opacity="0" result="BackgroundImageFix"></feFlood> <feBlend mode="normal" in="SourceGraphic" in2="BackgroundImageFix" result="shape"></feBlend> <feGaussianBlur stdDeviation="50" result="effect1_foregroundBlur_3016_360"></feGaussianBlur> </filter> <linearGradient id="paint0_linear_3016_360" x1="243.19" y1="62.4773" x2="239.637" y2="-19.8405" gradientUnits="userSpaceOnUse"> <stop stop-color="#141516"></stop> <stop offset="1" stop-color="#141516" stop-opacity="0"></stop> </linearGradient> <linearGradient id="paint1_linear_3016_360" x1="27.1724" y1="-42.3929" x2="269.246" y2="254.44" gradientUnits="userSpaceOnUse"> <stop stop-color="#292524" stop-opacity="0.63"></stop> <stop offset="1" stop-color="#1B1920"></stop> </linearGradient> <linearGradient id="paint2_linear_3016_360" x1="15.6667" y1="1.00001" x2="440.88" y2="95.1396" gradientUnits="userSpaceOnUse"> <stop stop-color="#4E4A49"></stop> <stop offset="1" stop-color="#524E67" stop-opacity="0.35"></stop> <stop offset="1" stop-color="#292831"></stop> </linearGradient> <linearGradient id="paint3_linear_3016_360" x1="-48.9055" y1="-36.8947" x2="110.741" y2="300.986" gradientUnits="userSpaceOnUse"> <stop stop-color="#FFC7E2"></stop> <stop offset="1" stop-color="#5C519B" stop-opacity="0.08"></stop> </linearGradient> <linearGradient id="paint4_linear_3016_360" x1="482.588" y1="192.842" x2="364.458" y2="-158.052" gradientUnits="userSpaceOnUse"> <stop stop-color="#686079" stop-opacity="0.05"></stop> <stop offset="1" stop-color="#FFEFF5" stop-opacity="0.1"></stop> </linearGradient> <linearGradient id="paint5_linear_3016_360" x1="432.2" y1="69.8432" x2="428.012" y2="168.936" gradientUnits="userSpaceOnUse"> <stop stop-color="#FFEAC2" stop-opacity="0.72"></stop> <stop offset="1" stop-color="#BCB6FF" stop-opacity="0.85"></stop> </linearGradient> <linearGradient id="paint6_linear_3016_360" x1="432.065" y1="69.5604" x2="427.858" y2="169.115" gradientUnits="userSpaceOnUse"> <stop stop-color="#FFEAC2" stop-opacity="0.72"></stop> <stop offset="1" stop-color="#BCB6FF" stop-opacity="0.85"></stop> </linearGradient> <linearGradient id="paint7_linear_3016_360" x1="431.623" y1="69.1741" x2="427.395" y2="169.224" gradientUnits="userSpaceOnUse"> <stop stop-color="#FFEAC2" stop-opacity="0.72"></stop> <stop offset="1" stop-color="#BCB6FF" stop-opacity="0.85"></stop> </linearGradient> <linearGradient id="paint8_linear_3016_360" x1="430.905" y1="68.6677" x2="426.654" y2="169.274" gradientUnits="userSpaceOnUse"> <stop stop-color="#FFEAC2" stop-opacity="0.72"></stop> <stop offset="1" stop-color="#BCB6FF" stop-opacity="0.85"></stop> </linearGradient> <linearGradient id="paint9_linear_3016_360" x1="429.921" y1="68.0805" x2="425.644" y2="169.284" gradientUnits="userSpaceOnUse"> <stop stop-color="#FFEAC2" stop-opacity="0.72"></stop> <stop offset="1" stop-color="#BCB6FF" stop-opacity="0.85"></stop> </linearGradient> <linearGradient id="paint10_linear_3016_360" x1="428.693" y1="67.4103" x2="424.388" y2="169.271" gradientUnits="userSpaceOnUse"> <stop stop-color="#FFEAC2" stop-opacity="0.72"></stop> <stop offset="1" stop-color="#BCB6FF" stop-opacity="0.85"></stop> </linearGradient> <linearGradient id="paint11_linear_3016_360" x1="427.23" y1="66.6851" x2="422.896" y2="169.247" gradientUnits="userSpaceOnUse"> <stop stop-color="#FFEAC2" stop-opacity="0.72"></stop> <stop offset="1" stop-color="#BCB6FF" stop-opacity="0.85"></stop> </linearGradient> <linearGradient id="paint12_linear_3016_360" x1="425.55" y1="65.9057" x2="421.184" y2="169.229" gradientUnits="userSpaceOnUse"> <stop stop-color="#FFEAC2" stop-opacity="0.72"></stop> <stop offset="1" stop-color="#BCB6FF" stop-opacity="0.85"></stop> </linearGradient> <linearGradient id="paint13_linear_3016_360" x1="423.678" y1="65.0939" x2="419.278" y2="169.232" gradientUnits="userSpaceOnUse"> <stop stop-color="#FFEAC2" stop-opacity="0.72"></stop> <stop offset="1" stop-color="#BCB6FF" stop-opacity="0.85"></stop> </linearGradient> <linearGradient id="paint14_linear_3016_360" x1="421.616" y1="64.2635" x2="417.179" y2="169.271" gradientUnits="userSpaceOnUse"> <stop stop-color="#FFEAC2" stop-opacity="0.72"></stop> <stop offset="1" stop-color="#BCB6FF" stop-opacity="0.85"></stop> </linearGradient> <linearGradient id="paint15_linear_3016_360" x1="419.399" y1="63.42" x2="414.923" y2="169.362" gradientUnits="userSpaceOnUse"> <stop stop-color="#FFEAC2" stop-opacity="0.72"></stop> <stop offset="1" stop-color="#BCB6FF" stop-opacity="0.85"></stop> </linearGradient> <linearGradient id="paint16_linear_3016_360" x1="417.027" y1="62.5863" x2="412.509" y2="169.513" gradientUnits="userSpaceOnUse"> <stop stop-color="#FFEAC2" stop-opacity="0.72"></stop> <stop offset="1" stop-color="#BCB6FF" stop-opacity="0.85"></stop> </linearGradient> <linearGradient id="paint17_linear_3016_360" x1="414.529" y1="61.7991" x2="409.97" y2="169.72" gradientUnits="userSpaceOnUse"> <stop stop-color="#FFEAC2" stop-opacity="0.72"></stop> <stop offset="1" stop-color="#BCB6FF" stop-opacity="0.85"></stop> </linearGradient> <linearGradient id="paint18_linear_3016_360" x1="411.912" y1="61.0714" x2="407.31" y2="169.996" gradientUnits="userSpaceOnUse"> <stop stop-color="#FFEAC2" stop-opacity="0.72"></stop> <stop offset="1" stop-color="#BCB6FF" stop-opacity="0.85"></stop> </linearGradient> <linearGradient id="paint19_linear_3016_360" x1="409.201" y1="60.4225" x2="404.556" y2="170.353" gradientUnits="userSpaceOnUse"> <stop stop-color="#FFEAC2" stop-opacity="0.72"></stop> <stop offset="1" stop-color="#BCB6FF" stop-opacity="0.85"></stop> </linearGradient> <linearGradient id="paint20_linear_3016_360" x1="406.397" y1="59.8615" x2="401.71" y2="170.806" gradientUnits="userSpaceOnUse"> <stop stop-color="#FFEAC2" stop-opacity="0.72"></stop> <stop offset="1" stop-color="#BCB6FF" stop-opacity="0.85"></stop> </linearGradient> <linearGradient id="paint21_linear_3016_360" x1="403.526" y1="59.4123" x2="398.796" y2="171.372" gradientUnits="userSpaceOnUse"> <stop stop-color="#FFEAC2" stop-opacity="0.72"></stop> <stop offset="1" stop-color="#BCB6FF" stop-opacity="0.85"></stop> </linearGradient> <linearGradient id="paint22_linear_3016_360" x1="400.613" y1="59.0685" x2="395.84" y2="172.065" gradientUnits="userSpaceOnUse"> <stop stop-color="#FFEAC2" stop-opacity="0.72"></stop> <stop offset="1" stop-color="#BCB6FF" stop-opacity="0.85"></stop> </linearGradient> <linearGradient id="paint23_linear_3016_360" x1="397.665" y1="58.8609" x2="392.848" y2="172.899" gradientUnits="userSpaceOnUse"> <stop stop-color="#FFEAC2" stop-opacity="0.72"></stop> <stop offset="1" stop-color="#BCB6FF" stop-opacity="0.85"></stop> </linearGradient> <linearGradient id="paint24_linear_3016_360" x1="394.694" y1="58.7981" x2="389.832" y2="173.888" gradientUnits="userSpaceOnUse"> <stop stop-color="#FFEAC2" stop-opacity="0.72"></stop> <stop offset="1" stop-color="#BCB6FF" stop-opacity="0.85"></stop> </linearGradient> <linearGradient id="paint25_linear_3016_360" x1="391.736" y1="58.8982" x2="386.83" y2="175.045" gradientUnits="userSpaceOnUse"> <stop stop-color="#FFEAC2" stop-opacity="0.72"></stop> <stop offset="1" stop-color="#BCB6FF" stop-opacity="0.85"></stop> </linearGradient> <linearGradient id="paint26_linear_3016_360" x1="388.79" y1="59.1778" x2="383.839" y2="176.384" gradientUnits="userSpaceOnUse"> <stop stop-color="#FFEAC2" stop-opacity="0.72"></stop> <stop offset="1" stop-color="#BCB6FF" stop-opacity="0.85"></stop> </linearGradient> <linearGradient id="paint27_linear_3016_360" x1="385.876" y1="59.6472" x2="380.881" y2="177.913" gradientUnits="userSpaceOnUse"> <stop stop-color="#FFEAC2" stop-opacity="0.72"></stop> <stop offset="1" stop-color="#BCB6FF" stop-opacity="0.85"></stop> </linearGradient> <linearGradient id="paint28_linear_3016_360" x1="383.017" y1="60.3394" x2="377.977" y2="179.653" gradientUnits="userSpaceOnUse"> <stop stop-color="#FFEAC2" stop-opacity="0.72"></stop> <stop offset="1" stop-color="#BCB6FF" stop-opacity="0.85"></stop> </linearGradient> <linearGradient id="paint29_linear_3016_360" x1="380.219" y1="61.2401" x2="375.135" y2="181.616" gradientUnits="userSpaceOnUse"> <stop stop-color="#FFEAC2" stop-opacity="0.72"></stop> <stop offset="1" stop-color="#BCB6FF" stop-opacity="0.85"></stop> </linearGradient> <linearGradient id="paint30_linear_3016_360" x1="377.505" y1="62.3831" x2="372.377" y2="183.816" gradientUnits="userSpaceOnUse"> <stop stop-color="#FFEAC2" stop-opacity="0.72"></stop> <stop offset="1" stop-color="#BCB6FF" stop-opacity="0.85"></stop> </linearGradient> <linearGradient id="paint31_linear_3016_360" x1="374.895" y1="63.7777" x2="369.722" y2="186.267" gradientUnits="userSpaceOnUse"> <stop stop-color="#FFEAC2" stop-opacity="0.72"></stop> <stop offset="1" stop-color="#BCB6FF" stop-opacity="0.85"></stop> </linearGradient> <linearGradient id="paint32_linear_3016_360" x1="372.398" y1="65.4376" x2="367.181" y2="188.984" gradientUnits="userSpaceOnUse"> <stop stop-color="#FFEAC2" stop-opacity="0.72"></stop> <stop offset="1" stop-color="#BCB6FF" stop-opacity="0.85"></stop> </linearGradient> <linearGradient id="paint33_linear_3016_360" x1="370.034" y1="67.372" x2="364.773" y2="191.98" gradientUnits="userSpaceOnUse"> <stop stop-color="#FFEAC2" stop-opacity="0.72"></stop> <stop offset="1" stop-color="#BCB6FF" stop-opacity="0.85"></stop> </linearGradient> <linearGradient id="paint34_linear_3016_360" x1="367.825" y1="69.6121" x2="362.518" y2="195.273" gradientUnits="userSpaceOnUse"> <stop stop-color="#FFEAC2" stop-opacity="0.72"></stop> <stop offset="1" stop-color="#BCB6FF" stop-opacity="0.85"></stop> </linearGradient> <linearGradient id="paint35_linear_3016_360" x1="365.782" y1="72.1502" x2="360.431" y2="198.877" gradientUnits="userSpaceOnUse"> <stop stop-color="#FFEAC2" stop-opacity="0.72"></stop> <stop offset="1" stop-color="#BCB6FF" stop-opacity="0.85"></stop> </linearGradient> <linearGradient id="paint36_linear_3016_360" x1="363.928" y1="75.0114" x2="358.532" y2="202.801" gradientUnits="userSpaceOnUse"> <stop stop-color="#FFEAC2" stop-opacity="0.72"></stop> <stop offset="1" stop-color="#BCB6FF" stop-opacity="0.85"></stop> </linearGradient> <linearGradient id="paint37_linear_3016_360" x1="362.27" y1="78.217" x2="356.829" y2="207.066" gradientUnits="userSpaceOnUse"> <stop stop-color="#FFEAC2" stop-opacity="0.72"></stop> <stop offset="1" stop-color="#BCB6FF" stop-opacity="0.85"></stop> </linearGradient> <linearGradient id="paint38_linear_3016_360" x1="360.833" y1="81.772" x2="355.348" y2="211.682" gradientUnits="userSpaceOnUse"> <stop stop-color="#FFEAC2" stop-opacity="0.72"></stop> <stop offset="1" stop-color="#BCB6FF" stop-opacity="0.85"></stop> </linearGradient> <linearGradient id="paint39_linear_3016_360" x1="359.622" y1="85.6944" x2="354.092" y2="216.662" gradientUnits="userSpaceOnUse"> <stop stop-color="#FFEAC2" stop-opacity="0.72"></stop> <stop offset="1" stop-color="#BCB6FF" stop-opacity="0.85"></stop> </linearGradient> <linearGradient id="paint40_linear_3016_360" x1="358.664" y1="89.9901" x2="353.09" y2="222.026" gradientUnits="userSpaceOnUse"> <stop stop-color="#FFEAC2" stop-opacity="0.72"></stop> <stop offset="1" stop-color="#BCB6FF" stop-opacity="0.85"></stop> </linearGradient> <linearGradient id="paint41_linear_3016_360" x1="357.973" y1="94.6934" x2="352.354" y2="227.785" gradientUnits="userSpaceOnUse"> <stop stop-color="#FFEAC2" stop-opacity="0.72"></stop> <stop offset="1" stop-color="#BCB6FF" stop-opacity="0.85"></stop> </linearGradient> <linearGradient id="paint42_linear_3016_360" x1="357.468" y1="105.329" x2="351.759" y2="240.544" gradientUnits="userSpaceOnUse"> <stop stop-color="#FFEAC2" stop-opacity="0.72"></stop> <stop offset="1" stop-color="#BCB6FF" stop-opacity="0.85"></stop> </linearGradient> <linearGradient id="paint43_linear_3016_360" x1="357.677" y1="111.29" x2="351.923" y2="247.575" gradientUnits="userSpaceOnUse"> <stop stop-color="#FFEAC2" stop-opacity="0.72"></stop> <stop offset="1" stop-color="#BCB6FF" stop-opacity="0.85"></stop> </linearGradient> <linearGradient id="paint44_linear_3016_360" x1="358.225" y1="117.717" x2="352.427" y2="255.06" gradientUnits="userSpaceOnUse"> <stop stop-color="#FFEAC2" stop-opacity="0.72"></stop> <stop offset="1" stop-color="#BCB6FF" stop-opacity="0.85"></stop> </linearGradient> </defs> </svg> 