<?xml version="1.0" encoding="UTF-8"?> <svg xmlns="http://www.w3.org/2000/svg" width="233" height="200" viewBox="0 0 233 200" fill="none"> <path d="M0.5 0.5H232.5V180C232.5 190.77 223.77 199.5 213 199.5H0.5V0.5Z" fill="#F0F0F0" stroke="#C7C7C7"></path> <path fill-rule="evenodd" clip-rule="evenodd" d="M137.313 85C133.968 89.3565 132.129 94.7745 132.12 100.312C132.116 105.864 133.953 111.302 137.315 115.676L141.707 112.073C139.158 108.721 137.761 104.564 137.765 100.316C137.769 96.0871 139.168 91.9441 141.707 88.6029L137.313 85ZM59.0501 106.485L50.2928 90.4284H44L55.2176 110.251H62.8804L74.098 90.4284H67.8032L59.0501 106.485ZM168.136 90.4284L160.064 97.0521L151.991 90.4284H143.979L156.056 100.339L143.979 110.251H151.991L160.064 103.628L168.136 110.251H176.146L164.069 100.339L176.146 90.4284H168.136ZM77.7458 90.4284H83.3536V110.251H77.7458V90.4284ZM102.054 106.485L93.299 90.4284H87.0062L98.2216 110.251H105.887L117.104 90.4284H110.809L102.054 106.485ZM120.756 90.4284H126.364V110.251H120.756V90.4284ZM178.412 88.605L182.807 85C186.151 89.3565 187.991 94.7745 187.999 100.314C188.003 105.866 186.164 111.307 182.804 115.678L178.412 112.075C180.961 108.723 182.356 104.566 182.354 100.318C182.35 96.0892 180.951 91.9462 178.412 88.605Z" fill="#141516"></path> </svg> 